<svg xmlns="http://www.w3.org/2000/svg" width="800.205" height="434.249" viewBox="0 0 800.205 434.249"><g transform="translate(-604.795 -228.44)"><rect width="249" height="39" rx="19.5" transform="translate(914 506.709)" fill="#6c63ff"/><path d="M163.91,103.535a68.626,68.626,0,1,1,76.3,80.137l-28.462,83.982-56.679-67.363s17.652-15.754,29.052-35.035a68.551,68.551,0,0,1-20.206-61.721Z" transform="translate(573.388 209.027)" fill="#ed9da0"/><path d="M138.038,214.788S47.377,230.075,35.415,248.417s-24.721,44.658-24.721,44.658S-23.6,463.731,30.63,487.655l219.052-31.236L222.818,376.01l27.114,80.543L313.357,446.4S275.45,258.784,253.919,246.025s-48.447-9.331-48.447-9.331-42.862,42.587-66.985-21.889l-.449-.017Z" transform="translate(604.795 175.033)" fill="#e6e6e6"/><path d="M217.932,69.156s19.185,5.895,27.16-3.675c0,0,19.139.8,23.126,11.164S296.129,91.8,304.1,83.025,324.04,58.3,308.889,43.95c0,0-2.392-15.152-15.152-18.342l-7.177,6.38s-94.8-44.583-106.013.835c0,0-17.167-3.236-9.007,7.135,0,0-9.195,10.661-15.027,30.879a83.352,83.352,0,0,0,26.925,87.014h0S163.052,104.339,180.547,120s16.7-20.227,16.7-20.227,26.224-15.777,20.688-30.616Z" transform="translate(573.749 216.021)" fill="#090814"/><path d="M302.418,418.947l-133.433,71.1-25.655-37.828,139.447-69.943c2.908-10.181,10.567-19.817,21.756-25.809,19.578-10.486,42.484-5.851,51.162,10.352s-.159,37.837-19.737,48.323c-11.189,5.993-23.455,7.027-33.541,3.806Z" transform="translate(575.765 147.475)" fill="#ed9da0"/><path d="M94.232,396.958,87.852,416.1s15.152,16.178,0,25.235l53.43-6.893s21.63-15.954,23.176-2.793c0,0,27.064-17.941,32.646-6.776,0,0-16.007,34.614,9.142,52.4l-33.464,15.047-23.836,16.132L38.41,524.552" transform="translate(597.015 138.137)" fill="#e6e6e6"/><rect width="214" height="39" rx="19.5" transform="translate(1023 365.708)" fill="#e6e6e6"/><rect width="92" height="38" rx="19" transform="translate(918 423.708)" fill="#e6e6e6"/><path d="M250,1.5H0v-3H250Z" transform="translate(1023 461.708)" fill="#6c63ff"/><rect width="119" height="38" rx="19" transform="translate(1286 423.708)" fill="#e6e6e6"/><rect width="155" height="39" rx="19.5" transform="translate(1250 365.708)" fill="#e6e6e6"/><rect width="92" height="39" rx="19.5" transform="translate(918 365.708)" fill="#e6e6e6"/><g transform="translate(1140.453 423.466)"><path d="M462.46,381.058h-.582a1.968,1.968,0,0,1-1.966-1.966V378.6a6.015,6.015,0,0,1,.681-3.011,15.838,15.838,0,0,1,1.908-2.564,11.3,11.3,0,0,0,1.3-1.564,2.63,2.63,0,0,0,.41-1.455c0-1.214-.791-1.8-2.417-1.8a9.816,9.816,0,0,0-2.664.4,2.243,2.243,0,0,1-2.859-2.157v-.989a2.2,2.2,0,0,1,1.3-2.017,12.879,12.879,0,0,1,9.51-.083,7.539,7.539,0,0,1,3.2,2.422,5.834,5.834,0,0,1,1.146,3.536,5.751,5.751,0,0,1-1.108,3.536,20.215,20.215,0,0,1-3.1,3.158,22.086,22.086,0,0,0-1.987,1.872,3.456,3.456,0,0,0-.826,1.538A1.961,1.961,0,0,1,462.46,381.058Z" transform="translate(-456.268 -362.491)" fill="#6c63ff"/><path d="M474.11,504.7h-.077a3.644,3.644,0,1,1,0-7.287h.077a3.644,3.644,0,1,1,0,7.287Z" transform="translate(-468.241 -476.884)" fill="#6c63ff"/></g></g></svg>