<svg xmlns="http://www.w3.org/2000/svg" width="799.938" height="538.594" viewBox="0 0 799.938 538.594"><g transform="translate(-171 -138)"><g transform="translate(895.655 317.75)"><g transform="translate(0 0)"><path d="M334.313,299.843l-.32,21.938-21.061.071s5.345-17.174,2.951-20.765S334.313,299.843,334.313,299.843Z" transform="translate(-279.612 -258.715)" fill="#9f616a"/><path d="M343.674,594.882l1.288,45.093L358.706,692.8s-3.006,9.018-.859,11.167,12.025,6.013,12.025,6.013L361.713,597.46Z" transform="translate(-333.25 -380.56)" fill="#090814"/><path d="M373.243,779.315s4.9,10.782-1.96,11.762-38.553,3.592-36.593-1.96S360.5,778.336,360.5,778.336Z" transform="translate(-332.982 -456.13)" fill="#090814"/><path d="M357.969,526.869s-5.154,27.915-8.59,32.641S351.1,598.59,351.1,598.59s7.731,49.388,4.295,57.118-2.577,5.154-2.147,9.449,1.288,7.731,0,11.6-1.288,3.436-1.718,5.583,0,13.743,0,13.743-18.467,6.442-21.474-3.006c0,0,4.295-6.013,3.006-10.736a57.194,57.194,0,0,1-2.147-14.6v-9.021l-19.756-73.871-4.724-26.628s1.288-27.056,6.013-29.633S357.969,526.869,357.969,526.869Z" transform="translate(-299.445 -352.487)" fill="#090814"/><path d="M366.579,810.146s6.442,14.172-2.577,15.461-50.679,4.724-48.1-2.577,33.928-14.172,33.928-14.172Z" transform="translate(-315.785 -468.703)" fill="#090814"/><ellipse cx="17.179" cy="17.179" rx="17.179" ry="17.179" transform="translate(25.451 16.358)" fill="#9f616a"/><path d="M310.343,349.04s15.031-19.326,26.628-11.167,15.89,27.487,15.89,27.487l-2.577,54.115s-6.442,7.731-2.577,12.884,6.013,3.865,3.006,7.731-6.442,6.872-5.154,8.16-1.288,2.147-1.288,2.147l-45.525,1.288s1.288-1.718-2.577-6.872.859-12.026,0-14.6-1.718.429-2.147-5.583S310.343,349.04,310.343,349.04Z" transform="translate(-287.035 -273.864)" fill="#6c63ff"/><path d="M373.851,543.675s-.859,10.736-7.3,12.454c-2.416.644-4.228-.584-5.549-2.371a10.547,10.547,0,0,1-.337-11.833l1.591-2.546Z" transform="translate(-346.248 -357.698)" fill="#9f616a"/><path d="M334.658,320.308s.429,8.59,0,9.877-.859,2.577,0,3.865.429,5.583-.429,6.013,1.718,4.295.859,6.872a18.629,18.629,0,0,1-2.147,4.295c-.429.859-1.121,2.4-1.121,2.4s-12.622-26.878-22.93-20.436a74.736,74.736,0,0,1-18.467,8.59S296,311.719,334.658,320.308Z" transform="translate(-267.326 -266.82)" fill="#6c63ff"/><path d="M333.141,355.261s13.743,1.288,12.884,19.326,1.288,46.384,1.288,46.384-23.621,36.077-27.487,38.653-4.295,2.147-3.865,4.295.859,3.865-.859,5.583a14.83,14.83,0,0,1-3.436,2.577s-13.743-4.724-12.454-9.018,7.3-11.167,7.3-11.167,10.308-16.749,10.736-19.326.429-2.147,1.718-3.436,4.724-6.442,4.724-9.018v-8.162l-3.6-43.606a12.641,12.641,0,0,1,3.352-9.79A10.938,10.938,0,0,1,333.141,355.261Z" transform="translate(-284.495 -281.806)" fill="#6c63ff"/><path d="M326.788,477.514,302.68,508.8S324.879,490.243,326.788,477.514Z" transform="translate(-266.059 -332.214)" opacity="0.1"/><path d="M112.1,359.249l.228,29.547-14,21.006,11.456-23.549Z" transform="translate(-74.509 -248.587)" opacity="0.1"/><path d="M32.148,30.97a22.684,22.684,0,0,0-4.275.59,10.819,10.819,0,0,1-11.563-8.068,6.19,6.19,0,0,0-.592-1.927c-.787-1.285-2.576-1.53-4.059-1.235A31.661,31.661,0,0,1,7.275,21.4a6.713,6.713,0,0,1-5.792-3.279A11.117,11.117,0,0,1,.061,11.4l1.114,1.171A5.658,5.658,0,0,0,1.68,9.5a3.568,3.568,0,0,1,3.382.861c.982.1.241-1.822.97-2.488a1.688,1.688,0,0,1,1.187-.222c2.09.02,3.78-1.578,5.426-2.865a23.059,23.059,0,0,1,9.74-4.44,12.813,12.813,0,0,1,7.1.344,15.179,15.179,0,0,1,4.8,3.4c3.5,3.368,6.606,7.326,8.063,11.963a20.14,20.14,0,0,1,.1,11.677c-.592,1.986-2.361,8.77-4.953,8.928C34.245,36.862,36.2,31.21,32.148,30.97Z" transform="translate(41.652 0) rotate(38.991)" fill="#090814"/></g></g><path d="M740.554,542.59h-515.5a15.7,15.7,0,0,1-15.684-15.683V236.239h546.87V526.906a15.7,15.7,0,0,1-15.683,15.684Z" transform="translate(54.874 -80.557)" fill="#e6e6e6"/><path d="M750.481,540.15H247.515a8.764,8.764,0,0,1-8.565-8.933V276.754a8.764,8.764,0,0,1,8.565-8.933H750.481a8.764,8.764,0,0,1,8.565,8.933V531.217a8.764,8.764,0,0,1-8.565,8.933Z" transform="translate(38.679 -90.444)" fill="#fff"/><path d="M755.084,245.913H208.213V233.321a15.67,15.67,0,0,1,15.621-15.684H739.463a15.67,15.67,0,0,1,15.621,15.684Z" transform="translate(56.028 -79.637)" fill="#6c63ff"/><ellipse cx="4.071" cy="4.071" rx="4.071" ry="4.071" transform="translate(277.061 148.233)" fill="#fff"/><ellipse cx="4.071" cy="4.071" rx="4.071" ry="4.071" transform="translate(292.515 148.233)" fill="#fff"/><ellipse cx="4.071" cy="4.071" rx="4.071" ry="4.071" transform="translate(307.969 148.233)" fill="#fff"/><path d="M16,0H191a16,16,0,0,1,16,16v93a16,16,0,0,1-16,16H16A16,16,0,0,1,0,109V16A16,16,0,0,1,16,0Z" transform="translate(439 189.865)" fill="#f2f2f2"/><g transform="translate(670.762 213.745)"><path d="M6.247,0H227.235a6.247,6.247,0,0,1,6.247,6.247V57.785a6.247,6.247,0,0,1-6.247,6.247H6.247A6.247,6.247,0,0,1,0,57.785V6.247A6.247,6.247,0,0,1,6.247,0Z" transform="translate(0 0)" fill="#090814"/><path d="M6.205,0h219.51a6.151,6.151,0,0,1,6.205,6.095V56.376a6.151,6.151,0,0,1-6.205,6.095H6.205A6.151,6.151,0,0,1,0,56.376V6.095A6.151,6.151,0,0,1,6.205,0Z" transform="translate(0.781 0.781)" fill="#f2f2f2"/><path d="M16.98,0A16.98,16.98,0,1,1,0,16.98,16.98,16.98,0,0,1,16.98,0Z" transform="translate(22.064 15.016)" fill="#6c63ff"/><path d="M692.428,557.868a2.83,2.83,0,1,0,0,5.66H825.846a2.83,2.83,0,1,0,0-5.66Z" transform="translate(-614.166 -536.605)" fill="#6c63ff"/><path d="M692.428,579.614a2.83,2.83,0,0,0,0,5.66h57.41a2.83,2.83,0,0,0,0-5.66Z" transform="translate(-614.166 -541.37)" fill="#6c63ff"/></g><path d="M9.371,0A9.371,9.371,0,1,1,0,9.371,9.371,9.371,0,0,1,9.371,0Z" transform="translate(438.841 325.411)" fill="#f2f2f2"/><path d="M692.428,579.614a2.83,2.83,0,0,0,0,5.66h57.41a2.83,2.83,0,0,0,0-5.66Z" transform="translate(-224.52 -247.663)" fill="#f2f2f2"/><path d="M207,84H0V16A16,16,0,0,1,16,0H191a16,16,0,0,1,16,16V84Z" transform="translate(439 364.865)" fill="#f2f2f2"/><g transform="translate(171 301.203)"><path d="M6.247,0H227.235a6.247,6.247,0,0,1,6.247,6.247V57.785a6.247,6.247,0,0,1-6.247,6.247H6.247A6.247,6.247,0,0,1,0,57.785V6.247A6.247,6.247,0,0,1,6.247,0Z" transform="translate(0 0)" fill="#090814"/><path d="M6.205,0h219.51a6.151,6.151,0,0,1,6.205,6.095V56.376a6.151,6.151,0,0,1-6.205,6.095H6.205A6.151,6.151,0,0,1,0,56.376V6.095A6.151,6.151,0,0,1,6.205,0Z" transform="translate(0.781 0.781)" fill="#f2f2f2"/><path d="M16.98,0A16.98,16.98,0,1,1,0,16.98,16.98,16.98,0,0,1,16.98,0Z" transform="translate(22.064 15.016)" fill="#6c63ff"/><path d="M692.428,557.868a2.83,2.83,0,1,0,0,5.66H825.846a2.83,2.83,0,1,0,0-5.66Z" transform="translate(-614.166 -536.605)" fill="#6c63ff"/><path d="M692.428,579.614a2.83,2.83,0,0,0,0,5.66h57.41a2.83,2.83,0,0,0,0-5.66Z" transform="translate(-614.166 -541.37)" fill="#6c63ff"/></g></g></svg>