<svg width="25" height="24" viewBox="0 0 25 24" fill="none" xmlns="http://www.w3.org/2000/svg">
    <path
        d="M12.1738 5.49104C12.1329 5.13024 11.8278 4.85751 11.4647 4.85714C11.1016 4.85677 10.796 5.12887 10.7544 5.48959C10.4839 7.83515 9.78261 9.48448 8.65126 10.6158C7.51992 11.7472 5.87058 12.4485 3.52502 12.719C3.16431 12.7606 2.89221 13.0662 2.89258 13.4293C2.89295 13.7924 3.16568 14.0975 3.52647 14.1383C5.83327 14.3996 7.51766 15.1006 8.67586 16.2379C9.82971 17.3709 10.5456 19.0198 10.7525 21.3489C10.7853 21.7178 11.0945 22.0004 11.4648 22C11.8351 21.9996 12.1437 21.7162 12.1756 21.3473C12.3739 19.0565 13.0892 17.3729 14.2487 16.2133C15.4083 15.0537 17.092 14.3385 19.3827 14.1402C19.7517 14.1083 20.035 13.7997 20.0354 13.4294C20.0359 13.0591 19.7532 12.7499 19.3843 12.7171C17.0553 12.5102 15.4063 11.7943 14.2733 10.6404C13.136 9.48222 12.435 7.79783 12.1738 5.49104Z"
        fill="#1E96EB" />
    <path
        d="M19.8353 2.24651C19.8194 2.1062 19.7007 2.00014 19.5595 2C19.4183 1.99986 19.2995 2.10567 19.2833 2.24595C19.1781 3.15811 18.9054 3.79952 18.4654 4.23949C18.0254 4.67946 17.384 4.95218 16.4719 5.05739C16.3316 5.07356 16.2258 5.19241 16.2259 5.33362C16.2261 5.47482 16.3321 5.59345 16.4724 5.60935C17.3695 5.71096 18.0246 5.98357 18.475 6.42584C18.9237 6.86644 19.2021 7.50771 19.2826 8.41347C19.2953 8.55691 19.4156 8.66683 19.5596 8.66667C19.7036 8.6665 19.8236 8.55632 19.836 8.41284C19.9131 7.52199 20.1913 6.86723 20.6422 6.41629C21.0931 5.96534 21.7479 5.68719 22.6388 5.61008C22.7822 5.59766 22.8924 5.47765 22.8926 5.33365C22.8927 5.18964 22.7828 5.06939 22.6394 5.05664C21.7336 4.97619 21.0924 4.69777 20.6517 4.24905C20.2095 3.79864 19.9369 3.1436 19.8353 2.24651Z"
        fill="#1E96EB" />
</svg>