<svg xmlns="http://www.w3.org/2000/svg" width="910.908" height="704.996" viewBox="0 0 910.908 704.996">
  <g id="Group_92" data-name="Group 92" transform="translate(-505 -188)">
    <ellipse id="Ellipse_282" data-name="Ellipse 282" cx="48.503" cy="98.965" rx="48.503" ry="98.965" transform="translate(1153.814 631.805)" fill="#090814"/>
    <path id="Path_1485" data-name="Path 1485" d="M837.384,802.263c19.426-116.551.2-232.682,0-233.84l-3.779.64c.2,1.153,19.315,116.673,0,232.571Z" transform="translate(360.454 90.498)" fill="#cacaca"/>
    <rect id="Rectangle_359" data-name="Rectangle 359" width="3.833" height="49.74" transform="translate(1157.802 712.873) rotate(-61.858)" fill="#cacaca"/>
    <rect id="Rectangle_360" data-name="Rectangle 360" width="49.741" height="3.833" transform="translate(1204.099 744.718) rotate(-28.158)" fill="#cacaca"/>
    <ellipse id="Ellipse_283" data-name="Ellipse 283" cx="94.866" cy="193.564" rx="94.866" ry="193.564" transform="translate(1223.989 380.58)" fill="#e6e6e6"/>
    <path id="Path_1486" data-name="Path 1486" d="M947.834,800.179c37.944-227.66.383-454.492,0-456.756l-3.779.64c.383,2.259,37.834,228.48,0,455.487Z" transform="translate(360.454 90.498)" fill="#cacaca"/>
    <rect id="Rectangle_361" data-name="Rectangle 361" width="3.833" height="97.287" transform="translate(1232.657 537.519) rotate(-61.858)" fill="#cacaca"/>
    <rect id="Rectangle_362" data-name="Rectangle 362" width="97.287" height="3.833" transform="translate(1323.207 603.025) rotate(-28.158)" fill="#cacaca"/>
    <path id="Path_1487" data-name="Path 1487" d="M738.076,800.787h-504.6a7.008,7.008,0,0,1-7-7V474.942a7.008,7.008,0,0,1,7-7h504.6a7.008,7.008,0,0,1,7,7V793.787a7.009,7.009,0,0,1-7,7Z" transform="translate(360.454 90.498)" fill="#e4e4e4"/>
    <path id="Path_1488" data-name="Path 1488" d="M279.884,506.579a3,3,0,0,0-3,3V759.151a3,3,0,0,0,3,3H691.671a3,3,0,0,0,3-3V509.579a3,3,0,0,0-3-3Z" transform="translate(360.454 90.498)" fill="#fff"/>
    <path id="Path_1489" data-name="Path 1489" d="M695.671,570.859V555.044H637.437V505.579H621.622v49.465H517.947V505.579H502.133v49.465H342.227V505.579H326.412v49.465H271.117v15.815h55.294v61.5H271.117v15.815h55.294v65.9H271.117v15.815H411.636V763.15h15.815V729.886h74.681V763.15h15.814V729.886H695.671V714.071H517.947v-65.9H695.671V632.361H637.437v-61.5Zm-193.538,0v19.329H342.227V570.859ZM342.227,606H502.133v26.358H342.227Zm0,108.068v-65.9h69.41v65.9Zm159.906,0H427.451v-65.9h74.681Zm119.49-81.71H517.947v-61.5H621.622Z" transform="translate(360.454 90.498)" fill="#e6e6e6"/>
    <circle id="Ellipse_284" data-name="Ellipse 284" cx="20.208" cy="20.208" r="20.208" transform="translate(850.286 712.559)" fill="#6c63ff"/>
    <path id="Path_1490" data-name="Path 1490" d="M910.513,705H0v-2.182H910.908Z" transform="translate(505 188)" fill="#cacaca"/>
    <circle id="Ellipse_285" data-name="Ellipse 285" cx="124.655" cy="124.655" r="124.655" transform="translate(748.261 363.412)" fill="#6c63ff"/>
    <path id="Path_1491" data-name="Path 1491" d="M369.135,502.707l-39.382-67.274-39.382-67.274,77.952-.469,77.952-.469L407.7,434.964Z" transform="translate(502.171 188)" fill="#6c63ff"/>
    <circle id="Ellipse_286" data-name="Ellipse 286" cx="44.724" cy="44.724" r="44.724" transform="translate(829.192 442.558)" fill="#fff"/>
    <path id="Path_1492" data-name="Path 1492" d="M509.579,98.143s-26.674-7.514-34.563,28.928-2.878,31.85-2.878,31.85l59.546-6.95S549.589,109.225,509.579,98.143Z" transform="translate(360.454 90.498)" fill="#090814"/>
    <path id="Path_1493" data-name="Path 1493" d="M470.787,258.012s-40.242,1.863-33.273,17.659q.739,1.675,1.376,3.138a282.526,282.526,0,0,0,17.164,33.223l24.733,40.98,9-5-25.327-65.837,22.765-1.858Z" transform="translate(360.454 90.498)" fill="#ffb6b6"/>
    <path id="Path_1517" data-name="Path 1517" d="M519.629,169.563s3.717,19.513,6.969,22.3-24.623,6.969-24.623,6.969,4.181-13.473-.929-20.442S519.629,169.563,519.629,169.563Z" transform="translate(359.324 63.845)" fill="#ffb9b9"/>
    <path id="Path_1494" data-name="Path 1494" d="M576.891,274.742l13.008,28.34s9.756,9.756,20.442,48.782,13.008,37.632,13.008,37.632l-10.562,3.518-43.33-78.781-21.371-26.946,6.5-14.4Z" transform="translate(360.454 90.498)" fill="#ffb6b6"/>
    <path id="Path_1495" data-name="Path 1495" d="M561.095,242.221l18.693,34.792s34.263,68.418,29.883,68.142c-4.924-.311-16.356,5.483-20.6,11.054-2.05,2.689-26.28-48.2-36.8-62.883L529.5,275.671s-64.636,10.879-64.715,7.341c-.039-1.733,15.315,29.877,10.916,28.035-5.012-2.1-14.549,9.46-19.747,7.346-2.145-.872-13.466-28.993-19.6-44.048a8.148,8.148,0,0,1,3.77-10.311c4.61-2.4,68.662-17.023,68.662-17.023l-1.12-5.721L512.313,232Z" transform="translate(360.454 90.498)" fill="#090814"/>
    <circle id="Ellipse_287" data-name="Ellipse 287" cx="18.119" cy="18.119" r="18.119" transform="translate(844.546 242.238) rotate(-80.783)" fill="#ffb6b6"/>
    <path id="Path_1496" data-name="Path 1496" d="M562.787,245.012c1,3-5.479,4.726-14.511,3.039-7.814-1.459-16.367-3.192-23.113-4.595-7.224-1.505-12.386-2.63-12.386-2.63s-1.858,11.615-7.9,10.221c-5.2-1.2-20.753-55.513-24.958-70.524a5.222,5.222,0,0,1,2.309-5.868l21.357-13.041s14.718-5.055,20.084-5.2,14.658-1.538,14.658-1.538,10.685.929,12.544,8.827,9.613,54.726,9.756,65.971C560.787,242.012,559.787,236.012,562.787,245.012Z" transform="translate(360.454 90.498)" fill="#d6d6e3"/>
    <path id="Path_1497" data-name="Path 1497" d="M511.654,113.485s-7.514,19.911-25.922,28.176L482.726,124Z" transform="translate(360.454 90.498)" fill="#2f2e41"/>
    <ellipse id="Ellipse_288" data-name="Ellipse 288" cx="2.555" cy="4.878" rx="2.555" ry="4.878" transform="translate(880.433 215.411)" fill="#ffb6b6"/>
    <path id="Path_1501" data-name="Path 1501" d="M518.468,288.434a9.136,9.136,0,0,0-2-13.865L500.31,192.943l-18.556,7.1,21.719,78a9.185,9.185,0,0,0,15,10.389Z" transform="translate(360.454 90.498)" fill="#ffb6b6"/>
    <path id="Path_1502" data-name="Path 1502" d="M504.4,206.7l-20.375,3.589a4.1,4.1,0,0,1-4.805-3.922l-.562-20.619a11.376,11.376,0,1,1,22.42-3.881l6.5,19.505A4.1,4.1,0,0,1,504.4,206.7Z" transform="translate(360.454 90.498)" fill="#d6d6e3"/>
    <path id="Path_1503" data-name="Path 1503" d="M534.09,287a9.136,9.136,0,0,0,2.552-13.774l10.869-82.5-19.853.774-4.441,80.849A9.185,9.185,0,0,0,534.09,287Z" transform="translate(360.454 90.498)" fill="#ffb6b6"/>
    <path id="Path_1504" data-name="Path 1504" d="M546.973,205.068l-20.45-3.134a4.1,4.1,0,0,1-3.294-5.256l6.079-19.71a11.376,11.376,0,1,1,22.48,3.513l-.1,20.559a4.1,4.1,0,0,1-4.717,4.028Z" transform="translate(360.454 90.498)" fill="#d6d6e3"/>
    <path id="Path_1515" data-name="Path 1515" d="M478.852,371.293s-9.123-1.352-6.758,6.758l4.731,16.219s-6.082,16.557,3.379,12.84,15.543-26.694,15.543-26.694,4.055-17.571,0-17.571-16.895-2.7-15.543,0S478.852,371.293,478.852,371.293Z" transform="translate(539.055 -81.574) rotate(22)" fill="#090814"/>
    <path id="Path_1516" data-name="Path 1516" d="M613.914,411.619s-10.626-2.732-13.055,1.518-1.822,18.216-1.822,18.519S602.681,435,603.9,435s8.8,13.662,19.127,8.8S613.914,411.619,613.914,411.619Z" transform="translate(369.917 66.429)" fill="#090814"/>
  </g>
</svg>
