<svg xmlns="http://www.w3.org/2000/svg" width="633.218" height="799.931" viewBox="0 0 633.218 799.931"><g transform="translate(-636 -131)"><path d="M632.432,712.957H.786c-.434,0-.786-.5-.786-1.122s.352-1.122.786-1.122H632.432c.434,0,.786.5.786,1.122S632.866,712.957,632.432,712.957Z" transform="translate(636 217.973)" fill="#cbcbcb"/><path d="M484.219,189.932h-4.392V69.629A69.628,69.628,0,0,0,410.2,0H155.319A69.629,69.629,0,0,0,85.691,69.628v660a69.629,69.629,0,0,0,69.628,69.629H410.2a69.629,69.629,0,0,0,69.629-69.629h0V275.566h4.392Z" transform="translate(612.827 131)" fill="#3f3d56"/><path d="M462.914,68.142V727.167a51.953,51.953,0,0,1-51.907,52h-256.2a51.963,51.963,0,0,1-52-51.926V68.142a51.963,51.963,0,0,1,51.926-52h31.141a24.7,24.7,0,0,0,22.874,34.03H354.773a24.7,24.7,0,0,0,22.874-34.03h33.267a51.953,51.953,0,0,1,52,51.906v.093Z" transform="translate(614.923 132.975)" fill="#fff"/><path d="M462.914,165.643V143.2H428.939V19.353a51.838,51.838,0,0,0-18.025-3.21h-4.422V143.2H288.642V50.173H266.195V143.2H167.426V16.143H154.811a51.5,51.5,0,0,0-9.832.932V143.2H102.811v22.448h42.167v51.922l-42.167,24.344v25.927l42.167-24.344V397.975H102.811v22.447h42.167V643.775H102.811v22.448h42.167V778.235a51.522,51.522,0,0,0,9.832.932h12.615V666.222h98.769V779.167h22.448V666.222H406.492V779.167h4.422a51.841,51.841,0,0,0,18.025-3.21V666.222h33.974V643.775H428.939V546.128h33.671V523.681H428.939V420.422h33.974V397.975H428.939V261.045h33.974V238.6H428.939V165.643Zm-228,0h0l-67.488,38.969h0V165.643Zm-67.489,64.885h0L266.195,173.5V397.975H167.426Zm0,413.247V420.422h98.769V643.775Zm239.066,0H288.642V546.128H406.492Zm0-120.094H288.642V420.422H406.492Zm0-125.706H288.642V261.045H406.492Zm0-159.377H288.642V165.643H406.492Z" transform="translate(614.923 132.975)" fill="#f2f2f2"/><g transform="translate(907.551 227.117)"><path d="M353.9,171.472c0,39.632-71.76,127.919-71.76,127.919s-71.76-88.287-71.76-127.919a71.76,71.76,0,0,1,143.519,0Z" transform="translate(-210.381 -99.713)" fill="#6c63ff"/><path d="M342.246,184.144a42.432,42.432,0,1,1-42.432-42.432h0a42.412,42.412,0,0,1,42.432,42.393Z" transform="translate(-228.053 -115.504)" fill="#fff"/><ellipse cx="19.344" cy="19.344" rx="19.344" ry="19.344" transform="translate(52.415 212.783)" fill="#6c63ff"/></g><g transform="translate(986.85 427.559)"><path d="M0,15.24,19.857,0l5.285,27.183L10.249,33.588C9.645,26.466,6.084,20.4,0,15.24Z" transform="matrix(-0.951, -0.309, 0.309, -0.951, 126.296, 101.234)" fill="#9f616a"/><path d="M355.7,302.574l3,6.975-4.9,24.775-50-6.953.4-30.209,1-6.617Z" transform="translate(-218.899 -139.391)" fill="#ffb6b6"/><path d="M303.7,646.234H286.885l-6.5-57.845H303.7Z" transform="translate(-139.051 -161.974)" fill="#9f616a"/><path d="M372.633,630.721H356.44l-9.526-62.642h25.718Z" transform="translate(-267.346 -146.462)" fill="#9f616a"/><path d="M621.616,766.078l27.934-11.572v-7.557l7.447.122,15.191.741,3.965.188,2.753,26.673h-9.776l-1.736-7.467-4.471,7.467H624.929a5.828,5.828,0,0,1-5.562-3.313,4.283,4.283,0,0,1,2.253-5.283Z" transform="translate(-567.02 -271.301)" fill="#090814"/><path d="M654.893,693.694c1.4-56.837-.593-82.332-4.449-151.284,7.07-45.821-26.626-75.71-26.626-75.71l3.1-24.014-54.5,1.239.927,22.779-14.089,38.268c-5.7,55.566,7.993,187.678,9.109,187.292,30.25-.074,25.4,1.43,25.4,1.43,5.146-17.591,4.7-23.065,3.1-78.682l4.087-62.225,15.467,76.519,12.115,64.388C627.779,694.37,656.228,693.671,654.893,693.694Z" transform="translate(-488.357 -263.857)" fill="#090814"/><path d="M630.274,305.278a26.984,26.984,0,1,1-46.414-18.713l.13-.13c.216-.227.432-.453.659-.669a.011.011,0,0,0,.008,0,.011.011,0,0,0,0-.008,5.655,5.655,0,0,0,.853-.766c3.643-5.091,7.773-9.358,17.777-6.692C617.693,282.132,630.274,290.371,630.274,305.278Z" transform="translate(-482.032 -259.817)" fill="#090814"/><path d="M634.553,293.891a9.884,9.884,0,0,0,11.2,10.214l69.592,57.118,10.629-18.69-71.749-50.267a9.938,9.938,0,0,0-19.67,1.622Z" transform="translate(-634.544 -259.982)" fill="#9f616a"/><path d="M675.186,378.908s-2.267,4.7-11.085-1.978c-7.059-5.349-40.759-28.429-48.244-38.184a7.765,7.765,0,0,1-9.257-2.22L625.012,318.8c5.778.391,5.837,4.256,5.342,6.476l14.8,5.88,38.54,22.14-6.806,22.241Z" transform="translate(-565 -260.826)" fill="#e6e6e6"/><ellipse cx="22.628" cy="22.628" rx="22.628" ry="22.628" transform="translate(91.981 29.077)" fill="#9f616a"/><path d="M576.836,425.359l-.232-12.623c-.918-1.261-8.618-12.269-6.892-23.265a19.288,19.288,0,0,1,8.331-12.911l3.042-7.08,4.5-10.466,13.176-7.844,1.826-3.717,1.5-3.087,20.228-1.473,2.429,5.687.088.011a29.411,29.411,0,0,1,11.34,5.31,29.926,29.926,0,0,1,11.837,23.874l-.111,14.67-.022,2.1-.011,2.036-11.34,30.523-.431,1.184-4.448,11.96.764,1.261a6.7,6.7,0,0,1-1.472,8.6l-.531,7.478-.963-.266-5.476-1.527-47.138,1.792S574.026,429.1,576.836,425.359Z" transform="translate(-493.093 -261.415)" fill="#e6e6e6"/><path d="M637.256,317.6c-.205-.033-.41-.08-.615-.108-3.53-.626-7.059-1.241-10.58-1.878l-.324-7.977-4.263,7.145c-9.725,3.227-18.825,1.4-27.384-2.625a77.325,77.325,0,0,1-8.2-4.522c-.87-13.49,4.584-22.127,14.734-21.221.371.033.636-.345.961-.508a.011.011,0,0,0,.008,0,.011.011,0,0,0,0-.008c.55-.259,1.114-.508,1.67-.734a24.925,24.925,0,0,1,26.164,5.073C636.338,296.83,639.447,307.721,637.256,317.6Z" transform="translate(-498.964 -259.961)" fill="#090814"/><path d="M513.777,278.5a4.194,4.194,0,0,0,3.463,2.987c3.043,3.761,6.527,7.744,11.3,8.5a5.432,5.432,0,0,0,3.972-.686,2.211,2.211,0,0,0,.4-.318c1.128-1.073,1.217-3.231-.122-4.038,6,2.379,9.5,8.851,10.389,15.234s-.343,12.833-1.15,19.227-1.161,13.11,1.352,19.051c2.965,7,9.78,12.037,17.214,13.641.664.144,17.164-.866,22.092-3.507,6.737-3.551,12.346-8.973,16.938-15.046-7.911,5.609-18.841,7.711-27.445,3.274-7.7-3.983-12.251-12.346-14.24-20.776s6.378-18.784,5.471-27.4-11.313-15.933-17-22.472c-3.629-4.171-8.983-7.257-14.5-6.737a13.033,13.033,0,0,0-11.417,16.1c-1.571-2.227-5.631-1.737-6.638.8A3.279,3.279,0,0,0,513.777,278.5Z" transform="translate(-390.229 -259.372)" fill="#090814"/><path d="M623.158,317.529s-6.7-25.02-35.437-30.795c-.033-.01-.14-.054-.281-.119a2.967,2.967,0,0,0-.3-.159c.324-.184.636-.345.961-.508a.011.011,0,0,0,.008,0,.011.011,0,0,0,0-.008c.281-.259.562-.518.853-.766l.82.033S618.614,280.636,623.158,317.529Z" transform="translate(-485.481 -260.001)" fill="#6c63ff"/><path d="M577.335,500.264a9.884,9.884,0,0,0-3.047-14.847l14.876-44.04L577.017,394.7l-19.587,8.855,12.085,35.206L560.47,490a9.938,9.938,0,0,0,16.865,10.262Z" transform="translate(-422.507 -262.682)" fill="#9f616a"/><path d="M570.987,355.279s4.6-2.47,7.8,8.121c2.562,8.479,19.993,54.513,20.307,66.806a7.765,7.765,0,0,1,6.18,7.239l-25.317,3.5c-4.443-3.714-2.216-6.876-.51-8.38l-8.623-14.606L552.8,378.527,567.625,357Z" transform="translate(-434.091 -261.712)" fill="#e6e6e6"/><path d="M621.136,766.078l22.6-11.572v-7.557l6.026.122,12.291.741,3.208.188,2.227,26.673h-7.91l-1.4-7.467-3.618,7.467H623.817a4.716,4.716,0,0,1-2.678-8.6Z" transform="translate(-499.088 -271.301)" fill="#090814"/></g></g></svg>