<svg xmlns="http://www.w3.org/2000/svg" width="800.079" height="661.026" viewBox="0 0 800.079 661.026"><g transform="translate(-514.457 -229.731)"><g transform="translate(1047.023 301.867)"><path d="M31.53,29.208s-3.709-15.763,0-26.89L14.836,0,0,7.418v9.741s6.955,14.836,5.1,31.99Z" transform="translate(141.584 96.3) rotate(171)" fill="#9f616a"/><path d="M299.925,550.445l-20.308,10.1L255.5,515.916l20.9-11.454Z" transform="translate(-44.164 -4.622)" fill="#9f616a"/><path d="M418.406,567.225H398.884l-4.573-51.65h24.1Z" transform="translate(-302.308 -4.225)" fill="#9f616a"/><path d="M462.824,301.249s8.967-6.87,8.967,9.911l1.416,55.455L457.4,419l-9.2-16.991L451.97,365.2Z" transform="translate(-284.09 -159.547)" fill="#6c63ff"/><path d="M393.973,454.033s-10.4,50.64,2.777,92.2l7.279,159.787,26.688-2.083L440.069,585.4l9.012-58.923L467.8,580.2l61.7,113.688L557.919,671.7s-31.5-85.939-54.764-103.983L491.484,434.808Z" transform="translate(-311.16 -160.653)" fill="#090814"/><ellipse cx="30.432" cy="30.432" rx="30.432" ry="30.432" transform="matrix(-0.48, -0.877, 0.877, -0.48, 102.342, 84.868)" fill="#9f616a"/><path d="M528.22,208.409c-3.648.475-6.4-3.258-7.676-6.708s-2.248-7.467-5.42-9.331c-4.333-2.546-9.877.516-14.832-.324-5.6-.949-9.235-6.879-9.521-12.547s1.971-11.12,4.184-16.347l.773,6.5a12.881,12.881,0,0,1,5.628-11.259l-.992,9.53A10.116,10.116,0,0,1,512,159.548l-.157,5.679c6.464-.769,12.983-1.538,19.465-.953s13.01,2.636,17.923,6.906c7.349,6.386,10.033,16.9,9.133,26.6s-4.9,18.8-9.074,27.6c-1.049,2.214-2.5,4.711-4.934,4.993-2.182.253-4.187-1.574-4.867-3.67a13.291,13.291,0,0,1,.059-6.531c.615-3.268,1.389-6.607.812-9.881s-2.934-6.51-6.234-6.911-6.678,3.372-5.091,6.293Z" transform="translate(-411.619 -158.388)" fill="#090814"/><path d="M327.357,309.142l101.58-6.554-7.646-31.675L328.45,291.667Z" transform="translate(-246.428 -2.22)" fill="#d6d6e3"/><path d="M506.886,244.085l-6.371-8.846s-7.121,2.42-26.194,11.914l-1.348,8.288L439.868,459.057l60.174-2.6,16.387-.349,5.363-12.021,6.612,11.766,16-.34,16.282-9.439L544.641,397,539.45,352.16l8.024-42.24s10.1-38.788-28.789-59.707Z" transform="translate(-363.313 -159.018)" fill="#6c63ff"/><path d="M589.767,399.311a10.4,10.4,0,0,0,12.934-9.329l35.7-9.562-14.361-12.752-31.7,11.04a10.457,10.457,0,0,0-2.574,20.607Z" transform="translate(-581.822 -160.103)" fill="#9f616a"/><path d="M492.621,393.083a6.092,6.092,0,0,0,4.946.4l58.728-22.29a62.709,62.709,0,0,0,33.753-28.449l24.491-43.688a19.6,19.6,0,1,0-29.249-26.107L542.9,340.133l-53.346,31.276a6.1,6.1,0,0,0-2.6,6.492l2.653,11.241a6.093,6.093,0,0,0,1.851,3.124,6.027,6.027,0,0,0,1.159.821Z" transform="translate(-468.686 -159.273)" fill="#6c63ff"/><path d="M127.783,741.372H394.73c.156,0,.283-.444.283-.992s-.127-.992-.283-.992H127.783c-.156,0-.283.444-.283.992S127.627,741.372,127.783,741.372Z" transform="translate(-127.5 -163.15)" fill="#cbcbcb"/><path d="M322.988,792.282l-22.4,11.459s-35.051,8.356-12.23,15.3,33.095,2.008,33.095,2.008,29.853,1.552,29.372-6.777-6.225-20.041-6.225-20.041S324.623,799.452,322.988,792.282Z" transform="translate(-226.715 -233.86)" fill="#090814"/><path d="M29.569,29.449,50.243,19.009s35.051-8.356,12.23-15.3S29.378,1.7,29.378,1.7-.475.149.006,8.478,6.23,28.519,6.23,28.519,27.933,22.28,29.569,29.449Z" transform="translate(267.513 568.01) rotate(164)" fill="#090814"/></g><g transform="translate(565.445 229.731)"><circle cx="26.858" cy="26.858" r="26.858" transform="translate(52.052)" fill="#e6e6e6"/><path d="M471.812,248.286a2.987,2.987,0,0,1-2.39-1.2l-7.327-9.77a2.988,2.988,0,0,1,4.78-3.585l4.794,6.391,12.312-18.468a2.988,2.988,0,0,1,4.972,3.315L474.3,246.955a2.989,2.989,0,0,1-2.4,1.329Z" transform="translate(-396.566 -207.449)" fill="#fff"/><rect width="78.882" height="16.868" rx="5.07" transform="translate(40.061 75.313)" fill="#e6e6e6"/><rect width="159.006" height="16.868" rx="5.07" transform="translate(0 109.049)" fill="#e6e6e6"/><rect width="159.006" height="16.868" rx="5.07" transform="translate(0 142.785)" fill="#e6e6e6"/></g><g transform="translate(776.219 252.809)"><rect width="270.804" height="343.503" rx="8" fill="#f2f2f2"/><rect width="253.944" height="322.676" rx="8" transform="translate(8.43 10.414)" fill="#fff"/><g transform="translate(30.788 66.712)"><ellipse cx="35.341" cy="35.341" rx="35.341" ry="35.341" transform="translate(68.492)" fill="#6c63ff"/><path d="M601.025,367.435a3.93,3.93,0,0,1-3.145-1.573l-9.642-12.856a3.931,3.931,0,1,1,6.29-4.717l6.308,8.41,16.2-24.3a3.931,3.931,0,1,1,6.542,4.361L604.3,365.685a3.933,3.933,0,0,1-3.162,1.749Z" transform="translate(-502.013 -313.701)" fill="#fff"/><rect width="103.797" height="22.196" rx="5.07" transform="translate(52.715 99.1)" fill="#3f3d56"/><rect width="209.228" height="22.196" rx="5.07" transform="translate(0 143.492)" fill="#3f3d56"/><rect width="209.228" height="22.196" rx="5.07" transform="translate(0 187.884)" fill="#3f3d56"/></g></g><g transform="translate(514.457 459.737)"><circle cx="26.858" cy="26.858" r="26.858" transform="translate(52.052 0)" fill="#e6e6e6"/><path d="M471.812,248.286a2.987,2.987,0,0,1-2.39-1.2l-7.327-9.77a2.988,2.988,0,0,1,4.78-3.585l4.794,6.391,12.312-18.468a2.988,2.988,0,0,1,4.972,3.315L474.3,246.955a2.989,2.989,0,0,1-2.4,1.329Z" transform="translate(-396.566 -207.449)" fill="#fff"/><rect width="78.882" height="16.868" rx="5.07" transform="translate(40.061 75.313)" fill="#e6e6e6"/><rect width="159.006" height="16.868" rx="5.07" transform="translate(0 109.049)" fill="#e6e6e6"/><rect width="159.006" height="16.868" rx="5.07" transform="translate(0 142.785)" fill="#e6e6e6"/></g></g></svg>