<svg xmlns="http://www.w3.org/2000/svg" width="800.053" height="570.621" viewBox="0 0 800.053 570.621"><g transform="translate(-560 -231)"><path d="M15.18,488.643a1.353,1.353,0,0,0,1.236,1.452H632.677a1.471,1.471,0,0,0,0-2.9H16.416a1.353,1.353,0,0,0-1.236,1.452Z" transform="translate(592.977 311.527)" fill="#d6d6e3"/><path d="M343.442,370.945a25.336,25.336,0,0,1-50.147,0H229.146V512.784H407.59V370.945H343.442Z" transform="translate(610.45 285.933)" fill="#d6d6e3"/><path d="M727.688,451.421H9.948A9.959,9.959,0,0,1,0,441.473V31.86a9.959,9.959,0,0,1,9.948-9.948h717.74a9.96,9.96,0,0,1,9.948,9.948V441.473a9.96,9.96,0,0,1-9.948,9.948Z" transform="translate(560 209.089)" fill="#090814"/><rect width="702.362" height="396.311" transform="translate(578.522 247.599)" fill="#fff"/><path d="M802.96,376.12l6.066,37.612s0,33.972-1.82,34.579-9.706,0-9.706,0V410.092l2.427-33.365Z" transform="translate(414.023 168.128)" fill="#6c63ff"/><g transform="translate(959.676 314.98)"><path d="M600.19,245.661a3.363,3.363,0,0,0-3.359,3.359v56.243a3.363,3.363,0,0,0,3.359,3.359H826.923a3.363,3.363,0,0,0,3.359-3.359V249.02a3.363,3.363,0,0,0-3.359-3.359Z" transform="translate(-596.831 -245.661)" fill="#fff"/><path d="M600.19,245.661a3.363,3.363,0,0,0-3.359,3.359v56.243a3.363,3.363,0,0,0,3.359,3.359H826.923a3.363,3.363,0,0,0,3.359-3.359V249.02a3.363,3.363,0,0,0-3.359-3.359Z" transform="translate(-596.831 -245.661)" fill="#e6e6e6"/><path d="M600.93,305.162H826.822v-55.4H600.93Z" transform="translate(-597.151 -245.98)" fill="#fff"/><path d="M628.536,267.053a2.939,2.939,0,0,0,0,5.878H803.054a2.939,2.939,0,0,0,0-5.878Z" transform="translate(-599.074 -247.329)" fill="#e6e6e6"/><path d="M628.536,286.178a2.939,2.939,0,0,0,0,5.878H803.054a2.939,2.939,0,1,0,.013-5.878Z" transform="translate(-599.074 -248.82)" fill="#e6e6e6"/></g><g transform="translate(842.951 410.412)"><path d="M429.19,349.161a3.363,3.363,0,0,0-3.359,3.359v56.243a3.363,3.363,0,0,0,3.359,3.359H655.923a3.363,3.363,0,0,0,3.359-3.359V352.52a3.363,3.363,0,0,0-3.359-3.359Z" transform="translate(-425.831 -349.161)" fill="#fff"/><path d="M429.19,349.161a3.363,3.363,0,0,0-3.359,3.359v56.243a3.363,3.363,0,0,0,3.359,3.359H655.923a3.363,3.363,0,0,0,3.359-3.359V352.52a3.363,3.363,0,0,0-3.359-3.359Z" transform="translate(-425.831 -349.161)" fill="#e6e6e6"/><path d="M429.93,408.662H655.822v-55.4H429.93Z" transform="translate(-426.151 -349.48)" fill="#fff"/><path d="M457.536,370.553a2.939,2.939,0,0,0,0,5.878H632.054a2.939,2.939,0,1,0,0-5.878Z" transform="translate(-428.074 -350.829)" fill="#e6e6e6"/><path d="M457.536,389.678a2.939,2.939,0,0,0,0,5.878H632.054a2.939,2.939,0,1,0,.013-5.878Z" transform="translate(-428.074 -352.32)" fill="#e6e6e6"/></g><g transform="translate(992.358 542.804)"><path d="M623.157,445.4a3.363,3.363,0,0,0-4.231,2.16l-17.344,53.5a3.363,3.363,0,0,0,2.159,4.232l215.683,69.917a3.363,3.363,0,0,0,4.231-2.16L841,519.545a3.363,3.363,0,0,0-2.159-4.231Z" transform="translate(-601.418 -445.233)" fill="#fff"/><path d="M623.157,445.4a3.363,3.363,0,0,0-4.231,2.16l-17.344,53.5a3.363,3.363,0,0,0,2.159,4.232l215.683,69.917a3.363,3.363,0,0,0,4.231-2.16L841,519.545a3.363,3.363,0,0,0-2.159-4.231Z" transform="translate(-601.418 -445.233)" fill="#f2f2f2"/><path d="M605.635,502.153l214.884,69.658,17.085-52.7L622.719,449.45Z" transform="translate(-601.747 -445.562)" fill="#fff"/><path d="M645,474.477a2.939,2.939,0,0,0-1.813,5.592L809.2,533.885a2.939,2.939,0,0,0,1.815-5.591h0Z" transform="translate(-604.516 -447.501)" fill="#6c63ff"/><path d="M639.105,492.671a2.939,2.939,0,0,0-1.813,5.592l166.013,53.816a2.939,2.939,0,1,0,1.825-5.588l-.013,0Z" transform="translate(-604.056 -448.92)" fill="#6c63ff"/></g><rect width="123" height="396" transform="translate(578 247.754)" fill="#f2f2f2"/><circle cx="28.878" cy="28.878" r="28.878" transform="translate(608.157 413.014)" fill="#6c63ff"/><g transform="translate(620.021 424.622)"><rect width="2" height="34" rx="1" transform="translate(15.979 0.132)" fill="#fff"/><rect width="34" height="2" rx="1" transform="translate(-0.021 16.132)" fill="#fff"/></g><g transform="translate(630.867 464.454)"><path d="M240.723,239.6a22.651,22.651,0,1,0-30.411,20.222l3.027,29.111L236.5,271.393a56.234,56.234,0,0,1-6.792-13.4A22.626,22.626,0,0,0,240.723,239.6Z" transform="translate(-138.349 -204.477)" fill="#ed9da0"/><path d="M21.812,488.418l-6.661-22.094s-12.489,48.337-.432,48.337S47.7,499.766,47.7,499.766L31.684,480.276Z" transform="translate(-9.47 -378.021)" fill="#ed9da0"/><path d="M407.457,572.6l-.077,33.442-4.888,25.072-29.567-.071,12.113-56.564Z" transform="translate(-261.342 -451.666)" fill="#ed9da0"/><path d="M124.189,374.2l-10.816,6.561s-22.342,2.128-24.47,9.93-7.8,7.8-7.447,12.412L70.463,416.931s15.072,16.136,15.072,21.1,9.752-2.745,9.752-2.745V493.6h77.9l2.065-48.833s19.5-13.831,24.824-3.9l-5.674-23.76s.355-17.377-10.994-25.888l-26.952-12.767s-2.228-3.83-10.739-4.54l-5.928,14.469-13.121,8.511Z" transform="translate(-51.737 -313.981)" fill="#6c63ff"/><path d="M199.369,201.376c8.22,3.85,16.918,13.328,14.843,22.165,2.236-3.8.6-7.111,2.838-10.911a15.178,15.178,0,0,0,1.695-3.554l1.463.727a6.357,6.357,0,0,0-1.369-5.576l2.288.777a24.644,24.644,0,0,0-6.915-14.707l3.443.683a11.122,11.122,0,0,0-11.218-4.033l1.247.817a13.1,13.1,0,0,0-12.6-8.651l2.676,2c-3.512-3.281-9.118-2.759-13.642-1.135s-8.877,4.16-13.682,4.287a3.331,3.331,0,0,0,2.682,2.486l-.979-.437a15.789,15.789,0,0,1-11.316,5.814,11.342,11.342,0,0,0,5.009,4.417l-5.716-.141,4.033,3.633-.239.528a33.932,33.932,0,0,0,6.976,15.722,19.653,19.653,0,0,1,29-14.977Z" transform="translate(-113.867 -178.697)" fill="#090814"/><path d="M39.845,312.163,37.107,366.89,18.137,368.2l6.649-56.759a15.825,15.825,0,0,1-3.974-11.57c.385-8.04,6.091-14.3,12.745-13.98s11.735,7.095,11.35,15.134A15.825,15.825,0,0,1,39.845,312.163Z" transform="translate(-15.476 -252.974)" fill="#ed9da0"/></g><circle cx="7.456" cy="7.456" r="7.456" transform="translate(1345.142 267.301)" fill="#fff"/><path d="M748.5,330.3s7.583,16.076,6.37,20.929a13.287,13.287,0,0,0,.91,8.8l13.953-.607,13.043-12.436s-19.715-13.65-18.5-20.323S748.5,330.3,748.5,330.3Z" transform="translate(433.298 188.467)" fill="#ed9da0"/><path d="M706,633.133l4.853,18.806,7.28-5.46,6.673-15.166L716.313,621Z" transform="translate(547.382 131.933)" fill="#ed9da0"/><path d="M881.322,733.12s-7.886,6.066-7.886,12.133c0,0-4.246,6.673-9.1,6.066v12.74s-15.166,7.886-3.64,9.706,20.019-12.74,20.019-12.74,10.92-17.593,9.1-20.019S881.322,733.12,881.322,733.12Z" transform="translate(390.865 27.699)" fill="#090814"/><path d="M795.836,490.286s11.573,12.574,6.111,31.986c0,0-6.067,43.678,13.346,60.057S847.445,634.5,847.445,634.5l-14.56,13.346s-15.772-35.792-32.152-49.744-18.2-29.725-18.2-29.725v-55.2L779.5,490.12Z" transform="translate(421.104 123.285)" fill="#090814"/><path d="M795.836,490.286s11.573,12.574,6.111,31.986c0,0-6.067,43.678,13.346,60.057S847.445,634.5,847.445,634.5l-14.56,13.346s-15.772-35.792-32.152-49.744-18.2-29.725-18.2-29.725v-55.2L779.5,490.12Z" transform="translate(421.104 123.285)" fill="#6f6f6f" opacity="0.1"/><path d="M617.066,664,611,670.673l2.427,5.46,7.28,2.427,12.74-4.853-1.82-7.28Z" transform="translate(584.751 115.019)" fill="#ed9da0"/><path d="M776.792,772.382s-14.037,7.28-17.546,4.247a9.842,9.842,0,0,1-3.5-6.927s-7.028.861-11.707,3.892S733.6,777.679,730,780.267s-3.509,7.28,7.6,7.886,39.186-.607,39.186-3.64Z" transform="translate(441.404 13.309)" fill="#090814"/><path d="M742.061,500.76s-7.886,35.185,6.066,75.225c0,0,6.673,22.446,9.706,29.119s6.066,53.991,4.853,55.811c0,0,9.706,7.886,18.2,2.427,0,0-.607-27.906.607-30.332s2.427-23.658-4.853-41.252-1.213-60.057-1.213-60.057,14.56-21.84,3.64-34.581Z" transform="translate(436.705 120.531)" fill="#090814"/><circle cx="16.986" cy="16.986" r="16.986" transform="translate(1170.879 489.045)" fill="#ed9da0"/><path d="M777.5,437.51s-4.853,7.28-8.493,3.64c-2.566-2.566-18.994,3.009-28.472,6.521-3.968,1.468-6.716,2.578-6.716,2.578s-.261-8.408-1.031-19.055c-.886-12.218-2.439-27.4-5.035-36.15-4.853-16.38,7.28-23.053,7.28-23.053s10.313-12.132,9.709-13.953,27.3-10.92,27.3-10.92c3.033.607,5.46,27.906,5.46,27.906s-5.46,21.839-8.493,35.185S777.5,437.51,777.5,437.51Z" transform="translate(441.911 179.536)" fill="#6c63ff"/><path d="M706.653,497.12s-13.346,13.346-20.019,16.986-10.313,15.772-4.853,18.2,17.593-13.346,17.593-13.346l17.593-14.56Z" transform="translate(460.585 120.531)" fill="#ed9da0"/><path d="M727.31,285.941c-1.552.138-2.439,2.092-1.938,3.568a5.246,5.246,0,0,0,3.411,2.956c1.47.516,3.042.692,4.513,1.2a13.283,13.283,0,0,1,4.012,2.33,22.264,22.264,0,0,1,7.466,14.029,38.42,38.42,0,0,1-1.488,16.068c-.79,2.761-2.079,5.787-4.777,6.767a53.669,53.669,0,0,0,8.616-2.922c2.04-.961,3.955-2.177,6.017-3.09a37.731,37.731,0,0,1,9.525-2.5c2.3-.358,4.724-.63,6.881.236a13.833,13.833,0,0,1,3.606,2.432l6.939,5.83q.181-3.8.239-7.607a16.915,16.915,0,0,0-.788-6.524c-.8-2.024-2.326-3.674-3.345-5.6-2.523-4.762-1.7-10.495-1.654-15.882a34.327,34.327,0,0,0-3.431-16.206c-2.582-4.944-6.992-9.084-12.369-10.565-7.249-2-14.891.973-21.553,4.455a19.545,19.545,0,0,0-4.346,2.829,21.123,21.123,0,0,0-3.533,4.818l-3.3,5.528" transform="translate(442.451 209.942)" fill="#090814"/><path d="M774.836,388.565S763.31,432.244,762.1,435.277c-.874,2.178-11.15,13.765-17.55,19.869-3.968,1.467-6.716,2.576-6.716,2.576s-.261-8.408-1.031-19.055C741.738,433.187,746.931,428,746.931,428s5.46-33.365,4.853-46.1,12.133-15.772,12.133-15.772C778.476,367.939,774.836,388.565,774.836,388.565Z" transform="translate(437.9 172.062)" opacity="0.1"/><path d="M755.218,362.12s-12.74,3.033-12.133,15.772-4.853,46.1-4.853,46.1-20.626,20.626-18.806,23.052,9.617,7.2,11.482,7.845,21.277-20.586,22.49-23.618,12.74-46.711,12.74-46.711S769.778,363.94,755.218,362.12Z" transform="translate(444.779 173.635)" fill="#6c63ff"/></g></svg>