<svg xmlns="http://www.w3.org/2000/svg" width="939" height="787.545" viewBox="0 0 939 787.545">
  <g id="Group_1" data-name="Group 1" transform="translate(-489 -146)">
    <rect id="Rectangle_33" data-name="Rectangle 33" width="694" height="2" transform="translate(494 883)" fill="#2f2e41"/>
    <rect id="Rectangle_4" data-name="Rectangle 4" width="140" height="2" transform="translate(921 270)" fill="#e6e6e6"/>
    <rect id="Rectangle_5" data-name="Rectangle 5" width="2" height="18.5" transform="translate(959 252)" fill="#e6e6e6"/>
    <rect id="Rectangle_6" data-name="Rectangle 6" width="2" height="18.5" transform="translate(1020 252)" fill="#e6e6e6"/>
    <rect id="Rectangle_7" data-name="Rectangle 7" width="140" height="2" transform="translate(1000 827)" fill="#e6e6e6"/>
    <rect id="Rectangle_8" data-name="Rectangle 8" width="2" height="18.5" transform="translate(1038 809)" fill="#e6e6e6"/>
    <rect id="Rectangle_9" data-name="Rectangle 9" width="2" height="18.5" transform="translate(1099 809)" fill="#e6e6e6"/>
    <rect id="Rectangle_10" data-name="Rectangle 10" width="140" height="2" transform="translate(1281 737)" fill="#e6e6e6"/>
    <rect id="Rectangle_11" data-name="Rectangle 11" width="2" height="18.5" transform="translate(1319 719)" fill="#e6e6e6"/>
    <rect id="Rectangle_12" data-name="Rectangle 12" width="2" height="18.5" transform="translate(1380 719)" fill="#e6e6e6"/>
    <rect id="Rectangle_14" data-name="Rectangle 14" width="2" height="18.5" transform="translate(1330 490)" fill="#e6e6e6"/>
    <rect id="Rectangle_22" data-name="Rectangle 22" width="140" height="2" transform="translate(946 617)" fill="#e6e6e6"/>
    <rect id="Rectangle_23" data-name="Rectangle 23" width="2" height="18.5" transform="translate(984 599)" fill="#e6e6e6"/>
    <rect id="Rectangle_24" data-name="Rectangle 24" width="2" height="18.5" transform="translate(1045 599)" fill="#e6e6e6"/>
    <rect id="Rectangle_25" data-name="Rectangle 25" width="140" height="2" transform="translate(755 419)" fill="#e6e6e6"/>
    <rect id="Rectangle_26" data-name="Rectangle 26" width="2" height="18.5" transform="translate(793 401)" fill="#e6e6e6"/>
    <rect id="Rectangle_27" data-name="Rectangle 27" width="2" height="18.5" transform="translate(854 401)" fill="#e6e6e6"/>
    <rect id="Rectangle_28" data-name="Rectangle 28" width="140" height="2" transform="translate(489 637)" fill="#e6e6e6"/>
    <rect id="Rectangle_29" data-name="Rectangle 29" width="2" height="18.5" transform="translate(527 619)" fill="#e6e6e6"/>
    <rect id="Rectangle_30" data-name="Rectangle 30" width="2" height="18.5" transform="translate(588 619)" fill="#e6e6e6"/>
    <circle id="Ellipse_2" data-name="Ellipse 2" cx="215" cy="215" r="215" transform="translate(998 146)" fill="#090814"/>
    <rect id="Rectangle_31" data-name="Rectangle 31" width="2.001" height="207.872" transform="translate(552.98 474.235) rotate(-13.486)" fill="#2f2e41"/>
    <path id="Path_1" data-name="Path 1" d="M411.952,521s41,17,28,27-40-12-39-15-4-10-4-10Z" transform="translate(360.5 90.5)" fill="#ffb9b9"/>
    <path id="Path_2" data-name="Path 2" d="M375.952,387l13,12,3,35,10,37s17,35,14,42,3,9,3,9l-23,9s-25-28-25-34S375.952,387,375.952,387Z" transform="translate(360.5 90.5)" fill="#575a88"/>
    <path id="Path_3" data-name="Path 3" d="M375.952,387l13,12,3,35,10,37s17,35,14,42,3,9,3,9l-23,9s-25-28-25-34S375.952,387,375.952,387Z" transform="translate(360.5 90.5)" fill="#e2e3e4"/>
    <path id="Path_4" data-name="Path 4" d="M498.952,747s-5,23-6,25,19,9,19,9l24-17s-10-22-10-26Z" transform="translate(360.5 90.5)" fill="#e2e3e4"/>
    <path id="Path_5" data-name="Path 5" d="M367.952,523l7,8s145,18,148,46,24,160,12,164-43,19-43,11-20-118-16-138c0,0-173-22-177-47s4-36,4-36Z" transform="translate(360.5 90.5)" fill="#2f2e41"/>
    <path id="Path_6" data-name="Path 6" d="M367.952,523l7,8s145,18,148,46,24,160,12,164-43,19-43,11-20-118-16-138c0,0-173-22-177-47s4-36,4-36Z" transform="translate(360.5 90.5)" fill="#090814"/>
    <path id="Path_7" data-name="Path 7" d="M496.952,770s-4-9-6-6-9,38-2,38,71,16,80,14,26,1,24-9-12-11-12-11-37-22-39-33-13-5-13-5v7S507.952,781,496.952,770Z" transform="translate(360.5 90.5)" fill="#090814"/>
    <path id="Path_8" data-name="Path 8" d="M306.952,311s7,34-8,37,19,23,19,23l22,12,16-16s-14.5-29.5-3.5-51.5S306.952,311,306.952,311Z" transform="translate(360.5 90.5)" fill="#9f616a"/>
    <path id="Path_9" data-name="Path 9" d="M355.952,367l-16,16-22-12s-34-20-19-23c9.65-1.93,10.19-16.69,9.36-26.97a93,93,0,0,0-1.36-10.03s56.5-17.5,45.5,4.5a38.361,38.361,0,0,0-3.44,10.76C345.642,346.03,355.952,367,355.952,367Z" transform="translate(360.5 90.5)" fill="#ffb9b9"/>
    <path id="Path_10" data-name="Path 10" d="M283.452,720.5v23h38l3-9-4-24Z" transform="translate(489 146)" fill="#e2e3e4"/>
    <path id="Path_11" data-name="Path 11" d="M254.952,543s0,59,24,61,110,13,110,13,5,98,14,130,1,34,9,36,42-5,41-12-5-184-5-184,9-38-111-56Z" transform="translate(360.5 90.5)" fill="#090814"/>
    <path id="Path_12" data-name="Path 12" d="M414.952,792s-6-13-7-9-13,39-1,42,50,19,75,18,28-2,28-2,7-10-2-16-46-41-48-45-17-7-17,0S421.952,801,414.952,792Z" transform="translate(360.5 90.5)" fill="#090814"/>
    <path id="Path_13" data-name="Path 13" d="M352.452,315.5a38.361,38.361,0,0,0-3.44,10.76c-4.98,3.01-8.31,2.24-14.56,2.24-9.27,0-13.01-11.85-19-18-.47-5.71-8.5.5-8.5.5S363.452,293.5,352.452,315.5Z" transform="translate(360.5 90.5)" opacity="0.1"/>
    <circle id="Ellipse_3" data-name="Ellipse 3" cx="33" cy="33" r="33" transform="translate(659.452 352.5)" fill="#ffb9b9"/>
    <path id="Path_14" data-name="Path 14" d="M388.952,399s-5,36-8,49-7,73-9,81-14,10-38,7a45.092,45.092,0,0,0-4.54-.34c-14.78-.47-31.69,5.06-47.34,9.4-9,2.5-17.59,4.6-25.12,4.94-11.4.52-14.74-12.12-14.35-25.8.37-12.73,3.98-26.38,7.35-31.2,6.07-8.68.1-86.61,2.34-112.31v-.01c.34-3.92.87-6.62,1.66-7.68,6-8,45-28,49.37-27.19S344.952,370,344.952,370c9,0,8.71-9.76,8.71-9.76s6.29,11.76,18.29,14.76S388.952,399,388.952,399Z" transform="translate(360.5 90.5)" fill="#e2e3e4"/>
    <path id="Path_15" data-name="Path 15" d="M322.1,528.643s64.416,2.051,53.132,9.7S313.952,553,312.952,543,322.1,528.643,322.1,528.643Z" transform="translate(360.5 90.5)" fill="#ffb9b9"/>
    <path id="Path_16" data-name="Path 16" d="M329.412,535.66c.21,3.84-10.12,12.49-13.46,18.34-1.85,3.24-16.17-1.03-33.88-8.94A347.406,347.406,0,0,1,242.6,524.2c.37-12.73,3.98-26.38,7.35-31.2,6.07-8.68.1-86.61,2.34-112.31v-.01a11.084,11.084,0,0,1,1.66-.68h12c41,19-6,101-6,101s62,51,68,53A1.8,1.8,0,0,1,329.412,535.66Z" transform="translate(360.5 90.5)" opacity="0.1"/>
    <path id="Path_17" data-name="Path 17" d="M265.952,374h-12s-11,3-20,23-42,82-13,106,91,52,95,45,18-18,12-20-68-53-68-53S306.952,393,265.952,374Z" transform="translate(360.5 90.5)" fill="#e2e3e4"/>
    <path id="Path_18" data-name="Path 18" d="M326.875,279.644s1.448-20.048,19.314-11.873,16.7-14.357,11.3-18.338-5.228-4.967-24.974-2.3-58.082,7.177-45.686,46.881,23.622,29.49,23.622,29.49-9.853-35.728.13-28.921l9.983,6.807,5.268-1.116Z" transform="translate(360.5 90.5)" fill="#2f2e41"/>
    <path id="Path_19" data-name="Path 19" d="M347.014,731.345,283.237,557.952,114.729,546.058,70.925,731.23l-1.946-.46,44.2-186.828.847.061,170.645,12.045.224.607,64,174Z" transform="translate(489 146)" fill="#2f2e41"/>
    <circle id="Ellipse_5" data-name="Ellipse 5" cx="21.92" cy="21.92" r="21.92" transform="translate(1005.952 694.804)" fill="#e2e3e4"/>
    <path id="Path_20" data-name="Path 20" d="M603.083,794.618l-2-.039a463.829,463.829,0,0,1,7.1-66.287c8.648-46.881,23.029-77.67,42.743-91.512l1.148,1.637C606.022,670.75,603.106,793.382,603.083,794.618Z" transform="translate(360.5 90.5)" fill="#2f2e41"/>
    <path id="Path_21" data-name="Path 21" d="M628.083,794.139l-2-.039c.043-2.215,1.293-54.414,21.843-68.842l1.148,1.637C629.354,740.741,628.093,793.607,628.083,794.139Z" transform="translate(360.5 90.5)" fill="#2f2e41"/>
    <circle id="Ellipse_7" data-name="Ellipse 7" cx="10" cy="10" r="10" transform="translate(1013.952 709.098)" fill="#6c63ff"/>
    <circle id="Ellipse_8" data-name="Ellipse 8" cx="10" cy="10" r="10" transform="translate(1009 795.098)" fill="#6c63ff"/>
    <path id="Path_22" data-name="Path 22" d="M623.422,644.593c1.879,12-3.019,22.741-3.019,22.741s-7.945-8.726-9.825-20.73,3.019-22.741,3.019-22.741S621.542,632.589,623.422,644.593Z" transform="translate(360.5 90.5)" fill="#2f2e41"/>
    <path id="Path_23" data-name="Path 23" d="M656.109,673.746c-11.493,3.942-22.919.99-22.919.99s7.208-9.344,18.7-13.286,22.919-.99,22.919-.99S667.6,669.8,656.109,673.746Z" transform="translate(360.5 90.5)" fill="#2f2e41"/>
    <path id="Path_24" data-name="Path 24" d="M656.478,749.908a31.135,31.135,0,0,1-16.064.694,28.374,28.374,0,0,1,29.172-10.006A31.135,31.135,0,0,1,656.478,749.908Z" transform="translate(360.5 90.5)" fill="#2f2e41"/>
    <path id="Path_25" data-name="Path 25" d="M303.932,250.5h7.52v41h-12V254.98A4.479,4.479,0,0,1,303.932,250.5Z" transform="translate(316.353 150.497) rotate(-10.466)" fill="#6c63ff"/>
    <circle id="Ellipse_9" data-name="Ellipse 9" cx="15" cy="15" r="15" transform="translate(655.952 374)" fill="#6c63ff"/>
    <circle id="Ellipse_10" data-name="Ellipse 10" cx="9" cy="9" r="9" transform="translate(661.952 380)" fill="#e6e6e6"/>
    <circle id="Ellipse_15" data-name="Ellipse 15" cx="208" cy="208" r="208" transform="translate(1005 153)" fill="#fff"/>
    <circle id="Ellipse_11" data-name="Ellipse 11" cx="3" cy="3" r="3" transform="translate(667.952 386)" fill="#6c63ff"/>
    <path id="Path_26" data-name="Path 26" d="M745.452,134.956v90H614.622l-24.17,29,2.76-29h-11.76v-90Z" transform="translate(489 146)" fill="#6c63ff"/>
    <rect id="Rectangle_32" data-name="Rectangle 32" width="59" height="59" transform="translate(1175.452 311.956)" opacity="0.1"/>
    <path id="Path_27" data-name="Path 27" d="M699.452,178.956h164v90H851.69l2.762,29-24.167-29H699.452Z" transform="translate(489 146)" fill="#6c63ff"/>
  </g>
</svg>
