<svg xmlns="http://www.w3.org/2000/svg" width="422.217" height="647.595" viewBox="0 0 422.217 647.595"><g transform="translate(-543 -278.224)"><path d="M868.223,765.788H561.649c-.483,0-.875-.533-.875-1.191s.392-1.191.875-1.191H868.223c.483,0,.875.533.875,1.191s-.392,1.191-.875,1.191Z" transform="translate(-0.227 141.357)" fill="#f2f2f2"/><path d="M694.069,486.47H298.609c-7.385,0-13.369-3.249-13.378-7.252V315.357c.009-4,5.993-7.247,13.378-7.251H694.069c7.385,0,13.369,3.248,13.378,7.251V479.218c-.009,4-5.993,7.247-13.378,7.252ZM298.609,309.706c-5.756,0-10.42,2.532-10.427,5.652V479.218c.006,3.12,4.671,5.648,10.427,5.652H694.069c5.756,0,10.42-2.532,10.427-5.652V315.357c-.007-3.12-4.671-5.648-10.427-5.652Z" transform="translate(257.77 4.908)" fill="#f0f0f0"/><path d="M227.363,631.26h0a10.276,10.276,0,0,0,8.272-13.052l-7.788-26.48-11.835,2.219-.509,26.967a10.276,10.276,0,0,0,11.86,10.346Z" transform="translate(532.813 90)" fill="#ed9da0"/><path d="M54.806,736.132,69.6,733.913,65.9,589.678l20.71,62.132,11.095,87.281,14.054-3.7,2.959-90.979L98.446,537.162,17.083,555.654Z" transform="translate(637.063 154.182)" fill="#2f2e41"/><path d="M285.7,835.818h0a10.873,10.873,0,0,0,10.873-10.873q0-.533-.052-1.064l-2.3-23.354a3.428,3.428,0,0,0-1.784-2.678c-4.361-2.352-8.845-1.782-13.435,1.288a3.407,3.407,0,0,0-1.48,2.429l-2.622,22.1a10.873,10.873,0,0,0,10.8,12.154Z" transform="translate(412.957 90)" fill="#2f2e41"/><path d="M247.98,834.08h0a9.794,9.794,0,0,0,4.755-14.662l-15.78-23.457c-5.689-4.082-9.119-2.094-10.453,5.534l-3.19-7.994-2.4,2.622a7.647,7.647,0,0,0-.4,9.854l16.368,24.91a9.794,9.794,0,0,0,11.11,3.192Z" transform="translate(511.064 90)" fill="#2f2e41"/><ellipse cx="22.19" cy="22.19" rx="22.19" ry="22.19" transform="translate(637.133 507.906)" fill="#ed9da0"/><path d="M301.372,480.778l37.723-7.4c-4.859-10.364-8.75-13.87-4.438-25.149H304.33C307,459.915,304.42,470.88,301.372,480.778Z" transform="translate(343.898 90)" fill="#ed9da0"/><path d="M273.931,630.191l88.76-25.149c-17.779-39.13-21.5-82.091-16.231-127.5a8.217,8.217,0,0,0-7.207-9.116q-.15-.018-.3-.03c-11.578-.954-23.649-2.178-36.175-3.887l-14.054,9.616-16.273-3.7c-5.222,2.531-10.481,4.636-15.228,6.734a19.038,19.038,0,0,0-10.35,23.414C261.336,544.248,271.017,587.511,273.931,630.191Z" transform="translate(375.777 90)" fill="#e6e6e6"/><path d="M263.279,596.906l17.012-2.219-40.3-116.125c-2.05-5.907-7.134-9.1-13.324-9.988l-5.917.74,4.438,68.789Z" transform="translate(483.326 90)" fill="#e6e6e6"/><path d="M353.294,574.706h0a13.484,13.484,0,0,0,13.486-8.272L383,527.377,369.691,479.3l-3.519,2.24q-.509.324-1,.663a31.653,31.653,0,0,0-13,31.471l3.472,20.361-14.323,30.753A13.484,13.484,0,0,0,353.294,574.706Z" transform="translate(260.047 90)" fill="#e6e6e6"/><path d="M324.5,407.205h0a26.361,26.361,0,0,0-10.766,2.739c-.754.379-.406,1.748-1.1,2.194-.878.562-2.785.221-3.563.879a18.926,18.926,0,0,0-7.022,16.441l1.238,10.638,2.921-2.76a32.452,32.452,0,0,1,20.306-8.614q.5-.029,1-.046l-2.247-3.4,3.906,3.375a43.891,43.891,0,0,1,5.321.374l-2.988-4.519,5.734,4.955h0a15.043,15.043,0,0,1,10.713,7.55l.637,1.22.713-10.149c.284-11.3-10.082-20.651-23.154-20.9Q325.318,407.171,324.5,407.205Z" transform="translate(332.701 90)" fill="#2f2e41"/><path d="M382.889,499.6h0a10.276,10.276,0,0,0-7.134,13.707l10.008,25.724,11.6-3.216L395.584,508.9a10.276,10.276,0,0,0-12.7-9.3Z" transform="translate(211.943 90)" fill="#ed9da0"/><path d="M158.359,509.055l18.492-11.835-15.533-31.806-19.231,7.4,9.615,28.107Z" transform="translate(449.928 154.182)" fill="#e6e6e6"/><path d="M683.545,199.943H262.683a.676.676,0,1,1,0-1.352H683.545a.676.676,0,1,1,0,1.352Z" transform="translate(280.996 102.609)" fill="#cacaca"/><ellipse cx="7.272" cy="7.434" rx="7.272" ry="7.434" transform="translate(550.988 278.224)" fill="#3f3d56"/><ellipse cx="7.272" cy="7.434" rx="7.272" ry="7.434" transform="translate(574.109 278.224)" fill="#3f3d56"/><ellipse cx="7.272" cy="7.434" rx="7.272" ry="7.434" transform="translate(597.229 278.224)" fill="#3f3d56"/><path d="M863.084,166.838H845.24a1.351,1.351,0,1,0,0,2.7h17.844a1.351,1.351,0,1,0,0-2.7Z" transform="translate(86.107 113.229)" fill="#3f3d56"/><path d="M863.084,174.458H845.24a1.351,1.351,0,1,0,0,2.7h17.844a1.351,1.351,0,1,0,0-2.7Z" transform="translate(86.107 110.68)" fill="#3f3d56"/><path d="M863.084,182.068H845.24a1.351,1.351,0,1,0,0,2.7h17.844a1.351,1.351,0,1,0,0-2.7Z" transform="translate(86.107 108.135)" fill="#3f3d56"/><path d="M730.579,367.5a38.993,38.993,0,0,1-5.04,16.616c-6.127,10.761-16.635,18.552-27.952,23.183-14.139,5.786-29.9,5.964-44.905,4.674-13.937-1.2-27.732-3.976-41.72-4.548a290.677,290.677,0,0,0-32.435.774c-20.932,1.486-41.776,4.242-62.487,7.584q-8.413,1.341-16.791,2.881a8.307,8.307,0,0,0-1.559.29c-.1.042-.264.009-.357.068-.169.106.682-.269.166.157a15.471,15.471,0,0,0-1.912,2.461l-7.649,9.843c-2.193,2.823-4.229,6.252-7.064,8.477a12.791,12.791,0,0,1-14.159.987,14.15,14.15,0,0,1-5.265-5.981,51.622,51.622,0,0,0-6.261-9.038c-9.1-10.616-21.747-17.145-32.325-26.077a57.575,57.575,0,0,1-12.928-14.778,41.791,41.791,0,0,1-5.341-16.595c-1.267-11.871,2.376-23.978,8.5-34.077a68.071,68.071,0,0,1,27.634-25.294c12.8-6.522,26.968-9.7,41.168-11.282,15.076-1.681,30.328-1.676,45.478-1.506q25.5.284,50.915,2.243,25.446,1.97,50.691,5.6c16.149,2.322,32.5,4.742,48.3,8.85,13.965,3.629,27.891,9.3,38.319,19.581C724.878,341.735,731.327,354.241,730.579,367.5Z" transform="translate(187.672 36.059)" fill="#6c63ff"/><path d="M494.635,371.28a5.007,5.007,0,0,0,4.743-5.624l-.359-2.825a3.373,3.373,0,0,1,1.1-2.937l2.122-1.9a4.993,4.993,0,0,0-2.395-8.628l-2.8-.531a3.367,3.367,0,0,1-2.453-1.949l-1.148-2.607a4.994,4.994,0,0,0-8.947-.388l-1.369,2.5a3.368,3.368,0,0,1-2.614,1.733l-2.832.286a4.993,4.993,0,0,0-3.134,8.389l1.95,2.074a3.362,3.362,0,0,1,.839,3.019l-.6,2.784a4.993,4.993,0,0,0,7.009,5.572l2.575-1.213a3.36,3.36,0,0,1,3.132.135l2.461,1.433A5,5,0,0,0,494.635,371.28Z" transform="translate(345.557 36.059)" fill="#fff"/><path d="M534.73,370.115a5.043,5.043,0,0,0,3.363-1.5,5.174,5.174,0,0,0,1.354-4.323l-.329-2.592a3.432,3.432,0,0,1,1.118-2.992l1.968-1.759a5.134,5.134,0,0,0,1.8-4.029,4.991,4.991,0,0,0-4.065-4.715l-2.765-.525a3.431,3.431,0,0,1-2.5-1.988l-1.03-2.34a5.225,5.225,0,0,0-4.406-3.206,4.968,4.968,0,0,0-4.644,2.584l-1.353,2.467a3.433,3.433,0,0,1-2.665,1.765l-2.625.265a5.131,5.131,0,0,0-3.825,2.2,4.993,4.993,0,0,0,.518,6.2l1.928,2.049a3.43,3.43,0,0,1,.854,3.075l-.556,2.571a5.155,5.155,0,0,0,.906,4.319,4.98,4.98,0,0,0,6.064,1.435l2.549-1.2a3.429,3.429,0,0,1,3.187.139l2.432,1.416A5,5,0,0,0,534.73,370.115Z" transform="translate(265.365 36.059)" fill="#fff"/><path d="M574.929,369.945a5.007,5.007,0,0,0,4.743-5.624l-.359-2.825a3.373,3.373,0,0,1,1.1-2.937l2.122-1.9a4.993,4.993,0,0,0-2.395-8.628l-2.8-.531a3.367,3.367,0,0,1-2.453-1.949l-1.148-2.607a4.994,4.994,0,0,0-8.947-.388l-1.369,2.5a3.368,3.368,0,0,1-2.614,1.733l-2.832.286a4.993,4.993,0,0,0-3.134,8.388l1.95,2.073a3.361,3.361,0,0,1,.838,3.019l-.6,2.784a4.993,4.993,0,0,0,7.009,5.572l2.575-1.213a3.36,3.36,0,0,1,3.132.135l2.461,1.433a5,5,0,0,0,2.722.681Z" transform="translate(184.969 36.059)" fill="#fff"/><path d="M614.03,368.884a5.007,5.007,0,0,0,4.743-5.624l-.359-2.825a3.373,3.373,0,0,1,1.1-2.937l2.122-1.9a4.993,4.993,0,0,0-2.4-8.628l-2.8-.531a3.367,3.367,0,0,1-2.453-1.949l-1.148-2.607a4.994,4.994,0,0,0-8.947-.388l-1.369,2.5a3.368,3.368,0,0,1-2.615,1.733l-2.832.286a4.993,4.993,0,0,0-3.134,8.388l1.95,2.074a3.361,3.361,0,0,1,.839,3.019l-.6,2.784a4.993,4.993,0,0,0,7.009,5.572l2.575-1.213a3.36,3.36,0,0,1,3.132.135l2.461,1.433A5,5,0,0,0,614.03,368.884Z" transform="translate(106.766 36.059)" fill="#fff"/><path d="M653.131,367.824a5.007,5.007,0,0,0,4.743-5.624l-.359-2.825a3.373,3.373,0,0,1,1.1-2.937l2.122-1.9a4.993,4.993,0,0,0-2.4-8.628l-2.8-.531a3.367,3.367,0,0,1-2.453-1.949l-1.148-2.607a4.994,4.994,0,0,0-8.947-.388l-1.369,2.5a3.368,3.368,0,0,1-2.615,1.733l-2.832.286a4.993,4.993,0,0,0-3.134,8.388l1.95,2.074a3.361,3.361,0,0,1,.839,3.019l-.6,2.784a4.993,4.993,0,0,0,7.009,5.572l2.575-1.213a3.36,3.36,0,0,1,3.132.135l2.461,1.433A5,5,0,0,0,653.131,367.824Z" transform="translate(28.564 36.059)" fill="#fff"/></g></svg>