<svg xmlns="http://www.w3.org/2000/svg" width="800" height="660.552" viewBox="0 0 800 660.552"><g transform="translate(-489.636 -180.687)"><g transform="translate(821.473 180.687)"><path d="M594.811,235.724h-3.622V136.578A57.378,57.378,0,0,0,533.81,79.2H323.748a57.378,57.378,0,0,0-57.378,57.378V680.505a57.378,57.378,0,0,0,57.378,57.378H533.806a57.378,57.378,0,0,0,57.378-57.378V306.3h3.627Z" transform="translate(-266.37 -79.2)" fill="#090814"/><path d="M537.78,95.686H510.362a20.359,20.359,0,0,1-18.85,28.048H371.164a20.359,20.359,0,0,1-18.851-28.048H326.707a42.852,42.852,0,0,0-42.852,42.852V681.674a42.852,42.852,0,0,0,42.852,42.852H537.772a42.852,42.852,0,0,0,42.851-42.851V138.539a42.852,42.852,0,0,0-42.845-42.852Z" transform="translate(-268.023 -80.762)" fill="#fff"/></g><path d="M532.879,426.451a6.966,6.966,0,0,0-6.37-4.262H399.355a6.9,6.9,0,0,0-6.893,6.893V589.943a6.9,6.9,0,0,0,6.893,6.893H526.513a6.9,6.9,0,0,0,6.893-6.893V429.081a6.768,6.768,0,0,0-.522-2.631Zm-1.008,163.492a5.369,5.369,0,0,1-5.362,5.362H399.355a5.363,5.363,0,0,1-5.362-5.36V429.082a5.369,5.369,0,0,1,5.362-5.362H526.513a5.389,5.389,0,0,1,4.977,3.373,5.969,5.969,0,0,1,.2.6,5.318,5.318,0,0,1,.183,1.384Z" transform="translate(523.536 49.193)" fill="#3f3d56"/><path d="M512.943,463.066h-38.3a3.064,3.064,0,1,1,0-6.128h38.3a3.064,3.064,0,0,1,0,6.128Z" transform="translate(516.937 46.294)" fill="#3f3d56"/><path d="M512.943,480.616h-38.3a3.064,3.064,0,1,1,0-6.128h38.3a3.064,3.064,0,0,1,0,6.128Z" transform="translate(516.937 44.83)" fill="#3f3d56"/><path d="M450.62,487.534h-27.99a3.451,3.451,0,0,1-3.447-3.447v-33.03a3.451,3.451,0,0,1,3.447-3.447h27.99a3.451,3.451,0,0,1,3.447,3.447v33.03a3.451,3.451,0,0,1-3.447,3.447Z" transform="translate(521.307 47.072)" fill="#6c63ff"/><path d="M508.261,516.552H421.7a3.064,3.064,0,0,1,0-6.128h86.559a3.064,3.064,0,1,1,0,6.128Z" transform="translate(521.353 41.833)" fill="#ccc"/><path d="M508.261,534.1H421.7a3.064,3.064,0,0,1,0-6.128h86.559a3.064,3.064,0,0,1,0,6.128Z" transform="translate(521.353 40.369)" fill="#ccc"/><path d="M508.261,551.652H421.7a3.064,3.064,0,0,1,0-6.128h86.559a3.064,3.064,0,1,1,0,6.128Z" transform="translate(521.353 38.905)" fill="#ccc"/><path d="M508.261,569.2H421.7a3.064,3.064,0,0,1,0-6.128h86.559a3.064,3.064,0,1,1,0,6.128Z" transform="translate(521.353 37.441)" fill="#ccc"/><path d="M508.261,586.752H421.7a3.064,3.064,0,0,1,0-6.128h86.559a3.064,3.064,0,1,1,0,6.128Z" transform="translate(521.353 35.977)" fill="#ccc"/><circle cx="29.571" cy="29.571" r="29.571" transform="translate(959.048 373.481)" fill="#6c63ff"/><path d="M467.584,357.9a3.067,3.067,0,0,1-1.845-.613l-.033-.025-6.95-5.316a3.088,3.088,0,1,1,3.758-4.9l4.5,3.452,10.637-13.877a3.087,3.087,0,0,1,4.328-.572h0l-.066.092.068-.092a3.091,3.091,0,0,1,.571,4.329l-12.511,16.315a3.089,3.089,0,0,1-2.456,1.2Z" transform="translate(518.107 56.431)" fill="#fff"/><path d="M370.919,613.161H549.654a.917.917,0,0,0,0-1.833H370.919a.917.917,0,1,0,0,1.833Z" transform="translate(525.41 33.416)" fill="#3f3d56"/><g transform="translate(489.636 443.125)"><circle cx="20.038" cy="20.038" r="20.038" transform="translate(50.81)" fill="#ccc"/><path d="M256.508,317.994a2.079,2.079,0,0,1-1.25-.415l-.022-.017-4.709-3.606a2.092,2.092,0,1,1,2.545-3.322l3.05,2.34,7.208-9.4a2.092,2.092,0,0,1,2.933-.387h0l-.045.06.046-.06a2.094,2.094,0,0,1,.387,2.933l-8.478,11.058a2.093,2.093,0,0,1-1.665.817Z" transform="translate(-187.645 -290.312)" fill="#fff"/><path d="M310.674,362a5.483,5.483,0,0,0-5.012-3.354H205.607a5.426,5.426,0,0,0-5.423,5.423V490.641a5.426,5.426,0,0,0,5.423,5.423H305.662a5.431,5.431,0,0,0,5.423-5.423V364.066A5.325,5.325,0,0,0,310.674,362Zm-.793,128.645a4.225,4.225,0,0,1-4.216,4.216H205.607a4.216,4.216,0,0,1-4.216-4.216h0V364.066a4.225,4.225,0,0,1,4.216-4.216H305.662a4.24,4.24,0,0,1,3.917,2.658,4.685,4.685,0,0,1,.159.476,4.179,4.179,0,0,1,.145,1.089Z" transform="translate(-183.515 -294.974)" fill="#ccc"/><path d="M294.984,390.808H264.847a2.411,2.411,0,1,1,0-4.822h30.137a2.411,2.411,0,1,1,0,4.822Z" transform="translate(-188.707 -297.254)" fill="#ccc"/><path d="M294.984,404.618H264.847a2.411,2.411,0,1,1,0-4.822h30.137a2.411,2.411,0,1,1,0,4.822Z" transform="translate(-188.707 -298.406)" fill="#ccc"/><path d="M245.944,410.061H223.92a2.715,2.715,0,0,1-2.712-2.712v-25.99a2.715,2.715,0,0,1,2.712-2.712h22.024a2.716,2.716,0,0,1,2.712,2.712v25.99a2.715,2.715,0,0,1-2.712,2.712Z" transform="translate(-185.268 -296.642)" fill="#ccc"/><path d="M291.3,432.894H223.191a2.411,2.411,0,0,1,0-4.822H291.3a2.411,2.411,0,1,1,0,4.822Z" transform="translate(-185.233 -300.765)" fill="#ccc"/><path d="M291.3,446.708H223.191a2.411,2.411,0,0,1,0-4.822H291.3a2.411,2.411,0,1,1,0,4.822Z" transform="translate(-185.233 -301.917)" fill="#ccc"/><path d="M291.3,460.513H223.191a2.411,2.411,0,0,1,0-4.822H291.3a2.411,2.411,0,1,1,0,4.822Z" transform="translate(-185.233 -303.069)" fill="#ccc"/><path d="M291.3,474.326H223.191a2.411,2.411,0,0,1,0-4.822H291.3a2.411,2.411,0,1,1,0,4.822Z" transform="translate(-185.233 -304.221)" fill="#ccc"/><path d="M291.3,488.132H223.191a2.411,2.411,0,0,1,0-4.822H291.3a2.411,2.411,0,1,1,0,4.822Z" transform="translate(-185.233 -305.372)" fill="#ccc"/><path d="M182.723,509.015H323.359a.721.721,0,0,0,0-1.443H182.723a.721.721,0,0,0-.008,1.443Z" transform="translate(-181.998 -307.396)" fill="#ccc"/></g><g transform="translate(666.252 444.959)"><circle cx="20.038" cy="20.038" r="20.038" transform="translate(50.81)" fill="#ccc"/><path d="M676.508,317.994a2.079,2.079,0,0,1-1.25-.415l-.022-.017-4.709-3.606a2.092,2.092,0,1,1,2.545-3.322l3.05,2.34,7.208-9.4a2.092,2.092,0,0,1,2.933-.387h0l-.045.06.046-.06a2.094,2.094,0,0,1,.387,2.933l-8.478,11.058a2.092,2.092,0,0,1-1.664.817Z" transform="translate(-607.645 -290.312)" fill="#fff"/><path d="M730.674,362a5.483,5.483,0,0,0-5.012-3.354H625.607a5.426,5.426,0,0,0-5.424,5.423V490.641a5.426,5.426,0,0,0,5.424,5.423H725.662a5.431,5.431,0,0,0,5.423-5.423V364.066a5.323,5.323,0,0,0-.411-2.07Zm-.793,128.645a4.225,4.225,0,0,1-4.216,4.216H625.607a4.216,4.216,0,0,1-4.216-4.216h0V364.066a4.225,4.225,0,0,1,4.216-4.216H725.663a4.24,4.24,0,0,1,3.917,2.658,4.675,4.675,0,0,1,.159.476,4.174,4.174,0,0,1,.145,1.089Z" transform="translate(-603.515 -294.974)" fill="#ccc"/><path d="M714.984,390.808H684.847a2.411,2.411,0,0,1,0-4.822h30.137a2.411,2.411,0,0,1,0,4.822Z" transform="translate(-608.707 -297.254)" fill="#ccc"/><path d="M714.984,404.618H684.847a2.411,2.411,0,0,1,0-4.822h30.136a2.411,2.411,0,0,1,0,4.822Z" transform="translate(-608.707 -298.406)" fill="#ccc"/><path d="M665.944,410.061H643.92a2.715,2.715,0,0,1-2.712-2.712v-25.99a2.715,2.715,0,0,1,2.712-2.712h22.024a2.716,2.716,0,0,1,2.712,2.712v25.99A2.715,2.715,0,0,1,665.944,410.061Z" transform="translate(-605.268 -296.642)" fill="#ccc"/><path d="M711.3,432.894H643.191a2.411,2.411,0,0,1,0-4.822H711.3a2.411,2.411,0,0,1,0,4.822Z" transform="translate(-605.233 -300.765)" fill="#ccc"/><path d="M711.3,446.708H643.191a2.411,2.411,0,0,1,0-4.822H711.3a2.411,2.411,0,0,1,0,4.822Z" transform="translate(-605.233 -301.917)" fill="#ccc"/><path d="M711.3,460.513H643.191a2.411,2.411,0,0,1,0-4.822H711.3a2.411,2.411,0,0,1,0,4.822Z" transform="translate(-605.233 -303.069)" fill="#ccc"/><path d="M711.3,474.326H643.191a2.411,2.411,0,0,1,0-4.822H711.3a2.411,2.411,0,0,1,0,4.822Z" transform="translate(-605.233 -304.221)" fill="#ccc"/><path d="M711.3,488.132H643.191a2.411,2.411,0,0,1,0-4.822H711.3a2.411,2.411,0,0,1,0,4.822Z" transform="translate(-605.233 -305.372)" fill="#ccc"/><path d="M602.723,509.015H743.359a.721.721,0,0,0,0-1.443H602.723a.721.721,0,0,0-.008,1.443Z" transform="translate(-601.998 -307.396)" fill="#ccc"/></g><g transform="translate(1126.458 469.202)"><path d="M748.5,331.22s8.765,18.582,7.363,24.192a15.357,15.357,0,0,0,1.052,10.167l16.128-.7L788.119,350.5s-22.789-15.775-21.387-23.491S748.5,331.22,748.5,331.22Z" transform="translate(-699.856 -286.132)" fill="#ed9da0"/><path d="M803.811,376.12l7.012,43.476s0,39.268-2.1,39.969-11.219,0-11.219,0V415.389l2.805-38.567Z" transform="translate(-714.496 -301.582)" fill="#6c63ff"/><path d="M803.811,376.12l7.012,43.476s0,39.268-2.1,39.969-11.219,0-11.219,0V415.389l2.805-38.567Z" transform="translate(-714.496 -301.582)" opacity="0.1"/><path d="M706,635.025l5.61,21.738,8.414-6.311,7.713-17.53L717.921,621Z" transform="translate(-574.613 -305.243)" fill="#ed9da0"/><path d="M885.212,733.12s-9.115,7.012-9.115,14.025c0,0-4.908,7.713-10.518,7.012v14.726S848.048,778,861.371,780.1s23.14-14.726,23.14-14.726,12.622-20.335,10.518-23.14S885.212,733.12,885.212,733.12Z" transform="translate(-732.087 -408.247)" fill="#090814"/><path d="M798.381,490.312s13.377,14.534,7.065,36.971c0,0-7.012,50.488,15.427,69.42s37.164,60.3,37.164,60.3l-16.829,15.427s-18.231-41.372-37.164-57.5-21.036-34.36-21.036-34.36V516.768L779.5,490.12Z" transform="translate(-709.118 -335.643)" fill="#090814"/><path d="M798.381,490.312s13.377,14.534,7.065,36.971c0,0-7.012,50.488,15.427,69.42s37.164,60.3,37.164,60.3l-16.829,15.427s-18.231-41.372-37.164-57.5-21.036-34.36-21.036-34.36V516.768L779.5,490.12Z" transform="translate(-709.118 -335.643)" fill="#6f6f6f" opacity="0.1"/><path d="M618.012,664,611,671.713l2.805,6.311,8.415,2.805,14.726-5.61-2.1-8.415Z" transform="translate(-546.228 -318.09)" fill="#ed9da0"/><path d="M784.415,772.8s-16.225,8.415-20.282,4.909a11.377,11.377,0,0,1-4.045-8.007s-8.124,1-13.532,4.5-12.065,4.722-16.225,7.713-4.056,8.414,8.789,9.115,45.3-.7,45.3-4.208Z" transform="translate(-693.698 -419.178)" fill="#090814"/><path d="M742.407,501.327S733.291,542,749.418,588.28c0,0,7.713,25.947,11.219,33.658s7.013,62.408,5.612,64.512c0,0,11.219,9.115,21.036,2.8,0,0-.7-32.256.7-35.06s2.805-27.348-5.61-47.683-1.4-69.42-1.4-69.42,16.823-25.245,4.2-39.972Z" transform="translate(-697.269 -337.734)" fill="#090814"/><circle cx="19.634" cy="19.634" r="19.634" transform="translate(36.022 10.728)" fill="#ed9da0"/><path d="M785.433,451.6s-5.61,8.415-9.817,4.208c-2.966-2.966-21.955,3.478-32.911,7.538-4.586,1.7-7.763,2.98-7.763,2.98s-.3-9.718-1.192-22.025c-1.024-14.123-2.819-31.668-5.82-41.783-5.61-18.933,8.415-26.646,8.415-26.646s11.921-14.023,11.222-16.128,31.554-12.622,31.554-12.622c3.506.7,6.311,32.256,6.311,32.256s-6.311,25.244-9.817,40.671S785.433,451.6,785.433,451.6Z" transform="translate(-693.313 -292.919)" fill="#6c63ff"/><path d="M710.944,497.12s-15.427,15.427-23.14,19.634-11.921,18.231-5.61,21.036,20.335-15.427,20.335-15.427l20.335-16.829Z" transform="translate(-679.129 -337.734)" fill="#ed9da0"/><path d="M727.635,288.453c-1.794.16-2.819,2.419-2.24,4.124a6.062,6.062,0,0,0,3.942,3.416c1.7.6,3.516.8,5.217,1.391a15.355,15.355,0,0,1,4.638,2.693c4.846,3.969,7.717,10.017,8.63,16.215a44.468,44.468,0,0,1-1.719,18.573c-.914,3.191-2.4,6.689-5.522,7.822a62.03,62.03,0,0,0,9.959-3.377c2.358-1.111,4.572-2.517,6.956-3.572a43.61,43.61,0,0,1,11.01-2.888c2.654-.414,5.46-.731,7.953.273a15.987,15.987,0,0,1,4.169,2.811l8.02,6.738q.21-4.394.277-8.793a19.547,19.547,0,0,0-.911-7.541c-.928-2.34-2.688-4.247-3.866-6.471-2.916-5.5-1.965-12.131-1.911-18.358.056-6.447-.981-13.018-3.966-18.733s-8.081-10.5-14.3-12.212c-8.378-2.308-17.212,1.124-24.911,5.15a22.6,22.6,0,0,0-5.024,3.27,24.417,24.417,0,0,0-4.084,5.569l-3.815,6.389" transform="translate(-692.904 -269.82)" fill="#090814"/><path d="M780.766,392.064s-13.323,50.488-14.725,53.994c-1.01,2.517-12.889,15.911-20.286,22.966-4.586,1.7-7.763,2.977-7.763,2.977s-.3-9.721-1.193-22.025c5.708-6.334,11.711-12.334,11.711-12.334s6.311-38.567,5.61-53.294,14.025-18.231,14.025-18.231C784.973,368.223,780.766,392.064,780.766,392.064Z" transform="translate(-696.36 -298.593)" opacity="0.1"/><path d="M760.816,362.12s-14.726,3.506-14.025,18.231-5.61,53.294-5.61,53.294-23.841,23.841-21.738,26.646,11.117,8.319,13.272,9.068,24.6-23.8,26-27.3,14.726-53.993,14.726-53.993S777.645,364.224,760.816,362.12Z" transform="translate(-691.135 -297.399)" fill="#6c63ff"/></g></g></svg>