<svg xmlns="http://www.w3.org/2000/svg" width="792.337" height="799.752" viewBox="0 0 792.337 799.752"><g transform="translate(-1097.25 -230.912)"><path d="M557.4,592.646c0,.858-.442,1.546-.992,1.546H.992c-.55,0-.992-.689-.992-1.546S.442,591.1.992,591.1H556.41C556.96,591.1,557.4,591.789,557.4,592.646Z" transform="translate(1199.919 417.485)" fill="#f2f2f2"/><path d="M791.7,278.094,747.477,65.264a30.379,30.379,0,0,0-35.892-23.547L574.88,70.124l-22.338,4.639L271.19,133.227l-118.37,24.6L24.185,184.557A30.388,30.388,0,0,0,.638,220.448L44.859,433.278a30.392,30.392,0,0,0,35.9,23.547L168.6,438.58,227.164,426.4l19.674-4.093,61.53-12.787,179.407-37.269,70.133-14.58,3.6-.741,66.417-13.8,39.166-8.148L681.463,332l86.7-18.011A30.38,30.38,0,0,0,791.7,278.094Zm-24.066,33.345-85.649,17.8-16.439,3.418-37.7,7.823L561.4,354.3l-2.3.481-71.173,14.788L308.2,406.911l-61.686,12.826-18.959,3.937-58.8,12.215-88.521,18.4a27.761,27.761,0,0,1-32.825-21.532l-.052-.286c-20.48-98.514,21.35-195.494,98.657-250.008a243.847,243.847,0,0,1,91.25-39.53l36.022-7.485,278.31-57.84,40.908-8.5L712.1,44.252A27.761,27.761,0,0,1,744.93,65.784l44.234,212.829A27.76,27.76,0,0,1,767.632,311.438Z" transform="translate(1097.25 229.035)" fill="#f2f2f2"/><path d="M49.1,8.11h0c-.072.07-.138.143-.209.214A28.685,28.685,0,0,0,8.7,8.106h0a28.686,28.686,0,0,0-.854,40.287l-.007.007.269.276h0L47.815,89.561,88.977,49.583l-.115-.118c.069-.066.141-.127.21-.194h0A28.69,28.69,0,0,0,89.665,8.7h0A28.69,28.69,0,0,0,49.1,8.11Z" transform="translate(1775.845 230.912) rotate(22)" fill="#e6e6e6"/><g transform="translate(1283.856 359.675)"><path d="M656.635,317s-.982,25.609,4.925,31.519-29.55,26.595-29.55,26.595l-20.685-32.5S619.2,328.82,617.241,317Z" transform="translate(-512.048 -238.851)" fill="#ed9da0"/><path d="M336.034,683.5v24.624L305.5,710.09l1.963-26.595Z" transform="translate(-127.918 -84.796)" fill="#ed9da0"/><path d="M444.5,683.5v24.624l30.534,1.964L473.071,683.5Z" transform="translate(-403.829 -84.796)" fill="#ed9da0"/><path d="M702.993,568.419s15.759,57.129,5.91,102.438c0,0,0,19.7-3.94,23.64s-4.925,3.94-1.964,5.91,8.865,6.894,5.91,9.849-3.94,6.894-1.964,7.88,3.94,2.955,1.964,6.894,9.849,109.332,9.849,109.332,11.82,12.8,0,13.79-31.519,5.91-33.489-1.964-17.73-119.182-17.73-119.182-1.964-2.955-5.91-7.88-1.964-6.894-1.964-7.88-20.7-94.566-20.7-94.566-30.534,106.377-33.489,108.346-3.94,1.963-3.94,4.925,1.964,4.925,0,7.88a51.142,51.142,0,0,0-2.955,4.925s-4.925,110.317-14.775,110.317-39.4-1.964-36.444-10.835,6.894-6.889,6.894-6.889-6.894-90.618,9.849-117.211V696.466c0-1.963-.982-2.955,0-4.925s-2.955-119.182,15.759-126.08S702.993,568.419,702.993,568.419Z" transform="translate(-510.638 -242.55)" fill="#d6d6e3"/><path d="M527.162,863.38s4.925-7.88,11.82-7.88,11.82,7.88,11.82,7.88L568.532,888s25.609,15.759,15.759,24.624-36.444,3.94-36.444,3.94-21.669-15.759-24.624-16.745a62.512,62.512,0,0,1-11.82-6.895c-.982-.982,1.964-36.444,4.925-33.981S521.252,869.29,527.162,863.38Z" transform="translate(-337.76 -246.943)" fill="#090814"/><path d="M746.688,863.38s-4.925-7.88-11.82-7.88-11.82,7.88-11.82,7.88L705.319,888s-25.609,15.759-15.759,24.624S726,916.568,726,916.568s21.669-15.759,24.624-16.745a62.506,62.506,0,0,0,11.82-6.895c.982-.982-1.964-36.444-4.925-33.981S752.6,869.29,746.688,863.38Z" transform="translate(-687.305 -246.943)" fill="#090814"/><ellipse cx="35.46" cy="35.46" rx="35.46" ry="35.46" transform="translate(94.822 20.111)" fill="#ed9da0"/><path d="M645.73,351.725s6.627.365,9.716-9.667l52.337,38.231L686.114,438.4s-2.955,31.519,0,40.391,4.925,15.759,4.925,19.7,20.685,69.933,12.8,72.888-128.044,14.775-131-4.925,9.842-149.721,9.842-149.721L562,366.5l50.295-32.9S617.165,353.694,645.73,351.725Z" transform="translate(-509.024 -239.103)" fill="#6c63ff"/><path d="M566.589,444.5l3.94,30.534s15.759,32.5,11.82,75.843l.982,28.564s9.849,49.248-9.849,51.219-6.894-54.174-6.894-54.174l-10.835-26.595-11.091-59.16-5.653-41.308Z" transform="translate(-364.388 -240.768)" fill="#ed9da0"/><path d="M571.7,379.5l14.283,1.477s9.357,69.441,6.4,69.441-36.444,7.88-37.429,5.91S571.7,379.5,571.7,379.5Z" transform="translate(-387.219 -239.792)" fill="#6c63ff"/><path d="M670.46,258.282l6.392-2.324s-13.365-13.365-31.96-12.2l5.23-5.23s-12.785-4.649-24.4,7.554c-6.109,6.415-13.183,13.956-17.585,22.449h-6.844l2.857,5.714-10,5.714,10.263-1.027a28.832,28.832,0,0,0,.97,14.8l2.324,6.392S617,281.525,617,279.2v5.81s6.392-5.23,6.392-8.716l3.487,4.067,1.743-6.392,21.5,6.392-3.486-5.23L660,276.876l-5.23-6.392s15.109,7.554,15.689,13.946,8.134,14.528,8.134,14.528l3.487-5.81S687.31,267,670.46,258.282Z" transform="translate(-515.752 -237.658)" fill="#090814"/><path d="M667.531,433.5v40.391s-.982,49.248,15.759,79.783l8.866,19.693s17.73,57.129,28.564,39.4-11.82-47.278-11.82-47.278L696.08,490.512l7.9-50.115Z" transform="translate(-628.832 -240.603)" fill="#ed9da0"/><path d="M719.925,364.5l-19.214,2.463s-23.141,70.425-17.238,73.38,44.318,4.925,44.318,4.925Z" transform="translate(-647.734 -239.566)" fill="#6c63ff"/></g><g transform="translate(1493.421 396.928)"><path d="M471.706,111.933s-26.743,3.015-28.472,44.429c-1.442,34.514-4.379,53.747,9.668,60.946a21.255,21.255,0,0,0,16.283,1.04L526.493,199.5s.858-62.115-18.985-77.215-35.8-10.357-35.8-10.357Z" transform="translate(-391.487 -111.227)" fill="#2f2e43"/><path d="M495.844,192.454l-29,9.538V160.24h26.315Z" transform="translate(-384.034 -96.548)" fill="#f3a3a6"/><path d="M426.264,380.087c-1.572,9.564-7.953,16.425-14.242,15.321s-10.123-9.759-8.551-19.323a23.372,23.372,0,0,1,4.418-10.565l7.186-40.44,19.557,4.093L425.472,368.6a23.629,23.629,0,0,1,.793,11.487Z" transform="translate(-403.118 -47.181)" fill="#f3a3a6"/><path d="M481.919,607.779H454.76L439.01,462.64H481Z" transform="translate(-392.369 -5.984)" fill="#f3a3a6"/><path d="M436.877,602.427c-2.859,0-5.406-.065-7.316-.247-7.212-.663-14.1-5.991-17.556-9.1a4.923,4.923,0,0,1-1.247-5.549h0a4.921,4.921,0,0,1,3.184-2.82L433,579.271,463.88,558.44l.351.624a55.127,55.127,0,0,1,4.171,9.382,4.181,4.181,0,0,1-.3,3.483,3.325,3.325,0,0,1-1.429,1.2c.559.585,2.313,1.767,7.706,2.625,7.888,1.247,9.525-6.913,9.6-7.251l.052-.273.234-.156c3.742-2.417,6.056-3.509,6.848-3.275.494.143,1.325.4,3.561,22.624a22.82,22.82,0,0,1,.728,10.708c-1.157,5.328-24.4,3.5-29.056,3.067-.13.013-17.53,1.247-29.459,1.247Z" transform="translate(-400.944 22.706)" fill="#090814"/><path d="M529.152,607.779H501.98L486.23,462.64h41.986Z" transform="translate(-378.227 -5.984)" fill="#f3a3a6"/><path d="M484.107,602.427c-2.859,0-5.406-.065-7.316-.247-7.212-.663-14.1-5.991-17.556-9.1a4.923,4.923,0,0,1-1.247-5.549h0a4.921,4.921,0,0,1,3.184-2.82l19.063-5.445L511.11,558.44l.351.624a55.118,55.118,0,0,1,4.171,9.382,4.181,4.181,0,0,1-.3,3.483,3.325,3.325,0,0,1-1.429,1.2c.559.585,2.313,1.767,7.706,2.625,7.888,1.247,9.525-6.913,9.6-7.251l.052-.273.234-.156c3.755-2.417,6.056-3.509,6.848-3.275.494.143,1.326.4,3.561,22.624a22.819,22.819,0,0,1,.728,10.708c-1.157,5.328-24.4,3.5-29.056,3.067-.13.013-17.53,1.247-29.459,1.247Z" transform="translate(-386.799 22.706)" fill="#090814"/><path d="M555.688,335.979H423.7L471.144,179.82h52.629Z" transform="translate(-396.954 -90.684)" fill="#6c63ff"/><path d="M485.09,179.845s-32.786-.858-36.23,7.771-44,213.96-44,213.96H431.6L485.09,179.858Z" transform="translate(-402.596 -90.684)" fill="#6c63ff"/><circle cx="28.901" cy="28.901" r="28.901" transform="translate(57.491 17.443)" fill="#f3a3a6"/><path d="M469.4,120.07s-15.906,64.584,1.78,94.771l-24.911-5.289s-9.655-70.679,9.759-83.531L469.4,120.07Z" transform="translate(-390.913 -108.578)" fill="#2f2e43"/><path d="M537.487,299.99H444.1L415.542,493.7a16.818,16.818,0,0,0,12.319,18.024c26,6.965,43.022,22.5,137.455-4.981a16.868,16.868,0,0,0,11.4-21.26Z" transform="translate(-399.426 -54.695)" fill="#2f2e43"/><path d="M477.21,180.093l26.938-1.183a36.97,36.97,0,0,1,28.472,17.114c19.037,30.1,54.656,93.524,22.858,102.217-41.921,11.448-62.232-52.291-62.232-52.291L477.21,180.093Z" transform="translate(-380.929 -90.957)" fill="#6c63ff"/><path d="M471.088,199.516c-5.536-7.953-5.731-17.322-.455-20.922s14.06-.052,19.6,7.9a23.331,23.331,0,0,1,4.184,10.656l23.014,34.02-16.88,10.695-20.9-34.67a23.548,23.548,0,0,1-8.564-7.68h0Z" transform="translate(-384.046 -91.473)" fill="#f3a3a6"/><path d="M480.58,219.574l19.011-17.5,37.594,35.008-34.956,23.9Z" transform="translate(-379.92 -84.021)" fill="#6c63ff"/></g></g></svg>