<svg xmlns="http://www.w3.org/2000/svg" width="355.094" height="800.264" viewBox="0 0 355.094 800.264"><g transform="translate(-760.535 -99.619)"><g transform="translate(760.535 99.619)"><path d="M621.459,248.425h-3.916V141.231A62.038,62.038,0,0,0,555.5,79.193H328.4a62.038,62.038,0,0,0-62.038,62.038V729.3A62.038,62.038,0,0,0,328.4,791.335H555.5A62.038,62.038,0,0,0,617.543,729.3V324.725h3.915Z" transform="translate(-266.365 -79.193)" fill="#090814"/><path d="M558.384,95.686H528.74a22.011,22.011,0,0,1-20.379,30.325H378.25a22.011,22.011,0,0,1-20.38-30.325H330.183a46.331,46.331,0,0,0-46.331,46.331v587.2a46.331,46.331,0,0,0,46.331,46.331H558.375a46.331,46.331,0,0,0,46.331-46.331v-587.2a46.331,46.331,0,0,0-46.321-46.331Z" transform="translate(-266.732 -79.545)" fill="#fff"/><g transform="translate(46.29 278.95)"><g transform="translate(230.462 9.007)"><ellipse cx="22.06" cy="22.059" rx="22.06" ry="22.059" fill="#6c63ff"/><path d="M851.824,597.976c-.047,0-.094,0-.141,0a2.884,2.884,0,0,1-2.138-1.111l-3.687-4.74a2.886,2.886,0,0,1,.506-4.051l.133-.1a2.886,2.886,0,0,1,4.051.506,2.1,2.1,0,0,0,3.188.155l7.485-7.9a2.89,2.89,0,0,1,4.081-.111l.123.117a2.886,2.886,0,0,1,.11,4.08l-11.616,12.261a2.882,2.882,0,0,1-2.094.9Z" transform="translate(-833.729 -566.842)" fill="#fff"/></g><g transform="translate(18.953 12.529)"><g transform="translate(0.692 6.069)"><path d="M199.288,313.005l1.918-4.9,9.907-1.491,1.064,10.848-10.014.213Z" transform="translate(-197.703 -292.548)" fill="#9f616a"/><ellipse cx="9.199" cy="9.199" rx="9.199" ry="9.199" fill="#9f616a"/></g><path d="M197.092,134.578c-.119.478-.361,1.617-.738,1.623-.308,0-.6-4.936-.3-5.753.353-.939-.575-2.126-1.275-2.736-1.258-1.1-4.049,1.258-6.887.191-.075-.028-.06-.025-.957-.383a20.262,20.262,0,0,0-3.061-1.148,4.151,4.151,0,0,0-3.635,2.3c-.693,1.387-.114,2.576-.765,5.931-.076.391-.2.948-.383.957-.343.015-.678-1.816-.765-2.3a11.674,11.674,0,0,1,0-6.122c.079-.237.564-1.118,1.53-2.87,1.393-2.523,2.093-3.79,2.3-4.018,1.452-1.633,4.095-3.122,6.313-2.487,1.121.321.92.837,2.3,1.339,2.451.895,4.581-.2,4.974.574.208.41-.374.748-.383,1.531-.014,1.343,1.685,1.732,2.678,3.061.534.715,1.449.722-.945,10.31Z" transform="translate(-177.913 -117.614)" fill="#2f2e41"/></g><path d="M121.926,361.153q-.556.625-1.154,1.223a28.343,28.343,0,0,1-37.8,2.044l-.008-.008q-1-.805-1.932-1.711.018-.141.038-.278c.087-.618.184-1.207.293-1.749.89-4.444,12.594-9.11,12.9-9.232l.006,0a7.918,7.918,0,0,0,7.961,5.481c4.4-.048,3.544-5.481,3.544-5.481l.153.032c1.27.27,10.086,2.206,13.564,4.849,1.06.805,1.821,2.521,2.367,4.566C121.88,360.975,121.9,361.064,121.926,361.153Z" transform="translate(-72.398 -314.002)" fill="#e6e6e6"/><path d="M48.374,8.3A28.337,28.337,0,0,0,0,28.337a28.122,28.122,0,0,0,6.955,18.6q.644.74,1.344,1.44c.11.11.221.219.332.326q.933.9,1.932,1.711l.009.007a28.343,28.343,0,0,0,37.8-2.044q.6-.6,1.154-1.223A28.338,28.338,0,0,0,48.374,8.3Zm1.084,38.586a28.316,28.316,0,0,1-8.724,6.691q-1.149.567-2.354,1.03a28.037,28.037,0,0,1-23.357-1.5q-.254-.137-.5-.279a28.363,28.363,0,0,1-5.848-4.4q-.863-.845-1.65-1.761a28.124,28.124,0,1,1,42.438.225Z" transform="translate(0 0)" fill="#3f3d56"/><path d="M927.219,193.506H841.427a2.8,2.8,0,1,1,0-5.6h85.791a2.8,2.8,0,0,1,0,5.6Z" transform="translate(-772.461 -167.897)" fill="#6c63ff"/><path d="M878.616,212.881H841.427a2.8,2.8,0,1,1,0-5.6h37.189a2.8,2.8,0,0,1,0,5.6Z" transform="translate(-772.461 -176.216)" fill="#6c63ff"/></g><g transform="translate(46.29 365.296)"><g transform="translate(0 0)"><path d="M260.358,218.225H246.19V199.05l12.251,6.711Z" transform="translate(-219.963 -177.845)" fill="#2f2e41"/><path d="M206,311.8l-.416-4.2,8.3-1.552,4.9,11.931-8.522,9.8-6.072-11.931Z" transform="translate(-182.438 -273.447)" fill="#ed9da0"/><ellipse cx="9.199" cy="9.199" rx="9.199" ry="9.199" transform="translate(19.645 18.598)" fill="#ed9da0"/><path d="M133.5,364.423c-.1.108-.209.214-.314.32q-.5.5-1.024.975a28.344,28.344,0,0,1-36.777,1.07l-.009-.007c-.152-.122-.3-.247-.453-.374.027-.077.055-.152.084-.227a13.037,13.037,0,0,1,6.736-7.162,10.005,10.005,0,0,1,1.61-.609l2.271-4.091,1.6,2.983,1.178,2.2,4.834,9.02,4.171-10.384,1.292-3.219.331-.825,1.576,1.226,1.491,1.16,3,.663,2.436.538,3.309.731c1.338,1.09,2.152,3.163,2.607,5.739C133.466,364.238,133.482,364.331,133.5,364.423Z" transform="translate(-84.808 -316.369)" fill="#e6e6e6"/><path d="M224.355,134.382a6.94,6.94,0,0,1,11.223-.979c.852.989,1.41,2.2,2.241,3.208,1.787,2.167,4.833,3.435,5.614,6.133a8.745,8.745,0,0,1,0,3.648l-.443,3.12a4.74,4.74,0,0,0,.078,2.422c.356.891,1.208,1.474,1.759,2.259a3.9,3.9,0,0,1-.16,4.559c-.446.55-1.038.964-1.505,1.5a2.162,2.162,0,0,0-.619,1.938c.375,1.3,2.419,1.615,2.643,2.953a1.686,1.686,0,0,1-.976,1.679,3.56,3.56,0,0,1-2.035.238,8.361,8.361,0,0,1-6.553-11.869c.924-1.957,2.64-3.687,2.622-5.851a7.794,7.794,0,0,0-1.08-3.334l-3.247-6.47a4.129,4.129,0,0,0-5.4-2.975,5.549,5.549,0,0,1-2.957-.067,1.9,1.9,0,0,1-1.183-2.393" transform="translate(-200.349 -117.039)" fill="#2f2e41"/><path d="M151.13,161.941a4.84,4.84,0,0,0-4.974,1.787,14.21,14.21,0,0,0-2.343,5.058l-.955,3.07-.9,2.888a6.545,6.545,0,0,0-.418,3.485,11.153,11.153,0,0,1,.759,2.444,4.57,4.57,0,0,1-1.04,2.43,3.233,3.233,0,0,0-.719,2.5c.356,1.315,2.184,2.037,2.084,3.4-.033.453-.3.873-.291,1.327a1.545,1.545,0,0,0,.989,1.309,4.079,4.079,0,0,0,1.706.233,26.417,26.417,0,0,0,5.276-.628,5.1,5.1,0,0,0,1.9-.729,1.984,1.984,0,0,0,.9-1.736c-.112-1.058-1.25-1.658-1.824-2.553a9.432,9.432,0,0,1-.794-3.01A20.462,20.462,0,0,0,148.7,179.3,14.383,14.383,0,0,1,150.7,164.12a3.33,3.33,0,0,0,.778-1.187.99.99,0,0,0-.487-1.206" transform="translate(-125.513 -144.499)" fill="#2f2e41"/><path d="M48.374,8.3A28.337,28.337,0,0,0,0,28.337a28.122,28.122,0,0,0,6.955,18.6q.644.74,1.344,1.44c.11.11.221.219.332.326q.447.433.911.845.281.251.569.492c.15.127.3.251.453.374l.009.007a28.344,28.344,0,0,0,36.777-1.07q.523-.473,1.024-.975c.105-.105.211-.212.314-.32q.431-.444.839-.9A28.338,28.338,0,0,0,48.374,8.3Zm1.084,38.586c-.266.3-.539.6-.818.892q-.652.679-1.347,1.315c-.176.162-.354.32-.534.476a28.135,28.135,0,0,1-6.025,4.009q-1.149.567-2.354,1.03a28.038,28.038,0,0,1-23.357-1.5q-.254-.137-.5-.279a27.948,27.948,0,0,1-2.548-1.631q-.916-.657-1.775-1.385c-.2-.169-.4-.341-.593-.517q-.476-.423-.932-.871-.863-.845-1.65-1.761a28.124,28.124,0,1,1,42.438.225Z" transform="translate(0 0)" fill="#3f3d56"/></g><path d="M927.219,193.506H841.427a2.8,2.8,0,1,1,0-5.6h85.791a2.8,2.8,0,0,1,0,5.6Z" transform="translate(-772.457 -167.898)" fill="#6c63ff"/><path d="M878.616,212.881H841.427a2.8,2.8,0,1,1,0-5.6h37.189a2.8,2.8,0,0,1,0,5.6Z" transform="translate(-772.457 -176.218)" fill="#6c63ff"/><g transform="translate(230.462 6.277)"><ellipse cx="22.06" cy="22.059" rx="22.06" ry="22.059" transform="translate(0 0)" fill="#6c63ff"/><path d="M851.824,597.976c-.047,0-.094,0-.141,0a2.884,2.884,0,0,1-2.138-1.111l-3.687-4.74a2.886,2.886,0,0,1,.506-4.051l.133-.1a2.886,2.886,0,0,1,4.051.506,2.1,2.1,0,0,0,3.188.155l7.485-7.9a2.89,2.89,0,0,1,4.081-.111l.123.117a2.886,2.886,0,0,1,.11,4.08l-11.616,12.261a2.882,2.882,0,0,1-2.094.9Z" transform="translate(-833.729 -566.842)" fill="#fff"/></g></g><g transform="translate(46.29 191.714)"><g transform="translate(0 0)"><g transform="translate(11.865 15.894)"><path d="M216.973,311.8l.416-4.2-8.3-1.552-4.9,11.931,8.522,9.8,6.072-11.931Z" transform="translate(-194.392 -289.342)" fill="#ed9da0"/><ellipse cx="9.199" cy="9.199" rx="9.199" ry="9.199" transform="translate(8.102 2.705)" fill="#ed9da0"/><path d="M187.5,169.559l-1.814.41s1.426-4.523.942-4.954-1.67.249-1.67.249l-1.247,1.4-1.518-1.546s-1.649-2.05-2.294-2.626.391-2.713.391-2.713-9.576-2.582-6.013-7.227c0,0,2.089-3.642,2.77-2.455s1.492-.7,1.492-.7l2.477.471s4.889-2.883,9.529,3.284-3.045,16.407-3.045,16.407Z" transform="translate(-164.365 -149.195)" fill="#090814"/><path d="M111.38,383.987a28.36,28.36,0,0,0,34.279,1.02c-.008-.089-.017-.178-.025-.266-.127-1.385-.24-2.731-.314-3.848-.289-4.335-10.4-7.224-10.4-7.224s-.046.046-.137.126a12.845,12.845,0,0,1-6.8,2.763c-3.543.443-4.71-1.659-5.062-2.665a3.265,3.265,0,0,1-.138-.512l-10.4,4.912c-.679.969-.944,3.057-1,5.4C111.383,383.793,111.381,383.889,111.38,383.987Z" transform="translate(-111.38 -349.498)" fill="#6c63ff"/></g><path d="M48.374,8.3A28.337,28.337,0,0,0,0,28.337a28.122,28.122,0,0,0,6.955,18.6q.644.74,1.344,1.44c.11.11.221.219.332.326q.447.433.911.845.281.251.569.492c.15.127.3.251.453.374l.009.007q.634.511,1.292.984a28.36,28.36,0,0,0,34.279-1.019q.615-.5,1.206-1.034.523-.473,1.024-.975c.105-.105.211-.212.314-.32q.431-.444.839-.9A28.338,28.338,0,0,0,48.374,8.3Zm1.084,38.586c-.266.3-.539.6-.818.892q-.652.679-1.347,1.315c-.176.162-.354.32-.534.476q-.307.267-.621.524a28.055,28.055,0,0,1-5.4,3.485q-1.149.567-2.354,1.03a28.038,28.038,0,0,1-23.357-1.5q-.254-.137-.5-.279a27.947,27.947,0,0,1-2.548-1.631l-.081-.059q-.872-.63-1.694-1.326c-.2-.169-.4-.341-.593-.517q-.476-.423-.932-.871-.863-.845-1.65-1.761a28.124,28.124,0,1,1,42.438.225Z" transform="translate(0 0)" fill="#3f3d56"/></g><path d="M927.219,193.506H841.427a2.8,2.8,0,1,1,0-5.6h85.791a2.8,2.8,0,0,1,0,5.6Z" transform="translate(-772.457 -170.626)" fill="#6c63ff"/><path d="M878.616,212.881H841.427a2.8,2.8,0,1,1,0-5.6h37.189a2.8,2.8,0,0,1,0,5.6Z" transform="translate(-772.457 -178.945)" fill="#6c63ff"/><g transform="translate(230.462 6.278)"><ellipse cx="22.06" cy="22.059" rx="22.06" ry="22.059" fill="#6c63ff"/><path d="M851.824,597.976c-.047,0-.094,0-.141,0a2.884,2.884,0,0,1-2.138-1.111l-3.687-4.74a2.886,2.886,0,0,1,.506-4.051l.133-.1a2.886,2.886,0,0,1,4.051.506,2.1,2.1,0,0,0,3.188.155l7.485-7.9a2.89,2.89,0,0,1,4.081-.111l.123.117a2.886,2.886,0,0,1,.11,4.08l-11.616,12.261a2.882,2.882,0,0,1-2.094.9Z" transform="translate(-833.729 -566.842)" fill="#fff"/></g></g><g transform="translate(46.29 104.483)"><g transform="translate(0 0)"><g transform="translate(6.955 12.355)"><path d="M220.7,285.411l1.349-8.429-9.1-3.709-1.349,12.812Z" transform="translate(-196.01 -256.519)" fill="#ed9da0"/><path d="M140.818,370.825q-1.172.572-2.386,1.03a28.245,28.245,0,0,1-5,1.382,28.831,28.831,0,0,1-11.97-.374c-.874-.214-1.755-.476-2.622-.782l-.274-.1a28.193,28.193,0,0,1-3.149-1.364c-.137-.068-.274-.139-.411-.213s-.3-.159-.454-.244c-.194-.106-.386-.216-.578-.328-.643-.372-1.276-.774-1.88-1.192l-.04-.027c-.036-.025-.071-.049-.106-.074.022-.118.043-.225.063-.32.074-.374.124-.579.124-.579l4.076-8.42,1.136-2.346.554-.228,4.183-1.719h10.225l3.226,1.334s.016.061.049.179a106.558,106.558,0,0,0,5.108,14.113c.04.089.082.18.124.271Z" transform="translate(-106.981 -329.476)" fill="#d6d6e3"/><circle cx="9.283" cy="9.283" r="9.283" transform="translate(13.104 4.606)" fill="#ed9da0"/><path d="M76.229,370.32l-.016.08-2.83,13.457-.024.117-.039.185c-.152-.078-.3-.16-.454-.244-.194-.107-.386-.216-.578-.328-.642-.372-1.275-.774-1.88-1.192l-.04-.028-.105-.074q-.693-.484-1.353-1.007l-.009-.007a28.486,28.486,0,0,1-2.265-2.037q-.7-.7-1.344-1.44l.065-.273.006-.028.081-.347a7.93,7.93,0,0,1,6.225-5.963l4.078-.781Z" transform="translate(-65.29 -343.228)" fill="#d6d6e3"/><path d="M341.608,378.915a28.528,28.528,0,0,1-3.848,2.762c-.132.08-.268.159-.4.238q-.866.5-1.761.935-1.172.572-2.386,1.03l-.063-.295-3.2-15.2.414.079,4.148.795a7.929,7.929,0,0,1,6.224,5.964l.794,3.36.079.33Z" transform="translate(-301.758 -341.501)" fill="#d6d6e3"/><path d="M161.55,132.361c-.241.9-1.454,4.917-4.562,5.763-.61.167-2.066.359-1.681,0l.258-.241c3.372-3.171,4.748-5.109,4.119-9.412-.4-2.739-4.943-5.227-7.5-5.474a4.273,4.273,0,0,0-3.362,1.2c-1.5,1.548-1.252,6.3-2.083,9.092a3.582,3.582,0,0,1-.953,1.722c-.268.229-.439-.062-.566-.54-.269-1.015-.339-2.875-.722-2.349-1.106,1.523-.052,3.542.266,4.32.065.159.132.313.2.459h0c.039.083.079.167.118.246h0c1.063,2.168,2.34,2.943,3.466,4.294a8.387,8.387,0,0,1,1.234,1.965,8.765,8.765,0,0,1,.567,1.684,11.875,11.875,0,0,1-.328,6c-.433,1.432-1.178,3.893-3.362,5.282-2.742,1.745-5.245.207-6.442,1.864-.015.019-.028.039-.042.058a2.044,2.044,0,0,0-.119.2,28.2,28.2,0,0,1-3.149-1.364c-.137-.068-.274-.139-.411-.213s-.3-.159-.454-.244c-.006-.116-.012-.232-.016-.35a24.442,24.442,0,0,1,.546-6.436,34.9,34.9,0,0,1,1.128-4.155,13.576,13.576,0,0,1,1.222-2.562,11.616,11.616,0,0,1,1.492-1.928c1.3-1.359,2.458-1.926,2.641-3.362.262-2.048-1.871-2.665-2.641-5.763-.526-2.118-1.075-5.172-.542-7.229a11.5,11.5,0,0,1,2.4-5.284,12.863,12.863,0,0,1,6.576-3.6c1.539-.207,2.912,1.764,4.773,2.188,2.139.487,3.365.765,4.562,1.681,2.023,1.545,2.593,3.856,3.122,6a12.2,12.2,0,0,1,.24,6.483Z" transform="translate(-128.472 -115.99)" fill="#2f2e41"/></g><path d="M48.37,8.3A28.335,28.335,0,0,0,0,28.335a28.12,28.12,0,0,0,6.955,18.6q.644.74,1.344,1.44a28.484,28.484,0,0,0,2.265,2.037l.009.007a28.337,28.337,0,0,0,46.1-22.08A28.15,28.15,0,0,0,48.37,8.3ZM46.756,49.564a28.133,28.133,0,0,1-6.025,4.008q-1.149.567-2.354,1.03a28.036,28.036,0,0,1-23.355-1.5q-.254-.137-.5-.279a27.949,27.949,0,0,1-2.548-1.631,28.125,28.125,0,1,1,34.787-1.627Z" transform="translate(0 0)" fill="#3f3d56"/></g><path d="M927.219,193.506H841.427a2.8,2.8,0,1,1,0-5.6h85.791a2.8,2.8,0,0,1,0,5.6Z" transform="translate(-772.461 -167.9)" fill="#6c63ff"/><path d="M878.616,212.881H841.427a2.8,2.8,0,1,1,0-5.6h37.189a2.8,2.8,0,0,1,0,5.6Z" transform="translate(-772.461 -176.219)" fill="#6c63ff"/><g transform="translate(230.462 5.983)"><ellipse cx="22.06" cy="22.059" rx="22.06" ry="22.059" fill="#6c63ff"/><path d="M851.824,597.976c-.047,0-.094,0-.141,0a2.884,2.884,0,0,1-2.138-1.111l-3.687-4.74a2.886,2.886,0,0,1,.506-4.051l.133-.1a2.886,2.886,0,0,1,4.051.506,2.1,2.1,0,0,0,3.188.155l7.485-7.9a2.89,2.89,0,0,1,4.081-.111l.123.117a2.886,2.886,0,0,1,.11,4.08l-11.616,12.261a2.882,2.882,0,0,1-2.094.9Z" transform="translate(-833.729 -566.842)" fill="#fff"/></g></g><rect width="267.035" height="72.99" rx="8" transform="translate(46.7 565.563)" fill="#f2f2f2"/><g transform="translate(46.29 451.628)"><g transform="translate(230.462 9.007)"><ellipse cx="22.06" cy="22.059" rx="22.06" ry="22.059" fill="#6c63ff"/><path d="M851.824,597.976c-.047,0-.094,0-.141,0a2.884,2.884,0,0,1-2.138-1.111l-3.687-4.74a2.886,2.886,0,0,1,.506-4.051l.133-.1a2.886,2.886,0,0,1,4.051.506,2.1,2.1,0,0,0,3.188.155l7.485-7.9a2.89,2.89,0,0,1,4.081-.111l.123.117a2.886,2.886,0,0,1,.11,4.08l-11.616,12.261a2.882,2.882,0,0,1-2.094.9Z" transform="translate(-833.729 -566.842)" fill="#fff"/></g><g transform="translate(0 0)"><g transform="translate(16.971 12.529)"><g transform="translate(1.66 6.069)"><path d="M212.177,313.005l-1.918-4.9-9.907-1.491-1.064,10.848,10.014.213Z" transform="translate(-195.365 -292.548)" fill="#ed9da0"/><ellipse cx="9.199" cy="9.199" rx="9.199" ry="9.199" fill="#ed9da0"/></g><path d="M179.484,134.578c.119.478.361,1.617.738,1.623.308,0,.6-4.936.3-5.753-.353-.939.575-2.126,1.275-2.736,1.257-1.1,4.049,1.258,6.887.191.075-.028.06-.025.957-.383a20.258,20.258,0,0,1,3.061-1.148,4.151,4.151,0,0,1,3.635,2.3c.693,1.387.114,2.576.765,5.931.076.391.2.948.383.957.343.015.678-1.816.765-2.3a11.674,11.674,0,0,0,0-6.122c-.079-.237-.564-1.118-1.531-2.87-1.393-2.523-2.093-3.79-2.3-4.018-1.452-1.633-4.095-3.122-6.313-2.487-1.121.321-.92.837-2.3,1.339-2.451.895-4.581-.2-4.974.574-.208.41.374.747.383,1.531.014,1.343-1.685,1.732-2.678,3.061-.534.715-1.449.722.945,10.31Z" transform="translate(-177.913 -117.614)" fill="#2f2e41"/></g><path d="M81.03,361.153q.556.625,1.154,1.223a28.343,28.343,0,0,0,37.8,2.044l.008-.007q1-.805,1.932-1.711-.018-.141-.038-.278c-.087-.618-.184-1.207-.293-1.749-.89-4.444-12.594-9.11-12.9-9.232l-.006,0a7.918,7.918,0,0,1-7.961,5.481c-4.4-.048-3.544-5.481-3.544-5.481l-.153.032c-1.27.27-10.086,2.206-13.564,4.849-1.06.805-1.821,2.521-2.367,4.566C81.076,360.975,81.053,361.064,81.03,361.153Z" transform="translate(-73.884 -314.002)" fill="#6c63ff"/><path d="M8.3,8.3A28.337,28.337,0,0,1,56.674,28.337a28.122,28.122,0,0,1-6.955,18.6q-.644.74-1.344,1.44c-.11.11-.221.219-.332.326q-.933.9-1.932,1.711l-.009.007A28.343,28.343,0,0,1,8.3,48.374q-.6-.6-1.154-1.223A28.338,28.338,0,0,1,8.3,8.3ZM7.215,46.886a28.316,28.316,0,0,0,8.724,6.691q1.149.567,2.354,1.03A28.037,28.037,0,0,0,41.65,53.1q.254-.137.5-.279A28.363,28.363,0,0,0,48,48.422q.863-.845,1.65-1.761a28.124,28.124,0,1,0-42.438.225Z" transform="translate(0 0)" fill="#3f3d56"/></g><path d="M927.219,193.506H841.427a2.8,2.8,0,1,1,0-5.6h85.791a2.8,2.8,0,0,1,0,5.6Z" transform="translate(-772.461 -167.897)" fill="#6c63ff"/><path d="M878.616,212.881H841.427a2.8,2.8,0,1,1,0-5.6h37.189a2.8,2.8,0,0,1,0,5.6Z" transform="translate(-772.461 -176.216)" fill="#6c63ff"/></g></g><g transform="translate(889.383 372.895)"><circle cx="32.561" cy="32.561" r="32.561" transform="translate(51.7 119.355)" fill="#6c63ff"/><circle cx="32.561" cy="32.561" r="32.561" transform="translate(46.272 113.929)" fill="none" stroke="#3f3d56" stroke-miterlimit="10" stroke-width="1"/><rect width="89.002" height="8.683" transform="translate(37.047 206.729)" fill="#f2f2f2"/><path d="M791.891,350.269l-5.43-11.939s-13.025-34.732-1.085-28.217,16.281,23.878,16.281,23.878l3.256,10.854Z" transform="translate(-631.745 -272.567)" fill="#ed9da0"/><path d="M902.332,513.395s18.451,35.817,23.878,36.9,5.43-32.561,5.43-32.561-10.854-9.768-15.2-8.683S902.332,513.395,902.332,513.395Z" transform="translate(-890.882 -255.518)" fill="#ed9da0"/><path d="M885.628,721.046s-9.768,5.43-5.43,17.366,6.512,8.683,8.683,18.451,21.707,8.683,22.793,4.342,3.256-21.707-2.171-28.217S885.628,721.046,885.628,721.046Z" transform="translate(-847.045 -237.41)" fill="#090814"/><path d="M836.712,721.046s9.768,5.43,5.43,17.366-6.512,8.683-8.683,18.451-21.707,8.683-22.793,4.342-3.256-21.707,2.171-28.217S836.712,721.046,836.712,721.046Z" transform="translate(-701.53 -237.41)" fill="#090814"/><path d="M821.543,522.885s-8.683,5.43-10.854,39.076,1.085,71.636,2.171,80.319-1.085,21.707-3.256,28.217,5.43,56.44,5.43,56.44a25.433,25.433,0,0,0,0,21.707c5.43,11.939,21.707,23.878,26.049,11.939.227-4.166,1.085-44.5,1.085-44.5s4.341-41.244,3.256-52.1,13.025-74.892,15.2-85.745,1.085-19.537,2.171-16.281S883.406,655.3,883.406,655.3s-2.171,57.526-1.085,65.123S891,773.609,902.943,761.67s9.768-16.281,10.854-21.708,0-11.939,0-20.622,8.683-57.526,4.342-65.123-2.171-17.366-1.085-34.732,2.171-100.939-8.683-116.136S821.543,522.885,821.543,522.885Z" transform="translate(-777.529 -256.326)" fill="#090814"/><circle cx="26.049" cy="26.049" r="26.049" transform="translate(44.552 10.952)" fill="#ed9da0"/><path d="M856.073,319.679s1.085,39.076-4.342,45.586,46.671-5.43,46.671-5.43-11.939-24.964-4.342-41.244S856.073,319.679,856.073,319.679Z" transform="translate(-802.295 -272.368)" fill="#ed9da0"/><path d="M846.239,358.1s2.171-8.683,15.2-10.854,28.427-4.341,33.208,0,6.952,9.768,10.208,9.768h15.2l23.878,42.33s-11.939,14.11-8.683,40.159,8.683,92.258,8.683,92.258c-8.7,11.584-108.538,37.988-104.2,0,0,0,5.43-9.768,3.256-18.451s-8.683-67.293-8.683-67.293l-24.964-66.209S844.068,362.439,846.239,358.1Z" transform="translate(-802.229 -269.541)" fill="#d6d6e3"/><path d="M31.574,149.593c6.977-19.395-1.089-66.94-1.089-66.94s4.355-11.4,3.266-21.366-3.266-37.034-3.266-37.034S29.4-14.206,8.71,5.736c0,0-6.533,4.273-3.266,22.79s1.089,51.274,0,59.819S0,123.955,0,123.955,24.6,168.987,31.574,149.593Z" transform="translate(34.411 264.071) rotate(-179.026)" fill="#d6d6e3"/><path d="M769.7,360.879l5.43-3.256s7.6-3.256,18.451,0,16.281,2.171,20.622,1.085,1.082-11.943,1.082-11.943,8.683-15.2,17.366-6.512,8.683,26.049,8.683,26.049,5.43,10.854-14.11,17.366S799,399.95,799,399.95H777.3Z" transform="translate(-657.307 -270.152)" fill="#d6d6e3"/><path d="M879.014,341.449a4.872,4.872,0,0,1,3.121-4.332,14.67,14.67,0,0,1,3.709-.708c3.7-.46,7.5-1.77,9.651-4.5,2.867-3.633,2.083-8.715,4.381-12.659a44.116,44.116,0,0,1,3.5-4.447c4.006-5.185,4.718-11.806,5.081-18.1a7.529,7.529,0,0,0-.445-3.785,14.641,14.641,0,0,0-2.476-2.953,9.61,9.61,0,0,1-2.456-6.546c.117-4.878-7.1-8.155-12.22-9.84s-10.662-1.953-16.111-2.024c-3.133-.041-6.366-.005-9.246,1.1a21.445,21.445,0,0,0-4.636,2.666c-6.035,4.269-11.7,9.517-13.728,16.159a33.827,33.827,0,0,0-1.1,9.28,5.888,5.888,0,0,0,.43,2.856c.724,1.407,2.432,2.169,3.535,3.362,2.062,2.229,1.691,5.454,1.958,8.338a19.065,19.065,0,0,0,9.708,14.445,12.4,12.4,0,0,1,3.036,2.028,12.771,12.771,0,0,1,1.674,2.825C868.554,338.642,874.024,341.307,879.014,341.449Z" transform="translate(-806.671 -271.544)" fill="#090814"/></g></g></svg>