<svg xmlns="http://www.w3.org/2000/svg" width="800.721" height="657.745" viewBox="0 0 800.721 657.745"><g transform="translate(-620.263 -211)"><g transform="translate(669.3 225.476)"><path d="M384.654,221.325a23.4,23.4,0,0,0,.632,5.387l17.9,76.152a20.1,20.1,0,0,0,24.2,14.971L499.1,295.581l3.5-1.081a20.766,20.766,0,0,0,15.732,3.266c10.409-1.842,17.617-10.313,16.1-18.934s-11.191-14.1-21.6-12.272A20.807,20.807,0,0,0,499.154,275l-.053.01-.182.032L436.5,282.762l-5.247-63.312a23.338,23.338,0,0,0-46.6,1.874Z" transform="translate(-264.924 -90.635)" fill="#9f616a"/><path d="M414.451,221.325a23.4,23.4,0,0,0,.632,5.387l14.683,79.365a20.1,20.1,0,0,0,24.2,14.971l71.718-19.94-3.213-31.056h0l-54.616,7.5-6.811-58.1a23.338,23.338,0,0,0-46.6,1.874Z" transform="translate(-294.721 -90.635)" fill="#e6e6e6"/><rect width="21.521" height="21.521" transform="matrix(-0.805, -0.593, 0.593, -0.805, 31.136, 578.981)" fill="#9f616a"/><path d="M545.047,571l36.822,27.146a26.383,26.383,0,0,0,10.683,4.659l9.194,1.742a5.065,5.065,0,0,0,4.926-8.1l-11.148-14.2-14.674-30.256-.085.078c-2.121,1.939-5.343,4.855-5.584,5-4.532,1-8.012.44-10.345-1.674-4.068-3.687-3.248-10.92-3.24-10.993l.007-.055-.048-.028a3.623,3.623,0,0,0-3.174-.435c-2.118.773-3.224,3.553-3.382,3.979-2.068.29-7.446,6.456-7.878,6.955-3.094.561-5.224,1.722-6.331,3.452a7.038,7.038,0,0,0-.558,5.734A12.776,12.776,0,0,0,545.047,571Z" transform="translate(-539.892 13.149)" fill="#2f2e43"/><rect width="21.521" height="21.521" transform="translate(175.136 599.435)" fill="#9f616a"/><path d="M412.943,616.5H458.69a26.386,26.386,0,0,0,11.363-2.589l8.434-4.054a5.065,5.065,0,0,0-.844-9.446l-17.4-4.814-29.766-15.646-.022.113c-.557,2.819-1.419,7.078-1.529,7.337-3.052,3.5-6.188,5.108-9.32,4.791-5.463-.554-9.094-6.862-9.131-6.926l-.028-.049-.056.006a3.623,3.623,0,0,0-2.813,1.534c-1.246,1.879-.486,4.773-.361,5.209-1.492,1.46-2.162,9.615-2.214,10.273-2.158,2.287-3.183,4.486-3.048,6.536a7.039,7.039,0,0,0,2.953,4.946,12.776,12.776,0,0,0,8.031,2.78Z" transform="translate(-234.133 24.038)" fill="#2f2e43"/><path d="M501.715,317.714H604.859L621.3,659.893H584.977L561.508,504.357,467.333,628.786l-34.382-31.107,68.763-93.322Z" transform="translate(-414.392 -54.702)" fill="#2f2e43"/><path d="M448.217,163.647a38.013,38.013,0,1,1,49.4,36.276l-7.349,48.566L452.808,217.27s8.093-10.308,12.433-21.932A37.972,37.972,0,0,1,448.217,163.647Z" transform="translate(-337.184 -112.377)" fill="#9f616a"/><path d="M464,281.639l-16.846,49.642,95.31-1.071-14.21-45.358Z" transform="translate(-354.031 -65.534)" fill="#ed9da0"/><path d="M477.84,184.739l42.266,14.694,39.958,206.284L477.84,415.755H437.647l30.707-205.134a68.46,68.46,0,0,1,9.486-25.882h0Z" transform="translate(-359.261 -94.63)" fill="#e6e6e6"/><path d="M477.344,379.076l-.736-33.907,19.8-.429.736,33.907a20.784,20.784,0,0,1,6.263,14.8c.229,10.569-6.676,19.291-15.422,19.481s-16.024-8.224-16.253-18.794a20.785,20.785,0,0,1,5.615-15.055Z" transform="translate(-346.914 -46.587)" fill="#9f616a"/><path d="M372.956,198.489c-1.976.337-4.3-4.454-6.514-9.119-4.642-9.767-7.592-15.976-7.817-24.753-.191-7.48,1.887-5.517,3.908-22.147.667-5.485,10.038-5.475,11.945-8.079,3.221-4.4-1.721-6.214,6.294-8.857,15.013-4.95,21.8,2.74,31.337,3.4.241.017,4.968,4.639,7.607,4.878,4.625.419,11.3-.3,14.288-7.348,2.8-6.589,4.649,12.665,2.15,15.048a50.626,50.626,0,0,0-5.877,7.47c-.106.418,4.406-13.169,5.877-9.147,1.059,2.895,2.026,21.615-.666,22.175-2.251.468-20.954,7.651-41.689-6.514-.735-.5-.041.3-2.606,6.514-3.235,7.839-3.965,8.263-3.908,10.422.122,4.674,3.631,6.05,2.605,9.119a6.31,6.31,0,0,1-6.514,3.908c-2.749-.567-3.221-3.969-5.211-3.908-1.7.052-3.728,2.62-3.908,5.211-.38,5.46,7.7,6.961,9.119,14.331.8,4.159-8.606-2.915-10.422-2.606Z" transform="translate(-253.596 -123.882)" fill="#090814"/></g><g transform="matrix(0.996, 0.087, -0.087, 0.996, 917.948, 360.118)"><path d="M4.093,0A4.093,4.093,0,0,0,.014,4.428c6.249,16.152,5.4,34.849,4.6,56.005A4.117,4.117,0,0,0,8.7,64.191H35.1a4.117,4.117,0,0,0,4.08-3.758c-2.145-20.552-.988-39.414,4.6-56.005A4.093,4.093,0,0,0,39.708,0Z" transform="translate(2.182 7.579)" fill="#6c63ff"/><path d="M48.084,12.008l-1.97-7.47a3.691,3.691,0,0,0-3.709-2.4h-12.3a1.023,1.023,0,0,0-.231-.359L28.507.412A1.527,1.527,0,0,0,27.434,0H19.84a1.527,1.527,0,0,0-1.073.412L17.4,1.776a1.025,1.025,0,0,0-.231.359H5.761a3.691,3.691,0,0,0-3.709,2.4l-1.97,7.47a2.586,2.586,0,0,0,.766,2.53A4.218,4.218,0,0,0,3.79,15.657c12.584,5.153,26.089,5.279,40.584,0a4.219,4.219,0,0,0,2.944-1.119A2.587,2.587,0,0,0,48.084,12.008Z" transform="translate(0)" fill="#3f3d56"/></g><path d="M817.83,479.531h-14.1V252.537q-1.465-1.084-2.961-2.137c-.2-.132-.4-.275-.59-.407a171.54,171.54,0,0,0-18.772-11.416,101.223,101.223,0,0,0-9.523-11.009,99.717,99.717,0,0,0-150.512,11q-6.593,3.449-12.84,7.448c-.4.254-.794.509-1.18.763-.01.01-.02.01-.031.02a5.171,5.171,0,0,0-2.34,4.345V479.531H584.934c-8.852,0-16.493,7.234-16.452,16.086a15.946,15.946,0,0,0,1.15,5.891,14.224,14.224,0,0,0,1.048,2.127,16.274,16.274,0,0,0,1.8,2.5,15.974,15.974,0,0,0,12.016,5.443H818.268a16.036,16.036,0,0,0,16.015-15.964C834.323,486.765,826.682,479.531,817.83,479.531Zm-72.738,0H663.014L651.7,323.2H756.406Z" transform="translate(512.469 12.633)" fill="#f2f2f2"/><path d="M469.635,219.806l35.077-31.251,10.348,5.127-42.069,44.124Z" transform="translate(801.161 214.291)" fill="#ffb6b6"/><path d="M716.525,379.592l5.794-3.1s14.275-1.218,20.1,15.552l15.451,23.336,25.043-21.7,10.852,7.513L762.2,438.853,749.08,440.53,720.7,403.8Z" transform="translate(515.053 15.742)" fill="#d6d6e3"/><path d="M726.852,353.876c-3.167,21.465-18.929,23.727-30.469,12.522-12.073-11.723-30.469,2.231-30.469-12.522s6.664-40.9,30.469-40.9C721.009,312.973,729.006,339.281,726.852,353.876Z" transform="translate(514.17 14.633)" fill="#2f2e41"/><circle cx="20.503" cy="20.503" r="20.503" transform="translate(1189.949 340.001)" fill="#ffb6b6"/><path d="M1.936,0H16.263l1.3,16.279H0Z" transform="translate(1200.806 375.828)" fill="#ffb9b9"/><path d="M672.478,343.7h8.109l3.577-10.017.715,10.017h3.876l2.087-5.843.417,5.843c5.913,5.345,16.862,3.389,28.8,0h0a21.7,21.7,0,0,0-21.7-21.7h-4.174a21.7,21.7,0,0,0-21.7,21.7Z" transform="translate(514.285 14.791)" fill="#2f2e41"/><path d="M635.548,488.762a8.338,8.338,0,0,0,6.075-14.026L653.035,444.6l2.337-10.073h0a10.088,10.088,0,0,0-14.944,5.374l-11.89,35.937a8.344,8.344,0,0,0,7.009,12.925Z" transform="translate(513.494 16.728)" fill="#ffb6b6"/><path d="M771.269,357.488a2.814,2.814,0,0,0-2.8,3.045c3.158,13.621,4.5,26.563,3.165,38.508a2.83,2.83,0,0,0,2.8,2.584h18.157a2.83,2.83,0,0,0,2.8-2.584,121.233,121.233,0,0,1,3.165-38.508,2.814,2.814,0,0,0-2.8-3.045Z" transform="translate(515.96 15.41)" fill="#6c63ff"/><path d="M739.79,473.269c-.444-1.7-2.02-6.872-4.023-4.585-.3.339-.533-.752-.809-1.153-.478-.693-.767-3.656-1.273-4.437-1.029-1.588-2.306-1.119-3.352-2.962-2.991-5.269-5.783-11.286-6.823-16.37-3.184-15.565,1.2-36.85,1.2-36.85l-1.419-30.319-10.36-.348v-.681a5.16,5.16,0,0,0-5.16-5.16H688.041a5.156,5.156,0,0,0-5.143,4.832l-8.125-.273-14.071,44.7s6.566,16.874,8.883,33.252a62.254,62.254,0,0,1,.453,13.338,53.631,53.631,0,0,1-2.629,13.254s59.69,12.5,71.362.88C738.772,480.391,740.587,476.314,739.79,473.269Z" transform="translate(514.079 15.636)" fill="#d6d6e3"/><path d="M800.04,362.71l-1.355-6.435a2.606,2.606,0,0,0-2.55-2.069h-8.457a.933.933,0,0,0-.159-.31l-.94-1.175a.945.945,0,0,0-.738-.355h-5.221a.945.945,0,0,0-.738.355l-.94,1.175a.931.931,0,0,0-.159.31h-7.844a2.606,2.606,0,0,0-2.55,2.069l-1.355,6.435a2.606,2.606,0,0,0,2.55,3.143c9.353,3.9,18.665,4.669,27.9,0a2.606,2.606,0,0,0,2.55-3.143Z" transform="translate(515.934 15.321)" fill="#3f3d56"/><path d="M690.223,236.8a1.886,1.886,0,0,0-1.88,2.04l2.121,25.8a1.9,1.9,0,0,0,1.88,1.731h12.167a1.9,1.9,0,0,0,1.88-1.731l2.121-25.8a1.886,1.886,0,0,0-1.88-2.04Z" transform="translate(514.561 13.304)" fill="#fff"/><path d="M709.5,240.3l-.908-4.312a1.746,1.746,0,0,0-1.709-1.387h-5.667a.625.625,0,0,0-.106-.208l-.63-.787a.633.633,0,0,0-.495-.238h-3.5a.633.633,0,0,0-.495.238l-.63.787a.625.625,0,0,0-.106.208H690a1.746,1.746,0,0,0-1.709,1.387l-.908,4.312a1.746,1.746,0,0,0,1.709,2.106h18.7A1.746,1.746,0,0,0,709.5,240.3Z" transform="translate(514.544 13.244)" fill="#ccc"/><path d="M699.068,281.519a33.576,33.576,0,1,1,33.576-33.576A33.576,33.576,0,0,1,699.068,281.519Zm0-65.117a31.541,31.541,0,1,0,31.541,31.541A31.541,31.541,0,0,0,699.068,216.4Z" transform="translate(514.163 12.912)" fill="#f2f2f2"/><path d="M517.5,505.561H317.058l.224-23.288.02-2.025L319.093,298H516.479l.254,52.649.01,2.026Z" transform="translate(798.497 216.202)" fill="#f2f2f2"/><path d="M705.705,701.367l-419.474.313c-.44,0-.8-.542-.8-1.211s.357-1.211.8-1.211l419.474-.313c.44,0,.8.542.8,1.211S706.145,701.367,705.705,701.367Z" transform="translate(334.829 167.065)" fill="#e6e6e6"/><path d="M592.869,434.262a2.814,2.814,0,0,0-2.8,3.045c2.874,13.546,4.138,26.464,3.165,38.508a2.83,2.83,0,0,0,2.8,2.584h18.157a2.83,2.83,0,0,0,2.8-2.584c-1.467-12.148.084-25.12,3.165-38.508a2.814,2.814,0,0,0-2.8-3.045Z" transform="translate(512.846 16.751)" fill="#6c63ff"/><path d="M621.641,439.484l-1.355-6.435a2.606,2.606,0,0,0-2.55-2.069h-8.457a.933.933,0,0,0-.159-.31l-.94-1.175a.945.945,0,0,0-.738-.355h-5.221a.945.945,0,0,0-.738.355l-.94,1.175a.93.93,0,0,0-.159.31h-7.844a2.606,2.606,0,0,0-2.55,2.069l-1.355,6.435a2.606,2.606,0,0,0,2.55,3.143,47.261,47.261,0,0,0,27.9,0,2.606,2.606,0,0,0,2.55-3.143Z" transform="translate(512.82 16.661)" fill="#3f3d56"/><rect width="93.301" height="2.035" transform="translate(1118.607 598.651)" fill="#f2f2f2"/><rect width="93.301" height="2.035" transform="translate(1221.37 523.359)" fill="#f2f2f2"/><rect width="93.301" height="2.035" transform="translate(1169.48 663.768)" fill="#f2f2f2"/><path d="M514.073,352.035H470.058V350h44Z" transform="translate(801.168 217.11)" fill="#f2f2f2"/><path d="M330.073,293.035H286.058V291h44Z" transform="translate(797.956 216.08)" fill="#f2f2f2"/><path d="M364.073,96.035H320.058V94h44Z" transform="translate(798.55 212.641)" fill="#f2f2f2"/><path d="M509.073,55.035H465.058V53h44.005Z" transform="translate(801.081 211.925)" fill="#f2f2f2"/><path d="M465.073,96.035H421.058V94h44Z" transform="translate(800.313 212.641)" fill="#f2f2f2"/><path d="M345.238,478v2.035h-27.96L317.3,478Z" transform="translate(798.501 219.344)" fill="#f2f2f2"/><circle cx="8.348" cy="8.348" r="8.348" transform="translate(1304.176 398.926)" fill="#ffb6b6"/><path d="M678.811,380.463l-3.492-5.57s-11.361-2.809-16.039,4.72-29.847,88.5-29.847,88.5l14.244,5.087,27.471-62.834Z" transform="translate(513.533 15.705)" fill="#d6d6e3"/><path d="M705.705,701.367l-419.474.313c-.44,0-.8-.542-.8-1.211s.357-1.211.8-1.211l419.474-.313c.44,0,.8.542.8,1.211S706.145,701.367,705.705,701.367Z" transform="translate(714.482 19.365)" fill="#e6e6e6"/></g></svg>