<svg xmlns="http://www.w3.org/2000/svg" width="801.006" height="561.084" viewBox="0 0 801.006 561.084"><g transform="translate(-1197.724 -252.32)"><path d="M546.3,424.415l-73.511-9.524c-2.981-.383-5.276-1.517-5.2-2.506h0c.132-.989,2.638-1.451,5.685-1.016l73.352,10.618c2.018.29,3.548,1.055,3.456,1.728h0C549.992,424.349,548.3,424.679,546.3,424.415Z" transform="translate(1000.357 -25.06)" fill="#6c63ff"/><path d="M546.808,424.034l-73.735-7.624c-2.994-.3-5.54.251-5.632,1.24h0c-.092.989,2.3,2.031,5.276,2.3l73.867,6.6c2.031.185,3.693-.211,3.759-.884h0C550.4,424.944,548.826,424.245,546.808,424.034Z" transform="translate(1000.309 -23.426)" fill="#6c63ff"/><path d="M612.39,467.415l73.5-9.524c2.981-.383,5.276-1.517,5.2-2.506h0c-.132-.989-2.638-1.451-5.685-1.016l-73.352,10.618c-2.018.29-3.548,1.055-3.456,1.728h0C608.683,467.349,610.372,467.679,612.39,467.415Z" transform="translate(1045.343 -11.341)" fill="#6c63ff"/><path d="M611.965,467.034,685.7,459.41c2.994-.3,5.54.251,5.632,1.24h0c.092.989-2.3,2.031-5.276,2.3l-73.867,6.6c-2.031.185-3.693-.211-3.759-.884h0C608.378,467.944,609.947,467.245,611.965,467.034Z" transform="translate(1045.293 -9.707)" fill="#6c63ff"/><rect width="17.926" height="257.03" transform="translate(1396.667 535.02)" fill="#40414d"/><rect width="17.926" height="257.03" transform="translate(1788.187 535.02)" fill="#40414d"/><path d="M267.269,386.78H681.451A29.019,29.019,0,0,1,710.471,415.8v3.852H238.25V415.8a29.019,29.019,0,0,1,29.019-29.019Z" transform="translate(1122.551 127.319)" fill="#dfe6f5"/><path d="M266.269,386.78H680.451A29.019,29.019,0,0,1,709.471,415.8v3.852H237.25V415.8a29.019,29.019,0,0,1,29.019-29.019Z" transform="translate(1122.232 127.319)" opacity="0.1"/><path d="M267.269,382.24H681.451a29.019,29.019,0,0,1,29.019,29.019v3.852H238.25v-3.852a29.019,29.019,0,0,1,29.019-29.019Z" transform="translate(1122.551 125.87)" fill="#dfe6f5"/><circle cx="35.865" cy="35.865" r="35.865" transform="translate(1561.046 415.46)" fill="#ffd77c"/><path d="M36.025-.5A36.534,36.534,0,0,1,50.242,69.679,36.534,36.534,0,0,1,21.807,2.371,36.3,36.3,0,0,1,36.025-.5Zm0,71.73a35.215,35.215,0,0,0,13.7-67.645A35.215,35.215,0,0,0,22.321,68.464,34.984,34.984,0,0,0,36.025,71.23Z" transform="translate(1560.887 415.301)" fill="#ffab50"/><circle cx="28.426" cy="28.426" r="28.426" transform="translate(1568.486 422.901)" fill="#ffd77c"/><path d="M28.585-.5A29.093,29.093,0,0,1,39.907,55.384a29.092,29.092,0,0,1-22.643-53.6A28.9,28.9,0,0,1,28.585-.5Zm0,56.851A27.774,27.774,0,0,0,39.393,3,27.773,27.773,0,0,0,17.778,54.169,27.591,27.591,0,0,0,28.585,56.351Z" transform="translate(1568.327 422.741)" fill="#ffab50"/><circle cx="21.659" cy="21.659" r="21.659" transform="translate(1575.253 429.666)" fill="#ffd77c"/><path d="M21.818-.5A22.318,22.318,0,0,1,37.6,37.6,22.318,22.318,0,1,1,6.037,6.037,22.172,22.172,0,0,1,21.818-.5Zm0,43.318A21,21,0,0,0,36.667,6.97a21,21,0,1,0-29.7,29.7A20.862,20.862,0,0,0,21.818,42.818Z" transform="translate(1575.094 429.506)" fill="#ffab50"/><circle cx="12.175" cy="12.175" r="12.175" transform="translate(1584.738 439.152)" fill="#ffd77c"/><path d="M12.334-.5A12.834,12.834,0,1,1-.5,12.334,12.849,12.849,0,0,1,12.334-.5Zm0,24.35A11.515,11.515,0,1,0,.819,12.334,11.528,11.528,0,0,0,12.334,23.85Z" transform="translate(1584.578 438.992)" fill="#ffab50"/><circle cx="35.865" cy="35.865" r="35.865" transform="translate(1540.127 434.891)" fill="#ffd77c"/><path d="M36.025-.5A36.534,36.534,0,0,1,50.242,69.679,36.534,36.534,0,0,1,21.807,2.371,36.3,36.3,0,0,1,36.025-.5Zm0,71.73a35.215,35.215,0,0,0,13.7-67.645A35.215,35.215,0,0,0,22.321,68.464,34.984,34.984,0,0,0,36.025,71.23Z" transform="translate(1539.967 434.731)" fill="#ffab50"/><circle cx="28.426" cy="28.426" r="28.426" transform="translate(1547.566 442.328)" fill="#ffd77c"/><path d="M28.585-.5A29.093,29.093,0,0,1,39.907,55.384a29.092,29.092,0,0,1-22.643-53.6A28.9,28.9,0,0,1,28.585-.5Zm0,56.851A27.774,27.774,0,0,0,39.393,3,27.773,27.773,0,0,0,17.778,54.169,27.591,27.591,0,0,0,28.585,56.351Z" transform="translate(1547.406 442.169)" fill="#ffab50"/><circle cx="21.659" cy="21.659" r="21.659" transform="translate(1554.332 449.096)" fill="#ffd77c"/><path d="M21.818-.5A22.318,22.318,0,0,1,37.6,37.6,22.318,22.318,0,1,1,6.037,6.037,22.172,22.172,0,0,1,21.818-.5Zm0,43.318A21,21,0,0,0,36.667,6.97a21,21,0,1,0-29.7,29.7A20.862,20.862,0,0,0,21.818,42.818Z" transform="translate(1554.173 448.937)" fill="#ffab50"/><circle cx="12.175" cy="12.175" r="12.175" transform="translate(1563.817 458.579)" fill="#ffd77c"/><path d="M12.334-.5A12.834,12.834,0,1,1-.5,12.334,12.849,12.849,0,0,1,12.334-.5Zm0,24.35A11.515,11.515,0,1,0,.819,12.334,11.528,11.528,0,0,0,12.334,23.85Z" transform="translate(1563.657 458.42)" fill="#ffab50"/><circle cx="35.865" cy="35.865" r="35.865" transform="translate(1581.967 434.891)" fill="#ffd77c"/><path d="M36.025-.5A36.534,36.534,0,0,1,50.242,69.679,36.534,36.534,0,0,1,21.807,2.371,36.3,36.3,0,0,1,36.025-.5Zm0,71.73a35.215,35.215,0,0,0,13.7-67.645A35.215,35.215,0,0,0,22.321,68.464,34.984,34.984,0,0,0,36.025,71.23Z" transform="translate(1581.807 434.731)" fill="#ffab50"/><circle cx="28.426" cy="28.426" r="28.426" transform="translate(1589.406 442.328)" fill="#ffd77c"/><path d="M28.585-.5A29.093,29.093,0,0,1,39.907,55.384a29.092,29.092,0,0,1-22.643-53.6A28.9,28.9,0,0,1,28.585-.5Zm0,56.851A27.774,27.774,0,0,0,39.393,3,27.773,27.773,0,0,0,17.778,54.169,27.591,27.591,0,0,0,28.585,56.351Z" transform="translate(1589.246 442.169)" fill="#ffab50"/><circle cx="21.659" cy="21.659" r="21.659" transform="translate(1596.174 449.096)" fill="#ffd77c"/><path d="M21.818-.5A22.318,22.318,0,0,1,37.6,37.6,22.318,22.318,0,1,1,6.037,6.037,22.172,22.172,0,0,1,21.818-.5Zm0,43.318A21,21,0,0,0,36.667,6.97a21,21,0,1,0-29.7,29.7A20.862,20.862,0,0,0,21.818,42.818Z" transform="translate(1596.014 448.937)" fill="#ffab50"/><circle cx="12.175" cy="12.175" r="12.175" transform="translate(1605.657 458.579)" fill="#ffd77c"/><path d="M12.334-.5A12.834,12.834,0,1,1-.5,12.334,12.849,12.849,0,0,1,12.334-.5Zm0,24.35A11.515,11.515,0,1,0,.819,12.334,11.528,11.528,0,0,0,12.334,23.85Z" transform="translate(1605.497 458.42)" fill="#ffab50"/><path d="M360.6,346H510.035v7.017a52.762,52.762,0,0,1-52.762,52.762H413.362A52.762,52.762,0,0,1,360.6,353.017Z" transform="translate(1161.588 114.308)" fill="#6c63ff"/><path d="M633.405,467.42a59.766,59.766,0,0,1-59.74,58.276H544a59.905,59.905,0,0,0,13.191,1.5h29.89a59.779,59.779,0,0,0,59.806-59.779Z" transform="translate(1024.736 -7.125)" opacity="0.1"/><rect width="17.926" height="388.54" transform="translate(1797.156 730.781) rotate(90)" fill="#40414d"/><rect width="15.684" height="142.695" transform="translate(1247.257 668.177)" fill="#40414d"/><rect width="15.684" height="142.695" transform="translate(1371.13 668.177)" fill="#40414d"/><path d="M450.112,611.363c0,9.524-32.29,17.253-72.126,17.253S307.43,620.9,307.43,611.363s30.721-17.253,70.556-17.253S450.112,601.879,450.112,611.363Z" transform="translate(949.258 33.296)" fill="#090814"/><path d="M142.66,485.75H307.3v14.378a13.85,13.85,0,0,1-13.85,13.85H166.4a23.743,23.743,0,0,1-23.743-23.743Z" transform="translate(1092.053 158.896)" fill="#40414d"/><path d="M9.26,0h3.482a9.233,9.233,0,0,1,9.233,9.233V195.985H16.7A16.7,16.7,0,0,1,0,179.286V9.233A9.233,9.233,0,0,1,9.26,0Z" transform="translate(1197.724 481.699) rotate(-12.72)" fill="#40414d"/><rect width="15.684" height="142.695" transform="translate(1949.191 813.404) rotate(180)" fill="#40414d"/><rect width="15.684" height="142.695" transform="translate(1825.319 813.404) rotate(180)" fill="#40414d"/><path d="M717.13,613.293c0,9.524,32.29,17.253,72.126,17.253s70.556-7.716,70.556-17.253S829.078,596,789.256,596,717.13,603.769,717.13,613.293Z" transform="translate(1079.974 33.899)" fill="#090814"/><path d="M23.743,0H150.794a13.85,13.85,0,0,1,13.85,13.85V28.228H0V23.743A23.743,23.743,0,0,1,23.743,0Z" transform="translate(1961.735 675.418) rotate(180)" fill="#40414d"/><path d="M16.673,0h5.276V186.778a9.233,9.233,0,0,1-9.233,9.233H9.233A9.233,9.233,0,0,1,0,186.778V16.7A16.7,16.7,0,0,1,16.673,0Z" transform="translate(1955.571 675.394) rotate(-167.28)" fill="#40414d"/><path d="M755.222,689.278s3.5,38.477-14,43.146-1.161,23.321,12.821,19.786,65.306-22.16,68.8-50.124-34.981-37.316-34.981-37.316Z" transform="translate(1085.239 55.84)" fill="#090814"/><path d="M760.552,690.158s3.5,38.477-14,43.146-1.161,23.321,12.821,19.786,65.306-22.16,68.8-50.124S793.2,665.65,793.2,665.65Z" transform="translate(1086.94 56.121)" fill="#090814"/><path d="M790.62,666.55,758,691.045s.145,1.662.237,4.313c12.32-3.377,39.163-12.346,39.572-26.381A63.191,63.191,0,0,0,790.62,666.55Z" transform="translate(1093.013 56.408)" opacity="0.1"/><rect width="13.995" height="10.5" transform="translate(1849.233 387.693)" fill="#f8bdc5"/><path d="M788.028,541s-22.226,17.464-40.482,21.606a134.753,134.753,0,0,0-31.327,10.961L674.233,594.91A25.51,25.51,0,0,0,660.33,615c-1.2,11.872,3.575,27.489,32.066,36.775l89.788,74.632,27.99-23.321L714.556,629.64l73.471-45.481Z" transform="translate(1061.799 16.351)" fill="#d6d6e3"/><path d="M779.187,490.82s-43.146,1.161-73.471-22.16-64.132-16.33-57.141-2.335,43.146,25.656,48.976,26.816,89.788,24.495,89.788,24.495Z" transform="translate(1057.805 -11.583)" fill="#ed9da0"/><path d="M776.065,533.06l-14,41.985s-78.708,48.4-85.132,54.807c-4.986,4.986-11.66,24.495,11.66,40.811S776.052,738.3,776.052,738.3s48.976-10.552,45.481-30.338l-80.462-58.3s34.981-30.338,71.136-25.656,41.985-2.335,41.985-2.335,27.99-28.017,18.651-54.793S776.065,533.06,776.065,533.06Z" transform="translate(1065.597 13.818)" fill="#d6d6e3"/><path d="M737.65,397.464s39.651,43.146,37.316,55.967,31.486-37.316,31.486-37.316S795.9,390.46,798.287,362.47Z" transform="translate(1086.521 -40.609)" fill="#ed9da0"/><path d="M857.872,619.748l-6.991,2.335-4.155,1.385a40.389,40.389,0,0,1-35.746-5.078c-9.3-6.424-21.1-13.19-30.074-13.8-17.464-1.174-37.25-14-37.25-14s11.66-15.156,0-73.471,18.071-99.707,18.071-99.707,2.348,12.623,9.537,5.2a114.473,114.473,0,0,1,8.521-8.125,118.326,118.326,0,0,0,16.343-16.317c8.165-10.552,38.477,34.981,38.477,34.981s18.651,20.986,16.33,71.136c-.251,5.276-.356,10.711-.369,16.211C850.393,567.435,857.872,619.748,857.872,619.748Z" transform="translate(1087.572 -29.724)" fill="#6c63ff"/><path d="M811.076,479.054l1.161,25.656s-61.811,3.5-74.632-9.326-59.212-9.985-58.3,0c.58,6.411,31.486,26.816,50.124,27.99S772.56,533.1,783.113,536.2c9.906,2.915,35.483,5.487,48.9,5.751a19.786,19.786,0,0,0,18.467-11.2,18.667,18.667,0,0,0,1.451-10.882c-2.335-15.156,0-47.816,0-47.816Z" transform="translate(1067.901 -5.647)" fill="#ed9da0"/><path d="M795.527,420.786s-26.816,3.5-23.321,43.146,8.165,43.146,8.165,43.146,39.651-3.5,44.307-4.669,2.335-44.307,2.335-44.307S825.839,419.625,795.527,420.786Z" transform="translate(1097.446 -22.012)" opacity="0.1"/><path d="M795.527,419.906s-26.816,3.5-23.321,43.146,8.165,43.146,8.165,43.146,39.651-3.5,44.307-4.669,2.335-44.307,2.335-44.307S825.839,418.719,795.527,419.906Z" transform="translate(1097.446 -22.293)" fill="#6c63ff"/><path d="M796.261,387.221c-1.833-9.233,1.926-12.083,2.915-23.9L738.5,398.3s6.951,7.571,14.853,17.293a43.223,43.223,0,0,0,10.8,1.319C780.05,416.979,788.743,399.911,796.261,387.221Z" transform="translate(1086.792 -40.338)" opacity="0.1"/><circle cx="43.146" cy="43.146" r="43.146" transform="translate(1806.668 289.161)" fill="#ed9da0"/><path d="M785.8,376.355c-6.6,4.195-6.688,13.679-2.44,20.247s11.568,10.909,18.612,15c2.045,1.187,4.3,2.414,6.6,2.15a9.721,9.721,0,0,0,4.722-2.387A162.831,162.831,0,0,0,827.38,399c6.411-6.305,12.571-14.074,11.568-22.872-1.134-9.985-11-17.5-14.984-26.961-3.35-7.914-2.348-16.792-5.276-24.877S805.5,308.727,797.82,312.962c-2.836,1.556-4.551,4.34-6.925,6.437-5.883,5.2-15.367,5.711-23.413,3.337s-10.434-12.069-21.659-12.1c5.58,1.965,9.352,7.782,8.495,13.085-4.5,2.546-10.407,1.095-15.829,1s-11.871,2.941-10.935,7.822c.818,3.957,6.529,6.9,5.685,10.856a89.38,89.38,0,0,1-31.842,9.761c-2.018.224,12.122,11.977,13.731,12.755,5.9,2.823,12.98,4.894,19.219,7.057C751.3,378.822,768.656,380.906,785.8,376.355Z" transform="translate(1074.892 -57.146)" opacity="0.1"/><path d="M785.8,375.465c-6.6,4.195-6.688,13.679-2.44,20.247s11.568,10.909,18.612,15c2.045,1.187,4.3,2.414,6.6,2.15a9.721,9.721,0,0,0,4.722-2.387,162.846,162.846,0,0,0,14.088-12.359c6.411-6.305,12.571-14.074,11.568-22.872-1.134-9.985-11-17.5-14.984-26.961-3.35-7.914-2.348-16.792-5.276-24.877S805.5,307.837,797.82,312.072c-2.836,1.556-4.551,4.34-6.925,6.437-5.883,5.2-15.367,5.711-23.413,3.337s-10.434-12.069-21.659-12.1c5.58,1.965,9.352,7.782,8.495,13.085-4.5,2.546-10.407,1.095-15.829,1s-11.871,2.942-10.935,7.822c.818,3.957,6.529,6.9,5.685,10.856a89.379,89.379,0,0,1-31.842,9.761c-2.018.224,12.122,11.977,13.731,12.755,5.9,2.823,12.98,4.894,19.219,7.057C751.3,377.945,768.656,379.99,785.8,375.465Z" transform="translate(1074.892 -57.43)" fill="#090814"/><path d="M825.016,680.89a25.734,25.734,0,0,1,1.886,13.731c-3.5,27.99-54.807,46.642-68.8,50.124-7.374,1.847-15.406-2.467-18.77-7.651,2.163,6.094,11.476,12.1,19.944,9.985,14-3.5,65.306-22.16,68.8-50.124a25.6,25.6,0,0,0-3.06-16.066Z" transform="translate(1087.057 60.983)" fill="#fff" opacity="0.1"/><path d="M452.482,682.551s-15.829,19.786-9.233,27.7,39.572,23.044,50.124,22.424c11.212-.66,48.8,1.319,50.124-15.829,0,0,2.638-7.914-31.657-9.233S488.1,670.68,488.1,670.68Z" transform="translate(992.079 57.726)" fill="#090814"/><path d="M307.473,555.366s-15.829,54.081,31.657,63.314l51.443-2.638s72.548-14.51,92.334-3.957c0,0,7.914,1.319,5.276,11.871s3.957,81.781,3.957,81.781V729.48s44.848,0,50.124-5.276c0,0-3.957-21.1,0-38.253s-6.6-71.229-6.6-71.229l-1.042-32.554a22.635,22.635,0,0,0-11.951-19.522,17.674,17.674,0,0,0-8.1-2.058s-89.7-14.51-121.353-11.871S307.473,555.366,307.473,555.366Z" transform="translate(948.464 18.711)" opacity="0.1"/><path d="M307.473,554.365s-15.829,54.081,31.657,63.315l51.443-2.638s72.548-14.51,92.334-3.957c0,0,7.914,1.319,5.276,11.872s3.957,81.781,3.957,81.781V728.48s44.848,0,50.124-5.276c0,0-3.957-21.1,0-38.253s-6.6-71.229-6.6-71.229l-1.042-32.554a22.635,22.635,0,0,0-11.951-19.522,17.676,17.676,0,0,0-8.1-2.058s-89.7-14.51-121.353-11.872S307.473,554.365,307.473,554.365Z" transform="translate(948.464 18.392)" fill="#d6d6e3"/><path d="M412.412,492.333s10.552,13.191,17.148,0,21.1-56.719,21.1-56.719,35.614-38.253,47.486-26.381-29.019,32.976-29.019,32.976-14.51,80.462-27.7,81.781-32.976,0-32.976,0l-6.6-14.51Z" transform="translate(979.386 -26.418)" fill="#ed9da0"/><path d="M379.6,421.68s23.743,27.7,26.381,36.933,31.657,32.976,31.657,32.976-21.1,15.829-17.148,23.743-27.7-26.381-27.7-26.381L355.86,434.87Z" transform="translate(964.71 -21.718)" fill="#6c63ff"/><path d="M400.543,400.512s-11.871,38.253-11.871,52.762-50.124-3.957-48.8-11.871,29.019-36.933,30.338-48.8S400.543,400.512,400.543,400.512Z" transform="translate(959.599 -32.207)" fill="#ed9da0"/><path d="M372.555,415.875s-46.167-11.871-52.762,55.4,5.276,75.186-14.51,116.077,134.543,5.276,134.543,5.276-7.914-9.233-32.976-5.276l-11.871-35.614s-3.957-15.829,18.467-15.829,11.872-46.167,11.872-46.167-11.872-39.572-18.467-43.529S388.384,418.514,372.555,415.875Z" transform="translate(948.014 -23.828)" fill="#6c63ff"/><path d="M392.455,487.68s96.291,10.552,112.119,7.914c0,0,70.7-8.706,52.762,9.233-1.319,1.319-47.486,11.872-52.762,10.552s-117.4,0-117.4,0l-1.319-13.19Z" transform="translate(974.281 -0.661)" fill="#ed9da0"/><path d="M334.806,473.021l69.91,63.315s13.191-26.381,17.148-26.381-47.486-77.824-47.486-77.824-13.191-15.829-21.1-7.914S321.616,426.854,334.806,473.021Z" transform="translate(956.744 -21.616)" fill="#6c63ff"/><circle cx="43.529" cy="43.529" r="43.529" transform="translate(1304.742 304.99)" fill="#ed9da0"/><rect width="1.319" height="54.081" transform="translate(1537.554 394.026)" fill="#ffd77c"/><path d="M-.125-.125H1.524V54.286H-.125ZM1.194.2H.2V53.956h.989Z" transform="translate(1537.515 393.986)" fill="#ffab50"/><rect width="1.319" height="54.081" transform="translate(1538.873 394.026)" fill="#ffd77c"/><path d="M-.125-.125H1.524V54.286H-.125ZM1.194.2H.2V53.956h.989Z" transform="translate(1538.834 393.986)" fill="#ffab50"/><rect width="1.319" height="54.081" transform="translate(1540.193 394.026)" fill="#ffd77c"/><path d="M-.125-.125H1.524V54.286H-.125ZM1.194.2H.2V53.956h.989Z" transform="translate(1540.153 393.986)" fill="#ffab50"/><rect width="1.319" height="54.081" transform="translate(1541.512 394.026)" fill="#ffd77c"/><path d="M-.125-.125H1.524V54.286H-.125ZM1.194.2H.2V53.956h.989Z" transform="translate(1541.472 393.986)" fill="#ffab50"/><rect width="1.319" height="54.081" transform="translate(1542.831 394.026)" fill="#ffd77c"/><path d="M-.125-.125H1.524V54.286H-.125ZM1.194.2H.2V53.956h.989Z" transform="translate(1542.791 393.986)" fill="#ffab50"/><rect width="1.319" height="54.081" transform="translate(1544.15 394.026)" fill="#ffd77c"/><path d="M-.125-.125H1.524V54.286H-.125ZM1.194.2H.2V53.956h.989Z" transform="translate(1544.11 393.986)" fill="#ffab50"/><rect width="1.319" height="54.081" transform="translate(1545.469 394.026)" fill="#ffd77c"/><path d="M-.125-.125H1.524V54.286H-.125ZM1.194.2H.2V53.956h.989Z" transform="translate(1545.429 393.986)" fill="#ffab50"/><path d="M299.371,115.592c6.154,9.984.48,23.134-7.1,32.082s-17.357,16.8-20.741,28.032c-3.035,10.068-.274,20.926,3.295,30.817s8.006,19.753,8.374,30.261-4.606,22.114-14.5,25.662c-10.158,3.641-22.167-2.081-31.95,2.47-12.744,5.928-15.632,26.45-29.524,28.578-8.55,1.309-16.474-6.1-18.863-14.416s-.673-17.186,1.054-25.661l14.2-69.665,11.814-57.965c2.351-11.536,5.141-23.876,13.811-31.841,10.594-9.733,26.563-9.964,40.937-9.381,13.207.536,26.946,1.439,38.444,7.96s19.942,20.38,15.964,32.985c-3.716-8.871-14.818-13.848-23.913-10.719" transform="translate(1066.225 208.575)" fill="#090814"/></g></svg>