<svg width="19" height="18" viewBox="0 0 19 18" fill="none" xmlns="http://www.w3.org/2000/svg">
<rect x="0.922363" y="0.5" width="17" height="17" rx="8.5" fill="#2A2A2A"/>
<rect x="0.922363" y="0.5" width="17" height="17" rx="8.5" stroke="#E6E6E6"/>
<path fill-rule="evenodd" clip-rule="evenodd" d="M6.1572 5.73483C6.30364 5.58839 6.54108 5.58839 6.68753 5.73483L9.42236 8.46967L12.1572 5.73484C12.3036 5.58839 12.5411 5.58839 12.6875 5.73484C12.834 5.88128 12.834 6.11872 12.6875 6.26517L9.95269 9L12.6875 11.7348C12.834 11.8813 12.834 12.1187 12.6875 12.2652C12.5411 12.4116 12.3036 12.4116 12.1572 12.2652L9.42236 9.53033L6.68753 12.2652C6.54108 12.4116 6.30364 12.4116 6.1572 12.2652C6.01075 12.1187 6.01075 11.8813 6.1572 11.7348L8.89203 9L6.1572 6.26516C6.01075 6.11872 6.01075 5.88128 6.1572 5.73483Z" fill="white"/>
</svg>
