<svg xmlns="http://www.w3.org/2000/svg" width="799.031" height="618.112" viewBox="0 0 799.031 618.112"><g transform="translate(-560 -231.001)"><path d="M15.18,488.763c0,.872.478,1.573,1.073,1.573h535.1c.6,0,1.073-.7,1.073-1.573s-.478-1.573-1.073-1.573H16.253C15.658,487.191,15.18,487.891,15.18,488.763Z" transform="translate(675.48 358.777)" fill="#ccc"/><rect width="19.105" height="3.371" transform="translate(865.162 842.355)" fill="#b6b3c5"/><rect width="19.105" height="3.371" transform="translate(1034.295 842.916)" fill="#b6b3c5"/><path d="M352.955,370.945a27.529,27.529,0,0,1-54.321,0H229.146V521.536h193.3V370.945H352.955Z" transform="translate(633.721 321.379)" fill="#d6d6e3"/><rect width="193.296" height="5.242" transform="translate(863.43 830.984)" fill="#090814"/><path d="M788.255,487.17H10.776A10.788,10.788,0,0,1,0,476.394V32.688A10.788,10.788,0,0,1,10.776,21.911H788.255a10.789,10.789,0,0,1,10.776,10.776V476.394a10.789,10.789,0,0,1-10.776,10.776Z" transform="translate(560 209.09)" fill="#090814"/><rect width="760.822" height="429.297" transform="translate(579.547 248.98)" fill="#fff"/><g transform="translate(710 385)" fill="#fff" stroke="#d6d6e3" stroke-width="1"><rect width="156" height="227" rx="4" stroke="none"/><rect x="0.5" y="0.5" width="155" height="226" rx="3.5" fill="none"/></g><g transform="translate(882 385)" fill="#fff" stroke="#6c63ff" stroke-width="3"><rect width="156" height="227" rx="4" stroke="none"/><rect x="1.5" y="1.5" width="153" height="224" rx="2.5" fill="none"/></g><g transform="translate(1054 385)" fill="#fff" stroke="#d6d6e3" stroke-width="1"><rect width="156" height="224" rx="4" stroke="none"/><rect x="0.5" y="0.5" width="155" height="223" rx="3.5" fill="none"/></g><rect width="40" height="12" rx="6" transform="translate(982 397)" fill="#6c63ff"/><rect width="56" height="8" rx="2" transform="translate(894 399)" fill="#6c63ff"/><rect width="103" height="8" rx="2" transform="translate(894 415)" fill="#e6e6e6"/><rect width="103" height="8" rx="2" transform="translate(894 427)" fill="#e6e6e6"/><path d="M12.806-71.38V-74.1a8.278,8.278,0,0,1-5.2-1.951,6.489,6.489,0,0,1-2.043-4.808H9.255a3.263,3.263,0,0,0,1.107,2.37,4.557,4.557,0,0,0,2.451,1.018v-6.507l-1.124-.311a9.126,9.126,0,0,1-4.084-2.133,5.009,5.009,0,0,1-1.464-3.753A5.891,5.891,0,0,1,7-93.361a6.393,6.393,0,0,1,2.37-2.221A8.587,8.587,0,0,1,12.806-96.6v-2.78h1.681v2.768a8.286,8.286,0,0,1,3.537.971,6.379,6.379,0,0,1,2.361,2.208,6,6,0,0,1,.9,3.091H17.656a2.961,2.961,0,0,0-.969-1.99,3.977,3.977,0,0,0-2.2-.927v6.138l.939.249a13.534,13.534,0,0,1,2.949,1.141,6.488,6.488,0,0,1,2.3,2,5.332,5.332,0,0,1,.888,3.165,5.93,5.93,0,0,1-1.857,4.49A8.022,8.022,0,0,1,14.487-74.1v2.723Zm1.681-6.107a4.277,4.277,0,0,0,2.417-1.03,2.7,2.7,0,0,0,.918-2.076,2.12,2.12,0,0,0-.911-1.848,7.993,7.993,0,0,0-2.422-1.067ZM12.806-87.572v-5.667a3.678,3.678,0,0,0-2.122.971,2.529,2.529,0,0,0-.763,1.854,2.138,2.138,0,0,0,.888,1.848,7.071,7.071,0,0,0,2,1Z" transform="translate(888.438 550.381)" fill="#090814"/><rect width="25" height="8" rx="2" transform="translate(916 461)" fill="#090814"/><g transform="translate(3.518 45)"><circle cx="8" cy="8" r="8" transform="translate(890.482 450)" fill="#6c63ff"/><path d="M296.553,358.021a.89.89,0,0,1-.712-.356l-2.182-2.91a.89.89,0,0,1,1.424-1.068l1.428,1.9,3.667-5.5a.89.89,0,0,1,1.481.987l-4.365,6.548a.89.89,0,0,1-.716.4Z" transform="translate(600.837 104.144)" fill="#fff"/></g><rect width="108" height="8" rx="2" transform="translate(914 499)" fill="#e6e6e6"/><g transform="translate(3.518 69)"><circle cx="8" cy="8" r="8" transform="translate(890.482 450)" fill="#6c63ff"/><path d="M296.553,358.021a.89.89,0,0,1-.712-.356l-2.182-2.91a.89.89,0,0,1,1.424-1.068l1.428,1.9,3.667-5.5a.89.89,0,0,1,1.481.987l-4.365,6.548a.89.89,0,0,1-.716.4Z" transform="translate(600.837 104.144)" fill="#fff"/></g><rect width="108" height="8" rx="2" transform="translate(914 523)" fill="#e6e6e6"/><g transform="translate(3.518 93)"><circle cx="8" cy="8" r="8" transform="translate(890.482 450)" fill="#6c63ff"/><path d="M296.553,358.021a.89.89,0,0,1-.712-.356l-2.182-2.91a.89.89,0,0,1,1.424-1.068l1.428,1.9,3.667-5.5a.89.89,0,0,1,1.481.987l-4.365,6.548a.89.89,0,0,1-.716.4Z" transform="translate(600.837 104.144)" fill="#fff"/></g><rect width="108" height="8" rx="2" transform="translate(914 547)" fill="#e6e6e6"/><path d="M6,0H122a6,6,0,0,1,6,6v8a6,6,0,0,1-6,6H6a6,6,0,0,1-6-6V6A6,6,0,0,1,6,0Z" transform="translate(894 573)" fill="#6c63ff"/><path d="M2,0H54a2,2,0,0,1,2,2V6a2,2,0,0,1-2,2H2A2,2,0,0,1,0,6V2A2,2,0,0,1,2,0Z" transform="translate(724 401)" fill="#d6d6e3"/><path d="M2,0h99a2,2,0,0,1,2,2V6a2,2,0,0,1-2,2H2A2,2,0,0,1,0,6V2A2,2,0,0,1,2,0Z" transform="translate(724 417)" fill="#f2f2f2"/><path d="M2,0h99a2,2,0,0,1,2,2V6a2,2,0,0,1-2,2H2A2,2,0,0,1,0,6V2A2,2,0,0,1,2,0Z" transform="translate(724 429)" fill="#f2f2f2"/><path d="M12.806-71.38V-74.1a8.278,8.278,0,0,1-5.2-1.951,6.489,6.489,0,0,1-2.043-4.808H9.255a3.263,3.263,0,0,0,1.107,2.37,4.557,4.557,0,0,0,2.451,1.018v-6.507l-1.124-.311a9.126,9.126,0,0,1-4.084-2.133,5.009,5.009,0,0,1-1.464-3.753A5.891,5.891,0,0,1,7-93.361a6.393,6.393,0,0,1,2.37-2.221A8.587,8.587,0,0,1,12.806-96.6v-2.78h1.681v2.768a8.286,8.286,0,0,1,3.537.971,6.379,6.379,0,0,1,2.361,2.208,6,6,0,0,1,.9,3.091H17.656a2.961,2.961,0,0,0-.969-1.99,3.977,3.977,0,0,0-2.2-.927v6.138l.939.249a13.534,13.534,0,0,1,2.949,1.141,6.488,6.488,0,0,1,2.3,2,5.332,5.332,0,0,1,.888,3.165,5.93,5.93,0,0,1-1.857,4.49A8.022,8.022,0,0,1,14.487-74.1v2.723Zm1.681-6.107a4.277,4.277,0,0,0,2.417-1.03,2.7,2.7,0,0,0,.918-2.076,2.12,2.12,0,0,0-.911-1.848,7.993,7.993,0,0,0-2.422-1.067ZM12.806-87.572v-5.667a3.678,3.678,0,0,0-2.122.971,2.529,2.529,0,0,0-.763,1.854,2.138,2.138,0,0,0,.888,1.848,7.071,7.071,0,0,0,2,1Z" transform="translate(718.438 552.381)" fill="#090814"/><path d="M2,0H23a2,2,0,0,1,2,2V6a2,2,0,0,1-2,2H2A2,2,0,0,1,0,6V2A2,2,0,0,1,2,0Z" transform="translate(746 463)" fill="#090814"/><g transform="translate(-166.482 47)"><circle cx="8" cy="8" r="8" transform="translate(890.482 450)" fill="#6c63ff"/><path d="M296.553,358.021a.89.89,0,0,1-.712-.356l-2.182-2.91a.89.89,0,0,1,1.424-1.068l1.428,1.9,3.667-5.5a.89.89,0,0,1,1.481.987l-4.365,6.548a.89.89,0,0,1-.716.4Z" transform="translate(600.837 104.144)" fill="#fff"/></g><path d="M2,0H106a2,2,0,0,1,2,2V6a2,2,0,0,1-2,2H2A2,2,0,0,1,0,6V2A2,2,0,0,1,2,0Z" transform="translate(744 501)" fill="#f2f2f2"/><g transform="translate(-166.482 71)"><circle cx="8" cy="8" r="8" transform="translate(890.482 450)" fill="#6c63ff"/><path d="M296.553,358.021a.89.89,0,0,1-.712-.356l-2.182-2.91a.89.89,0,0,1,1.424-1.068l1.428,1.9,3.667-5.5a.89.89,0,0,1,1.481.987l-4.365,6.548a.89.89,0,0,1-.716.4Z" transform="translate(600.837 104.144)" fill="#fff"/></g><path d="M2,0H106a2,2,0,0,1,2,2V6a2,2,0,0,1-2,2H2A2,2,0,0,1,0,6V2A2,2,0,0,1,2,0Z" transform="translate(744 525)" fill="#f2f2f2"/><g transform="translate(-166.482 95)"><circle cx="8" cy="8" r="8" transform="translate(890.482 450)" fill="#e6e6e6"/><path d="M296.553,358.021a.89.89,0,0,1-.712-.356l-2.182-2.91a.89.89,0,0,1,1.424-1.068l1.428,1.9,3.667-5.5a.89.89,0,0,1,1.481.987l-4.365,6.548a.89.89,0,0,1-.716.4Z" transform="translate(600.837 104.144)" fill="#fff"/></g><path d="M2,0H106a2,2,0,0,1,2,2V6a2,2,0,0,1-2,2H2A2,2,0,0,1,0,6V2A2,2,0,0,1,2,0Z" transform="translate(744 549)" fill="#f2f2f2"/><path d="M6,1A5.006,5.006,0,0,0,1,6v8a5.006,5.006,0,0,0,5,5H122a5.006,5.006,0,0,0,5-5V6a5.006,5.006,0,0,0-5-5H6M6,0H122a6,6,0,0,1,6,6v8a6,6,0,0,1-6,6H6a6,6,0,0,1-6-6V6A6,6,0,0,1,6,0Z" transform="translate(724 575)" fill="#6c63ff"/><path d="M2,0H54a2,2,0,0,1,2,2V6a2,2,0,0,1-2,2H2A2,2,0,0,1,0,6V2A2,2,0,0,1,2,0Z" transform="translate(1068 401)" fill="#d6d6e3"/><path d="M2,0h99a2,2,0,0,1,2,2V6a2,2,0,0,1-2,2H2A2,2,0,0,1,0,6V2A2,2,0,0,1,2,0Z" transform="translate(1068 417)" fill="#f2f2f2"/><path d="M2,0h99a2,2,0,0,1,2,2V6a2,2,0,0,1-2,2H2A2,2,0,0,1,0,6V2A2,2,0,0,1,2,0Z" transform="translate(1068 429)" fill="#f2f2f2"/><path d="M12.806-71.38V-74.1a8.278,8.278,0,0,1-5.2-1.951,6.489,6.489,0,0,1-2.043-4.808H9.255a3.263,3.263,0,0,0,1.107,2.37,4.557,4.557,0,0,0,2.451,1.018v-6.507l-1.124-.311a9.126,9.126,0,0,1-4.084-2.133,5.009,5.009,0,0,1-1.464-3.753A5.891,5.891,0,0,1,7-93.361a6.393,6.393,0,0,1,2.37-2.221A8.587,8.587,0,0,1,12.806-96.6v-2.78h1.681v2.768a8.286,8.286,0,0,1,3.537.971,6.379,6.379,0,0,1,2.361,2.208,6,6,0,0,1,.9,3.091H17.656a2.961,2.961,0,0,0-.969-1.99,3.977,3.977,0,0,0-2.2-.927v6.138l.939.249a13.534,13.534,0,0,1,2.949,1.141,6.488,6.488,0,0,1,2.3,2,5.332,5.332,0,0,1,.888,3.165,5.93,5.93,0,0,1-1.857,4.49A8.022,8.022,0,0,1,14.487-74.1v2.723Zm1.681-6.107a4.277,4.277,0,0,0,2.417-1.03,2.7,2.7,0,0,0,.918-2.076,2.12,2.12,0,0,0-.911-1.848,7.993,7.993,0,0,0-2.422-1.067ZM12.806-87.572v-5.667a3.678,3.678,0,0,0-2.122.971,2.529,2.529,0,0,0-.763,1.854,2.138,2.138,0,0,0,.888,1.848,7.071,7.071,0,0,0,2,1Z" transform="translate(1062.438 552.381)" fill="#090814"/><path d="M2,0H23a2,2,0,0,1,2,2V6a2,2,0,0,1-2,2H2A2,2,0,0,1,0,6V2A2,2,0,0,1,2,0Z" transform="translate(1090 463)" fill="#090814"/><g transform="translate(177.518 47)"><circle cx="8" cy="8" r="8" transform="translate(890.482 450)" fill="#6c63ff"/><path d="M296.553,358.021a.89.89,0,0,1-.712-.356l-2.182-2.91a.89.89,0,0,1,1.424-1.068l1.428,1.9,3.667-5.5a.89.89,0,0,1,1.481.987l-4.365,6.548a.89.89,0,0,1-.716.4Z" transform="translate(600.837 104.144)" fill="#fff"/></g><path d="M2,0H106a2,2,0,0,1,2,2V6a2,2,0,0,1-2,2H2A2,2,0,0,1,0,6V2A2,2,0,0,1,2,0Z" transform="translate(1088 501)" fill="#f2f2f2"/><g transform="translate(177.518 71)"><circle cx="8" cy="8" r="8" transform="translate(890.482 450)" fill="#6c63ff"/><path d="M296.553,358.021a.89.89,0,0,1-.712-.356l-2.182-2.91a.89.89,0,0,1,1.424-1.068l1.428,1.9,3.667-5.5a.89.89,0,0,1,1.481.987l-4.365,6.548a.89.89,0,0,1-.716.4Z" transform="translate(600.837 104.144)" fill="#fff"/></g><path d="M2,0H106a2,2,0,0,1,2,2V6a2,2,0,0,1-2,2H2A2,2,0,0,1,0,6V2A2,2,0,0,1,2,0Z" transform="translate(1088 525)" fill="#f2f2f2"/><g transform="translate(177.518 95)"><circle cx="8" cy="8" r="8" transform="translate(890.482 450)" fill="#e6e6e6"/><path d="M296.553,358.021a.89.89,0,0,1-.712-.356l-2.182-2.91a.89.89,0,0,1,1.424-1.068l1.428,1.9,3.667-5.5a.89.89,0,0,1,1.481.987l-4.365,6.548a.89.89,0,0,1-.716.4Z" transform="translate(600.837 104.144)" fill="#fff"/></g><path d="M2,0H106a2,2,0,0,1,2,2V6a2,2,0,0,1-2,2H2A2,2,0,0,1,0,6V2A2,2,0,0,1,2,0Z" transform="translate(1088 549)" fill="#f2f2f2"/><path d="M6,1A5.006,5.006,0,0,0,1,6v8a5.006,5.006,0,0,0,5,5H122a5.006,5.006,0,0,0,5-5V6a5.006,5.006,0,0,0-5-5H6M6,0H122a6,6,0,0,1,6,6v8a6,6,0,0,1-6,6H6a6,6,0,0,1-6-6V6A6,6,0,0,1,6,0Z" transform="translate(1068 575)" fill="#6c63ff"/><path d="M6,0H35a6,6,0,0,1,6,6v7a6,6,0,0,1-6,6H6a6,6,0,0,1-6-6V6A6,6,0,0,1,6,0Z" transform="translate(710 265)" fill="#6c63ff"/><path d="M6,0H35a6,6,0,0,1,6,6v7a6,6,0,0,1-6,6H6a6,6,0,0,1-6-6V6A6,6,0,0,1,6,0Z" transform="translate(1169 265)" fill="#e6e6e6"/><path d="M6,0H35a6,6,0,0,1,6,6v7a6,6,0,0,1-6,6H6a6,6,0,0,1-6-6V6A6,6,0,0,1,6,0Z" transform="translate(1120 265)" fill="#e6e6e6"/><path d="M6,0H35a6,6,0,0,1,6,6v7a6,6,0,0,1-6,6H6a6,6,0,0,1-6-6V6A6,6,0,0,1,6,0Z" transform="translate(1071 265)" fill="#e6e6e6"/><path d="M2,0H212a2,2,0,0,1,2,2V18a2,2,0,0,1-2,2H2a2,2,0,0,1-2-2V2A2,2,0,0,1,2,0Z" transform="translate(710 317)" fill="#f2f2f2"/><path d="M2,0h99a2,2,0,0,1,2,2V6a2,2,0,0,1-2,2H2A2,2,0,0,1,0,6V2A2,2,0,0,1,2,0Z" transform="translate(710 345)" fill="#f2f2f2"/></g></svg>