<svg xmlns="http://www.w3.org/2000/svg" width="799.835" height="667.553" viewBox="0 0 799.835 667.553"><g transform="translate(-556.999 -165.975)"><g transform="translate(968.382 291.993)"><path d="M98.164,746.538a1.273,1.273,0,0,0,1.276,1.276H400.028a1.276,1.276,0,1,0,0-2.552H99.438a1.273,1.273,0,0,0-1.276,1.276Z" transform="translate(-98.162 -223.463)" fill="#e6e6e6"/><g transform="translate(88.631 0)"><g transform="translate(0 0)"><path d="M60.867,185.859l35.61,5.936,11.87-56.383-28.686-11.87Z" transform="translate(2.165 -105.074)" fill="#090814"/><path d="M248.413,301.6s2.968,37.589-19.783,40.556,19.783,70.231,30.664,69.242,30.664-73.2,30.664-73.2-25.719-17.806-16.818-33.636Z" transform="translate(-149.771 -245.549)" fill="#ed9da0"/><ellipse cx="30.664" cy="30.664" rx="30.664" ry="30.664" transform="translate(81.332 8.081)" fill="#ed9da0"/><path d="M211.594,424.228s3.957,28.686,15.827,28.686-7.913-32.642-7.913-32.642Z" transform="translate(-151.036 -231.168)" fill="#ed9da0"/><path d="M366.63,449.382s29.676,24.729,25.719,32.647-29.676-8.9-31.653-28.686Z" transform="translate(-132.967 -227.64)" fill="#ed9da0"/><path d="M210.578,534.079,191.783,604.31l-20.772,85.069h19.783s6.923-26.708,19.783-40.557c0,0,12.859-21.762,12.859-36.6l30.664-72.2Z" transform="translate(-155.955 -217.376)" fill="#ed9da0"/><path d="M278.646,539l5.936,66.274s-.989,47.48,0,58.361,0,26.708,0,26.708h17.8s16.818-58.361,11.87-90.015l6.924-74.188Z" transform="translate(-142.911 -218.338)" fill="#ed9da0"/><path d="M265.041,381.13s-26.651-21.12-19.755-50.622c0,0-26.736,1.163-37.617,12.044s2.968,47.48,2.968,47.48S234.377,429.6,230.42,447.4s-46.491,111.777-32.642,117.711,97.928,26.708,140.462-7.913c0,0,10.875-97.928-32.642-129.581V402.892s7.913-6.924,3.957-24.729c0,0,16.818-30.664,6.924-36.6s-32.614-14.633-32.614-14.633S285.813,371.239,265.041,381.13Z" transform="translate(-153.045 -242.479)" fill="#d6d6e3"/><path d="M218.134,340.87s-12.859-1.978-25.719,16.818-46.491,48.469-30.664,63.307,58.361,24.729,58.361,24.729l9.9-17.809-42.534-20.772,35.605-26.706Z" transform="translate(-157.575 -240.797)" fill="#d6d6e3"/><path d="M299.9,340.864s13.849,0,19.783,16.818,40.556,74.188,40.556,74.188l19.781,30.663-13.846,15.829L327.6,434.839,291,374.5Z" transform="translate(-141.415 -240.791)" fill="#d6d6e3"/><path d="M196.375,670.828H168.682L162.746,719.3s-15.824,25.722,7.91,22.752,15.827-29.676,15.827-29.676l5.936-9.892,1.979,20.772,1.978-.989v-22.75S207.256,689.622,196.375,670.828Z" transform="translate(-157.579 -200.804)" fill="#090814"/><path d="M307.566,671.042l-25.719-1.978L276.9,724.457s-2.968,20.772,14.838,17.806,11.87-19.783,11.87-19.783V691.815Z" transform="translate(-143.144 -201.018)" fill="#090814"/><path d="M240.936,259.193s-14.411,4.8-15.143,23.769a33.648,33.648,0,0,0,1,9.008c.812,3.439,1.333,10.839-4.956,20.508A203,203,0,0,0,210.317,332.3l-.045.09,15.827,1.978,3.364-26.236A130.633,130.633,0,0,1,239.835,271.3l.112-.244s6.923,12.868,20.771,12.868l-4.946-4.946s21.762,8.9,29.676,8.9c0,0,5.936,3.957,0,9.892s-17.805,19.783-10.875,30.664.989,13.849.989,13.849l10.875-5.936,4.946-2.968v3.957l25.719-2.968s6.924-.989-7.913-17.806c0,0-3.919-6.53-2.2-12.163a28.408,28.408,0,0,0,1.08-13.286C304.741,272.573,291.7,235.705,240.936,259.193Z" transform="translate(-151.196 -251.607)" fill="#090814"/></g></g></g><g transform="matrix(0.848, 0.53, -0.53, 0.848, 1321.439, 504.046)"><path d="M40.78,43.154,2.217,42.28C-1.641,27.338.1,13.111,3.174,0L41.737.873a84.435,84.435,0,0,0-.957,42.28Z" transform="translate(0)" fill="#6c63ff"/><path d="M0,1.88.02,0,20,.915l-.021,1.88Z" transform="translate(9.698 9.617)" fill="#fff"/><path d="M0,1.88.021,0,20,.915l-.021,1.88Z" transform="translate(9.698 20.486)" fill="#fff"/><path d="M0,1.88.021,0,20,.915l-.021,1.88Z" transform="translate(9.445 31.355)" fill="#fff"/></g><g transform="translate(556.999 165.975)"><path d="M635.745,486.635H199.4V159.263H635.745Z" transform="translate(-199.401 -159.263)" fill="#fff"/><circle cx="17.369" cy="17.369" r="17.369" transform="translate(88.366 33.587)" fill="#6c63ff"/><path d="M355.737,201.529a2.895,2.895,0,0,0,0,5.79H567.09a2.895,2.895,0,0,0,0-5.79Z" transform="translate(-209.889 -162.152)" fill="#d6d6e3"/><path d="M355.736,220.172a2.895,2.895,0,1,0-.012,5.79h133.62a2.895,2.895,0,1,0,0-5.79Z" transform="translate(-209.888 -163.426)" fill="#d6d6e3"/><path d="M635.745,486.635H199.4V159.263H635.745Zm-431.46-4.884H630.862v-317.6H204.285Z" transform="translate(-199.401 -159.263)" fill="#d6d6e3"/><path d="M225.579,266.422V461.137H613.146V266.422Zm385.7,48.213H516.72v-46.35h94.563Zm-190.989,0v-46.35h94.563v46.35Zm94.563,1.863v46.35H420.294V316.5Zm-96.426-1.863H323.868v-46.35h94.563Zm0,1.863v46.35H323.868V316.5ZM322,362.848H227.442V316.5H322Zm0,1.863v46.35H227.442v-46.35Zm1.863,0h94.563v46.35H323.868Zm94.563,48.213v46.35H323.868v-46.35Zm1.863,0h94.563v46.35H420.294Zm0-1.863v-46.35h94.563v46.35Zm96.426-46.35h94.563v46.35H516.72Zm0-1.863V316.5h94.563v46.35ZM322,268.285v46.35H227.442v-46.35ZM227.442,412.924H322v46.35H227.442Zm289.278,46.35v-46.35h94.563v46.35Z" transform="translate(-201.191 -166.587)" fill="#d6d6e3"/><path d="M393.359,319.484,354.8,318.61c-3.857-14.942-2.121-29.17.957-42.28l38.563.873a84.435,84.435,0,0,0-.957,42.28Z" transform="translate(-209.871 -167.264)" fill="#6c63ff"/><path d="M163.676,143.388l.02-1.467,19.979.714-.021,1.467Z" transform="translate(-11.186 -24.978)" fill="#fff"/><path d="M163.586,149.688l.02-1.467,19.978.715-.021,1.467Z" transform="translate(-11.18 -25.409)" fill="#fff"/><path d="M163.495,155.988l.021-1.467,19.978.715-.021,1.467Z" transform="translate(-11.174 -25.84)" fill="#fff"/><path d="M163.4,162.288l.02-1.467,19.979.715L183.383,163Z" transform="translate(-11.168 -26.27)" fill="#fff"/><path d="M163.315,168.588l.02-1.467,19.979.715-.021,1.467Z" transform="translate(-11.161 -26.701)" fill="#fff"/><g transform="translate(58.859 217.137)"><path d="M303.359,435.484,264.8,434.61c-3.857-14.942-2.121-29.17.957-42.28l38.563.873a84.435,84.435,0,0,0-.957,42.28Z" transform="translate(-262.579 -392.33)" fill="#f0f0f0"/><path d="M73.676,259.388l.02-1.467,19.979.714-.021,1.467Z" transform="translate(-63.894 -250.044)" fill="#090814"/><path d="M73.586,265.688l.021-1.467,19.978.715-.021,1.467Z" transform="translate(-63.888 -250.475)" fill="#090814"/><path d="M73.5,271.988l.021-1.467,19.978.715-.02,1.467Z" transform="translate(-63.882 -250.905)" fill="#090814"/><path d="M73.4,278.288l.02-1.467,19.979.715L93.383,279Z" transform="translate(-63.876 -251.336)" fill="#090814"/><path d="M73.315,284.588l.02-1.467,19.979.715-.021,1.467Z" transform="translate(-63.87 -251.767)" fill="#090814"/></g><g transform="translate(264.196 173.984)"><path d="M519.359,382.483,480.8,381.61c-3.857-14.942-2.121-29.17.957-42.28l38.563.873a84.435,84.435,0,0,0-.957,42.28Z" transform="translate(-478.579 -339.33)" fill="#f0f0f0"/><g transform="translate(9.445 7.877)"><path d="M289.676,206.388l.02-1.467,19.979.714-.021,1.467Z" transform="translate(-289.34 -204.921)" fill="#090814"/><path d="M289.586,212.688l.021-1.467,19.978.715-.021,1.467Z" transform="translate(-289.334 -205.352)" fill="#090814"/><path d="M289.495,218.988l.021-1.467,19.978.715-.021,1.467Z" transform="translate(-289.327 -205.782)" fill="#090814"/><path d="M289.4,225.288l.02-1.467,19.979.715L309.383,226Z" transform="translate(-289.321 -206.213)" fill="#090814"/><path d="M289.315,231.588l.021-1.467,19.979.715-.021,1.467Z" transform="translate(-289.315 -206.643)" fill="#090814"/></g></g><g transform="translate(243.326 158.443)"><path d="M501.359,372.484,462.8,371.61c-3.857-14.942-2.121-29.17.957-42.28l38.563.873a84.435,84.435,0,0,0-.957,42.28Z" transform="translate(-460.579 -329.33)" fill="#6c63ff"/><path d="M271.676,196.388l.021-1.467,19.979.714-.021,1.467Z" transform="translate(-261.894 -187.044)" fill="#fff"/><path d="M271.586,202.688l.021-1.467,19.978.715-.021,1.467Z" transform="translate(-261.888 -187.475)" fill="#fff"/><path d="M271.495,208.988l.021-1.467,19.978.715-.02,1.467Z" transform="translate(-261.882 -187.905)" fill="#fff"/><path d="M271.4,215.288l.021-1.467,19.979.715L291.383,216Z" transform="translate(-261.876 -188.336)" fill="#fff"/><path d="M271.315,221.588l.021-1.467,19.979.715-.021,1.467Z" transform="translate(-261.87 -188.767)" fill="#fff"/></g><path d="M609.359,327.484,570.8,326.61c-3.857-14.942-2.121-29.17.957-42.28l38.563.873a84.435,84.435,0,0,0-.957,42.28Z" transform="translate(-224.634 -167.811)" fill="#f0f0f0"/><path d="M379.676,151.388l.02-1.467,19.979.714-.021,1.467Z" transform="translate(-25.949 -25.525)" fill="#090814"/><path d="M379.586,157.688l.021-1.467,19.978.715-.021,1.467Z" transform="translate(-25.943 -25.956)" fill="#090814"/><path d="M379.495,163.988l.021-1.467,19.978.715-.021,1.467Z" transform="translate(-25.937 -26.386)" fill="#090814"/><path d="M379.4,170.288l.02-1.467,19.979.715L399.383,171Z" transform="translate(-25.931 -26.817)" fill="#090814"/><path d="M379.315,176.588l.021-1.467,19.979.715-.021,1.467Z" transform="translate(-25.925 -27.248)" fill="#090814"/></g></g></svg>