<svg xmlns="http://www.w3.org/2000/svg" width="808.228" height="577.158" viewBox="0 0 808.228 577.158"><g transform="translate(-419.995 -88.805)"><path d="M15.179,488.385a1.1,1.1,0,0,0,.992,1.2H510.89a1.214,1.214,0,0,0,0-2.39H16.171a1.1,1.1,0,0,0-.992,1.2Z" transform="translate(569.37 176.383)" fill="#d6d6e3"/><path d="M323.2,370.945a20.85,20.85,0,0,1-41.268,0H229.146V487.67H376V370.945Z" transform="translate(527.176 175.902)" fill="#d6d6e3"/><path d="M598.848,375.374H8.187A8.2,8.2,0,0,1,0,367.188V30.1a8.2,8.2,0,0,1,8.187-8.187H598.848a8.2,8.2,0,0,1,8.184,8.187v337.09a8.2,8.2,0,0,1-8.187,8.187Z" transform="translate(526.229 174.461)" fill="#090814"/><rect width="578.006" height="326.142" transform="translate(541.405 210.359)" fill="#fff"/><g transform="translate(1081.26 140.384)" opacity="0.8"><path d="M844.232,82.684c-1.844-2.5-5.653.212-3.931,2.8.448.683.941,1.335,1.411,1.965,5.668,7.656,8.6,16.951,11.131,26.133.622,2.276,1.222,4.667.516,6.89a42.944,42.944,0,0,0-1.176-17.991,109.771,109.771,0,0,0-6.366-17.012,15.378,15.378,0,0,0-1.586-2.785Z" transform="translate(-788.806 -62.252)" fill="#6c63ff" opacity="0.5"/><path d="M796.15,104.189c-3.794-.121-4.31,5.683-.5,5.987,1,.076,2,.1,2.967.129,11.708.319,22.764,4.553,33.425,9.105,2.61,1.123,5.312,2.383,6.882,4.78-4.8-5.562-11.116-9.637-17.832-12.634s-13.878-4.962-21.034-6.829A17.87,17.87,0,0,0,796.15,104.189Z" transform="translate(-777.51 -67.678)" fill="#6c63ff"/><path d="M798.035,123c-2.413.083-1.867,3.521.562,3.536.637,0,1.275,0,1.882-.046,7.383-.3,14.948,1.738,22.286,3.976a11.437,11.437,0,0,1,5.016,2.527,40.148,40.148,0,0,0-13.028-6.685,100.013,100.013,0,0,0-14.174-3.119A12.4,12.4,0,0,0,798.035,123Z" transform="translate(-778.34 -72.214)" fill="#6c63ff" opacity="0.2"/><path d="M863.347,197.115c.683,2.322,3.87.941,3.286-1.419-.152-.615-.334-1.222-.508-1.806-2.125-7.079-2.026-14.918-1.677-22.582a11.478,11.478,0,0,1,1.2-5.478,40.169,40.169,0,0,0-3.24,14.273,99.476,99.476,0,0,0,.493,14.516,12.772,12.772,0,0,0,.448,2.5Z" transform="translate(-794.224 -82.547)" fill="#6c63ff" opacity="0.5"/><path d="M803.966,78.723c-1.449-.25-1.563,1.867-.114,2.185.379.083.759.152,1.131.212,4.447.759,8.7,2.937,12.8,5.205a7.041,7.041,0,0,1,2.679,2.147,24.6,24.6,0,0,0-6.935-5.653,62.081,62.081,0,0,0-8.066-3.665,8.438,8.438,0,0,0-1.495-.433Z" transform="translate(-779.87 -61.531)" fill="#6c63ff" opacity="0.2"/><path d="M774.225,150.389c-3.688,1.9-.569,7.11,3.217,5.38.994-.455,1.958-.964,2.883-1.442,11.276-5.85,24.365-8,37.249-9.659,3.157-.4,6.526-.759,9.455.493-7.975-2.276-16.458-2.436-24.661-1.518s-16.177,3.035-24.076,5.183a21.413,21.413,0,0,0-4.067,1.563Z" transform="translate(-772.575 -77.069)" fill="#6c63ff"/><path d="M788.37,173.319c-2.656,2.474,1.518,5.395,4.264,3.035.759-.622,1.419-1.282,2.087-1.9,8.073-7.588,18.75-12.975,29.38-17.953,2.61-1.222,13.347-2.466,16.215-2.4-7.489.668-22.764,3.035-29.593,6.07A163.044,163.044,0,0,0,791.435,171,20.442,20.442,0,0,0,788.37,173.319Z" transform="translate(-776.18 -79.717)" fill="#6c63ff" opacity="0.5"/><path d="M813.535,207.69c-.759,3.536,4.287,3.589,5.228.053.243-.926.44-1.859.63-2.747,2.337-10.828,8.051-21.345,13.969-31.475,1.457-2.489,9.583-9.621,11.981-11.192-5.782,4.811-17.035,15.426-20.874,21.838a164.072,164.072,0,0,0-9.72,19.873A20.19,20.19,0,0,0,813.535,207.69Z" transform="translate(-782.436 -81.703)" fill="#6c63ff"/><path d="M861.929,57.74c-1.806-3.68-6.966-.653-5.312,3.126.432.986.911,1.95,1.373,2.876,5.554,11.245,7.467,24.281,8.9,37.037.349,3.141.645,6.48-.63,9.363A64.132,64.132,0,0,0,868.1,85.724c-.8-8.142-2.724-16.048-4.727-23.932A21.13,21.13,0,0,0,861.929,57.74Z" transform="translate(-792.769 -56.072)" fill="#6c63ff"/><path d="M824.428,65.471a.668.668,0,0,0,.311.091c.2,0,.341-.2.425-.387.448-.979.19-2.276.888-3.035a10.547,10.547,0,0,1,1.684,2.823l2.648-.819a3.953,3.953,0,0,1-.5,3.035,4.165,4.165,0,0,1,1.244.85,1.374,1.374,0,0,1,.326,1.4,6.724,6.724,0,0,1-1.867.182,12.2,12.2,0,0,1-.2,3.483.63.63,0,0,1-.228.44c-.19.129-.448,0-.645-.106a6.17,6.17,0,0,1-2.178-2.276l-1.009,2.261a1.047,1.047,0,0,1-.44.584.706.706,0,0,1-.827-.281,2.148,2.148,0,0,1-.288-.9l-.372-2.276a.531.531,0,0,0-.121-.319.569.569,0,0,0-.387-.114H820.08c-.159-.5.334-.964.812-1.169s1.047-.372,1.29-.835c.486-.948-.759-2.276-.243-3.081C822.592,64.12,823.609,65.069,824.428,65.471Z" transform="translate(-784.026 -57.536)" fill="#6c63ff"/><path d="M890.153,82.684c1.844-2.5,5.645.212,3.931,2.8-.455.683-.941,1.335-1.411,1.965-5.668,7.656-8.6,16.951-11.139,26.133-.622,2.276-1.222,4.667-.508,6.89a42.943,42.943,0,0,1,1.176-17.991,112.566,112.566,0,0,1,6.359-16.989,15.875,15.875,0,0,1,1.593-2.808Z" transform="translate(-798.616 -62.252)" fill="#6c63ff" opacity="0.5"/><path d="M928.085,104.189c3.794-.121,4.31,5.683.5,5.987-.994.076-2,.1-2.959.129-11.716.319-22.764,4.553-33.425,9.105-2.61,1.123-5.357,2.383-6.882,4.78,4.8-5.562,11.109-9.637,17.832-12.634a134.814,134.814,0,0,1,21.034-6.829,17.872,17.872,0,0,1,3.9-.539Z" transform="translate(-799.77 -67.678)" fill="#6c63ff"/><path d="M930.837,123c2.421.083,1.874,3.521-.554,3.536-.637,0-1.275,0-1.882-.046-7.391-.3-14.948,1.738-22.286,3.976a11.4,11.4,0,0,0-5.016,2.527,40.147,40.147,0,0,1,13.028-6.685,100.005,100.005,0,0,1,14.212-3.134,12.359,12.359,0,0,1,2.5-.175Z" transform="translate(-803.576 -72.214)" fill="#6c63ff" opacity="0.5"/><path d="M929.256,78.723c1.449-.25,1.563,1.867.114,2.185-.379.083-.759.152-1.131.212-4.446.759-8.711,2.937-12.808,5.205a7.019,7.019,0,0,0-2.671,2.147,24.569,24.569,0,0,1,6.928-5.653,62.641,62.641,0,0,1,8.074-3.665,8.44,8.44,0,0,1,1.495-.433Z" transform="translate(-806.389 -61.531)" fill="#6c63ff" opacity="0.2"/><path d="M883.773,206.813c-.326,1.442-2.322.759-2.056-.759.068-.379.159-.759.243-1.123,1.009-4.393.645-9.166.129-13.818a6.98,6.98,0,0,0-.948-3.293,24.525,24.525,0,0,1,2.542,8.567,60.766,60.766,0,0,1,.266,8.863A7.585,7.585,0,0,1,883.773,206.813Z" transform="translate(-798.762 -87.851)" fill="#6c63ff" opacity="0.2"/><path d="M926.229,193.018c1.138,1.927-1.654,1.8-2.883-.129-.319-.5-.615-1.009-.9-1.518-3.46-5.881-8.719-11.7-14.022-17.323a19.454,19.454,0,0,0-4.348-3.748,69.049,69.049,0,0,1,11.382,9.735c3.4,3.559,6.4,7.269,9.348,10.972A17.881,17.881,0,0,1,926.229,193.018Z" transform="translate(-804.295 -83.625)" fill="#6c63ff" opacity="0.5"/><path d="M800.055,193.018c-1.138,1.927,1.654,1.8,2.876-.129.326-.5.622-1.009.9-1.518,3.46-5.881,8.719-11.7,14.022-17.323A19.289,19.289,0,0,1,822.2,170.3a68.731,68.731,0,0,0-11.382,9.735c-3.4,3.559-6.412,7.269-9.348,10.972a17.893,17.893,0,0,0-1.419,2.011Z" transform="translate(-779.139 -83.625)" fill="#6c63ff" opacity="0.2"/><path d="M848.769,206.813c.326,1.442,2.322.759,2.056-.759-.068-.379-.159-.759-.243-1.123-1.009-4.393-.645-9.166-.129-13.818a6.981,6.981,0,0,1,.949-3.293,24.523,24.523,0,0,0-2.5,8.589,60.766,60.766,0,0,0-.266,8.863,7.587,7.587,0,0,0,.137,1.54Z" transform="translate(-790.907 -87.851)" fill="#6c63ff" opacity="0.2"/><path d="M913.916,97.773c1.449-.258,1.563,1.859.114,2.185-.379.083-.759.144-1.131.2-4.446.759-8.7,2.944-12.808,5.213a6.981,6.981,0,0,0-2.671,2.14,24.441,24.441,0,0,1,6.935-5.645,60.11,60.11,0,0,1,8.066-3.665A7.327,7.327,0,0,1,913.916,97.773Z" transform="translate(-802.689 -66.126)" fill="#6c63ff" opacity="0.2"/><path d="M897.565,60.324c1.252-.759,2.147,1.146.918,1.988-.319.22-.652.417-.964.615-3.847,2.367-6.981,5.979-9.933,9.621a6.828,6.828,0,0,0-1.677,2.982,24.508,24.508,0,0,1,4.318-7.831,61.107,61.107,0,0,1,6.116-6.412,7.942,7.942,0,0,1,1.222-.964Z" transform="translate(-799.912 -57.056)" fill="#6c63ff" opacity="0.2"/><path d="M947.294,150.389c3.688,1.9.569,7.11-3.217,5.38-.994-.455-1.965-.964-2.883-1.442-11.276-5.85-24.372-8-37.249-9.659-3.157-.4-6.526-.759-9.455.493,7.967-2.276,16.458-2.436,24.661-1.518s16.177,3.035,24.076,5.183a21.609,21.609,0,0,1,4.067,1.563Z" transform="translate(-801.982 -77.069)" fill="#6c63ff"/><path d="M933.677,173.319c2.648,2.474-1.518,5.395-4.272,3.035-.721-.622-1.419-1.282-2.079-1.9-8.081-7.588-18.757-12.975-29.38-17.953-2.61-1.222-13.355-2.466-16.215-2.4,7.489.668,22.764,3.035,29.593,6.07A163.136,163.136,0,0,1,930.619,171a20.442,20.442,0,0,1,3.058,2.322Z" transform="translate(-798.904 -79.717)" fill="#6c63ff" opacity="0.5"/><path d="M900.772,211.86c.326,3.6-4.712,3.035-5.2-.6-.129-.948-.2-1.9-.281-2.808-.964-11.033-5.312-22.179-9.917-32.977-1.131-2.648-8.3-10.737-10.486-12.6,5.137,5.494,14.971,17.452,17.976,24.281a163.389,163.389,0,0,1,7.148,20.927,20.877,20.877,0,0,1,.759,3.771Z" transform="translate(-797.254 -81.835)" fill="#6c63ff"/><path d="M910.743,65.471a.667.667,0,0,1-.311.091c-.2,0-.341-.2-.425-.387-.455-.979-.19-2.276-.888-3.035a10.547,10.547,0,0,0-1.685,2.823l-2.648-.819a3.923,3.923,0,0,0,.5,3.035,4.2,4.2,0,0,0-1.252.85,1.381,1.381,0,0,0-.319,1.4,6.7,6.7,0,0,0,1.867.182,12.482,12.482,0,0,0,.2,3.483.66.66,0,0,0,.228.44c.2.129.455,0,.653-.106a6.169,6.169,0,0,0,2.178-2.276l.986,2.352a1.017,1.017,0,0,0,.44.584.69.69,0,0,0,.82-.281,2.057,2.057,0,0,0,.3-.9l.364-2.276a.591.591,0,0,1,.129-.319.569.569,0,0,1,.387-.114h2.807c.159-.5-.341-.964-.82-1.169s-1.04-.372-1.282-.835c-.486-.948.759-2.276.235-3.081C912.587,64.12,911.571,65.069,910.743,65.471Z" transform="translate(-804.19 -57.536)" fill="#6c63ff"/><path d="M921.284,209.239a.667.667,0,0,1-.311.091c-.2,0-.341-.2-.425-.379-.448-.986-.19-2.276-.888-3.081a10.668,10.668,0,0,0-1.685,2.823l-2.648-.819a3.953,3.953,0,0,0,.5,3.035,4.165,4.165,0,0,0-1.244.85,1.373,1.373,0,0,0-.326,1.4,6.731,6.731,0,0,0,1.867.19,12.14,12.14,0,0,0,.2,3.475.644.644,0,0,0,.228.448c.19.121.448,0,.645-.114a6.169,6.169,0,0,0,2.178-2.276l.986,2.352a1.093,1.093,0,0,0,.44.592.759.759,0,0,0,.827-.288,2.147,2.147,0,0,0,.288-.9l.372-2.238a.41.41,0,0,1,.508-.425c.933,0,1.874-.038,2.807,0,.159-.5-.334-.956-.812-1.169s-1.047-.364-1.29-.835c-.486-.941.759-2.276.243-3.073C923.15,207.888,922.1,208.837,921.284,209.239Z" transform="translate(-806.733 -92.205)" fill="#6c63ff" opacity="0.2"/><path d="M950.873,112.859a.6.6,0,0,1-.319.091c-.2,0-.334-.2-.417-.379-.455-.979-.2-2.276-.888-3.081a10.624,10.624,0,0,0-1.684,2.83l-2.648-.827a3.916,3.916,0,0,0,.5,3.035,4.1,4.1,0,0,0-1.252.85,1.411,1.411,0,0,0-.326,1.4,6.783,6.783,0,0,0,1.874.19,12.417,12.417,0,0,0,.2,3.475.676.676,0,0,0,.228.448c.2.121.448,0,.645-.106a6.207,6.207,0,0,0,2.185-2.276l.979,2.352a1.063,1.063,0,0,0,.44.592.713.713,0,0,0,.827-.288,2.019,2.019,0,0,0,.3-.9l.364-2.276a.6.6,0,0,1,.121-.311.554.554,0,0,1,.395-.114h2.8c.167-.493-.334-.956-.812-1.169s-1.047-.364-1.282-.827c-.486-.948.759-2.276.235-3.081C952.709,111.508,951.685,112.457,950.873,112.859Z" transform="translate(-813.869 -68.957)" fill="#6c63ff"/><path d="M831.7,223.239a.9.9,0,0,1-.432.129c-.281,0-.478-.281-.592-.539-.63-1.358-.266-3.134-1.237-4.28a14.752,14.752,0,0,0-2.345,3.931l-3.7-1.138a5.516,5.516,0,0,0,.7,4.226,5.607,5.607,0,0,0-1.738,1.184,1.935,1.935,0,0,0-.455,1.95,9.486,9.486,0,0,0,2.61.266,17.058,17.058,0,0,0,.281,4.849.91.91,0,0,0,.311.615.873.873,0,0,0,.9-.152,8.522,8.522,0,0,0,3.035-3.217l1.373,3.278a1.441,1.441,0,0,0,.615.819.986.986,0,0,0,1.153-.395,2.937,2.937,0,0,0,.4-1.244l.516-3.119a.759.759,0,0,1,.167-.448.8.8,0,0,1,.546-.152c1.305,0,2.61-.053,3.908,0,.228-.7-.47-1.335-1.131-1.631s-1.457-.508-1.791-1.153c-.683-1.32,1.078-3.157.326-4.295C834.253,221.358,832.834,222.685,831.7,223.239Z" transform="translate(-784.449 -95.264)" fill="#6c63ff"/><path d="M782.485,115.317a.926.926,0,0,1-.44.129c-.273,0-.47-.281-.592-.539-.622-1.366-.266-3.134-1.229-4.287a14.819,14.819,0,0,0-2.352,3.938l-3.688-1.146a5.471,5.471,0,0,0,.7,4.234,5.517,5.517,0,0,0-1.738,1.184,1.912,1.912,0,0,0-.455,1.95,9.424,9.424,0,0,0,2.61.258,17.3,17.3,0,0,0,.273,4.849.888.888,0,0,0,.319.622c.273.175.622,0,.9-.152a8.581,8.581,0,0,0,3.035-3.217l1.373,3.278a1.517,1.517,0,0,0,.607.82.986.986,0,0,0,1.153-.395,2.945,2.945,0,0,0,.41-1.244l.508-3.126a.812.812,0,0,1,.174-.44.759.759,0,0,1,.546-.152c1.3,0,2.6-.053,3.908-.046.22-.69-.47-1.335-1.138-1.624s-1.457-.516-1.791-1.161c-.675-1.32,1.078-3.149.334-4.287C785.042,113.435,783.623,114.748,782.485,115.317Z" transform="translate(-772.578 -69.23)" fill="#6c63ff"/><path d="M933.331,182.849a.418.418,0,0,1-.228.068c-.152,0-.25-.152-.319-.281-.334-.759-.136-1.669-.652-2.276a7.647,7.647,0,0,0-1.244,2.087l-1.965-.607a2.883,2.883,0,0,0,.372,2.276,3.128,3.128,0,0,0-.926.63,1.039,1.039,0,0,0-.235,1.04,5.312,5.312,0,0,0,1.381.137,8.867,8.867,0,0,0,.152,2.572.478.478,0,0,0,.167.334c.144.091.334,0,.478-.083a4.552,4.552,0,0,0,1.609-1.707l.759,1.738a.812.812,0,0,0,.326.44.531.531,0,0,0,.615-.212,1.517,1.517,0,0,0,.212-.66l.273-1.662a.3.3,0,0,1,.38-.311h2.079c.121-.372-.25-.713-.6-.865a1.827,1.827,0,0,1-.956-.615c-.357-.706.577-1.677.175-2.276S933.908,182.553,933.331,182.849Z" transform="translate(-810.085 -86.052)" fill="#6c63ff" opacity="0.2"/><path d="M866.439,221.446a.448.448,0,0,1-.235.068c-.144,0-.25-.152-.311-.288-.334-.721-.144-1.662-.653-2.276a7.831,7.831,0,0,0-1.252,2.094l-1.958-.607a2.891,2.891,0,0,0,.372,2.276,2.988,2.988,0,0,0-.926.63,1.024,1.024,0,0,0-.243,1.04,5.312,5.312,0,0,0,1.389.137,9.105,9.105,0,0,0,.144,2.572.47.47,0,0,0,.167.326c.144.1.334,0,.478-.076a4.552,4.552,0,0,0,1.616-1.707l.759,1.738a.812.812,0,0,0,.326.44.531.531,0,0,0,.615-.212,1.518,1.518,0,0,0,.212-.66l.273-1.662a.425.425,0,0,1,.091-.235.478.478,0,0,1,.288-.083h2.079c.114-.372-.25-.713-.607-.865a1.749,1.749,0,0,1-.948-.615c-.364-.706.569-1.677.175-2.276S867.046,221.143,866.439,221.446Z" transform="translate(-793.948 -95.36)" fill="#6c63ff" opacity="0.2"/><path d="M801.739,86.349a.44.44,0,0,1-.228.068.41.41,0,0,1-.319-.281c-.334-.759-.144-1.669-.652-2.276a7.785,7.785,0,0,0-1.252,2.087l-1.958-.607a2.914,2.914,0,0,0,.372,2.276,2.965,2.965,0,0,0-.926.622,1.032,1.032,0,0,0-.243,1.04,4.773,4.773,0,0,0,1.389.137,9.2,9.2,0,0,0,.144,2.58.478.478,0,0,0,.174.326c.144.091.326,0,.478-.076a4.551,4.551,0,0,0,1.609-1.715l.759,1.745a.759.759,0,0,0,.326.432.531.531,0,0,0,.615-.212,1.519,1.519,0,0,0,.213-.66l.273-1.654a.425.425,0,0,1,.091-.235.4.4,0,0,1,.288-.083h2.079c.114-.364-.25-.706-.607-.865s-.759-.273-.948-.615c-.364-.7.577-1.677.175-2.276S802.346,86.053,801.739,86.349Z" transform="translate(-778.342 -62.775)" fill="#6c63ff" opacity="0.5"/><path d="M836.171,162.479a.4.4,0,0,1-.228.068c-.152,0-.25-.144-.311-.281-.334-.759-.144-1.669-.66-2.276a7.959,7.959,0,0,0-1.244,2.087l-1.965-.607a2.952,2.952,0,0,0,.372,2.276,3.036,3.036,0,0,0-.918.63,1.025,1.025,0,0,0-.243,1.04,4.993,4.993,0,0,0,1.381.137,9.2,9.2,0,0,0,.152,2.58.47.47,0,0,0,.167.326c.144.091.334,0,.478-.083a4.551,4.551,0,0,0,1.616-1.707l.759,1.738a.759.759,0,0,0,.326.44.516.516,0,0,0,.607-.212,1.518,1.518,0,0,0,.22-.66l.273-1.654a.364.364,0,0,1,.1-.25.372.372,0,0,1,.288-.083h2.071c.121-.364-.243-.713-.6-.865a1.749,1.749,0,0,1-.948-.615c-.364-.7.569-1.677.174-2.276S836.778,162.183,836.171,162.479Z" transform="translate(-786.649 -81.138)" fill="#6c63ff" opacity="0.5"/><path d="M811.181,132.806a.568.568,0,0,1-.228.068.425.425,0,0,1-.311-.288c-.334-.721-.144-1.662-.66-2.276a7.8,7.8,0,0,0-1.244,2.094l-1.965-.607a2.967,2.967,0,0,0,.372,2.276,2.966,2.966,0,0,0-.926.622,1.04,1.04,0,0,0-.235,1.04,4.7,4.7,0,0,0,1.381.137,9.2,9.2,0,0,0,.152,2.58.471.471,0,0,0,.167.326c.144.091.334,0,.478-.076a4.614,4.614,0,0,0,1.616-1.715l.759,1.745a.759.759,0,0,0,.319.433.531.531,0,0,0,.615-.212,1.517,1.517,0,0,0,.22-.66l.266-1.654a.425.425,0,0,1,.091-.235.4.4,0,0,1,.3-.083h2.071c.121-.364-.25-.706-.6-.865s-.759-.273-.956-.615c-.357-.7.577-1.677.182-2.276S811.788,132.5,811.181,132.806Z" transform="translate(-780.621 -73.979)" fill="#6c63ff" opacity="0.5"/><path d="M918.521,139.789a.4.4,0,0,1-.228.068c-.152,0-.25-.144-.311-.281-.334-.759-.144-1.669-.66-2.276a7.761,7.761,0,0,0-1.245,2.087l-1.965-.607a2.952,2.952,0,0,0,.372,2.276,3.126,3.126,0,0,0-.926.63,1.039,1.039,0,0,0-.235,1.04,4.971,4.971,0,0,0,1.381.137,9.2,9.2,0,0,0,.152,2.58.471.471,0,0,0,.167.326c.144.091.334,0,.478-.083a4.552,4.552,0,0,0,1.616-1.707l.759,1.738a.759.759,0,0,0,.326.44.523.523,0,0,0,.607-.212,1.517,1.517,0,0,0,.22-.66l.273-1.654a.3.3,0,0,1,.379-.319h2.072c.121-.364-.25-.713-.6-.865a1.827,1.827,0,0,1-.956-.615c-.357-.7.577-1.677.182-2.276S919.136,139.493,918.521,139.789Z" transform="translate(-806.512 -75.665)" fill="#6c63ff" opacity="0.5"/><path d="M866.439,133.949a.448.448,0,0,1-.235.068c-.144,0-.25-.144-.311-.281-.334-.759-.144-1.669-.653-2.276a7.787,7.787,0,0,0-1.252,2.087l-1.958-.607a2.914,2.914,0,0,0,.372,2.276,2.967,2.967,0,0,0-.926.622,1.032,1.032,0,0,0-.243,1.04,4.749,4.749,0,0,0,1.389.137,9.2,9.2,0,0,0,.144,2.58.508.508,0,0,0,.167.326c.144.091.334,0,.478-.076a4.552,4.552,0,0,0,1.616-1.715l.759,1.745a.759.759,0,0,0,.326.433.531.531,0,0,0,.615-.212,1.518,1.518,0,0,0,.212-.66l.273-1.654a.425.425,0,0,1,.091-.235.4.4,0,0,1,.288-.083h2.079c.114-.364-.25-.706-.607-.865s-.759-.273-.948-.615c-.364-.7.569-1.677.175-2.276S867.046,133.653,866.439,133.949Z" transform="translate(-793.948 -74.257)" fill="#6c63ff" opacity="0.2"/><path d="M850.091,141.066a.569.569,0,0,1-.228.068.425.425,0,0,1-.311-.288c-.334-.759-.144-1.662-.66-2.276a7.688,7.688,0,0,0-1.244,2.094l-1.965-.615a2.975,2.975,0,0,0,.372,2.276,2.966,2.966,0,0,0-.926.622,1.04,1.04,0,0,0-.235,1.04,4.7,4.7,0,0,0,1.381.137,9.2,9.2,0,0,0,.152,2.58.47.47,0,0,0,.167.326c.144.091.334,0,.478-.076a4.613,4.613,0,0,0,1.616-1.715l.759,1.745a.759.759,0,0,0,.326.433.524.524,0,0,0,.607-.212,1.517,1.517,0,0,0,.22-.66l.273-1.654a.417.417,0,0,1,.083-.235.4.4,0,0,1,.3-.083h2.071c.121-.364-.25-.706-.6-.865s-.759-.273-.956-.615c-.357-.7.577-1.677.182-2.276S850.7,140.763,850.091,141.066Z" transform="translate(-790.006 -75.972)" fill="#6c63ff" opacity="0.3"/><path d="M834.859,98.029a.448.448,0,0,1-.235.068c-.144,0-.25-.144-.311-.281-.334-.759-.144-1.669-.653-2.276a7.785,7.785,0,0,0-1.252,2.087l-1.958-.607a2.884,2.884,0,0,0,.372,2.276,3.126,3.126,0,0,0-.926.63,1.024,1.024,0,0,0-.243,1.04,5.053,5.053,0,0,0,1.389.137,9.211,9.211,0,0,0,.144,2.58.508.508,0,0,0,.167.326c.144.091.334,0,.478-.083a4.476,4.476,0,0,0,1.616-1.707l.759,1.738a.812.812,0,0,0,.326.44.531.531,0,0,0,.615-.212,1.518,1.518,0,0,0,.212-.66l.273-1.654a.409.409,0,0,1,.091-.235.394.394,0,0,1,.288-.083h2.079c.114-.372-.25-.713-.607-.865a1.749,1.749,0,0,1-.948-.615c-.364-.706.569-1.677.174-2.276S835.466,97.733,834.859,98.029Z" transform="translate(-786.33 -65.592)" fill="#6c63ff" opacity="0.2"/><path d="M864.869,154.206a.646.646,0,0,1-.235.068c-.144,0-.25-.152-.311-.288-.334-.721-.144-1.662-.652-2.276a7.83,7.83,0,0,0-1.252,2.094l-1.958-.607a2.9,2.9,0,0,0,.372,2.276,2.968,2.968,0,0,0-.926.622,1.032,1.032,0,0,0-.243,1.04,4.772,4.772,0,0,0,1.389.137,9.2,9.2,0,0,0,.144,2.58.509.509,0,0,0,.167.326c.144.091.334,0,.486-.076a4.59,4.59,0,0,0,1.609-1.715l.759,1.745a.759.759,0,0,0,.326.432.531.531,0,0,0,.615-.212,1.517,1.517,0,0,0,.213-.66l.273-1.654a.425.425,0,0,1,.091-.235.4.4,0,0,1,.288-.083H868.1c.114-.364-.25-.706-.607-.865s-.759-.273-.948-.615c-.364-.7.569-1.677.175-2.276S865.476,153.888,864.869,154.206Z" transform="translate(-793.569 -79.141)" fill="#6c63ff" opacity="0.3"/></g><g transform="translate(786.737 88.805)" opacity="0.6"><path d="M579.6,184.08a1.518,1.518,0,0,0-2.466,1.76c.281.425.592.835.888,1.229,3.559,4.811,5.4,10.623,7,16.42a7.79,7.79,0,0,1,.319,4.333,27,27,0,0,0-.759-11.306,70.4,70.4,0,0,0-4-10.676,9.454,9.454,0,0,0-.979-1.76Z" transform="translate(-544.785 -171.255)" fill="#6c63ff" opacity="0.5"/><path d="M549.375,197.59c-2.405-.076-2.709,3.566-.319,3.756.63.053,1.26.068,1.867.083,7.36.2,14.311,2.868,21,5.736,1.647.706,3.369,1.518,4.325,3.035a31.528,31.528,0,0,0-11.2-7.937,82.91,82.91,0,0,0-13.218-4.272,11.305,11.305,0,0,0-2.451-.4Z" transform="translate(-537.671 -174.65)" fill="#6c63ff"/><path d="M550.568,209.39c-1.518.053-1.176,2.216.357,2.223H552.1c4.644-.19,9.394,1.093,14.007,2.5a7.125,7.125,0,0,1,3.149,1.586,25.267,25.267,0,0,0-8.187-4.2,62.462,62.462,0,0,0-8.893-1.988,8.575,8.575,0,0,0-1.609-.121Z" transform="translate(-538.196 -177.496)" fill="#6c63ff" opacity="0.2"/><path d="M591.592,255.97c.432,1.457,2.436.592,2.071-.9-.1-.387-.212-.759-.326-1.131-1.328-4.454-1.267-9.371-1.047-14.189a7.186,7.186,0,0,1,.759-3.445,25.368,25.368,0,0,0-2.064,8.969,62.99,62.99,0,0,0,.311,9.105,8.644,8.644,0,0,0,.3,1.586Z" transform="translate(-548.171 -183.99)" fill="#6c63ff" opacity="0.5"/><path d="M554.3,181.586c-.918-.159-.986,1.176-.076,1.373l.706.137a26.352,26.352,0,0,1,8.051,3.27,4.364,4.364,0,0,1,1.677,1.343,15.366,15.366,0,0,0-4.355-3.544,38.509,38.509,0,0,0-5.069-2.276,5.716,5.716,0,0,0-.933-.3Z" transform="translate(-539.158 -170.787)" fill="#6c63ff" opacity="0.2"/><path d="M535.611,226.606c-2.314,1.191-.357,4.469,2.026,3.384.622-.288,1.229-.607,1.806-.9,7.087-3.68,15.312-5.031,23.4-6.07,1.988-.258,4.105-.478,5.941.3a40.216,40.216,0,0,0-15.495-.926,101.221,101.221,0,0,0-15.123,3.255,13.484,13.484,0,0,0-2.557.956Z" transform="translate(-534.575 -180.546)" fill="#6c63ff"/><path d="M544.5,241.015c-1.669,1.518.933,3.384,2.679,1.9.455-.395.9-.8,1.305-1.191,5.076-4.765,11.784-8.157,18.461-11.283,1.639-.759,8.347-1.518,10.19-1.518-4.7.425-14.318,1.889-18.59,3.794a103.084,103.084,0,0,0-12.141,6.829,12.9,12.9,0,0,0-1.9,1.472Z" transform="translate(-536.84 -182.208)" fill="#6c63ff" opacity="0.5"/><path d="M560.3,262.6c-.486,2.223,2.694,2.276,3.286,0,.152-.577.281-1.161.4-1.722,1.464-6.829,5.053-13.408,8.772-19.774.911-1.563,6.017-6.07,7.527-7.026-3.635,3.035-10.706,9.69-13.112,13.711a103.18,103.18,0,0,0-6.07,12.49,13.542,13.542,0,0,0-.8,2.322Z" transform="translate(-540.769 -183.452)" fill="#6c63ff"/><path d="M590.713,168.407c-1.138-2.314-4.378-.41-3.346,1.965.266.615.569,1.222.857,1.806,3.49,7.064,4.7,15.236,5.592,23.272.22,1.965.41,4.067-.395,5.881a40.215,40.215,0,0,0,1.153-15.343,101.745,101.745,0,0,0-2.959-15.039,13.529,13.529,0,0,0-.9-2.542Z" transform="translate(-547.261 -167.358)" fill="#6c63ff"/><path d="M567.12,173.257a.342.342,0,0,0,.19.053.334.334,0,0,0,.266-.235c.288-.622.121-1.419.562-1.935a6.661,6.661,0,0,1,1.055,1.776l1.669-.516a2.473,2.473,0,0,1-.319,1.9,2.58,2.58,0,0,1,.759.531.873.873,0,0,1,.2.88,4.052,4.052,0,0,1-1.176.121,7.587,7.587,0,0,1-.121,2.185.424.424,0,0,1-.144.281.394.394,0,0,1-.4-.068,3.87,3.87,0,0,1-1.373-1.449l-.615,1.472a.668.668,0,0,1-.281.372.44.44,0,0,1-.516-.175,1.359,1.359,0,0,1-.182-.562l-.235-1.411a.318.318,0,0,0-.076-.2.341.341,0,0,0-.243-.068h-1.76c-.106-.311.2-.6.508-.759s.653-.235.8-.524c.311-.6-.486-1.427-.144-1.935S566.627,173,567.12,173.257Z" transform="translate(-541.758 -168.27)" fill="#6c63ff"/><path d="M608.447,184.057a1.518,1.518,0,0,1,2.474,1.76c-.288.425-.592.835-.888,1.229-3.559,4.811-5.41,10.623-7,16.42a7.793,7.793,0,0,0-.326,4.333,27,27,0,0,1,.759-11.306,69.6,69.6,0,0,1,4-10.676A9.421,9.421,0,0,1,608.447,184.057Z" transform="translate(-550.943 -171.232)" fill="#6c63ff" opacity="0.5"/><path d="M632.279,197.59c2.4-.076,2.709,3.566.311,3.756-.622.053-1.26.068-1.859.083-7.36.2-14.318,2.868-21,5.736-1.639.706-3.361,1.518-4.318,3.035a31.528,31.528,0,0,1,11.2-7.937,83.067,83.067,0,0,1,13.211-4.272,11.45,11.45,0,0,1,2.459-.4Z" transform="translate(-551.661 -174.65)" fill="#6c63ff"/><path d="M634.059,209.39c1.518.053,1.169,2.216-.357,2.223h-1.176c-4.644-.19-9.394,1.093-14.007,2.5a7.088,7.088,0,0,0-3.149,1.586,25.191,25.191,0,0,1,8.187-4.2,62.465,62.465,0,0,1,8.908-1.958,8.578,8.578,0,0,1,1.594-.152Z" transform="translate(-554.064 -177.497)" fill="#6c63ff" opacity="0.5"/><path d="M633.007,181.586c.918-.159.986,1.176.076,1.373l-.713.137a26.311,26.311,0,0,0-8.043,3.27,4.364,4.364,0,0,0-1.677,1.343A15.335,15.335,0,0,1,627,184.166a39.069,39.069,0,0,1,5.076-2.276A5.515,5.515,0,0,1,633.007,181.586Z" transform="translate(-555.82 -170.787)" fill="#6c63ff" opacity="0.2"/><path d="M604.474,262.071c-.2.9-1.457.455-1.29-.463a3.162,3.162,0,0,1,.152-.706,26.45,26.45,0,0,0,.083-8.688,4.385,4.385,0,0,0-.6-2.064,15.311,15.311,0,0,1,1.594,5.38,39.085,39.085,0,0,1,.174,5.57A4.711,4.711,0,0,1,604.474,262.071Z" transform="translate(-551.037 -187.328)" fill="#6c63ff" opacity="0.2"/><path d="M631.109,253.405c.713,1.206-1.04,1.123-1.806-.083-.2-.319-.387-.637-.569-.941-2.17-3.7-5.478-7.353-8.81-10.881a12.193,12.193,0,0,0-2.724-2.36,43.52,43.52,0,0,1,7.156,6.116c2.14,2.276,4.021,4.553,5.873,6.89a11.382,11.382,0,0,1,.88,1.26Z" transform="translate(-554.505 -184.673)" fill="#6c63ff" opacity="0.5"/><path d="M551.837,253.405c-.713,1.206,1.04,1.123,1.813-.083.2-.319.387-.637.562-.941,2.17-3.7,5.478-7.353,8.81-10.881a12.232,12.232,0,0,1,2.732-2.36,43.578,43.578,0,0,0-7.163,6.116c-2.132,2.276-4.022,4.553-5.873,6.89A11.389,11.389,0,0,0,551.837,253.405Z" transform="translate(-538.699 -184.673)" fill="#6c63ff" opacity="0.2"/><path d="M582.435,262.071c.2.9,1.457.455,1.3-.463-.046-.243-.1-.478-.152-.706a26.246,26.246,0,0,1-.083-8.688,4.294,4.294,0,0,1,.592-2.064,15.312,15.312,0,0,0-1.593,5.38,37.992,37.992,0,0,0-.167,5.569,5.316,5.316,0,0,0,.106.971Z" transform="translate(-546.085 -187.328)" fill="#6c63ff" opacity="0.2"/><path d="M623.375,193.556c.911-.159.979,1.169.068,1.373-.235.053-.478.091-.706.129a26.184,26.184,0,0,0-8.051,3.278,4.424,4.424,0,0,0-1.677,1.343,15.389,15.389,0,0,1,4.355-3.551,38.468,38.468,0,0,1,5.069-2.276A4.96,4.96,0,0,1,623.375,193.556Z" transform="translate(-553.495 -173.674)" fill="#6c63ff" opacity="0.2"/><path d="M613.095,170.033c.759-.493,1.351.713.584,1.244l-.607.387a26.58,26.58,0,0,0-6.245,6.07,4.294,4.294,0,0,0-1.047,1.882,15.411,15.411,0,0,1,2.709-4.925,38.591,38.591,0,0,1,3.839-4.029A4.849,4.849,0,0,1,613.095,170.033Z" transform="translate(-551.751 -167.975)" fill="#6c63ff" opacity="0.2"/><path d="M644.344,226.606c2.314,1.191.357,4.469-2.026,3.384-.622-.288-1.229-.607-1.814-.9-7.08-3.68-15.3-5.031-23.393-6.07-1.988-.258-4.105-.478-5.941.3a40.216,40.216,0,0,1,15.487-.926,101.115,101.115,0,0,1,15.13,3.255,13.876,13.876,0,0,1,2.557.956Z" transform="translate(-553.051 -180.546)" fill="#6c63ff"/><path d="M635.786,241.015c1.669,1.518-.933,3.384-2.679,1.9-.455-.395-.9-.8-1.313-1.191-5.076-4.765-11.776-8.157-18.461-11.283-1.631-.759-8.385-1.518-10.183-1.518,4.7.425,14.311,1.889,18.583,3.794a102.574,102.574,0,0,1,12.141,6.829,12.9,12.9,0,0,1,1.912,1.472Z" transform="translate(-551.116 -182.208)" fill="#6c63ff" opacity="0.5"/><path d="M615.133,265.219c.2,2.276-2.959,1.9-3.263-.372-.076-.6-.129-1.191-.182-1.76-.6-6.935-3.339-13.939-6.23-20.723-.706-1.662-5.213-6.746-6.579-7.914,3.225,3.452,9.4,10.957,11.291,15.252a103.381,103.381,0,0,1,4.492,13.15A12.829,12.829,0,0,1,615.133,265.219Z" transform="translate(-550.086 -183.541)" fill="#6c63ff"/><path d="M621.392,173.257a.364.364,0,0,1-.2.053.357.357,0,0,1-.266-.235c-.281-.622-.121-1.419-.554-1.935a6.686,6.686,0,0,0-1.062,1.776l-1.662-.516a2.436,2.436,0,0,0,.319,1.9,2.58,2.58,0,0,0-.759.531.872.872,0,0,0-.2.88,4.112,4.112,0,0,0,1.176.121,7.83,7.83,0,0,0,.129,2.185.425.425,0,0,0,.144.281.394.394,0,0,0,.4-.068,3.869,3.869,0,0,0,1.373-1.449l.615,1.472a.691.691,0,0,0,.273.372.448.448,0,0,0,.523-.175,1.358,1.358,0,0,0,.182-.562l.235-1.411a.318.318,0,0,1,.076-.2.342.342,0,0,1,.243-.068h1.76c.106-.311-.212-.6-.508-.759s-.66-.235-.812-.524c-.3-.6.493-1.427.152-1.935S621.908,173,621.392,173.257Z" transform="translate(-554.448 -168.27)" fill="#6c63ff"/><path d="M628.009,263.587a.463.463,0,0,1-.2.061c-.129,0-.213-.129-.266-.243-.281-.615-.121-1.419-.554-1.935a6.5,6.5,0,0,0-1.062,1.776l-1.662-.516a2.466,2.466,0,0,0,.311,1.9,2.528,2.528,0,0,0-.759.539.865.865,0,0,0-.2.88,4.4,4.4,0,0,0,1.176.114,7.815,7.815,0,0,0,.121,2.185.425.425,0,0,0,.144.281c.121.076.281,0,.41-.068a3.855,3.855,0,0,0,1.366-1.449l.622,1.472a.63.63,0,0,0,.273.372.44.44,0,0,0,.516-.175,1.337,1.337,0,0,0,.19-.562l.228-1.411a.448.448,0,0,1,.076-.2.349.349,0,0,1,.25-.068h1.76c.1-.311-.212-.6-.508-.759s-.66-.235-.812-.524c-.3-.6.486-1.419.152-1.935S628.525,263.329,628.009,263.587Z" transform="translate(-556.042 -190.059)" fill="#6c63ff" opacity="0.2"/><path d="M646.589,203.037a.493.493,0,0,1-.2.061c-.129,0-.213-.129-.266-.243-.288-.615-.121-1.419-.562-1.935a6.662,6.662,0,0,0-1.055,1.776l-1.669-.516a2.473,2.473,0,0,0,.319,1.9,2.443,2.443,0,0,0-.759.539.865.865,0,0,0-.205.88,4.364,4.364,0,0,0,1.176.114,7.815,7.815,0,0,0,.121,2.185.425.425,0,0,0,.144.281.394.394,0,0,0,.4-.068,3.87,3.87,0,0,0,1.373-1.449l.622,1.472a.63.63,0,0,0,.273.372.44.44,0,0,0,.516-.175,1.23,1.23,0,0,0,.182-.561l.235-1.411a.318.318,0,0,1,.076-.2.342.342,0,0,1,.243-.068h1.768c.1-.311-.213-.6-.516-.759s-.653-.235-.8-.524c-.311-.6.486-1.427.152-1.935S647.105,202.779,646.589,203.037Z" transform="translate(-560.524 -175.454)" fill="#6c63ff"/><path d="M571.72,272.382a.577.577,0,0,1-.273.083c-.174,0-.3-.182-.372-.341-.395-.857-.167-1.965-.759-2.694a9.287,9.287,0,0,0-1.472,2.474l-2.322-.713a3.445,3.445,0,0,0,.44,2.656,3.49,3.49,0,0,0-1.093.759,1.206,1.206,0,0,0-.288,1.222,5.705,5.705,0,0,0,1.639.167,11.046,11.046,0,0,0,.175,3.035.576.576,0,0,0,.2.395c.167.106.387,0,.562-.1a5.485,5.485,0,0,0,1.912-2.018l.857,2.056a.9.9,0,0,0,.387.516.615.615,0,0,0,.759-.25,1.737,1.737,0,0,0,.258-.759l.319-1.958a.379.379,0,0,1,.455-.379h2.451c.144-.433-.3-.842-.713-1.024s-.911-.319-1.123-.759c-.425-.827.675-1.98.2-2.694C573.328,271.2,572.441,272.025,571.72,272.382Z" transform="translate(-542.04 -191.979)" fill="#6c63ff"/><path d="M540.8,204.582a.569.569,0,0,1-.273.076c-.175,0-.3-.175-.372-.334-.395-.857-.167-1.973-.759-2.694a9.287,9.287,0,0,0-1.472,2.474l-2.322-.721a3.445,3.445,0,0,0,.44,2.656,3.794,3.794,0,0,0-1.093.759,1.206,1.206,0,0,0-.281,1.229,5.9,5.9,0,0,0,1.631.167,11.063,11.063,0,0,0,.175,3.035.561.561,0,0,0,.2.387c.167.114.387,0,.562-.091a5.448,5.448,0,0,0,1.912-2.026l.857,2.064a.987.987,0,0,0,.387.516.63.63,0,0,0,.721-.25,1.768,1.768,0,0,0,.258-.759l.319-1.965a.493.493,0,0,1,.114-.273.448.448,0,0,1,.341-.1H544.6c.144-.44-.288-.842-.713-1.024s-.911-.326-1.123-.759c-.425-.827.675-1.98.212-2.694C542.41,203.428,541.522,204.225,540.8,204.582Z" transform="translate(-534.583 -175.625)" fill="#6c63ff"/><path d="M635.549,247a.25.25,0,0,1-.144.046.266.266,0,0,1-.2-.175c-.2-.463-.083-1.047-.41-1.434a5.006,5.006,0,0,0-.759,1.313l-1.237-.379a1.844,1.844,0,0,0,.235,1.411,1.813,1.813,0,0,0-.577.395.637.637,0,0,0-.152.653,3.034,3.034,0,0,0,.865.083,5.579,5.579,0,0,0,.1,1.624.3.3,0,0,0,.106.2.288.288,0,0,0,.3-.053,2.83,2.83,0,0,0,1.017-1.078l.455,1.1a.5.5,0,0,0,.2.273.334.334,0,0,0,.387-.137,1.047,1.047,0,0,0,.121-.432l.167-1.047a.2.2,0,0,1,.243-.2h1.3c.076-.228-.152-.44-.372-.539s-.493-.175-.6-.387c-.228-.44.357-1.055.106-1.434S635.936,246.821,635.549,247Z" transform="translate(-558.142 -186.192)" fill="#6c63ff" opacity="0.2"/><path d="M593.549,271.253a.319.319,0,0,1-.144.046.266.266,0,0,1-.2-.182c-.2-.455-.083-1.04-.41-1.427a4.9,4.9,0,0,0-.759,1.313l-1.237-.379a1.851,1.851,0,0,0,.235,1.411,1.813,1.813,0,0,0-.577.395.637.637,0,0,0-.152.653,3.036,3.036,0,0,0,.865.083,5.51,5.51,0,0,0,.1,1.616.326.326,0,0,0,.1.212c.091.053.213,0,.3-.053a2.829,2.829,0,0,0,1.017-1.077l.455,1.1a.5.5,0,0,0,.2.273.341.341,0,0,0,.387-.137.933.933,0,0,0,.129-.41l.175-1.047a.2.2,0,0,1,.243-.2h1.3c.076-.228-.152-.448-.372-.539s-.493-.175-.6-.387c-.228-.44.357-1.055.106-1.434S593.929,271.071,593.549,271.253Z" transform="translate(-548.011 -192.042)" fill="#6c63ff" opacity="0.2"/><path d="M552.938,186.383a.357.357,0,0,1-.144.046c-.1,0-.159-.1-.2-.182-.212-.455-.091-1.047-.417-1.427a4.773,4.773,0,0,0-.759,1.313l-1.29-.417a1.806,1.806,0,0,0,.228,1.411,2.048,2.048,0,0,0-.577.395.645.645,0,0,0-.152.653,3.348,3.348,0,0,0,.873.091,5.771,5.771,0,0,0,.091,1.616.289.289,0,0,0,.106.2c.091.061.2,0,.3-.046a2.883,2.883,0,0,0,1.017-1.078l.455,1.093a.47.47,0,0,0,.2.273.319.319,0,0,0,.387-.129,1,1,0,0,0,.137-.417l.167-1.04a.272.272,0,0,1,.061-.152.243.243,0,0,1,.182-.046h1.305c.068-.235-.159-.448-.379-.546s-.486-.167-.6-.387c-.228-.44.357-1.047.114-1.427S553.28,186.193,552.938,186.383Z" transform="translate(-538.199 -171.57)" fill="#6c63ff" opacity="0.5"/><path d="M574.54,234.2a.243.243,0,0,1-.144,0c-.091,0-.159-.091-.2-.174-.213-.455-.091-1.047-.41-1.434a4.764,4.764,0,0,0-.759,1.32l-1.229-.387a1.813,1.813,0,0,0,.235,1.411,1.934,1.934,0,0,0-.584.395.652.652,0,0,0-.152.653,3.375,3.375,0,0,0,.873.091,5.772,5.772,0,0,0,.091,1.616.3.3,0,0,0,.106.2c.091.061.212,0,.3-.046a2.869,2.869,0,0,0,1.009-1.077l.463,1.093a.471.471,0,0,0,.2.273.334.334,0,0,0,.379-.129.9.9,0,0,0,.137-.417l.174-1.04a.266.266,0,0,1,.053-.152.3.3,0,0,1,.182-.053h1.3c.076-.235-.159-.448-.379-.546s-.486-.167-.6-.387c-.22-.44.364-1.055.114-1.434S574.919,234.009,574.54,234.2Z" transform="translate(-543.426 -183.093)" fill="#6c63ff" opacity="0.5"/><path d="M558.84,215.563a.319.319,0,0,1-.144.046.266.266,0,0,1-.2-.182c-.212-.455-.091-1.047-.41-1.427a4.727,4.727,0,0,0-.759,1.313l-1.229-.379a1.821,1.821,0,0,0,.235,1.411,1.935,1.935,0,0,0-.584.395.653.653,0,0,0-.152.653,3.035,3.035,0,0,0,.873.083,5.772,5.772,0,0,0,.091,1.616.3.3,0,0,0,.106.212c.091.053.212,0,.3-.053a2.815,2.815,0,0,0,1.009-1.077l.463,1.1a.5.5,0,0,0,.2.273.326.326,0,0,0,.379-.137.971.971,0,0,0,.137-.417l.174-1.04a.243.243,0,0,1,.053-.144.258.258,0,0,1,.182-.053h1.305c.076-.228-.159-.448-.379-.539s-.486-.175-.6-.387c-.228-.44.364-1.055.114-1.434S559.22,215.373,558.84,215.563Z" transform="translate(-539.639 -178.609)" fill="#6c63ff" opacity="0.5"/><path d="M626.277,219.953a.356.356,0,0,1-.144.046.25.25,0,0,1-.2-.182c-.212-.455-.091-1.04-.417-1.427a4.892,4.892,0,0,0-.759,1.313l-1.229-.379a1.821,1.821,0,0,0,.228,1.411,1.9,1.9,0,0,0-.577.395.638.638,0,0,0-.152.653,3.036,3.036,0,0,0,.873.083,5.776,5.776,0,0,0,.091,1.616.3.3,0,0,0,.106.212c.091.053.2,0,.3-.053a2.83,2.83,0,0,0,1.017-1.077l.455,1.1a.5.5,0,0,0,.2.273.334.334,0,0,0,.387-.137.971.971,0,0,0,.137-.417l.167-1.04a.2.2,0,0,1,.243-.2h1.305c.068-.228-.159-.448-.379-.539s-.486-.175-.6-.387c-.228-.44.357-1.055.114-1.434S626.656,219.763,626.277,219.953Z" transform="translate(-555.903 -179.668)" fill="#6c63ff" opacity="0.5"/><path d="M593.549,216.283a.25.25,0,0,1-.144.046.266.266,0,0,1-.2-.175c-.2-.455-.083-1.047-.41-1.434a5.01,5.01,0,0,0-.759,1.313l-1.237-.379a1.844,1.844,0,0,0,.235,1.411,1.814,1.814,0,0,0-.577.395.637.637,0,0,0-.152.653,3.036,3.036,0,0,0,.865.083,5.564,5.564,0,0,0,.1,1.624.326.326,0,0,0,.1.2.3.3,0,0,0,.3-.053,2.829,2.829,0,0,0,1.017-1.077l.455,1.1a.5.5,0,0,0,.2.273.341.341,0,0,0,.387-.137.933.933,0,0,0,.129-.41l.175-1.047a.2.2,0,0,1,.243-.2h1.3c.076-.228-.152-.44-.372-.539s-.493-.175-.6-.387c-.228-.44.357-1.055.106-1.434S593.929,216.1,593.549,216.283Z" transform="translate(-548.011 -178.782)" fill="#6c63ff" opacity="0.2"/><path d="M583.287,220.753a.387.387,0,0,1-.152.046c-.091,0-.152-.1-.2-.182-.2-.455-.083-1.047-.41-1.427a4.895,4.895,0,0,0-.759,1.313l-1.237-.379a1.852,1.852,0,0,0,.235,1.411,1.776,1.776,0,0,0-.577.395.637.637,0,0,0-.152.653,3.035,3.035,0,0,0,.865.083,5.782,5.782,0,0,0,.1,1.616.273.273,0,0,0,.106.2c.091.061.2,0,.3-.046a2.883,2.883,0,0,0,1.017-1.077l.455,1.093a.493.493,0,0,0,.2.281.334.334,0,0,0,.387-.137,1.132,1.132,0,0,0,.137-.417l.167-1.04a.2.2,0,0,1,.243-.2h1.305c.068-.228-.159-.448-.379-.546s-.486-.167-.6-.379c-.228-.448.357-1.055.106-1.434S583.666,220.563,583.287,220.753Z" transform="translate(-545.534 -179.861)" fill="#6c63ff" opacity="0.3"/><path d="M573.709,193.721a.243.243,0,0,1-.144.038c-.091,0-.159-.091-.2-.175-.2-.455-.083-1.047-.41-1.434a5.006,5.006,0,0,0-.759,1.313l-1.237-.379a1.844,1.844,0,0,0,.235,1.411,1.814,1.814,0,0,0-.577.395.637.637,0,0,0-.152.653,3.324,3.324,0,0,0,.865.091,5.506,5.506,0,0,0,.1,1.616.326.326,0,0,0,.1.2c.091.061.212,0,.3-.053a2.808,2.808,0,0,0,1.017-1.07l.455,1.093a.5.5,0,0,0,.2.273.349.349,0,0,0,.387-.129.994.994,0,0,0,.129-.417l.174-1.04a.274.274,0,0,1,.061-.152.289.289,0,0,1,.182-.053h1.3c.076-.235-.152-.448-.372-.546s-.493-.175-.6-.387c-.228-.44.357-1.055.106-1.434S574.089,193.554,573.709,193.721Z" transform="translate(-543.225 -173.338)" fill="#6c63ff" opacity="0.2"/><path d="M592.567,229a.22.22,0,0,1-.341-.137c-.213-.455-.091-1.047-.417-1.434a5.008,5.008,0,0,0-.759,1.313l-1.229-.379a1.837,1.837,0,0,0,.228,1.411,2,2,0,0,0-.577.395.637.637,0,0,0-.152.653,3.036,3.036,0,0,0,.873.083,5.809,5.809,0,0,0,.091,1.624.3.3,0,0,0,.106.2.288.288,0,0,0,.3-.053,2.868,2.868,0,0,0,1.017-1.07l.455,1.093a.5.5,0,0,0,.2.273.334.334,0,0,0,.387-.137.939.939,0,0,0,.114-.425l.167-1.047a.311.311,0,0,1,.061-.144.251.251,0,0,1,.182-.053h1.305c.076-.228-.159-.44-.379-.539s-.486-.174-.6-.387c-.228-.44.364-1.055.114-1.434S592.946,228.811,592.567,229Z" transform="translate(-547.772 -181.848)" fill="#6c63ff" opacity="0.3"/></g><g transform="translate(419.995 233.152)" opacity="0.8"><path d="M844.232,82.684c-1.844-2.5-5.653.212-3.931,2.8.448.683.941,1.335,1.411,1.965,5.668,7.656,8.6,16.951,11.131,26.133.622,2.276,1.222,4.667.516,6.89a42.944,42.944,0,0,0-1.176-17.991,109.771,109.771,0,0,0-6.366-17.012,15.378,15.378,0,0,0-1.586-2.785Z" transform="translate(-788.806 -62.252)" fill="#6c63ff" opacity="0.5"/><path d="M796.15,104.189c-3.794-.121-4.31,5.683-.5,5.987,1,.076,2,.1,2.967.129,11.708.319,22.764,4.553,33.425,9.105,2.61,1.123,5.312,2.383,6.882,4.78-4.8-5.562-11.116-9.637-17.832-12.634s-13.878-4.962-21.034-6.829A17.87,17.87,0,0,0,796.15,104.189Z" transform="translate(-777.51 -67.678)" fill="#6c63ff"/><path d="M798.035,123c-2.413.083-1.867,3.521.562,3.536.637,0,1.275,0,1.882-.046,7.383-.3,14.948,1.738,22.286,3.976a11.437,11.437,0,0,1,5.016,2.527,40.148,40.148,0,0,0-13.028-6.685,100.013,100.013,0,0,0-14.174-3.119A12.4,12.4,0,0,0,798.035,123Z" transform="translate(-778.34 -72.214)" fill="#6c63ff" opacity="0.2"/><path d="M863.347,197.115c.683,2.322,3.87.941,3.286-1.419-.152-.615-.334-1.222-.508-1.806-2.125-7.079-2.026-14.918-1.677-22.582a11.478,11.478,0,0,1,1.2-5.478,40.169,40.169,0,0,0-3.24,14.273,99.476,99.476,0,0,0,.493,14.516,12.772,12.772,0,0,0,.448,2.5Z" transform="translate(-794.224 -82.547)" fill="#6c63ff" opacity="0.5"/><path d="M803.966,78.723c-1.449-.25-1.563,1.867-.114,2.185.379.083.759.152,1.131.212,4.447.759,8.7,2.937,12.8,5.205a7.041,7.041,0,0,1,2.679,2.147,24.6,24.6,0,0,0-6.935-5.653,62.081,62.081,0,0,0-8.066-3.665,8.438,8.438,0,0,0-1.495-.433Z" transform="translate(-779.87 -61.531)" fill="#6c63ff" opacity="0.2"/><path d="M774.225,150.389c-3.688,1.9-.569,7.11,3.217,5.38.994-.455,1.958-.964,2.883-1.442,11.276-5.85,24.365-8,37.249-9.659,3.157-.4,6.526-.759,9.455.493-7.975-2.276-16.458-2.436-24.661-1.518s-16.177,3.035-24.076,5.183a21.413,21.413,0,0,0-4.067,1.563Z" transform="translate(-772.575 -77.069)" fill="#6c63ff"/><path d="M788.37,173.319c-2.656,2.474,1.518,5.395,4.264,3.035.759-.622,1.419-1.282,2.087-1.9,8.073-7.588,18.75-12.975,29.38-17.953,2.61-1.222,13.347-2.466,16.215-2.4-7.489.668-22.764,3.035-29.593,6.07A163.044,163.044,0,0,0,791.435,171,20.442,20.442,0,0,0,788.37,173.319Z" transform="translate(-776.18 -79.717)" fill="#6c63ff" opacity="0.5"/><path d="M813.535,207.69c-.759,3.536,4.287,3.589,5.228.053.243-.926.44-1.859.63-2.747,2.337-10.828,8.051-21.345,13.969-31.475,1.457-2.489,9.583-9.621,11.981-11.192-5.782,4.811-17.035,15.426-20.874,21.838a164.072,164.072,0,0,0-9.72,19.873A20.19,20.19,0,0,0,813.535,207.69Z" transform="translate(-782.436 -81.703)" fill="#6c63ff"/><path d="M861.929,57.74c-1.806-3.68-6.966-.653-5.312,3.126.432.986.911,1.95,1.373,2.876,5.554,11.245,7.467,24.281,8.9,37.037.349,3.141.645,6.48-.63,9.363A64.132,64.132,0,0,0,868.1,85.724c-.8-8.142-2.724-16.048-4.727-23.932A21.13,21.13,0,0,0,861.929,57.74Z" transform="translate(-792.769 -56.072)" fill="#6c63ff"/><path d="M824.428,65.471a.668.668,0,0,0,.311.091c.2,0,.341-.2.425-.387.448-.979.19-2.276.888-3.035a10.547,10.547,0,0,1,1.684,2.823l2.648-.819a3.953,3.953,0,0,1-.5,3.035,4.165,4.165,0,0,1,1.244.85,1.374,1.374,0,0,1,.326,1.4,6.724,6.724,0,0,1-1.867.182,12.2,12.2,0,0,1-.2,3.483.63.63,0,0,1-.228.44c-.19.129-.448,0-.645-.106a6.17,6.17,0,0,1-2.178-2.276l-1.009,2.261a1.047,1.047,0,0,1-.44.584.706.706,0,0,1-.827-.281,2.148,2.148,0,0,1-.288-.9l-.372-2.276a.531.531,0,0,0-.121-.319.569.569,0,0,0-.387-.114H820.08c-.159-.5.334-.964.812-1.169s1.047-.372,1.29-.835c.486-.948-.759-2.276-.243-3.081C822.592,64.12,823.609,65.069,824.428,65.471Z" transform="translate(-784.026 -57.536)" fill="#6c63ff"/><path d="M890.153,82.684c1.844-2.5,5.645.212,3.931,2.8-.455.683-.941,1.335-1.411,1.965-5.668,7.656-8.6,16.951-11.139,26.133-.622,2.276-1.222,4.667-.508,6.89a42.943,42.943,0,0,1,1.176-17.991,112.566,112.566,0,0,1,6.359-16.989,15.875,15.875,0,0,1,1.593-2.808Z" transform="translate(-798.616 -62.252)" fill="#6c63ff" opacity="0.5"/><path d="M928.085,104.189c3.794-.121,4.31,5.683.5,5.987-.994.076-2,.1-2.959.129-11.716.319-22.764,4.553-33.425,9.105-2.61,1.123-5.357,2.383-6.882,4.78,4.8-5.562,11.109-9.637,17.832-12.634a134.814,134.814,0,0,1,21.034-6.829,17.872,17.872,0,0,1,3.9-.539Z" transform="translate(-799.77 -67.678)" fill="#6c63ff"/><path d="M930.837,123c2.421.083,1.874,3.521-.554,3.536-.637,0-1.275,0-1.882-.046-7.391-.3-14.948,1.738-22.286,3.976a11.4,11.4,0,0,0-5.016,2.527,40.147,40.147,0,0,1,13.028-6.685,100.005,100.005,0,0,1,14.212-3.134,12.359,12.359,0,0,1,2.5-.175Z" transform="translate(-803.576 -72.214)" fill="#6c63ff" opacity="0.5"/><path d="M929.256,78.723c1.449-.25,1.563,1.867.114,2.185-.379.083-.759.152-1.131.212-4.446.759-8.711,2.937-12.808,5.205a7.019,7.019,0,0,0-2.671,2.147,24.569,24.569,0,0,1,6.928-5.653,62.641,62.641,0,0,1,8.074-3.665,8.44,8.44,0,0,1,1.495-.433Z" transform="translate(-806.389 -61.531)" fill="#6c63ff" opacity="0.2"/><path d="M883.773,206.813c-.326,1.442-2.322.759-2.056-.759.068-.379.159-.759.243-1.123,1.009-4.393.645-9.166.129-13.818a6.98,6.98,0,0,0-.948-3.293,24.525,24.525,0,0,1,2.542,8.567,60.766,60.766,0,0,1,.266,8.863A7.585,7.585,0,0,1,883.773,206.813Z" transform="translate(-798.762 -87.851)" fill="#6c63ff" opacity="0.2"/><path d="M926.229,193.018c1.138,1.927-1.654,1.8-2.883-.129-.319-.5-.615-1.009-.9-1.518-3.46-5.881-8.719-11.7-14.022-17.323a19.454,19.454,0,0,0-4.348-3.748,69.049,69.049,0,0,1,11.382,9.735c3.4,3.559,6.4,7.269,9.348,10.972A17.881,17.881,0,0,1,926.229,193.018Z" transform="translate(-804.295 -83.625)" fill="#6c63ff" opacity="0.5"/><path d="M800.055,193.018c-1.138,1.927,1.654,1.8,2.876-.129.326-.5.622-1.009.9-1.518,3.46-5.881,8.719-11.7,14.022-17.323A19.289,19.289,0,0,1,822.2,170.3a68.731,68.731,0,0,0-11.382,9.735c-3.4,3.559-6.412,7.269-9.348,10.972a17.893,17.893,0,0,0-1.419,2.011Z" transform="translate(-779.139 -83.625)" fill="#6c63ff" opacity="0.2"/><path d="M848.769,206.813c.326,1.442,2.322.759,2.056-.759-.068-.379-.159-.759-.243-1.123-1.009-4.393-.645-9.166-.129-13.818a6.981,6.981,0,0,1,.949-3.293,24.523,24.523,0,0,0-2.5,8.589,60.766,60.766,0,0,0-.266,8.863,7.587,7.587,0,0,0,.137,1.54Z" transform="translate(-790.907 -87.851)" fill="#6c63ff" opacity="0.2"/><path d="M913.916,97.773c1.449-.258,1.563,1.859.114,2.185-.379.083-.759.144-1.131.2-4.446.759-8.7,2.944-12.808,5.213a6.981,6.981,0,0,0-2.671,2.14,24.441,24.441,0,0,1,6.935-5.645,60.11,60.11,0,0,1,8.066-3.665A7.327,7.327,0,0,1,913.916,97.773Z" transform="translate(-802.689 -66.126)" fill="#6c63ff" opacity="0.2"/><path d="M897.565,60.324c1.252-.759,2.147,1.146.918,1.988-.319.22-.652.417-.964.615-3.847,2.367-6.981,5.979-9.933,9.621a6.828,6.828,0,0,0-1.677,2.982,24.508,24.508,0,0,1,4.318-7.831,61.107,61.107,0,0,1,6.116-6.412,7.942,7.942,0,0,1,1.222-.964Z" transform="translate(-799.912 -57.056)" fill="#6c63ff" opacity="0.2"/><path d="M947.294,150.389c3.688,1.9.569,7.11-3.217,5.38-.994-.455-1.965-.964-2.883-1.442-11.276-5.85-24.372-8-37.249-9.659-3.157-.4-6.526-.759-9.455.493,7.967-2.276,16.458-2.436,24.661-1.518s16.177,3.035,24.076,5.183a21.609,21.609,0,0,1,4.067,1.563Z" transform="translate(-801.982 -77.069)" fill="#6c63ff"/><path d="M933.677,173.319c2.648,2.474-1.518,5.395-4.272,3.035-.721-.622-1.419-1.282-2.079-1.9-8.081-7.588-18.757-12.975-29.38-17.953-2.61-1.222-13.355-2.466-16.215-2.4,7.489.668,22.764,3.035,29.593,6.07A163.136,163.136,0,0,1,930.619,171a20.442,20.442,0,0,1,3.058,2.322Z" transform="translate(-798.904 -79.717)" fill="#6c63ff" opacity="0.5"/><path d="M900.772,211.86c.326,3.6-4.712,3.035-5.2-.6-.129-.948-.2-1.9-.281-2.808-.964-11.033-5.312-22.179-9.917-32.977-1.131-2.648-8.3-10.737-10.486-12.6,5.137,5.494,14.971,17.452,17.976,24.281a163.389,163.389,0,0,1,7.148,20.927,20.877,20.877,0,0,1,.759,3.771Z" transform="translate(-797.254 -81.835)" fill="#6c63ff"/><path d="M910.743,65.471a.667.667,0,0,1-.311.091c-.2,0-.341-.2-.425-.387-.455-.979-.19-2.276-.888-3.035a10.547,10.547,0,0,0-1.685,2.823l-2.648-.819a3.923,3.923,0,0,0,.5,3.035,4.2,4.2,0,0,0-1.252.85,1.381,1.381,0,0,0-.319,1.4,6.7,6.7,0,0,0,1.867.182,12.482,12.482,0,0,0,.2,3.483.66.66,0,0,0,.228.44c.2.129.455,0,.653-.106a6.169,6.169,0,0,0,2.178-2.276l.986,2.352a1.017,1.017,0,0,0,.44.584.69.69,0,0,0,.82-.281,2.057,2.057,0,0,0,.3-.9l.364-2.276a.591.591,0,0,1,.129-.319.569.569,0,0,1,.387-.114h2.807c.159-.5-.341-.964-.82-1.169s-1.04-.372-1.282-.835c-.486-.948.759-2.276.235-3.081C912.587,64.12,911.571,65.069,910.743,65.471Z" transform="translate(-804.19 -57.536)" fill="#6c63ff"/><path d="M921.284,209.239a.667.667,0,0,1-.311.091c-.2,0-.341-.2-.425-.379-.448-.986-.19-2.276-.888-3.081a10.668,10.668,0,0,0-1.685,2.823l-2.648-.819a3.953,3.953,0,0,0,.5,3.035,4.165,4.165,0,0,0-1.244.85,1.373,1.373,0,0,0-.326,1.4,6.731,6.731,0,0,0,1.867.19,12.14,12.14,0,0,0,.2,3.475.644.644,0,0,0,.228.448c.19.121.448,0,.645-.114a6.169,6.169,0,0,0,2.178-2.276l.986,2.352a1.093,1.093,0,0,0,.44.592.759.759,0,0,0,.827-.288,2.147,2.147,0,0,0,.288-.9l.372-2.238a.41.41,0,0,1,.508-.425c.933,0,1.874-.038,2.807,0,.159-.5-.334-.956-.812-1.169s-1.047-.364-1.29-.835c-.486-.941.759-2.276.243-3.073C923.15,207.888,922.1,208.837,921.284,209.239Z" transform="translate(-806.733 -92.205)" fill="#6c63ff" opacity="0.2"/><path d="M950.873,112.859a.6.6,0,0,1-.319.091c-.2,0-.334-.2-.417-.379-.455-.979-.2-2.276-.888-3.081a10.624,10.624,0,0,0-1.684,2.83l-2.648-.827a3.916,3.916,0,0,0,.5,3.035,4.1,4.1,0,0,0-1.252.85,1.411,1.411,0,0,0-.326,1.4,6.783,6.783,0,0,0,1.874.19,12.417,12.417,0,0,0,.2,3.475.676.676,0,0,0,.228.448c.2.121.448,0,.645-.106a6.207,6.207,0,0,0,2.185-2.276l.979,2.352a1.063,1.063,0,0,0,.44.592.713.713,0,0,0,.827-.288,2.019,2.019,0,0,0,.3-.9l.364-2.276a.6.6,0,0,1,.121-.311.554.554,0,0,1,.395-.114h2.8c.167-.493-.334-.956-.812-1.169s-1.047-.364-1.282-.827c-.486-.948.759-2.276.235-3.081C952.709,111.508,951.685,112.457,950.873,112.859Z" transform="translate(-813.869 -68.957)" fill="#6c63ff"/><path d="M831.7,223.239a.9.9,0,0,1-.432.129c-.281,0-.478-.281-.592-.539-.63-1.358-.266-3.134-1.237-4.28a14.752,14.752,0,0,0-2.345,3.931l-3.7-1.138a5.516,5.516,0,0,0,.7,4.226,5.607,5.607,0,0,0-1.738,1.184,1.935,1.935,0,0,0-.455,1.95,9.486,9.486,0,0,0,2.61.266,17.058,17.058,0,0,0,.281,4.849.91.91,0,0,0,.311.615.873.873,0,0,0,.9-.152,8.522,8.522,0,0,0,3.035-3.217l1.373,3.278a1.441,1.441,0,0,0,.615.819.986.986,0,0,0,1.153-.395,2.937,2.937,0,0,0,.4-1.244l.516-3.119a.759.759,0,0,1,.167-.448.8.8,0,0,1,.546-.152c1.305,0,2.61-.053,3.908,0,.228-.7-.47-1.335-1.131-1.631s-1.457-.508-1.791-1.153c-.683-1.32,1.078-3.157.326-4.295C834.253,221.358,832.834,222.685,831.7,223.239Z" transform="translate(-784.449 -95.264)" fill="#6c63ff"/><path d="M782.485,115.317a.926.926,0,0,1-.44.129c-.273,0-.47-.281-.592-.539-.622-1.366-.266-3.134-1.229-4.287a14.819,14.819,0,0,0-2.352,3.938l-3.688-1.146a5.471,5.471,0,0,0,.7,4.234,5.517,5.517,0,0,0-1.738,1.184,1.912,1.912,0,0,0-.455,1.95,9.424,9.424,0,0,0,2.61.258,17.3,17.3,0,0,0,.273,4.849.888.888,0,0,0,.319.622c.273.175.622,0,.9-.152a8.581,8.581,0,0,0,3.035-3.217l1.373,3.278a1.517,1.517,0,0,0,.607.82.986.986,0,0,0,1.153-.395,2.945,2.945,0,0,0,.41-1.244l.508-3.126a.812.812,0,0,1,.174-.44.759.759,0,0,1,.546-.152c1.3,0,2.6-.053,3.908-.046.22-.69-.47-1.335-1.138-1.624s-1.457-.516-1.791-1.161c-.675-1.32,1.078-3.149.334-4.287C785.042,113.435,783.623,114.748,782.485,115.317Z" transform="translate(-772.578 -69.23)" fill="#6c63ff"/><path d="M933.331,182.849a.418.418,0,0,1-.228.068c-.152,0-.25-.152-.319-.281-.334-.759-.136-1.669-.652-2.276a7.647,7.647,0,0,0-1.244,2.087l-1.965-.607a2.883,2.883,0,0,0,.372,2.276,3.128,3.128,0,0,0-.926.63,1.039,1.039,0,0,0-.235,1.04,5.312,5.312,0,0,0,1.381.137,8.867,8.867,0,0,0,.152,2.572.478.478,0,0,0,.167.334c.144.091.334,0,.478-.083a4.552,4.552,0,0,0,1.609-1.707l.759,1.738a.812.812,0,0,0,.326.44.531.531,0,0,0,.615-.212,1.517,1.517,0,0,0,.212-.66l.273-1.662a.3.3,0,0,1,.38-.311h2.079c.121-.372-.25-.713-.6-.865a1.827,1.827,0,0,1-.956-.615c-.357-.706.577-1.677.175-2.276S933.908,182.553,933.331,182.849Z" transform="translate(-810.085 -86.052)" fill="#6c63ff" opacity="0.2"/><path d="M866.439,221.446a.448.448,0,0,1-.235.068c-.144,0-.25-.152-.311-.288-.334-.721-.144-1.662-.653-2.276a7.831,7.831,0,0,0-1.252,2.094l-1.958-.607a2.891,2.891,0,0,0,.372,2.276,2.988,2.988,0,0,0-.926.63,1.024,1.024,0,0,0-.243,1.04,5.312,5.312,0,0,0,1.389.137,9.105,9.105,0,0,0,.144,2.572.47.47,0,0,0,.167.326c.144.1.334,0,.478-.076a4.552,4.552,0,0,0,1.616-1.707l.759,1.738a.812.812,0,0,0,.326.44.531.531,0,0,0,.615-.212,1.518,1.518,0,0,0,.212-.66l.273-1.662a.425.425,0,0,1,.091-.235.478.478,0,0,1,.288-.083h2.079c.114-.372-.25-.713-.607-.865a1.749,1.749,0,0,1-.948-.615c-.364-.706.569-1.677.175-2.276S867.046,221.143,866.439,221.446Z" transform="translate(-793.948 -95.36)" fill="#6c63ff" opacity="0.2"/><path d="M801.739,86.349a.44.44,0,0,1-.228.068.41.41,0,0,1-.319-.281c-.334-.759-.144-1.669-.652-2.276a7.785,7.785,0,0,0-1.252,2.087l-1.958-.607a2.914,2.914,0,0,0,.372,2.276,2.965,2.965,0,0,0-.926.622,1.032,1.032,0,0,0-.243,1.04,4.773,4.773,0,0,0,1.389.137,9.2,9.2,0,0,0,.144,2.58.478.478,0,0,0,.174.326c.144.091.326,0,.478-.076a4.551,4.551,0,0,0,1.609-1.715l.759,1.745a.759.759,0,0,0,.326.432.531.531,0,0,0,.615-.212,1.519,1.519,0,0,0,.213-.66l.273-1.654a.425.425,0,0,1,.091-.235.4.4,0,0,1,.288-.083h2.079c.114-.364-.25-.706-.607-.865s-.759-.273-.948-.615c-.364-.7.577-1.677.175-2.276S802.346,86.053,801.739,86.349Z" transform="translate(-778.342 -62.775)" fill="#6c63ff" opacity="0.5"/><path d="M836.171,162.479a.4.4,0,0,1-.228.068c-.152,0-.25-.144-.311-.281-.334-.759-.144-1.669-.66-2.276a7.959,7.959,0,0,0-1.244,2.087l-1.965-.607a2.952,2.952,0,0,0,.372,2.276,3.036,3.036,0,0,0-.918.63,1.025,1.025,0,0,0-.243,1.04,4.993,4.993,0,0,0,1.381.137,9.2,9.2,0,0,0,.152,2.58.47.47,0,0,0,.167.326c.144.091.334,0,.478-.083a4.551,4.551,0,0,0,1.616-1.707l.759,1.738a.759.759,0,0,0,.326.44.516.516,0,0,0,.607-.212,1.518,1.518,0,0,0,.22-.66l.273-1.654a.364.364,0,0,1,.1-.25.372.372,0,0,1,.288-.083h2.071c.121-.364-.243-.713-.6-.865a1.749,1.749,0,0,1-.948-.615c-.364-.7.569-1.677.174-2.276S836.778,162.183,836.171,162.479Z" transform="translate(-786.649 -81.138)" fill="#6c63ff" opacity="0.5"/><path d="M811.181,132.806a.568.568,0,0,1-.228.068.425.425,0,0,1-.311-.288c-.334-.721-.144-1.662-.66-2.276a7.8,7.8,0,0,0-1.244,2.094l-1.965-.607a2.967,2.967,0,0,0,.372,2.276,2.966,2.966,0,0,0-.926.622,1.04,1.04,0,0,0-.235,1.04,4.7,4.7,0,0,0,1.381.137,9.2,9.2,0,0,0,.152,2.58.471.471,0,0,0,.167.326c.144.091.334,0,.478-.076a4.614,4.614,0,0,0,1.616-1.715l.759,1.745a.759.759,0,0,0,.319.433.531.531,0,0,0,.615-.212,1.517,1.517,0,0,0,.22-.66l.266-1.654a.425.425,0,0,1,.091-.235.4.4,0,0,1,.3-.083h2.071c.121-.364-.25-.706-.6-.865s-.759-.273-.956-.615c-.357-.7.577-1.677.182-2.276S811.788,132.5,811.181,132.806Z" transform="translate(-780.621 -73.979)" fill="#6c63ff" opacity="0.5"/><path d="M918.521,139.789a.4.4,0,0,1-.228.068c-.152,0-.25-.144-.311-.281-.334-.759-.144-1.669-.66-2.276a7.761,7.761,0,0,0-1.245,2.087l-1.965-.607a2.952,2.952,0,0,0,.372,2.276,3.126,3.126,0,0,0-.926.63,1.039,1.039,0,0,0-.235,1.04,4.971,4.971,0,0,0,1.381.137,9.2,9.2,0,0,0,.152,2.58.471.471,0,0,0,.167.326c.144.091.334,0,.478-.083a4.552,4.552,0,0,0,1.616-1.707l.759,1.738a.759.759,0,0,0,.326.44.523.523,0,0,0,.607-.212,1.517,1.517,0,0,0,.22-.66l.273-1.654a.3.3,0,0,1,.379-.319h2.072c.121-.364-.25-.713-.6-.865a1.827,1.827,0,0,1-.956-.615c-.357-.7.577-1.677.182-2.276S919.136,139.493,918.521,139.789Z" transform="translate(-806.512 -75.665)" fill="#6c63ff" opacity="0.5"/><path d="M866.439,133.949a.448.448,0,0,1-.235.068c-.144,0-.25-.144-.311-.281-.334-.759-.144-1.669-.653-2.276a7.787,7.787,0,0,0-1.252,2.087l-1.958-.607a2.914,2.914,0,0,0,.372,2.276,2.967,2.967,0,0,0-.926.622,1.032,1.032,0,0,0-.243,1.04,4.749,4.749,0,0,0,1.389.137,9.2,9.2,0,0,0,.144,2.58.508.508,0,0,0,.167.326c.144.091.334,0,.478-.076a4.552,4.552,0,0,0,1.616-1.715l.759,1.745a.759.759,0,0,0,.326.433.531.531,0,0,0,.615-.212,1.518,1.518,0,0,0,.212-.66l.273-1.654a.425.425,0,0,1,.091-.235.4.4,0,0,1,.288-.083h2.079c.114-.364-.25-.706-.607-.865s-.759-.273-.948-.615c-.364-.7.569-1.677.175-2.276S867.046,133.653,866.439,133.949Z" transform="translate(-793.948 -74.257)" fill="#6c63ff" opacity="0.2"/><path d="M850.091,141.066a.569.569,0,0,1-.228.068.425.425,0,0,1-.311-.288c-.334-.759-.144-1.662-.66-2.276a7.688,7.688,0,0,0-1.244,2.094l-1.965-.615a2.975,2.975,0,0,0,.372,2.276,2.966,2.966,0,0,0-.926.622,1.04,1.04,0,0,0-.235,1.04,4.7,4.7,0,0,0,1.381.137,9.2,9.2,0,0,0,.152,2.58.47.47,0,0,0,.167.326c.144.091.334,0,.478-.076a4.613,4.613,0,0,0,1.616-1.715l.759,1.745a.759.759,0,0,0,.326.433.524.524,0,0,0,.607-.212,1.517,1.517,0,0,0,.22-.66l.273-1.654a.417.417,0,0,1,.083-.235.4.4,0,0,1,.3-.083h2.071c.121-.364-.25-.706-.6-.865s-.759-.273-.956-.615c-.357-.7.577-1.677.182-2.276S850.7,140.763,850.091,141.066Z" transform="translate(-790.006 -75.972)" fill="#6c63ff" opacity="0.3"/><path d="M834.859,98.029a.448.448,0,0,1-.235.068c-.144,0-.25-.144-.311-.281-.334-.759-.144-1.669-.653-2.276a7.785,7.785,0,0,0-1.252,2.087l-1.958-.607a2.884,2.884,0,0,0,.372,2.276,3.126,3.126,0,0,0-.926.63,1.024,1.024,0,0,0-.243,1.04,5.053,5.053,0,0,0,1.389.137,9.211,9.211,0,0,0,.144,2.58.508.508,0,0,0,.167.326c.144.091.334,0,.478-.083a4.476,4.476,0,0,0,1.616-1.707l.759,1.738a.812.812,0,0,0,.326.44.531.531,0,0,0,.615-.212,1.518,1.518,0,0,0,.212-.66l.273-1.654a.409.409,0,0,1,.091-.235.394.394,0,0,1,.288-.083h2.079c.114-.372-.25-.713-.607-.865a1.749,1.749,0,0,1-.948-.615c-.364-.706.569-1.677.174-2.276S835.466,97.733,834.859,98.029Z" transform="translate(-786.33 -65.592)" fill="#6c63ff" opacity="0.2"/><path d="M864.869,154.206a.646.646,0,0,1-.235.068c-.144,0-.25-.152-.311-.288-.334-.721-.144-1.662-.652-2.276a7.83,7.83,0,0,0-1.252,2.094l-1.958-.607a2.9,2.9,0,0,0,.372,2.276,2.968,2.968,0,0,0-.926.622,1.032,1.032,0,0,0-.243,1.04,4.772,4.772,0,0,0,1.389.137,9.2,9.2,0,0,0,.144,2.58.509.509,0,0,0,.167.326c.144.091.334,0,.486-.076a4.59,4.59,0,0,0,1.609-1.715l.759,1.745a.759.759,0,0,0,.326.432.531.531,0,0,0,.615-.212,1.517,1.517,0,0,0,.213-.66l.273-1.654a.425.425,0,0,1,.091-.235.4.4,0,0,1,.288-.083H868.1c.114-.364-.25-.706-.607-.865s-.759-.273-.948-.615c-.364-.7.569-1.677.175-2.276S865.476,153.888,864.869,154.206Z" transform="translate(-793.569 -79.141)" fill="#6c63ff" opacity="0.3"/></g><rect width="48.563" height="18.211" rx="6" transform="translate(615.766 224.018)" fill="#6c63ff"/><g transform="translate(972.398 224.018)"><rect width="18.211" height="18.211" rx="6" transform="translate(54.633)" fill="#e6e6e6"/><rect width="18.211" height="18.211" rx="6" transform="translate(27.316)" fill="#e6e6e6"/><rect width="18.211" height="18.211" rx="6" fill="#e6e6e6"/></g><g transform="translate(766.766 412.197)"><rect width="125.959" height="18.97" rx="6" fill="#e6e6e6"/><rect width="125.959" height="18.97" rx="6" transform="translate(0 31.11)" fill="#e6e6e6"/><rect width="48.563" height="18.211" rx="6" transform="translate(38.698 62.221)" fill="#6c63ff"/></g><g transform="translate(770.56 272.58)"><rect width="119.889" height="114.577" rx="8" fill="#6c63ff"/><g transform="translate(26.497 24.922)"><path d="M31.005,66.012a3.5,3.5,0,0,1-3.477-3.087A24.607,24.607,0,0,0,20.522,48.49a24.607,24.607,0,0,0-14.363-7,3.5,3.5,0,0,1-2.651-5.3A24.5,24.5,0,0,1,21.536,24.2,35.007,35.007,0,0,1,51.819,3h.19a14.017,14.017,0,0,1,14,14q0,.1,0,.19a35.007,35.007,0,0,1-21.2,30.281,24.5,24.5,0,0,1-12.06,18.071A3.5,3.5,0,0,1,31.005,66.012ZM12.671,35.769a31.638,31.638,0,0,1,12.808,7.766,31.638,31.638,0,0,1,7.759,12.807,17.4,17.4,0,0,0,4.768-11.454,3.5,3.5,0,0,1,2.34-3.186A27.919,27.919,0,0,0,59.008,16.912,7.009,7.009,0,0,0,52.1,10,27.919,27.919,0,0,0,27.305,28.665,3.5,3.5,0,0,1,24.119,31a17.4,17.4,0,0,0-11.448,4.765Z" transform="translate(0.883 -3)" fill="#f2f2f2"/><path d="M10.2,42.731A29.9,29.9,0,0,1,6.6,42.513a3.835,3.835,0,0,1-3.414-3.185,24.236,24.236,0,0,1,2.7-14.9A26.632,26.632,0,0,1,17.048,13.48a4.119,4.119,0,0,1,5.4,1.4,3.562,3.562,0,0,1-1.5,5.032,18.248,18.248,0,0,0-10.06,15.425,19.942,19.942,0,0,0,16.547-9.378,4.119,4.119,0,0,1,5.4-1.4,3.562,3.562,0,0,1,1.5,5.032A26.906,26.906,0,0,1,22.583,40,29.271,29.271,0,0,1,10.2,42.731Z" transform="translate(-2.951 22.002)" fill="#f2f2f2"/><path d="M18.5,17.993a5.5,5.5,0,1,1,5.5-5.5,5.5,5.5,0,0,1-5.5,5.5Z" transform="translate(27.448 8.45)" fill="#f2f2f2"/></g></g></g></svg>