<svg xmlns="http://www.w3.org/2000/svg" width="622.103" height="800.256" viewBox="0 0 622.103 800.256"><g transform="translate(-650 -142.345)"><path d="M31.11,19.675s-3.66,15.553,0,26.532L14.638,48.495,0,41.175V31.564S6.862,16.926,5.032,0Z" transform="translate(781.838 408.671) rotate(9)" fill="#ed9da0"/><path d="M255.5,549.833l20.038,9.966,23.8-44.035-20.622-11.3Z" transform="translate(406.096 350.273)" fill="#ed9da0"/><path d="M394.316,566.537h19.262l4.512-50.962H394.311Z" transform="translate(405.083 350.517)" fill="#ed9da0"/><path d="M458.445,301.23s-8.848-6.779-8.848,9.779l-1.4,54.717,15.6,51.687,9.078-16.765-3.72-36.319Z" transform="translate(279.152 200.136)" fill="#6c63ff"/><path d="M551.839,453.777s10.262,49.966-2.74,90.972l-7.182,157.659-26.333-2.055-9.228-116.959-8.892-58.138-18.47,53.008L418.116,690.438l-28.041-21.893s31.081-84.795,54.035-102.6l11.516-131.139Z" transform="translate(280.402 197.248)" fill="#090814"/><ellipse cx="30.02" cy="30.02" rx="30.02" ry="30.02" transform="translate(760.305 416.463) rotate(-61.307)" fill="#ed9da0"/><path d="M520.654,207.743c3.6.469,6.315-3.215,7.574-6.619s2.218-7.368,5.348-9.207c4.275-2.512,9.745.509,14.634-.32,5.525-.936,9.112-6.787,9.394-12.38s-1.945-10.972-4.128-16.129l-.763,6.413a12.709,12.709,0,0,0-5.553-11.109l.979,9.4a9.981,9.981,0,0,0-11.481-8.263l.155,5.6c-6.378-.759-12.81-1.518-19.206-.94s-12.837,2.6-17.684,6.814c-7.251,6.3-9.9,16.675-9.011,26.246s4.835,18.55,8.953,27.232c1.035,2.185,2.467,4.648,4.868,4.926,2.153.25,4.131-1.553,4.8-3.621a13.115,13.115,0,0,0-.058-6.444c-.607-3.224-1.37-6.519-.8-9.749s2.895-6.423,6.151-6.819,6.589,3.327,5.023,6.209Z" transform="translate(278.248 203.164)" fill="#090814"/><path d="M427.585,308.633l-100.228-6.467,7.544-31.253,91.6,20.478Z" transform="translate(406.515 355.754)" fill="#d6d6e3"/><path d="M492.952,243.967l6.286-8.728s7.026,2.388,25.845,11.755l1.33,8.178,32.664,200.9L499.7,453.511l-16.169-.344-5.292-11.861-6.524,11.609-15.787-.335-16.065-9.313L455.7,394.846l5.122-44.243L452.9,308.926s-9.966-38.271,28.406-58.912Z" transform="translate(279.338 201.518)" fill="#6c63ff"/><path d="M629.809,398.89a10.262,10.262,0,0,1-12.762-9.2l-35.225-9.435,14.17-12.582,31.278,10.893a10.318,10.318,0,0,1,2.54,20.333Z" transform="translate(276.303 198.685)" fill="#ed9da0"/><path d="M612,391.4a6.011,6.011,0,0,1-4.88.395L549.174,369.8a61.874,61.874,0,0,1-33.3-28.07l-24.165-43.106a19.342,19.342,0,0,1,28.86-25.759l41.826,66.289,52.636,30.86a6.019,6.019,0,0,1,2.565,6.406l-2.618,11.091a6.012,6.012,0,0,1-1.826,3.082,5.948,5.948,0,0,1-1.144.81Z" transform="translate(278.334 200.852)" fill="#6c63ff"/><path d="M308.111,792.282l22.1,11.306s34.584,8.245,12.067,15.1-32.654,1.981-32.654,1.981-29.456,1.531-28.981-6.687,6.142-19.774,6.142-19.774S306.5,799.357,308.111,792.282Z" transform="translate(510.848 120.256)" fill="#090814"/><path d="M29.175,0l20.4,10.3s34.584,8.245,12.067,15.1-32.654,1.982-32.654,1.982S-.469,28.91.006,20.692,6.147.918,6.147.918,27.561,7.074,29.175,0Z" transform="translate(658.009 894.066) rotate(16)" fill="#090814"/><rect width="14.765" height="602.949" transform="matrix(-0.99, -0.141, 0.141, -0.99, 1124.826, 802.965)" fill="#090814"/><rect width="239.934" height="8.613" transform="translate(1032.169 933.988)" fill="#d6d6e3"/><path d="M127.7,367.87l71.218,286.1,8.318-2.215L136.018,365.67Z" transform="translate(1027.733 288.209)" fill="#d6d6e3"/><ellipse cx="12.304" cy="12.304" rx="12.304" ry="12.304" transform="translate(1142.908 643.605)" fill="#090814"/><g transform="translate(844.471 142.345)"><path d="M204.012,134.075a4.247,4.247,0,0,0-4.269,4.215V316.545a4.247,4.247,0,0,0,4.269,4.215H468.664a4.247,4.247,0,0,0,4.269-4.215V138.29a4.247,4.247,0,0,0-4.269-4.215Z" transform="translate(-199.743 -134.075)" fill="#090814"/><path d="M214.157,144.075a4.418,4.418,0,0,0-4.413,4.413V322.5a4.418,4.418,0,0,0,4.413,4.413H475.175a4.419,4.419,0,0,0,4.413-4.413V148.488a4.418,4.418,0,0,0-4.413-4.413Z" transform="translate(-208.405 -142.096)" fill="#f2f2f2"/><path d="M261.119,302.891c-3.034-9.093,2.662-18.476,10.276-23.283,9.69-6.117,22-4.3,32.188-.5,20.069,7.467,38.047,24.922,60.972,20.807a29.115,29.115,0,0,0,12.56-5.332,26.293,26.293,0,0,0,8.453-11.628c3.64-9.485,2.772-19.832,3.338-29.77.524-9.208,2.354-19.679,9.919-25.845,8.288-6.756,20.033-5.445,30-6.1a55.538,55.538,0,0,0,26.919-8.9,56.353,56.353,0,0,0,19.074-20.832,53.67,53.67,0,0,0,2.774-6.277c.423-1.143-1.4-1.637-1.824-.5-6.693,18.112-24,31.932-43.2,34.279-10.126,1.238-21.087-.478-30.563,4.1-8.922,4.309-12.882,13.646-14.273,22.958-1.494,10-.252,20.227-2.229,30.171a29.29,29.29,0,0,1-6.169,13.691,24.8,24.8,0,0,1-11.944,7.386c-22.483,6.5-41.683-11.274-61.116-19.179-10.114-4.114-22.219-6.544-32.592-1.9-8.079,3.619-14.946,11.741-15.3,20.843a17.8,17.8,0,0,0,.916,6.317c.383,1.149,2.211.656,1.824-.5Z" transform="translate(-226.373 -156.88)" fill="#6c63ff"/><path d="M281.843,170.125H41V51.136h1.261V168.864H281.843Z" transform="translate(-20.117 -23.222)" fill="#d6d6e3"/></g></g></svg>