<svg xmlns="http://www.w3.org/2000/svg" width="618.021" height="799.908" viewBox="0 0 618.021 799.908"><g transform="translate(-655.922 -146.43)"><path d="M911.195,572.708,800.536,492.131s-63.387-107.436-74.131-176.195S667.316,124.7,667.316,124.7V60.239s-55.867-21.487-60.164,37.6S618.97,233.211,618.97,233.211s16.115,96.692-20.413,121.4L465.337,572.708S593.185,689.812,693.1,704.854L911.195,856.338Z" transform="translate(362.748 90)" fill="#ed9da0"/><path d="M338.625,260.519h-3.648c-32.866,0-51.34,38.8-29.744,63.576,6.951,7.974,17.515,13.494,33.392,13.778Z" transform="translate(360 93.31)" fill="#ed9da0"/><path d="M338.625,336.638h-3.648c-32.866,0-51.34,38.8-29.744,63.576,6.951,7.974,17.515,13.495,33.392,13.778Z" transform="translate(360 94.545)" fill="#ed9da0"/><path d="M338.625,412.758h-3.648c-32.866,0-51.34,38.8-29.744,63.576,6.951,7.974,17.515,13.495,33.392,13.778Z" transform="translate(360 95.78)" fill="#ed9da0"/><path d="M338.625,488.877h-3.648c-32.866,0-51.34,38.8-29.744,63.576,6.951,7.974,17.515,13.495,33.392,13.778Z" transform="translate(360 97.014)" fill="#ed9da0"/><path d="M623.263,244.552h-3.2V156.961a50.7,50.7,0,0,0-50.7-50.7H383.8a50.7,50.7,0,0,0-50.7,50.7V637.491a50.7,50.7,0,0,0,50.7,50.7H569.371a50.7,50.7,0,0,0,50.7-50.7V306.9h3.2Z" transform="translate(360.603 90.808)" fill="#090814"/><path d="M609.052,157.1V636.924a38.01,38.01,0,0,1-13.9,29.33,35.152,35.152,0,0,1-3,2.2,37.687,37.687,0,0,1-20.961,6.328H384.726a37.425,37.425,0,0,1-8.971-1.074,37.859,37.859,0,0,1-28.89-36.786V157.1a37.863,37.863,0,0,1,37.857-37.86h22.629A17.982,17.982,0,0,0,424,144.019H530.312a18,18,0,0,0,16.663-24.775h24.216a37.863,37.863,0,0,1,37.86,37.857Z" transform="translate(360.826 91.019)" fill="#f2f2f2"/><circle cx="44" cy="44" r="44" transform="translate(796 280.768)" fill="#6c63ff"/><path d="M437.36,475.215s18.3,50.844,4.068,79.316S463.8,615.544,463.8,615.544s95.586-48.81,83.384-73.215-32.54-56.945-28.473-77.283Z" transform="translate(362.294 96.628)" fill="#ed9da0"/><circle cx="65.08" cy="65.08" r="65.08" transform="translate(770.164 461.003)" fill="#ed9da0"/><path d="M600,656.8a37.858,37.858,0,0,1-5.8,5.93,35.165,35.165,0,0,1-3,2.2c-6.006,4-13.2,5.253-20.961,5.253h-164.7l2.847-79.051L426.7,550.463a84.947,84.947,0,0,0,13.139,8.477c1.1.591,2.256,1.182,3.47,1.762,17.147,8.283,45.177,15.567,72.347-4.716,8.552-6.382,17.018-15.5,25.043-28.18l50.731,28.761,2.664,31.156Z" transform="translate(361.778 97.646)" fill="#6c63ff"/><path d="M449.957,521.855l-2.611,25.838L444.1,560.8l-2.009,20.939L433.51,671.36H384.573a37.422,37.422,0,0,1-8.971-1.074l-19.3-89.225.559-.365Z" transform="translate(360.979 97.549)" fill="#090814"/><path d="M606.517,538.707V633.8a38.01,38.01,0,0,1-13.9,29.33,35.173,35.173,0,0,1-3,2.2,37.687,37.687,0,0,1-20.961,6.328H503.174c1.429-30.05,3.954-59.38,6.908-84.928,1.268-10.883,2.611-21.079,3.986-30.351,4.426-29.889,9.175-50.183,12.581-52.923l22.518,14.858Z" transform="translate(363.362 97.251)" fill="#090814"/><path d="M403.237,653.365,400.9,670.448H384.726a37.422,37.422,0,0,1-8.971-1.074,37.859,37.859,0,0,1-28.89-36.786v-3.438l7.563-49,2.589-.365,11.646-1.665Z" transform="translate(360.826 98.462)" fill="#090814"/><path d="M605.3,550.345v82.693a38.01,38.01,0,0,1-13.9,29.33,35.173,35.173,0,0,1-3,2.2l-9.949-43.3,12.839-33.917Z" transform="translate(364.583 98.011)" fill="#090814"/><path d="M535.625,372.67a76.029,76.029,0,0,0-43.248-33.062l-13.223,10.578,5.141-12.338a69.989,69.989,0,0,0-13.069-.755l-11.9,15.3,4.924-14.772c-20.557,2.621-40.1,13.818-51.947,30.9-15.142,21.833-17.7,52.2-2.8,74.2,4.088-12.564,9.05-24.353,13.139-36.917.943.4,4.518.378,9.687.047l4.974-11.606,1.389,11.115c15.417-1.343,38.283-4.292,52.9-6.994l-1.421-8.527,8.5,7.086c4.478-1.031,7.137-1.966,6.917-2.68,10.87,17.524,21.64,28.716,32.51,46.24C542.224,415.764,549.508,395.218,535.625,372.67Z" transform="translate(361.681 94.552)" fill="#090814"/><ellipse cx="81.114" cy="181.566" rx="81.114" ry="181.566" transform="translate(955.933 390.894)" fill="#ed9da0"/><g transform="translate(723.83 302.798)"><path d="M384.233,253.276a21.487,21.487,0,1,1,21.487-21.487A21.487,21.487,0,0,1,384.233,253.276Zm0-40.826a19.338,19.338,0,1,0,19.339,19.338,19.338,19.338,0,0,0-19.339-19.338Z" transform="translate(-362.746 -210.302)" fill="#6c63ff"/><circle cx="3.223" cy="3.223" r="3.223" transform="translate(9.669 12.892)" fill="#6c63ff"/><circle cx="3.223" cy="3.223" r="3.223" transform="translate(25.785 12.892)" fill="#6c63ff"/><path d="M391.565,238.881H375.45a1.074,1.074,0,1,1,0-2.149h16.115a1.074,1.074,0,0,1,0,2.149Z" transform="translate(-362.557 -209.873)" fill="#6c63ff"/></g><g transform="translate(910.768 302.798)"><path d="M568.188,253.276a21.487,21.487,0,1,1,21.487-21.487A21.487,21.487,0,0,1,568.188,253.276Zm0-40.826a19.338,19.338,0,1,0,19.338,19.338,19.338,19.338,0,0,0-19.338-19.338Z" transform="translate(-546.7 -210.302)" fill="#6c63ff"/><circle cx="3.223" cy="3.223" r="3.223" transform="translate(9.669 12.892)" fill="#6c63ff"/><circle cx="3.223" cy="3.223" r="3.223" transform="translate(25.784 12.892)" fill="#6c63ff"/><path d="M575.518,241.032a1.072,1.072,0,0,1-.535-.143,14.046,14.046,0,0,0-15.043,0,1.074,1.074,0,0,1-1.072-1.862,16.238,16.238,0,0,1,17.188,0,1.074,1.074,0,0,1-.537,2.005Z" transform="translate(-546.512 -209.876)" fill="#6c63ff"/></g><circle cx="6.544" cy="6.544" r="6.544" transform="translate(817.034 305.474)" fill="#f2f2f2"/><circle cx="6.544" cy="6.544" r="6.544" transform="translate(849.752 305.474)" fill="#f2f2f2"/><path d="M477.261,252.57q-8.8,0-18.66-6.381a2.181,2.181,0,1,1,2.373-3.66c11.561,7.495,21.412,7.549,30.122.166a2.181,2.181,0,0,1,2.82,3.327C488.771,250.388,483.2,252.57,477.261,252.57Z" transform="translate(363.79 91.651)" fill="#f2f2f2"/><path d="M252.289,246.3H223.932V241.94h23.994V217.946h4.363Z" transform="translate(659.554 149.965)" fill="#090814"/><path d="M114.533,132.54H110.17V104.183h28.357v4.363H114.533Z" transform="translate(657.709 148.12)" fill="#090814"/></g></svg>