<svg xmlns="http://www.w3.org/2000/svg" width="824" height="557.106" viewBox="0 0 824 557.106">
  <g id="Group_60" data-name="Group 60" transform="translate(-490 -194.568)">
    <g id="Group_59" data-name="Group 59" transform="translate(-20 -24)">
      <path id="Path_335" data-name="Path 335" d="M552.447,347.988H7.552A7.561,7.561,0,0,1,0,340.435V29.464a7.561,7.561,0,0,1,7.552-7.552h544.9A7.561,7.561,0,0,1,560,29.464V340.435a7.561,7.561,0,0,1-7.553,7.552Z" transform="translate(510 196.656)" fill="#090814"/>
      <rect id="Rectangle_123" data-name="Rectangle 123" width="533.221" height="300.872" transform="translate(524.202 231.17)" fill="#fff"/>
      <g id="Group_57" data-name="Group 57" transform="translate(568.681 289.808)">
        <ellipse id="Ellipse_169" data-name="Ellipse 169" cx="10.064" cy="10.064" rx="10.064" ry="10.064" transform="translate(422.509)" fill="#6c63ff"/>
        <g id="Group_55" data-name="Group 55" transform="translate(0 10.064)">
          <path id="Path_961" data-name="Path 961" d="M466.282,42.513l1.186,1.186L407.33,103.836l-18.87-18.87-33.127,33.128L314.659,77.419l-69.19,69.19-31.45-31.451-68.77,68.771-38.579-38.579L35.977,216.044l-1.186-1.186,71.88-71.879,38.579,38.579,68.77-68.77,31.45,31.45,69.19-69.19,40.675,40.675,33.127-33.128,18.87,18.871Z" transform="translate(-34.791 -42.513)" fill="#6c63ff"/>
          <ellipse id="Ellipse_168" data-name="Ellipse 168" cx="10.064" cy="10.064" rx="10.064" ry="10.064" transform="translate(266.866 24.914)" fill="#6c63ff"/>
          <ellipse id="Ellipse_170" data-name="Ellipse 170" cx="10.064" cy="10.064" rx="10.064" ry="10.064" transform="translate(62.233 91.169)" fill="#6c63ff"/>
        </g>
      </g>
    </g>
    <g id="Group_58" data-name="Group 58" transform="translate(10.18 -33.953)">
      <path id="Path_963" data-name="Path 963" d="M624.837,507.569l-11.973,6.53,7.619,25.034,11.972,1.088,6.531-14.149Z" transform="translate(514.902 186.401)" fill="#ffb9b9"/>
      <path id="Path_964" data-name="Path 964" d="M658.28,553.994v11.972l18.5-1.088-.258-9.86Z" transform="translate(518.466 190.044)" fill="#ffb9b9"/>
      <path id="Path_965" data-name="Path 965" d="M619.929,374.348l6.53,81.634L647.14,575.709l32.653-4.354-10.884-94.694,4.354-87.074Z" transform="translate(515.457 175.948)" fill="#090814"/>
      <path id="Path_966" data-name="Path 966" d="M936.584,463.6l-78.368,1.088-8.708,59.864,53.333,25.034L915.9,597.476l-66.395,70.748,26.122,32.653s37.007-50.068,64.218-78.368S954,508.224,954,508.224Z" transform="translate(285.877 25.745)" fill="#090814"/>
      <circle id="Ellipse_171" data-name="Ellipse 171" cx="23.946" cy="23.946" r="23.946" transform="translate(1151.713 286.894)" fill="#ffb9b9"/>
      <path id="Path_967" data-name="Path 967" d="M878.777,314.013v23.946L895.1,364.081s25.034-18.5,19.592-22.857-6.531-38.1-6.531-38.1Z" transform="translate(288.173 13.154)" fill="#ffb9b9"/>
      <path id="Path_968" data-name="Path 968" d="M650.385,185.963l-16.327,19.591,6.531,136.054,51.156-1.088,8.708-118.639-10.884-30.476L682.1,181.247,668.888,201.2Z" transform="translate(516.565 160.795)" fill="#e6e6e6"/>
      <path id="Path_969" data-name="Path 969" d="M857.247,400.552l-11.973,45.714,11.973,45.714L837.656,518.1l-17.415-82.721s13.061-67.483,14.15-75.1,3.265-8.708,3.265-8.708l8.708,1.088Z" transform="translate(283.58 16.955)" fill="#090814"/>
      <path id="Path_970" data-name="Path 970" d="M705.714,272.2l7.619,14.151,2.177,23.945-4.354,27.211,15.238,25.034,15.238-68.572L725.307,205.8h-6.531Z" transform="translate(522.188 162.722)" fill="#090814"/>
      <path id="Path_971" data-name="Path 971" d="M851.144,652.327s-15.238,4.354-20.68,5.442,3.265,21.769,3.265,21.769,5.442,28.3,6.531,33.742,8.708,23.946,18.5,26.122,3.265-38.1,3.265-38.1,4.354-13.061,4.354-17.415-6.531-2.177-6.531-2.177C842.436,679.538,851.144,652.327,851.144,652.327Z" transform="translate(284.242 40.555)" fill="#090814"/>
      <path id="Path_972" data-name="Path 972" d="M882.824,731.947c1.088,6.531-1.089,6.531,16.327,8.708s13.061-11.973,13.061-11.973a91.465,91.465,0,0,0-4.354-19.592c-3.265-8.708-20.68,2.177-20.68,2.177S881.736,725.417,882.824,731.947Z" transform="translate(288.48 44.744)" fill="#090814"/>
      <path id="Path_973" data-name="Path 973" d="M909.4,306.75l.567,9.68s7.023-15.882,8.112-32.209-17.415-16.356-28.3-17.445-26.37,5.8-26.37,14.509,16.575,4.024,24.194,1.848,10.884,16.327,10.884,16.327l4.354,1.088Z" transform="translate(286.967 10.292)" fill="#090814"/>
      <path id="Path_974" data-name="Path 974" d="M643.24,193.328l6.424-7.708,18.5,15.238-18.5,13.061Z" transform="translate(517.286 161.138)" fill="#e6e6e6"/>
      <path id="Path_975" data-name="Path 975" d="M687.035,191.379l-7.619-9.8-13.061,19.591,16.327,11.973Z" transform="translate(519.1 160.822)" fill="#e6e6e6"/>
      <path id="Path_976" data-name="Path 976" d="M852.636,417.492l4.354,41.361-8.707,25.034-5.442,23.946s0,22.857,21.769,23.946,40.272-68.572,40.272-68.572,3.265,15.238,5.442,23.946,39.184,43.538,39.184,43.538,8.707-1.089,16.327-18.5S950.6,478.445,950.6,478.445l-6.531-22.857,2.177-28.3,15.238-74.014-45.17-23.4,4.9,62.585-16.327,48.98-24.49-108.3-8.163,5.986-34.83,14.15Z" transform="translate(284.926 15.252)" fill="#090814"/>
    </g>
    <path id="Path_782" data-name="Path 782" d="M15.18,488.719c0,.848.214,1.529.479,1.529H254.7c.266,0,.479-.681.479-1.529s-.214-1.529-.479-1.529H15.659C15.393,487.191,15.18,487.872,15.18,488.719Z" transform="translate(1058.82 261.425)" fill="#ccc"/>
  </g>
</svg>
