<svg xmlns="http://www.w3.org/2000/svg" width="1110.152" height="618" viewBox="0 0 1110.152 618">
  <g id="Group_305" data-name="Group 305" transform="translate(-438.497 -268.251)">
    <path id="Path_5246" data-name="Path 5246" d="M990.425,462.251h-682a9.01,9.01,0,0,1-9-9v-266a9.01,9.01,0,0,1,9-9h682a9.01,9.01,0,0,1,9,9v266a9.01,9.01,0,0,1-9,9Zm-682-282a7.008,7.008,0,0,0-7,7v266a7.008,7.008,0,0,0,7,7h682a7.008,7.008,0,0,0,7-7v-266a7.008,7.008,0,0,0-7-7Z" transform="translate(360 90)" fill="#3f3d56"/>
    <path id="Path_5247" data-name="Path 5247" d="M626.861,350.476H577.053c-3.115-27.707,3.758-48.359,0-59.769h49.808a311.81,311.81,0,0,0,0,59.769Z" transform="translate(360 90)" fill="#ff6584"/>
    <path id="Path_5249" data-name="Path 5249" d="M929.861,405.476H880.053c-3.115-27.707,3.758-48.359,0-59.769h49.808a311.82,311.82,0,0,0,0,59.769Z" transform="translate(360 90)" fill="#6c63ff"/>
    <path id="Path_5251" data-name="Path 5251" d="M410.634,453.04H360.826c1.868-22.982,7.889-44.442,0-59.769h49.808Q424.7,423.155,410.634,453.04Z" transform="translate(360 90)" fill="#e6e6e6"/>
    <path id="Path_5252" data-name="Path 5252" d="M850.634,312.04H800.826c1.868-22.982,7.889-44.442,0-59.769h49.808Q864.7,282.155,850.634,312.04Z" transform="translate(360 90)" fill="#6c63ff"/>
    <path id="Path_5253" data-name="Path 5253" d="M703.634,390.04H653.826c1.868-22.982,7.889-44.442,0-59.769h49.808Q717.7,360.155,703.634,390.04Z" transform="translate(360 90)" fill="#e6e6e6"/>
    <path id="Path_5254" data-name="Path 5254" d="M421.549,325.125h49.808c3.115-22.986-3.758-44.445,0-59.769H421.549Q407.482,295.241,421.549,325.125Z" transform="translate(360 90)" fill="#6c63ff"/>
    <path id="Path_5255" data-name="Path 5255" d="M455.425,215.251h-93a2,2,0,0,1,0-4h93a2,2,0,0,1,0,4Z" transform="translate(360 90)" fill="#3f3d56"/>
    <path id="Path_5256" data-name="Path 5256" d="M696.425,215.251h-93a2,2,0,0,1,0-4h93a2,2,0,0,1,0,4Z" transform="translate(360 90)" fill="#3f3d56"/>
    <path id="Path_5257" data-name="Path 5257" d="M937.425,215.251h-93a2,2,0,0,1,0-4h93a2,2,0,0,1,0,4Z" transform="translate(360 90)" fill="#3f3d56"/>
    <rect id="Rectangle_1038" data-name="Rectangle 1038" width="2" height="282" transform="translate(888.426 269.25)" fill="#3f3d56"/>
    <rect id="Rectangle_1039" data-name="Rectangle 1039" width="2" height="282" transform="translate(1129.426 269.25)" fill="#3f3d56"/>
    <path id="Path_5275" data-name="Path 5275" d="M897.549,498.125h49.808c3.115-22.986-3.758-44.445,0-59.769H897.549Q883.482,468.241,897.549,498.125Z" transform="translate(90.072 90)" fill="#3f3d56"/>
    <g id="Group_303" data-name="Group 303" transform="translate(17715.117 -22141.961)">
      <line id="Line_8" data-name="Line 8" x2="235.022" y2="2.902" transform="translate(-16401.5 23024.561)" fill="#fff" stroke="#090814" stroke-miterlimit="10" stroke-width="1.5"/>
      <rect id="Rectangle_1036" data-name="Rectangle 1036" width="17.857" height="23.535" transform="translate(-16335.089 22987.518)" fill="#ffb9b9"/>
      <path id="Path_5234" data-name="Path 5234" d="M412.98,654.79H375.023a21.893,21.893,0,0,1-9.428-2.148l-7-3.364a4.2,4.2,0,0,1,.7-7.838l14.436-3.995,24.7-12.981.018.094c.462,2.339,1.177,5.873,1.268,6.087,2.533,2.9,5.134,4.238,7.733,3.975,4.533-.459,7.546-5.693,7.576-5.746l.023-.04.046,0a3.006,3.006,0,0,1,2.334,1.272c1.034,1.559.4,3.96.3,4.322,1.238,1.212,1.794,7.978,1.837,8.524,1.79,1.9,2.641,3.722,2.529,5.423a5.84,5.84,0,0,1-2.45,4.1,10.6,10.6,0,0,1-6.663,2.307Z" transform="translate(-16733.26 22372.508)" fill="#090814"/>
      <rect id="Rectangle_1037" data-name="Rectangle 1037" width="17.857" height="23.535" transform="translate(-16216.604 22981.773) rotate(-16.22)" fill="#ffb9b9"/>
      <path id="Path_5235" data-name="Path 5235" d="M590.633,640.779l-36.446,10.6a21.892,21.892,0,0,1-9.653.571l-7.659-1.275a4.2,4.2,0,0,1-1.517-7.721l12.746-7.868,20.088-19.363.044.085c1.1,2.117,2.771,5.31,2.918,5.491,3.242,2.078,6.114,2.635,8.536,1.657,4.224-1.707,5.655-7.575,5.669-7.634l.011-.045.046-.008a3.006,3.006,0,0,1,2.6.57c1.428,1.208,1.493,3.69,1.495,4.067,1.527.817,3.951,7.159,4.145,7.671,2.249,1.322,3.576,2.836,3.943,4.5a5.84,5.84,0,0,1-1.207,4.625,10.6,10.6,0,0,1-5.754,4.076Z" transform="translate(-16781.908 22375.051)" fill="#090814"/>
      <path id="Path_5236" data-name="Path 5236" d="M505.217,277.9H419.636s-37,117.224-35.218,244.285h63.745l3.785-147.5L463.02,527.908l84-4.837Z" transform="translate(-16740.986 22467.684)" fill="#090814"/>
      <path id="Path_5237" data-name="Path 5237" d="M504.815,222.669l17.531,40.3-85.709.2L451.5,225.335Z" transform="translate(-16755.346 22482.85)" fill="#ffb9b9"/>
      <path id="Path_5238" data-name="Path 5238" d="M494.389,35.47a29.03,29.03,0,1,0-37.727,27.7l5.612,37.088L490.883,76.42a72.069,72.069,0,0,1-9.5-16.749A29,29,0,0,0,494.389,35.47Z" transform="translate(-16755.26 22542.23)" fill="#ffb9b9"/>
      <path id="Path_5239" data-name="Path 5239" d="M494.456,85.967l-34.192,21.857L444.482,135.7a38.988,38.988,0,0,0-4.353,26.61l7.251,37.513h75.6l-11.946-78.264A65.8,65.8,0,0,0,499.918,93.78l-5.462-7.813Z" transform="translate(-16756.109 22520.391)" fill="#6c63ff"/>
      <path id="Path_5240" data-name="Path 5240" d="M468.956,104.745l21.419-10.111A18.406,18.406,0,0,1,512.1,111.2l38.744,260.9L564.03,399.89l-79.969,44.125-36.43-253.081-2.666-39.1,23.991-47.093Z" transform="translate(-16757.633 22518.1)" fill="#090814"/>
      <path id="Path_5276" data-name="Path 5276" d="M36.736,43.355H.606C-1.653,23.257,3.332,8.277.606,0H36.736a226.178,226.178,0,0,0,0,43.355Z" transform="matrix(-0.53, -0.848, 0.848, -0.53, -16253.145, 22876.152)" fill="#ff6584"/>
      <path id="Path_5241" data-name="Path 5241" d="M549.064,360.917l-5.087-27.676-16.159,2.97,5.087,27.676a17.245,17.245,0,0,0-2.608,13.074c1.586,8.627,8.659,14.557,15.8,13.244s11.642-9.37,10.056-18a17.245,17.245,0,0,0-7.087-11.292Z" transform="translate(-16780.385 22452.484)" fill="#ffb9b9"/>
      <path id="Path_5242" data-name="Path 5242" d="M487.263,185.2l27.557,133.55,27.938-5.765L523.691,178.859" transform="translate(-16769.248 22494.881)" fill="#090814"/>
      <path id="Path_5243" data-name="Path 5243" d="M501.566,71.844s-1.356,10.285-13.915,10.621l-25.477.681s21.537-52.413,12.681-46.508-32.471-18.85-32.471-18.85l-6.968,13.068s-16.647-6.028,1.8-20.79c0,0,22.013-17.019,45.382-6.8s18.966,68.576,18.966,68.576Z" transform="translate(-16753.117 22544)" fill="#090814"/>
    </g>
    <g id="Group_304" data-name="Group 304" transform="translate(66.523 -33.334)">
      <path id="Path_5293" data-name="Path 5293" d="M309.641,361.948s-4.2,26.37,13.185,23.972c0,0,68.921-15.582,72.517-11.986s25.951,4.82,24.785-10.34c-1.17-15.211-23.586-6.441-23.586-6.441s-34.76,4.794-41.952,1.2-27.568-2.4-27.568-2.4Z" transform="translate(163.772 207.324)" fill="#ffb9b9"/>
      <path id="Path_5294" data-name="Path 5294" d="M362.234,447.853l-9.557,90.673s-3,35.959-11.986,43.75c0,0,0,11.387-3,14.983L333.5,644.6s5.993,17.38,5.394,20.377,2.4,12.586,1.8,13.784-28.767,0-28.767,0l5.993-96.489L336.5,448.03Z" transform="translate(163.775 207.413)" fill="#23213b"/>
      <path id="Path_5295" data-name="Path 5295" d="M309.738,673.651s-12.569,31.695-6.011,35.52,75.412,1.093,75.412,1.093,11.476-7.1-1.639-12.022c0,0-10.929-.547-18.033-4.918s-15.3-12.569-15.3-12.569-.546-12.022-4.918-9.29a11.231,11.231,0,0,0-4.918,7.65Z" transform="translate(163.765 207.626)" fill="#090814"/>
      <path id="Path_5296" data-name="Path 5296" d="M290.378,669.358s-13.784,34.76-6.592,38.955,82.705,1.2,82.705,1.2,12.586-7.791-1.8-13.185c0,0-11.986-.6-19.777-5.394s-16.781-13.784-16.781-13.784-.6-13.185-5.394-10.188a12.317,12.317,0,0,0-5.394,8.391Z" transform="translate(163.746 207.621)" fill="#090814"/>
      <path id="Path_5297" data-name="Path 5297" d="M346.115,446.638s-6.592,61.729-9.589,74.914a170.458,170.458,0,0,0-3.6,26.37s-.6,19.178-5.993,24.572a16.2,16.2,0,0,0-4.795,11.986s-5.394,60.531-2.4,67.722,7.065,16.535,4.068,21.329-37.03,1.444-37.03-2.151,0-6.592-1.8-8.39,0-13.185,0-13.185-7.192-53.339-.6-68.921,9.589-58.133,9.589-58.133-4.794-48.544-10.788-56.335,1.2-35.359,1.2-35.359Z" transform="translate(163.745 207.397)" fill="#090814"/>
      <path id="Path_5298" data-name="Path 5298" d="M329.2,255.127c.7,1.587,2.364,2.471,3.883,3.307,8.8,4.848,16.164,11.876,23.421,18.823a27.5,27.5,0,0,1,1.091-18.594c.866-2.006,2-4.163,1.383-6.259a7.792,7.792,0,0,0-3.039-3.636,94.22,94.22,0,0,0-9.268-6.323c-2.244-1.343-6.858-4.917-9.433-4.528-.135,3.479-.206,6.59-1.729,9.842C335.142,248.531,329.462,255.734,329.2,255.127Z" transform="translate(163.791 207.212)" fill="#ffb9b9"/>
      <circle id="Ellipse_894" data-name="Ellipse 894" cx="24.572" cy="24.572" r="24.572" transform="translate(499.071 420.904)" fill="#ffb9b9"/>
      <path id="Path_5299" data-name="Path 5299" d="M361.1,296.381s4.2-20.976-7.791-28.168-25.77-15.582-25.77-15.582-4.2-.6-5.993,8.39c0,0-34.161,6.592-37.757,38.955s2.4,79.709,2.4,79.709S280.8,421.038,274.2,443.213c0,0-5.394,4.794,18.579-2.4s65.924,20.377,65.924,20.377,4.2-4.2,4.2-7.192,8.99-94.092,10.788-102.482S366.5,297.58,361.1,296.381Z" transform="translate(163.738 207.226)" fill="#e6e6e6"/>
      <path id="Path_5300" data-name="Path 5300" d="M354.063,240.83a10.246,10.246,0,0,1,4.819-1.283,9.171,9.171,0,0,0,4.767-1.42c2.321-1.782,2.491-5.226,4.189-7.609,2.458-3.45,7.363-3.866,11.6-3.693,2.589.106,5.377.26,7.557-1.14,2.238-1.438,3.253-4.146,4.007-6.7.892-3.016,1.47-6.705-.742-8.943-1.536-1.553-3.96-1.861-5.666-3.225-.923-.738-13.128-3.7-24.586-6.369a23.948,23.948,0,0,0-27.931,15.159c-2.646,7.275-4.913,14.11-4.679,15.587,1.12,7.066,7.369,12.683,7.8,19.824a12.169,12.169,0,0,1,7.428-8.833,2.324,2.324,0,0,1,1.513-.184c.621.2.984.819,1.376,1.34,1.027,1.365,4.252,3.435,6.08,2.467C353.228,244.944,352.007,242.224,354.063,240.83Z" transform="translate(163.79 207.176)" fill="#090814"/>
      <path id="Path_5304" data-name="Path 5304" d="M210.391,180.024l18.5,17.445L272.9,153.988l-22.335-14.537Z" transform="translate(334.102 383.034)" fill="#6c63ff"/>
      <path id="Path_5307" data-name="Path 5307" d="M292.166,352.628s-4.2,26.37,13.185,23.973c0,0,68.921-15.582,72.517-11.986s25.951,4.82,24.785-10.34c-1.17-15.211-23.586-6.441-23.586-6.441s-34.76,4.794-41.952,1.2-27.568-2.4-27.568-2.4Z" transform="translate(163.755 207.315)" fill="#ffb9b9"/>
      <path id="Path_5308" data-name="Path 5308" d="M316.74,269.4s-26.969,3-26.969,41.952v49.743l32.962-13.784s13.784-32.363,12.586-41.353S334.719,270.595,316.74,269.4Z" transform="translate(163.754 207.242)" fill="#e6e6e6"/>
    </g>
    <line id="Line_9" data-name="Line 9" x2="235.022" y2="2.902" transform="translate(438.506 882.6)" fill="#fff" stroke="#090814" stroke-miterlimit="10" stroke-width="1.5"/>
  </g>
</svg>
