<?xml version="1.0" encoding="UTF-8"?><svg id="uuid-0c4eed83-a284-426f-a4a1-7d9e851e84e9" xmlns="http://www.w3.org/2000/svg" width="471.34058" height="701.1988" viewBox="0 0 471.34058 701.1988"><polygon points="148.64409 622.4514 147.64409 628.4514 154.64409 631.4514 144.64409 638.4514 145.64409 648.4514 172.64409 642.4514 182.64409 639.4514 181.64409 629.4514 148.64409 622.4514" fill="#090814"/><path d="M149.64409,638.4514s-5-8-10-8c-5,0-13,2-13,2,0,0-11,8-7,18,4,10,13,11,13,11l13-5s4-6,4-10.5v-7.5Z" fill="#090814"/><ellipse cx="184.14409" cy="637.9514" rx="13.5" ry="10.5" fill="#090814"/><polygon points="298.64409 657.4514 299.64409 664.4514 302.64409 667.4514 301.64409 671.4514 305.64409 683.4514 331.64409 678.4514 329.64409 660.4514 298.64409 657.4514" fill="#090814"/><path d="M304.64409,671.4514s-4-6-10-5-15,6-15,6c0,0-6,8-3,16l3,8s6,7,16,4,12-6,12-6c0,0,3-9,2-13s-5-10-5-10Z" fill="#090814"/><path d="M321.64409,677.4514s2,11.47875,10,11.23937,11-.23937,11-.23937c0,0,16.30437-13.75723,4.65219-27.87861-11.65219-14.12139-23.65219,1.87861-23.65219,1.87861l-2,15Z" fill="#090814"/><path d="M159.14409,590.9514s-45-27-65-14,18,39,18,39l37,10,151.03367,35.4847s20.46633,8.0153,44.46633.0153,49-15,49-15c0,0,25-7,16-17l-30,3-220.5-41.5Z" fill="#6c63ff"/><polygon points="223.14409 553.9514 215.14409 603.9514 239.14409 611.9514 255.14409 592.9514 257.14409 560.9514 223.14409 553.9514" fill="#ed9da0"/><polygon points="90.14409 453.9514 61.14409 447.9514 40.14409 456.9514 44.14409 492.9514 55.14409 494.9514 67.14409 486.9514 83.14409 486.9514 90.14409 453.9514" fill="#ed9da0"/><path d="M421.27208,265.56596l-47.18513,8.18492,4.77891,27.54982,47.18511-8.18492c5.75409,4.18755,13.79882,6.12003,22.20476,4.66191,14.70823-2.55135,24.91982-14.48713,22.80839-26.65946-2.11148-12.17232-15.74633-19.97161-30.45461-17.42025-8.40599,1.45813-15.32978,5.98734-19.33742,11.86798Z" fill="#ed9da0"/><path d="M48.71326,324.14731l30.93891-36.55425-21.34281-18.06419-30.93889,36.55423c-7.10032.48029-14.51056,4.16001-20.02227,10.67208-9.64407,11.39445-9.81769,27.10142-.38782,35.08274,9.42989,7.98128,24.8922,5.21446,34.53629-6.18002,5.51175-6.5121,7.91608-14.42865,7.2166-21.51059Z" fill="#ed9da0"/><path d="M154.14409,264.9514l-30,41s-32,57.95892,30,90.97946l-7,50.02054s-6,2-3,9l-4,5s-15-11-41-6c0,0-7-8-21-4l-6,37s9,13,21,10l66,20s20-2,30-18,30-63,30-63l29-67,7-26,3.75741-34.89433-104.75741-44.10567Z" fill="#090814"/><path d="M214.37862,348.71643s87.76547,66.23497,85.76547,88.23497-33,113-33,113c0,0,7,7-1,19s-51.76547-8.96288-51.76547-8.96288c0,0-5.23453-18.03712,4.76547-14.03712,0,0,3-69,13-78,0,0-5.97996-14.7985,3.51002-16.39925,0,0-9.51002-6.60075-7.51002-10.60075l-86-55" fill="#090814"/><path d="M307.14409,6.9514s-39-21-65,10c-26,31-37,39-37,39,0,0-45-35-75,3,0,0,1,30-33,19s-50,18-50,18l2.81065,16.9288s2.18935-16.9288,10.18935-19.9288,18-3,18-3l20,10s-26,9-17,30c0,0-10.47474,17-20.73737,0,0,0-16.26263,22,22.73737,22l26,9s-26.25863,23.18402,1.87069,35.59201,1.65187,5.95369,1.65187,5.95369l197.20847-52.46425s28.26897-8.08145,24.26897-28.08145c0,0,11-11,10-20,0,0,12-19,4-33,0,0,12-55-41-62Z" fill="#090814"/><path d="M344.84819,86.3977c4.17738-30.40138-17.08142-58.43307-47.48291-62.61047-30.40139-4.17738-58.43308,17.08142-62.61046,47.4828-2.6329,19.16121,4.84491,37.37475,18.3414,49.2741-8.59766,15.97072-22.37189,29.29108-22.37189,29.29108l48.03674,52.66189,20.30558-68.86493c23.3108-3.93458,42.39323-22.57564,45.78155-47.23447Z" fill="#ed9da0"/><path d="M250.60373,124.87971s-59.45964,3.07169-75.45964,21.07169c0,0-11-2-25,20l-55,43s-20,6-20,26c0,0-21,8-19,28,0,0-14,0-11,17,0,0-16,11-7,21s27,17,27,17l13-16s13-7,21-17c0,0,16-4,19-19,0,0,22.71306-7.53566,24.85653-17.76783l14.14347-8.23217s-21,17-7,30,72,53,116,37c0,0,16-11,15-26l16-24,24,36s10,16,34,15c0,0,27,6,37-4,0,0,29-1,30-11s-6-31-11-31h-16s-9-8-22-6c0,0-4-15-10-17,0,0-9-25-14-27,0,0-4.54393-13.18135-3.77197-18.59068.77197-5.40932-7.22803-31.40932-14.22803-33.40932s-34.80741-17.06077-34.80741-17.06077c0,0-9.36409,47.44752-39.19259,21.06077-26-23-6.54036-39.07169-6.54036-39.07169Z" fill="#6c63ff"/><path d="M242.14409,593.9514s4.51481-17.19619,16.75741-12.59809c12.24259,4.59809,21.24259,20.59809,21.24259,20.59809l21.70922,10s28.29078,11,21.29078,20c-7,9-30,10-30,10,0,0-20.14121,4-27.57061,0s-23.42939-7.38768-23.42939-7.38768l-15-4.61232-25-9s5-42,15-42c0,0-8,19,6,23s19-8,19-8Z" fill="#090814"/><path d="M52.14409,482.9514s-6-20,4-27,17.95253-8,17.95253-8c0,0-16.95253-19-27.95253-16s-16.79258,25.33938-16.79258,25.33938l-5.20742,17.66062-11,17s-7,34,7,39,20-6.03338,20-6.03338l6-14.96662,16.6625-20.10834-10.6625-6.89166Z" fill="#090814"/><path d="M313.14409,34.9514s-13-2-13,6-29,44-36,42-21-12-23-3-22.93685,32.9288-22.93685,32.9288l-3.06315-44.9288,29.51779-44.68811,51.48221-12.31189,40,18,9.22803,21.54697,4.78957,36.26502-23.0176-42.81199s-2-12-14-9Z" fill="#090814"/></svg>