<svg xmlns="http://www.w3.org/2000/svg" width="706.42" height="800.429" viewBox="0 0 706.42 800.429"><g transform="translate(-607 -140.001)"><g transform="translate(-102.999 -181.031)"><g transform="translate(813.876 321.032)"><path d="M468.821,320.536c17.442,14.535-17.442,59.756-17.442,59.756s82.848,3.23,76.308,3.23S515.7,314.883,515.7,314.883,451.379,306,468.821,320.536Z" transform="translate(-279.959 -240.245)" fill="#ed9da0"/><ellipse cx="37.929" cy="37.93" rx="37.929" ry="37.93" transform="translate(174.318 22.405)" fill="#ed9da0"/><path d="M552.047,500.313l-7.016-2.552s14.67-14.67,35.081-13.395l-5.741-5.741s14.032-5.1,26.789,8.292c6.706,7.041,14.465,15.318,19.3,24.642h7.514l-3.136,6.272,10.976,6.272-11.266-1.127a31.65,31.65,0,0,1-1.066,16.244l-2.551,7.016s-10.205-20.411-10.205-22.962v6.379s-7.016-5.741-7.016-9.568l-3.827,4.465-1.914-7.016-23.6,7.016,3.827-5.741-14.67,1.914,5.741-7.016S552.685,522,552.047,529.016s-8.929,15.946-8.929,15.946l-3.827-6.378S533.55,509.881,552.047,500.313Z" transform="translate(-370.006 -477.673)" fill="#090814"/><path d="M472.672,450.832l75.089,26.919,41.086,17s26.919,73.672,39.67,106.258-28.335,85.006-28.335,85.006,4.25,15.584,0,22.668a77,77,0,0,0-5.667,11.334c-1.417,2.834-17,1.417-34,0s-1.417-28.335-1.417-28.335,14.168-56.671,15.584-58.088c1.323-1.323,5.118-11.3,1-14.916a36.767,36.767,0,0,1-9.261-11.518,42.63,42.63,0,0,0-7.321-10.4s-44.9-66.221-67.08-81.281-73.672,2.834-73.672,2.834,24.577,37.361,24.577,45.861,1.417,12.751,5.667,15.584,2.833,8.5,2.833,14.168,4.25,17,11.334,22.668,8.5,11.334,7.084,22.668-39.67,5.667-39.67,5.667L411.751,609.51S383.416,564.173,365,516c-9.209-24.085.354-40.378,12.22-50.65a58.641,58.641,0,0,1,41.115-13.834l66.6,3.038-47.678-13.643Z" transform="translate(-317.495 -186.599)" fill="#090814"/><path d="M614.915,385.724l80.756-36.836s28.335-48.17,11.334-53.837-31.169,42.5-31.169,42.5l-58.088,11.334Z" transform="translate(-211.803 -247.584)" fill="#ed9da0"/><path d="M413.308,381.082s-41.086,36.836-42.5,41.086-26.919,15.584-38.253-4.25,25.5-18.418,25.5-18.418l25.5-32.586Z" transform="translate(-330.386 -217.44)" fill="#ed9da0"/><path d="M359.568,376.548l43.92,32.586,72.255-25.5c-13.43,42.047-2.908,86.578-47.02,112.371L595.9,552.673c-14.8-59.573,8.571-108.891,28.6-169.042,31.728-16.351,71.524-12.484,114.758,0V325.544l-175.68,9.917L536.4,350.075l-32.319-8.947C457.294,333.544,398.843,350.119,359.568,376.548Z" transform="translate(-318.224 -234.682)" fill="#6c63ff"/><path d="M454.754,580.285c4.25,2.834,11.334,29.752,12.751,39.67s-11.334,14.168-18.418,15.584-5.667,5.667-9.917,9.917-19.835,5.667-41.086,1.417S408,615.7,410.834,614.287s11.334-34,11.334-34S450.5,577.451,454.754,580.285Z" transform="translate(-305.244 -129.039)" fill="#090814"/><path d="M529.131,636.582l11.334,29.752,10.717,16.075a36.405,36.405,0,0,1,5.145,29.624c-1.8,6.643-5.546,12.92-13.028,15.222-18.418,5.667-29.752-29.752-29.752-29.752s-9.917-19.835-17-38.253,5.667-28.335,5.667-28.335Z" transform="translate(-262.029 -107.413)" fill="#090814"/></g><g transform="translate(765.647 789.809) rotate(-8)"><ellipse cx="15.988" cy="15.988" rx="15.988" ry="15.988" transform="translate(43.326 115.161)" fill="#090814"/><ellipse cx="15.988" cy="15.988" rx="15.988" ry="15.988" transform="translate(164.127 253.728)" fill="#090814"/><path d="M15.791,66.306,154.356,245.731s28.424,53.295,72.836,37.306S204.1,219.084,204.1,219.084L69.085,39.659S51.32-8.558,15.791,1.339s0,64.968,0,64.968Z" transform="translate(0 0)" fill="#6c63ff"/><ellipse cx="15.988" cy="15.988" rx="15.988" ry="15.988" transform="translate(2.467 79.631)" fill="#090814"/><ellipse cx="15.988" cy="15.988" rx="15.988" ry="15.988" transform="translate(122.38 233.298)" fill="#090814"/></g><path d="M532.212,1.3c-176.6-12.042-212.135,3.121-345.188,15.164S0,49.466,0,49.466H706.417S708.816,13.339,532.212,1.3Z" transform="translate(710 1071.995)" fill="#f2f2f2"/></g><path d="M217.347,785.784s11.728-.361,15.263-2.878,18.041-5.522,18.918-1.486,17.625,20.076,4.384,20.183-30.766-2.062-34.294-4.211S217.347,785.784,217.347,785.784Z" transform="translate(940.584 105.377)" fill="#e6e6e6"/><path d="M217.347,785.784s10.321-.361,13.431-2.878,15.876-5.522,16.648-1.486,15.51,20.075,3.858,20.182-27.075-2.062-30.179-4.211S217.347,785.784,217.347,785.784Z" transform="translate(510.584 120.457)" fill="#e6e6e6"/><g transform="translate(1172.882 531.889)"><path d="M162.375,302.682c-.886-1.493-4.717.106-5.422-1.25s2.858-3.408,4.892-8.109c.367-.848,2.678-6.19.967-7.838-3.243-3.124-18.085,9.769-23.279,5.55-1.14-.926-1.936-2.775-5.386-5.776-1.372-1.194-2.2-1.733-3.005-1.532-1.14.285-1.23,1.81-2.452,4.809-1.833,4.5-2.917,4.226-3.984,7.814-.793,2.664-.612,4.212-1.544,4.514-1.32.427-2.535-2.4-4.208-2.145-1.707.258-2.739,3.548-3.065,6.011-.612,4.622,1.086,7.672,2.027,10.879,1.022,3.485,1.629,8.786-.732,16.289l-23.37,65.844c5.159-13.511,20.1-50.548,26.375-64.311,1.812-3.973,3.813-8,7.921-9.594,3.955-1.531,9.387-.617,16.313-2.285.809-.195,3.053-.766,3.336-2.086.234-1.091-1.087-1.7-.884-2.723.272-1.371,2.868-1.388,6.059-2.97a18.879,18.879,0,0,0,4.856-3.583c.363-.344,5.765-5.52,4.586-7.508h0Z" transform="translate(-28.436 -19.33)" fill="#f2f2f2"/><path d="M42,370.362c-.989,0-1.309,2.346-2.178,2.3s-.848-2.386-2.568-4.741c-.31-.425-2.265-3.1-3.568-2.736-2.469.69-.423,11.695-3.993,13.027a39.5,39.5,0,0,0-4.389.977c-.982.329-1.486.581-1.619,1.033-.189.641.533,1.126,1.653,2.591,1.679,2.2,1.233,2.651,2.686,4.21,1.079,1.158,1.891,1.516,1.77,2.06-.171.771-1.909.552-2.267,1.446-.366.912.951,2.368,2.066,3.239,2.092,1.634,4.079,1.681,5.924,2.144a15.557,15.557,0,0,1,7.784,5.059L68.87,431.44c-5.143-6.431-19.01-24.449-23.954-31.5-1.427-2.036-2.828-4.181-2.423-6.656.39-2.383,2.406-4.785,3.585-8.666.138-.453.505-1.72-.061-2.239-.468-.43-1.148.043-1.591-.352-.594-.529.146-1.808.29-3.83a10.749,10.749,0,0,0-.357-3.417c-.064-.278-1.046-4.422-2.362-4.417h0Z" transform="translate(0 -52.347)" fill="#f2f2f2"/><path d="M87.253,365.6l-.6-5.317.272-.4a9.837,9.837,0,0,0,1.909-5.412c0-.275-.012-.549-.024-.829a8.316,8.316,0,0,1,.6-4.095c.4-.9,1.535-2.97,3.237-2.714a1.928,1.928,0,0,1,1.068.521l.121-.19A5.849,5.849,0,0,1,95.2,345.67a6.838,6.838,0,0,0,1.135-1.148c.221-.275.393-.516.538-.719a2.5,2.5,0,0,1,2.029-1.332,2.665,2.665,0,0,1,2.027,1.54,12.815,12.815,0,0,1,1.177,2.326,4.024,4.024,0,0,0,.2.457c.349.513,3.187.033,4.256-.141,2.4-.4,4.48-.747,5.336.768.614,1.083.158,2.516-1.4,4.372a8.68,8.68,0,0,1-1.456,1.361,1.779,1.779,0,0,1,.855,1.117h0c.323,1.289-.784,2.58-3.291,3.843a8.85,8.85,0,0,1-2.635.94,10.355,10.355,0,0,1-1.477.131,1.75,1.75,0,0,1-.217.788c-.44.809-1.357,1.194-2.738,1.1a21.468,21.468,0,0,1-3.875-.624,9.4,9.4,0,0,0-2.447-.365c-1.209.1-2.141,1.065-3.235,2.321l-2.73,3.191h0Z" transform="translate(-25.536 -43.155)" fill="#f2f2f2"/><path d="M75.019,314.62l-4.992,1.925-.459-.161a9.836,9.836,0,0,0-5.719-.474c-.266.068-.528.151-.8.234a8.317,8.317,0,0,1-4.114.455c-.969-.163-3.263-.732-3.446-2.443a1.928,1.928,0,0,1,.233-1.165l-.214-.069a5.849,5.849,0,0,1-1.784-.932,6.84,6.84,0,0,0-1.4-.807c-.322-.144-.6-.249-.832-.338a2.5,2.5,0,0,1-1.8-1.625,2.665,2.665,0,0,1,.976-2.351,12.812,12.812,0,0,1,1.951-1.729,4.023,4.023,0,0,0,.392-.308c.408-.468-.776-3.091-1.216-4.081-1-2.221-1.859-4.144-.611-5.356.892-.868,2.394-.791,4.583.241a8.68,8.68,0,0,1,1.685,1.063,1.779,1.779,0,0,1,.863-1.11h0c1.165-.64,2.695.1,4.552,2.209a8.849,8.849,0,0,1,1.577,2.311,10.355,10.355,0,0,1,.5,1.4,1.75,1.75,0,0,1,.817.01c.894.221,1.5,1.01,1.76,2.369a21.465,21.465,0,0,1,.38,3.907,9.4,9.4,0,0,0,.268,2.459c.4,1.145,1.574,1.8,3.065,2.54l3.779,1.832h0Z" transform="translate(-10.538 -23.833)" fill="#f2f2f2"/><path d="M87.253,286.031l-.6-5.317.272-.4a9.837,9.837,0,0,0,1.909-5.412c0-.275-.012-.549-.024-.829a8.316,8.316,0,0,1,.6-4.095c.4-.9,1.535-2.97,3.237-2.714a1.928,1.928,0,0,1,1.068.521l.121-.19A5.849,5.849,0,0,1,95.2,266.1a6.841,6.841,0,0,0,1.135-1.148c.221-.275.393-.516.538-.719a2.5,2.5,0,0,1,2.029-1.332,2.665,2.665,0,0,1,2.027,1.54,12.816,12.816,0,0,1,1.177,2.326,4.02,4.02,0,0,0,.2.457c.349.513,3.187.033,4.256-.141,2.4-.4,4.48-.747,5.336.768.614,1.083.158,2.516-1.4,4.372a8.681,8.681,0,0,1-1.456,1.361,1.779,1.779,0,0,1,.855,1.117h0c.323,1.289-.784,2.58-3.291,3.843a8.849,8.849,0,0,1-2.635.94,10.351,10.351,0,0,1-1.477.131,1.75,1.75,0,0,1-.217.788c-.44.809-1.357,1.194-2.738,1.1a21.468,21.468,0,0,1-3.875-.624,9.4,9.4,0,0,0-2.447-.365c-1.209.1-2.141,1.065-3.235,2.321l-2.73,3.191h0Z" transform="translate(-25.536 -10.908)" fill="#f2f2f2"/><path d="M86.474,389.672l-1.114-.7-.27-1.286.27,1.286-1.3.149c-.021-.121-.091-.4-.2-.832a185.922,185.922,0,0,1-3.833-21,214.161,214.161,0,0,1-1.737-24.306c-.121-8.189.267-14.389.578-19.372.235-3.758.52-7.337.8-10.823.744-9.314,1.447-18.112.924-27.852a25.8,25.8,0,0,0-3-11.516,24.454,24.454,0,0,0-6.281-7.368l1.638-2.059a27.126,27.126,0,0,1,6.948,8.164,28.261,28.261,0,0,1,3.323,12.641c.531,9.912-.178,18.795-.931,28.2-.277,3.473-.562,7.037-.8,10.78-.308,4.937-.692,11.083-.572,19.167a211.54,211.54,0,0,0,1.714,24.009,182.986,182.986,0,0,0,3.781,20.717c.306,1.25.37,1.512.056,2.008h0Z" transform="translate(-19.316 -11.347)" fill="#f2f2f2"/><path d="M56.342,258.878c-.108,0-.217,0-.327-.01-2.239-.121-4.312-1.461-6.163-3.982-.868-1.186-1.312-2.539-2.2-5.237a32.833,32.833,0,0,1-1.21-5.43c-.266-1.9-.232-2.69.144-3.391a4.012,4.012,0,0,1,1.852-1.692,1.486,1.486,0,0,1,.1-.775c.448-1.1,1.639-.952,2.284-.883A6.457,6.457,0,0,0,52,237.55,3.3,3.3,0,0,0,53.622,237a7.31,7.31,0,0,1,2.2-.865,7.838,7.838,0,0,1,4.136.329c2.843.947,4.245,3.158,5.867,5.717a20.072,20.072,0,0,1,2.167,4.944,5.879,5.879,0,0,1,.3,3.281c-.323,1.255-1.087,1.974-3.027,3.561a35.258,35.258,0,0,1-3.915,3c-2.032,1.173-3.308,1.91-5,1.91h0Z" transform="translate(-9.167)" fill="#f2f2f2"/></g></g></svg>