<svg xmlns="http://www.w3.org/2000/svg" width="709.383" height="800" viewBox="0 0 709.383 800"><g transform="translate(-770.031 -183.09)"><g transform="translate(770.031 394.384)"><g transform="translate(0)"><path d="M976.874,603.068l-2.185,76.485-23.31,89.6s5.1,15.3,1.457,18.939-20.4,10.2-20.4,10.2l13.84-190.849Z" transform="translate(-879.326 -259.492)" fill="#e2e3e4"/><path d="M921.483,774.237s-8.313,18.288,3.325,19.95,65.393,6.1,62.068-3.325-43.78-18.287-43.78-18.287Z" transform="translate(-874.543 -246.014)" fill="#090814"/><path d="M927.041,540.331s8.741,47.348,14.569,55.361-2.914,66.287-2.914,66.287-13.112,83.769-7.284,96.881,4.37,8.741,3.642,16.026-2.185,13.112,0,19.667,2.185,5.828,2.914,9.469,0,23.31,0,23.31,31.323,10.927,36.422-5.1c0,0-7.284-10.2-5.1-18.211a97,97,0,0,0,3.642-24.766v-15.3l33.508-125.29,8.012-45.163s-2.185-45.891-10.2-50.262S927.041,540.331,927.041,540.331Z" transform="translate(-911.078 -264.5)" fill="#e2e3e4"/><path d="M968.413,331.038l.542,37.21,35.723.121s-9.066-29.129-5.005-35.22S968.413,331.038,968.413,331.038Z" transform="translate(-945.966 -281.225)" fill="#9f616a"/><path d="M919.846,802.962S908.919,827,924.217,829.186s85.955,8.013,81.584-4.371-57.546-24.038-57.546-24.038Z" transform="translate(-890.771 -243.771)" fill="#090814"/><ellipse cx="29.137" cy="29.137" rx="29.137" ry="29.137" transform="translate(13.785 7.802)" fill="#9f616a"/><path d="M1000.107,386.088s-25.5-32.779-45.163-18.939-26.952,46.62-26.952,46.62l4.37,91.782s10.2,46.62,8.013,48.8S942.561,558,942.561,558l77.214,2.185s-2.185-2.914,4.371-11.655-1.457-20.4,0-24.767S1000.107,386.088,1000.107,386.088Z" transform="translate(-924.412 -278.523)" fill="#6c63ff"/><path d="M936.115,559.07s1.457,18.211,12.383,21.124c4.1,1.093,7.171-.99,9.411-4.021a17.89,17.89,0,0,0,.572-20.07l-2.7-4.318Z" transform="translate(-867.705 -263.57)" fill="#9f616a"/><path d="M953.375,350.558s-.728,14.569,0,16.754,1.457,4.371,0,6.556-.728,9.47.728,10.2-2.914,7.284-1.457,11.655,2.914,5.827,3.642,7.284,1.9,4.067,1.9,4.067,21.408-45.588,38.89-34.661S1028.4,386.98,1028.4,386.98,1018.934,335.99,953.375,350.558Z" transform="translate(-952.345 -279.78)" fill="#6c63ff"/><path d="M963.091,381.755s-23.31,2.185-21.853,32.779-2.185,78.67-2.185,78.67,40.064,61.188,46.62,65.559,7.284,3.642,6.556,7.284-1.457,6.556,1.457,9.47a25.16,25.16,0,0,0,5.828,4.37s23.31-8.013,21.125-15.3-12.383-18.939-12.383-18.939-17.482-28.409-18.211-32.779-.729-3.642-2.914-5.827-8.013-10.926-8.013-15.3v-13.84l6.107-73.962a21.441,21.441,0,0,0-5.687-16.606C976.071,383.714,970.831,380.827,963.091,381.755Z" transform="translate(-930.375 -277.105)" fill="#6c63ff"/><path d="M1003.048,297.567a10.656,10.656,0,0,0,9.874-2.261,8.063,8.063,0,0,0,1.6-9.655c-1.57-2.608-4.624-3.883-7.53-4.79a66.666,66.666,0,0,0-19.8-3.02c-3.2,0-6.543.272-9.282,1.928-1.355.82-2.5,1.945-3.843,2.789-2.464,1.553-5.422,2.069-8.128,3.147a20.848,20.848,0,0,0-11.882,12.583,25.125,25.125,0,0,0-1.155,5.91,32.382,32.382,0,0,0,2.825,16.052c3.648,7.954,10.59,14.642,11.571,23.337,3.737-3.137,4.833-8.4,7.728-12.328a15.984,15.984,0,0,1,8.726-5.923,5.08,5.08,0,0,0,2.642-1.181,4.378,4.378,0,0,0,.827-2.381l1.794-12.919c.365-2.629.858-5.5,2.876-7.227a10.228,10.228,0,0,1,4.284-1.859,69.1,69.1,0,0,1,11.183-1.823" transform="translate(-945.996 -277.841)" fill="#090814"/><path d="M973.6,494.622l40.892,53.066S976.839,516.212,973.6,494.622Z" transform="translate(-961.379 -268.116)" opacity="0.1" style="isolation:isolate"/><path d="M776.669,370.338l-.388,50.117,23.75,35.624L780.6,416.137Z" transform="translate(-725.197 -202.584)" opacity="0.1" style="isolation:isolate"/></g><path d="M377.917,427.065a4.534,4.534,0,0,1-4.327-3.19c-13.138-6.847-6.192-11.675-5.287-17.11a4.524,4.524,0,0,1,2.987-5.659l13.431-4.151a4.53,4.53,0,0,1,5.66,2.988l5.288,17.11a4.53,4.53,0,0,1-2.988,5.659l-13.431,4.151A4.513,4.513,0,0,1,377.917,427.065Z" transform="translate(-301.688 -383.471)" fill="#3f3d56"/><path d="M387.337,396.347a4.55,4.55,0,0,1,4.379,3.208l5.571,17.494a4.735,4.735,0,0,1-.264,3.548,4.527,4.527,0,0,1-2.629,2.314l-3.02,1.013-8.386-26.335,3.02-1.013a4.4,4.4,0,0,1,1.33-.229Z" transform="translate(-302.331 -383.455)" fill="#6c63ff"/><path d="M315.232,437.234a2.931,2.931,0,0,1-2.8-2.062l-1.4-4.527a2.926,2.926,0,0,1,1.932-3.66l60.644-18.74a2.926,2.926,0,0,1,3.66,1.932l1.4,4.527a2.929,2.929,0,0,1-1.932,3.66L316.094,437.1a2.912,2.912,0,0,1-.863.131Z" transform="translate(-299.655 -383.892)" fill="#3f3d56"/></g><g transform="translate(1038.714 183.09)"><path d="M704.8,263.442l437.651-63.881V618.624L704.8,554.745Z" transform="translate(-703.271 -197.798)" fill="#f2f2f2"/><path d="M1144.495,620.991l-440.7-64.323V262.73l440.7-64.326ZM706.843,554.033l434.6,63.434V201.93l-434.6,63.436Z" transform="translate(-703.795 -198.405)" fill="#3f3d56"/><path d="M862.939,301.271c-.651-1.481-1.332-2.985-2.06-4.433a38.078,38.078,0,0,0-2.352-4.1,18.18,18.18,0,0,0-2.755-3.293,9.539,9.539,0,0,0-3.27-2.03,7.849,7.849,0,0,0-4.125-.274,12.9,12.9,0,0,0-4.06,1.614,27.491,27.491,0,0,0-3.9,2.845c-1.263,1.079-2.486,2.257-3.658,3.424q-5.221,5.218-10.285,10.575-5.029,5.325-9.915,10.784-4.848,5.427-9.549,10.985-4.674,5.527-9.2,11.183l.014.222,7.07-.878,7.163-.888,7.248-.9,7.339-.914c1.782-.221,3.584-.45,5.387-.747a50.676,50.676,0,0,0,5.4-1.16,32.294,32.294,0,0,0,5.294-1.966,26.656,26.656,0,0,0,5.053-3.15c.619-.491,1.234-1.019,1.854-1.544s1.243-1.042,1.877-1.507a11.994,11.994,0,0,1,1.946-1.192,6.21,6.21,0,0,1,2.059-.6,5.485,5.485,0,0,1,2.564.39,9.016,9.016,0,0,1,2.384,1.46,17.321,17.321,0,0,1,2.182,2.2,32.031,32.031,0,0,1,1.96,2.609,102.726,102.726,0,0,1,9.375,17.922c2.743,6.5,5.182,13.342,7.7,20.133,2.525,6.82,5.117,13.583,8.144,19.893a79.013,79.013,0,0,0,10.82,17.27q-4.075-13.848-8.5-27.345Q887.736,364.44,883,351.39q-4.723-12.978-9.752-25.549-5-12.5-10.31-24.57Z" transform="translate(-654.534 -151.99)" fill="#d6d6e3"/><path d="M787.882,302.247l-.108.125-.108.125-.108.123-.108.123q-.4.328-.793.665t-.786.678q-.392.343-.78.689l-.776.695q-.727.654-1.448,1.318t-1.434,1.341q-.713.677-1.42,1.372T778.6,310.89q-1.393,1.391-2.76,2.827t-2.7,2.906q-1.337,1.475-2.647,3T767.9,322.7q-.664.809-1.32,1.631t-1.3,1.652q-.647.831-1.286,1.676l-1.272,1.687-.091-.152-.09-.152-.088-.152-.081-.174-.021-.04-.021-.04-.02-.04-.02-.041a27.35,27.35,0,0,1-2.112-5.486,33.645,33.645,0,0,1-1.041-6.1,36.423,36.423,0,0,1,.052-6.343,34.7,34.7,0,0,1,1.175-6.248,29.049,29.049,0,0,1,2.219-5.581,21.8,21.8,0,0,1,3.048-4.42,15.26,15.26,0,0,1,3.689-3.033,11.074,11.074,0,0,1,4.145-1.423,9.922,9.922,0,0,1,4.221.383,11.93,11.93,0,0,1,3.9,2.134,16.871,16.871,0,0,1,3.363,3.717,24,24,0,0,1,2.6,5.143l.012.032.012.034.012.034.011.032.073.2.072.2.07.206Z" transform="translate(-674.858 -150.491)" fill="#6c63ff"/><path d="M779.089,388.791q2.422.271,4.852.668t4.877.914q2.452.524,4.91,1.175t4.935,1.433a122.178,122.178,0,0,1,14.9,5.849,140.275,140.275,0,0,1,14.865,8.115,162.568,162.568,0,0,1,14.711,10.4,188.481,188.481,0,0,1,14.417,12.693q2.368,2.3,4.7,4.724t4.631,4.971q2.3,2.55,4.558,5.215t4.479,5.456l.544.686.542.69.541.693.54.7a.441.441,0,0,0,.364.2.435.435,0,0,0,.317-.181.7.7,0,0,0,.143-.405.73.73,0,0,0-.152-.472q-2.21-2.862-4.47-5.611t-4.56-5.367q-2.286-2.621-4.628-5.128t-4.7-4.877q-2.361-2.371-4.756-4.624t-4.808-4.374q-2.413-2.121-4.856-4.115t-4.9-3.866q-2.458-1.871-4.936-3.619t-4.962-3.37q-2.483-1.615-4.982-3.107t-5-2.858q-2.493-1.358-5-2.591t-5-2.332q-2.49-1.1-4.994-2.076t-4.986-1.82q-2.481-.843-4.959-1.559t-4.938-1.3q-2.46-.585-4.914-1.046t-4.884-.794l-.61-.082-.61-.078-.622-.073-.613-.069a.273.273,0,0,0-.152.043.411.411,0,0,0-.122.123.64.64,0,0,0-.079.184.864.864,0,0,0-.03.232.9.9,0,0,0,.03.229.744.744,0,0,0,.081.2.5.5,0,0,0,.122.14.307.307,0,0,0,.152.064Z" transform="translate(-664.544 -99.282)" fill="#6c63ff"/><path d="M778.089,363.61q4.327.617,8.7,1.257t8.839,1.356q4.462.718,8.966,1.524,4.528.823,9.094,1.78,4.6.915,9.234,2.077,4.656,1.163,9.337,2.566,4.706,1.411,9.433,3.066,4.749,1.678,9.516,3.594,4.238,1.709,8.458,3.726t8.449,4.351q4.229,2.347,8.421,5t8.382,5.646q3.917,2.806,7.746,5.944t7.588,6.629q3.758,3.491,7.4,7.3t7.19,7.967q3.505,4.1,6.8,8.554t6.4,9.266q3.1,4.813,5.953,9.936t5.469,10.563q.325.686.645,1.372t.636,1.385q.315.695.626,1.394t.61,1.4a.608.608,0,0,0,.338.358.424.424,0,0,0,.377-.053.609.609,0,0,0,.245-.355.835.835,0,0,0-.057-.547q-2.47-5.614-5.223-10.954T931.9,449.4q-2.993-5-6.232-9.685T919,430.732q-3.461-4.325-7.065-8.336t-7.306-7.667q-3.7-3.658-7.518-6.984t-7.695-6.289q-4.044-3.088-8.147-5.872t-8.211-5.236q-4.115-2.455-8.255-4.6t-8.281-3.973q-4.792-2.091-9.574-3.914-4.755-1.813-9.5-3.353t-9.415-2.824q-4.67-1.271-9.316-2.286-4.654-1.067-9.27-1.961-4.59-.9-9.144-1.663-4.525-.762-9.006-1.445-4.447-.675-8.867-1.3l-1.09-.152-1.087-.152-1.085-.16-1.082-.152a.276.276,0,0,0-.286.152.793.793,0,0,0-.094.4.958.958,0,0,0,.1.43.392.392,0,0,0,.285.224Z" transform="translate(-665.067 -112.473)" fill="#6c63ff"/><path d="M970.513,502.321q-.7-1.219-1.4-2.449t-1.39-2.449q-.693-1.219-1.382-2.448l-1.372-2.448q-5.567-9.947-10.906-19.925-5.309-9.923-10.4-19.883-5.063-9.906-9.906-19.859-4.825-9.906-9.449-19.851-3.125-6.73-6.152-13.477t-5.943-13.469q-2.914-6.724-5.733-13.467t-5.532-13.469q-1.292-3.2-2.563-6.4t-2.518-6.4q-1.247-3.2-2.472-6.4t-2.427-6.4q-.933-2.481-1.853-4.965t-1.829-4.967q-.906-2.483-1.8-4.967t-1.774-4.968q-.251-.71-.5-1.42t-.494-1.422q-.245-.712-.489-1.423l-.486-1.425q-.571-1.676-1.14-3.353t-1.14-3.344q-.571-1.667-1.154-3.324t-1.18-3.295c-.457-1.244-.933-2.5-1.448-3.737s-1.067-2.447-1.66-3.6a29.062,29.062,0,0,0-1.937-3.261,17.818,17.818,0,0,0-2.286-2.713,9.346,9.346,0,0,0-1.177-1,8.12,8.12,0,0,0-1.265-.744,7.339,7.339,0,0,0-1.332-.477,6.948,6.948,0,0,0-1.379-.2,6.571,6.571,0,0,0-1.955.274,9.688,9.688,0,0,0-1.878.786,16.879,16.879,0,0,0-1.806,1.143c-.591.422-1.17.879-1.74,1.343q-6.241,5.128-12.192,10.686-5.9,5.518-11.506,11.448-5.567,5.889-10.831,12.169-5.232,6.239-10.159,12.853-4.906,6.553-9.494,13.42-4.563,6.834-8.81,13.975-4.224,7.1-8.133,14.5-3.878,7.35-7.445,14.988a.408.408,0,0,1-.271.258.336.336,0,0,1-.291-.094.61.61,0,0,1-.181-.331.726.726,0,0,1,.058-.457q.433-.928.87-1.853t.882-1.839q.444-.914.89-1.838t.9-1.829q5.65-11.39,12.014-22.118,6.4-10.8,13.525-20.889,7.172-10.165,15.051-19.566,7.947-9.478,16.6-18.135,1.463-1.462,2.946-2.9t2.988-2.848q1.506-1.413,3.031-2.8t3.072-2.751q.781-.687,1.565-1.372t1.576-1.359q.791-.677,1.588-1.341t1.6-1.314a16.188,16.188,0,0,1,1.593-1.283,14.376,14.376,0,0,1,1.676-1.015,12.954,12.954,0,0,1,1.739-.744,11.876,11.876,0,0,1,1.787-.457,7.648,7.648,0,0,1,5.531,1.7,18.008,18.008,0,0,1,4.311,5.224,50.312,50.312,0,0,1,3.318,7.059c.968,2.472,1.807,4.96,2.563,7.184q.356,1.05.715,2.1t.721,2.1q.361,1.048.725,2.1t.731,2.1q1.387,3.981,2.806,7.955t2.873,7.952q1.454,3.979,2.94,7.952T894.156,339q.941,2.457,1.891,4.909t1.917,4.91q.966,2.457,1.945,4.91t1.964,4.906q3.094,7.661,6.308,15.295,3.225,7.661,6.571,15.3,3.353,7.666,6.841,15.31,3.5,7.673,7.12,15.328,4.822,10.186,9.865,20.327,5.07,10.2,10.363,20.351,5.334,10.211,10.895,20.394,5.6,10.24,11.444,20.453a.954.954,0,0,1,.122.571.871.871,0,0,1-.184.457.427.427,0,0,1-.346.177.475.475,0,0,1-.358-.274Z" transform="translate(-664.942 -156.909)" fill="#6c63ff"/><path d="M822.28,314.306l-.329-.532-.329-.532-.329-.532-.331-.532c-.872-1.395-1.757-2.781-2.668-4.124s-1.85-2.647-2.827-3.857a34.919,34.919,0,0,0-3.048-3.371,21.9,21.9,0,0,0-3.353-2.669,13.619,13.619,0,0,0-1.71-.963,12.292,12.292,0,0,0-1.765-.671,11.484,11.484,0,0,0-1.8-.376,11.16,11.16,0,0,0-1.829-.078,13.773,13.773,0,0,0-1.88.317,14.61,14.61,0,0,0-1.849.578,15.853,15.853,0,0,0-1.806.832,17.561,17.561,0,0,0-1.751,1.081q-.408.27-.812.556t-.8.584q-.4.3-.794.61t-.786.629q-.447.366-.89.742t-.883.762q-.439.382-.876.77l-.87.776q-.815.73-1.623,1.472t-1.608,1.5q-.8.762-1.592,1.524t-1.577,1.548Q780,311.9,778.465,313.5t-3.025,3.246q-1.5,1.644-2.961,3.339t-2.9,3.432q-.742.9-1.475,1.815t-1.457,1.838q-.724.925-1.437,1.862t-1.419,1.885q-.656.881-1.3,1.771t-1.286,1.791q-.638.9-1.27,1.809t-1.254,1.829a.3.3,0,0,1-.282.165.372.372,0,0,1-.249-.184.762.762,0,0,1-.113-.382.694.694,0,0,1,.117-.422l.329-.492.331-.485.332-.483.332-.48q.469-.677.943-1.347t.952-1.338q.479-.666.963-1.327t.972-1.317q.89-1.2,1.8-2.377t1.829-2.341q.914-1.154,1.847-2.3t1.884-2.266q1.477-1.751,2.985-3.452t3.048-3.353q1.545-1.657,3.121-3.261t3.191-3.165q.806-.779,1.62-1.544t1.637-1.524q.823-.753,1.652-1.492t1.669-1.466l.507-.436q.255-.216.512-.43t.515-.424q.259-.21.518-.415.59-.485,1.192-.934t1.219-.863q.61-.415,1.239-.791t1.26-.718a13.95,13.95,0,0,1,1.829-.837,12.708,12.708,0,0,1,1.871-.538,11.954,11.954,0,0,1,1.9-.236,11.746,11.746,0,0,1,1.905.073,13.437,13.437,0,0,1,1.829.428,14.313,14.313,0,0,1,1.783.687A15.6,15.6,0,0,1,809.4,297a17.366,17.366,0,0,1,1.667,1.193,27.242,27.242,0,0,1,3.295,3.092,44.844,44.844,0,0,1,3.01,3.709c.966,1.317,1.9,2.7,2.81,4.115s1.807,2.857,2.7,4.295a.793.793,0,0,1,.11.471.9.9,0,0,1-.137.422.409.409,0,0,1-.271.2A.314.314,0,0,1,822.28,314.306Z" transform="translate(-675.373 -147.867)" fill="#6c63ff"/><path d="M869.6,352.616l13.615-6.587,6.872-3.324q.838-.447,1.684-.864t1.705-.809q.858-.392,1.727-.753t1.743-.7a8.583,8.583,0,0,1,1.554-.427,8.282,8.282,0,0,1,3.161.059,8.8,8.8,0,0,1,1.556.488,12.978,12.978,0,0,1,1.341.762,14.047,14.047,0,0,1,1.275.934,15.386,15.386,0,0,1,1.2,1.1,16.772,16.772,0,0,1,1.117,1.257q.547.668,1.076,1.361t1.039,1.413q.51.719,1,1.465t.96,1.515q.584.927,1.166,1.859t1.161,1.87l1.16,1.876,1.163,1.879q2.4,3.885,4.813,7.8t4.834,7.871q2.425,3.962,4.854,7.946t4.877,8.021l4.895,8.1q2.456,4.063,4.915,8.173T951,413.15q2.469,4.136,4.954,8.328t4.987,8.428q2.495,4.229,5.006,8.505T970.972,447q2.518,4.307,5.047,8.665l.62,1.067.62,1.067.62,1.067.62,1.067a.68.68,0,0,0,.417.343.566.566,0,0,0,.44-.075.61.61,0,0,0,.267-.373.743.743,0,0,0-.1-.552q-2.558-4.409-5.11-8.787t-5.09-8.707q-2.536-4.327-5.069-8.624t-5.049-8.534q-2.522-4.257-5.04-8.485t-5.018-8.4q-2.5-4.177-5-8.326t-4.983-8.246q-2.481-4.1-4.958-8.168t-4.936-8.091q-2.459-4.02-4.916-8.013t-4.9-7.935l-1.219-1.964-1.219-1.96-1.219-1.955-1.219-1.951-1.021-1.644q-.511-.823-1.029-1.632t-1.052-1.6q-.532-.791-1.09-1.551a31.084,31.084,0,0,0-2.168-2.665,18.969,18.969,0,0,0-2.414-2.239,11.6,11.6,0,0,0-2.64-1.556,8.119,8.119,0,0,0-2.9-.619,14.7,14.7,0,0,0-1.753.186,15.025,15.025,0,0,0-1.725.393,15.612,15.612,0,0,0-1.686.6,16.442,16.442,0,0,0-1.637.8l-1.751.844-1.745.846-1.739.846-1.728.843-13.786,6.683-3.4,1.649a.593.593,0,0,0-.3.37,1.047,1.047,0,0,0-.023.507.712.712,0,0,0,.2.4A.329.329,0,0,0,869.6,352.616Z" transform="translate(-617.243 -125.462)" fill="#6c63ff"/><path d="M791.843,297.085l-.635.762a23.845,23.845,0,0,0-4.56-6.324,15.6,15.6,0,0,0-5.515-3.546,12.253,12.253,0,0,0-5.975-.625,14.1,14.1,0,0,0-5.96,2.42,21.131,21.131,0,0,0-5.166,5.207,31.455,31.455,0,0,0-3.767,7.215,40.727,40.727,0,0,0-2.155,8.582,44.531,44.531,0,0,0-.319,9.339,42.191,42.191,0,0,0,.576,4.633,38.55,38.55,0,0,0,1.058,4.375,33.643,33.643,0,0,0,1.515,4.031,28.148,28.148,0,0,0,1.946,3.6l-.538.841a29.336,29.336,0,0,1-2.025-3.751,34.992,34.992,0,0,1-1.577-4.2,40.145,40.145,0,0,1-1.1-4.554,43.913,43.913,0,0,1-.6-4.822,46.408,46.408,0,0,1,.332-9.718,42.423,42.423,0,0,1,2.24-8.932,32.754,32.754,0,0,1,3.918-7.512,22.022,22.022,0,0,1,5.377-5.425,14.689,14.689,0,0,1,6.206-2.528,12.76,12.76,0,0,1,6.224.643,16.228,16.228,0,0,1,5.747,3.688A24.823,24.823,0,0,1,791.843,297.085Z" transform="translate(-675.954 -152.494)" fill="#6c63ff"/><path d="M823.107,359.377a2.351,2.351,0,0,1-.355-.395,2.967,2.967,0,0,1-.285-.489,3.608,3.608,0,0,1-.206-.565,4.083,4.083,0,0,1-.117-.623,4.254,4.254,0,0,1-.021-.643,4.142,4.142,0,0,1,.076-.626,3.782,3.782,0,0,1,.168-.588,3.172,3.172,0,0,1,.256-.527l-2.646-38.252,4.419.3,1.231,37.795a3.245,3.245,0,0,1,.428.9,4.081,4.081,0,0,1,.174,1.026,4.188,4.188,0,0,1-.087,1.045,3.517,3.517,0,0,1-.35.96,2.5,2.5,0,0,1-.567.712,1.708,1.708,0,0,1-.677.375,1.444,1.444,0,0,1-.732,0A1.751,1.751,0,0,1,823.107,359.377Z" transform="translate(-642.92 -136.437)" fill="#9e616a"/><path d="M826.6,318.284l-1.166,12.765.161,7.8-4.867.69-.971-6.449-.538-17.084a7.256,7.256,0,0,1,.2-1.919,6.175,6.175,0,0,1,.645-1.644,4.409,4.409,0,0,1,1.007-1.219,2.95,2.95,0,0,1,1.28-.626h0a2.485,2.485,0,0,1,1.391.116,3.2,3.2,0,0,1,1.2.843,4.83,4.83,0,0,1,.891,1.436,6.586,6.586,0,0,1,.457,1.894Z" transform="translate(-643.318 -139.644)" fill="#2f2e41"/><path d="M813.4,394.046l-2.871-.2-1.361-16.235,4.232.227Z" transform="translate(-648.581 -104.503)" fill="#9e616a"/><path d="M815.6,393.106l-9.217-.654v-.171a7.19,7.19,0,0,1,.28-2.018,5.4,5.4,0,0,1,.762-1.612,3.508,3.508,0,0,1,1.135-1.047,2.5,2.5,0,0,1,1.393-.32h0l5.648.373Z" transform="translate(-650.043 -99.439)" fill="#2f2e41"/><path d="M829.384,395.24l-2.992-.2-1.419-16.575,4.41.238Z" transform="translate(-640.301 -104.06)" fill="#9e616a"/><path d="M831.667,394.28l-9.6-.681v-.174a7.188,7.188,0,0,1,.291-2.059,5.445,5.445,0,0,1,.8-1.644,3.614,3.614,0,0,1,1.183-1.067,2.647,2.647,0,0,1,1.451-.325h0l5.881.39Z" transform="translate(-641.825 -98.891)" fill="#2f2e41"/><path d="M822.469,294.583a4.56,4.56,0,0,1,2.487.588,6.366,6.366,0,0,1,2.039,1.87,9.6,9.6,0,0,1,1.371,2.868,12.535,12.535,0,0,1,.506,3.578,13.025,13.025,0,0,1-.506,3.625,10.7,10.7,0,0,1-1.372,3,7.313,7.313,0,0,1-2.039,2.062,4.9,4.9,0,0,1-2.487.823,4.581,4.581,0,0,1-2.476-.625,6.429,6.429,0,0,1-2.015-1.885,9.65,9.65,0,0,1-1.356-2.854,12.54,12.54,0,0,1-.5-3.543,13.031,13.031,0,0,1,.5-3.589,10.756,10.756,0,0,1,1.355-2.984,7.387,7.387,0,0,1,2.016-2.068,4.94,4.94,0,0,1,2.476-.866Z" transform="translate(-644.936 -148.012)" fill="#9e616a"/><path d="M825.767,309.135l4.441.572h0a19.687,19.687,0,0,1,1.34,3.525,22.894,22.894,0,0,1,.707,3.848,24.445,24.445,0,0,1,.064,4.005,23.924,23.924,0,0,1-.6,3.984l-3.353,14.043s.291.837.727,2.286,1.02,3.52,1.6,5.982,1.169,5.32,1.606,8.345a65.883,65.883,0,0,1,.731,9.351,120.041,120.041,0,0,0,1.4,14.26c.84,5.983,1.96,12.8,3.083,19.233s2.253,12.512,3.1,16.97,1.414,7.315,1.414,7.315l-12.62,1.12-5.427-47.591L816.588,423l-8.326-2.478,4.572-60.859,3.039-20.153.13-9.84s-.081-.457-.152-1.219a24.567,24.567,0,0,1-.091-3.048,19.455,19.455,0,0,1,.518-3.953,12.244,12.244,0,0,1,1.677-3.936l3.988-8.2Z" transform="translate(-649.057 -140.383)" fill="#cacaca"/><path d="M815.441,301.28l9.327-.468v-5.905a15.392,15.392,0,0,0-1.526-.721,5.063,5.063,0,0,0-1.434-.376,2.2,2.2,0,0,0-1.274.245,2.716,2.716,0,0,0-1.045,1.143,3.142,3.142,0,0,0-1.579.552,4.722,4.722,0,0,0-1.286,1.327,6.889,6.889,0,0,0-.866,1.907A8.362,8.362,0,0,0,815.441,301.28Z" transform="translate(-645.296 -148.423)" fill="#2f2e41"/><path d="M824.373,293.822a4.363,4.363,0,0,1,3.505,1.486,11.082,11.082,0,0,1,2.227,4.017,27.482,27.482,0,0,1,1.169,5.165,37.374,37.374,0,0,1,.338,4.915,10.055,10.055,0,0,1-.183,2.053,4.547,4.547,0,0,1-.523,1.413,2.889,2.889,0,0,1-.821.895,3.5,3.5,0,0,1-1.077.5l-.561-4.267-1.312,4.528-.338.012-.346.009h-.712l-.443-1.3-.986,1.327c-.986.04-1.923.13-2.775.152a6.37,6.37,0,0,1-2.254-.248,2.59,2.59,0,0,1-1.513-1.341,7,7,0,0,1-.557-3.12,40.578,40.578,0,0,1,.3-4.884,28.869,28.869,0,0,1,1.1-5.22A12.2,12.2,0,0,1,820.8,295.7,5,5,0,0,1,824.373,293.822Z" transform="translate(-644.374 -148.41)" fill="#2f2e41"/><path d="M817.3,338.013l-.235-14.769-.622-6.544-1.533,6.53Z" transform="translate(-645.572 -136.42)" opacity="0.2" style="isolation:isolate"/><path d="M826.648,339.644l-7.071.07V309.858l7.071-.25a3.738,3.738,0,0,1,2,.512,5.258,5.258,0,0,1,1.638,1.524,7.84,7.84,0,0,1,1.108,2.315,10.074,10.074,0,0,1,.408,2.873v15.356a10.252,10.252,0,0,1-.408,2.887,8.255,8.255,0,0,1-1.108,2.365,5.622,5.622,0,0,1-1.638,1.6,3.866,3.866,0,0,1-2,.61Z" transform="translate(-643.128 -140.138)" fill="#6c63ff"/><path d="M823.876,323.06a.653.653,0,0,1-.347-.093.925.925,0,0,1-.283-.268,1.362,1.362,0,0,1-.192-.4,1.759,1.759,0,0,1-.072-.5V310.656l1.789-.061v11.156a1.81,1.81,0,0,1-.07.5,1.456,1.456,0,0,1-.2.413.994.994,0,0,1-.285.282.679.679,0,0,1-.347.11Z" transform="translate(-641.345 -139.619)" fill="#3f3d56"/><path d="M827.153,330.418l-5.192.062a.826.826,0,0,1-.437-.122,1.187,1.187,0,0,1-.357-.343,1.77,1.77,0,0,1-.241-.51,2.232,2.232,0,0,1-.088-.629v-4.455a2.26,2.26,0,0,1,.089-.631,1.836,1.836,0,0,1,.241-.515,1.24,1.24,0,0,1,.357-.357.85.85,0,0,1,.437-.136l5.192-.1a.836.836,0,0,1,.442.12,1.184,1.184,0,0,1,.36.341,1.754,1.754,0,0,1,.244.514,2.227,2.227,0,0,1,.09.632v4.482a2.26,2.26,0,0,1-.09.634,1.829,1.829,0,0,1-.244.52,1.241,1.241,0,0,1-.36.355A.856.856,0,0,1,827.153,330.418Z" transform="translate(-642.468 -133.283)" fill="#3f3d56"/><path d="M816.07,329.175a15.373,15.373,0,0,1-.914-2.007,17.562,17.562,0,0,1-.657-2.192,19.359,19.359,0,0,1-.389-2.329,20.259,20.259,0,0,1-.11-2.413,22.439,22.439,0,0,1,.472-4.625,16.234,16.234,0,0,1,1.282-3.81,8.438,8.438,0,0,1,1.9-2.623A3.769,3.769,0,0,1,820,308.154a3.943,3.943,0,0,1,1.413.318,4.785,4.785,0,0,1,1.279.822,6.344,6.344,0,0,1,1.093,1.271,8.332,8.332,0,0,1,.844,1.667l-.5.472a7.521,7.521,0,0,0-.745-1.5,5.736,5.736,0,0,0-.973-1.146,4.332,4.332,0,0,0-1.144-.754A3.554,3.554,0,0,0,820,309a3.352,3.352,0,0,0-2.111.948,7.813,7.813,0,0,0-1.719,2.432,15.359,15.359,0,0,0-1.158,3.543,21.4,21.4,0,0,0-.424,4.3,19.087,19.087,0,0,0,.1,2.265,18.1,18.1,0,0,0,.361,2.185,16.474,16.474,0,0,0,.609,2.059,14.432,14.432,0,0,0,.857,1.887Z" transform="translate(-646.052 -140.899)" fill="#6c63ff"/><path d="M817.79,361.727a2.726,2.726,0,0,1-.369-.457,3.429,3.429,0,0,1-.288-.565,4.06,4.06,0,0,1-.2-.632,4.471,4.471,0,0,1-.1-.687,4.666,4.666,0,0,1,0-.7,4.425,4.425,0,0,1,.107-.675,3.947,3.947,0,0,1,.206-.625,3.273,3.273,0,0,1,.3-.552l-1.3-41.847,4.775.7-.215,41.259a3.721,3.721,0,0,1,.427,1.013,4.494,4.494,0,0,1,.017,2.259,3.68,3.68,0,0,1-.431,1.015,2.546,2.546,0,0,1-.643.724,1.757,1.757,0,0,1-.762.334,1.564,1.564,0,0,1-.79-.07,2,2,0,0,1-.745-.488Z" transform="translate(-644.926 -137.32)" fill="#9e616a"/><path d="M823.364,317.192,821.578,331l-.145,8.51-5.294.34-.786-7.1.118-18.655a7.869,7.869,0,0,1,.286-2.076,6.494,6.494,0,0,1,.762-1.739,4.538,4.538,0,0,1,1.143-1.242,3.05,3.05,0,0,1,1.411-.578h0a2.712,2.712,0,0,1,1.5.241,3.656,3.656,0,0,1,1.27,1.018,5.54,5.54,0,0,1,.906,1.64,7.414,7.414,0,0,1,.413,2.1Z" transform="translate(-645.342 -140.746)" fill="#cacaca"/><path d="M820.959,396.3a1.178,1.178,0,0,1,.716-.8,2.921,2.921,0,0,1,1.423-.152,7.768,7.768,0,0,1,1.931.491,13.688,13.688,0,0,1,2.239,1.107,15.972,15.972,0,0,1,2.134,1.547,12.574,12.574,0,0,1,1.638,1.676,6.566,6.566,0,0,1,.98,1.618,2.211,2.211,0,0,1,.16,1.35,1.182,1.182,0,0,1-.73.808,2.973,2.973,0,0,1-1.443.14,7.915,7.915,0,0,1-1.946-.5,13.809,13.809,0,0,1-2.242-1.12,15.952,15.952,0,0,1-2.121-1.544,12.481,12.481,0,0,1-1.619-1.676,6.488,6.488,0,0,1-.963-1.6A2.206,2.206,0,0,1,820.959,396.3Z" transform="translate(-642.425 -95.227)" fill="#6c63ff"/><path d="M834.318,396.323a1.024,1.024,0,0,1,.835-.622,3.165,3.165,0,0,1,1.483.2,9.365,9.365,0,0,1,1.928.965,16.958,16.958,0,0,1,2.176,1.657,19.873,19.873,0,0,1,2.007,2.067,15.341,15.341,0,0,1,1.477,2.079,7.579,7.579,0,0,1,.811,1.85,2.193,2.193,0,0,1,0,1.379,1.029,1.029,0,0,1-.849.62,3.232,3.232,0,0,1-1.5-.219,9.54,9.54,0,0,1-1.942-.983,17.126,17.126,0,0,1-2.17-1.676,19.809,19.809,0,0,1-1.992-2.057,15.2,15.2,0,0,1-1.462-2.063,7.5,7.5,0,0,1-.8-1.832A2.19,2.19,0,0,1,834.318,396.323Z" transform="translate(-635.462 -95.034)" fill="#6c63ff"/><path d="M840.511,409.692a1.058,1.058,0,0,1,.826-.667,3.2,3.2,0,0,1,1.507.136,9.329,9.329,0,0,1,1.981.881,16.822,16.822,0,0,1,2.251,1.57,19.607,19.607,0,0,1,2.1,1.992,15.153,15.153,0,0,1,1.567,2.029,7.511,7.511,0,0,1,.881,1.829,2.209,2.209,0,0,1,.044,1.395,1.067,1.067,0,0,1-.84.666,3.268,3.268,0,0,1-1.524-.152,9.5,9.5,0,0,1-2-.9,16.983,16.983,0,0,1-2.254-1.577,19.662,19.662,0,0,1-2.086-1.99,15.1,15.1,0,0,1-1.547-2.016,7.45,7.45,0,0,1-.865-1.81,2.206,2.206,0,0,1-.044-1.381Z" transform="translate(-632.206 -88.063)" fill="#6c63ff"/><path d="M853.809,415.3a1.08,1.08,0,0,1,.853-.674,3.367,3.367,0,0,1,1.559.152,9.809,9.809,0,0,1,2.051.914,17.568,17.568,0,0,1,2.329,1.606,20.384,20.384,0,0,1,2.17,2.036,15.633,15.633,0,0,1,1.622,2.079,7.666,7.666,0,0,1,.914,1.867,2.213,2.213,0,0,1,.046,1.417,1.085,1.085,0,0,1-.869.672,3.44,3.44,0,0,1-1.58-.165,9.992,9.992,0,0,1-2.066-.93,17.714,17.714,0,0,1-2.332-1.625,20.34,20.34,0,0,1-2.156-2.039,15.512,15.512,0,0,1-1.6-2.06,7.592,7.592,0,0,1-.9-1.849A2.214,2.214,0,0,1,853.809,415.3Z" transform="translate(-625.24 -85.129)" fill="#6c63ff"/><path d="M796.627,302.56a13.348,13.348,0,0,0-4.462-2.042,11.648,11.648,0,0,0-4.583-.184,13.017,13.017,0,0,0-4.462,1.609,17.345,17.345,0,0,0-4.1,3.348q3.569.776,7.149,1.718t7.2,2.06q3.618,1.12,7.24,2.409t7.278,2.763a29.037,29.037,0,0,1-2.886-2.831c-.924-1.021-1.829-2.1-2.72-3.165s-1.8-2.115-2.731-3.086a21.951,21.951,0,0,0-2.915-2.6Z" transform="translate(-664.382 -145.071)" fill="#6c63ff"/><path d="M779.34,303.528,778.3,304.87q.133-.175.267-.346t.271-.337q.137-.166.277-.326l.281-.319Z" transform="translate(-664.758 -143.324)" fill="#6c63ff"/><path d="M896.723,349.737A16.044,16.044,0,0,0,895.7,348a14.409,14.409,0,0,0-1.192-1.524,12.82,12.82,0,0,0-1.342-1.288,11.375,11.375,0,0,0-1.462-1.033l-1.947.085q5.568,13.077,12.172,25.478,6.643,12.474,14.31,24.207,7.722,11.812,16.459,22.812,8.812,11.082,18.64,21.269l-14.082-22.762-13.792-22.29-13.51-21.832Z" transform="translate(-606.356 -122.032)" fill="#6c63ff"/></g></g></svg>