<?xml version="1.0" encoding="UTF-8"?><svg id="uuid-d9c3a1a4-8a22-4508-b599-4ec60cf1c3eb" xmlns="http://www.w3.org/2000/svg" width="505.94587" height="764.69444" viewBox="0 0 505.94587 764.69444"><path d="M342.92666,293.11233c1.89609-40.70345-29.56357-75.23729-70.26702-77.13338-40.70345-1.89609-75.23756,29.56355-77.13365,70.26701-1.53774,33.01079,18.86529,61.95981,48.3436,72.73596l9.8613,94.82287,75.45156-57.14319s-14.7597-20.7171-22.12461-43.64461c20.50297-12.27192,34.67358-34.24646,35.86882-59.90466Z" fill="#ed9da0"/><path d="M49.67042,538.2894l-21.69693-71.9653s-40.67996,157.44474-1.40563,157.44474,107.42686-48.51536,107.42686-48.51536l-52.16765-63.48539-32.15666,26.52131Z" fill="#ed9da0"/><polygon points="485.404 572.59583 485.1535 681.52522 469.23222 763.19188 372.92579 762.96171 412.38047 578.71886 485.404 572.59583" fill="#ed9da0"/><path d="M245.46454,374.83885l-35.23139,21.36986s-72.77304,6.93077-79.7038,32.34357c-6.93077,25.41281-25.41281,25.41281-24.25768,40.42946l-35.80895,45.04997s49.09292,52.5583,49.09292,68.73009,31.76601-8.94095,31.76601-8.94095v189.94858h253.75578l6.72548-159.06021s63.53202-45.04997,80.85893-12.7064l-18.48204-77.39355s1.15513-56.60125-35.80895-84.32431l-87.78969-41.58459s-7.25783-12.47624-34.98089-14.78649l-19.3101,47.13006-42.73972,27.72306-8.08589-73.92816Z" fill="#6c63ff"/><path d="M287.97108,252.56609c26.77592,12.53983,42.50134,45.00251,35.74337,73.78666,7.28254-12.37658,14.56508-24.75316,21.84762-37.12974,2.17453-3.69559,4.37214-7.4446,5.52053-11.57584,1.5887.78957,3.1774,1.57914,4.7661,2.36872,1.51842-6.29673-.19686-13.28494-4.45817-18.16301,2.48388.84338,4.96777,1.68677,7.45165,2.53015-1.80124-17.89716-9.88932-35.09914-22.52318-47.90298l11.21406,2.22386c-8.23147-10.95323-23.21764-16.34143-36.53924-13.1375l4.06324,2.66066c-5.68481-16.86851-23.25892-28.93388-41.04354-28.17813,2.90599,2.17033,5.81198,4.34065,8.71797,6.51098-11.44063-10.68542-29.70105-8.98618-44.43485-3.69644-14.7338,5.28974-28.91581,13.54906-44.56493,13.96255.94302,4.11071,4.56673,7.46872,8.73722,8.09659l-3.19004-1.42426c-8.89671,11.10478-22.64977,18.17161-36.85817,18.93907,3.8289,6.28749,9.59772,11.37506,16.31453,14.38795-6.20625-.15348-12.4125-.30695-18.61876-.46043,4.37928,3.94454,8.75856,7.88907,13.13783,11.83361l-.77857,1.72104c3.00742,18.64189,10.91796,36.47059,22.72155,51.20965,2.3868-20.76608,15.64696-39.97398,34.2185-49.56694,18.57154-9.59296,41.90999-9.28973,60.22603.78248l-1.67075.2213Z" fill="#090814"/><path d="M88.8455,371.49163l-8.91879,178.25885-61.78959,4.27,21.65657-184.87889c-8.54695-9.11965-13.66076-22.72087-12.94373-37.68746,1.25465-26.18766,19.84063-46.57499,41.51319-45.53671,21.67255,1.03836,38.22436,23.10906,36.9697,49.2968-.71703,14.96667-7.10811,28.01658-16.48736,36.27742Z" fill="#ed9da0"/><path d="M504.79067,15.96362v36.59464H1.15506V15.96362C1.15506,7.79707,7.79704,1.15508,15.96359,1.15508h474.01855c8.16655,0,14.80853,6.64198,14.80853,14.80853Z" fill="#090814"/><circle cx="30.61081" cy="29.45571" r="8.08589" fill="#fff"/><circle cx="59.489" cy="29.45571" r="8.08589" fill="#fff"/><circle cx="88.36719" cy="29.45571" r="8.08589" fill="#fff"/><path d="M489.98165,764.69444H15.9631c-8.80221,0-15.9631-7.16202-15.9631-15.96422V15.9631C0,7.16089,7.16089,0,15.9631,0h474.01855c8.80221,0,15.96422,7.16089,15.96422,15.9631v732.76712c0,8.80221-7.16202,15.96422-15.96422,15.96422ZM15.9631,2.31026c-7.52863,0-13.65284,6.12421-13.65284,13.65284v732.76712c0,7.52863,6.12421,13.65397,13.65284,13.65397h474.01855c7.52863,0,13.65397-6.12533,13.65397-13.65397V15.9631c0-7.52863-6.12533-13.65284-13.65397-13.65284H15.9631Z"/></svg>