<?xml version="1.0" encoding="UTF-8"?><svg id="uuid-c9cc248d-a126-438c-8ac3-885c0998dba3" xmlns="http://www.w3.org/2000/svg" width="731.50287" height="668.45532" viewBox="0 0 731.50287 668.45532"><path d="m507.15271,667.41724h-218.64719c-28.48962,0-51.66785-23.17792-51.66785-51.66785V51.66784c0-28.48992,23.17822-51.66784,51.66785-51.66784h218.64719c28.48993,0,51.66785,23.17792,51.66785,51.66784v564.08155c0,28.48993-23.17792,51.66785-51.66785,51.66785Z" fill="#2f2e41" stroke-width="0"/><path d="m507.37555,653.47308h-219.09283c-21.37701,0-38.76852-17.39178-38.76852-38.76849V49.54354c0-21.37672,17.39148-38.76852,38.76852-38.76852h219.09283c21.37671,0,38.76849,17.3918,38.76849,38.76852v565.16099c0,21.37671-17.39178,38.76849-38.76852,38.76849l.00003.00006Z" fill="#fff" stroke-width="0"/><path d="m432.05566,47.53684h-69.7207c-8.03824,0-14.57797-6.53941-14.57797-14.57796s6.53973-14.57796,14.57797-14.57796h69.7207c8.03854,0,14.57797,6.53941,14.57797,14.57796s-6.5394,14.57796-14.57797,14.57796Z" fill="#2f2e41" stroke-width="0"/><polygon points="181.46603 277.2319 206.72923 285.53726 206.72923 249.16597 183.80594 249.16597 181.46603 277.2319" fill="#a0616a" stroke-width="0"/><circle cx="203.60509" cy="234.05947" r="25.1732" fill="#a0616a" stroke-width="0"/><path d="m197.18964,236.02654l3.47127,4.21696,6.27402-10.97952s8.00964.41141,8.00964-5.52834,7.35397-6.10689,7.35397-6.10689c0,0,10.40097-18.16637-11.14665-13.38371,0,0-14.95222-10.2467-22.38332-1.49136,0,0-22.79472,11.48093-16.27644,31.47292l10.8381,20.59625,2.45561-4.66695s-1.49136-19.58058,11.40379-14.12939v.00003Z" fill="#2f2e43" stroke-width="0"/><rect x="174.52348" y="621.77557" width="20.33911" height="28.85016" fill="#a0616a" stroke-width="0"/><path d="m192.61269,667.14642c-3.48415.32141-20.87909,1.6842-21.75334-2.30133-.7971-3.66412.37283-7.49536.53996-8.00964,1.67136-16.63641,2.28847-16.82928,2.66132-16.94495.5914-.16711,2.32706.64282,5.12978,2.45563l.17999.11572.03857.20569c.05142.25714,1.29851,6.36401,7.18683,5.43835,4.03697-.64282,5.34834-1.52997,5.77261-1.96704-.34714-.1543-.77139-.42426-1.06709-.89996-.43712-.6814-.51427-1.55566-.23141-2.59705.75853-2.76416,3.03416-6.85254,3.12415-7.01971l.25713-.46283,23.11613,15.59503,14.27081,4.07556c1.07996.30853,1.94135,1.07996,2.37848,2.10852h0c.60426,1.43994.23141,3.11133-.92567,4.15271-2.59705,2.32703-7.73967,6.32544-13.15228,6.81396-1.43993.12854-3.34271.17999-5.4769.17999-8.93532,0-21.95905-.92566-22.0619-.93854h0l.01285-.00006v-.00006Z" fill="#2f2e43" stroke-width="0"/><rect x="115.62402" y="585.89136" width="28.85018" height="20.33911" transform="translate(-412.12014 316.32194) rotate(-50.4)" fill="#a0616a" stroke-width="0"/><path d="m116.45028,624.96399c-2.87987-1.97992-17.16354-12.00806-15.29934-15.63361,1.72278-3.32983,5.0655-5.52832,5.52834-5.82404,11.89234-11.75092,12.4966-11.50665,12.85659-11.35236.56569.24426,1.37565,1.97992,2.39133,5.15552l.06429.19281-.10286.17999c-.12856.23138-3.05986,5.73401,2.06991,8.76819,3.5227,2.08276,5.10406,2.22418,5.69547,2.15991-.16713-.33429-.32141-.82281-.25713-1.37567.09-.79712.5914-1.52997,1.49136-2.14709,2.35275-1.64563,6.69827-3.34271,6.89113-3.41986l.48856-.19281,7.86823,26.75458,8.39536,12.23944c.62997.92566.80997,2.06989.48856,3.1499h0c-.44998,1.49139-1.79993,2.54559-3.36842,2.60986-3.48413.14142-9.98956-.06427-14.47652-3.13702-1.1828-.81-2.68703-1.97992-4.33267-3.34271-6.87827-5.69543-16.32786-14.70795-16.40501-14.7851h.01286l-.00002.00006Z" fill="#2f2e43" stroke-width="0"/><path d="m228.49544,399.24091h-69.75983l15.50504,230.59576h23.25755l31.01009-230.59573h-.01285v-.00003Z" fill="#2f2e43" stroke-width="0"/><polygon points="214.28889 411.94321 228.49544 399.24091 221.38574 526.07111 141.94489 601.64215 122.1329 585.2757 168.42946 525.20972 214.28889 411.94321" fill="#2f2e43" stroke-width="0"/><path d="m214.28889,263.60391l-34.45566-5.59262-10.69669,18.70633c-13.60226,23.78467-19.14346,51.32349-15.81361,78.51517l5.41261,44.03381h69.75983l-14.20653-135.64984h0l.00002-.01285h.00003Z" fill="#6c63ff" stroke-width="0"/><path id="uuid-4355a1fb-25b5-4712-b9dc-7d0220b63177" d="m186.31297,440.7677c1.42708,7.10968-1.23424,13.60226-5.9269,14.50223-4.70552.88712-9.66815-4.15268-11.09523-11.27524-.60426-2.84131-.5014-5.77261.30856-8.5625l-5.65691-30.22583,14.78508-2.30133,3.9984,30.04584c1.82562,2.30133,3.05988,4.97549,3.58698,7.82965h0v-.01285l.00002.00003Z" fill="#a0616a" stroke-width="0"/><path d="m168.32661,432.57803l-21.71477-67.08566v-.10287l8.2025-69.07843c1.25995-10.58096,10.23384-18.55206,20.8791-18.55206,6.5183,0,12.56088,2.94415,16.57214,8.08679s5.41263,11.71234,3.83125,18.05066l-14.48938,57.94464,3.45842,65.76144-16.75214,4.97549h.01286v.00003-.00003Z" fill="#6c63ff" stroke-width="0"/><line x1="286.4487" y1="209.99252" x2="339.21649" y2="209.99252" fill="none" stroke="#090814" stroke-miterlimit="10" stroke-width="2"/><line x1="286.4487" y1="229.99252" x2="397.4487" y2="229.99252" fill="none" stroke="#090814" stroke-miterlimit="10" stroke-width="2"/><line x1="286.4487" y1="220.99252" x2="445.4487" y2="220.99252" fill="none" stroke="#090814" stroke-miterlimit="10" stroke-width="2"/><circle cx="274.4487" cy="214.99252" r="9" fill="#6c63ff" stroke-width="0"/><path d="m511.24973,368.99252h-217.60205c-4.24536,0-7.69897-3.4541-7.69897-7.69922v-114.10156c0-4.24512,3.45361-7.69922,7.69897-7.69922h217.60205c4.24533,0,7.69894,3.4541,7.69894,7.69922v114.10156c0,4.24512-3.45361,7.69922-7.69897,7.69922h.00003Z" fill="#d3d3d3" stroke-width="0"/><path d="m394.58719,373.50183l-.05566-.05566-.05566.05566c-2.70779-2.70557-7.0961-2.70221-9.80167.00558-2.70557,2.70889-2.7601,7.15176-.05231,9.8573h0l9.91629,9.90628,9.90961-9.91852h0c2.70557-2.70889,2.6488-7.15176-.05786-9.8573-2.70779-2.70557-7.0961-2.70221-9.80167.00558h0l-.0011.0011.00003-.00003Z" fill="#6c63ff" stroke-width="0"/><polyline points="0 667.45532 35.54 667.45532 67.13 667.45532 68.4 667.45532 96.21 667.45532 286.66 667.45532 331.98001 667.45532 731.50287 667.45532" fill="none" stroke="#090814" stroke-miterlimit="10" stroke-width="2"/></svg>