<svg xmlns="http://www.w3.org/2000/svg" width="800.417" height="601.352" viewBox="0 0 800.417 601.352"><g transform="translate(-560.001 -239)"><g transform="translate(1202.178 477.843)"><path d="M433.246,314.1h0A13.781,13.781,0,0,1,439,310.734l15.831-17.264,8.349,8-16.969,16.654a13.531,13.531,0,0,1-3.6,5.564c-4.062,3.882-9.446,4.881-12.029,2.23s-1.4-7.937,2.653-11.812h.016Z" transform="translate(-429.207 -158.058)" fill="#ed9da0"/><path d="M443.391,279.491l8.41,10.573,43.469-32.9.038-.075,25.4-47.4A16.259,16.259,0,1,0,491.19,196.2l-16.482,43.138-31.32,40.142Z" transform="translate(-432.751 -131.216)" fill="#d6d6e3"/><path d="M532.831,164.58H515.11v28.114l19.539-6.422Z" transform="translate(-450.611 -125.95)" fill="#ed9da0"/><path d="M492.419,142.558A19.458,19.458,0,1,0,511.877,123.1,19.458,19.458,0,0,0,492.419,142.558Z" transform="translate(-444.965 -115.616)" fill="#ed9da0"/><path d="M526.662,152.522l1.9,3.6,8.38-15.926c5.046-15.454-12.577-24.328-12.577-24.328-5.749-6.773-17.308,1.149-17.308,1.149-16.67-3.7-8.624,10.347-8.624,10.347s5.688.127,5.688,4.722,6.191,4.28,6.191,4.28l4.851,8.493,2.681-3.259C527.811,137.384,526.662,152.522,526.662,152.522Z" transform="translate(-445.973 -113.134)" fill="#2f2e43"/><rect width="15.723" height="22.308" transform="translate(73.676 326.692)" fill="#ed9da0"/><path d="M501.867,587.449c6.9,0,16.977-.721,17.052-.729,2.7.24,16.151,1.3,16.82-1.78a13.222,13.222,0,0,0-.42-6.191c-1.3-12.862-1.78-13.013-2.065-13.1-.458-.135-1.794.5-3.965,1.9l-.135.09-.03.158c-.038.2-.995,4.919-5.557,4.2-3.123-.5-4.137-1.186-4.46-1.525a1.922,1.922,0,0,0,.826-.691,2.416,2.416,0,0,0,.172-2.012,31.837,31.837,0,0,0-2.418-5.428l-.2-.36-17.871,12.06L488.578,577.2a2.825,2.825,0,0,0-1.84,1.63h0a2.847,2.847,0,0,0,.721,3.214c2,1.8,5.992,4.889,10.171,5.271,1.111.111,2.583.143,4.235.143h0Z" transform="translate(-443.502 -224.948)" fill="#2f2e43"/><rect width="15.725" height="22.311" transform="translate(110.581 303.264) rotate(-39.564)" fill="#ed9da0"/><path d="M585.446,554.511c5.317-4.4,12.622-11.376,12.675-11.428,2.23-1.525,13.276-9.287,11.83-12.089a13.1,13.1,0,0,0-4.273-4.505c-9.2-9.093-9.656-8.9-9.935-8.778-.442.188-1.066,1.525-1.847,3.987l-.045.15.075.143c.111.18,2.373,4.438-1.6,6.78-2.725,1.606-3.942,1.719-4.408,1.667a1.915,1.915,0,0,0,.2-1.066,2.421,2.421,0,0,0-1.149-1.658,31.938,31.938,0,0,0-5.323-2.643l-.383-.15-6.081,20.674-6.5,9.468a2.849,2.849,0,0,0-.376,2.432h0a2.856,2.856,0,0,0,2.606,2.02c2.688.111,7.727-.053,11.188-2.418.917-.631,2.073-1.539,3.349-2.59h0Z" transform="translate(-463.826 -213.913)" fill="#2f2e43"/><path d="M492.708,319.1l23.968,178.282h17.977L546.637,319.1H492.7Z" transform="translate(-445.028 -164.444)" fill="#2f2e43"/><path d="M539.142,416.482l35.8,46.442-15.318,12.652-61.43-58.426L492.7,319.1l10.985,9.822Z" transform="translate(-445.028 -164.444)" fill="#2f2e43"/><path d="M503.685,177.995,492.7,282.871h53.935l4.182-34.037a98.22,98.22,0,0,0-12.224-60.7l-8.273-14.462-26.634,4.325h0Z" transform="translate(-445.027 -128.214)" fill="#d6d6e3"/><path d="M500.556,349.588h0a13.739,13.739,0,0,1,3.83-5.452l7.241-22.286,10.925,3.822-8.523,22.189a13.453,13.453,0,0,1-.969,6.563c-2.08,5.212-6.57,8.357-10.016,7.02s-4.558-6.646-2.478-11.856Z" transform="translate(-446.733 -165.128)" fill="#ed9da0"/><path d="M504.621,308.205l12.036,6.127,25.9-47.974v-.082L546,212.611a16.26,16.26,0,1,0-32.453,0l2.905,46.081-11.83,49.521h0Z" transform="translate(-447.998 -133.604)" fill="#d6d6e3"/></g><path d="M742.338,733.271H911.35c.338-.017.607-.412.607-.894s-.268-.877-.607-.894H742.338c-.338.017-.607.412-.607.894S742,733.254,742.338,733.271Z" transform="translate(448.461 107.068)" fill="#f2f2f2"/><path d="M962.207,200.837H263.129a1.123,1.123,0,1,1,0-2.245H962.207a1.123,1.123,0,1,1,0,2.245Z" transform="translate(297.994 78.574)" fill="#d6d6e3"/><ellipse cx="12.079" cy="12.348" rx="12.079" ry="12.348" transform="translate(573.76 239)" fill="#3f3d56"/><ellipse cx="12.079" cy="12.348" rx="12.079" ry="12.348" transform="translate(615.486 239)" fill="#3f3d56"/><ellipse cx="12.079" cy="12.348" rx="12.079" ry="12.348" transform="translate(657.211 239)" fill="#3f3d56"/><path d="M875.773,166.838h-29.64a2.245,2.245,0,1,0,0,4.489h29.64a2.245,2.245,0,1,0,0-4.489Z" transform="translate(359.424 75.222)" fill="#3f3d56"/><path d="M875.773,174.458h-29.64a2.245,2.245,0,1,0,0,4.489h29.64a2.245,2.245,0,1,0,0-4.489Z" transform="translate(359.424 76.026)" fill="#3f3d56"/><path d="M875.773,182.068h-29.64a2.245,2.245,0,1,0,0,4.489h29.64a2.245,2.245,0,1,0,0-4.489Z" transform="translate(359.424 76.83)" fill="#3f3d56"/><path d="M924.789,234.906H288.047a13.32,13.32,0,0,0-13.3,13.3v2.145a13.32,13.32,0,0,0,13.3,13.3H924.789a13.32,13.32,0,0,0,13.3-13.3v-2.145a13.32,13.32,0,0,0-13.3-13.3Z" transform="translate(299.338 82.408)" fill="#d6d6e3"/><path d="M362.559,253.684H301.948a5.118,5.118,0,0,1,0-10.236h60.611C369.159,243.355,369.225,253.777,362.559,253.684Z" transform="translate(301.67 83.31)" fill="#fff"/><path d="M526.559,253.684H465.948a5.118,5.118,0,0,1,0-10.236h60.611C533.159,243.355,533.225,253.777,526.559,253.684Z" transform="translate(318.982 83.31)" fill="#fff"/><path d="M690.559,253.684H629.948a5.118,5.118,0,0,1,0-10.236h60.611C697.159,243.355,697.225,253.777,690.559,253.684Z" transform="translate(336.297 83.31)" fill="#fff"/><path d="M846.059,254.184H785.448a5.118,5.118,0,0,1,0-10.236h60.611C852.659,243.855,852.725,254.277,846.059,254.184Z" transform="translate(352.713 83.362)" fill="#6c63ff"/><rect width="2.211" height="28.745" transform="translate(1101.996 317.314)" fill="#d6d6e3"/><path d="M572.941,625.021H313.073a8.744,8.744,0,0,1-8.734-8.734v-38.06a8.744,8.744,0,0,1,8.734-8.734H572.941a8.744,8.744,0,0,1,8.734,8.734v38.06a8.744,8.744,0,0,1-8.734,8.734Z" transform="translate(302.463 117.73)" fill="#d6d6e3"/><path d="M547.129,618.567H318.4a8.744,8.744,0,0,1-8.734-8.734V583.56a8.744,8.744,0,0,1,8.734-8.734H566.487a8.744,8.744,0,0,1,8.734,8.734v6.915a28.124,28.124,0,0,1-28.092,28.092Z" transform="translate(303.025 118.293)" fill="#fff"/><path d="M463.279,592.587H358.832a2.252,2.252,0,1,1,0-4.5H463.279a2.252,2.252,0,1,1,0,4.5Z" transform="translate(307.977 119.693)" fill="#d6d6e3"/><path d="M516.152,600.92H358.832a2.252,2.252,0,0,1,0-4.5h157.32a2.252,2.252,0,1,1,0,4.5Z" transform="translate(307.977 120.572)" fill="#d6d6e3"/><path d="M591.452,553.437h-296.3a8.928,8.928,0,0,1-8.918-8.918v-226.5a8.928,8.928,0,0,1,8.918-8.918h296.3a8.928,8.928,0,0,1,8.918,8.918v226.5a8.928,8.928,0,0,1-8.918,8.918Z" transform="translate(300.551 90.241)" fill="#fff"/><path d="M591.558,554.648h-296.3a10.035,10.035,0,0,1-10.024-10.024v-226.5a10.035,10.035,0,0,1,10.024-10.023h296.3a10.035,10.035,0,0,1,10.024,10.023v226.5a10.035,10.035,0,0,1-10.024,10.024Zm-296.3-244.331a7.821,7.821,0,0,0-7.812,7.812v226.5a7.821,7.821,0,0,0,7.812,7.812h296.3a7.821,7.821,0,0,0,7.813-7.812v-226.5a7.821,7.821,0,0,0-7.812-7.812Z" transform="translate(300.445 90.136)" fill="#d6d6e3"/><path d="M286.85,491.106v34.2a8.246,8.246,0,0,0,8.233,8.233h296.3a8.246,8.246,0,0,0,8.233-8.233v-34.2Z" transform="translate(300.615 109.455)" fill="#d6d6e3"/><rect width="2.211" height="368.774" transform="translate(589.064 402.653) rotate(-57.371)" fill="#d6d6e3"/><rect width="368.774" height="2.211" transform="translate(589.943 599.63) rotate(-32.629)" fill="#d6d6e3"/><g transform="translate(17.219)"><path d="M.051,61.806A33.822,33.822,0,0,0,4.422,76.219c5.315,9.334,14.429,16.092,24.246,20.109,12.264,5.019,25.935,5.173,38.951,4.054,12.089-1.039,24.055-3.449,36.188-3.945a252.137,252.137,0,0,1,28.134.671c18.156,1.289,36.237,3.68,54.2,6.578q7.3,1.163,14.565,2.5a7.206,7.206,0,0,1,1.353.251c.088.036.229.008.31.059.146.092-.592-.234-.144.136a13.417,13.417,0,0,1,1.659,2.134l6.635,8.538c1.9,2.449,3.668,5.423,6.127,7.353a11.1,11.1,0,0,0,12.282.856,12.274,12.274,0,0,0,4.567-5.188,44.782,44.782,0,0,1,5.431-7.839c7.893-9.208,18.863-14.872,28.039-22.62a49.94,49.94,0,0,0,11.214-12.819,36.248,36.248,0,0,0,4.633-14.394c1.1-10.3-2.061-20.8-7.376-29.558a59.046,59.046,0,0,0-23.97-21.94c-11.1-5.657-23.392-8.413-35.709-9.786C202.68-.089,189.451-.084,176.31.063q-22.122.246-44.164,1.946-22.072,1.708-43.97,4.857c-14.008,2.014-28.187,4.113-41.9,7.677C34.163,17.69,22.084,22.611,13.039,31.527,5,39.454-.6,50.3.051,61.806Z" transform="matrix(0.921, -0.391, 0.391, 0.921, 933.963, 604.613)" fill="#6c63ff"/><path d="M8.041,26a4.343,4.343,0,0,1-4.114-4.879l.311-2.45a2.926,2.926,0,0,0-.952-2.548l-1.84-1.645A4.331,4.331,0,0,1,3.523,7L5.95,6.536A2.921,2.921,0,0,0,8.077,4.845l1-2.262a4.332,4.332,0,0,1,7.76-.336l1.187,2.165a2.921,2.921,0,0,0,2.268,1.5l2.456.248a4.331,4.331,0,0,1,2.718,7.276l-1.692,1.8a2.916,2.916,0,0,0-.727,2.619l.522,2.415A4.331,4.331,0,0,1,17.487,25.1l-2.234-1.053a2.914,2.914,0,0,0-2.717.117L10.4,25.412A4.336,4.336,0,0,1,8.041,26Z" transform="matrix(0.921, -0.391, 0.391, 0.921, 1004.206, 617.252)" fill="#fff"/><path d="M8.045,26a4.375,4.375,0,0,1-2.917-1.3,4.488,4.488,0,0,1-1.174-3.75L4.239,18.7a2.977,2.977,0,0,0-.97-2.595L1.562,14.582A4.453,4.453,0,0,1,0,11.088,4.329,4.329,0,0,1,3.527,7l2.4-.455A2.977,2.977,0,0,0,8.094,4.818l.894-2.03A4.532,4.532,0,0,1,12.81.007a4.309,4.309,0,0,1,4.028,2.241l1.173,2.14a2.978,2.978,0,0,0,2.312,1.531l2.277.23A4.451,4.451,0,0,1,25.917,8.06a4.331,4.331,0,0,1-.45,5.38L23.8,15.218a2.976,2.976,0,0,0-.741,2.667l.482,2.23a4.472,4.472,0,0,1-.786,3.746,4.32,4.32,0,0,1-5.26,1.244L15.28,24.064a2.975,2.975,0,0,0-2.765.12l-2.11,1.228A4.336,4.336,0,0,1,8.045,26Z" transform="matrix(0.921, -0.391, 0.391, 0.921, 1035.82, 602.733)" fill="#fff"/><path d="M8.041,26a4.343,4.343,0,0,1-4.114-4.879l.311-2.45a2.926,2.926,0,0,0-.952-2.548l-1.84-1.645A4.331,4.331,0,0,1,3.523,7L5.95,6.536A2.921,2.921,0,0,0,8.077,4.845l1-2.262a4.332,4.332,0,0,1,7.76-.336l1.187,2.165a2.921,2.921,0,0,0,2.268,1.5l2.456.248a4.331,4.331,0,0,1,2.718,7.276l-1.692,1.8a2.916,2.916,0,0,0-.727,2.619l.522,2.415A4.331,4.331,0,0,1,17.487,25.1l-2.234-1.053a2.914,2.914,0,0,0-2.717.117L10.4,25.412A4.336,4.336,0,0,1,8.041,26Z" transform="matrix(0.921, -0.391, 0.391, 0.921, 1067.865, 588.973)" fill="#fff"/><path d="M8.041,26a4.343,4.343,0,0,1-4.114-4.879l.311-2.45a2.926,2.926,0,0,0-.952-2.548l-1.84-1.645A4.331,4.331,0,0,1,3.523,7L5.95,6.536A2.921,2.921,0,0,0,8.077,4.845l1-2.262a4.332,4.332,0,0,1,7.76-.336l1.187,2.165a2.921,2.921,0,0,0,2.268,1.5l2.456.248a4.331,4.331,0,0,1,2.718,7.276l-1.692,1.8a2.916,2.916,0,0,0-.727,2.619l.522,2.415A4.331,4.331,0,0,1,17.487,25.1l-2.234-1.053a2.914,2.914,0,0,0-2.717.117L10.4,25.412A4.336,4.336,0,0,1,8.041,26Z" transform="matrix(0.921, -0.391, 0.391, 0.921, 1098.724, 574.873)" fill="#fff"/><path d="M8.041,26a4.343,4.343,0,0,1-4.114-4.879l.311-2.45a2.926,2.926,0,0,0-.952-2.548L1.446,14.481A4.331,4.331,0,0,1,3.523,7L5.95,6.536A2.92,2.92,0,0,0,8.077,4.845l1-2.262a4.332,4.332,0,0,1,7.76-.336l1.187,2.165a2.921,2.921,0,0,0,2.268,1.5l2.456.248a4.331,4.331,0,0,1,2.718,7.276l-1.692,1.8a2.916,2.916,0,0,0-.727,2.619l.522,2.415A4.331,4.331,0,0,1,17.487,25.1l-2.234-1.053a2.914,2.914,0,0,0-2.717.117L10.4,25.412A4.336,4.336,0,0,1,8.041,26Z" transform="matrix(0.921, -0.391, 0.391, 0.921, 1129.585, 560.774)" fill="#fff"/></g></g></svg>