<svg xmlns="http://www.w3.org/2000/svg" width="800.69" height="739.722" viewBox="0 0 800.69 739.722"><g transform="translate(-551.019 -104.32)"><g transform="translate(986.069 104.32)"><g transform="translate(0 0)"><path d="M632,253.449h-4.032V143.073A63.883,63.883,0,0,0,564.084,79.19H330.243a63.883,63.883,0,0,0-63.883,63.883v605.52a63.883,63.883,0,0,0,63.883,63.883H564.084a63.883,63.883,0,0,0,63.883-63.883V332.006H632Z" transform="translate(-266.36 -79.19)" fill="#090814"/><path d="M566.531,95.686H536.013a22.665,22.665,0,0,1-20.99,31.226H381.049a22.665,22.665,0,0,1-20.991-31.226h-28.5a47.707,47.707,0,0,0-47.707,47.707V748.028a47.706,47.706,0,0,0,47.706,47.706h234.97a47.707,47.707,0,0,0,47.707-47.707V143.393a47.706,47.706,0,0,0-47.7-47.707Z" transform="translate(-266.22 -79.063)" fill="#fff"/></g><rect width="222.322" height="98.928" rx="8" transform="translate(67.016 99.651)" fill="#e6e6e6"/><g transform="translate(71.5 432.945)"><ellipse cx="7.11" cy="7.11" rx="7.11" ry="7.11" transform="translate(0 0)" fill="#e6e6e6"/><path d="M695.762,456.411a3.682,3.682,0,1,0,0,7.363H869.319a3.682,3.682,0,1,0,.121-7.363H695.762Z" transform="translate(-659.353 -452.983)" fill="#e6e6e6"/><ellipse cx="7.11" cy="7.11" rx="7.11" ry="7.11" transform="translate(0 34.533)" fill="#e6e6e6"/><path d="M695.762,491.63a3.682,3.682,0,1,0,0,7.363H869.319a3.682,3.682,0,1,0,.121-7.363H695.762Z" transform="translate(-659.353 -453.669)" fill="#e6e6e6"/><ellipse cx="7.11" cy="7.11" rx="7.11" ry="7.11" transform="translate(0 69.066)" fill="#e6e6e6"/><path d="M695.762,526.849a3.682,3.682,0,1,0,0,7.363H869.319a3.682,3.682,0,1,0,.121-7.363H695.762Z" transform="translate(-659.353 -454.355)" fill="#e6e6e6"/><ellipse cx="7.11" cy="7.11" rx="7.11" ry="7.11" transform="translate(0 103.599)" fill="#e6e6e6"/><path d="M695.762,562.068a3.682,3.682,0,1,0,0,7.363H869.319a3.682,3.682,0,0,0,.121-7.363H695.762Z" transform="translate(-659.353 -455.041)" fill="#e6e6e6"/><ellipse cx="7.11" cy="7.11" rx="7.11" ry="7.11" transform="translate(0 138.132)" fill="#e6e6e6"/><path d="M695.762,597.287a3.682,3.682,0,1,0,0,7.363H869.319a3.682,3.682,0,1,0,.121-7.363H695.762Z" transform="translate(-659.353 -455.727)" fill="#e6e6e6"/><ellipse cx="7.11" cy="7.11" rx="7.11" ry="7.11" transform="translate(0 172.664)" fill="#e6e6e6"/><path d="M695.762,632.506a3.682,3.682,0,1,0,0,7.363H869.319a3.682,3.682,0,1,0,.121-7.363H695.762Z" transform="translate(-659.353 -456.413)" fill="#e6e6e6"/><ellipse cx="7.11" cy="7.11" rx="7.11" ry="7.11" transform="translate(0 207.197)" fill="#e6e6e6"/><path d="M695.762,667.725a3.682,3.682,0,1,0,0,7.363H869.319a3.682,3.682,0,1,0,.121-7.363H695.762Z" transform="translate(-659.353 -457.099)" fill="#e6e6e6"/></g></g><ellipse cx="74.462" cy="5.679" rx="74.462" ry="5.679" transform="translate(551.019 822.046)" fill="#e6e6e6"/><ellipse cx="74.462" cy="5.679" rx="74.462" ry="5.679" transform="translate(711.644 832.684)" fill="#e6e6e6"/><rect width="310.613" height="138.286" rx="8" transform="translate(871.185 348.64)" fill="#6c63ff"/><circle cx="30.977" cy="30.977" r="30.977" transform="translate(925.683 386.944)" fill="#fff"/><path d="M638.3,350.4a3.622,3.622,0,1,0,0,7.244H736.1a3.622,3.622,0,1,0,.119-7.244H638.3Z" transform="translate(388.28 63.403)" fill="#fff"/><path d="M638.3,330.67a3.622,3.622,0,1,0,0,7.244h48.842a3.622,3.622,0,1,0,.119-7.244H638.3Z" transform="translate(388.28 62.145)" fill="#fff"/><path d="M638.3,371.064a3.622,3.622,0,1,0,0,7.244H736.1a3.622,3.622,0,1,0,.119-7.244H638.3Z" transform="translate(388.28 64.72)" fill="#fff"/><g transform="translate(581.953 326.865)"><path d="M356.457,578c.4,9.879-5.909,18.636-11.817,26.506-2.694,3.687-27.735,28.669-35.3,39.588-1.832,2.647-46.8,54.549-49.1,59.359a22.813,22.813,0,0,0-1.335,3.533c-1.347,4.609-1.406,9.572-1.288,14.488v3.439c.236,7.5.579,15.044,2.363,22.311.26,1.064.555,2.139.709,3.214a10.335,10.335,0,0,1-1.347-1.052L234.9,731.252l-1.524-1.134c-1.56-4.514-3.037-9.076-4.7-13.531-.993-2.647.071-5.672,1.82-7.882a44.566,44.566,0,0,1,6.24-5.7,36.652,36.652,0,0,0,4.609-5.862C258.207,672.6,305.7,584.527,309.163,566.8a40.539,40.539,0,0,1,13.826-.177l24.379,3.238c2.635.355,5.519.839,7.232,2.86A8.907,8.907,0,0,1,356.457,578Z" transform="translate(-219.577 -249.711)" fill="#ed9da0"/><path d="M451.009,598.518a26.074,26.074,0,0,1-3.817,10.352c-2.505,3.817-31.281,77.829-40.226,108.389-1.643,5.613-.78,11.037-.957,12.916-.142,1.56-.272,3.12-.39,4.668-.165,1.926-.3,3.853-.437,5.767-.366,5.07-.685,10.4,1.454,15.008.839,1.82,2.1,3.392,2.659,5.211A10.312,10.312,0,0,1,407,759.223l-24.438-18.14a112.147,112.147,0,0,1-4.6-17.336c-.615-3.344-.91-7.185,1.182-9.749a4.609,4.609,0,0,1,.39-.449,10.748,10.748,0,0,1,2.269-1.631,18.9,18.9,0,0,0,2.174-1.395,8.191,8.191,0,0,0,1.394-1.394c2.009-2.482,2.73-5.968,3.333-9.241,2.363-13.4,22.382-95.626,22-97.659-.414-2-11.782-21.153-19.581-25.407A89.269,89.269,0,0,1,418.393,561.2a10.788,10.788,0,0,1,5.613-.957,9.3,9.3,0,0,1,2.907,1.182c5.353,3,9.454,7.729,13.377,12.456C446.14,580.993,451.99,589.36,451.009,598.518Z" transform="translate(-210.065 -250.089)" fill="#ed9da0"/><path d="M403.247,672.782c-2.985,1.527,16.718-60.438,12.351-59.761-6.557,1.016-37.382-56.146-44.407-55.476-8.447.806-12.058,45.861-20.412,46.082-3.384.089-35.094,47.749-39.093,49.258-27.564,10.39-34.913,5.023-40.147-2.4-3.214-.78,32.344-68.372,32.332-70.215,0-3.214,2.32-40.91,7.815-57.608,1.371-4.148,2.363-8.4,3.912-12.5,6.689-18.482,9.56-32.663,21.779-48.049a28.741,28.741,0,0,0,4.562-7.2,31.375,31.375,0,0,0,1.619-9.726l.674-11.569c18.116-.851,35.712-.508,53.438,3.321a3.628,3.628,0,0,1,3.734,3.519v.026q1.028,6.346,1.442,12.751a10.527,10.527,0,0,0,.4,2.789,11.57,11.57,0,0,0,1.914,3.155c10.257,13.448,16.544,29.543,21.508,45.662s8.91,32.687,15.15,48.451c2.151,5.436,16.309,44.513,16.876,50.339.525.39-13.341,63.628-16.876,69.155C430.841,689.948,415.483,666.531,403.247,672.782Z" transform="translate(-216.833 -258.182)" fill="#090814"/><path d="M454.507,390.795c3.12-2.635,6.24-5.282,9.1-8.189a124.731,124.731,0,0,0,11.156-13.637c3.616-4.928,7.209-9.974,9.454-15.67,2.541-6.523,3.321-13.944,7.74-19.357a4.431,4.431,0,0,1,2-1.56c2.517-.792,4.4,2.363,4.881,4.975,2.364,12.786-3.273,25.549-8.757,37.343-1.808,3.888-3.7,7.882-6.83,10.825a64.029,64.029,0,0,1-5.377,4.124,56.293,56.293,0,0,0-7.61,7.492q-5.909,6.712-11.238,13.909c-4.408,5.909-8.544,12.1-13.767,17.313s-11.758,9.454-19.073,10.482c2.092-.284,1.406-12.562,1.182-14.11-.319-2.245-1.855-4.892-1.9-7.09-.059-2.694,1.04-3.084,3.262-4.975Z" transform="translate(-207.009 -264.618)" fill="#ed9da0"/><path d="M371.286,314.588s-7.09,35.452-15.363,41.361,44.906,13,44.906,13,1.182-28.362,15.363-41.361S371.286,314.588,371.286,314.588Z" transform="translate(-211.497 -265.744)" fill="#ed9da0"/><path d="M419.687,453.109a15.835,15.835,0,0,0,5.424.709,42.542,42.542,0,0,0,17.915-4.172,3.3,3.3,0,0,0,1.347-.969,3.616,3.616,0,0,0,.059-2.9c-3.333-13.472,3.1-28.752-3.285-41.065-6.937,2.257-14.547,4.727-21.484,6.925a7.858,7.858,0,0,1-3.356.567,7.091,7.091,0,0,1-3.616-1.973c-7.516-6.5-12.255-15.552-16.544-24.5s-8.5-18.175-15.256-25.455-13.082-11.132-22.961-10.08a14.819,14.819,0,0,0-9.076,4.845c-5.578,6-6.689,15.138-4.727,23.1s6.464,15.02,11.144,21.744c6.1,8.768,12.656,17.407,21.129,23.918a159.263,159.263,0,0,0,14.252,9.206" transform="translate(-212.251 -263.485)" fill="#e6e6e6"/><circle cx="35.452" cy="35.452" r="35.452" transform="translate(152.107 4.528)" fill="#ed9da0"/><path d="M414.609,405.858c-10.658,12.567-12.91,28.623-15.091,44.469-10.707-3.628-22.571,2.458-33.656.236a42.606,42.606,0,0,0-17.3-2.008c-4.1-.391-8.166-2.967-12.077-1.655-6.5,4.119-.17-21.4-.557-28.811C332.52,293,433.979,353.852,414.609,405.858Z" transform="translate(-212.869 -263.846)" fill="#e6e6e6"/><path d="M467.838,395.238c3.12-2.635,6.24-5.282,9.1-8.189a124.733,124.733,0,0,0,11.156-13.637c3.616-4.928,7.209-9.974,9.454-15.67,2.541-6.523,3.321-13.944,7.74-19.357a4.432,4.432,0,0,1,2-1.56c2.517-.792,4.4,2.363,4.881,4.975,2.364,12.786-3.273,25.549-8.757,37.343-1.808,3.888-3.7,7.882-6.83,10.825a64.044,64.044,0,0,1-5.377,4.124,56.289,56.289,0,0,0-7.61,7.492q-5.909,6.712-11.238,13.909c-4.408,5.909-8.544,12.1-13.767,17.312s-11.758,9.454-19.073,10.482c2.092-.284,1.406-12.562,1.182-14.11-.319-2.245-1.855-4.892-1.9-7.09-.059-2.694,1.04-3.084,3.262-4.975Z" transform="translate(-206.159 -264.335)" fill="#ed9da0"/><path d="M371.261,354.647a14.819,14.819,0,0,0-9.076,4.845c-5.578,6-6.689,15.138-4.727,23.1s6.464,15.02,11.144,21.744c6.1,8.768,12.656,17.407,21.13,23.918a159.259,159.259,0,0,0,14.252,9.206c8.16,5.026,16,3.461,23.481,9.454a19.734,19.734,0,0,0,5.554,3.545,15.836,15.836,0,0,0,5.424.709c6.2-.067,12.319-3.855,17.915-6.535a3.3,3.3,0,0,0,1.347-.969,3.616,3.616,0,0,0,.059-2.9c-3.332-13.472,3.1-19.3-3.285-31.612-6.937,2.257-14.547,4.727-21.484,6.925a7.86,7.86,0,0,1-3.356.567,7.091,7.091,0,0,1-3.616-1.973c-7.516-6.5-12.255-15.552-16.544-24.5s-8.5-18.175-15.256-25.455S381.14,353.6,371.261,354.647Z" transform="translate(-211.401 -263.202)" fill="#e6e6e6"/><path d="M419.907,752.335a10.5,10.5,0,0,1-12.361,1.938,10.311,10.311,0,0,1-2.292-1.607l-24.438-18.14-9.69-7.2a10.258,10.258,0,0,1-.154-14.878l6.429-5.011,2.659-2.08,3.569-2.789,3.12-2.434,20.019,11.227.343.662,15.15,29.212a10.532,10.532,0,0,1-2.352,11.1Z" transform="translate(-210.681 -241.169)" fill="#090814"/><path d="M272.154,743.448a10.5,10.5,0,0,1-12.361,1.938,10.957,10.957,0,0,1-.945-.555,10.338,10.338,0,0,1-1.347-1.052l-24.438-18.14-1.524-1.134-8.166-6.062a10.258,10.258,0,0,1-.154-14.878l6.429-5.011,2.659-2.08,3.569-2.789,3.12-2.434.508.284,17.561,9.844,1.95,1.1.343.662,15.15,29.212A10.532,10.532,0,0,1,272.154,743.448Z" transform="translate(-220.099 -241.735)" fill="#090814"/><path d="M479.712,34.837c-2.083-10.192-6.655-12.49-14.227-19.7-1.8.254.474,9.573-9.432,22.554-14.4,18.87-12.965,1.569-17.223,7.381-.924,1.262-1.124,5.815-.82,7.381,1.2,6.189,8.3.146.82,21.324-1.113,1.647-2.426,1.247-4.1,1.23-.13,0,.72-.163-2.46-.82-1.518-.313-3.642-.684-6.189-1.113-29.587-4.985-40.035-42.318-17.166-61.741,5.2-4.419,10.31-7.768,14.743-9.32,13.353-4.674,43.778-1.636,49.62,13.533,2.786,7.236,7.289,11.727,6.435,19.289Z" transform="translate(-257.201 0)" fill="#090814"/><ellipse cx="21.102" cy="21.102" rx="21.102" ry="21.102" transform="translate(136.898 55.483)" fill="#090814"/></g></g></svg>