<svg xmlns="http://www.w3.org/2000/svg" width="677.362" height="799.951" viewBox="0 0 677.362 799.951"><g transform="translate(-707.267 -241.527)"><path d="M788.54,777.885l6.7,128.647S511.823,636.782,476.514,557.857s31.155-274.163,31.155-274.163l147.466,81Z" transform="translate(400.438 134.947)" fill="#ed9da0"/><path d="M394.41,243.4l-43.617,4.154s-22.847,49.848,47.771,54Z" transform="translate(360 121.242)" fill="#ed9da0"/><path d="M394.41,300.743,350.793,304.9s-22.847,49.848,47.771,54Z" transform="translate(360 140.744)" fill="#ed9da0"/><path d="M394.41,362.739l-43.617,4.154s-22.847,49.848,47.771,54Z" transform="translate(360 161.828)" fill="#ed9da0"/><path d="M403.709,424.735l-43.617,4.154s-22.847,49.848,47.771,54Z" transform="translate(363.163 182.911)" fill="#ed9da0"/><path d="M366.6,294.664h3.31V204a52.474,52.474,0,0,1,52.474-52.474H614.466A52.474,52.474,0,0,1,666.94,204V701.388a52.474,52.474,0,0,1-52.474,52.474H422.384a52.474,52.474,0,0,1-52.474-52.474V359.2H366.6Z" transform="translate(366.575 90)" fill="#3f3d56"/><path d="M416.592,161.715h25.073A18.617,18.617,0,0,0,458.9,187.363H568.944a18.618,18.618,0,0,0,17.237-25.649H609.6A39.187,39.187,0,0,1,648.786,200.9V697.558A39.187,39.187,0,0,1,609.6,736.745H416.592a39.187,39.187,0,0,1-39.187-39.187h0V200.9a39.187,39.187,0,0,1,39.187-39.187Z" transform="translate(370.249 93.464)" fill="#fff"/><rect width="82.703" height="19.957" rx="8" transform="translate(841.994 394.317)" fill="#6c63ff" style="isolation:isolate"/><rect width="90.578" height="19.957" rx="8" transform="translate(838.056 480.071)" fill="#e5e5e5"/><rect width="202.161" height="19.957" rx="8" transform="translate(782.265 522.943)" fill="#e5e5e5"/><rect width="202.161" height="19.957" rx="8" transform="translate(782.265 565.812)" fill="#e5e5e5"/><path d="M949.716,865.708l-12.843-14.653L717.24,600.485l-8.308-170.313L621.7,284.782l-24.924-62.31s-58.156,6.231-10.385,124.619l19.731,63.348h0a290.361,290.361,0,0,0-27,122.274V677.876c0,34.181,162.886,220.366,181.846,248.806h0Z" transform="translate(434.913 114.127)" fill="#ed9da0"/><path d="M253.466,143.2l17.342-8.523-.591-1.2-16.023,7.876L230.006,77.932l-1.252.478Z" transform="translate(785.061 268.03)" opacity="0.2"/><rect width="1.34" height="27.378" transform="translate(710.562 369.421) rotate(-69.778)" opacity="0.2"/><rect width="1.34" height="27.378" transform="translate(710.563 447.145) rotate(-69.778)" opacity="0.2"/><rect width="1.34" height="27.378" transform="translate(710.563 530.23) rotate(-69.778)" opacity="0.2"/><rect width="1.34" height="13.874" transform="translate(723.906 613.288) rotate(-64.361)" opacity="0.2"/><circle cx="57.931" cy="57.931" r="57.931" transform="translate(825.266 642.527)" fill="#6c63ff"/><path d="M23.726,48.451a5.344,5.344,0,0,1-3.79-1.57L1.57,27.516a5.36,5.36,0,0,1,7.581-7.581L23.726,35.51,50.666-.43a5.36,5.36,0,0,1,7.581,7.581L27.516,46.881A5.344,5.344,0,0,1,23.726,48.451Z" transform="translate(853.267 676.527)" fill="#f2f2f2"/></g></svg>