<svg xmlns="http://www.w3.org/2000/svg" width="800.277" height="621.381" viewBox="0 0 800.277 621.381"><g transform="translate(-577 -242)"><g transform="translate(577 242)"><g transform="translate(514.703 70.527)"><path d="M0,1.5,285.573.815l0-1.565L0-.065Z" transform="translate(0.002 549.354)" fill="#d6d6e3"/><path d="M166.771,333.062l14.308-28.2,16.463,8.354-14.308,28.2a19.377,19.377,0,0,1-1.36,14.919c-4.46,8.789-13.972,12.922-21.246,9.231s-9.555-13.808-5.095-22.6a19.378,19.378,0,0,1,11.238-9.906Z" transform="translate(-112.508 -73.057)" fill="#9f616a"/><path d="M190.229,210.484l-72.285,135.1L89.68,330.466,153,192.033" transform="translate(-38.858 -77.965)" fill="#6c63ff"/><path d="M83.817,240.057l-19.7,91.5,85.864,3s-11.249-63.548-7.256-74.531L83.817,240.057Z" transform="translate(28.068 -75.876)" fill="#9f616a"/><rect width="20.065" height="26.446" transform="translate(75.417 504.69)" fill="#9f616a"/><path d="M207.97,608.036a6.562,6.562,0,0,0,2.753-4.611c.127-1.911-.829-3.961-2.841-6.093-.048-.614-.673-8.216-2.064-9.578.117-.407.825-3.1-.336-4.857a3.378,3.378,0,0,0-2.622-1.43l-.052-.005-.026.045c-.034.059-3.419,5.941-8.513,6.457-2.92.3-5.843-1.206-8.689-4.466-.1-.241-.906-4.212-1.425-6.84l-.021-.105-27.751,14.587-16.221,4.489a4.722,4.722,0,0,0-.786,8.807l7.863,3.78a24.6,24.6,0,0,0,10.594,2.414h42.651a11.911,11.911,0,0,0,7.487-2.592Z" transform="translate(-108.427 -61.241)" fill="#090814"/><rect width="20.065" height="26.446" transform="translate(208.549 498.23) rotate(-16.22)" fill="#9f616a"/><path d="M70.816,593.479a6.562,6.562,0,0,0,1.356-5.2c-.412-1.87-1.9-3.572-4.43-5.057-.218-.576-2.941-7.7-4.657-8.62,0-.423-.075-3.212-1.68-4.57a3.378,3.378,0,0,0-2.917-.64l-.051.009-.012.051c-.016.066-1.624,6.659-6.37,8.578-2.721,1.1-5.948.474-9.591-1.861-.165-.2-2.047-3.791-3.279-6.17l-.049-.1L16.562,591.664,2.24,600.505a4.722,4.722,0,0,0,1.7,8.676l8.606,1.433a24.6,24.6,0,0,0,10.847-.641l40.953-11.914a11.911,11.911,0,0,0,6.465-4.58Z" transform="translate(172.661 -61.556)" fill="#090814"/><path d="M146.606,286.03l-85.864,2S8.565,438.43,10.562,581.2H82.189l4.253-165.737L98.883,587.637l94.389-5.435Z" transform="translate(40.717 -73.877)" fill="#090814"/><path d="M71.408,126.411A32.62,32.62,0,1,1,122.042,153.6a80.978,80.978,0,0,0,10.671,18.824l-32.147,26.789L94.26,157.541a32.633,32.633,0,0,1-22.852-31.13Z" transform="translate(33.791 -82.238)" fill="#9f616a"/><path d="M85.368,170.249l36.941-8.986,23.679,30.319a48.82,48.82,0,0,1,2.478,36.927l-19.635,58.906s-59.905-1-72.884-35.943l-3.721-7.752a31.9,31.9,0,0,1,3-32.62Z" transform="translate(42.758 -79.303)" fill="#6c63ff"/><path d="M56.225,357.84l-.686-31.612,18.457-.4.686,31.612a19.377,19.377,0,0,1,5.839,13.8c.214,9.854-6.224,17.985-14.379,18.162S51.2,381.73,50.99,371.876a19.378,19.378,0,0,1,5.235-14.036Z" transform="translate(111.222 -72.146)" fill="#9f616a"/><path d="M91.382,204.882V358.107H59.328L49.854,206.175" transform="translate(101.547 -77.406)" fill="#6c63ff"/><path d="M112.709,131.716s-25.693-8.524-19.359-18.2c0,0-27.269,4.75-27.973,0s0-35.186,36.945-30.26,32.019,35.889,32.019,35.889-2.7,29.931-22.577,36.089C111.763,155.235,127.135,125.559,112.709,131.716Z" transform="translate(42.314 -82.719)" fill="#090814"/><path d="M33.131,100.163s7.587-5.479,16.437-3.793c3.1.59,6.376,2.858,9.33,5.557a51.687,51.687,0,0,1,13.227,19.845C79.862,142.052,96.1,192.78,67.692,199c-35.615,7.8-37.827-67.541-37.827-67.541l3.266-31.294Z" transform="translate(129.989 -82.14)" fill="#090814"/></g><path d="M884.5,364.922H556.642a17.422,17.422,0,0,0-17.406,17.406v53.133a17.422,17.422,0,0,0,17.406,17.406H884.5a17.421,17.421,0,0,0,17.406-17.406V382.328A17.422,17.422,0,0,0,884.5,364.922Z" transform="translate(-539.236 -364.922)" fill="#f2f2f2"/><g transform="translate(516.388 323.772) rotate(-40)"><path d="M2.655,0A2.5,2.5,0,0,0,.217,2.562L.43,11.146,0,11.185l.155,5.83.42-.052.764,30.75a4.336,4.336,0,0,0,3.88,4.2l19.552,2.058a3.282,3.282,0,0,0,3.618-3.486L25.424,6.7A4.061,4.061,0,0,0,22,2.965L3.121.033h0A2.5,2.5,0,0,0,2.654,0Z" fill="#3f3d56"/><path d="M15.762,3.431,5.839,1.89a.822.822,0,0,1-.691-.723h0A.931.931,0,0,0,4.365.348L2.275.023A1.972,1.972,0,0,0,0,2.02L1.075,46.6a2.252,2.252,0,0,0,2.052,2.189l19.538,1.737a1.739,1.739,0,0,0,1.89-1.837L21.918,5.309a2.806,2.806,0,0,0-2.37-2.6l-2.2-.342A1.4,1.4,0,0,1,15.762,3.431Z" transform="translate(2.025 1.127)" fill="#6c63ff"/><path d="M6.542,14.661a2,2,0,0,1-1.2-.4l-.021-.016L.788,10.78a2.013,2.013,0,0,1,2.45-3.2l2.934,2.25L13.1.788A2.012,2.012,0,0,1,15.926.415h0l-.043.06.044-.06A2.015,2.015,0,0,1,16.3,3.238L8.145,13.874a2.014,2.014,0,0,1-1.6.785Z" transform="translate(5.948 19.063)" fill="#fff"/></g><g transform="translate(114.065 56.349)"><path d="M749.8,381.458H421.937a17.422,17.422,0,0,0-17.406,17.406V452A17.422,17.422,0,0,0,421.937,469.4H749.8A17.422,17.422,0,0,0,767.2,452V398.863A17.422,17.422,0,0,0,749.8,381.458Z" transform="translate(-404.531 -381.458)" fill="#fff"/><path d="M749.8,381.458H421.937a17.422,17.422,0,0,0-17.406,17.406V452A17.422,17.422,0,0,0,421.937,469.4H749.8A17.422,17.422,0,0,0,767.2,452V398.863A17.422,17.422,0,0,0,749.8,381.458ZM765.369,452A15.6,15.6,0,0,1,749.8,467.57H421.937A15.6,15.6,0,0,1,406.363,452V398.863a15.6,15.6,0,0,1,15.574-15.574H749.8a15.6,15.6,0,0,1,15.574,15.574Z" transform="translate(-404.531 -381.458)" fill="#3f3d56"/><path d="M486.413,455.155a30.295,30.295,0,1,1,30.295-30.295,30.295,30.295,0,0,1-30.295,30.295Z" transform="translate(-402.288 -380.888)" fill="#6c63ff"/><path d="M699.4,447.912H541.939a7.329,7.329,0,0,1,0-14.657H699.4a7.329,7.329,0,0,1,0,14.657Z" transform="translate(-398.874 -379.205)" fill="#e6e6e6"/><path d="M594.054,418.063H541.939a7.329,7.329,0,0,1,0-14.657h52.115a7.329,7.329,0,0,1,0,14.658Z" transform="translate(-398.874 -380.503)" fill="#e6e6e6"/><path d="M484.14,434.869a3.465,3.465,0,0,1-2.085-.693l-.037-.028-7.852-6.007a3.489,3.489,0,0,1,4.246-5.538l5.086,3.9,12.018-15.679a3.488,3.488,0,0,1,4.89-.646h0l-.075.1.077-.1a3.492,3.492,0,0,1,.645,4.891L486.919,433.5a3.49,3.49,0,0,1-2.775,1.361Z" transform="translate(-401.562 -380.24)" fill="#fff"/></g><g transform="translate(337.935 161.754)"><path d="M313.285,173.224l-1.642.179c.345,3.157.8,6.341,1.342,9.463l1.627-.285C314.073,179.494,313.626,176.346,313.285,173.224Zm3.256,18.611-1.605.389c.748,3.084,1.606,6.184,2.551,9.212l1.577-.492C318.129,197.949,317.28,194.884,316.541,191.835Zm5.634,18.046-1.541.594c1.141,2.963,2.394,5.928,3.725,8.813l1.5-.692C324.542,215.742,323.3,212.81,322.175,209.88Zm7.921,17.172-1.452.787c1.512,2.789,3.136,5.567,4.828,8.257l1.4-.879c-1.672-2.66-3.279-5.407-4.774-8.165Zm10.062,16.005-1.339.967c1.858,2.573,3.824,5.12,5.844,7.568l1.274-1.051C343.941,248.12,342,245.6,340.159,243.057Zm12.024,14.583-1.2,1.13c2.17,2.313,4.444,4.587,6.76,6.759l1.13-1.2C356.579,262.176,354.329,259.927,352.183,257.64Zm13.783,12.927-1.051,1.274c2.448,2.019,4.994,3.984,7.565,5.84l.967-1.339c-2.543-1.836-5.06-3.78-7.481-5.776Zm15.316,11.059-.879,1.4c2.686,1.689,5.461,3.311,8.248,4.822l.787-1.452c-2.755-1.494-5.5-3.1-8.156-4.769Zm16.6,9-.692,1.5c2.878,1.328,5.838,2.579,8.8,3.719l.594-1.541C403.655,293.178,400.729,291.941,397.883,290.627Zm17.612,6.785L415,298.989c3.027.946,6.126,1.806,9.211,2.555l.39-1.6C421.553,299.2,418.488,298.348,415.495,297.412Zm18.36,4.459-.285,1.627c3.122.547,6.305,1,9.463,1.346l.18-1.642c-3.122-.342-6.271-.79-9.357-1.331Z" transform="translate(-305.015 -157.084)" fill="#6c63ff"/><path d="M56.051,210.764l-1.18,1.157L49.178,206.1l-5.393,6.1-1.238-1.1,6.57-7.433Z" transform="translate(-42.547 -203.673)" fill="#6c63ff"/><path d="M220.611,27.047l-1.157,1.18,5.823,5.693-6.1,5.393,1.1,1.238,7.433-6.57Z" transform="translate(-73.308 113.842)" fill="#6c63ff"/></g></g></g></svg>