<svg xmlns="http://www.w3.org/2000/svg" width="679" height="800.279" viewBox="0 0 679 800.279">
  <g id="Group_262" data-name="Group 262" transform="translate(-689.289 -186.553)">
    <path id="uuid-afa4718a-41ef-46ad-9f1b-fdedc1410b9c" d="M219.16,305.271a34.885,34.885,0,0,0,6.446-15.155l37.064-44.887L240.8,228.22,205.55,275.585a34.8,34.8,0,0,0-12.393,10.846c-8.175,11.279-8.993,24.649-1.808,29.845s19.624.273,27.8-11.006h.011Z" transform="translate(628.837 410.457)" fill="#ffb6b6"/>
    <path id="Path_4635" data-name="Path 4635" d="M364.178,143.032,317.814,112.05,223.72,255.214l24.5,26.3Z" transform="translate(633.94 394.548)" fill="#d6d6e3"/>
    <path id="Path_4636" data-name="Path 4636" d="M0,292.775a1.672,1.672,0,0,0,1.539,1.785H677.461a1.8,1.8,0,0,0,0-3.57H1.539A1.672,1.672,0,0,0,0,292.775Z" transform="translate(689.289 419.053)" fill="#ccc"/>
    <path id="Path_4637" data-name="Path 4637" d="M278.283,109.743,273.11,74.1l45.682-11.62,6.071,31.539Z" transform="translate(640.704 387.76)" fill="#ffb6b6"/>
    <path id="Path_4638" data-name="Path 4638" d="M156.47,440.055l5.423,50.594L199.23,479.2,193.2,438.85Z" transform="translate(624.731 439.302)" fill="#ffb6b6"/>
    <path id="Path_4639" data-name="Path 4639" d="M289.652,246.55s-122.267,23.489-136.718,59.03,2.41,168.643,2.41,168.643l41.555,4.218,17.463-152.987S320.373,323.646,328.195,311s6.628-58.428,6.628-58.428l-45.171-6.026h0Z" transform="translate(623.445 412.967)" fill="#2f2e41"/>
    <path id="Path_4640" data-name="Path 4640" d="M162.671,464.021h0l-24.217,24.058s-41.328,33.949-14.826,32.141,95.162-18.066,94.56-30.72-11.449-37.94-11.449-37.94L162.66,464.01h.011Z" transform="translate(619.019 441.042)" fill="#2f2e41"/>
    <path id="Path_4641" data-name="Path 4641" d="M280.97,454.824l27.309,42.931,28.389-26.82L313.362,437.44Z" transform="translate(641.78 439.109)" fill="#ffb6b6"/>
    <path id="Path_4642" data-name="Path 4642" d="M310.74,229.734S211.6,305.045,214.407,343.3,291.4,493.357,291.4,493.357l39.111-14.667L278.281,333.844s94.2-48.661,95.594-63.464-19.987-55.29-19.987-55.29l-43.158,14.644h.011Z" transform="translate(632.657 408.659)" fill="#2f2e41"/>
    <path id="Path_4643" data-name="Path 4643" d="M294.734,473.647h0l-13.791,36.689s-20,47.24,2.945,33.858,77.255-58.416,71.1-69.49S327.9,445.78,327.9,445.78l-33.165,27.867h0Z" transform="translate(640.671 440.251)" fill="#2f2e41"/>
    <circle id="Ellipse_807" data-name="Ellipse 807" cx="37.178" cy="37.178" r="37.178" transform="translate(897.816 398.668)" fill="#ffb6b6"/>
    <path id="Path_4644" data-name="Path 4644" d="M324.48,74.92,278.1,109.256l-7.231,149.372L253.41,275.488l60.224,59.03s66.25-20.476,59.621-51.8L366.627,251.4l2.388-34.95A203.343,203.343,0,0,0,324.458,74.931h.023Z" transform="translate(638.006 389.464)" fill="#d6d6e3"/>
    <path id="Path_4645" data-name="Path 4645" d="M323.006,85.953l-22.625-.75s5.867-35.45-8.118-35.257L279.62,43.931S248,22.625,262.5,13.689,287.124-3.263,295.413,1.342s25.1,6.4,25.1,6.4,29.811,12.552,28.924,23.046-7.663,56.461-26.445,55.153h.011Z" transform="translate(638.73 379.204)" fill="#2f2e41"/>
    <path id="uuid-b608ab84-b9cd-47a8-808f-666f8f7d666f" d="M232.4,307.5a34.921,34.921,0,0,0,5.7-15.451L272.908,245.4,250.226,229.48l-32.869,49.036a34.872,34.872,0,0,0-11.847,11.438c-7.618,11.676-7.765,25.058-.341,29.9s19.612-.694,27.23-12.359h0Z" transform="translate(630.651 410.63)" fill="#ffb6b6"/>
    <path id="Path_4646" data-name="Path 4646" d="M368.852,138.552l-47.82-28.662L234.09,257.522l25.763,25.047Z" transform="translate(635.36 394.253)" fill="#d6d6e3"/>
    <path id="Path_4647" data-name="Path 4647" d="M570.208,329.07l10.21,97.777-38.929,3.127-2.228-94.9Z" transform="translate(677.152 424.268)" fill="#ffb6b6"/>
    <path id="Path_4648" data-name="Path 4648" d="M581.364,396.1h0l31.38,13.439s50.935,16.315,25.638,24.41-95.117,18.3-99.221,6.321-3.354-39.486-3.354-39.486l45.557-4.673h0Z" transform="translate(676.671 433.447)" fill="#2f2e41"/>
    <path id="Path_4649" data-name="Path 4649" d="M428.4,219.17l16.179,7.754s118.9-6.674,126.974,15.383,23.683,153.908,23.683,153.908l-41.976,2.695-18.293-89.33L428.411,219.17Z" transform="translate(661.97 409.218)" fill="#d6d6e3"/>
    <path id="uuid-2fb5f450-2303-4fbd-97a7-1c64874c1514" d="M536.308,248.777a34.888,34.888,0,0,0-14.178-8.391L482.519,197.74,462.77,217.182l42.306,41.169a34.821,34.821,0,0,0,9.118,13.712c10.107,9.6,23.25,12.154,29.356,5.73s2.865-19.419-7.242-29h0Z" transform="translate(666.677 406.283)" fill="#ffb6b6"/>
    <path id="Path_4650" data-name="Path 4650" d="M393.956,91.12,357.13,132.994,486.673,245.119,515.961,224.3Z" transform="translate(652.21 391.682)" fill="#6c63ff"/>
    <path id="Path_4651" data-name="Path 4651" d="M525.483,329.467l-62.691,75.72-29.492-25.6,66.227-68.023Z" transform="translate(662.641 421.87)" fill="#ffb6b6"/>
    <path id="Path_4652" data-name="Path 4652" d="M479.486,379.186h0L491.856,411s24,47.8.512,35.393-79.643-55.119-73.97-66.443,25.854-30.038,25.854-30.038l35.234,29.265h0Z" transform="translate(660.546 427.122)" fill="#2f2e41"/>
    <path id="Path_4653" data-name="Path 4653" d="M366.793,248.911s-23.683,55.96,15.065,55.96,129.691-3.229,129.691-3.229L484.637,349l31.755,16.145s66.727-62.964,62.418-91.479S454,225.99,454,225.99l-24.342,6.4-62.862,16.52h0Z" transform="translate(652.552 410.152)" fill="#d6d6e3"/>
    <path id="Path_4654" data-name="Path 4654" d="M363.11,11.12s41.771,2.217,45.512,18.248-4.821,32.38,8.618,32.21,18.134,5.81,18.134,5.81-13.712,38.827-35.245,41.055S363.11,11.12,363.11,11.12Z" transform="translate(653.029 380.727)" fill="#2f2e41"/>
    <path id="Path_4655" data-name="Path 4655" d="M393.533,110.433l1.3-36L348.158,67.82l-2.638,32Z" transform="translate(650.62 388.491)" fill="#ffb6b6"/>
    <path id="Path_4656" data-name="Path 4656" d="M407.625,45.588a37.172,37.172,0,1,1-47.047-23.455,37.177,37.177,0,0,1,47.047,23.455Z" transform="translate(649.206 381.97)" fill="#ffb6b6"/>
    <path id="Path_4657" data-name="Path 4657" d="M399.483,93.972l-42.726-8.9L348.8,156.447c-2.035,7.913,1.9,37.974,3.991,45.864l12.87,86.578,89.9-43.613-20.476-50.73,4.445-36.5L399.472,93.972h.011Z" transform="translate(650.991 390.854)" fill="#6c63ff"/>
    <path id="uuid-2ae02034-8b61-43cb-9dde-8a75b258f379" d="M419.889,177.212a34.913,34.913,0,0,0-14.883,7.072L347.5,193.312l5.094,27.241,57.78-12.1a35.04,35.04,0,0,0,16.463.1c13.609-3.024,23.069-12.5,21.147-21.147s-14.507-13.223-28.105-10.2h0Z" transform="translate(650.891 403.344)" fill="#ffb6b6"/>
    <path id="Path_4658" data-name="Path 4658" d="M392.793,136.475,354.217,103.47,297.3,203.282a34.788,34.788,0,0,0,42.306,36.462l51.049-12.45-9.744-41.078-28.7-1.057,40.6-48.7h-.023Z" transform="translate(644.004 393.373)" fill="#6c63ff"/>
    <path id="Path_4659" data-name="Path 4659" d="M347.185,19.619s-45.751,12.609-35.37,30.732S334.383,73.567,332.871,83.8s10.528,49.923,28.844,43.8,45.66-17.861,45.66-17.861S368.764,77.3,375.563,71.794s-14.655-44.341-14.655-44.341,21.772-10.528,33.312-7.367S412.2,22.177,412.2,22.177,380.759-7.258,366.786,4.441s-19.59,15.19-19.59,15.19h0v-.011Z" transform="translate(645.795 379.436)" fill="#2f2e41"/>
    <path id="Path_4546" data-name="Path 4546" d="M56.794,11.172a32.343,32.343,0,0,0-48.9,42.342L50.326,102.4l48.9-42.342A32.367,32.367,0,1,0,56.794,11.172Z" transform="translate(954.817 186.553) rotate(13)" fill="#6c63ff"/>
  </g>
</svg>
