<svg xmlns="http://www.w3.org/2000/svg" width="769.186" height="763.362" viewBox="0 0 769.186 763.362">
  <g id="Group_261" data-name="Group 261" transform="translate(-555.793 -176.736)">
    <rect id="Rectangle_462" data-name="Rectangle 462" width="274.607" height="2.683" transform="translate(559.398 853.092)" fill="#ccc"/>
    <rect id="Rectangle_462-2" data-name="Rectangle 462" width="403.308" height="2.394" transform="translate(870.623 729.367)" fill="#ccc"/>
    <path id="Path_4478" data-name="Path 4478" d="M86.584,11.164C77.033,12.579,65.546,17,60.826,30.657c-9.262,26.772,18.906,47.038,12.418,75.011A42.049,42.049,0,0,1,61.45,125.831c-9.9,9.737-21.178,13.963-31.883,20.573S7.748,163.383,2.73,179.311C-2.1,194.633-.007,211.566,5.011,224.217S17.624,246.3,24.41,256.7a220.1,220.1,0,0,1,20.619,40.689c2.43,6.265,4.654,12.874,5.446,20.377.875,8.555-.233,17.761-1.331,26.772L39.351,424.6c-1.3,10.659-2.616,21.5-1.862,31.771.847,11.85,4.347,22.183,7.8,32.274,7.447,21.764,15.415,44.375,29.444,56.43s36.072,9.421,47.931-12.883c11.292-21.233,9.216-50.51,18.841-73.317,15.173-35.942,50.873-38.846,68.047-72.963,16.486-32.73,7.261-74.6,13.879-112.637,4.748-27.256,17.584-51.618,24.2-78.437,9.495-38.641,4.962-79.554-7.605-110.375S207.654,31.83,186.356,14.934c-9.03-7.159-18.618-13.628-29.3-14.82C145.658-1.151,136.572,8.437,125.6,10.848,112.844,13.687,99.532,9.256,86.584,11.164Z" transform="matrix(0.995, 0.105, -0.105, 0.995, 1039.641, 176.736)" fill="#f2f2f2"/>
    <path id="Path_4479" data-name="Path 4479" d="M55.257,0S64.24,348.859,0,550.592" transform="matrix(0.995, 0.105, -0.105, 0.995, 1130.648, 187.896)" fill="none" stroke="#535461" stroke-miterlimit="10" stroke-width="2"/>
    <path id="Path_4480" data-name="Path 4480" d="M0,0S90.873,60.936,83.091,166.629" transform="matrix(0.995, 0.105, -0.105, 0.995, 1096.387, 215.182)" fill="none" stroke="#535461" stroke-miterlimit="10" stroke-width="2"/>
    <path id="Path_4481" data-name="Path 4481" d="M0,0S143.43,28.411,137.771,88.146" transform="matrix(0.995, 0.105, -0.105, 0.995, 1020.834, 363.173)" fill="none" stroke="#535461" stroke-miterlimit="10" stroke-width="2"/>
    <path id="Path_4482" data-name="Path 4482" d="M97.454,0S42.942,32.451,0,130.743" transform="matrix(0.995, 0.105, -0.105, 0.995, 1172.809, 274.977)" fill="none" stroke="#535461" stroke-miterlimit="10" stroke-width="2"/>
    <path id="Path_4483" data-name="Path 4483" d="M74.964,58.646S37.58,78.325,0,0" transform="matrix(0.995, 0.105, -0.105, 0.995, 1138.391, 516.773)" fill="none" stroke="#535461" stroke-miterlimit="10" stroke-width="2"/>
    <path id="Path_4484" data-name="Path 4484" d="M757.75,499.847s91.068-3.273,96.277-43.667" transform="translate(300.133 105.979)" fill="none" stroke="#535461" stroke-miterlimit="10" stroke-width="2"/>
    <path id="Path_4489" data-name="Path 4489" d="M944.969,615.565c-11.457,3.68-62.6.813-63.821-6.547-.984-5.894-14.837-43.068-20.325-57.6L858.63,545.6l26.594-5.723s.974,4.664,2.321,11.307c2.46,12.131,6.172,30.841,7.488,39.837,2.043,13.907,6.547,11.457,6.547,11.457S956.426,611.885,944.969,615.565Z" transform="translate(307.168 111.816)" fill="#ffb9b9"/>
    <path id="Path_4490" data-name="Path 4490" d="M806.608,385s-2.043,12.27,15.544,23.727,2.45,52.781,2.45,52.781l-13.008.727a31.985,31.985,0,0,1-33.633-28.958h0s7.36-11.864-6.14-42.555Z" transform="translate(301.113 101.015)" fill="#ffb9b9"/>
    <path id="Path_4491" data-name="Path 4491" d="M737.372,372.923s-25.332,24.69-37.1,41.72a60.106,60.106,0,0,0-3.808,6.162c-8.558,16.367-28.573-10.237-21.652-19.437l4.771-4.45,45.924-42.79s31.5-24.551,47.454-6.953S737.372,372.923,737.372,372.923Z" transform="translate(294.248 97.933)" fill="#ffb9b9"/>
    <ellipse id="Ellipse_799" data-name="Ellipse 799" cx="36.821" cy="36.821" rx="36.821" ry="36.821" transform="translate(1054.268 427.703)" fill="#090814"/>
    <path id="Path_4492" data-name="Path 4492" d="M649.217,588.93s-27.407,1.637-31.5,0-30.274-5.723-22.09,13.094S634.9,628.618,634.9,628.618l22.465-5.723Z" transform="translate(288.715 115.132)" fill="#090814"/>
    <path id="Path_4493" data-name="Path 4493" d="M649.217,588.93s-27.407,1.637-31.5,0-30.274-5.723-22.09,13.094S634.9,628.618,634.9,628.618l22.465-5.723Z" transform="translate(288.715 115.132)" opacity="0.05"/>
    <path id="Path_4494" data-name="Path 4494" d="M738.813,513.49l55.028,22.294,31.3,66.485s.406,23.32-20.047,28.637-49.091,2.867-56.461-2.45S711,591.625,711,591.625Z" transform="translate(296.873 109.977)" fill="#090814"/>
    <path id="Path_4495" data-name="Path 4495" d="M735.1,513.49l47.636,17.843,27.1,53.209s.353,18.667-17.351,22.925-42.5,2.289-48.866-1.968S711,576.028,711,576.028Z" transform="translate(296.873 109.977)" opacity="0.05"/>
    <path id="Path_4496" data-name="Path 4496" d="M691.568,588.954s-14.324,4.91-20.047,0-15.961,1.252-15.961,1.252l4.5,26.594s20.454-4.5,31.5-3.273Z" transform="translate(293.006 115.107)" fill="#ffbdc6"/>
    <path id="Path_4497" data-name="Path 4497" d="M691.568,588.954s-14.324,4.91-20.047,0-15.961,1.252-15.961,1.252l4.5,26.594s20.454-4.5,31.5-3.273Z" transform="translate(293.006 115.107)" fill="#ffb9b9" opacity="0.05"/>
    <path id="Path_4498" data-name="Path 4498" d="M699.448,567.823l-13.094-4.5s-14.324,12.687-23.727,2.043,8.558-54.825,8.558-54.825l19.255-31.1,13.907,43.774,12.687,21.277Z" transform="translate(293.309 107.602)" fill="#090814"/>
    <path id="Path_4499" data-name="Path 4499" d="M699.448,567.823l-13.094-4.5s-14.324,12.687-23.727,2.043,8.558-54.825,8.558-54.825l19.255-31.1,13.907,43.774,12.687,21.277Z" transform="translate(293.309 107.602)" opacity="0.05"/>
    <path id="Path_4500" data-name="Path 4500" d="M692.58,522.35l29.461,4.086,5.723,27-36.414-2.043Z" transform="translate(424.961 150.624)" fill="#090814"/>
    <path id="Path_4501" data-name="Path 4501" d="M692.58,522.35l29.461,4.086,5.723,27-36.414-2.043Z" transform="translate(424.961 150.624)" opacity="0.05"/>
    <path id="Path_4502" data-name="Path 4502" d="M778.426,421.32s12.27,47.069,51.551,13.094l10.612,135s-13.094,20.871-15.137,39.688-37.644-58.1-58.911-58.5S724.2,520.529,724.2,520.529l23.952-49.273Z" transform="translate(297.791 103.548)" opacity="0.1"/>
    <path id="Path_4503" data-name="Path 4503" d="M778.8,420.17s12.27,47.069,51.551,13.094l10.633,135.013s-13.094,20.871-15.137,39.688-37.634-58.1-58.911-58.537S724.6,519.357,724.6,519.357l23.962-49.273Z" transform="translate(297.82 103.468)" fill="#d6d6e3"/>
    <path id="Path_4504" data-name="Path 4504" d="M777.073,391.983s-17.18-2.867-27-1.23-11.051,19.641-11.051,19.641-27.813,9.82-37.227,6.547c0,0-46.234-3.273-46.234,10.633s14.73,20.454,14.73,20.454,64.185,2.139,64.645,2.043c14.73-4.086-.406,0-.406,0l-26.594,40.094,24.551,33.954,26.187-19.255s3.263-17.961,11.821-26.968c6.14-6.418,14.153-35.387,18.186-51.423a26.284,26.284,0,0,0-2.974-20.069Z" transform="translate(293.006 101.381)" opacity="0.1"/>
    <path id="Path_4505" data-name="Path 4505" d="M700.273,410.976a60.1,60.1,0,0,0-3.808,6.162C687.907,433.5,667.892,406.9,674.813,397.7l4.771-4.45C677.819,414.378,695.01,412.131,700.273,410.976Z" transform="translate(294.248 101.59)" opacity="0.1"/>
    <path id="Path_4506" data-name="Path 4506" d="M729.407,444.758H729S744.126,440.672,729.407,444.758Z" transform="translate(298.127 105.057)" opacity="0.1"/>
    <path id="Path_4507" data-name="Path 4507" d="M775.922,391.983s-17.18-2.867-27-1.23-11.051,19.641-11.051,19.641-27.813,9.82-37.227,6.547l1.637-4.5s-24.957,7.777-22.09-18.41c0,0-25.77,19.641-25.77,33.547s14.73,20.454,14.73,20.454,64.185,2.139,64.645,2.043c14.73-4.086-.406,0-.406,0l-26.594,40.094,24.551,33.954,26.187-19.255s3.273-18,11.864-27c6.14-6.418,14.153-35.387,18.186-51.423a26.284,26.284,0,0,0-2.974-20.069Z" transform="translate(292.926 101.381)" fill="#090814"/>
    <path id="Path_4508" data-name="Path 4508" d="M846.8,516.16l-.053,2.247a4.888,4.888,0,0,1,.053-2.247Z" transform="translate(306.332 110.163)" opacity="0.1"/>
    <path id="Path_4509" data-name="Path 4509" d="M887.567,551.187a46.758,46.758,0,0,1-26.744.235L858.63,545.6l26.594-5.723S886.208,544.544,887.567,551.187Z" transform="translate(307.168 111.816)" opacity="0.1"/>
    <path id="Path_4510" data-name="Path 4510" d="M811.22,401.43s22.914,14.324,31.1,16.367,29.461,9.414,29.461,9.414l8.558,29.044s3.273,22.09,0,34.371-33.954,35.591-32.317,31.911l-.813,32.317s0,47.069,6.547,56.868-12.473-9.628-12.473-9.628-23.117-34.157-25.984-55.841,1.637-105.146,1.637-105.146l-4.086-5.723S821.447,413.294,811.22,401.43Z" transform="translate(303.861 102.16)" opacity="0.1"/>
    <path id="Path_4511" data-name="Path 4511" d="M812.37,401.43s22.914,14.324,31.1,16.367,29.461,9.414,29.461,9.414l8.558,29.044s3.273,22.09,0,34.371,11.051,67.918,11.051,67.918-13.19,6.1-31.5,0c-1.23-.406-13.5-32.317-11.864-36.008l-.824,32.317s0,47.069,6.547,56.868a75.758,75.758,0,0,0,15.137,16.367l-13.094,1.637s-37.644-61.778-40.5-83.44,1.637-105.146,1.637-105.146l-4.086-5.723S822.6,413.294,812.37,401.43Z" transform="translate(303.941 102.16)" fill="#090814"/>
    <path id="Path_4512" data-name="Path 4512" d="M712.823,595.325s-27.407-39.688-26.187-58.1c0,0-3.273,25.364-6.953,27s-40.5-9.82-40.5-9.82-1.637-11.864,2.45-15.961S658.4,458.665,658.4,458.665s4.5-20.454,24.133-21.684,63.821,98.6,63.821,98.6S752.874,595.325,712.823,595.325Z" transform="translate(291.84 104.639)" fill="#090814"/>
    <path id="Path_4513" data-name="Path 4513" d="M648.253,534.52s.813,57.274-9.414,66.688,29.867,14.324,29.867,14.324-6.953-13.907-1.23-24.957,9.414-56.055,9.414-56.055Z" transform="translate(291.721 111.443)" fill="#ffb9b9"/>
    <path id="Path_4514" data-name="Path 4514" d="M652.728,596.44s-4.086-10.227-15.137-2.043c0,0-9.82,22.914-27,26.187s-2.45,13.094-1.637,13.5,28.637,4.91,35.184,2.867S677.3,630,677.3,630s-1.23-27-5.349-29.044S669.919,613.214,652.728,596.44Z" transform="translate(289.289 115.397)" opacity="0.05"/>
    <path id="Path_4515" data-name="Path 4515" d="M652.728,597.2s-4.086-10.227-15.137-2.043c0,0-9.82,22.914-27,26.188s-2.45,13.094-1.637,13.5,28.637,4.91,35.184,2.867,33.162-6.953,33.162-6.953-1.23-27-5.349-29.044S669.919,613.974,652.728,597.2Z" transform="translate(289.289 115.451)" fill="#090814"/>
    <path id="Path_4516" data-name="Path 4516" d="M722.266,356.678a190.389,190.389,0,0,0,11.147,15.554,4.279,4.279,0,0,1-.62,6.2l-1.6,1.252a4.279,4.279,0,0,1-6.151-.856,48.79,48.79,0,0,0-13.222-12.516,4.279,4.279,0,0,1-.4-7.06l4.568-3.594a4.279,4.279,0,0,1,6.279,1.016Z" transform="translate(296.783 98.902)" fill="#090814"/>
    <path id="Path_4517" data-name="Path 4517" d="M811.266,399.459c-5.253-7.488-4.279-13.329-4.279-13.329l-34.778,5.723a112.32,112.32,0,0,1,5.948,16.688,32.713,32.713,0,0,0,33.109-9.082Z" transform="translate(301.141 101.093)" opacity="0.1"/>
    <ellipse id="Ellipse_800" data-name="Ellipse 800" cx="32.734" cy="32.734" rx="32.734" ry="32.734" transform="translate(1055.346 444.262)" fill="#ffb9b9"/>
    <path id="Path_4518" data-name="Path 4518" d="M774.261,363.1c3.091-.513,5.841-2.332,8.975-2.482,4.022-.2,7.542,2.332,10.334,4.964s5.5,5.605,9.328,6.739a23.063,23.063,0,0,0,7.488.5,6.954,6.954,0,0,0,4.022-.995A5,5,0,0,0,815.8,369.8a19.255,19.255,0,0,0-.118-15.565,2.621,2.621,0,0,1-.375-1.69,2.57,2.57,0,0,1,.578-.931c2.589-3.113,5.424-6.237,6.493-10.013s-.235-8.43-4.14-10.109a7.787,7.787,0,0,0-6.151.064c-1.819.834-3.209,2.375-5.231,2.792-3.316.685-6.151-1.979-8.74-3.958a26.251,26.251,0,0,0-13.907-5.178,13.458,13.458,0,0,0-6.483.856c-2.075.941-3.594,2.632-5.349,4.022-5.905,4.771-14.174,6.108-21.566,8.708-1.412.492-2.985,1.252-3.209,2.589-.3,1.53,1.326,2.8,2.9,3.423s3.4,1.006,4.472,2.225c1.369,1.583.888,3.83,1.145,5.819.492,3.947,3.969,6.119,7.8,7.274C766.933,361.031,771.1,363.62,774.261,363.1Z" transform="translate(299.422 96.839)" opacity="0.1"/>
    <path id="Path_4519" data-name="Path 4519" d="M774.264,362.326c3.092-.513,5.841-2.332,8.975-2.482,4.022-.2,7.542,2.332,10.334,4.964s5.5,5.605,9.328,6.739a23.066,23.066,0,0,0,7.488.5,6.954,6.954,0,0,0,3.969-1.006,5,5,0,0,0,1.391-2.022,19.256,19.256,0,0,0-.118-15.565,2.621,2.621,0,0,1-.375-1.69,2.568,2.568,0,0,1,.578-.931c2.589-3.113,5.424-6.237,6.493-10.013s-.235-8.43-4.14-10.109a7.788,7.788,0,0,0-6.151.064c-1.819.834-3.209,2.375-5.231,2.792-3.316.685-6.151-1.979-8.74-3.958a26.252,26.252,0,0,0-13.907-5.178,13.457,13.457,0,0,0-6.483.856c-2.075.941-3.594,2.632-5.349,4.022-5.905,4.771-14.174,6.108-21.566,8.708-1.412.492-2.985,1.252-3.209,2.589-.3,1.53,1.326,2.8,2.9,3.423s3.4,1.006,4.472,2.225c1.369,1.583.888,3.83,1.145,5.819.492,3.947,3.969,6.119,7.8,7.274C766.936,360.272,771.108,362.861,774.264,362.326Z" transform="translate(299.418 96.783)" fill="#090814"/>
    <path id="Path_4520" data-name="Path 4520" d="M747.84,507s23.374,3.99,29.215,16.581,40.939,46.759,40.939,46.759" transform="translate(299.441 109.524)" opacity="0.05"/>
    <g id="Group_254" data-name="Group 254" transform="translate(930.654 560.779)" opacity="0.05">
      <path id="Path_4521" data-name="Path 4521" d="M680.465,554.6c-3.68,1.637-40.5-9.82-40.5-9.82a39.1,39.1,0,0,1,.128-10.7c-2.14,5.092-.941,13.575-.941,13.575s36.821,11.457,40.5,9.82c1.22-.546,2.4-3.691,3.423-7.659C682.252,552.351,681.364,554.191,680.465,554.6Z" transform="translate(-638.817 -449.367)"/>
      <path id="Path_4522" data-name="Path 4522" d="M658.784,454.89a24.123,24.123,0,0,0-.76,2.535s-8.879,53.017-14.174,72.743C648.749,514.143,657.992,459.6,658.784,454.89Z" transform="translate(-638.466 -454.89)"/>
      <path id="Path_4523" data-name="Path 4523" d="M710.48,586.12S683.073,546.432,684.3,528c0,0-.3,2.289-.813,5.541,1.241,19.33,26.22,55.434,26.22,55.434,19.063,0,27.578-13.5,31.269-27.674C736.86,574.374,728.259,586.12,710.48,586.12Z" transform="translate(-635.702 -449.791)"/>
    </g>
    <path id="Path_4524" data-name="Path 4524" d="M642.76,549.231s25,13.757,34.007,7.21,3.273-16.774,3.273-16.774l-6.953-11.457H649.766L642,541.71Z" transform="translate(292.059 111.003)" fill="#090814"/>
    <path id="Path_4525" data-name="Path 4525" d="M810.545,600.565s1.637-32.734-40.094-32.317-1.637,0-1.637,0-16.367-4.91-36.821,6.547-43.774,9-43.774,9-18.817,31.1-1.23,40.094,23.32-3.273,23.32-3.273,36.008,6.953,44.181-2.45c0,0,18,19.641,45.411,9C799.955,627.159,820.409,618.163,810.545,600.565Z" transform="translate(294.674 113.723)" fill="#090814"/>
    <path id="Path_4546" data-name="Path 4546" d="M49.953,9.826A28.447,28.447,0,0,0,6.942,47.069l37.322,43L87.275,52.826a28.469,28.469,0,1,0-37.322-43Z" transform="translate(895.871 319.553) rotate(13)" fill="#6c63ff"/>
    <path id="Path_4550" data-name="Path 4550" d="M609.747,364.232a15.68,15.68,0,0,0-23.7,20.482l20.481,23.7,23.7-20.482a15.68,15.68,0,1,0-20.482-23.7Z" transform="translate(582.088 289.512) rotate(-22)" fill="#6c63ff"/>
    <path id="Path_4532" data-name="Path 4532" d="M363.364,685.7s13.19,0,11.991,16.787c-.648,9.089.815,12.207,2.29,13.19a4.6,4.6,0,0,1,2.3,4.233c-.384,4.449-1.475,11.044-4.593,12.6-4.8,2.4-14.389,3.6-17.986,14.389s-8.394,0-8.394,0a49.787,49.787,0,0,0,.564-12.77,79.211,79.211,0,0,1-.312-15.9,34.306,34.306,0,0,0-1.451-10.9C345.977,699.491,350.174,684.5,363.364,685.7Z" transform="translate(350.311 116.453)" fill="#090814"/>
    <path id="Path_4534" data-name="Path 4534" d="M255.7,414.69s44.367,50.362,49.163,49.163,11.991-14.389,11.991-17.986,5.4,0,5.4,0-1.8,35.973-6.6,35.973-10.792,0-19.186-6L237.71,430.278Z" transform="translate(328.477 62.509)" fill="#ffb9b9"/>
    <path id="Path_4535" data-name="Path 4535" d="M416.294,460.69l4.8,64.751s13.19,35.973-7.195,49.163L406.7,527.839,394.71,460.69Z" transform="translate(359.734 71.667)" fill="#ffb9b9"/>
    <path id="Path_4536" data-name="Path 4536" d="M316.71,584.256s9.593,39.57,6,56.357,37.172,117.511,37.172,117.511l14.389-14.389L364.674,632.22,352.683,538.69Z" transform="translate(344.203 87.196)" fill="#ffb9b9"/>
    <path id="Path_4537" data-name="Path 4537" d="M316.71,584.256s9.593,39.57,6,56.357,37.172,117.511,37.172,117.511l14.389-14.389L364.674,632.22,352.683,538.69Z" transform="translate(344.203 87.196)" opacity="0.05"/>
    <path id="Path_4538" data-name="Path 4538" d="M388.674,609.862v37.172s3.6,37.172-8.394,65.95-13.19,61.154-13.19,61.154l-2.4,17.986-23.982-3.6s7.195-38.371,6-44.367,4.8-97.127,4.8-97.127-4.8-32.376-2.4-45.566,11.991-28.778,11.991-28.778Z" transform="translate(348.982 93.966)" fill="#ffb9b9"/>
    <path id="Path_4539" data-name="Path 4539" d="M353.364,745.7s13.19,0,11.991,16.787c-.647,9.089.815,12.207,2.29,13.19a4.6,4.6,0,0,1,2.3,4.233c-.384,4.449-1.475,11.044-4.593,12.6-4.8,2.4-14.389,3.6-17.986,14.389s-8.394,0-8.394,0a49.787,49.787,0,0,0,.564-12.77,79.214,79.214,0,0,1-.312-15.9,34.3,34.3,0,0,0-1.451-10.9C335.977,759.491,340.174,744.5,353.364,745.7Z" transform="translate(348.32 128.398)" fill="#090814"/>
    <ellipse id="Ellipse_801" data-name="Ellipse 801" cx="35.973" cy="35.973" rx="35.973" ry="35.973" transform="translate(659.725 270.954)" fill="#ffb9b9"/>
    <path id="Path_4540" data-name="Path 4540" d="M337.5,277.69s10.792,50.362-29.977,62.353,45.566,26.38,45.566,26.38l61.154-21.584S345.9,311.265,362.684,277.69Z" transform="translate(340.199 35.232)" fill="#ffb9b9"/>
    <path id="Path_4542" data-name="Path 4542" d="M368.938,333.283l48.587-3.226,24.558,9.221s15.588,16.787,4.8,50.362,10.792,103.122,10.792,103.122-16.188,11.128-29.977,10.156a20.9,20.9,0,0,1-3.6-.564s13.19,8.394,11.991,51.561c0,0-23.982,111.516-22.783,116.312,0,0-26.38,2.4-35.973-3.6,0,0-7.195-63.552-14.389-63.552,0,0-16.787,51.561-15.588,59.955l-25.181-11.991s-1.475-53.36-9.593-68.349c-8.921-16.487,0-101.923,7.195-109.118s16.787-68.348-9.593-86.335l-47.964,46.765s-10.792,28.778-29.977,16.787c0,0-7.195-4.8,0-20.385S286.2,357.265,286.2,357.265l23.982-27.579,19.186-6S355.748,344.075,368.938,333.283Z" transform="translate(326.75 44.392)" fill="#e6e6e6"/>
    <path id="Path_4543" data-name="Path 4543" d="M388.526,368.19s-3.6,44.367-7.195,55.158,7.195,65.95,7.195,65.95" transform="translate(356.926 53.251)" opacity="0.1"/>
    <path id="Path_4552" data-name="Path 4552" d="M609.747,364.232a15.68,15.68,0,0,0-23.7,20.482l20.481,23.7,23.7-20.482a15.68,15.68,0,1,0-20.482-23.7Z" transform="translate(183.238 -116.892)" fill="#6c63ff"/>
    <path id="Path_2458" data-name="Path 2458" d="M366.908,348.825c-26.3,13.146-11.127,49.038-14.231,64.1-5.084,24.668-80.063,12.132-80.063,12.132-9.122-1.641-14.682-103.133,35.276-102.235C333.072,323.272,350.494,331.268,366.908,348.825Z" transform="translate(368.963 -71.496)" fill="#090814"/>
  </g>
</svg>
