<svg xmlns="http://www.w3.org/2000/svg" width="731.292" height="800.357" viewBox="0 0 731.292 800.357"><g transform="translate(-549 -161.82)"><circle cx="152.263" cy="152.263" r="152.263" transform="translate(586.264 192.987)" fill="#ff6884"/><path d="M410.273,55.785,117,217.329c-33.878,43.436,609.849,46.121,604.536.16L437.154,55.945A28.175,28.175,0,0,0,410.273,55.785Z" transform="translate(555.731 164.872)" fill="#6c63ff"/><path d="M410.273,55.785,117,217.329c-33.878,43.436,609.849,46.121,604.536.16L437.154,55.945A28.175,28.175,0,0,0,410.273,55.785Z" transform="translate(555.731 164.872)" opacity="0.2" style="isolation:isolate"/><path d="M727.053,760.948l-74.6-1.59H140.911L0,756.178C467.161,645.771,323.523,655.278,727.053,760.948Z" transform="translate(549 201.23)" fill="#f2f2f2" opacity="0.8" style="isolation:isolate"/><path d="M650.627,754.542l-5.921,3.18H133.164C482.842,685.542,273.2,691.9,650.627,754.542Z" transform="translate(556.747 202.866)" fill="#e6e6e6"/><path d="M388.6,45.351h22.017L403.189,3.5C402.73.917,400.972,0,399.605,0s-3.125.917-3.584,3.5Z" transform="translate(571.606 161.82)" fill="#3f3d56"/><rect width="24.275" height="592.063" transform="translate(958.115 345.25)" fill="#3f3d56"/><path d="M403.037,264.931a38.7,38.7,0,0,1-27.452-11.317L314.32,192.789l5-5.042,61.265,60.825a31.876,31.876,0,0,0,45.338-.427l58.543-60.351,5.1,4.947-58.543,60.351a38.706,38.706,0,0,1-27.612,11.838h-.378Z" transform="translate(567.285 172.742)" fill="#3f3d56"/><path d="M423.27,228.083c-30.146,0-60.529-.1-90.019-.312-62.481-.444-115.826-1.322-154.266-2.539-65.521-2.074-66.219-4.431-66.517-5.437-.068-.233-.092-.684.525-1.09L405.46,26.372a20.653,20.653,0,0,1,23.053.165L724.2,218.863c.617.419.586.871.514,1.1-.369,1.182-1.489,4.779-131.317,6.893C544,227.663,484.134,228.083,423.27,228.083Z" transform="translate(555.541 163.155)" fill="#6c63ff"/><g transform="translate(1048.2 773.266)"><path d="M447.039,482.959l-23.126.025c-2.589,5.755.949,12.486,5.473,16.885s10.2,7.774,13.538,13.128c7.413,11.88.427,27.5,2.876,41.29,3.3,18.565,22.761,30.249,28.688,48.149a36.1,36.1,0,0,1-4.022,30.668c-1.08,1.647-2.327,3.272-2.7,5.2a6.277,6.277,0,0,0,10.645,5.6c-1.83,2.079-1.23,5.589.824,7.447a8.96,8.96,0,0,0,7.823,1.682c8.781-1.854,13.2-12,13.556-20.965s-1.9-18.053-.139-26.854c1.12,12.631,15.411,20.652,16.531,33.283.208,2.341-12.728,9.381-11.524,11.4,3.043,5.1,10.3,5.119,16.2,4.508,10.173-1.052,21.47-2.692,27.851-10.684,4.3-5.385,5.413-12.632,5.554-19.52a88.011,88.011,0,0,0-15.106-50.917c-13.465-19.8-34.871-33.825-45.442-55.307-3.593-7.3-5.791-15.217-9.287-22.565s-8.637-14.378-16.076-17.676-17.454-1.671-21.746,5.241" transform="translate(-423.037 -476.091)" fill="#3f3d56"/><path d="M565.848,702.666a3.142,3.142,0,0,1-1.336-.3.66.66,0,1,1,.558-1.2,2.082,2.082,0,0,0,1.889-.13,3.706,3.706,0,0,0,1.841-2.581c.3-2-.7-4.052-1.587-5.859-2.584-5.268-5.139-10.909-5.523-16.871-.432-6.722,2.343-12.983,7.069-15.952,3.514-2.206,8.159-2.784,13.081-1.627,4.216.992,8.1,3.071,12.039,5.3a.66.66,0,0,1-.65,1.149c-4-2.26-7.64-4.208-11.692-5.161-4.575-1.076-8.864-.557-12.076,1.459-4.322,2.714-6.856,8.5-6.454,14.749.368,5.72,2.865,11.226,5.391,16.374.923,1.882,2.073,4.225,1.707,6.638a5.018,5.018,0,0,1-2.522,3.547,3.672,3.672,0,0,1-1.735.459Z" transform="translate(-470.139 -537.761)" fill="#2f2e41"/><path d="M498.85,497.759a17.542,17.542,0,0,1-4.122,20.586,41.982,41.982,0,0,0-3.713,3.126,5.381,5.381,0,0,0-1.629,4.4c-3.751-3.721-7.575-7.544-9.844-12.315s-2.711-10.761.241-15.142c1.409-2.09,3.461-3.657,5.06-5.606s2.752-4.6,1.887-6.97" transform="translate(-441.614 -479.401)" fill="#2f2e41"/><path d="M611.2,682.344c-1.794,5.485,1.16,11.8,6.005,14.93s11.107,3.458,16.7,2.041a30.681,30.681,0,0,0,21.989-22.924c.952-4.542.885-9.41,3.041-13.52,1.355-2.583,3.591-4.917,3.656-7.833a6.556,6.556,0,0,0-3.584-5.722,9.1,9.1,0,0,0-6.914-.423c-5.385,1.711-8.69,7.164-10.4,12.548s-2.352,11.141-4.842,16.212-7.637,9.5-13.234,8.726c-4.84-.669-8.936-5.033-13.786-4.439" transform="translate(-486.512 -534.648)" fill="#3f3d56"/></g><g transform="translate(633.951 659.041)"><path d="M203.18,597.138c-10.494,1.608-18.17,8.327-17.145,15s10.361,10.786,20.858,9.176A26.569,26.569,0,0,0,218.56,616.7l75.911-11.437,2.861-26.224L215.7,598.048a26.57,26.57,0,0,0-12.519-.91Z" transform="translate(-74.134 -463.536)" fill="#ffb6b6"/><path d="M388.647,544.569,371.44,581.082l-86.5,29.119h0l4.215-29.676h0L368.977,542.8Z" transform="translate(-68.375 -465.644)" fill="#f2f2f2"/><path d="M234.124,676.339l-15.448,39.075-19.992-13.631L210.5,660.891Z" transform="translate(-73.393 -458.774)" fill="#ffb6b6"/><path d="M173.451,661.75l-40.892,39.075,16.357,17.266,41.8-32.714Z" transform="translate(-77.24 -458.724)" fill="#ffb6b6"/><path d="M392.686,542.822l-.454-3.181-10.45-20.446-34.531,9.087,6.361,28.17Z" transform="translate(-64.75 -467.017)" fill="#ffb6b6"/><path d="M386.289,674.764l1.062,13.649s4.39,57.232-31.05,61.775-50.888,9.087-71.789-26.353L251.8,665.677,232.69,688.413,207.271,668.4s18.174-70.88,32.714-73.606a33.165,33.165,0,0,1,5.424-.548,37.441,37.441,0,0,1,30.585,15.285l41.232,55.235,14.994-6.815,54.069,16.811Z" transform="translate(-72.893 -462.651)" fill="#090814"/><path d="M193.4,711.444l9.182-13.549,21.074,10s7,24.445-1.177,27.171-30.9-.909-30.9-.909-41.8,9.087-42.71.909,19.083-10,19.083-10L193.4,711.444h0Z" transform="translate(-76.292 -456.621)" fill="#ffb6b6"/><path d="M281.558,706.039,218.4,666.245l-32.26,28.889L164.333,669.69s39.984-59.067,51.8-61.793,30.9-4.544,30.9-4.544l58.158,53.615-23.627,49.071h0Z" transform="translate(-75.391 -462.121)" fill="#090814"/><path d="M140,695.38l13.355,19.052-.523,5.877s-5.422,23.616-18.144,15.627-13.631-9.806-13.631-9.806-36.349,8.179-39.984-6.361,6.361-11.813,6.361-11.813l9.076,5.452,35.38-11.827,8.109-6.2Z" transform="translate(-80.281 -456.768)" fill="#ffb6b6"/><circle cx="29.079" cy="29.079" r="29.079" transform="translate(264.325 13.103)" fill="#ffb6b6"/><path d="M353.05,549.522l41.8-12.722s16.357,38.166,13.631,55.432-27.563,99.523-27.563,99.523l-55.131-30.46s-.909-18.174-3.635-26.353-11.359-33.168,7.724-54.069,23.172-31.351,23.172-31.351Z" transform="translate(-66.462 -465.993)" fill="#f2f2f2"/><g transform="translate(188.489 101.862)"><path d="M264.506,733.463c-6.8,8.15-8.112,18.267-2.924,22.6s14.906,1.23,21.71-6.924a26.568,26.568,0,0,0,5.691-11.183l64.4-72.208-19.956-10.787-58.93,70.905a26.57,26.57,0,0,0-9.988,7.6h0Z" transform="translate(-258.407 -560.982)" fill="#ffb6b6"/><path d="M384.743,566.148l9.88,39.136L350.63,681.7,324.2,662.279l6.484-5.194,37.738-79.816Z" transform="translate(-254.58 -566.148)" fill="#f2f2f2"/></g><path d="M332.5,507.07c7.458-.018,7.881.032,9.087,0,9.25-.244,11.669-3.883,16.357-3.635,8.368.443-2.676,42.4-7.27,61.793-4.5,19.022,10.719,36.068,11.813,37.258,15.453,16.806,42.6,19.879,47.253,12.722,3.77-5.793-9.591-14.6-6.361-27.262,3.157-12.377,17.734-11.059,21.809-22.718,4.267-12.21-10.073-18.369-19.083-48.162-5.174-17.111-4.259-20.3-9.087-30.9-12.906-28.327-76.164-16.266-69.063,10,1.374,5.08-2.282,10.921,4.544,10.9Z" transform="translate(-65.905 -469.886)" fill="#090814"/></g></g></svg>