<svg xmlns="http://www.w3.org/2000/svg" width="800.626" height="663.617" viewBox="0 0 800.626 663.617">
  <g id="Group_231" data-name="Group 231" transform="translate(-542.998 -250.402)">
    <path id="Path_3690" data-name="Path 3690" d="M483.873,251.823l24.837-26.464-15.45-14.5-24.837,26.464a22.255,22.255,0,0,0-15.576,7.3c-7.748,8.252-8.481,20.138-1.662,26.544s18.636,4.917,26.384-3.335a22.254,22.254,0,0,0,6.3-16Z" transform="translate(607.941 281.091)" fill="#ffb6b6"/>
    <path id="Path_3690_-_Outline" data-name="Path 3690 - Outline" d="M461.7,275.9h0a17,17,0,0,1-5.925-1.031,15.047,15.047,0,0,1-9-9.134,17.879,17.879,0,0,1-.968-7.19,23.425,23.425,0,0,1,6.5-14.431,23.086,23.086,0,0,1,15.79-7.529L493.226,209.8l16.544,15.525-25.136,26.783a23.045,23.045,0,0,1-6.518,16.24,24.555,24.555,0,0,1-7.809,5.627A21.117,21.117,0,0,1,461.7,275.9Zm31.593-63.977-24.541,26.149-.317.005a21.51,21.51,0,0,0-15.042,7.064c-7.448,7.933-8.208,19.365-1.695,25.484a13.545,13.545,0,0,0,4.6,2.837,15.5,15.5,0,0,0,5.4.937,19.607,19.607,0,0,0,7.989-1.79,23.631,23.631,0,0,0,12.085-12.789,19.769,19.769,0,0,0,1.349-7.949v-.02l0-.325,24.525-26.132Z" transform="translate(607.941 281.091)" fill="#06060f"/>
    <path id="Path_3691" data-name="Path 3691" d="M581.04,111.67,463.47,242.5l27.37,24.6L615.5,144.633" transform="translate(610.418 266.596)" fill="#6c63ff"/>
    <path id="Line_2" data-name="Line 2" d="M0,3.042l0-1.5L800-.75l0,1.5Z" transform="translate(543 910.965)" fill="#d6d6e3"/>
    <path id="Path_3692" data-name="Path 3692" d="M75.71,207.124l-.447-2.292a9.667,9.667,0,0,1,5.169-10.521c21.226-10.521,45.822-15.3,73.089-14.2h0a9.664,9.664,0,0,1,9.123,7.805l.4,2.04L75.71,207.135Z" transform="translate(553.662 276.574)" fill="#090814"/>
    <path id="Path_3692_-_Outline" data-name="Path 3692 - Outline" d="M74.962,208.047l0-.85-.433-2.222A10.415,10.415,0,0,1,80.1,193.637c19.32-9.576,41.468-14.432,65.829-14.432,2.506,0,5.07.052,7.622.155a10.415,10.415,0,0,1,9.829,8.409l.546,2.777Zm70.968-27.342c-24.128,0-46.052,4.8-65.164,14.277A8.912,8.912,0,0,0,76,204.688l.305,1.566,85.86-16.89-.256-1.3a8.919,8.919,0,0,0-8.418-7.2C150.96,180.757,148.416,180.705,145.93,180.705Z" transform="translate(553.662 276.574)" fill="#06060f"/>
    <path id="Path_3693" data-name="Path 3693" d="M514.284,208.7,426.96,191.515l.4-2.04a9.664,9.664,0,0,1,9.123-7.805c27.289-1.1,51.874,3.679,73.089,14.2a9.681,9.681,0,0,1,5.169,10.521l-.458,2.292Z" transform="translate(605.083 276.802)" fill="#090814"/>
    <path id="Path_3693_-_Outline" data-name="Path 3693 - Outline" d="M515.034,209.607l-88.954-17.5.546-2.776a10.415,10.415,0,0,1,9.829-8.41c2.554-.1,5.12-.155,7.627-.155,24.368,0,46.514,4.856,65.825,14.433a10.43,10.43,0,0,1,5.572,11.338l-.444,2.222Zm-87.193-18.684,85.852,16.891.314-1.57a8.926,8.926,0,0,0-4.767-9.7c-19.1-9.474-41.025-14.277-65.159-14.277-2.488,0-5.033.052-7.567.154a8.919,8.919,0,0,0-8.418,7.2Z" transform="translate(605.083 276.802)" fill="#06060f"/>
    <path id="Path_3694" data-name="Path 3694" d="M83.9,626.864,45.7,610.5,30.79,582.532l.264-.6L177.048,250.291h.86l288.4-5.421,47.347,65.673,99.06,299.966-45.479,16.4a1.356,1.356,0,0,1-1.788-1.02h0c-8.424-44.963-41.754-112.848-60.86-149.307a48.023,48.023,0,0,0-42.671-25.8H189.758a54.688,54.688,0,0,0-49.2,30.98c-24.711,51.931-54.544,143.381-54.842,144.3h0a1.348,1.348,0,0,1-1.811.825Z" transform="translate(547.19 286.06)" fill="#d6d6e3"/>
    <path id="Path_3695" data-name="Path 3695" d="M389.267,319.172H226.849c-20.458,0-38.155-13.272-42.075-31.564L168.2,210.175a17.976,17.976,0,0,1,3.3-14.67,21.641,21.641,0,0,1,15.782-8.4,1596.629,1596.629,0,0,1,241.513,0,21.638,21.638,0,0,1,15.782,8.4,17.941,17.941,0,0,1,3.312,14.67l-16.573,77.433c-3.908,18.281-21.6,31.564-42.074,31.564Z" transform="translate(567.211 276.951)" fill="#e6e6e6"/>
    <path id="Path_3696" data-name="Path 3696" d="M52.475,620.146a4.971,4.971,0,0,1-1.971-.355c-16.688-6.04-29.41-18.349-37.7-36.527-17.754-38.911-15.9-104.734,5.524-195.622,17.284-73.352,42.854-142.888,53.043-169.375a29.754,29.754,0,0,1,20.47-18.132l66.212-16.688a32.776,32.776,0,0,1,39.7,23.645c5.41,21.261,12.516,49.822,15.564,65.077,4.218,21.1.825,35.645-11.347,48.63a632.15,632.15,0,0,0-45.02,53.043l-1.421,1.891c-30.544,37.731-75.576,187.5-84.3,217.146-5.456,18.556-11.415,24.653-15.45,26.5a7.967,7.967,0,0,1-3.312.779Z" transform="translate(542.8 276.939)" fill="#d6d6e3"/>
    <path id="Path_3697" data-name="Path 3697" d="M380.236,315.118h-148.8a39.865,39.865,0,0,1-39.06-32.195l-15.186-78.074a20.019,20.019,0,0,1,17.96-23.771,1331.723,1331.723,0,0,1,221.364,0,20.019,20.019,0,0,1,17.96,23.771l-15.186,78.074a39.863,39.863,0,0,1-39.06,32.195Z" transform="translate(568.529 276.065)" fill="#6c63ff"/>
    <path id="Path_3698" data-name="Path 3698" d="M553.64,621.715a7.908,7.908,0,0,1-3.324-.779c-4.034-1.845-9.994-7.943-15.461-26.5-8.722-29.639-53.754-179.4-84.264-217.1l-1.444-1.925a633.972,633.972,0,0,0-45.02-53.043c-12.172-12.986-15.564-27.53-11.347-48.63,3.049-15.266,10.143-43.817,15.564-65.077a32.78,32.78,0,0,1,39.7-23.645L514.259,201.7a29.753,29.753,0,0,1,20.47,18.132c10.189,26.5,35.759,96.034,53.032,169.375,21.421,90.9,23.278,156.711,5.524,195.622-8.3,18.178-21.009,30.487-37.8,36.562a4.723,4.723,0,0,1-1.857.321Z" transform="translate(599.836 277.169)" fill="#d6d6e3"/>
    <circle id="Ellipse_605" data-name="Ellipse 605" cx="35.966" cy="35.966" r="35.966" transform="translate(732.318 606.013)" fill="#f2f2f2"/>
    <circle id="Ellipse_606" data-name="Ellipse 606" cx="22.476" cy="22.476" r="22.476" transform="translate(745.808 619.504)" fill="#090814"/>
    <circle id="Ellipse_607" data-name="Ellipse 607" cx="35.966" cy="35.966" r="35.966" transform="translate(939.092 606.013)" fill="#f2f2f2"/>
    <circle id="Ellipse_608" data-name="Ellipse 608" cx="22.476" cy="22.476" r="22.476" transform="translate(952.582 619.504)" fill="#090814"/>
    <circle id="Ellipse_609" data-name="Ellipse 609" cx="21.582" cy="21.582" r="21.582" transform="translate(1101.819 543.973)" fill="#090814"/>
    <path id="Ellipse_609_-_Outline" data-name="Ellipse 609 - Outline" d="M21.582-.75a22.337,22.337,0,0,1,8.693,42.908A22.337,22.337,0,0,1,12.889,1.005,22.193,22.193,0,0,1,21.582-.75Zm0,43.163A20.837,20.837,0,0,0,29.69,2.387a20.837,20.837,0,0,0-16.217,38.39A20.7,20.7,0,0,0,21.582,42.413Z" transform="translate(1101.819 543.973)" fill="#06060f"/>
    <circle id="Ellipse_610" data-name="Ellipse 610" cx="21.582" cy="21.582" r="21.582" transform="translate(1051.481 499.022)" fill="#090814"/>
    <path id="Ellipse_610_-_Outline" data-name="Ellipse 610 - Outline" d="M21.582-.75a22.337,22.337,0,0,1,8.693,42.908A22.337,22.337,0,0,1,12.889,1.005,22.193,22.193,0,0,1,21.582-.75Zm0,43.163A20.837,20.837,0,0,0,29.69,2.387a20.837,20.837,0,0,0-16.217,38.39A20.7,20.7,0,0,0,21.582,42.413Z" transform="translate(1051.481 499.022)" fill="#06060f"/>
    <circle id="Ellipse_611" data-name="Ellipse 611" cx="21.582" cy="21.582" r="21.582" transform="translate(1004.731 545.773)" fill="#090814"/>
    <path id="Ellipse_611_-_Outline" data-name="Ellipse 611 - Outline" d="M21.582-.75a22.337,22.337,0,0,1,8.693,42.908A22.337,22.337,0,0,1,12.889,1.005,22.193,22.193,0,0,1,21.582-.75Zm0,43.163A20.837,20.837,0,0,0,29.69,2.387a20.837,20.837,0,0,0-16.217,38.39A20.7,20.7,0,0,0,21.582,42.413Z" transform="translate(1004.731 545.773)" fill="#06060f"/>
    <circle id="Ellipse_612" data-name="Ellipse 612" cx="21.582" cy="21.582" r="21.582" transform="translate(1051.481 590.724)" fill="#090814"/>
    <path id="Ellipse_612_-_Outline" data-name="Ellipse 612 - Outline" d="M21.582-.75a22.337,22.337,0,0,1,8.693,42.908A22.337,22.337,0,0,1,12.889,1.005,22.193,22.193,0,0,1,21.582-.75Zm0,43.163A20.837,20.837,0,0,0,29.69,2.387a20.837,20.837,0,0,0-16.217,38.39A20.7,20.7,0,0,0,21.582,42.413Z" transform="translate(1051.481 590.724)" fill="#06060f"/>
    <path id="Path_3699" data-name="Path 3699" d="M114.8,269.648a7.414,7.414,0,0,1-4.516-1.536L96.545,257.487a7.424,7.424,0,0,1-2.865-5.845V231.871a7.391,7.391,0,0,1,7.381-7.381h27.5a7.391,7.391,0,0,1,7.381,7.381v19.771a7.458,7.458,0,0,1-2.865,5.845L119.33,268.112a7.342,7.342,0,0,1-4.516,1.536Z" transform="translate(556.38 283.082)" fill="#090814"/>
    <path id="Path_3699_-_Outline" data-name="Path 3699 - Outline" d="M114.815,270.4H114.8a8.214,8.214,0,0,1-4.972-1.691L96.087,258.08a8.176,8.176,0,0,1-3.157-6.439V231.871a8.14,8.14,0,0,1,8.131-8.131h27.5a8.14,8.14,0,0,1,8.131,8.131v19.771a8.2,8.2,0,0,1-3.156,6.438l-13.743,10.625A8.04,8.04,0,0,1,114.815,270.4ZM101.061,225.24a6.639,6.639,0,0,0-6.631,6.631v19.771A6.667,6.667,0,0,0,97,256.893l13.743,10.625A6.7,6.7,0,0,0,114.8,268.9h.011a6.554,6.554,0,0,0,4.056-1.378l13.743-10.625a6.693,6.693,0,0,0,2.574-5.252V231.871a6.639,6.639,0,0,0-6.631-6.631Z" transform="translate(556.38 283.082)" fill="#06060f"/>
    <path id="Path_3700" data-name="Path 3700" d="M156.375,298.116H136.6a7.436,7.436,0,0,1-5.834-2.865L120.146,281.5a7.379,7.379,0,0,1,0-9.02l10.625-13.742a7.4,7.4,0,0,1,5.834-2.865h19.771a7.391,7.391,0,0,1,7.381,7.381v27.5a7.391,7.391,0,0,1-7.381,7.381Z" transform="translate(560.023 287.668)" fill="#090814"/>
    <path id="Path_3700_-_Outline" data-name="Path 3700 - Outline" d="M156.375,298.878h-.75v-.011H136.6a8.191,8.191,0,0,1-6.426-3.156l-10.626-13.755a8.125,8.125,0,0,1,0-9.938l10.624-13.741a8.164,8.164,0,0,1,6.427-3.157h19.771a8.14,8.14,0,0,1,8.131,8.131v27.5A8.14,8.14,0,0,1,156.375,298.878ZM136.6,256.62a6.655,6.655,0,0,0-5.24,2.573L120.74,272.936a6.624,6.624,0,0,0,0,8.1l10.624,13.753a6.681,6.681,0,0,0,5.24,2.574h20.163a6.639,6.639,0,0,0,6.239-6.62v-27.5a6.639,6.639,0,0,0-6.631-6.631Z" transform="translate(560.023 287.668)" fill="#06060f"/>
    <path id="Path_3701" data-name="Path 3701" d="M93.382,298.118H73.611a7.391,7.391,0,0,1-7.381-7.381v-27.5a7.391,7.391,0,0,1,7.381-7.381H93.382a7.475,7.475,0,0,1,5.845,2.865l10.625,13.742a7.379,7.379,0,0,1,0,9.02L99.227,295.241a7.424,7.424,0,0,1-5.845,2.865Z" transform="translate(552.369 287.666)" fill="#090814"/>
    <path id="Path_3701_-_Outline" data-name="Path 3701 - Outline" d="M94.132,298.868H73.611a8.14,8.14,0,0,1-8.131-8.131v-27.5a8.14,8.14,0,0,1,8.131-8.131H93.382a8.238,8.238,0,0,1,6.436,3.153l10.627,13.745a8.125,8.125,0,0,1,0,9.938L99.821,295.7a8.177,8.177,0,0,1-5.689,3.122ZM73.611,256.61a6.639,6.639,0,0,0-6.631,6.631v27.5a6.639,6.639,0,0,0,6.631,6.631H92.632v-.011h.75a6.667,6.667,0,0,0,5.251-2.573l10.625-13.754a6.624,6.624,0,0,0,0-8.1L98.634,259.184a6.725,6.725,0,0,0-5.252-2.574Z" transform="translate(552.369 287.666)" fill="#06060f"/>
    <path id="Path_3702" data-name="Path 3702" d="M128.547,329.866h-27.5a7.391,7.391,0,0,1-7.381-7.381V302.715a7.436,7.436,0,0,1,2.865-5.834l13.754-10.625a7.379,7.379,0,0,1,9.02,0l13.742,10.625a7.424,7.424,0,0,1,2.865,5.845V322.5a7.391,7.391,0,0,1-7.381,7.381Z" transform="translate(556.379 291.883)" fill="#090814"/>
    <path id="Path_3702_-_Outline" data-name="Path 3702 - Outline" d="M128.535,330.628h-1.812l.011-.011H101.051a8.14,8.14,0,0,1-8.131-8.131V302.715a8.191,8.191,0,0,1,3.156-6.426l13.755-10.626a8.129,8.129,0,0,1,9.938,0l13.741,10.624a8.176,8.176,0,0,1,3.157,6.439V322.5A8.14,8.14,0,0,1,128.535,330.628ZM114.8,285.467a6.674,6.674,0,0,0-4.056,1.383L96.994,297.474a6.681,6.681,0,0,0-2.574,5.24v19.771a6.639,6.639,0,0,0,6.631,6.631h27.877a6.64,6.64,0,0,0,6.239-6.62V302.726a6.667,6.667,0,0,0-2.573-5.251L118.85,286.85A6.638,6.638,0,0,0,114.8,285.467Z" transform="translate(556.379 291.883)" fill="#06060f"/>
    <rect id="Rectangle_833" data-name="Rectangle 833" width="23.037" height="23.037" transform="translate(1295.891 828.813) rotate(-36.4)" fill="#ffb9b9"/>
    <path id="Path_3703" data-name="Path 3703" d="M701.907,529.526l-39.4,29.054a28.205,28.205,0,0,1-11.438,4.986l-9.845,1.868a5.42,5.42,0,0,1-5.272-8.676l11.931-15.2,15.7-32.378.092.08c2.269,2.075,5.719,5.192,5.971,5.352,4.848,1.077,8.573.47,11.072-1.788,4.355-3.943,3.473-11.691,3.473-11.759v-.057l.046-.034a3.868,3.868,0,0,1,3.393-.47c2.269.825,3.45,3.805,3.622,4.264,2.212.309,7.966,6.911,8.436,7.438,3.312.6,5.593,1.845,6.774,3.691a7.527,7.527,0,0,1,.6,6.132,13.673,13.673,0,0,1-5.158,7.5Z" transform="translate(635.454 323.387)" fill="#090814"/>
    <path id="Path_3703_-_Outline" data-name="Path 3703 - Outline" d="M686.462,499.549a4.131,4.131,0,0,1,1.423.253c2.2.8,3.469,3.287,3.918,4.337,1.4.478,3.275,2.2,4.619,3.514,1.126,1.1,2.355,2.4,3.653,3.866,3.385.653,5.744,1.99,7.015,3.977a8.236,8.236,0,0,1,.69,6.726,14.242,14.242,0,0,1-3.866,6.577l.243,0-41.207,30.384A28.971,28.971,0,0,1,651.2,564.3l-9.845,1.868a6.09,6.09,0,0,1-1.14.108,6.169,6.169,0,0,1-4.862-9.984l11.882-15.135,16.1-33.19.844.738c2.356,2.154,5.176,4.7,5.793,5.21a19.129,19.129,0,0,0,3.988.464,9.013,9.013,0,0,0,6.253-2.112,10.749,10.749,0,0,0,3.094-6.625,20.013,20.013,0,0,0,.138-4.474,1.018,1.018,0,0,1-.006-.1v-.432l.378-.284.035-.021A5.12,5.12,0,0,1,686.462,499.549Zm13.2,30.7h-.016l1.809-1.33a12.9,12.9,0,0,0,4.876-7.081,6.815,6.815,0,0,0-.5-5.539c-1.068-1.67-3.179-2.8-6.274-3.356l-.255-.046-.172-.193-.087-.1c-4.463-5.047-7.041-6.977-7.892-7.1l-.442-.062-.157-.418c-.119-.316-1.214-3.109-3.176-3.822a2.638,2.638,0,0,0-.909-.162,3.4,3.4,0,0,0-1.493.382c.132,2.018.2,8.378-3.75,11.953a10.458,10.458,0,0,1-7.26,2.5,20.823,20.823,0,0,1-4.478-.536l-.129-.029-.111-.071c-.343-.218-3.925-3.472-5.423-4.837l-15.3,31.549-11.981,15.261a4.669,4.669,0,0,0,3.682,7.558,4.59,4.59,0,0,0,.859-.081l9.846-1.868a27.462,27.462,0,0,0,11.133-4.852Z" transform="translate(635.454 323.387)" fill="#06060f"/>
    <rect id="Rectangle_834" data-name="Rectangle 834" width="23.037" height="23.037" transform="translate(1132.41 869.28)" fill="#ffb9b9"/>
    <path id="Path_3704" data-name="Path 3704" d="M540.536,583.449H491.574a28.269,28.269,0,0,1-12.16-2.774l-9.032-4.344a5.42,5.42,0,0,1,.905-10.109l18.625-5.158,31.851-16.745.023.126c.6,3.014,1.524,7.576,1.639,7.851,3.266,3.748,6.625,5.467,9.971,5.123,5.845-.6,9.731-7.347,9.777-7.415l.034-.057h.057a3.915,3.915,0,0,1,3.014,1.65c1.33,2.006.516,5.112.39,5.57,1.593,1.559,2.315,10.292,2.372,10.991,2.315,2.453,3.4,4.8,3.266,6.991a7.536,7.536,0,0,1-3.163,5.3,13.707,13.707,0,0,1-8.6,2.98Z" transform="translate(610.979 329.82)" fill="#090814"/>
    <path id="Path_3704_-_Outline" data-name="Path 3704 - Outline" d="M541,584.2H491.574a29.017,29.017,0,0,1-12.485-2.848l-9.032-4.344a6.17,6.17,0,0,1,1.029-11.507l18.549-5.137,32.684-17.183.2,1.125c.635,3.213,1.384,6.861,1.576,7.621,2.8,3.176,5.65,4.786,8.46,4.786a7.474,7.474,0,0,0,.761-.039,10.8,10.8,0,0,0,6.458-3.535,19.72,19.72,0,0,0,2.739-3.5l.014-.022h0l.253-.421h.523l.041,0a4.626,4.626,0,0,1,3.558,1.982c1.275,1.924.865,4.6.584,5.8.874,1.259,1.375,3.913,1.684,5.883.327,2.083.52,4.1.595,4.968,2.331,2.532,3.437,5.007,3.289,7.36a8.236,8.236,0,0,1-3.44,5.831,14.434,14.434,0,0,1-8.6,3.139Zm-19.778-38.747-31.031,16.314-18.7,5.179a4.67,4.67,0,0,0-.782,8.71L479.738,580a27.507,27.507,0,0,0,11.835,2.7h48.5l.012-.023h.462a12.958,12.958,0,0,0,8.125-2.814,6.815,6.815,0,0,0,2.886-4.761c.124-1.979-.906-4.142-3.064-6.427l-.181-.191-.021-.262c-.051-.623-.245-2.835-.6-5.118-.668-4.259-1.352-5.209-1.546-5.4l-.316-.309.117-.426c.147-.533.822-3.277-.292-4.957a3.027,3.027,0,0,0-2.063-1.259,21.657,21.657,0,0,1-2.745,3.439,12.235,12.235,0,0,1-7.373,3.974,8.984,8.984,0,0,1-.914.047c-3.3,0-6.563-1.825-9.7-5.423l-.08-.092-.047-.112C522.575,552.209,521.647,547.594,521.221,545.452Z" transform="translate(610.979 329.82)" fill="#06060f"/>
    <path id="Path_3705" data-name="Path 3705" d="M632.937,225.93H522.553L504.96,592.142h38.865l25.123-166.453L669.739,558.858l36.791-33.3-73.593-99.874Z" transform="translate(616.481 283.293)" fill="#090814"/>
    <path id="Path_3705_-_Outline" data-name="Path 3705 - Outline" d="M521.838,225.18H633.687V425.443l73.849,100.221-37.9,34.3-100.211-132.4L544.471,592.892h-40.3l.038-.786Zm110.349,1.5H523.268L505.747,591.392H543.18l25.292-167.574,1.074,1.419,100.3,132.516,35.681-32.291-73.337-99.526Z" transform="translate(616.481 283.293)" fill="#06060f"/>
    <path id="Path_3706" data-name="Path 3706" d="M609.173,182.53l22.613,51.977-110.556.264,19.175-48.8Z" transform="translate(618.859 276.951)" fill="#ffb9b9"/>
    <path id="Path_3707" data-name="Path 3707" d="M595.868,43.454A37.444,37.444,0,1,0,547.2,79.191l7.244,47.84,36.905-30.751s-7.977-10.155-12.252-21.6a37.389,37.389,0,0,0,16.768-31.221Z" transform="translate(618.822 251.155)" fill="#ffb9b9"/>
    <path id="Path_3708" data-name="Path 3708" d="M594.491,70.93l-44.1,28.195-20.355,35.954a50.316,50.316,0,0,0-5.616,34.327l9.352,48.39h97.524l-15.4-100.951a85.039,85.039,0,0,0-14.338-35.828L594.5,70.941Z" transform="translate(619.191 260.642)" fill="#090814"/>
    <path id="Path_3708_-_Outline" data-name="Path 3708 - Outline" d="M594.6,69.97l.481.49.036.051,7.049,10.074a85.789,85.789,0,0,1,14.465,36.145l15.536,101.815H533.15l-.117-.608-9.352-48.39a51.106,51.106,0,0,1,5.7-34.838l20.447-36.116Zm35.82,147.075L615.148,116.957a84.288,84.288,0,0,0-14.212-35.512l-6.645-9.5L550.949,99.656l-20.264,35.792a49.6,49.6,0,0,0-5.532,33.815l9.235,47.782Z" transform="translate(619.191 260.642)" fill="#06060f"/>
    <path id="Path_3709" data-name="Path 3709" d="M558.976,91.2l27.633-13.043a23.736,23.736,0,0,1,28.023,21.375L664.6,436.066l17.009,35.84L578.46,528.823,531.468,202.37l-3.438-50.43L558.976,91.2Z" transform="translate(619.853 261.638)" fill="#6c63ff"/>
    <path id="Path_3710" data-name="Path 3710" d="M623.076,308.492l-6.567-35.7-20.848,3.828,6.567,35.7a22.244,22.244,0,0,0-3.37,16.86c2.04,11.129,11.175,18.774,20.378,17.089s15.014-12.092,12.974-23.209a22.228,22.228,0,0,0-9.146-14.567Z" transform="translate(629.735 290.14)" fill="#ffb9b9"/>
    <path id="Path_3711" data-name="Path 3711" d="M562.56,154.943,598.1,327.207l36.034-7.438L609.551,146.76" transform="translate(624.898 271.723)" fill="#6c63ff"/>
    <path id="Path_3712" data-name="Path 3712" d="M608.822,93.424s-1.754,13.272-17.948,13.7l-32.86.883s27.782-67.61,16.355-59.989-41.88-24.309-41.88-24.309L523.5,40.565s-21.478-7.771,2.327-26.819c0,0,28.39-21.948,58.533-8.768s24.458,88.458,24.458,88.458Z" transform="translate(617.892 250.389)" fill="#090814"/>
    <path id="Path_3712_-_Outline" data-name="Path 3712 - Outline" d="M556.882,108.784l.438-1.066c.056-.136,5.659-13.795,10.734-27.953,2.977-8.3,5.191-15.15,6.581-20.348,2.294-8.574,1.778-10.639,1.45-11.128a.213.213,0,0,0-.211-.123,2.186,2.186,0,0,0-1.088.473,8.242,8.242,0,0,1-4.66,1.3h0c-3.173,0-7.169-1.373-11.876-4.081a93.583,93.583,0,0,1-12.415-8.832c-6.159-5.069-11.322-10.193-13.163-12.064L523.86,41.491l-.611-.221a18.812,18.812,0,0,1-4.178-2.288,14.646,14.646,0,0,1-3.126-3,10.048,10.048,0,0,1-1.955-4.435c-.9-5.441,2.927-11.627,11.373-18.386l.01-.008A65.52,65.52,0,0,1,536.59,6.576a72.3,72.3,0,0,1,12.273-4.509A59.563,59.563,0,0,1,564.09.013,51.039,51.039,0,0,1,584.664,4.29a27.014,27.014,0,0,1,9.984,7.8,47.674,47.674,0,0,1,6.946,11.985c3.306,7.948,5.677,18.039,7.047,29.992a226.711,226.711,0,0,1,1.348,27.41c-.061,7.2-.416,11.971-.419,12.018l-.308-.01.3.04a17.023,17.023,0,0,1-8.7,11.941,22.236,22.236,0,0,1-9.97,2.407Zm18.991-62.118a1.712,1.712,0,0,1,1.457.788c.631.942,1.189,3.247-1.247,12.353-1.4,5.238-3.628,12.125-6.619,20.469-4.267,11.905-8.906,23.455-10.323,26.947l31.712-.852a20.791,20.791,0,0,0,9.264-2.21,15.2,15.2,0,0,0,5.158-4.436,15.633,15.633,0,0,0,2.8-6.4c.037-.52.355-5.118.412-11.891a228.866,228.866,0,0,0-1.341-27.225c-1.355-11.809-3.691-21.76-6.943-29.575a46.173,46.173,0,0,0-6.719-11.6,25.531,25.531,0,0,0-9.424-7.371A49.548,49.548,0,0,0,564.09,1.513a58.062,58.062,0,0,0-14.842,2A70.792,70.792,0,0,0,537.23,7.933a65.363,65.363,0,0,0-10.937,6.4c-4.348,3.48-7.443,6.808-9.2,9.891a10.768,10.768,0,0,0-1.627,7.075,8.566,8.566,0,0,0,1.672,3.776,13.154,13.154,0,0,0,2.808,2.689,18.236,18.236,0,0,0,3.212,1.846l9.154-17.176.716.751A176.206,176.206,0,0,0,546.8,35.879C556.784,44.1,564.85,48.44,570.123,48.44h0a6.776,6.776,0,0,0,3.828-1.05A3.57,3.57,0,0,1,575.874,46.665Z" transform="translate(617.892 250.389)" fill="#06060f"/>
    <path id="Path_3713" data-name="Path 3713" d="M609.414,580.22a48.966,48.966,0,0,0-12.779-29.146c-.756-.814-1.96.4-1.215,1.215a46.975,46.975,0,0,1,12.275,27.931c.092,1.1,1.811,1.1,1.719,0Z" transform="translate(629.666 330.767)" fill="#06060f"/>
    <path id="Path_3714" data-name="Path 3714" d="M601.693,553.644s13.009-11.393,2.728-19.484a4.039,4.039,0,0,0-5.33.309c-1.261,1.249-2.625,3.5-3.7,7.461,0,0-7.209-5.41-10.819-1.8s.905,10.819.905,10.819-6.315-.905-6.315,1.8a4.808,4.808,0,0,0,.94,2.6,8.458,8.458,0,0,0,5.513,3.553C589.544,559.649,596.7,559.89,601.693,553.644Z" transform="translate(627.324 328.209)" fill="#e6e6e6"/>
  </g>
</svg>
