<?xml version="1.0" encoding="UTF-8"?><svg id="uuid-cb09cb63-42b6-42d2-8e68-c26ebba9e9d7" xmlns="http://www.w3.org/2000/svg" width="509.35449" height="697.37042" viewBox="0 0 509.35449 697.37042"><path d="M482.51828,416.15186h-250.57919c-14.79747,0-26.83621-12.03876-26.83621-26.83621V26.83622c0-14.79747,12.03876-26.83622,26.83621-26.83622h250.57919c14.79745,0,26.83621,12.03875,26.83621,26.83622v362.47942c0,14.79745-12.03876,26.83621-26.83621,26.83621Z" fill="#2f2e41"/><path d="M482.64575,398.96457h-250.10281c-4.04022,0-7.32732-3.2869-7.32732-7.3273V24.5146c0-4.04041,3.28708-7.32731,7.32732-7.32731h250.10281c4.04041,0,7.3273,3.2869,7.3273,7.32731v367.12267c0,4.04041-3.2869,7.3273-7.3273,7.3273Z" fill="#fff"/><path d="M337.7103,228.88477s-13,65-35,74" fill="none" stroke="#2f2e41" stroke-miterlimit="10" stroke-width="2"/><path d="M309.7103,305.88477s9-13,15-4-6,14.48364-15,10.74182c0,0-5,3.00702,0,4.1326s14.39279,8.25281,7.19638,13.68921-17.19638,6.31781-14.19638-11.62289c0,0-8,18.0593-18,5.0593,0,0-2-6.83405,0-8.41702s3-7.99988,18-1.29144c0,0,2-2.39075,0-2.84116s-22-.45038-11-10.45038,11-2.17389,11-2.17389c0,0,3,8.17389,7,7.17389v-.00003Z" fill="#ff6363"/><path d="M306.11542,148.35492s-4.44324,1.49535-2.94788,5.93857,3.41095,25.36253,29.5452,27.42606l9.5256-3.20578-2.13794-6.35263s-1.35495-18.71159-20.6553-28.29224c0,0-11.86642-2.18951-10.74493,1.1429,0,0-5.55405,1.86917-2.58475,3.34312Z" fill="#6c63ff"/><path d="M306.11542,148.35492s-4.44324,1.49535-2.94788,5.93857,3.41095,25.36253,29.5452,27.42606l9.5256-3.20578-2.13794-6.35263s-1.35495-18.71159-20.6553-28.29224c0,0-11.86642-2.18951-10.74493,1.1429,0,0-5.55405,1.86917-2.58475,3.34312Z" fill="#2f2e41" isolation="isolate" opacity=".3"/><path d="M291.04697,183.84183s-2.7139,3.82269,1.1088,6.53661,17.67596,18.50549,40.02545,4.80309l5.81821-8.19528-5.46542-3.88017s-12.10132-14.33589-33.34528-10.73235c0,0-10.88467,5.20868-8.01764,7.24411,0,0-3.3924,4.77837-.12408,4.22398l-.00003.00002Z" fill="#6c63ff"/><path d="M291.04697,183.84183s-2.7139,3.82269,1.1088,6.53661,17.67596,18.50549,40.02545,4.80309l5.81821-8.19528-5.46542-3.88017s-12.10132-14.33589-33.34528-10.73235c0,0-10.88467,5.20868-8.01764,7.24411,0,0-3.3924,4.77837-.12408,4.22398l-.00003.00002Z" fill="#2f2e41" isolation="isolate" opacity=".2"/><path d="M316.00003,232.88213s1.16446,4.54118,5.70566,3.37671,25.54471-1.53618,29.52496-27.44785l-2.49643-9.73561-6.49268,1.66489s-18.76056-.02505-29.73489,18.51831c0,0-3.05643,11.67323.34946,10.7999,0,0,1.4556,5.67648,3.14395,2.82365h-.00003Z" fill="#6c63ff"/><path d="M316.00003,232.88213s1.16446,4.54118,5.70566,3.37671,25.54471-1.53618,29.52496-27.44785l-2.49643-9.73561-6.49268,1.66489s-18.76056-.02505-29.73489,18.51831c0,0-3.05643,11.67323.34946,10.7999,0,0,1.4556,5.67648,3.14395,2.82365h-.00003Z" fill="#2f2e41" isolation="isolate" opacity=".2"/><path d="M370.84445,257.92966s4.59143.94711,5.53854-3.64433,9.83276-23.62645-11.70193-38.57683l-9.84335-2.03043-1.3541,6.56453s-8.2576,16.84554,3.58652,34.84578c0,0,9.14688,7.87027,9.85718,4.4267,0,0,5.73929,1.18387,3.91714-1.58539v-.00003Z" fill="#6c63ff"/><path d="M370.84445,257.92966s4.59143.94711,5.53854-3.64433,9.83276-23.62645-11.70193-38.57683l-9.84335-2.03043-1.3541,6.56453s-8.2576,16.84554,3.58652,34.84578c0,0,9.14688,7.87027,9.85718,4.4267,0,0,5.73929,1.18387,3.91714-1.58539v-.00003Z" fill="#2f2e41" isolation="isolate" opacity=".2"/><path d="M421.052,215.92302s3.5347-3.10837.42633-6.6431-12.99719-22.16451-37.99997-13.93774l-7.57788,6.66388,4.44415,5.0537s8.51321,16.80278,30.10324,18.18839c0,0,11.83856-2.57545,9.50729-5.22649,0,0,4.4184-3.88547,1.09686-4.09863h-.00003Z" fill="#6c63ff"/><path d="M421.052,215.92302s3.5347-3.10837.42633-6.6431-12.99719-22.16451-37.99997-13.93774l-7.57788,6.66388,4.44415,5.0537s8.51321,16.80278,30.10324,18.18839c0,0,11.83856-2.57545,9.50729-5.22649,0,0,4.4184-3.88547,1.09686-4.09863h-.00003Z" fill="#2f2e41" isolation="isolate" opacity=".2"/><path d="M411.18185,157.40062s-.32074-4.29965-4.62039-3.97891-23.3761-2.73552-31.16541,20.08173l.68762,9.21779,6.14734-.45857s16.9816,3.05318,29.91306-11.96309c0,0,4.65289-10.07513,1.42816-9.83458,0,0-.40091-5.37456-2.39038-3.06438v.00002Z" fill="#6c63ff"/><path d="M411.18185,157.40062s-.32074-4.29965-4.62039-3.97891-23.3761-2.73552-31.16541,20.08173l.68762,9.21779,6.14734-.45857s16.9816,3.05318,29.91306-11.96309c0,0,4.65289-10.07513,1.42816-9.83458,0,0-.40091-5.37456-2.39038-3.06438v.00002Z" fill="#2f2e41" isolation="isolate" opacity=".2"/><path d="M364.18924,129.44508s-3.46857-2.56102-6.0296.90756-17.31921,15.93646-5.10239,36.72224l7.4361,5.49043,3.66156-4.95914s13.38962-10.88187,10.44003-30.47806c0,0-4.60303-10.09801-6.5238-7.49658,0,0-4.33572-3.20127-3.88193-.18648l.00003.00002Z" fill="#6c63ff"/><path d="M364.18924,129.44508s-3.46857-2.56102-6.0296.90756-17.31921,15.93646-5.10239,36.72224l7.4361,5.49043,3.66156-4.95914s13.38962-10.88187,10.44003-30.47806c0,0-4.60303-10.09801-6.5238-7.49658,0,0-4.33572-3.20127-3.88193-.18648l.00003.00002Z" fill="#2f2e41" isolation="isolate" opacity=".2"/><path d="M385.0162,136.06139s-2.72369-3.34236-6.06604-.61868-20.73508,11.13474-14.06451,34.30376l5.83917,7.16553,4.77869-3.89413s15.67307-7.21472,17.68375-26.92937c0,0-1.95032-10.92493-4.45712-8.88216,0,0-3.4046-4.17795-3.71393-1.14493v-.00002Z" fill="#6c63ff"/><path d="M423.96634,184.89992s1.81335-3.91173-2.09839-5.72507-19.08612-13.77116-36.99945,2.36613l-3.88754,8.38615,5.59274,2.59259s13.34613,10.93515,31.95261,4.11539c0,0,8.96967-6.53471,6.03589-7.89471,0,0,2.26669-4.88966-.59586-3.84047v-.00002Z" fill="#6c63ff"/><path d="M410.27792,239.55197s4.1235-2.23048,1.89301-6.35399-7.68222-24.41057-33.78592-21.99133l-8.84015,4.78183,3.189,5.89549s4.5231,18.20717,25.17355,24.35945c0,0,12.06598.13577,10.39313-2.95685,0,0,5.15436-2.78812,1.97739-3.73462v.00002Z" fill="#6c63ff"/><path d="M337.79199,247.09276s3.21945,3.40787,6.62729.18843c3.40787-3.21944,21.59973-13.72385,12.52332-38.31805l-6.90198-7.30595-4.87234,4.60294s-16.42221,9.07031-17.03461,30.60904c0,0,2.98389,11.69199,5.53979,9.27742,0,0,4.02429,4.25983,4.1185.94618h.00003Z" fill="#6c63ff"/><path d="M297.37573,208.99213s-.84979,4.61044,3.76065,5.46024,23.8291,9.3309,38.32074-12.51512l1.82181-9.88409-6.59171-1.21497s-17.01639-7.89951-34.76215,4.32262c0,0-7.67508,9.31126-4.21725,9.94859,0,0-1.06223,5.76305,1.66788,3.88274h.00003Z" fill="#6c63ff"/><path d="M327.57709,136.21786s-4.31158,0-4.31158,4.31158-4.46689,23.10783,17.70767,32.57294h9.24341v-6.16443s4.30798-16.70743-9.70471-30.72011c0,0-9.70108-5.3895-9.70108-2.15581,0,0-5.3895,0-3.2337,2.15581v.00002Z" fill="#6c63ff"/><circle cx="358.02774" cy="193.61595" r="26.67799" fill="#2f2e41"/><path d="M302.78223,191.31236l-23.49567,21.2346-12.39819-13.71835,23.49567-21.2346c.16486-4.70329,2.43771-9.68016,6.62344-13.46307,7.32394-6.61913,17.70172-7.0714,23.1796-1.01022s3.98141,16.34045-3.34253,22.95959c-4.18573,3.78291-9.36652,5.54221-14.06235,5.23207l.00003-.00002Z" fill="#e8989b"/><polyline points="201.41408 244.8638 282.30228 175.28317 303.30743 199.56348 210.90886 290.05063" fill="#c6c6c7"/><polygon points="179.49284 285.48904 167.76244 331.84436 248.76244 330.84436 239.49284 288.48904 179.49284 285.48904" fill="#e8989b"/><polygon points="164.50948 443.86221 146.92328 520.80182 114.55573 674.84436 129.55573 677.84436 232.65599 448.25876 164.50948 443.86221" fill="#e8989b"/><polygon points="198.36821 461.38834 230.85165 533.3175 278.55573 677.84436 298.55573 672.84436 255.32085 423.70978 198.36821 461.38834" fill="#e8989b"/><path d="M172.3112,312.75882s-36.16377,63.68079-29.56894,134.02557c0,0,53.31493,40.37067,138.96342,3l-35.25659-140.68958-74.13788,3.664h-.00002Z" fill="#090814"/><path d="M112.05118,693.21106c-1.72186-1.41138-2.65133-2.98737-2.7624-4.68433-.12712-1.94104.83209-4.02362,2.85054-6.18994.04845-.62335.67491-8.34656,2.0709-9.72955-.11702-.41339-.82809-3.15417.33753-4.93384.54911-.83832,1.43419-1.32697,2.63074-1.45233l.05213-.00537.02583.04614c.03374.0603,3.43065,6.03473,8.54043,6.55927,2.92953.30072,5.86257-1.2254,8.71774-4.53723.10262-.24469.90935-4.27844,1.43005-6.94855l.02081-.10675,27.84171,14.81781,16.27454,4.55975c2.04546.57312,3.47401,2.47424,3.47401,4.62317,0,1.8324-1.05392,3.52942-2.68498,4.32324l-7.88858,3.83954c-3.2962,1.60437-6.97163,2.45233-10.62898,2.45233h-42.79037c-2.77234,0-5.44003-.93518-7.51163-2.6333l-.00002-.00006Z" fill="#090814"/><path d="M271.05118,693.21106c-1.72186-1.41138-2.65134-2.98737-2.76239-4.68433-.12711-1.94104.83209-4.02362,2.85052-6.18994.04846-.62335.6749-8.34656,2.07089-9.72955-.11703-.41339-.82809-3.15417.33752-4.93384.5491-.83832,1.4342-1.32697,2.63074-1.45233l.05212-.00537.02582.04614c.03375.0603,3.43066,6.03473,8.54044,6.55927,2.92953.30072,5.86258-1.2254,8.71774-4.53723.10263-.24469.90936-4.27844,1.43005-6.94855l.02081-.10675,27.84171,14.81781,16.27454,4.55975c2.04547.57312,3.47403,2.47424,3.47403,4.62317,0,1.8324-1.05392,3.52942-2.685,4.32324l-7.88858,3.83954c-3.2962,1.60437-6.97165,2.45233-10.62897,2.45233h-42.79037c-2.77234,0-5.44003-.93518-7.51163-2.6333v-.00006Z" fill="#090814"/><path d="M191.13168,141.63879c0-18.04382,14.62744-32.67126,32.67126-32.67126s32.67139,14.62744,32.67139,32.67126c0,14.63367-9.62158,27.01855-22.88306,31.17786l-6.31592,41.74072-32.19775-26.83142s6.95569-8.85986,10.68591-18.84985c-8.81641-5.85083-14.63184-15.86304-14.63184-27.2373Z" fill="#e8989b"/><path d="M192.0119,173.8907l38.48094,24.59833,17.76169,31.36719c5.14287,9.08231,6.87981,19.70042,4.89899,29.94804l-8.16068,42.21851h-85.0862l13.44414-88.08105c1.71593-11.24213,5.99794-21.93803,12.51405-31.25845l6.14706-8.79256Z" fill="#c6c6c7"/><path d="M180.64169,184.56535s1.52565,11.57501,15.66063,11.953c19.11526.51118,28.6729.76675,28.6729.76677,0,0-24.23848-58.98738-14.27196-52.34201,9.96652,6.64536,36.5439-21.21402,36.5439-21.21402l7.84209,14.70773s18.73531-6.78444-2.02827-23.39782c0,0-24.77394-19.15327-51.07446-7.65169-26.30054,11.50158-21.34479,77.17803-21.34479,77.17803h-.00003Z" fill="#090814"/><path d="M198.59558,394.16681l-.68689-31.66202,18.4864-.40106.68689,31.66202c3.4491,3.20184,5.72592,8.17691,5.8483,13.81744.21411,9.86948-6.2336,18.01382-14.40144,18.19104-8.16785.17719-14.96269-7.67984-15.1768-17.54935-.12238-5.64056,1.93671-10.70966,5.24355-14.05807Z" fill="#e8989b"/><polyline points="224.11717 235.69691 224.11717 389.16562 192.0119 389.16562 182.52345 236.9924" fill="#c6c6c7"/><path d="M413.59998,696.18042c0,.65997-.53003,1.19-1.19,1.19H1.19c-.66,0-1.19-.53003-1.19-1.19s.53-1.19,1.19-1.19h411.21997c.65997,0,1.19.53003,1.19,1.19Z" fill="#2e2e43"/></svg>