<svg xmlns="http://www.w3.org/2000/svg" width="1026.163" height="652.19" viewBox="0 0 1026.163 652.19">
  <g id="Group_24" data-name="Group 24" transform="translate(-671.106 -362.182)">
    <path id="Path_400" data-name="Path 400" d="M789.818,700.947a38.667,38.667,0,0,1-1.675,12.1c-.042.142-.092.285-.142.427H763.35a22.121,22.121,0,0,1,1.666-5.024c2.051-4.354,5.4-8.08,8.708-11.781,4.555-5.1,9-10.157,9.7-16.788a38.084,38.084,0,0,1,4.287,8.85,10.4,10.4,0,0,0-3.441,2.11c-.276.26-.569.636-.427,1,.134.3.5.4.829.469.787.151,1.574.3,2.361.444.62.126,1.248.243,1.876.36a41.114,41.114,0,0,1,.9,7.837Z" transform="translate(529.396 298.821)" fill="#e6e6e6"/>
    <path id="Path_401" data-name="Path 401" d="M812.522,701.729c-3.952,2.4-6.464,6.121-8.516,10.282a10.516,10.516,0,0,0-4.781,2.512c-.285.26-.578.636-.427,1,.126.3.5.4.829.469.779.151,1.574.3,2.353.444-.076.176-.151.36-.226.536H775.63a36.928,36.928,0,0,1,3.927-4.488c.31-.31.628-.6.955-.9a39.074,39.074,0,0,1,11.3-7.134A39.766,39.766,0,0,1,812.522,701.729Z" transform="translate(527.398 295.325)" fill="#e6e6e6"/>
    <path id="Path_402" data-name="Path 402" d="M776.294,713.263H753.033a37.786,37.786,0,0,1,.033-5.593,40,40,0,0,1,16.621-29.08c-1.206,4.3-.586,8.566.67,12.853-.176.059-.352.109-.511.176a10.4,10.4,0,0,0-3.441,2.11c-.276.26-.569.636-.427,1,.126.3.5.4.829.469.787.151,1.574.3,2.353.444.628.126,1.256.243,1.884.368.293.05.586.109.879.167.042.1.067.193.109.285a77.456,77.456,0,0,1,3.835,12.317,28.769,28.769,0,0,1,.385,3.157C776.277,712.376,776.294,712.819,776.294,713.263Z" transform="translate(531.088 299.031)" fill="#e6e6e6"/>
    <path id="Path_403" data-name="Path 403" d="M595.239,716.406a67.042,67.042,0,0,1-2.9,20.978c-.073.247-.16.494-.247.74H549.35a38.362,38.362,0,0,1,2.889-8.71c3.557-7.549,9.364-14.009,15.1-20.426,7.9-8.841,15.606-17.61,16.826-29.107a66.033,66.033,0,0,1,7.433,15.345,18.037,18.037,0,0,0-5.967,3.659c-.479.45-.987,1.1-.74,1.728.232.523.871.7,1.437.813,1.365.261,2.729.523,4.094.769,1.074.218,2.163.421,3.252.624a71.276,71.276,0,0,1,1.568,13.588Z" transform="translate(439.118 274.17)" fill="#e6e6e6"/>
    <path id="Path_404" data-name="Path 404" d="M625.594,702c-6.852,4.167-11.207,10.612-14.764,17.827a18.234,18.234,0,0,0-8.289,4.355c-.494.45-1,1.1-.74,1.728.218.523.871.7,1.437.813,1.35.261,2.729.523,4.079.769-.131.3-.261.624-.392.929H561.63a64.04,64.04,0,0,1,6.809-7.781c.537-.537,1.089-1.045,1.655-1.568a67.746,67.746,0,0,1,19.6-12.369A68.945,68.945,0,0,1,625.594,702Z" transform="translate(444.665 283.876)" fill="#e6e6e6"/>
    <path id="Path_405" data-name="Path 405" d="M579.426,738.706H539.1a65.526,65.526,0,0,1,.058-9.7,69.348,69.348,0,0,1,28.817-50.419c-2.091,7.447-1.016,14.851,1.161,22.284-.3.1-.61.189-.885.3a18.037,18.037,0,0,0-5.967,3.658c-.479.45-.987,1.1-.74,1.728.218.523.871.7,1.437.813,1.365.261,2.729.523,4.079.769,1.089.218,2.178.421,3.266.639.508.087,1.016.189,1.524.29.073.174.116.334.189.494,2.555,7.041,5.342,14.14,6.649,21.355a49.856,49.856,0,0,1,.668,5.473C579.4,737.167,579.426,737.937,579.426,738.706Z" transform="translate(434.418 273.587)" fill="#e6e6e6"/>
    <path id="Path_406" data-name="Path 406" d="M727.256,366.754c-11.134-18.414-24.327-38.076-44.989-44.089-23.927-6.963-48.507,6.87-69.356,20.52A2021.019,2021.019,0,0,0,433.051,475.7l.063.715,134.214-9.256c32.323-2.229,65.757-4.766,94.322-20.057,10.839-5.8,21.405-13.553,33.688-14.093,15.26-.671,28.566,9.987,39.023,21.122C796.216,520,814.115,620.727,883.51,678.6A2202.248,2202.248,0,0,0,727.256,366.754Z" transform="translate(386.582 111.963)" fill="#f2f2f2"/>
    <path id="Path_407" data-name="Path 407" d="M1139.035,913.705h-6.126Q1052.925,809.79,982.393,699.052q-49.257-77.261-93.622-157.513-2.613-4.725-5.212-9.465Q865.2,498.582,847.7,464.641q-15.5-30.051-30.3-60.45c-2.816-5.792-5.56-11.6-8.289-17.435-6.431-13.7-12.732-27.481-19.511-41-6.838-13.661-15-27.888-26.61-38.152a58.328,58.328,0,0,0-4.674-3.775,48.9,48.9,0,0,0-5.778-3.644c-.2-.116-.406-.218-.61-.334a39.728,39.728,0,0,0-15.853-4.573c-11.541-.755-22.183,4.021-32.2,9.218q-25.347,13.218-49.925,27.96A1053.966,1053.966,0,0,0,500.462,444.708l-.363.319A1060.655,1060.655,0,0,0,334.543,628.8c-1.466,2.091-4.921.087-3.44-2q8.71-12.347,17.784-24.418A1063.718,1063.718,0,0,1,502.058,438.045q9.516-8.275,19.25-16.317a1066.25,1066.25,0,0,1,99.923-73.371q15.94-10.343,32.243-20.063,10.8-6.467,21.747-12.674c9.233-5.226,18.51-10.394,27.946-15.229,9.247-4.762,19.061-9.03,29.63-9.189a44.21,44.21,0,0,1,21.834,5.313c.2.116.421.218.624.348a58.176,58.176,0,0,1,11.323,8.275c15.345,14.212,25.609,36.511,33.593,53.627q6.032,12.957,12.209,25.8,23.322,48.8,48.459,96.729,13.436,25.587,27.38,50.956c1.423,2.628,2.874,5.255,4.326,7.868q50.39,91.045,107.109,178.418C1044.556,787.695,1089.154,849.626,1139.035,913.705Z" transform="translate(340.365 98.589)" fill="#e4e4e4"/>
    <path id="Path_409" data-name="Path 409" d="M761.269,527.914l53.576-19.6,26.6-9.729c8.663-3.169,17.306-6.776,26.262-9.045a41.43,41.43,0,0,1,23.77.3,54.785,54.785,0,0,1,18.54,11.493,150.454,150.454,0,0,1,15.207,16.24c5.792,6.96,11.5,13.993,17.229,21q35.482,43.394,70.5,87.164t69.567,87.911q34.634,44.249,68.791,88.869,4.185,5.466,8.362,10.938c1.539,2.015,5.008.028,3.448-2.015q-34.41-45.068-69.3-89.767-34.975-44.806-70.433-89.232t-71.394-88.465q-8.953-10.971-17.935-21.919c-5.051-6.156-10.046-12.379-15.586-18.109-10.17-10.518-22.876-19.813-38.085-20.065-8.942-.148-17.6,2.689-25.9,5.7-8.957,3.24-17.892,6.541-26.837,9.813L773.7,519.131l-13.488,4.933c-2.394.875-1.36,4.735,1.061,3.85Z" transform="translate(533.756 185.633)" fill="#e4e4e4"/>
    <path id="Path_411" data-name="Path 411" d="M337.858,366.286l-5.241,4.26c1.773-1.491,3.616-2.889,5.509-4.212Z" transform="translate(341.212 132.51)" fill="#f2f2f2"/>
    <path id="Path_412" data-name="Path 412" d="M869.75,519.249c-5.274-6.42-10.976-13.141-18.864-15.749l-7.365.29a835.38,835.38,0,0,0,222.5,254.374Z" transform="translate(572.005 194.493)" fill="#f2f2f2"/>
    <path id="Path_435" data-name="Path 435" d="M436.6,474.6l-1,1.2.544.182Z" transform="translate(681.88 442.75)" fill="#090814"/>
    <circle id="Ellipse_78" data-name="Ellipse 78" cx="38.762" cy="38.762" r="38.762" transform="translate(1496.126 362.182)" fill="#fd6584"/>
    <path id="Path_440" data-name="Path 440" d="M1015.156,290.575a19.214,19.214,0,0,0-16.216-13.487,1.57,1.57,0,0,0-.261,0,2.069,2.069,0,0,0-.319-.073c-12.979-1.684-27.409,2.41-37.121,11.324a34.78,34.78,0,0,0-8.464,11.672,18.752,18.752,0,0,0-15.722-7.665,19.139,19.139,0,0,0-17.13,13.806,2.216,2.216,0,0,0,1,2.453,9.688,9.688,0,0,0,4.05,2.061c3.208.682,6.446,1.307,9.683,1.873q9.494,1.655,19.09,2.686,6.337.675,12.7,1.074c8.769.552,17.58.682,26.364.406,4.355-.145,8.536-.29,12.514-2.207a18.578,18.578,0,0,0,7.186-6.257A21.119,21.119,0,0,0,1015.156,290.575Z" transform="translate(606.485 92.016)" fill="#e6e6e6"/>
    <path id="Path_441" data-name="Path 441" d="M960.481,330.961a19.829,19.829,0,0,0-.813-4.791,19.25,19.25,0,0,0-16.231-13.487,1.4,1.4,0,0,0-.246,0,2.731,2.731,0,0,0-.334-.073,48.189,48.189,0,0,0-21.326,2.192c-10.54,3.528-19.787,10.641-24.244,20.8a18.76,18.76,0,0,0-15.737-7.665,19.139,19.139,0,0,0-17.13,13.806,2.258,2.258,0,0,0,1,2.453,9.773,9.773,0,0,0,4.05,2.061c3.223.682,6.446,1.307,9.7,1.873q9.494,1.655,19.076,2.686a283.336,283.336,0,0,0,39.081,1.481c4.341-.145,8.536-.29,12.514-2.207a18.538,18.538,0,0,0,7.172-6.257,20.708,20.708,0,0,0,3.47-12.877Z" transform="translate(581.416 108.101)" fill="#e6e6e6"/>
    <path id="Path_442" data-name="Path 442" d="M940.546,391.063a8.144,8.144,0,0,0,.908,5.929,4.947,4.947,0,0,0,5.751,1.9c4.06-1.261,8.066-2.737,12.092-4.105a2.229,2.229,0,0,0,1.521-2.679,2.2,2.2,0,0,0-2.678-1.521l-10.06,3.419c-.759.258-1.515.551-2.288.763-.081.022-.376.087-.36.086.037,0,.266.021.012,0q-.218-.066,0,.029l-.192-.109c.176.146-.021-.02-.082-.081s-.21-.27-.089-.093a2.686,2.686,0,0,1-.228-.4c.106.235-.093-.347-.107-.427a9.327,9.327,0,0,1,.154-2.716,2.188,2.188,0,0,0-2.178-2.178A2.233,2.233,0,0,0,940.546,391.063Z" transform="translate(615.741 142.719)" fill="#3f3d56"/>
    <path id="Path_443" data-name="Path 443" d="M828.993,396.808l10.733,13.533c1.366,1.722,4.294-.142,3.64-2.119-1.338-4.042,3.28-6.294,6.468-6.96,4.229-.883,8.473-.74,12.486-2.558,2.549-1.155.338-4.909-2.2-3.761-4.694,2.126-10.168,1.152-14.922,3.22-4.249,1.849-7.608,6.459-6.034,11.216l3.64-2.119-10.733-13.533a2.193,2.193,0,0,0-3.079,0,2.228,2.228,0,0,0,0,3.08Z" transform="translate(565.163 144.621)" fill="#3f3d56"/>
    <path id="Path_444" data-name="Path 444" d="M813.993,287.808l10.733,13.533c1.366,1.722,4.294-.142,3.64-2.119-1.338-4.042,3.28-6.294,6.468-6.96,4.229-.883,8.473-.74,12.486-2.558,2.549-1.155.338-4.909-2.2-3.761-4.694,2.126-10.168,1.152-14.922,3.22-4.249,1.849-7.608,6.459-6.034,11.216l3.64-2.119-10.733-13.533a2.193,2.193,0,0,0-3.08,0,2.228,2.228,0,0,0,0,3.08Z" transform="translate(558.387 95.382)" fill="#3f3d56"/>
    <g id="Group_23" data-name="Group 23" transform="translate(882.926 516.662)">
      <path id="Path_344" data-name="Path 344" d="M768.535,636.849h-1.467v-160.5a4.385,4.385,0,0,0-1.623-3.413l.927-1.137a5.847,5.847,0,0,1,2.163,4.55Z" transform="translate(-330.472 -207.925)" fill="#3f3d56"/>
      <path id="Path_345" data-name="Path 345" d="M565.922,135.23a12.841,12.841,0,0,1,.843,2.7C566.355,136.513,566.032,135.553,565.922,135.23Z" transform="translate(-277.277 -118.191)" fill="#3f3d56"/>
      <path id="Path_346" data-name="Path 346" d="M583.265,196.37a21.468,21.468,0,0,1-1.093,4.664Z" transform="translate(-281.608 -134.492)" fill="#3f3d56"/>
      <path id="Path_347" data-name="Path 347" d="M607.908,326.648c-28.844,15.034-66.577,28.015-77.878,31.778,8.617-2.244,33.7-5.266,72.561,18.98,48.829,30.458,101.039,10.15,101.039,10.15s-11.6,22.244-36.259,23.688-88.953-39.156-110.7-27.553-31.91-2.9-40.615,26.109S491.4,518.083,509.773,562.563l18.364,44.473H423.718s37.711-100.555,16.919-162.43C429,409.953,412.922,363.9,418.4,366.287c0,0-25.141-24.656-33.354-24.656s-46.9-3.865-59.463-16.919c0,0-17.887-12.57-49.8,18.371s-24.172,30.942-52.694,28.521c-28.074-2.384-50.068-16-50.75-16.428.814.33,33.6,13.436,53.647,6.762,20.307-6.769,37.711-32.394,55.6-41.092s28.521-20.308,52.694-7.737l-15.929-37.557-4.364-10.289-.007-.015s-5.324-70.581-15.474-75.414-3.865-17.4-22.72-19.823c0,0,23.2-2.9,27.553,13.054s34.33,102.007,34.33,102.007,18.364,36.735,38.671,28.037-7.737-57.527-7.737-57.527L333.8,239.624s26.109-.968,42.06,14.022,16.919,63.328,16.919,63.328,40.124,5.8,49.8,27.561c0,0,32.87-19.823,31.426,9.182,0,0,29.005-27.553,27.069-36.743s-4.349-30.942-22.72-43.989-30.458-33.846-17.4-63.819c7.341-16.861,10.553-25.918,11.962-30.619L465.293,211.1S460.46,244.457,474,256.059c.037.029.066.059.1.088,13.516,11.617,31.316,32.79,31.316,32.79l-.051-.931L517.5,320.847S589.052,318.426,605,287s29.013-32.87,29.013-32.87L624.827,281.2l-10.15,23.2s41.576.968,63.328,25.625,75.9,31.91,75.9,31.91l-30.45,8.214s-29.013-9.666-56.566-27.553S642.23,308.76,607.908,326.648Z" transform="translate(-172.342 -111.998)" fill="#3f3d56"/>
      <path id="Path_348" data-name="Path 348" d="M751.2,314.74c-3.058,13.538-6.659,26.615-11.719,36.581-15.951,31.426-87.5,33.846-87.5,33.846s.337-4.151.851-10.7c18.166-1.5,67.823-7.884,80.782-33.413,1.188-2.332,2.288-4.84,3.33-7.481Z" transform="translate(-300.221 -166.051)" opacity="0.1"/>
      <path id="Path_350" data-name="Path 350" d="M649.021,243.61C648.915,255.513,659.234,232.511,649.021,243.61Z" transform="translate(-298.991 -117.445)" opacity="0.1"/>
      <path id="Path_351" data-name="Path 351" d="M592.564,419.379v10.636s29.006-27.556,27.073-36.741c-1.479-7.025-3.249-21.4-12.213-33.611,4.04,9.23,5.27,18.233,6.346,23.344,1.387,6.587-13.136,22.619-21.464,31.164A22.034,22.034,0,0,1,592.564,419.379Z" transform="translate(-284.31 -178.028)" opacity="0.1"/>
      <path id="Path_352" data-name="Path 352" d="M539.6,341.567c.23.49.467.972.718,1.438,7.413,13.768,18.59,28.4,26.952,41.845C560.515,371.538,548.753,356.315,539.6,341.567Z" transform="translate(-270.259 -173.204)" opacity="0.1"/>
      <path id="Path_353" data-name="Path 353" d="M735.768,467.352c-15.9-9.92-29.5-15.273-40.6-17.985-11.648,4.384-21.235,7.653-26.058,9.258,8.651-2.24,33.715-5.214,72.526,18.994,30.451,18.994,62.215,18.245,81.814,14.991A50.654,50.654,0,0,0,836.807,477.5S784.6,497.808,735.768,467.352Z" transform="translate(-304.787 -201.945)" opacity="0.1"/>
      <path id="Path_354" data-name="Path 354" d="M568.45,283.969c-3.9-9.552-4.541-20.918-.062-34.237a104.5,104.5,0,0,1,.834-14.44l7.612-32.563c-1.4,4.7-4.615,13.755-11.963,30.63C555.568,254.721,559.04,271.414,568.45,283.969Z" transform="translate(-275.536 -136.187)" opacity="0.1"/>
      <path id="Path_355" data-name="Path 355" d="M841.944,400.313c-15.087-17.1-39.7-22.8-53.377-24.694l-4.086,9.339s41.575.967,63.33,25.622c12.064,13.672,34.086,21.991,51.314,26.691l18.719-5.051S863.7,424.968,841.944,400.313Z" transform="translate(-335.547 -182.282)" opacity="0.1"/>
      <path id="Path_356" data-name="Path 356" d="M445.3,379.177c20.3-8.7-7.735-57.529-7.735-57.529l-.767-.352c6.99,14.749,17.128,41.4,2.635,47.613-13.562,5.812-26.26-8.648-33.2-18.893l.39,1.122S425,387.878,445.3,379.177Z" transform="translate(-234.702 -167.799)" opacity="0.1"/>
      <path id="Path_358" data-name="Path 358" d="M583.172,201.034a21.451,21.451,0,0,0,1.09-4.661Z" transform="translate(-281.874 -134.493)" opacity="0.1"/>
      <path id="Path_359" data-name="Path 359" d="M232.561,438.711c.1-.031.2-.06.293-.092,20.3-6.768,37.708-32.39,55.6-41.092s28.523-20.3,52.695-7.735c0,0-4.229-17.31-12.424-28.682a112.786,112.786,0,0,1,6.556,18.414c-24.172-12.569-34.807-.967-52.695,7.735s-35.291,34.324-55.6,41.092-53.662-6.768-53.662-6.768,22.238,14.02,50.761,16.437C227.35,438.3,230.134,438.54,232.561,438.711Z" transform="translate(-172.605 -178.414)" opacity="0.1"/>
      <path id="Path_360" data-name="Path 360" d="M368.767,307.5s-.792.015-2.229.037l-4.364-10.289c.477-.007.726-.015.726-.015s-3.359-44.517-9.827-65.264c.081.037.147.081.22.117C363.442,236.92,368.767,307.5,368.767,307.5Z" transform="translate(-220.527 -143.983)" opacity="0.1"/>
      <path id="Path_361" data-name="Path 361" d="M525.5,715.66c8.858-27.154,30.16-102.242,13.389-152.168-7.243-21.561-13.957-35.309-19.632-44.08a249.23,249.23,0,0,1,13.765,33.813C553.811,615.1,516.1,715.66,516.1,715.66Z" transform="translate(-263.993 -220.619)" opacity="0.1"/>
      <path id="Path_363" data-name="Path 363" d="M338.4,211.727a12.649,12.649,0,0,0,1.988,2.542,14.267,14.267,0,0,0-1.988-2.542Z" transform="translate(-216.614 -138.586)" opacity="0.1"/>
      <path id="Path_364" data-name="Path 364" d="M441.42,310.3a23.561,23.561,0,0,1,2.1,2.26c-2.118-5.091-4.733-9.493-7.963-12.527-15.953-14.987-42.059-14.02-42.059-14.02l32.739,15.005A46.753,46.753,0,0,1,441.42,310.3Z" transform="translate(-231.305 -158.39)" opacity="0.1"/>
      <path id="Path_366" data-name="Path 366" d="M567.737,137.85a13.836,13.836,0,0,0-.878-2.782S567.231,136.112,567.737,137.85Z" transform="translate(-277.525 -118.148)" opacity="0.1"/>
      <path id="Path_367" data-name="Path 367" d="M329.674,201.4c4.261.522,9.162,1.829,12.9,4.861-.244-.825-.457-1.564-.626-2.185-4.351-15.953-27.556-13.053-27.556-13.053C324.878,192.369,327.587,196.854,329.674,201.4Z" transform="translate(-210.214 -133.012)" opacity="0.1"/>
      <path id="Path_368" data-name="Path 368" d="M954.864,747.711c-7.21,11.057-5.234,25.12-5.234,25.12s13.665-3.864,20.875-14.921,5.234-25.119,5.234-25.119S962.074,736.654,954.864,747.711Z" transform="translate(-379.512 -277.509)" fill="#3f3d56"/>
      <path id="Path_369" data-name="Path 369" d="M957.45,746.973c-.57,13.187-10.359,23.475-10.359,23.475s-8.865-11.094-8.3-24.281,10.359-23.475,10.359-23.475S958.02,733.786,957.45,746.973Z" transform="translate(-376.682 -274.817)" fill="#6c63ff"/>
      <path id="Path_370" data-name="Path 370" d="M791.088,639.4s8.3-8.7,11.692-6.952-9.763,9.534-9.763,9.534Z" transform="translate(-337.308 -250.693)" fill="#ffb9b9"/>
      <path id="Path_371" data-name="Path 371" d="M791.088,639.4s8.3-8.7,11.692-6.952-9.763,9.534-9.763,9.534Z" transform="translate(-337.308 -250.693)" opacity="0.1"/>
      <path id="Path_372" data-name="Path 372" d="M755.707,615.975s-3.05,5.466-2.252,11.359,8.1,24.8,10.577,24.465,20.86-13.879,20.86-13.879l-3.505-4.894-13.426,8.135S765.916,612.066,755.707,615.975Z" transform="translate(-327.239 -246.268)" fill="#d0cde1"/>
      <path id="Path_373" data-name="Path 373" d="M814.427,630.484,793.5,641.98a1,1,0,0,1-1.465-.432L786.9,630.831a1.338,1.338,0,0,1,.686-1.607l17.378-8.957a1.015,1.015,0,0,1,1.33.254l8.68,8.178a1.289,1.289,0,0,1-.55,1.785Z" transform="translate(-336.176 -247.47)" fill="#090814"/>
      <path id="Path_374" data-name="Path 374" d="M641.177,517.422l-19.622,11.216-5.222-9.411,16.833-9.154Z" transform="translate(-164.324 -135.992)" fill="#6c63ff"/>
      <ellipse id="Ellipse_73" data-name="Ellipse 73" cx="0.289" cy="0.246" rx="0.289" ry="0.246" transform="translate(459.83 378.096) rotate(-50.158)" fill="#f2f2f2"/>
      <ellipse id="Ellipse_74" data-name="Ellipse 74" cx="0.193" cy="0.164" rx="0.193" ry="0.164" transform="translate(467.241 387.703) rotate(-50.158)" fill="#f2f2f2"/>
      <path id="Path_375" data-name="Path 375" d="M755.707,615.975s-3.05,5.466-2.252,11.359,8.1,24.8,10.577,24.465,20.86-13.879,20.86-13.879l-3.505-4.894-13.426,8.135S765.916,612.066,755.707,615.975Z" transform="translate(-327.239 -246.268)" opacity="0.1"/>
      <path id="Path_376" data-name="Path 376" d="M783.44,642.2s9.389-7.511,12.519-5.32-10.954,8.137-10.954,8.137Z" transform="translate(-335.27 -251.83)" fill="#ffb9b9"/>
      <circle id="Ellipse_75" data-name="Ellipse 75" cx="9.076" cy="9.076" r="9.076" transform="translate(426.575 342.168)" fill="#ffb9b9"/>
      <path id="Path_377" data-name="Path 377" d="M805.5,677.134s9.7,1.252,9.389,7.2S807.379,715,807.379,715l-.626,9.7s.626,16.274-1.252,15.961-6.259-11.58-6.259-11.58-5.32-3.443-2.817-6.572,4.382-2.817,3.756-6.259-.313-17.839,1.565-22.221,2.972-6.8,2.972-6.8l-6.1-.4Z" transform="translate(-338.553 -262.671)" fill="#ffb9b9"/>
      <path id="Path_378" data-name="Path 378" d="M805.5,677.134s9.7,1.252,9.389,7.2S807.379,715,807.379,715l-.626,9.7s.626,16.274-1.252,15.961-6.259-11.58-6.259-11.58-5.32-3.443-2.817-6.572,4.382-2.817,3.756-6.259-.313-17.839,1.565-22.221,2.972-6.8,2.972-6.8l-6.1-.4Z" transform="translate(-338.553 -262.671)" opacity="0.1"/>
      <path id="Path_379" data-name="Path 379" d="M807.509,679.268s9.389,2.191,10.328,8.45,5.633,24.724,5.633,24.724l5.008,11.58s7.824,14.084,4.381,13.771-8.137-7.2-9.7-7.2-6.259-1.878-5.946-3.13a36.3,36.3,0,0,1,2.5-5.007l-7.572-13.19a32.038,32.038,0,0,1-3.284-8.128,56.98,56.98,0,0,1-1.663-8.1c0-2.191-6.259-3.13-6.259-3.13Z" transform="translate(-339.934 -263.239)" fill="#ffb9b9"/>
      <path id="Path_380" data-name="Path 380" d="M756.888,651.956l4.382,12.519s6.885,1.878,11.893,3.443,14.4-.626,15.335,3.13-1.878,10.328-4.695,11.893-4.382,3.13-13.458.626-30.671-3.13-30.671-3.13a15.687,15.687,0,0,1-6.885,2.191c-4.069.313-5.007.626-6.259-.313s.626-.939,1.252-3.443.939-1.565,3.756-4.382,5.008-11.267,6.572-14.083,2.5-8.45,2.5-8.45Z" transform="translate(-319.984 -255.958)" fill="#090814"/>
      <path id="Path_381" data-name="Path 381" d="M762.445,598.906a9.164,9.164,0,0,0-3.755,7.2c0,4.695-9.389-5.007-9.389-5.007s5.008-6.259,5.008-8.137S762.445,598.906,762.445,598.906Z" transform="translate(-326.168 -240.151)" fill="#ffb9b9"/>
      <path id="Path_382" data-name="Path 382" d="M748.195,598.614s5.633,2.191,6.885,5.32,5.946,9.7,5.946,9.7,6.572,6.885,4.382,14.4-4.069,9.389-4.069,10.641-3.13,3.443-5.633,3.13-11.893-1.565-12.519-2.817-4.382-19.091-1.878-25.663a151.889,151.889,0,0,1,6.885-14.709Z" transform="translate(-323.809 -241.736)" fill="#d6d6e3"/>
      <path id="Path_383" data-name="Path 383" d="M761.348,585.526c2.031.482,4.024-.812,5.688-2.1.945-.729,1.985-1.768,1.7-2.94-.257-1.04-1.482-1.63-1.661-2.687-.124-.735.305-1.449.34-2.194a3.1,3.1,0,0,0-1.822-2.658c-.99-.533-2.112-.755-3.129-1.232-1.552-.728-2.843-2.041-4.5-2.461-2.265-.574-4.571.649-6.9.807-1.409.1-2.836-.2-4.231.03a6.039,6.039,0,0,0-4.838,5.7c-.018,1,.181,2.107-.413,2.9a4.379,4.379,0,0,1-.8.721,9.636,9.636,0,0,0-3.118,7.168c-.053,1.327.225,2.9,1.4,3.466a5.2,5.2,0,0,0,1.962.273,2.05,2.05,0,0,1,1.732.827c.536.946-.267,2.343.434,3.168a1.589,1.589,0,0,0,2.17-.114c.615-.528,1-1.288,1.582-1.853,1.134-1.1,2.817-1.3,4.372-1.465a2.219,2.219,0,0,0,1.283-.421,1.983,1.983,0,0,0,.526-1.078,6.685,6.685,0,0,0,.008-2.832,1.574,1.574,0,0,1-.036-.9,1.273,1.273,0,0,1,.459-.514c.964-.724,2.652-1.778,3.9-1.579C758.852,583.787,759.946,585.193,761.348,585.526Z" transform="translate(-323.063 -233.869)" fill="#090814"/>
      <path id="Path_384" data-name="Path 384" d="M751.349,613.921s-3.755,5.008-3.755,10.954,4.695,25.663,7.2,25.663,22.534-10.954,22.534-10.954l-2.817-5.32-14.4,6.259S761.99,611.417,751.349,613.921Z" transform="translate(-325.711 -245.776)" fill="#d6d6e3"/>
      <rect id="Rectangle_124" data-name="Rectangle 124" width="71.872" height="13.934" transform="translate(396.26 424.635)" fill="#6c63ff"/>
      <path id="Path_385" data-name="Path 385" d="M759.525,646.749a5.874,5.874,0,0,1-5.867-5.867V475.87a5.867,5.867,0,0,1,9.571-4.55l-.927,1.137a4.4,4.4,0,0,0-7.178,3.413V640.882a4.405,4.405,0,0,0,4.4,4.4Z" transform="translate(-327.328 -207.446)" fill="#3f3d56"/>
      <ellipse id="Ellipse_76" data-name="Ellipse 76" cx="0.733" cy="2.2" rx="0.733" ry="2.2" transform="translate(417.781 344.177) rotate(-38.768)" fill="#6c63ff"/>
      <path id="Path_386" data-name="Path 386" d="M658.864,747.711c-7.21,11.057-5.234,25.12-5.234,25.12s13.665-3.864,20.875-14.921,5.234-25.119,5.234-25.119S666.074,736.654,658.864,747.711Z" transform="translate(-300.594 -277.509)" fill="#3f3d56"/>
      <path id="Path_387" data-name="Path 387" d="M661.45,746.973c-.57,13.187-10.359,23.475-10.359,23.475s-8.865-11.094-8.3-24.281,10.359-23.475,10.359-23.475S662.02,733.786,661.45,746.973Z" transform="translate(-297.764 -274.817)" fill="#6c63ff"/>
      <path id="Path_388" data-name="Path 388" d="M498.689,749.564c3.447,12.742,15.253,20.633,15.253,20.633s6.218-12.767,2.771-25.509-15.253-20.633-15.253-20.633S495.242,736.823,498.689,749.564Z" transform="translate(-259.073 -275.18)" fill="#3f3d56"/>
      <path id="Path_389" data-name="Path 389" d="M497.38,751.475c9.458,9.207,10.614,23.361,10.614,23.361s-14.18-.774-23.638-9.982-10.614-23.361-10.614-23.361S487.922,742.268,497.38,751.475Z" transform="translate(-252.699 -279.83)" fill="#6c63ff"/>
      <path id="Path_390" data-name="Path 390" d="M456.433,275.161c-.822,13.174-10.807,23.272-10.807,23.272S436.975,287.172,437.8,274,448.6,250.725,448.6,250.725,457.256,261.986,456.433,275.161Z" transform="translate(-243.101 -148.984)" fill="#6c63ff"/>
      <path id="Path_392" data-name="Path 392" d="M278.152,387.6c11.166,7.04,15.238,20.644,15.238,20.644s-14.031,2.191-25.2-4.849-15.239-20.644-15.239-20.644S266.986,380.563,278.152,387.6Z" transform="translate(-193.835 -184.099)" fill="#6c63ff"/>
      <path id="Path_393" data-name="Path 393" d="M589.908,193.231c-3.367,12.763-15.124,20.728-15.124,20.728s-6.3-12.728-2.93-25.491,15.124-20.728,15.124-20.728S593.276,180.468,589.908,193.231Z" transform="translate(-278.593 -126.859)" fill="#6c63ff"/>
      <path id="Path_395" data-name="Path 395" d="M890.547,398.026c-7.169,11.083-20.82,15-20.82,15s-2.027-14.055,5.142-25.139,20.82-15,20.82-15S897.716,386.943,890.547,398.026Z" transform="translate(-358.204 -181.554)" fill="#6c63ff"/>
      <path id="Path_396" data-name="Path 396" d="M866,206" transform="translate(-357.28 -137.06)" fill="#3f3d56"/>
    </g>
    <rect id="Rectangle_125" data-name="Rectangle 125" width="558.084" height="2.903" transform="translate(935.772 1011.47)" fill="#3f3d56"/>
  </g>
</svg>
