<svg xmlns="http://www.w3.org/2000/svg" width="738.623" height="754.615" viewBox="0 0 738.623 754.615">
  <g id="Group_182" data-name="Group 182" transform="translate(-625 -196.999)">
    <g id="Group_181" data-name="Group 181" transform="translate(625 196.999)">
      <path id="Path_3038" data-name="Path 3038" d="M961.142,691.679H224.481c-.542,0-.981-.717-.981-1.6s.439-1.6.981-1.6H961.142c.542,0,.981.717.981,1.6S961.684,691.679,961.142,691.679Z" transform="translate(-223.5 50.99)" fill="#cacaca"/>
      <g id="Group_180" data-name="Group 180" transform="translate(195.13)">
        <circle id="Ellipse_479" data-name="Ellipse 479" cx="54.47" cy="54.47" r="54.47" transform="translate(145.65 34.747)" fill="#090814"/>
        <path id="Path_3042" data-name="Path 3042" d="M586.73,622.894l29.114,146.887,29.113-5.876L615.844,595.866Z" transform="translate(-261.236 -88.465)" fill="#9f616a"/>
        <path id="Path_3043" data-name="Path 3043" d="M727.257,759.377s-16.58,5.606-14.394,9.377,2.186,27.25-5.328,35.7-26.3,34.748-4.7,35.687S746.039,827,746.039,827V802.578l3.757,22.539h3.757V799.76s9.391-15.965,3.757-25.357S748,756.828,740.916,757.633,727.257,759.377,727.257,759.377Z" transform="translate(-362.319 -85.574)" fill="#090814"/>
        <path id="Path_3044" data-name="Path 3044" d="M486.841,702.1l-4.7,65.36h32.869V702.1Z" transform="translate(-275.921 -78.627)" fill="#9f616a"/>
        <path id="Path_3045" data-name="Path 3045" d="M597.386,767.392s-9.391-.939-12.209,12.209S557,811.532,547.611,814.35s-9.391,12.209,2.818,14.087,43.2,2.817,50.714-7.513a92.061,92.061,0,0,1,17.844-17.844l-4.7,26.3h8.452s7.513-25.357,15.026-33.809-15.026-28.174-18.783-28.174Z" transform="translate(-383.649 -84.198)" fill="#090814"/>
        <path id="Path_3046" data-name="Path 3046" d="M570.73,413.287s-6.574,17.844-17.844,20.661-94.853,22.539-94.853,22.539-73.253,1.878-50.714,17.844,59.166,0,59.166,0S573.547,461.183,582,447.1a189.824,189.824,0,0,0,14.087-30.053Z" transform="translate(-403.012 -133.924)" fill="#9f616a"/>
        <path id="Path_3047" data-name="Path 3047" d="M587.221,344.113s-53.531,87.34-46.957,89.219,67.618,21.6,70.436,14.087,2.817-42.261,2.817-42.261Z" transform="translate(-383.816 -143.637)" fill="#f2f2f2"/>
        <path id="Path_3049" data-name="Path 3049" d="M706.138,326,827.288,387.98s68.557,17.844,53.531,31.931S816.957,407.7,816.957,407.7l-134.3-61.044Z" transform="translate(-363.741 -146.183)" fill="#9f616a"/>
        <path id="Path_3050" data-name="Path 3050" d="M567.37,285.414s23.479,35.687,21.6,44.14c0,0,1.878,5.635-.939,9.391s-1.878,26.3-1.878,26.3l9.391,13.148,12.209-40.383,5.635-43.2s-12.678-17.374-10.8-25.826S567.37,285.414,567.37,285.414Z" transform="translate(-379.93 -154.435)" fill="#9f616a"/>
        <path id="Path_3051" data-name="Path 3051" d="M640.176,461.05s-52.592,123.811-52.592,178.288-19.722,116.383-4.7,122.161,91.1,6.6,92.975,0-9.391-274.861-15.026-285.592S640.176,461.05,640.176,461.05Z" transform="translate(-378.544 -127.216)" fill="#f2f2f2"/>
        <circle id="Ellipse_480" data-name="Ellipse 480" cx="34.748" cy="34.748" r="34.748" transform="translate(164.901 73.723)" fill="#9f616a"/>
        <path id="Path_3053" data-name="Path 3053" d="M588.467,351.168l-2.515-18.935s-7.816,9.706-7.816,17.257-4.7,34.4,15.026,51.182-4.443,31.256,22.792,129.424c0,0,42.948,256.536,56.1,259.892s53.531,0,56.349-4.2S723.7,670,723.7,670s20.661,99.007,28.174,99.007,12.209-14.264,10.331-15.1-13.148-65.445-17.844-85.582-2.817-190.463-2.817-190.463,15.026-21.815-36.627-64.606c0,0-32.87-85.582-34.748-85.582s-38.5-46.147-38.5-46.147-20.661,0-24.418,10.908S588.467,351.168,588.467,351.168Z" transform="translate(-378.486 -152.427)" fill="#f2f2f2"/>
        <path id="Path_3054" data-name="Path 3054" d="M615.133,289.04l11.27-7.513S673.36,309.7,706.23,311.58s31.931,20.661,18.783,33.809-64.8,58.227-66.679,46.957S615.133,289.04,615.133,289.04Z" transform="translate(-373.223 -152.427)" fill="#f2f2f2"/>
        <ellipse id="Ellipse_481" data-name="Ellipse 481" cx="37.566" cy="22.539" rx="37.566" ry="22.539" transform="translate(162.555 51.652)" fill="#090814"/>
        <circle id="Ellipse_482" data-name="Ellipse 482" cx="22.539" cy="22.539" r="22.539" transform="translate(181.337 12.209)" fill="#090814"/>
        <path id="Path_3055" data-name="Path 3055" d="M556.008,185.071a22.541,22.541,0,0,1,20.19-22.417,22.787,22.787,0,0,0-2.347-.122,22.539,22.539,0,0,0,0,45.079,22.784,22.784,0,0,0,2.348-.122A22.542,22.542,0,0,1,556.008,185.071Z" transform="translate(-382.187 -162.532)" fill="#090814"/>
      </g>
      <path id="Path_3018" data-name="Path 3018" d="M373.087,722.206l-2.407-.047a558.2,558.2,0,0,1,8.544-79.774c10.408-56.419,27.715-93.473,51.44-110.131l1.382,1.97C376.624,573.136,373.115,720.719,373.087,722.206Z" transform="translate(-322.141 19.848)" fill="#e6e6e6"/>
      <path id="Path_3019" data-name="Path 3019" d="M398.087,703.628l-2.407-.047c.052-2.666,1.556-65.485,26.287-82.849l1.382,1.97C399.616,639.365,398.1,702.987,398.087,703.628Z" transform="translate(-317.056 37.851)" fill="#e6e6e6"/>
      <ellipse id="Ellipse_471" data-name="Ellipse 471" cx="12.035" cy="12.035" rx="12.035" ry="12.035" transform="translate(111.563 530.221)" fill="#e6e6e6"/>
      <ellipse id="Ellipse_472" data-name="Ellipse 472" cx="12.035" cy="12.035" rx="12.035" ry="12.035" transform="translate(105.603 633.718)" fill="#e6e6e6"/>
      <path id="Path_3020" data-name="Path 3020" d="M395.719,544.284c2.262,14.446-3.633,27.367-3.633,27.367s-9.562-10.5-11.824-24.948,3.633-27.367,3.633-27.367S393.458,529.838,395.719,544.284Z" transform="translate(-320.297 17.219)" fill="#e6e6e6"/>
      <path id="Path_3021" data-name="Path 3021" d="M430.369,572.14c-13.832,4.744-27.582,1.191-27.582,1.191s8.675-11.245,22.506-15.99,27.582-1.191,27.582-1.191S444.2,567.4,430.369,572.14Z" transform="translate(-315.609 24.449)" fill="#e6e6e6"/>
      <path id="Path_3022" data-name="Path 3022" d="M429.344,647.448a37.47,37.47,0,0,1-19.333.835,34.147,34.147,0,0,1,35.108-12.042A37.47,37.47,0,0,1,429.344,647.448Z" transform="translate(-314.139 40.799)" fill="#e6e6e6"/>
      <path id="Path_3033" data-name="Path 3033" d="M654.458,648.55,1107.094,558.2l-37.827-189.5L616.631,459.05Z" transform="translate(-395.036 -141.487)" fill="#fff"/>
      <path id="Path_3034" data-name="Path 3034" d="M1112.19,562.06,653.379,653.646l-39.06-195.676,458.812-91.587ZM658.321,646.238l446.46-89.121-36.594-183.324-446.46,89.121Z" transform="translate(-396.428 -142.879)" fill="#e4e4e4"/>
      <rect id="Rectangle_699" data-name="Rectangle 699" width="373.539" height="9.739" rx="4" transform="translate(276.989 361.044) rotate(-11.289)" fill="#6c63ff"/>
      <rect id="Rectangle_700" data-name="Rectangle 700" width="373.539" height="9.739" rx="4" transform="translate(284.413 398.233) rotate(-11.289)" fill="#6c63ff"/>
      <rect id="Rectangle_701" data-name="Rectangle 701" width="373.539" height="9.739" rx="4" transform="translate(291.879 435.635) rotate(-11.289)" fill="#6c63ff"/>
      <path id="Path_3035" data-name="Path 3035" d="M779.335,457.724l-12.812,2.557a3.6,3.6,0,0,1-4.234-2.825l-6.057-30.344a3.6,3.6,0,0,1,2.825-4.234l12.812-2.557a3.6,3.6,0,0,1,4.234,2.825l6.057,30.344a3.6,3.6,0,0,1-2.825,4.234Z" transform="translate(-311.049 -110.456)" fill="#090814"/>
      <path id="Path_3036" data-name="Path 3036" d="M870.434,463.68l-12.812,2.557a3.6,3.6,0,0,1-4.234-2.825l-6.057-30.344a3.6,3.6,0,0,1,2.825-4.234l12.812-2.557A3.6,3.6,0,0,1,867.2,429.1l6.057,30.344a3.6,3.6,0,0,1-2.825,4.234Z" transform="translate(-256.217 -106.871)" fill="#090814"/>
      <path id="Path_3037" data-name="Path 3037" d="M821.1,497.807l-12.812,2.557a3.6,3.6,0,0,1-4.234-2.825L798,467.2a3.6,3.6,0,0,1,2.825-4.234l11.711-2.557a3.6,3.6,0,0,1,4.234,2.825l7.158,30.344a3.6,3.6,0,0,1-2.825,4.234Z" transform="translate(-285.912 -86.33)" fill="#090814"/>
    </g>
  </g>
</svg>
