<svg xmlns="http://www.w3.org/2000/svg" width="800" height="689.157" viewBox="0 0 800 689.157"><g transform="translate(-483.74 -230.787)"><path d="M497.038,319.075a12.974,12.974,0,0,1-11.368-6.723l-14.614-26.458A13,13,0,0,1,483.1,266.635l26.53,1.356a13.1,13.1,0,0,1,11.31,7.92l7.747,18.322a13.005,13.005,0,0,1-7.733,17.355l-19.649,6.78a12.869,12.869,0,0,1-4.256.721Z" transform="translate(588.026 431.341)" fill="#090814"/><path d="M523.917,436.17l17.244-3.722-6.176-68.24L509.56,369.7Z" transform="translate(603.058 473.479)" fill="#9f616a"/><path d="M579.138,404.969h0c.738.786,1.652,3.641,1.877,4.7h0a5.965,5.965,0,0,1-4.588,7.106l-53.369,11.534a4.1,4.1,0,0,1-4.861-3.128l-.481-2.23s-4.091-6.112-.433-15.512c0,0,8.149,4.989,16.057-7.3l1.813-6.031,24.96,11.1,12.255-1.107c2.679-.241,4.925-1.123,6.753.866h.016Z" transform="translate(606.803 491.541)" fill="#090814"/><path d="M552.555,432.377l14.373-10.2-32.516-60.315L513.19,376.906Z" transform="translate(605.251 472.058)" fill="#9f616a"/><path d="M589.348,383.954h0a14.793,14.793,0,0,1,3.561,3.577h0a5.984,5.984,0,0,1-1.412,8.341l-44.53,31.6a4.1,4.1,0,0,1-5.695-.962l-1.315-1.861s-6.16-4.01-6.5-14.1c0,0,9.448,1.38,11.9-13.026l-.706-6.256,27.318.385,10.844-5.839c2.374-1.283,4.09-2.968,6.545-1.861Z" transform="translate(617.497 485.19)" fill="#090814"/><path d="M410.449,211.5s-24.107,32.777,24.107,69.637l98.461-31.464L497.845,176.33,466.7,159.249l-56.263,52.238h0Z" transform="translate(559.261 383.816)" fill="#090814"/><path d="M509.293,225.64l38.172,74.34,24.121,154.738-30.137,2.005L511.3,310.034,458.05,230.66l37.177-17.081" transform="translate(582.999 407.865)" fill="#090814"/><path d="M425.32,230.662v23.356l68.324,75.032s0,56.263,26.126,82.39l30.137,46.222L576.033,443.6,537.861,308.969l-68.324-88.42-44.2,10.113h-.014Z" transform="translate(568.511 410.95)" fill="#090814"/><path d="M477.973,70.743,465.1,119.807l-49.064-9.651s34.234-35.3,29.416-51.387l32.532,11.974h-.014Z" transform="translate(564.403 339.339)" fill="#9f616a"/><path d="M444.692,72.2l30.137,14.066s15.508,9.478,15.8,15.8-1.731,36.456-1.731,36.456,12.06,12.061,4.025,36.167l4.025,40.192L406.52,263.1l8.036-84.395-4.025-78.365,34.162-28.132h0Z" transform="translate(560.189 345.284)" fill="#6c63ff"/><path d="M419.993,246.26c3.534,8.093,10.575,12.84,15.725,10.589s6.463-10.632,2.943-18.726a22.058,22.058,0,0,0-6.2-8.4l-15.393-34.119-15.855,7.559L418.06,236a22.03,22.03,0,0,0,1.933,10.257Z" transform="translate(557.839 399.911)" fill="#9f616a"/><path d="M442.583,96.937s-22.1-14.066-30.137,2.005S386.32,197.4,386.32,197.4l26.126,78.365,24.107-10.041L415.447,181.39l27.122-84.453h.014Z" transform="translate(551.248 353.712)" fill="#6c63ff"/><path d="M514.08,236.07c6.261,6.232,14.556,8.05,18.524,4.054s2.092-12.262-4.169-18.495a22.13,22.13,0,0,0-8.858-5.525L492.7,190.049l-11.96,12.868L508.5,227.226a22.056,22.056,0,0,0,5.583,8.829h0Z" transform="translate(593.042 397.45)" fill="#9f616a"/><path d="M476.551,91.87S438.018,90.3,436.46,108.2s24.8,97.8,24.8,97.8l53.162,63.231,18.711-18.221-50.68-70.632L476.566,91.87Z" transform="translate(573.413 353.975)" fill="#6c63ff"/><path d="M494.038,59.163a33.484,33.484,0,1,1-33.484-33.484,33.481,33.481,0,0,1,33.484,33.484Z" transform="translate(569.285 324.692)" fill="#9f616a"/><path d="M463.243,25.519c.967.563,2.265-.289,2.582-1.371a5.666,5.666,0,0,0-.4-3.289c-.606-1.789-1.2-3.563-1.8-5.352-1.284-3.794-2.64-7.718-5.41-10.6C454.025.547,447.36-.564,441.373.244c-7.689,1.039-15.278,5.194-18.855,12.089s-2.049,16.5,4.415,20.8c-9.219,10.56-12.421,22.332-11.916,36.326s15.768,26.891,25.722,36.759c2.222-1.342,4.241-7.66,3.015-9.954s.534-4.948-.981-7.069-2.784,1.255-1.255-.851c.967-1.327-2.8-4.371-1.371-5.165,6.939-3.837,9.247-12.493,13.6-19.115a32.552,32.552,0,0,1,23.789-14.3c5.251-.491,10.791.4,15.09,3.448s7.083,8.483,6.088,13.662a12.132,12.132,0,0,0-2.525-19A19.806,19.806,0,0,0,491.981,29.2c-4.487-4.948-22.678-4.1-29.228-2.8l.5-.866h0l-.014-.014Z" transform="translate(563.927 313.325)" fill="#090814"/><path d="M456.176,34.629c-8.67.938-14.931,8.454-20.226,15.393-3.044,4-6.247,8.411-6.16,13.445.072,5.078,3.477,9.449,5.107,14.253a21.487,21.487,0,0,1-6.247,22.635,12.467,12.467,0,0,0,14.066-9.767c1.255-7.285-4.27-14.325-3.621-21.7.577-6.492,5.7-11.483,10.041-16.345s8.439-11.3,6.434-17.5l.606-.418h0Z" transform="translate(569.985 328.654)" fill="#090814"/><path d="M756.913,519.524a1.712,1.712,0,0,1-1.717,1.717H1.717a1.717,1.717,0,1,1,0-3.433H755.2A1.712,1.712,0,0,1,756.913,519.524Z" transform="translate(483.74 398.703)" fill="#f2f2f2"/><path d="M333.7,234.558H112.041a45.513,45.513,0,0,0-45.513,45.513V495.01a45.513,45.513,0,0,0,45.513,45.513H333.7a45.513,45.513,0,0,0,45.513-45.513V280.071A45.513,45.513,0,0,0,333.7,234.558Z" transform="translate(593.591 374.509)" fill="#fff"/><path d="M333.778,541.678H112.119a46.644,46.644,0,0,1-46.591-46.591V280.149a46.644,46.644,0,0,1,46.591-46.591h221.66a46.644,46.644,0,0,1,46.591,46.591V495.087A46.644,46.644,0,0,1,333.778,541.678ZM112.119,235.714a44.486,44.486,0,0,0-44.436,44.436V495.087a44.485,44.485,0,0,0,44.436,44.435h221.66a44.485,44.485,0,0,0,44.436-44.435V280.149a44.486,44.486,0,0,0-44.436-44.436Z" transform="translate(593.841 374.83)" fill="#090814"/><circle cx="5.14" cy="5.14" r="5.14" transform="translate(701.298 620.33)" fill="#3f3d56"/><circle cx="5.14" cy="5.14" r="5.14" transform="translate(715.434 620.33)" fill="#3f3d56"/><circle cx="5.14" cy="5.14" r="5.14" transform="translate(729.568 620.33)" fill="#3f3d56"/><path d="M583.608,277.962H380.288a7.213,7.213,0,0,1,0-14.426h203.32a7.213,7.213,0,0,1,0,14.426Z" transform="translate(341.862 592.253)" fill="#e6e6e6"/><path d="M508.625,277.962H361.433c-3.237,0-5.862-3.229-5.862-7.213s2.624-7.213,5.862-7.213H508.625c3.237,0,5.862,3.229,5.862,7.213S511.863,277.962,508.625,277.962Z" transform="translate(345.723 592.225)" fill="#6c63ff"/><g transform="translate(0 13.309)"><path d="M37.447,74.395A36.956,36.956,0,0,1,23.065,3.4,36.719,36.719,0,0,1,37.447.5a3.607,3.607,0,1,1,0,7.213A29.743,29.743,0,0,0,25.875,64.846a29.724,29.724,0,0,0,41.307-27.4,3.607,3.607,0,1,1,7.213,0A36.92,36.92,0,0,1,37.447,74.395Z" transform="translate(779.357 723.979)"/><g transform="translate(791.615 736.859)"><path d="M0,0H50.38V50.38H0Z" fill="none"/><path d="M22.556,1.5a5.7,5.7,0,0,1,5.619,4.418,1.455,1.455,0,0,0,2.172.9,5.735,5.735,0,0,1,8.081,2.143,5.681,5.681,0,0,1-.131,5.8,1.455,1.455,0,0,0,.9,2.171,5.782,5.782,0,0,1,0,11.238,1.455,1.455,0,0,0-.9,2.172,5.68,5.68,0,0,1,.132,5.8,5.735,5.735,0,0,1-8.08,2.145,1.455,1.455,0,0,0-2.171.9,5.782,5.782,0,0,1-11.238,0,1.455,1.455,0,0,0-2.172-.9,5.735,5.735,0,0,1-8.081-2.143,5.681,5.681,0,0,1,.131-5.8,1.455,1.455,0,0,0-.9-2.171,5.782,5.782,0,0,1,0-11.238,1.455,1.455,0,0,0,.9-2.172,5.68,5.68,0,0,1-.132-5.8,5.735,5.735,0,0,1,8.08-2.146,1.437,1.437,0,0,0,.755.216,1.457,1.457,0,0,0,1.416-1.115A5.7,5.7,0,0,1,22.556,1.5Zm7.033,9.859a5.783,5.783,0,0,1-5.62-4.421,1.454,1.454,0,0,0-2.826,0,5.777,5.777,0,0,1-8.626,3.574,1.478,1.478,0,0,0-.77-.237,1.549,1.549,0,0,0-1.288.8,1.336,1.336,0,0,0,.055,1.432,5.783,5.783,0,0,1-3.576,8.63,1.454,1.454,0,0,0,0,2.826A5.783,5.783,0,0,1,10.512,32.6a1.337,1.337,0,0,0-.054,1.433,1.549,1.549,0,0,0,1.287.8,1.475,1.475,0,0,0,.768-.236,5.783,5.783,0,0,1,8.63,3.576,1.454,1.454,0,0,0,2.826,0A5.783,5.783,0,0,1,32.6,34.6a1.477,1.477,0,0,0,.768.236,1.548,1.548,0,0,0,1.287-.8A1.336,1.336,0,0,0,34.6,32.6a5.783,5.783,0,0,1,3.576-8.63,1.454,1.454,0,0,0,0-2.826A5.783,5.783,0,0,1,34.6,12.516a1.337,1.337,0,0,0,.054-1.433,1.548,1.548,0,0,0-1.287-.8,1.476,1.476,0,0,0-.768.236A5.781,5.781,0,0,1,29.59,11.359Z" transform="translate(2.634 2.634)"/><path d="M15.961,24.423a8.461,8.461,0,1,1,8.461-8.461A8.471,8.471,0,0,1,15.961,24.423Zm-4.134-8.461a4.134,4.134,0,1,0,4.134-4.134A4.138,4.138,0,0,0,11.828,15.961Z" transform="translate(9.229 9.229)"/></g></g><ellipse cx="49.687" cy="49.686" rx="49.687" ry="49.686" transform="translate(1170.815 263.909)" fill="#f2f2f2"/><path d="M287.421,161.623a53.706,53.706,0,0,0-13.551,0,52.835,52.835,0,0,0-43.6,36.768,52.115,52.115,0,0,0-2.289,13.566c-.023.64-.038,1.287-.038,1.935a52.751,52.751,0,0,0,52.7,52.7c1.122,0,2.243-.038,3.35-.105a52.12,52.12,0,0,0,7.724-1.069,52.7,52.7,0,0,0-4.3-103.792Zm9.719,100.735h-.008A50.669,50.669,0,0,1,284,264.97c-1.107.075-2.228.113-3.35.113a51.255,51.255,0,0,1-51.192-51.192c0-.647.015-1.295.038-1.935a51.192,51.192,0,1,1,67.649,50.4Z" transform="translate(950.396 92.93)" fill="#090814"/><rect width="1.506" height="10.54" transform="translate(1230.29 258.64)" fill="#090814"/><g transform="translate(703.114 660.618)"><path d="M476.164,209.052H443.385a4.2,4.2,0,0,0-4.192,4.192v38.489a4.2,4.2,0,0,0,4.192,4.192h32.779a4.2,4.2,0,0,0,4.192-4.192V213.244A4.2,4.2,0,0,0,476.164,209.052Z" transform="translate(-437.513 -209.052)" fill="#d6d6e3"/><path d="M488.812,222.906H456.032a2.989,2.989,0,0,0-2.985,2.985V264.38a2.989,2.989,0,0,0,2.985,2.985h32.779a2.988,2.988,0,0,0,2.985-2.985V225.891A2.988,2.988,0,0,0,488.812,222.906Z" transform="translate(-453.047 -221.699)" fill="#d6d6e3"/></g><rect width="1.506" height="10.54" transform="translate(1196.439 273.286) rotate(-45)" fill="#090814"/><rect width="1.506" height="10.54" transform="translate(1182.86 307.574) rotate(-90)" fill="#090814"/><rect width="1.506" height="10.54" transform="translate(1197.504 341.423) rotate(-135)" fill="#090814"/><rect width="1.506" height="10.54" transform="translate(1258.191 280.736) rotate(-135)" fill="#090814"/><rect width="1.506" height="10.54" transform="translate(1268.684 307.574) rotate(-90)" fill="#090814"/><rect width="1.506" height="10.54" transform="translate(1257.128 333.967) rotate(-45)" fill="#090814"/><rect width="1.506" height="10.54" transform="translate(1230.29 344.463)" fill="#090814"/><path d="M312.108,240.085a3.764,3.764,0,0,0-4.517,0,3.874,3.874,0,0,0-1.077,1.265,3.764,3.764,0,1,0,5.594-1.265Zm-2.258,5.27a2.265,2.265,0,0,1-2.259-2.258,2.3,2.3,0,0,1,.4-1.28,2.256,2.256,0,1,1,1.859,3.538Z" transform="translate(921.191 63.725)" fill="#090814"/><rect width="13.551" height="13.551" transform="translate(1224.266 241.325)" fill="#090814"/><ellipse cx="18.068" cy="6.399" rx="18.068" ry="6.399" transform="translate(1212.973 230.787)" fill="#090814"/><rect width="4.517" height="25.596" transform="translate(1247.554 283.12) rotate(38)" fill="#090814"/><g transform="translate(701.296 657.457)"><path d="M476.164,209.052H443.385a4.2,4.2,0,0,0-4.192,4.192v38.489a4.2,4.2,0,0,0,4.192,4.192h32.779a4.2,4.2,0,0,0,4.192-4.192V213.244A4.2,4.2,0,0,0,476.164,209.052Z" transform="translate(-439.193 -209.052)" fill="#6c63ff"/><path d="M488.812,222.906H456.032a2.989,2.989,0,0,0-2.985,2.985V264.38a2.989,2.989,0,0,0,2.985,2.985h32.779a2.988,2.988,0,0,0,2.985-2.985V225.891A2.988,2.988,0,0,0,488.812,222.906Z" transform="translate(-451.842 -221.699)" fill="#6c63ff"/></g><path d="M112.5,519.524c0,.952-.114,1.717-.255,1.717H.255c-.142,0-.255-.765-.255-1.717s.114-1.717.255-1.717H112.243C112.385,517.808,112.5,518.572,112.5,519.524Z" transform="translate(760.54 161.233)" fill="#d6d6e3"/><g transform="translate(888.056 657.786)"><g transform="translate(3.833 3.159)"><path d="M476.164,209.052H443.385a4.2,4.2,0,0,0-4.192,4.192v38.489a4.2,4.2,0,0,0,4.192,4.192h32.779a4.2,4.2,0,0,0,4.192-4.192V213.244A4.2,4.2,0,0,0,476.164,209.052Z" transform="translate(-439.193 -209.052)" fill="#d6d6e3"/><path d="M488.812,222.906H456.032a2.989,2.989,0,0,0-2.985,2.985V264.38a2.989,2.989,0,0,0,2.985,2.985h32.779a2.988,2.988,0,0,0,2.985-2.985V225.891A2.988,2.988,0,0,0,488.812,222.906Z" transform="translate(-451.842 -221.699)" fill="#d6d6e3"/></g><g transform="translate(0 0)"><path d="M476.164,209.052H443.385a4.2,4.2,0,0,0-4.192,4.192v38.489a4.2,4.2,0,0,0,4.192,4.192h32.779a4.2,4.2,0,0,0,4.192-4.192V213.244A4.2,4.2,0,0,0,476.164,209.052Z" transform="translate(-439.193 -209.052)" fill="#6c63ff"/><path d="M488.812,222.906H456.032a2.989,2.989,0,0,0-2.985,2.985V264.38a2.989,2.989,0,0,0,2.985,2.985h32.779a2.988,2.988,0,0,0,2.985-2.985V225.891A2.988,2.988,0,0,0,488.812,222.906Z" transform="translate(-451.842 -221.699)" fill="#6c63ff"/></g></g></g></svg>