<svg xmlns="http://www.w3.org/2000/svg" width="737.56549" height="616.46736" viewBox="0 0 737.56549 616.46736" xmlns:xlink="http://www.w3.org/1999/xlink"><path id="uuid-a8053c0f-baac-48bf-bd43-1e16854cb9aa-74" d="m371.03158,306.95229c2.58016,10.34035-.87648,20.0406-7.71094,21.67536-6.83448,1.62491-14.46665-5.43606-17.04681-15.77641-1.09311-4.11644-1.14237-8.43971-.13789-12.58569l-10.36004-43.95143,21.52762-4.39219,7.92759,43.79387c2.84607,3.23999,4.83535,7.10037,5.80046,11.24638h0v-.00989Z" fill="#f1a1a4" stroke-width="0"/><polygon points="280.75536 558.27216 282.08484 587.07743 280.75536 595.04439 285.4036 604.35072 321.93952 608.32927 323.93865 591.06584 304.67605 581.09971 304.11471 564.82101 280.75536 558.27216" fill="#f1a1a4" stroke-width="0"/><path d="m319.29042,601.69176l-1.98928,2.65896-38.25931-11.02972s1.72339,17.00744,1.72339,20.32619,63.10569,3.31876,72.59913,1.98931c9.49344-1.32945,6.4504-9.96613,6.4504-9.96613l-39.38196-18.64217-1.14237,14.65376h0v.0098Z" fill="#2f2e43" stroke-width="0"/><polygon points="185.57488 537.06948 177.60788 564.78164 173.80657 571.91155 175.23452 582.20268 208.56984 597.67384 215.98537 581.94662 200.91799 566.34749 210.37202 541.84578 185.57488 537.06948" fill="#f1a1a4" stroke-width="0"/><path d="m208.17593,590.53407l-2.73773,1.88093-32.72475-22.68967s-3.81115,16.66272-4.86489,19.80422,58.72336,23.33967,68.14785,25.12214c9.42449,1.78248,9.29647-7.37611,9.29647-7.37611l-31.34604-30.26275-5.7709,13.52122h0Z" fill="#2f2e43" stroke-width="0"/><polygon points="283.33552 82.68479 284.73394 105.33509 242.42712 107.48195 255.5249 77.6328 283.33552 82.68479" fill="#f1a1a4" stroke-width="0"/><path d="m285.80737,101.94739c-11.33501,5.06185-29.47492,3.67329-50.02762,0l-3.21043,142.40144s64.29731,12.93034,86.40595-10.92138l-11.63043-116.34375-21.52765-15.12646h0v-.00985h-.00983Z" fill="#2f2e43" stroke-width="0"/><polygon points="311.99308 236.91365 221.21463 245.88511 176.42612 550.03928 210.74625 550.03928 269.51884 341.62693 274.17693 577.81047 305.59191 577.81047 332.34882 288.68434 311.99308 236.91365" fill="#2f2e43" stroke-width="0"/><path d="m248.68058,93.22213l-30.49912,18.0513c-11.55165,6.83448-16.99757,20.64132-13.22581,33.52243l23.56615,80.50704s-38.37748,65.94192-25.90997,71.75223c28.02727,13.06823,69.85154,9.88736,69.85154,9.88736l-9.3457-157.87257-14.43711-55.84776h0l.00002-.00002s0-.00002,0-.00002Z" fill="#d4d5d6" stroke-width="0"/><path d="m284.48775,101.34669l34.48753,13.39322,8.14425,99.4742,22.80787,80.14264c-38.63354,14.10228-35.02919,7.53368-35.02919,7.53368l-6.40117-138.28499-24.00932-62.25878h0s.00003.00002.00003.00003Z" fill="#d4d5d6" stroke-width="0"/><path d="m334.86003,292.67275l-.11817-.54163-35.24584-163.03291c-.9848-4.5596.27574-9.11921,3.45664-12.5266s7.65185-4.97322,12.26072-4.30356c5.69212.82722,10.24187,4.97322,11.60089,10.55701l38.72217,159.15282-30.67638,10.70472h0l-.00003-.00986Z" fill="#d4d5d6" stroke-width="0"/><circle cx="264.97895" cy="54.38177" r="34.32013" fill="#f1a1a4" stroke-width="0"/><path d="m281.30684,9.9084c7.56322,2.65895,11.88649,4.17553,15.84536,7.99654,6.6966,6.45041,7.79959,15.06737,8.82376,23.07376.80754,6.2633,1.84156,14.35832-1.83171,23.6154-1.25068,3.16119-7.32688,17.22407-18.94746,19.00656-2.28473.34468-7.64202.44315-6.09589-.6992,14.29922-10.55701,20.39511-16.92864,19.89288-33.18761-.31514-10.104-15.75673-21.01554-24.92517-22.97528-3.86041-.82723-9.00105-.06894-12.69403,2.95439-7.71094,6.32239-7.37611,32.48841-15.50069,37.95402-3.33846,2.24533-1.11282-13.58033-3.46648-11.01986-4.64824,5.06185-1.66431,12.82204-.82722,15.77643,3.95888,14.01364,11.42363,15.38251,15.29387,27.35762,4.17552,12.92052-1.08328,25.08274-2.3241,27.96819-2.16656,5.02246-5.88907,13.62957-14.38786,17.76571-10.79337,5.24896-19.302-1.58552-24.3146,4.27401-2.80667,3.26953-1.29008,6.736-6.35193,16.91878-1.65445,3.31876-2.48169,4.98306-3.21043,4.92398-3.46648-.27574-9.06997-28.00759,0-53.82893,3.81115-10.83275,7.53368-21.44885,17.52936-29.75067,5.28835-4.39219,9.71993-5.96786,10.98046-11.09864,1.80218-7.32688-5.68227-10.44868-7.17915-22.00033-1.02418-7.89806-1.74309-19.20351,1.04388-26.44176,2.63924-6.84433,4.92398-12.78265,10.91154-18.15963C241.00904,9.04176,252.60992.24754,264.91986.00134c5.66257-.11818,9.82827,7.61247,16.39684,9.91689h-.00986s0-.00984,0-.00983Z" fill="#2f2e43" stroke-width="0"/><path d="m0,614.87819c0,.64994.52194,1.17191,1.17191,1.17191h718.20153c.64994,0,1.17191-.52197,1.17191-1.17191s-.52197-1.17191-1.17191-1.17191H1.17191c-.64997,0-1.17191.52197-1.17191,1.17191Z" fill="#3f3d58" stroke-width="0"/><rect x="275.06549" y="172.11591" width="85.3705" height="85.3705" fill="#6c63ff" stroke-width="0"/><rect x="369.34786" y="172.11591" width="85.3705" height="85.3705" fill="#ff6363" stroke-width="0"/><rect x="463.63023" y="172.11591" width="85.3705" height="85.3705" fill="#2f2e41" stroke-width="0"/><rect x="557.91261" y="172.11591" width="85.3705" height="85.3705" fill="#c5c5c6" stroke-width="0"/><rect x="652.19498" y="172.11591" width="85.3705" height="85.3705" fill="#6c63ff" stroke-width="0"/><rect x="652.19498" y="172.11591" width="85.3705" height="85.3705" fill="#2f2e41" opacity=".4" stroke-width="0"/><path id="uuid-2d419364-494f-4c0b-b4fa-55d813878582-75" d="m282.97115,208.66969c10.59641-1.11282,19.72545,3.6536,20.38528,10.65548.65983,7.00188-7.39582,13.57048-18.00206,14.68331-4.23461.50224-8.50865-.04924-12.4872-1.61506l-44.96577,4.13614-1.34917-21.9314,44.47337-1.75293c3.60436-2.3635,7.70111-3.80131,11.94557-4.18538h0l-.00003.00986Z" fill="#f1a1a4" stroke-width="0"/><path d="m228.18699,112.30745h0c-10.88199-1.53628-21.09432,5.62318-23.35935,16.37715-7.88821,37.53056-22.05941,117.46641.18711,118.80574,29.09085,1.74309,57.00981-5.23912,57.00981-5.23912l-6.9822-40.14026-22.6897-2.32412,13.34398-62.42619c2.53093-11.85694-5.51486-23.36919-17.51951-25.0532h.00984Z" fill="#d4d5d6" stroke-width="0"/></svg>