<svg xmlns="http://www.w3.org/2000/svg" width="800.158" height="482.261" viewBox="0 0 800.158 482.261"><g transform="translate(-542.001 -294)"><path d="M306.318,109.79a76.213,76.213,0,1,0-84.73,89L253.2,292.055l62.946-74.811s-19.6-17.5-32.264-38.909a76.13,76.13,0,0,0,22.44-68.545Z" transform="translate(888.688 277.632)" fill="#ed9da0"/><path d="M194.7,214.788s100.685,16.977,113.969,37.347,27.454,49.6,27.454,49.6,38.082,189.525-22.141,216.093l-243.27-34.69,29.834-89.3L70.437,483.284,0,472.009s42.1-208.36,66.009-222.531,53.8-10.362,53.8-10.362,47.6,47.3,74.391-24.309l.5-.019Z" transform="translate(994.157 258.437)" fill="#e6e6e6"/><path d="M262.378,75.429s-21.306,6.547-30.163-4.081c0,0-21.255.886-25.683,12.4s-31,16.827-39.853,7.085-22.141-27.454-5.314-43.4c0,0,2.657-16.827,16.827-20.369l7.971,7.085s105.28-49.512,117.733.927c0,0,19.065-3.594,10,7.924,0,0,10.211,11.84,16.689,34.293a92.568,92.568,0,0,1-29.9,96.635h0s22.64-59.428,3.211-42.037-18.543-22.463-18.543-22.463-29.123-17.521-22.975-34Z" transform="translate(872.232 281.582)" fill="#090814"/><path d="M206.2,426.475l148.185,78.961,28.491-42.01L228.015,385.749c-3.229-11.306-11.735-22.008-24.162-28.663-21.743-11.645-47.181-6.5-56.818,11.5s.176,42.021,21.919,53.666c12.426,6.655,26.048,7.8,37.249,4.227Z" transform="translate(832.34 242.874)" fill="#ed9da0"/><path d="M162.808,396.958l7.085,21.255s-16.827,17.967,0,28.025l-59.337-7.655s-24.022-17.717-25.738-3.1c0,0-30.056-19.924-36.256-7.525,0,0,17.777,38.441-10.153,58.188l37.164,16.711,26.471,17.915L224.8,538.659" transform="translate(1083.339 237.603)" fill="#e6e6e6"/><g transform="translate(542.001 399.779)"><path d="M706.669,280.62,459.944,249.164a16.02,16.02,0,0,0-2-.13,15.284,15.284,0,0,0-1.975.125,15.117,15.117,0,0,0-1.939.38,15.5,15.5,0,0,0-1.9.64,16.135,16.135,0,0,0-1.764.853,16.794,16.794,0,0,0-1.673,1.066,17.92,17.92,0,0,0-1.573,1.285,19.56,19.56,0,0,0-1.469,1.493,21.03,21.03,0,0,0-1.339,1.687q-.632.888-1.187,1.848t-1.029,2q-.474,1.039-.866,2.149-.405,1.147-.71,2.345t-.51,2.438q-.2,1.239-.307,2.518t-.107,2.59q0,1.309.107,2.61t.307,2.58q.207,1.285.512,2.544t.71,2.489q.391,1.189.866,2.323t1.029,2.209q.554,1.074,1.187,2.085t1.339,1.955q.708.939,1.469,1.792t1.574,1.6q.812.752,1.673,1.4a20.928,20.928,0,0,0,1.764,1.2,19.268,19.268,0,0,0,1.9,1.016,17.775,17.775,0,0,0,1.939.769,16.792,16.792,0,0,0,1.975.521,16.362,16.362,0,0,0,2,.272l246.725,18.048a6.25,6.25,0,0,0,2.132-.213,6.679,6.679,0,0,0,1.029-.38,7.6,7.6,0,0,0,1-.56,8.877,8.877,0,0,0,.923-.7,10.348,10.348,0,0,0,.87-.853,12.284,12.284,0,0,0,.813-1q.393-.535.756-1.141t.685-1.263q.323-.658.6-1.367t.522-1.465q.24-.757.437-1.559.208-.829.358-1.689t.257-1.744q.1-.885.155-1.793t.051-1.837q0-.928-.051-1.846t-.155-1.824q-.1-.905-.257-1.8t-.358-1.761q-.2-.842-.437-1.646t-.522-1.563q-.285-.77-.6-1.493t-.685-1.4q-.363-.679-.756-1.292t-.813-1.162q-.421-.549-.87-1.028a11.933,11.933,0,0,0-.923-.889,10.021,10.021,0,0,0-1-.76,8.431,8.431,0,0,0-1.029-.586,7.336,7.336,0,0,0-1.055-.409,6.728,6.728,0,0,0-1.079-.229" transform="translate(-334.044 -231.548)" fill="#6c63ff"/><path d="M706.669,364.041l-246.725-5.909a15.86,15.86,0,0,0-3.98.406,16.234,16.234,0,0,0-1.939.581,17.18,17.18,0,0,0-1.9.832,18.348,18.348,0,0,0-1.764,1.032,19.406,19.406,0,0,0-1.673,1.242,20.883,20.883,0,0,0-1.574,1.448q-.762.776-1.469,1.65t-1.339,1.826q-.632.95-1.187,1.97t-1.029,2.109q-.474,1.088-.866,2.239-.405,1.191-.71,2.42t-.51,2.49q-.2,1.261-.307,2.551t-.107,2.6q0,1.31.107,2.6t.307,2.549q.207,1.254.512,2.481t.71,2.416q.391,1.154.866,2.239t1.029,2.1q.554,1.017,1.186,1.963t1.339,1.812q.708.87,1.469,1.641a20.673,20.673,0,0,0,1.574,1.438A19.222,19.222,0,0,0,450.367,406a18.208,18.208,0,0,0,1.764,1.02,17.075,17.075,0,0,0,1.9.82,16.17,16.17,0,0,0,1.939.568,15.647,15.647,0,0,0,3.98.385l246.723-7.506a6.42,6.42,0,0,0,1.079-.125,6.712,6.712,0,0,0,1.055-.306,7.477,7.477,0,0,0,1.029-.486,8.735,8.735,0,0,0,1-.663,10.364,10.364,0,0,0,.923-.8,12.064,12.064,0,0,0,.87-.942q.42-.5.813-1.082t.756-1.219q.362-.644.685-1.335t.6-1.429q.282-.749.522-1.526t.437-1.6q.208-.842.358-1.717t.257-1.771q.1-.9.155-1.812t.051-1.842q0-.92-.051-1.838t-.155-1.812q-.1-.9-.257-1.769t-.358-1.724q-.2-.823-.438-1.6t-.521-1.516q-.28-.736-.6-1.425t-.685-1.329q-.364-.641-.756-1.215t-.813-1.078a11.946,11.946,0,0,0-.87-.937,10.23,10.23,0,0,0-.923-.793,8.658,8.658,0,0,0-1-.657,7.416,7.416,0,0,0-1.03-.478,6.668,6.668,0,0,0-1.055-.3,6.405,6.405,0,0,0-1.079-.117" transform="translate(-334.044 -244.025)" fill="#e6e6e6"/><path d="M706.669,439.9,459.944,457.945a16.373,16.373,0,0,0-2,.272,16.808,16.808,0,0,0-1.975.521,17.784,17.784,0,0,0-1.939.769,19.273,19.273,0,0,0-1.9,1.016,20.925,20.925,0,0,0-1.764,1.2q-.861.658-1.673,1.4t-1.574,1.6q-.762.85-1.469,1.792t-1.339,1.957q-.632,1.012-1.187,2.085t-1.029,2.209q-.474,1.134-.866,2.323-.405,1.228-.71,2.489t-.51,2.54q-.2,1.281-.307,2.581t-.107,2.61q0,1.31.107,2.59t.307,2.519q.207,1.243.512,2.439t.71,2.345q.391,1.111.866,2.149t1.029,2q.554.963,1.187,1.848a21.048,21.048,0,0,0,1.339,1.686,19.56,19.56,0,0,0,1.469,1.493,17.927,17.927,0,0,0,1.574,1.285,16.8,16.8,0,0,0,1.673,1.066,16.13,16.13,0,0,0,1.764.853,15.491,15.491,0,0,0,1.9.64,15.107,15.107,0,0,0,1.939.379,15.28,15.28,0,0,0,1.975.125,16.021,16.021,0,0,0,2-.13l246.723-31.448a6.725,6.725,0,0,0,1.079-.229,7.328,7.328,0,0,0,1.055-.409,8.4,8.4,0,0,0,1.029-.586,10.027,10.027,0,0,0,1-.76,11.944,11.944,0,0,0,.923-.889q.443-.48.87-1.028t.813-1.162q.393-.614.756-1.292t.685-1.4q.323-.727.6-1.492t.522-1.573q.24-.8.437-1.646.208-.872.358-1.762t.257-1.8q.1-.905.155-1.824t.051-1.848q0-.923-.052-1.832t-.155-1.793q-.1-.888-.256-1.747t-.358-1.689q-.2-.8-.437-1.559t-.521-1.465q-.285-.709-.6-1.367t-.689-1.26q-.364-.608-.756-1.141a12.258,12.258,0,0,0-.813-1,10.353,10.353,0,0,0-.87-.853,8.9,8.9,0,0,0-.923-.7,7.615,7.615,0,0,0-1-.56,6.692,6.692,0,0,0-1.029-.38,6.248,6.248,0,0,0-2.132-.213" transform="translate(-334.044 -253.374)" fill="#6c63ff"/><path d="M348.095,355.253a22.07,22.07,0,0,0-2.452.32,22.447,22.447,0,0,0-2.417.593,23.329,23.329,0,0,0-2.373.868,24.764,24.764,0,0,0-2.321,1.141q-1.105.622-2.161,1.352t-2.05,1.569q-.994.837-1.929,1.785t-1.8,2q-.867,1.051-1.643,2.178t-1.456,2.322q-.674,1.2-1.26,2.459t-1.066,2.583q-.5,1.37-.875,2.769t-.626,2.821q-.252,1.422-.377,2.864t-.126,2.894q0,1.453.126,2.869t.377,2.788q.25,1.372.626,2.7t.872,2.592q.484,1.225,1.066,2.37a25.329,25.329,0,0,0,1.262,2.2,24.178,24.178,0,0,0,1.456,2.026,23.47,23.47,0,0,0,1.644,1.852,22.509,22.509,0,0,0,1.8,1.638,21.336,21.336,0,0,0,1.93,1.4,20.539,20.539,0,0,0,4.211,2.073,20.145,20.145,0,0,0,4.691,1.066,20.613,20.613,0,0,0,2.417.107,21.687,21.687,0,0,0,2.452-.174,22.47,22.47,0,0,0,2.439-.449,22.9,22.9,0,0,0,2.383-.715,23.856,23.856,0,0,0,2.319-.978,25.332,25.332,0,0,0,2.247-1.235q1.063-.663,2.07-1.422t1.952-1.618q.945-.859,1.824-1.812t1.691-2q.817-1.046,1.537-2.155t1.35-2.276q.629-1.167,1.164-2.389t.975-2.495q.456-1.318.8-2.658t.571-2.7q.228-1.36.343-2.734t.115-2.76q0-1.386-.115-2.738t-.343-2.665q-.228-1.311-.571-2.584t-.8-2.5q-.442-1.185-.975-2.3t-1.169-2.156a24.18,24.18,0,0,0-2.882-3.852,22.836,22.836,0,0,0-1.687-1.662,21.6,21.6,0,0,0-1.824-1.447,20.878,20.878,0,0,0-1.952-1.227,20.636,20.636,0,0,0-2.075-1,20.123,20.123,0,0,0-4.565-1.3,20.429,20.429,0,0,0-2.383-.238,21.39,21.39,0,0,0-2.439.04" transform="translate(-320.727 -243.69)" fill="#e6e6e6"/><path d="M347.785,232.335a21.56,21.56,0,0,0-2.452.08,21.24,21.24,0,0,0-2.417.358,21.466,21.466,0,0,0-2.373.64,22.238,22.238,0,0,0-2.321.916,23.108,23.108,0,0,0-2.161,1.137,23.73,23.73,0,0,0-2.05,1.371,24.783,24.783,0,0,0-1.93,1.6q-.939.862-1.8,1.828t-1.643,2.019q-.776,1.052-1.456,2.181t-1.263,2.344q-.586,1.2-1.066,2.48-.5,1.319-.872,2.681t-.626,2.76q-.252,1.4-.377,2.827t-.126,2.878q0,1.451.126,2.878t.377,2.824q.251,1.4.626,2.756t.872,2.676q.484,1.272,1.066,2.473t1.266,2.323q.68,1.126,1.456,2.172t1.643,2.009q.868.959,1.8,1.812a24.546,24.546,0,0,0,1.92,1.593,23.52,23.52,0,0,0,2.05,1.357,22.927,22.927,0,0,0,2.161,1.124,22.089,22.089,0,0,0,2.321.9,21.237,21.237,0,0,0,4.79.959,21.691,21.691,0,0,0,4.89-.148,21.409,21.409,0,0,0,2.383-.484,21.7,21.7,0,0,0,2.319-.753,22.539,22.539,0,0,0,2.247-1.016,23.458,23.458,0,0,0,2.075-1.216,24.11,24.11,0,0,0,1.952-1.43q.945-.767,1.824-1.635t1.691-1.836q.817-.968,1.537-2.006t1.35-2.145q.631-1.107,1.164-2.276t.975-2.4q.456-1.273.8-2.58t.571-2.644q.228-1.342.343-2.706t.115-2.749q0-1.385-.115-2.748t-.343-2.7q-.228-1.336-.571-2.642t-.8-2.576q-.442-1.227-.975-2.393t-1.169-2.272q-.629-1.1-1.35-2.132t-1.532-2q-.806-.958-1.687-1.822t-1.824-1.624a23.878,23.878,0,0,0-1.951-1.42,23.265,23.265,0,0,0-2.075-1.2,22.383,22.383,0,0,0-2.247-1,21.573,21.573,0,0,0-2.319-.738,21.315,21.315,0,0,0-2.383-.469,21.584,21.584,0,0,0-2.439-.2m0-2.667a23.688,23.688,0,0,1,10.273,2.659,26.96,26.96,0,0,1,8.239,6.656,31.381,31.381,0,0,1,5.48,9.621,35.093,35.093,0,0,1,0,23.325,31.641,31.641,0,0,1-5.48,9.657,27.214,27.214,0,0,1-8.24,6.7,23.8,23.8,0,0,1-10.273,2.726,23.486,23.486,0,0,1-10.482-2.09,26.5,26.5,0,0,1-8.719-6.43,31.043,31.043,0,0,1-5.961-9.844,35.059,35.059,0,0,1,0-24.463,31.307,31.307,0,0,1,5.961-9.883,26.746,26.746,0,0,1,8.719-6.486,23.573,23.573,0,0,1,10.488-2.157Z" transform="translate(-320.413 -229.332)" fill="#6c63ff"/><path d="M350.233,267.845l-8.4-17.494,1.994-1.3,6.917,14.372,29.042-34.136,1.758,1.873Z" transform="translate(-322.863 -229.288)" fill="#6c63ff"/><path d="M347.785,232.335a21.56,21.56,0,0,0-2.452.08,21.24,21.24,0,0,0-2.417.358,21.466,21.466,0,0,0-2.373.64,22.238,22.238,0,0,0-2.321.916,23.108,23.108,0,0,0-2.161,1.137,23.73,23.73,0,0,0-2.05,1.371,24.783,24.783,0,0,0-1.93,1.6q-.939.862-1.8,1.828t-1.643,2.019q-.776,1.052-1.456,2.181t-1.263,2.344q-.586,1.2-1.066,2.48-.5,1.319-.872,2.681t-.626,2.76q-.252,1.4-.377,2.827t-.126,2.878q0,1.451.126,2.878t.377,2.824q.251,1.4.626,2.756t.872,2.676q.484,1.272,1.066,2.473t1.266,2.323q.68,1.126,1.456,2.172t1.643,2.009q.868.959,1.8,1.812a24.546,24.546,0,0,0,1.92,1.593,23.52,23.52,0,0,0,2.05,1.357,22.927,22.927,0,0,0,2.161,1.124,22.089,22.089,0,0,0,2.321.9,21.237,21.237,0,0,0,4.79.959,21.691,21.691,0,0,0,4.89-.148,21.409,21.409,0,0,0,2.383-.484,21.7,21.7,0,0,0,2.319-.753,22.539,22.539,0,0,0,2.247-1.016,23.458,23.458,0,0,0,2.075-1.216,24.11,24.11,0,0,0,1.952-1.43q.945-.767,1.824-1.635t1.691-1.836q.817-.968,1.537-2.006t1.35-2.145q.631-1.107,1.164-2.276t.975-2.4q.456-1.273.8-2.58t.571-2.644q.228-1.342.343-2.706t.115-2.749q0-1.385-.115-2.748t-.343-2.7q-.228-1.336-.571-2.642t-.8-2.576q-.442-1.227-.975-2.393t-1.169-2.272q-.629-1.1-1.35-2.132t-1.532-2q-.806-.958-1.687-1.822t-1.824-1.624a23.878,23.878,0,0,0-1.951-1.42,23.265,23.265,0,0,0-2.075-1.2,22.383,22.383,0,0,0-2.247-1,21.573,21.573,0,0,0-2.319-.738,21.315,21.315,0,0,0-2.383-.469,21.584,21.584,0,0,0-2.439-.2m0-2.667a23.688,23.688,0,0,1,10.273,2.659,26.96,26.96,0,0,1,8.239,6.656,31.381,31.381,0,0,1,5.48,9.621,35.093,35.093,0,0,1,0,23.325,31.641,31.641,0,0,1-5.48,9.657,27.214,27.214,0,0,1-8.24,6.7,23.8,23.8,0,0,1-10.273,2.726,23.486,23.486,0,0,1-10.482-2.09,26.5,26.5,0,0,1-8.719-6.43,31.043,31.043,0,0,1-5.961-9.844,35.059,35.059,0,0,1,0-24.463,31.307,31.307,0,0,1,5.961-9.883,26.746,26.746,0,0,1,8.719-6.486,23.573,23.573,0,0,1,10.488-2.157Z" transform="translate(-320.413 -21.297)" fill="#6c63ff"/><path d="M350.233,267.845l-8.4-17.494,1.994-1.3,6.917,14.372,29.042-34.136,1.758,1.873Z" transform="translate(-322.863 -21.253)" fill="#6c63ff"/></g></g></svg>