<svg xmlns="http://www.w3.org/2000/svg" width="799.468" height="552.327" viewBox="0 0 799.468 552.327"><g transform="translate(-560.266 -263.837)"><path d="M1352.3,232.384H580.059a13.747,13.747,0,0,0-13.613,13.848v524.66a13.74,13.74,0,0,0,13.613,13.819H1352.3a13.741,13.741,0,0,0,13.613-13.819V246.232a13.747,13.747,0,0,0-13.611-13.848Z" transform="translate(-6.18 31.453)" fill="#090814"/><path d="M1328.244,232.384h-748.6a13.225,13.225,0,0,0-13.2,13.223V746.614a13.219,13.219,0,0,0,13.2,13.2h748.6a13.219,13.219,0,0,0,13.2-13.2V245.608a13.224,13.224,0,0,0-13.192-13.223Z" transform="translate(-4.445 34.617)" fill="#fff"/><circle cx="11" cy="11" r="11" transform="translate(618.99 283.5)" fill="#3f3d56"/><circle cx="11" cy="11" r="11" transform="translate(656.99 283.5)" fill="#3f3d56"/><circle cx="11" cy="11" r="11" transform="translate(694.99 283.5)" fill="#3f3d56"/><path d="M858.7,740.25H201.133c-.953,0-1.726-.448-1.726-1s.773-1,1.726-1H858.7c.953,0,1.726.448,1.726,1S859.653,740.25,858.7,740.25Z" transform="translate(419.584 -420.75)" fill="#cacaca"/><g transform="translate(-478 203.609)"><path d="M1166.966,173.4H528.793a20.239,20.239,0,0,0-4.021.39c-4.453.87-7.4,3.091-7.4,5.573V542.649c0,3.292,5.115,5.961,11.423,5.962h638.172c6.308,0,11.421-2.67,11.423-5.962V179.358c0-3.292-5.115-5.961-11.423-5.962Zm6.854,369.253c-.006,1.974-3.071,3.574-6.854,3.577H528.793c-3.783,0-6.848-1.6-6.854-3.577V179.358c.006-1.974,3.071-3.574,6.854-3.577h638.172c3.783,0,6.848,1.6,6.854,3.577Z" transform="translate(579.62 -8.611)" fill="#e6e6e6"/><circle cx="9.843" cy="9.843" r="9.843" transform="translate(1432.013 306.375)" fill="#6c63ff"/><circle cx="9.843" cy="9.843" r="9.843" transform="translate(1473.024 306.375)" fill="#6c63ff"/><circle cx="9.843" cy="9.843" r="9.843" transform="translate(1348.013 306.705)" fill="#6c63ff"/><circle cx="9.843" cy="9.843" r="9.843" transform="translate(1389.025 306.705)" fill="#6c63ff"/><circle cx="9.843" cy="9.843" r="9.843" transform="translate(1430.038 347.375)" fill="#6c63ff"/><circle cx="9.843" cy="9.843" r="9.843" transform="translate(1471.05 347.375)" fill="#6c63ff"/><circle cx="9.843" cy="9.843" r="9.843" transform="translate(1512.063 347.375)" fill="#6c63ff"/><path d="M853.517,341.574H589.222c-1.023,0-1.852-.448-1.852-1s.829-1,1.852-1H853.517c1.023,0,1.852.448,1.852,1S854.54,341.574,853.517,341.574Z" transform="translate(719.492 -46.117)" fill="#e6e6e6"/><path d="M853.517,297.4H589.222c-1.023,0-1.852-.448-1.852-1s.829-1,1.852-1H853.517c1.023,0,1.852.448,1.852,1S854.54,297.4,853.517,297.4Z" transform="translate(719.492 -46.117)" fill="#e6e6e6"/><path d="M854.369,382.837H588.607a1,1,0,0,1,0-2H854.369a1,1,0,0,1,0,2Z" transform="translate(719.492 -46.117)" fill="#e6e6e6"/><path d="M854.369,422.837H588.607a1,1,0,0,1,0-2H854.369a1,1,0,0,1,0,2Z" transform="translate(719.492 -46.117)" fill="#e6e6e6"/><path d="M854.369,463.837H588.607a1,1,0,0,1,0-2H854.369a1,1,0,0,1,0,2Z" transform="translate(719.492 -46.117)" fill="#e6e6e6"/><path d="M823.37,461.776V297.016c0-.342.448-.62,1-.62s1,.278,1,.62v164.76c0,.342-.448.62-1,.62S823.37,462.118,823.37,461.776Z" transform="translate(719.492 -46.117)" fill="#e6e6e6"/><path d="M782.37,461.776V297.016c0-.342.448-.62,1-.62s1,.278,1,.62v164.76c0,.342-.448.62-1,.62S782.37,462.118,782.37,461.776Z" transform="translate(719.492 -46.117)" fill="#e6e6e6"/><path d="M741.37,461.776V297.016c0-.342.448-.62,1-.62s1,.278,1,.62v164.76c0,.342-.448.62-1,.62S741.37,462.118,741.37,461.776Z" transform="translate(719.492 -46.117)" fill="#e6e6e6"/><path d="M701.37,461.776V297.016c0-.342.448-.62,1-.62s1,.278,1,.62v164.76c0,.342-.448.62-1,.62S701.37,462.118,701.37,461.776Z" transform="translate(719.492 -46.117)" fill="#e6e6e6"/><path d="M659.37,503.619V297.173a1.032,1.032,0,0,1,2,0V503.619a1.032,1.032,0,0,1-2,0Z" transform="translate(719.492 -46.117)" fill="#e6e6e6"/><path d="M617.37,503.619V297.173a1.032,1.032,0,0,1,2,0V503.619a1.032,1.032,0,0,1-2,0Z" transform="translate(719.492 -46.117)" fill="#e6e6e6"/><path d="M588.607,504.837a1,1,0,0,1,0-2l101.763-.441a1.026,1.026,0,0,1,1,1,1,1,0,0,1-1,1l-101.763.441Z" transform="translate(719.492 -46.117)" fill="#e6e6e6"/><g transform="translate(-20.201 6.832)"><path d="M711.335,579.6a20.035,20.035,0,1,1,20.035-20.035A20.035,20.035,0,0,1,711.335,579.6Z" transform="translate(713.366 -63.396)" fill="#e6e6e6"/><path d="M719.24,557.587h-5.929v-5.929a1.976,1.976,0,1,0-3.953,0v5.929h-5.929a1.976,1.976,0,0,0,0,3.953h5.929v5.929a1.976,1.976,0,0,0,3.953,0V561.54h5.929a1.976,1.976,0,1,0,0-3.953Z" transform="translate(713.366 -63.396)" fill="#6c63ff"/><path d="M757.335,579.6a20.035,20.035,0,1,1,20.035-20.035A20.035,20.035,0,0,1,757.335,579.6Z" transform="translate(713.366 -63.396)" fill="#e6e6e6"/><path d="M767.475,568.089l-5.219-6.11a8.476,8.476,0,1,0-2.144,2.109l5.082,5.949a1.5,1.5,0,0,0,2.281-1.948Zm-17.641-11.026a5.5,5.5,0,1,1,5.5,5.5,5.5,5.5,0,0,1-5.5-5.5Z" transform="translate(713.366 -63.396)" fill="#6c63ff"/></g><circle cx="9.843" cy="9.843" r="9.843" transform="translate(1514.024 306.375)" fill="#6c63ff"/><path d="M600.861,188.884a13.757,13.757,0,0,1-14,13.509H521.887c-.235-.006-.471-.012-.706-.03a12.815,12.815,0,0,1-1.811-.248v-23a4.516,4.516,0,0,1,2.934-4.231h65.048a13.772,13.772,0,0,1,13.509,14Z" transform="translate(1085.37 18.604)" fill="#6c63ff"/><path d="M556.871,180.668a1.17,1.17,0,0,0,0,1.655h0l5.023,5.023H549.508a1.17,1.17,0,0,0,0,2.34h12.386l-5.023,5.023a1.17,1.17,0,1,0,1.655,1.655h0l7.02-7.02a1.17,1.17,0,0,0,0-1.655l-7.02-7.02a1.17,1.17,0,0,0-1.655,0Z" transform="translate(1085.37 18.604)" fill="#fff"/><path d="M519.372,188.884a13.756,13.756,0,0,0,14,13.509h64.969c.235-.006.471-.012.706-.03a12.815,12.815,0,0,0,1.811-.248v-23a4.516,4.516,0,0,0-2.934-4.231H532.881a13.772,13.772,0,0,0-13.509,14Z" transform="translate(649.37 18.604)" fill="#6c63ff"/><path d="M557.356,180.668a1.17,1.17,0,0,1,0,1.655h0l-5.023,5.023h12.386a1.17,1.17,0,0,1,0,2.34H552.333l5.023,5.023a1.17,1.17,0,1,1-1.655,1.655h0l-7.02-7.02a1.17,1.17,0,0,1,0-1.655l7.02-7.02a1.17,1.17,0,0,1,1.655,0Z" transform="translate(655.375 18.604)" fill="#fff"/><g transform="translate(6.973)"><path d="M777.661,245.6H709.184c-3.211,0-5.814-3.221-5.814-7.193s2.6-7.193,5.814-7.193h68.477c3.211,0,5.814,3.221,5.814,7.194S780.872,245.6,777.661,245.6Z" transform="translate(633.077 -31.164)" fill="#e6e6e6"/><path d="M777.661,245.6H709.184c-3.211,0-5.814-3.221-5.814-7.193s2.6-7.193,5.814-7.193h68.477c3.211,0,5.814,3.221,5.814,7.194S780.872,245.6,777.661,245.6Z" transform="translate(721.129 -31.164)" fill="#e6e6e6"/></g></g></g></svg>