<svg xmlns="http://www.w3.org/2000/svg" width="719.6203" height="667.52372" viewBox="0 0 719.6203 667.52372" xmlns:xlink="http://www.w3.org/1999/xlink"><line x1="200.19444" y1="666.77372" x2="719.6203" y2="666.77372" fill="#fff" stroke="#090814" stroke-miterlimit="10" stroke-width="1.5"/><rect x="414.0551" y="611.43256" width="24.6171" height="32.44584" fill="#ed9da0" stroke-width="0"/><path d="m434.47051,666.271h-52.32741c-4.47249,0-8.96708-1.02415-12.99795-2.96178l-9.64677-4.63713c-1.99459-.95877-3.28341-3.0083-3.28341-5.22133,0-2.59535,1.74695-4.89137,4.2483-5.58355l19.90176-5.50697,34.04701-17.89598.02546.12894c.63675,3.22473,1.62328,8.09648,1.74877,8.39198,3.49151,3.9998,7.07827,5.84296,10.66072,5.47978,6.24863-.6335,10.40265-7.84903,10.44391-7.92188l.03159-.05571.06375.00651c1.46323.15143,2.54557.74157,3.21707,1.75404,1.42542,2.14937.55587,5.45949.41276,5.95878,1.70713,1.67028,2.47321,10.99786,2.53246,11.75072,2.46832,2.61631,3.64132,5.13154,3.48586,7.47581-.13583,2.04953-1.27245,3.9529-3.37808,5.65745-2.53332,2.05087-5.79558,3.18032-9.18581,3.18032Z" fill="#090814" stroke-width="0"/><rect x="581.43538" y="599.42725" width="24.6171" height="32.44584" transform="translate(-148.33547 190.35597) rotate(-16.22019)" fill="#ed9da0" stroke-width="0"/><path d="m612.31456,650.46413l-50.24453,14.61659c-4.29446,1.2493-8.89623,1.52139-13.30788.78682l-10.55807-1.75792c-2.18301-.36345-3.99302-1.9714-4.61119-4.09634-.72496-2.49204.31111-5.18465,2.51955-6.54797l17.57132-10.84692,27.6929-26.69397.06047.11669c1.51217,2.91851,3.82025,7.32077,4.02329,7.56945,4.4698,2.86531,8.42863,3.63321,11.76704,2.28381,5.82296-2.35371,7.79611-10.44237,7.81537-10.52384l.01477-.06232.06303-.01156c1.44729-.26332,2.65139.001,3.57897.78559,1.96906,1.66566,2.05874,5.08691,2.06079,5.6063,2.10574,1.12694,5.44679,9.86925,5.71398,10.5756,3.10089,1.8227,4.92977,3.91015,5.43533,6.20453.44207,2.0059-.11764,4.15099-1.66332,6.37585-1.85961,2.67687-4.67653,4.6726-7.93182,5.61959Z" fill="#090814" stroke-width="0"/><path d="m550.9741,277.89681h-117.98147s-51.00115,161.60394-48.55126,336.77097h87.87842l5.21735-203.34075,15.26466,211.23359,115.80438-6.6679-57.63207-337.99592Z" fill="#090814" stroke-width="0"/><polygon points="530.62719 222.66905 554.79585 278.22681 436.63772 278.50368 457.13054 226.34388 530.62719 222.66905" fill="#ed9da0" stroke-width="0"/><path d="m516.37037,46.46064c0-22.10268-17.9178-40.02048-40.02063-40.02048s-40.02063,17.9178-40.02063,40.02048c0,17.92528,11.7859,33.09607,28.03047,38.19114l7.73665,51.13006,39.44075-32.86714s-8.52048-10.85269-13.0898-23.09002c10.79961-7.16709,17.92318-19.43134,17.92318-33.36403Z" fill="#ed9da0" stroke-width="0"/><path d="m515.29204,85.96732l-47.137,30.13158-21.75709,38.42306c-6.29972,11.12532-8.42738,24.13193-6.00098,36.6847l9.99637,51.7153h104.22585l-16.46832-107.89439c-2.10192-13.77098-7.34715-26.87287-15.32902-38.28986l-7.52982-10.77039Z" fill="#6c63ff" stroke-width="0"/><path d="m478.03856,108.69313l29.52876-13.93953c14.78079-2.76482,28.70971,7.85855,29.95246,22.84426l53.41192,359.68238,18.17589,38.29934-110.24498,60.83007-50.22271-348.89694-3.67483-53.89755,33.0735-64.92205Z" fill="#090814" stroke-width="0"/><path d="m557.10781,371.39486l-7.01356-38.15408-22.27689,4.09498,7.01356,38.15408c-3.34519,4.69496-4.84512,11.22699-3.59567,18.02409,2.18622,11.89316,11.93741,20.06763,21.78,18.25834,9.84259-1.80928,16.04925-12.91716,13.86303-24.81032-1.24946-6.7971-4.97448-12.36867-9.77047-15.5671Z" fill="#ed9da0" stroke-width="0"/><polyline points="487.26271 187.6006 525.25229 371.71268 563.76808 363.76536 537.48221 178.85866" fill="#090814" stroke-width="0"/><path d="m529.2199,99.04319s-1.86883,14.17874-19.1834,14.64177q-35.12269.93925-35.12269.93925s29.69078-72.25625,17.48235-64.11606c-12.20843,8.14019-44.76423-25.98599-44.76423-25.98599l-9.60611,18.01617s-22.9497-8.31056,2.48453-28.66103c0,0,30.34669-23.46169,62.56338-9.3729,32.21668,14.08879,26.14618,94.53879,26.14618,94.53879Z" fill="#090814" stroke-width="0"/><path d="m246.01352,262.57776H15.09017c-8.3209,0-15.09017-6.76927-15.09017-15.09017v-49.54296c0-8.3209,6.76927-15.09017,15.09017-15.09017h230.92335c8.3209,0,15.09017,6.76927,15.09017,15.09017v49.54296c0,8.3209-6.76927,15.09017-15.09017,15.09017Z" fill="#6c63ff" stroke-width="0"/><polyline points="351.35011 209.84197 325.60183 235.59025 299.85355 209.84197" fill="none" stroke="#090814" stroke-miterlimit="10" stroke-width="3"/></svg>