<svg xmlns="http://www.w3.org/2000/svg" width="800" height="495.611" viewBox="0 0 800 495.611"><g transform="translate(-537 -282)"><path d="M162.537,566.861H0V565.03H162.778Z" transform="translate(537 208.142)" fill="#e6e6e6"/><path d="M264.123,306.515v19.3l-13.16,21.056s-20.178-14.914-15.792-18.424,5.264-30.706,5.264-30.706Z" transform="translate(384.77 104.489)" fill="#ed9da0"/><path d="M102.479,527.943v9.65l14.915-.877-.208-7.948Z" transform="translate(489.915 216.146)" fill="#ed9da0"/><path d="M236.951,721.472c.877,5.264-.877,5.264,13.16,7.019s10.528-9.651,10.528-9.651a73.717,73.717,0,0,0-3.509-15.792c-2.632-7.019-16.669,1.755-16.669,1.755S236.074,716.208,236.951,721.472Z" transform="translate(351.055 48.936)" fill="#2f2e41"/><path d="M117.393,527.943v9.65l-14.914-.877.208-7.948Z" transform="translate(534.522 216.146)" fill="#ed9da0"/><path d="M260.913,721.472c-.877,5.264.877,5.264-13.16,7.019s-10.528-9.651-10.528-9.651a73.717,73.717,0,0,1,3.509-15.792c2.632-7.019,16.669,1.755,16.669,1.755S261.79,716.208,260.913,721.472Z" transform="translate(395.389 48.936)" fill="#2f2e41"/><path d="M965.208,490.04H408.353a8.625,8.625,0,0,1-8.615-8.615V175.047a8.625,8.625,0,0,1,8.615-8.615H965.208a8.625,8.625,0,0,1,8.615,8.615V481.425A8.625,8.625,0,0,1,965.208,490.04Z" transform="translate(363.177 115.568)" fill="#e6e6e6"/><path d="M955.226,480.059H421.868a8.625,8.625,0,0,1-8.615-8.615V188.562a8.625,8.625,0,0,1,8.615-8.615H955.226a8.625,8.625,0,0,1,8.615,8.615V471.444a8.625,8.625,0,0,1-8.615,8.615Z" transform="translate(361.411 113.802)" fill="#fff"/><path d="M579.134,363.764H478.792a4.186,4.186,0,0,1-4.181-4.181V255.08a4.186,4.186,0,0,1,4.181-4.181H579.134a4.186,4.186,0,0,1,4.181,4.181v104.5A4.186,4.186,0,0,1,579.134,363.764ZM478.792,252.572a2.511,2.511,0,0,0-2.509,2.509v104.5a2.511,2.511,0,0,0,2.509,2.509H579.134a2.511,2.511,0,0,0,2.509-2.509V255.08a2.511,2.511,0,0,0-2.509-2.509Z" transform="translate(353.39 104.527)" fill="#3f3d56"/><path d="M771.942,363.764H671.6a4.186,4.186,0,0,1-4.181-4.181V255.08A4.186,4.186,0,0,1,671.6,250.9H771.942a4.186,4.186,0,0,1,4.181,4.181v104.5a4.186,4.186,0,0,1-4.181,4.181ZM671.6,252.572a2.511,2.511,0,0,0-2.508,2.509v104.5a2.511,2.511,0,0,0,2.508,2.509H771.942a2.511,2.511,0,0,0,2.509-2.509V255.08a2.511,2.511,0,0,0-2.509-2.509Z" transform="translate(328.187 104.527)" fill="#3f3d56"/><path d="M964.749,363.764H864.406a4.186,4.186,0,0,1-4.181-4.181V255.08a4.186,4.186,0,0,1,4.181-4.181H964.749a4.186,4.186,0,0,1,4.181,4.181v104.5a4.186,4.186,0,0,1-4.181,4.181ZM864.406,252.572a2.511,2.511,0,0,0-2.509,2.509v104.5a2.511,2.511,0,0,0,2.509,2.509H964.749a2.511,2.511,0,0,0,2.509-2.509V255.08a2.511,2.511,0,0,0-2.509-2.509Z" transform="translate(302.985 104.527)" fill="#3f3d56"/><path d="M510.589,453.38a2.838,2.838,0,1,0,0-5.677H485.12a2.838,2.838,0,1,0,0,5.677Z" transform="translate(352.388 78.802)" fill="#e6e6e6"/><path d="M574.812,434.142a2.839,2.839,0,0,0,.01-5.677h-89.7a2.838,2.838,0,1,0,0,5.677Z" transform="translate(352.388 81.317)" fill="#e6e6e6"/><path d="M703.4,453.38a2.838,2.838,0,0,0,0-5.677h-25.47a2.838,2.838,0,1,0,0,5.677Z" transform="translate(327.185 78.802)" fill="#e6e6e6"/><path d="M767.619,434.142a2.839,2.839,0,0,0,0-5.677H677.927a2.838,2.838,0,1,0,0,5.677Z" transform="translate(327.185 81.317)" fill="#e6e6e6"/><path d="M896.2,453.38a2.838,2.838,0,1,0,0-5.677h-25.47a2.838,2.838,0,0,0,0,5.677Z" transform="translate(301.982 78.802)" fill="#e6e6e6"/><path d="M960.425,434.142a2.839,2.839,0,1,0,0-5.677H870.734a2.838,2.838,0,1,0-.01,5.677Z" transform="translate(301.983 81.317)" fill="#e6e6e6"/><path d="M574.812,415.222a2.839,2.839,0,1,0,0-5.677H485.12a2.839,2.839,0,0,0,0,5.677Z" transform="translate(352.388 83.79)" fill="#6c63ff"/><path d="M767.619,415.222a2.839,2.839,0,0,0,0-5.677H677.927a2.839,2.839,0,0,0,0,5.677Z" transform="translate(327.185 83.79)" fill="#6c63ff"/><path d="M960.426,415.222a2.839,2.839,0,0,0,0-5.677H870.734a2.839,2.839,0,0,0,0,5.677Z" transform="translate(301.982 83.79)" fill="#6c63ff"/><path d="M561.17,356.584a2.839,2.839,0,0,0,0-5.677H503.589a2.839,2.839,0,0,0-.01,5.677Z" transform="translate(349.974 91.455)" fill="#e6e6e6"/><path d="M561.17,337.345a2.839,2.839,0,0,0,0-5.677H503.589a2.838,2.838,0,0,0-.01,5.677Z" transform="translate(349.974 93.969)" fill="#e6e6e6"/><circle cx="18.014" cy="18.014" r="18.014" transform="translate(864.34 375.679)" fill="#6c63ff"/><path d="M753.978,356.584a2.839,2.839,0,0,0,0-5.677H696.4a2.839,2.839,0,1,0,0,5.677Z" transform="translate(324.771 91.455)" fill="#e6e6e6"/><path d="M753.978,337.345a2.839,2.839,0,0,0,0-5.677H696.4a2.838,2.838,0,1,0,0,5.677Z" transform="translate(324.771 93.969)" fill="#e6e6e6"/><circle cx="18.014" cy="18.014" r="18.014" transform="translate(1031.944 375.679)" fill="#6c63ff"/><path d="M946.785,356.584a2.839,2.839,0,1,0,.01-5.677H889.2a2.839,2.839,0,1,0,0,5.677Z" transform="translate(299.568 91.455)" fill="#e6e6e6"/><path d="M946.785,337.345a2.838,2.838,0,1,0,.01-5.677H889.2a2.838,2.838,0,1,0,0,5.677Z" transform="translate(299.568 93.969)" fill="#e6e6e6"/><circle cx="18.014" cy="18.014" r="18.014" transform="translate(1199.549 375.679)" fill="#6c63ff"/><path d="M148.632,348.5,130.711,510.018H110.673V339.238Z" transform="translate(522.813 236.472)" fill="#2f2e41"/><path d="M214.988,458.212l63.167.877,7.019,48.253L242.185,527.52,219.979,667.5,201.6,670.617l-.651-176.435Z" transform="translate(389.162 77.428)" fill="#2f2e41"/><circle cx="19.301" cy="19.301" r="19.301" transform="translate(622.574 384.392)" fill="#ed9da0"/><path d="M122.651,159l13.16,15.791-5.264,109.665-41.234-.877-7.019-95.627,8.773-24.565,6.018-8.188,10.651,16.083Z" transform="translate(526.243 267.799)" fill="#fff"/><path d="M292.793,385.665l9.65,36.848-9.65,36.847,15.792,21.056,14.037-66.676s-10.528-54.394-11.405-60.535-2.632-7.019-2.632-7.019l-7.019.877Z" transform="translate(377.157 98.157)" fill="#2f2e41"/><path d="M67.849,233.27l-6.142,11.406-1.755,19.3,3.509,21.933L51.179,306.088,38.9,250.816l13.159-71.063h5.264Z" transform="translate(531.916 264.589)" fill="#2f2e41"/><path d="M240.237,293.2l-.457,7.8s-5.661-12.8-6.538-25.961,14.037-15.792,22.81-16.669,19.322,8.773,19.322,15.792-11.426,1.755-17.567,0-8.773,13.16-8.773,13.16l-3.509.877Z" transform="translate(384.946 115.492)" fill="#2f2e41"/><path d="M131.655,165.782l-5.178-6.213-14.914,12.282,14.914,10.528Z" transform="translate(522.417 267.227)" fill="#fff"/><path d="M92.386,163.428l6.142-7.9,10.528,15.791L95.9,180.974Z" transform="translate(524.924 267.755)" fill="#fff"/><path d="M281.912,395.111,278.4,428.449l7.019,20.178,4.387,19.3s0,18.424-17.546,19.3S239.8,431.958,239.8,431.958s-2.632,12.283-4.387,19.3-31.584,35.093-31.584,35.093-7.019-.877-13.16-14.914,12.283-27.2,12.283-27.2l5.264-18.424-1.755-22.81L194.18,343.349l36.409-18.862-3.948,50.446,13.16,39.479,19.74-87.293,6.58,4.825,28.074,11.405Z" transform="translate(390.669 100.993)" fill="#2f2e41"/></g></svg>