<?xml version="1.0" encoding="UTF-8"?><svg id="uuid-623e17e8-1848-46ca-a7b6-7b9a93aa6a81" xmlns="http://www.w3.org/2000/svg" width="383.57258" height="578.3688" viewBox="0 0 383.57258 578.3688"><path d="M289.4307,100.13607l21.9873,84.84629-49.53893,12.83768-21.9873-84.84629c-11.32669-6.43068-20.62358-18.3832-24.5406-33.49841-6.85373-26.44773,5.33365-52.48568,27.22142-58.15779,21.88779-5.67203,45.18712,11.1697,52.04087,37.61752,3.91704,15.1153,1.59476,30.07872-5.18277,41.201Z" fill="#ffb8b8"/><path d="M92.03856,33.65754c16.86172-5.23001,90.16535-24.66118,100-10,9.83465,14.66118,69,7,44.29174,89.97753-14.78969,49.6681.48951,103.99918-12.0383,154.28546-1.2643,5.07486-2.82276,10.46785-6.84511,13.8105-6.82008,5.66762-17.00864,2.88456-25.33287-.17199-10.96354-4.02568-23.44947-9.69649-26.07667-21.07643-2.38573-10.33399-34.58267-20.80823-28.9988-29.82507,24.59985-39.7238,65.27576-92.06685,42.94911-133.11138-5.02162-9.23158-11.26971-18.2387-12.6209-28.66046-1.35119-10.42176,4.51549-22.80628,14.95088-24.04777" fill="#090814"/><polyline points="172.15448 270.86091 263.5469 255.16021 250.45875 147.86837 311.97382 140.81829 349.91397 280.56427 204.46186 353.01448" fill="#d6d6e3"/><path d="M173.79941,255.3771H40.17366s-59.37424,6.9917-30.37424,127.9917c29,121,71,195,71,195l180-22-17.5-133.5s22-121-12-138c-34-17-57.5-29.4917-57.5-29.4917Z" fill="#d6d6e3"/><path d="M62.79939,141.47751c0-44.4588,36.04106-80.49986,80.49986-80.49986,44.4588,0,80.50016,36.04106,80.50016,80.49986,0,36.0564-23.70695,66.57195-56.38236,76.8202l-15.56201,102.84641-79.33316-66.11087s17.13836-21.83012,26.32939-46.44481c-21.72305-14.41606-36.05189-39.08549-36.05189-67.11094Z" fill="#ffb8b8"/><path d="M202.48163,46.34087c.59422-8.69468-4.09983-17.11558-10.62302-22.89472-6.52319-5.77914-14.71063-9.30003-22.89416-12.29676C138.46283-.02,104.0119-5.03423,73.75918,6.79272,34.95832,21.96147,10.63128,62.38856,3.23549,103.38734c-7.39579,40.99878-.70078,83.07744,5.99463,124.1964,1.6251,9.98035,3.97836,21.12831,12.45214,26.64587,5.39307,3.51161,12.17936,3.92478,18.61474,3.97456,29.70184.2298,104.9374,91.90203,132.74167,81.45337-15.43022-38.18038-63.12146-178.52379-51.61649-218.06452,4.10854-14.12039,10.39046-28.39336,22.07822-37.3187,10.49769-8.01655,23.96357-10.70682,36.34876-15.29744s25.07144-12.59556,28.37093-25.3854c-1.95132-.11647-3.90265-.23295-5.85397-.34942" fill="#090814"/><path d="M366.57649,368.2591h-63.24496c-9.37166,0-16.99609-7.62443-16.99609-16.99609v-168.60938c0-9.37166,7.62443-16.99609,16.99609-16.99609h63.24496c9.37166,0,16.99609,7.62443,16.99609,16.99609v168.60938c0,9.37166-7.62443,16.99609-16.99609,16.99609Z" fill="#6c63ff"/><circle cx="305.49261" cy="189.74915" r="11.02988" fill="#090814"/><circle cx="329.87446" cy="203.10112" r="11.02988" fill="#090814"/><circle cx="305.49261" cy="217.03361" r="11.02988" fill="#090814"/><path d="M297.09113,367.80266l-83.18953,48.69041-28.42874-48.5716,83.18953-48.69041c3.41033-13.9121,13.27172-27.33109,28.09177-36.00523,25.93129-15.17745,57.13485-10.08417,69.69556,11.37619,12.56063,21.46041,1.72179,51.16087-24.20958,66.33837-14.82014,8.67418-31.34925,10.70084-45.149,6.86226Z" fill="#ffb8b8"/><polyline points="81.29941 294.8688 125.29941 386.8688 234.90592 340.8688 260.79941 403.847 124.29941 485.8688 4.05164 353.67227" fill="#d6d6e3"/><polygon points="124.20555 486.50812 123.92919 486.20539 3.68114 354.0091 4.42137 353.33527 124.39305 485.22883 260.17333 403.63996 234.63524 341.52473 125.05321 387.51398 124.84813 387.0843 80.84813 295.0843 81.75048 294.65266 125.5454 386.22297 235.17626 340.21223 235.36864 340.67805 261.42528 404.05402 261.05712 404.2757 124.20555 486.50812" fill="#fff"/></svg>