<svg xmlns="http://www.w3.org/2000/svg" width="316.62489" height="656.31103" viewBox="0 0 316.62489 656.31103" xmlns:xlink="http://www.w3.org/1999/xlink"><path d="m265.81683,656.31103H50.80806c-28.01552,0-50.80806-22.79223-50.80806-50.80806V50.80806C0,22.79223,22.79253,0,50.80806,0h215.00877c28.01583,0,50.80806,22.79223,50.80806,50.80806v554.69492c0,28.01583-22.79223,50.80806-50.80806,50.80806Z" fill="#2f2e41" stroke-width="0"/><path d="m266.03595,642.59893H50.58894c-21.02131,0-38.12339-17.10239-38.12339-38.12339V48.71911c0-21.021,17.10208-38.12339,38.12339-38.12339h215.44701c21.021,0,38.12339,17.10239,38.12339,38.12339v555.75643c0,21.021-17.10239,38.12339-38.12339,38.12339Z" fill="#fff" stroke-width="0"/><path d="m191.96942,46.7458h-68.56051c-7.90448,0-14.33538-6.43059-14.33538-14.33538s6.4309-14.33538,14.33538-14.33538h68.56051c7.90479,0,14.33538,6.43059,14.33538,14.33538s-6.43059,14.33538-14.33538,14.33538Z" fill="#2f2e41" stroke-width="0"/><circle cx="196.19464" cy="282.90301" r="70.64857" fill="#ff6363" stroke-width="0"/><path d="m191.86833,282.74891l-7.08143,8.07475v22.56753s-22.46227,57.57268-11.64346,86.28417c0,0,7.45686,6.24163,7.88952-3.32887.43266-9.5705,5.84207-25.3826,5.84207-25.3826,0,0,14.56379-21.22153,14.14768-34.53699,0,0,17.73234-47.59019,9.07423-53.33879l-18.22861-.33919v-.00002Z" fill="#6c63ff" stroke-width="0"/><path d="m163.56477,499.24085c-.33495-20.37787-.64713-40.75614-.93124-61.13479-.28399-20.37012-.54016-40.74064-.76392-61.11152-.22371-20.36788-.41503-40.73612-.56937-61.10465-.15436-20.37115-.27176-40.74259-.34764-61.11419-.03795-10.18857-.06551-20.37717-.08217-30.5658-.01068-6.53537-.73335-15.01492,3.61662-20.50105.93913-1.18442,2.11493-2.04246,3.46408-2.70041,2.55929-1.24809.31859-5.06563-2.2335-3.82106-6.61344,3.22518-8.56105,10.85245-9.09701,17.60117-.33537,4.22304-.17757,8.48634-.16968,12.71803.00968,5.19436.02219,10.38872.03745,15.58307.06074,20.67236.16509,41.34459.30834,62.01654.14393,20.76807.32711,41.53584.54474,62.30327.2166,20.66976.46732,41.33914.74735,62.00814.28015,20.67696.58962,41.35353.92362,62.02968.04197,2.59786.08434,5.19572.12705,7.79354.04676,2.84463,4.47213,2.8534,4.42523,0h0l.00005.00003Z" fill="#2f2e41" stroke-width="0"/><path d="m210.09694,259.59408s18.44846,71.10964,38.18384,89.57528c0,0,6.02947,40.98821,39.29247,47.17712,0,0-24.39142-28.72586-19.14099-42.02693,6.24163-15.81212-1.66443-109.43649-58.25517-94.8727" fill="#6c63ff" stroke-width="0"/><path d="m159.08474,323.3058c2.80399.61528,5.71167-.14834,8.01313-1.82921,2.40308-1.75507,3.98986-4.17249,5.11745-6.895,1.1529-2.78361,1.78283-5.76291,2.45021-8.69068.70876-3.1093,1.37232-6.2289,2.10723-9.33224,2.5827-10.90627,6.40004-22.60713,15.62261-29.7542,5.02175-3.89163,11.36544-5.89927,17.70157-5.73533,1.89912.04913,1.89803-2.90104,0-2.95015-5.90612-.15281-11.86013,1.44107-16.88734,4.55075-4.78238,2.95825-8.59475,7.24396-11.47843,12.03626-6.3847,10.61052-7.87795,22.97284-10.94904,34.74078-.75235,2.88288-1.7186,5.93394-3.76617,8.18305-1.81628,1.99504-4.53648,3.40402-7.14694,2.8312-.77747-.17061-1.59564.23369-1.81452,1.03025-.20283.73815.24865,1.64301,1.03025,1.81452h0Z" fill="#2f2e41" stroke-width="0"/><path d="m287.44705,396.82158c-11.05995-2.93767-20.02756-14.39999-25.93339-33.14791-4.43807-14.08837-5.62685-27.48721-5.63837-27.62094-1.5357-17.71916-6.82955-42.57409-23.32872-60.35542-9.83744-10.60187-19.09892-13.6723-19.19135-13.70207l.30155-.93585c.38726.1246,9.59988,3.18015,19.61066,13.96904,9.21154,9.92747,20.78119,28.55846,23.58765,60.93979.0455.52963,4.85306,52.99901,30.84442,59.9031l-.25245.95025Z" fill="#2f2e41" stroke-width="0"/><path d="m209.26473,179.28517s18.44846,71.10963,38.18384,89.57529c0,0,6.02947,40.9882,39.29248,47.17712,0,0-24.39142-28.72586-19.14099-42.02694,6.24163-15.81212-1.66443-109.43649-58.25517-94.8727" fill="#6c63ff" stroke-width="0"/><path d="m158.25254,242.9969c2.80399.61528,5.71167-.14834,8.01313-1.82921,2.40308-1.75508,3.98986-4.17249,5.11745-6.895,1.1529-2.78362,1.78283-5.76291,2.45021-8.69067.70876-3.10931,1.37232-6.2289,2.10722-9.33224,2.5827-10.90627,6.40004-22.60713,15.62261-29.7542,5.02175-3.89162,11.36544-5.89927,17.70157-5.73533,1.89912.04913,1.89803-2.90104,0-2.95015-5.90612-.15281-11.86013,1.44108-16.88734,4.55076-4.78238,2.95824-8.59475,7.24396-11.47843,12.03625-6.3847,10.61052-7.87795,22.97284-10.94904,34.74078-.75235,2.88288-1.7186,5.93394-3.76617,8.18305-1.81628,1.99505-4.53648,3.40402-7.14694,2.8312-.77747-.1706-1.59564.23369-1.81452,1.03025-.20283.73815.24865,1.64301,1.03025,1.81452h.00002Z" fill="#2f2e41" stroke-width="0"/><path d="m286.61492,316.51278c-11.05995-2.93767-20.02756-14.39999-25.93351-33.14791-4.43807-14.08837-5.62685-27.48721-5.63837-27.62094-1.5357-17.71916-6.82955-42.57408-23.32872-60.35542-9.83744-10.60187-19.09892-13.6723-19.19135-13.70207l.30155-.93585c.38726.1246,9.59988,3.18015,19.61066,13.96905,9.21154,9.92747,20.78119,28.55846,23.58765,60.93978.0455.52963,4.85318,52.99901,30.84454,59.9031l-.25245.95025Z" fill="#2f2e41" stroke-width="0"/><path d="m109.14293,335.32579s-18.44846,71.10964-38.18384,89.57529c0,0-6.02947,40.98821-39.29247,47.17712,0,0,24.39141-28.72586,19.14099-42.02693-6.24163-15.81212,1.66443-109.4365,58.25516-94.87271" fill="#6c63ff" stroke-width="0"/><path d="m159.37085,396.19275c-2.27966.50023-4.72125-.52545-6.47484-2.15318-1.96494-1.82392-3.08335-4.33541-3.8691-6.85435-.90365-2.89694-1.51197-5.89181-2.17083-8.85125-.70967-3.18761-1.40446-6.37938-2.20984-9.5446-2.80254-11.01429-7.36891-22.32499-16.87795-29.22207-5.34857-3.87941-12.03004-5.88723-18.62537-5.71659-1.8949.04902-1.90228,2.99937,0,2.95015,5.69963-.14747,11.34281,1.45638,16.10379,4.59881,4.47983,2.95686,7.91987,7.24041,10.50681,11.89731,2.8852,5.19383,4.68813,10.87567,6.13367,16.61549.78818,3.12961,1.47284,6.28387,2.17486,9.43356.66506,2.98385,1.27616,6.00831,2.21463,8.92126.98526,3.05819,2.45673,6.13539,4.96386,8.23841,2.49058,2.08914,5.67093,3.24355,8.91456,2.53181.77841-.1708,1.23334-1.07552,1.03025-1.81452-.22068-.80304-1.0338-1.20156-1.81452-1.03025h0l.00002.00002Z" fill="#2f2e41" stroke-width="0"/><path d="m31.79282,472.55342l-.25245-.95025c25.99136-6.90409,30.79893-59.37348,30.84443-59.90262,1.54902-17.87353,6.89869-42.95414,23.58765-60.94027,10.01078-10.78889,19.2234-13.84444,19.61066-13.96904l.30179.93585c-.09279.03001-9.39797,3.12589-19.23745,13.75153-9.08778,9.81367-20.50401,28.24251-23.28286,60.30644-.01152.13325-1.2003,13.53209-5.63837,27.62046-5.90582,18.74791-14.87344,30.21024-25.93339,33.14791Z" fill="#2f2e41" stroke-width="0"/><path d="m106.23017,193.84896s-18.44846,71.10964-38.18384,89.57529c0,0-6.02947,40.9882-39.29247,47.17712,0,0,24.39141-28.72586,19.14099-42.02694-6.24163-15.81212,1.66443-109.43649,58.25516-94.8727" fill="#6c63ff" stroke-width="0"/><path d="m156.45809,254.71592c-2.27966.50023-4.72126-.52545-6.47484-2.15318-1.96494-1.82392-3.08335-4.33541-3.8691-6.85434-.90365-2.89694-1.51197-5.89181-2.17083-8.85126-.70967-3.18761-1.40446-6.37937-2.20984-9.54459-2.80254-11.01429-7.36891-22.32499-16.87795-29.22207-5.34857-3.87942-12.03004-5.88724-18.62537-5.71659-1.8949.04903-1.90228,2.99937,0,2.95015,5.69963-.14747,11.34281,1.45639,16.10379,4.5988,4.47983,2.95685,7.91987,7.2404,10.50681,11.89732,2.8852,5.19383,4.68813,10.87567,6.13367,16.61549.78818,3.12962,1.47284,6.28387,2.17486,9.43356.66506,2.98385,1.27616,6.00831,2.21463,8.92126.98526,3.0582,2.45673,6.1354,4.96386,8.23841,2.49058,2.08914,5.67092,3.24356,8.91456,2.5318.77841-.17081,1.23334-1.07551,1.03025-1.81452-.22068-.80304-1.0338-1.20156-1.81452-1.03025h.00002Z" fill="#2f2e41" stroke-width="0"/><path d="m28.88001,331.07651l-.25245-.95025c25.99617-6.90529,30.79905-59.37348,30.84455-59.90262,1.54902-17.87353,6.89869-42.95414,23.58765-60.94027,10.01078-10.78889,19.2234-13.84444,19.61066-13.96905l.30179.93585c-.09279.03001-9.39797,3.12589-19.23745,13.75153-9.08778,9.81367-20.50401,28.24251-23.28286,60.30645-.01152.13325-1.2003,13.53209-5.63837,27.62046-5.90594,18.74791-14.87356,30.21024-25.9335,33.14791Z" fill="#2f2e41" stroke-width="0"/><path d="m159.47689,212.50408s15.72958-5.07592,18.23501,12.19514c2.50541,17.27106,10.95794,43.43653,10.95794,43.43653,0,0-5.55491,14.11832-3.88291,22.6879,0,0,17.32381,1.75802,25.31004-7.73556l-11.58657-21.43388s-8.71818-58.49689-35.76742-59.27166l-3.26606,10.12153h-.00003Z" fill="#2f2e41" stroke-width="0"/><path d="m268.35707,501.02014c0,.3245-.26061.58511-.58511.58511H65.57842c-.32452,0-.58511-.26061-.58511-.58511s.2606-.58511.58511-.58511h202.19353c.3245,0,.58511.26061.58511.58511h.00002Z" fill="#2e2e43" stroke-width="0"/></svg>