<svg xmlns="http://www.w3.org/2000/svg" width="649.675" height="619.09" viewBox="0 0 649.675 619.09"><g transform="translate(-727 -230.692)"><circle cx="45" cy="45" r="45" transform="translate(818.443 266.63)" fill="#ff6584"/><path d="M408.039,245.192h-5.756V209.751a18.059,18.059,0,0,0-18.059-18.059H359.283v-51h-4v51h-34v53.5h-33.5v513h188V312.936a67.744,67.744,0,0,0-67.744-67.744Z" transform="translate(451.838 90)" fill="#f2f2f2"/><path d="M580.248,557.692h-4.965v-6.941a18.045,18.045,0,0,0-17-18.006V485.692h-4v47h-18v25h-64v201h142V591.727A34.035,34.035,0,0,0,580.248,557.692Z" transform="translate(451.838 90)" fill="#f2f2f2"/><path d="M854.283,413.8V401.751a18.044,18.044,0,0,0-17-18.006V336.692h-4v47h-18v30h-85v345h188V481.436a67.742,67.742,0,0,0-64-67.636Z" transform="translate(451.838 90)" fill="#f2f2f2"/><rect width="25" height="20" transform="translate(1213.121 552.692)" fill="#fff"/><rect width="25" height="20" transform="translate(1254.121 552.692)" fill="#fff"/><rect width="25" height="20" transform="translate(1295.121 552.692)" fill="#fff"/><rect width="25" height="20" transform="translate(1213.121 603.692)" fill="#fff"/><rect width="25" height="20" transform="translate(1254.121 603.692)" fill="#fff"/><rect width="25" height="20" transform="translate(1295.121 603.692)" fill="#fff"/><rect width="25" height="20" transform="translate(1213.121 654.692)" fill="#fff"/><rect width="25" height="20" transform="translate(1254.121 654.692)" fill="#fff"/><rect width="25" height="20" transform="translate(1295.121 654.692)" fill="#fff"/><rect width="25" height="20" transform="translate(1213.121 705.691)" fill="#fff"/><rect width="25" height="20" transform="translate(1254.121 705.691)" fill="#fff"/><rect width="25" height="20" transform="translate(1295.121 705.691)" fill="#fff"/><rect width="25" height="20" transform="translate(1213.121 756.691)" fill="#fff"/><rect width="25" height="20" transform="translate(1254.121 756.691)" fill="#fff"/><rect width="25" height="20" transform="translate(1295.121 756.691)" fill="#fff"/><rect width="25" height="20" transform="translate(1213.121 807.691)" fill="#fff"/><rect width="25" height="20" transform="translate(1254.121 807.691)" fill="#fff"/><rect width="25" height="20" transform="translate(1295.121 807.691)" fill="#fff"/><rect width="81" height="6" transform="translate(793.121 375.692)" fill="#fff"/><rect width="81" height="6" transform="translate(793.121 412.692)" fill="#fff"/><rect width="81" height="6" transform="translate(793.121 449.692)" fill="#fff"/><rect width="81" height="6" transform="translate(793.121 486.692)" fill="#fff"/><rect width="81" height="6" transform="translate(793.121 523.692)" fill="#fff"/><rect width="81" height="6" transform="translate(793.121 560.692)" fill="#fff"/><rect width="81" height="6" transform="translate(793.121 597.692)" fill="#fff"/><rect width="81" height="6" transform="translate(793.121 634.692)" fill="#fff"/><rect width="81" height="6" transform="translate(793.121 671.691)" fill="#fff"/><rect width="81" height="6" transform="translate(793.121 708.691)" fill="#fff"/><rect width="81" height="6" transform="translate(793.121 745.691)" fill="#fff"/><rect width="81" height="6" transform="translate(793.121 782.691)" fill="#fff"/><rect width="25" height="20" transform="translate(941.621 674.691)" fill="#fff"/><rect width="25" height="20" transform="translate(982.621 674.691)" fill="#fff"/><rect width="25" height="20" transform="translate(1023.621 674.691)" fill="#fff"/><rect width="25" height="20" transform="translate(942.121 725.691)" fill="#fff"/><rect width="25" height="20" transform="translate(983.121 725.691)" fill="#fff"/><rect width="25" height="20" transform="translate(1024.121 725.691)" fill="#fff"/><rect width="25" height="20" transform="translate(942.621 776.691)" fill="#fff"/><rect width="25" height="20" transform="translate(983.621 776.691)" fill="#fff"/><rect width="25" height="20" transform="translate(1024.621 776.691)" fill="#fff"/><rect width="25" height="20" transform="translate(801.121 292.692)" fill="#fff"/><path d="M294.649,708.891c1.987-15.979,11.89-31.722,27.129-36.922a74.187,74.187,0,0,0,0,50.935c2.342,6.334,5.606,13.135,3.4,19.519-1.37,3.972-4.723,7.011-8.471,8.911s-7.907,2.806-12.014,3.693l-.808.669C297.371,740.973,292.662,724.87,294.649,708.891Z" transform="translate(451.838 90)" fill="#d6d6e3"/><path d="M321.929,672.271a63.41,63.41,0,0,0-15.764,35.687,27.306,27.306,0,0,0,.311,8.55,15.662,15.662,0,0,0,3.9,7.264c1.756,1.929,3.775,3.7,5.031,6.021a9.589,9.589,0,0,1,.469,7.829c-1.109,3.181-3.3,5.774-5.521,8.235-2.471,2.733-5.082,5.532-6.132,9.155-.127.439-.8.216-.674-.222,1.828-6.3,7.947-9.884,10.865-15.561,1.362-2.649,1.933-5.725.657-8.521-1.116-2.445-3.2-4.272-4.991-6.21A16.712,16.712,0,0,1,306,717.537a25.245,25.245,0,0,1-.638-8.506,61.518,61.518,0,0,1,4.493-18.7,64.535,64.535,0,0,1,11.6-18.6c.3-.34.771.195.47.532Z" transform="translate(451.838 90)" fill="#fff"/><path d="M306.356,703.664a9.514,9.514,0,0,1-7.242-9.966.355.355,0,0,1,.709.035,8.809,8.809,0,0,0,6.755,9.256c.444.106.219.779-.223.674Z" transform="translate(451.838 90)" fill="#fff"/><path d="M309.352,722.911a18.337,18.337,0,0,0,8.188-10.561c.129-.438.8-.215.674.223a19.073,19.073,0,0,1-8.543,10.972C309.278,723.779,308.961,723.144,309.352,722.911Z" transform="translate(451.838 90)" fill="#fff"/><path d="M313.293,684.192a5.385,5.385,0,0,0,5.1-.259c.39-.238.707.4.319.634a6.034,6.034,0,0,1-5.645.3.367.367,0,0,1-.226-.448.357.357,0,0,1,.448-.226Z" transform="translate(451.838 90)" fill="#fff"/><path d="M368.228,700.509c-.24.156-.479.311-.719.473a70.912,70.912,0,0,0-9.068,7.08c-.222.2-.443.4-.659.6a74.764,74.764,0,0,0-16.237,22.227,72.611,72.611,0,0,0-3.977,10.29c-1.468,4.87-2.671,10.266-5.576,14.249a12.46,12.46,0,0,1-.97,1.2H304.77c-.06-.03-.12-.054-.18-.084l-1.048.048c.042-.186.09-.377.132-.563.024-.108.054-.216.078-.323.018-.072.036-.144.048-.21.006-.024.012-.048.018-.066.012-.066.03-.126.042-.186q.4-1.608.814-3.216c0-.006,0-.006.006-.012a106.757,106.757,0,0,1,8.984-23.586c.12-.222.24-.449.371-.671a69.286,69.286,0,0,1,6.223-9.439,61.251,61.251,0,0,1,4.079-4.666,50.933,50.933,0,0,1,12.745-9.547c9.415-4.971,20.316-6.876,30.379-3.839C367.719,700.347,367.971,700.425,368.228,700.509Z" transform="translate(451.838 90)" fill="#d6d6e3"/><path d="M368.169,700.842a63.41,63.41,0,0,0-34.073,19,27.307,27.307,0,0,0-4.9,7.014A15.661,15.661,0,0,0,327.933,735c.24,2.6.787,5.226.392,7.836a9.589,9.589,0,0,1-4.339,6.533c-2.8,1.872-6.107,2.626-9.366,3.251-3.619.694-7.388,1.358-10.408,3.618-.366.274-.769-.31-.4-.583,5.254-3.932,12.3-3.107,18.044-5.883,2.682-1.3,4.99-3.407,5.655-6.408.581-2.625.02-5.336-.247-7.963a16.712,16.712,0,0,1,.939-8.01,25.244,25.244,0,0,1,4.612-7.176A61.518,61.518,0,0,1,347.653,708a64.536,64.536,0,0,1,20.462-7.862c.447-.089.5.62.054.708Z" transform="translate(451.838 90)" fill="#fff"/><path d="M336.835,716.531a9.513,9.513,0,0,1,.218-12.317c.3-.342.848.113.545.455a8.81,8.81,0,0,0-.179,11.458c.291.352-.294.754-.583.4Z" transform="translate(451.838 90)" fill="#fff"/><path d="M327.638,733.7a18.336,18.336,0,0,0,12.9-3.5c.367-.273.771.311.4.583a19.073,19.073,0,0,1-13.427,3.617c-.455-.051-.326-.749.127-.7Z" transform="translate(451.838 90)" fill="#fff"/><path d="M354.1,705.161a5.385,5.385,0,0,0,4.231,2.866c.455.045.325.743-.127.7a6.035,6.035,0,0,1-4.687-3.16.367.367,0,0,1,.09-.494A.357.357,0,0,1,354.1,705.161Z" transform="translate(451.838 90)" fill="#fff"/><path d="M771.649,708.891c1.987-15.979,11.89-31.722,27.129-36.922a74.187,74.187,0,0,0,0,50.935c2.342,6.334,5.606,13.135,3.4,19.519-1.37,3.972-4.723,7.011-8.471,8.911s-7.907,2.806-12.014,3.693l-.808.669C774.371,740.973,769.662,724.87,771.649,708.891Z" transform="translate(451.838 90)" fill="#d6d6e3"/><path d="M798.929,672.271a63.409,63.409,0,0,0-15.764,35.687,27.3,27.3,0,0,0,.311,8.55,15.662,15.662,0,0,0,3.9,7.264c1.756,1.929,3.775,3.7,5.031,6.021a9.59,9.59,0,0,1,.469,7.829c-1.109,3.181-3.295,5.774-5.521,8.235-2.471,2.733-5.082,5.532-6.132,9.155-.127.439-.8.216-.674-.222,1.828-6.3,7.947-9.884,10.865-15.561,1.362-2.649,1.933-5.725.657-8.521-1.116-2.445-3.2-4.272-4.991-6.21A16.713,16.713,0,0,1,783,717.537a25.244,25.244,0,0,1-.638-8.506,61.518,61.518,0,0,1,4.493-18.7,64.537,64.537,0,0,1,11.6-18.6C798.763,671.4,799.23,671.933,798.929,672.271Z" transform="translate(451.838 90)" fill="#fff"/><path d="M783.356,703.664a9.514,9.514,0,0,1-7.242-9.966c.036-.455.745-.42.709.035a8.809,8.809,0,0,0,6.755,9.256c.444.106.219.779-.222.674Z" transform="translate(451.838 90)" fill="#fff"/><path d="M786.352,722.911a18.337,18.337,0,0,0,8.188-10.561c.129-.438.8-.215.674.223a19.073,19.073,0,0,1-8.543,10.972C786.278,723.779,785.961,723.144,786.352,722.911Z" transform="translate(451.838 90)" fill="#fff"/><path d="M790.293,684.192a5.385,5.385,0,0,0,5.1-.259c.39-.238.707.4.319.634a6.034,6.034,0,0,1-5.645.3.367.367,0,0,1-.226-.448.357.357,0,0,1,.448-.226Z" transform="translate(451.838 90)" fill="#fff"/><path d="M845.228,700.509c-.24.156-.479.311-.719.473a70.912,70.912,0,0,0-9.068,7.08c-.222.2-.443.4-.659.6a74.764,74.764,0,0,0-16.237,22.227,72.615,72.615,0,0,0-3.977,10.29c-1.468,4.869-2.671,10.266-5.576,14.249a12.464,12.464,0,0,1-.97,1.2H781.77c-.06-.03-.12-.054-.18-.084l-1.048.048c.042-.186.09-.377.132-.563.024-.108.054-.216.078-.323.018-.072.036-.144.048-.21.006-.024.012-.048.018-.066.012-.066.03-.126.042-.186q.4-1.608.814-3.216c0-.006,0-.006.006-.012a106.752,106.752,0,0,1,8.984-23.586c.12-.222.239-.449.371-.671a69.29,69.29,0,0,1,6.223-9.439,61.226,61.226,0,0,1,4.079-4.666,50.931,50.931,0,0,1,12.745-9.547c9.416-4.971,20.316-6.876,30.379-3.839C844.719,700.347,844.971,700.425,845.228,700.509Z" transform="translate(451.838 90)" fill="#d6d6e3"/><path d="M845.169,700.842a63.41,63.41,0,0,0-34.073,19,27.308,27.308,0,0,0-4.9,7.014A15.661,15.661,0,0,0,804.933,735c.24,2.6.787,5.226.392,7.836a9.59,9.59,0,0,1-4.339,6.533c-2.8,1.872-6.107,2.626-9.366,3.251-3.619.694-7.388,1.358-10.408,3.618-.366.274-.769-.31-.4-.583,5.254-3.932,12.3-3.107,18.044-5.883,2.682-1.3,4.99-3.407,5.655-6.408.581-2.625.02-5.336-.247-7.963a16.711,16.711,0,0,1,.939-8.01,25.242,25.242,0,0,1,4.612-7.176A61.517,61.517,0,0,1,824.653,708a64.534,64.534,0,0,1,20.462-7.862C845.561,700.046,845.613,700.754,845.169,700.842Z" transform="translate(451.838 90)" fill="#fff"/><path d="M813.835,716.531a9.513,9.513,0,0,1,.218-12.317c.3-.342.848.113.545.455a8.81,8.81,0,0,0-.179,11.458C814.709,716.479,814.124,716.881,813.835,716.531Z" transform="translate(451.838 90)" fill="#fff"/><path d="M804.638,733.7a18.336,18.336,0,0,0,12.9-3.5c.367-.273.771.311.4.583a19.072,19.072,0,0,1-13.427,3.617C804.057,734.351,804.186,733.653,804.638,733.7Z" transform="translate(451.838 90)" fill="#fff"/><path d="M831.1,705.161a5.385,5.385,0,0,0,4.231,2.866c.455.045.325.743-.127.7a6.035,6.035,0,0,1-4.687-3.16.367.367,0,0,1,.09-.494A.357.357,0,0,1,831.1,705.161Z" transform="translate(451.838 90)" fill="#fff"/><path d="M482.477,215.7c-2.089-1.475-4.374-3.012-6.931-2.951-6.187.149-9.522,9.218-15.7,8.9-3.941-.2-6.558-4.207-10.228-5.659-4.778-1.89-10.858,1.806-11.379,6.918l.614-.562a148.146,148.146,0,0,0,56.756,2.622Z" transform="translate(451.838 90)" fill="#f0f0f0"/><path d="M767.477,174.7c-2.089-1.475-4.374-3.012-6.931-2.951-6.187.149-9.522,9.218-15.7,8.9-3.941-.2-6.558-4.207-10.228-5.659-4.778-1.89-10.858,1.806-11.379,6.918l.614-.562a148.147,148.147,0,0,0,56.756,2.622Z" transform="translate(451.838 90)" fill="#f0f0f0"/><path d="M608.477,341.7c-2.089-1.475-4.374-3.012-6.931-2.951-6.187.149-9.522,9.218-15.7,8.9-3.941-.2-6.558-4.207-10.228-5.659-4.778-1.89-10.858,1.806-11.379,6.918l.614-.562a148.146,148.146,0,0,0,56.756,2.622Z" transform="translate(451.838 90)" fill="#f0f0f0"/><path d="M712.844,614.238a.389.389,0,0,0,.18-.313c-.052.046-.1.094-.156.139C712.86,614.123,712.858,614.178,712.844,614.238Z" transform="translate(451.838 90)" fill="#2f2e41"/><path d="M923.647,759.308H276.353a1.191,1.191,0,1,1,0-2.381H923.647a1.191,1.191,0,0,1,0,2.381Z" transform="translate(451.838 90)" fill="#cacaca"/><path d="M622.648,478.823l-4.459,2.284a.179.179,0,0,1-.163-.318l4.459-2.284a.179.179,0,0,1,.163.318Z" transform="translate(451.838 90)" fill="#fff"/><circle cx="0.143" cy="0.143" r="0.143" transform="translate(1074.961 568.162)" fill="#fff"/><g transform="translate(-459.771 367.371)"><path d="M12.426,16.181,9.449,0,0,1.735,2.976,17.916a10.082,10.082,0,0,0-1.527,7.642c.925,5.044,5.065,8.509,9.236,7.745s6.8-5.481,5.88-10.519a10.075,10.075,0,0,0-4.145-6.6Z" transform="translate(1564.03 291.72) rotate(59)" fill="#ffb9b9"/><path d="M516.758,111.67l-53.288,59.3,12.405,11.15,56.5-55.507" transform="translate(1085.388 127.915)" fill="#6c63ff"/><rect width="10.441" height="10.441" transform="translate(1649.479 443.792) rotate(-36.4)" fill="#ffb9b9"/><path d="M665.211,513.55l-17.858,13.168a12.785,12.785,0,0,1-5.184,2.26l-4.462.847a2.457,2.457,0,0,1-2.389-3.932L640.725,519l7.116-14.675.042.036c1.028.94,2.592,2.353,2.706,2.426,2.2.488,3.886.213,5.018-.81,1.974-1.787,1.574-5.3,1.574-5.33v-.026l.021-.015a1.753,1.753,0,0,1,1.538-.213,3.434,3.434,0,0,1,1.642,1.933c1,.14,3.611,3.132,3.824,3.371a4.373,4.373,0,0,1,3.07,1.673,3.411,3.411,0,0,1,.272,2.779,6.2,6.2,0,0,1-2.338,3.4Z" transform="translate(1003.063 -58.835)" fill="#090814"/><path d="M657.8,499.549a1.873,1.873,0,0,1,.645.115,3.59,3.59,0,0,1,1.776,1.966,7.312,7.312,0,0,1,2.094,1.593c.51.5,1.067,1.088,1.656,1.752a4.6,4.6,0,0,1,3.18,1.8,3.733,3.733,0,0,1,.313,3.049,6.455,6.455,0,0,1-1.752,2.981h.11l-18.677,13.771a13.133,13.133,0,0,1-5.326,2.319l-4.462.847a2.753,2.753,0,0,1-.517.049,2.8,2.8,0,0,1-2.2-4.525l5.385-6.86,7.3-15.043.383.334c1.068.976,2.346,2.13,2.626,2.361a8.677,8.677,0,0,0,1.807.21,4.086,4.086,0,0,0,2.834-.957,4.873,4.873,0,0,0,1.4-3,9.073,9.073,0,0,0,.063-2.028c0-.015,0-.03,0-.045v-.2l.171-.129.016-.01a2.32,2.32,0,0,1,1.183-.354Zm5.983,13.915h-.007l.82-.6a5.848,5.848,0,0,0,2.21-3.209,3.088,3.088,0,0,0-.227-2.511,4.046,4.046,0,0,0-2.844-1.521l-.116-.021-.078-.087-.039-.045c-2.023-2.287-3.191-3.162-3.577-3.218l-.2-.028-.071-.189c-.054-.143-.55-1.409-1.439-1.732a1.2,1.2,0,0,0-.412-.073,1.542,1.542,0,0,0-.677.173c.06.915.091,3.8-1.7,5.418a4.74,4.74,0,0,1-3.291,1.133,9.429,9.429,0,0,1-2.03-.243l-.059-.013-.05-.032c-.155-.1-1.779-1.574-2.458-2.192l-6.935,14.3-5.43,6.917a2.116,2.116,0,0,0,1.669,3.426,2.079,2.079,0,0,0,.389-.037l4.462-.847a12.447,12.447,0,0,0,5.046-2.2Z" transform="translate(1003.479 -58.421)" fill="#06060f"/><rect width="10.441" height="10.441" transform="translate(1575.383 462.133)" fill="#ffb9b9"/><path d="M500.5,562.054H478.308A12.813,12.813,0,0,1,472.8,560.8l-4.094-1.969a2.457,2.457,0,0,1,.41-4.582l8.442-2.338,14.436-7.589.01.057c.272,1.366.691,3.434.743,3.558,1.48,1.7,3,2.478,4.519,2.322,2.649-.272,4.41-3.33,4.431-3.361l.015-.026h.026a1.774,1.774,0,0,1,1.366.748,3.458,3.458,0,0,1,.177,2.525c.722.707,1.049,4.665,1.075,4.982a4.386,4.386,0,0,1,1.48,3.169,3.416,3.416,0,0,1-1.434,2.4,6.213,6.213,0,0,1-3.9,1.351Z" transform="translate(1083.542 -79.983)" fill="#090814"/><path d="M500.3,561.772H477.9a13.15,13.15,0,0,1-5.659-1.291l-4.094-1.969a2.8,2.8,0,0,1,.466-5.215l8.407-2.328,14.814-7.788.091.51c.288,1.456.627,3.11.714,3.454a5.322,5.322,0,0,0,3.834,2.169,3.388,3.388,0,0,0,.344-.018,4.9,4.9,0,0,0,2.928-1.6,8.94,8.94,0,0,0,1.241-1.586l.006-.01h0l.115-.191h.256a2.1,2.1,0,0,1,1.613.9,3.563,3.563,0,0,1,.265,2.629A7.688,7.688,0,0,1,504,552.1c.148.944.236,1.858.27,2.252a4.619,4.619,0,0,1,1.491,3.336,3.733,3.733,0,0,1-1.559,2.643,6.542,6.542,0,0,1-3.9,1.423Zm-8.964-17.562L477.271,551.6l-8.476,2.347a2.117,2.117,0,0,0-.354,3.948l4.092,1.969a12.467,12.467,0,0,0,5.364,1.224H499.88l.005-.01h.209a5.873,5.873,0,0,0,3.683-1.275,3.089,3.089,0,0,0,1.308-2.158,4.072,4.072,0,0,0-1.389-2.913l-.082-.086-.009-.119c-.023-.282-.111-1.285-.272-2.32-.3-1.93-.613-2.361-.7-2.448l-.143-.14.053-.193a3.129,3.129,0,0,0-.132-2.247,1.372,1.372,0,0,0-.935-.571,9.816,9.816,0,0,1-1.244,1.559,5.546,5.546,0,0,1-3.342,1.8,4.085,4.085,0,0,1-.414.021c-1.5,0-2.975-.827-4.4-2.458l-.036-.042-.021-.051c-.072-.171-.492-2.263-.685-3.233Z" transform="translate(1083.952 -79.361)" fill="#06060f"/><path d="M562.964,225.93l-49.328.386-8.677,165.6h17.615l11.387-75.443,45.683,60.358,16.675-15.093-33.355-45.267Z" transform="translate(1065.451 73.011)" fill="#090814"/><path d="M561.089,182.53l10.249,23.558-50.109.12,8.691-22.118Z" transform="translate(1057.633 93.866)" fill="#ffb9b9"/><path d="M554.919,22.988a16.971,16.971,0,1,0-22.058,16.2l3.283,21.683,16.727-13.938a42.115,42.115,0,0,1-5.553-9.79,16.946,16.946,0,0,0,7.6-14.151Z" transform="translate(1057.756 178.681)" fill="#ffb9b9"/><path d="M555.68,70.93,535.692,83.709,526.466,100a22.806,22.806,0,0,0-2.545,15.558L528.16,137.5h44.2l-6.98-45.755a38.542,38.542,0,0,0-6.5-16.239l-3.2-4.567Z" transform="translate(1056.539 147.492)" fill="#090814"/><path d="M542.056,83.847l12.524-5.912a10.758,10.758,0,0,1,12.7,9.688l10.406,73.76h-42.5l-5.6-27.149-1.558-22.857Z" transform="translate(1054.366 144.213)" fill="#6c63ff"/><path d="M608.086,288.973l-2.976-16.181-9.449,1.735,2.976,16.181a10.082,10.082,0,0,0-1.527,7.642c.925,5.044,5.065,8.509,9.236,7.745s6.8-5.481,5.88-10.519a10.075,10.075,0,0,0-4.145-6.6Z" transform="translate(1021.866 50.492)" fill="#ffb9b9"/><path d="M562.56,150.469l16.108,78.077L595,225.175,583.858,146.76" transform="translate(1037.773 111.053)" fill="#6c63ff"/><path d="M557.31,42.761s-.795,6.015-8.135,6.209l-14.893.4s12.592-30.644,7.413-27.189-18.982-11.018-18.982-11.018l-4.074,7.64s-9.735-3.522,1.055-12.155c0,0,12.867-9.948,26.53-3.974s11.085,40.093,11.085,40.093Z" transform="translate(1060.816 181.208)" fill="#090814"/><path d="M533.36,49.312l.2-.483c.025-.062,2.565-6.252,4.865-12.669,1.349-3.762,2.353-6.867,2.983-9.223,1.04-3.886.806-4.822.657-5.044a.1.1,0,0,0-.1-.056.991.991,0,0,0-.493.214,3.736,3.736,0,0,1-2.112.589h0a11.509,11.509,0,0,1-5.383-1.85,42.411,42.411,0,0,1-5.627-4c-2.792-2.3-5.132-4.62-5.966-5.468l-3.994,7.492-.277-.1a8.529,8.529,0,0,1-1.894-1.037,6.637,6.637,0,0,1-1.417-1.36,4.554,4.554,0,0,1-.886-2.01c-.408-2.466,1.327-5.27,5.155-8.333l0,0a29.7,29.7,0,0,1,5.084-2.981A32.768,32.768,0,0,1,529.726.944a27,27,0,0,1,6.9-.931,23.132,23.132,0,0,1,9.325,1.939,12.244,12.244,0,0,1,4.525,3.535,21.61,21.61,0,0,1,3.148,5.432,51.084,51.084,0,0,1,3.194,13.594,102.748,102.748,0,0,1,.611,12.423c-.028,3.263-.189,5.426-.19,5.447l-.14,0,.136.018a7.715,7.715,0,0,1-3.943,5.412,10.079,10.079,0,0,1-4.519,1.091Zm8.608-28.154a.776.776,0,0,1,.66.357c.286.427.539,1.472-.565,5.6-.635,2.374-1.644,5.5-3,9.277-1.934,5.4-4.037,10.631-4.679,12.213l14.373-.386a9.423,9.423,0,0,0,4.2-1,6.889,6.889,0,0,0,2.338-2.011,7.084,7.084,0,0,0,1.269-2.9c.017-.236.161-2.32.187-5.389a103.7,103.7,0,0,0-.608-12.34,50.393,50.393,0,0,0-3.147-13.4,20.927,20.927,0,0,0-3.045-5.258,11.571,11.571,0,0,0-4.271-3.341A22.457,22.457,0,0,0,536.627.693,26.316,26.316,0,0,0,529.9,1.6a32.087,32.087,0,0,0-5.447,2A29.626,29.626,0,0,0,519.5,6.5a16.867,16.867,0,0,0-4.17,4.483,4.88,4.88,0,0,0-.737,3.207,3.882,3.882,0,0,0,.758,1.711,5.962,5.962,0,0,0,1.273,1.219,8.265,8.265,0,0,0,1.456.837l4.149-7.785.325.34a79.855,79.855,0,0,0,6.242,5.753c4.525,3.726,8.181,5.693,10.571,5.693h0a3.071,3.071,0,0,0,1.735-.476,1.618,1.618,0,0,1,.872-.329Z" transform="translate(1061.224 181.619)" fill="#06060f"/></g><g transform="translate(845.225 134.06) rotate(-9)"><path d="M633.062,499.244l-8.415,4.311a2.141,2.141,0,0,1-2.878-.928l-10.911-21.3a2.14,2.14,0,0,1,.928-2.878l8.415-4.311a2.14,2.14,0,0,1,2.878.928l10.911,21.3a2.14,2.14,0,0,1-.928,2.878Z" transform="translate(-472.256 85.745)" fill="#3f3d56"/><path d="M620.874,475.281l-.937.48a.355.355,0,0,0-.154.477.725.725,0,0,1-.314.975l-4.581,2.347a.725.725,0,0,1-.975-.314.355.355,0,0,0-.477-.154l-.826.423a1.624,1.624,0,0,0-.7,2.183l10.834,21.149a1.624,1.624,0,0,0,2.182.7l8.264-4.233a1.624,1.624,0,0,0,.7-2.183l-10.834-21.15A1.624,1.624,0,0,0,620.874,475.281Z" transform="translate(-472.721 85.241)" fill="#fff"/></g><g transform="translate(10)"><path d="M757.5,297.319h0a2.058,2.058,0,0,0-.386-2.234,2.914,2.914,0,0,0-.722-.544l-.1-.027a1.417,1.417,0,0,0-1.579.652l-.055.093a1.417,1.417,0,0,0-.087,1.263l.207.5-1.313,2.166a.428.428,0,0,0,.124.575l.289.2a.428.428,0,0,0,.6-.119l1.163-1.781a1.414,1.414,0,0,0,.371.1h0a1.417,1.417,0,0,0,1.491-.842Z" transform="translate(376.26 275.66)" fill="#fff"/><path d="M758.347,299.093a.333.333,0,0,1-.106-.458l.493-.79a.333.333,0,1,1,.564.352l-.493.79A.333.333,0,0,1,758.347,299.093Z" transform="translate(373.406 273.309)" fill="#2f2e41"/></g></g></svg>