<svg xmlns="http://www.w3.org/2000/svg" width="799.394" height="647.551" viewBox="0 0 799.394 647.551"><g transform="translate(-405.623 -152.818)"><g transform="translate(972.794 152.818)"><path d="M718.24,398.628s-36.14,28.4-18.07,34.849,29.686-23.233,29.686-23.233Z" transform="translate(-695.111 -117.812)" fill="#ed9da0"/><path d="M722.8,386.28l-7.744,12.907s12.907,0,15.488,19.361l10.326-12.907Z" transform="translate(-698.377 -115.79)" fill="#6c63ff"/><path d="M807.306,675.375,808.6,714.1l-15.489,9.035-6.453-3.872,1.29-43.884Z" transform="translate(-611.222 -110.603)" fill="#ed9da0"/><path d="M813.437,725.845l2.581,41.3-36.14,15.488,2.581-21.942s10.326-16.779,7.744-34.849Z" transform="translate(-708.993 -171.398)" fill="#ed9da0"/><path d="M866.157,353.868s20.651,54.21,24.523,87.768,10.326,122.617,10.326,122.617l12.907,114.873-36.14,5.163L862.285,568.125,827.436,453.252l-7.744,114.873-6.453,104.547-33.558,1.291L777.1,565.543,762.9,427.438l7.744-65.826Z" transform="translate(-706.212 -110.482)" fill="#090814"/><path d="M908.519,784.992s2.117-21.678,17.838-9.548l2.814-2.068,12.907,28.4s15.488,21.942-11.616,24.523-24.523-24.523-24.523-24.523l-2.581-11.616,1.291-7.607Z" transform="translate(-729.214 -178.917)" fill="#090814"/><path d="M838.467,135.466l14.2,32.268-38.721,55.5s-2.581-60.663-10.326-70.989S838.467,135.466,838.467,135.466Z" transform="translate(-712.726 -74.715)" fill="#ed9da0"/><path d="M804.843,756.714a20.505,20.505,0,0,1,10.326,18.07c0,12.907-1.291,14.2-1.291,14.2l-19.361,5.163s-12.907-1.291-20.651,6.453S727.4,813.505,727.4,803.18s32.268-27.1,32.268-27.1,9.583-16.183,16.408-14.545,9.406,4.219,9.406,5.51-3.872,10.326-3.872,10.326S803.552,772.2,804.843,756.714Z" transform="translate(-700.399 -176.454)" fill="#090814"/><circle cx="32.268" cy="32.268" r="32.268" transform="translate(69.595 20.093)" fill="#ed9da0"/><path d="M696.27,143.3l6.454-16.779,5.162,1.29,6.454-5.163,9.035-28.4,12.907,9.035,16.779,169.083-104.547,2.581,14.2-117.454,12.907-33.558,9.316-12.317,6.172,18.77Z" transform="translate(-588.599 -15.436)" fill="#6c63ff"/><path d="M859.367,279.3l3.95-116.755s7.667.591,10.248,4.463,45.175,11.616,45.175,11.616L911,298.657s32.268,95.512,20.651,100.675-32.268,3.872-32.268,3.872Z" transform="translate(-722.01 -79.149)" fill="#090814"/><path d="M777.894,269l13.692-78.688-30.471,20.606,7.744,56.791-6.454,38.721s-24.523,107.129-16.779,111,16.779,0,16.779,0l15.488-108.419Z" transform="translate(-703.136 -83.697)" fill="#090814"/><path d="M765.39,211.868l-9.035,2.581-3.872,51.628-6.454,45.175-30.977,55.5s15.488-10.326,21.942,19.361l34.115-59.395Z" transform="translate(-698.377 -87.227)" fill="#090814"/><path d="M891.109,386.28s-36.14,28.4-18.07,34.849S902.726,397.9,902.726,397.9Z" transform="translate(-723.421 -115.79)" fill="#ed9da0"/><path d="M798.325,335.638l-11.616,14.2-15.489-27.1,6.453-11.616Z" transform="translate(-608.694 -50.95)" fill="#6c63ff"/><path d="M913.988,186.161,924.314,181s7.744,10.326,9.035,19.361,7.744,20.651,7.744,27.1,18.07,67.117,18.07,67.117l-41.3,83.9s-9.035-30.977-28.4-33.558l32.268-45.175-18.07-32.268Z" transform="translate(-726.939 -82.172)" fill="#090814"/><path d="M835,84.435,841.082,82S828.36,67.992,810.658,69.21l4.979-5.481s-12.17-4.872-23.233,7.917c-5.816,6.723-12.545,14.625-16.739,23.527h-6.516l2.72,5.988-9.519,5.989,9.77-1.076a33.463,33.463,0,0,0-.265,9.933,12.852,12.852,0,0,0,4.706,8.408h0s7.546-15.62,7.546-18.056v6.09s6.085-5.481,6.085-9.135l3.319,4.263,1.659-6.7,20.467,6.7-3.319-5.481,12.723,1.827-4.979-6.7S834.444,105.141,835,111.84s4.763,13.047,4.763,13.047S851.039,93.57,835,84.435Z" transform="translate(-706.122 -62.818)" fill="#2f2e41"/></g><g transform="translate(405.623 406.017)"><rect width="73.28" height="155.354" rx="13.086" transform="translate(13.17 225.703)" fill="#3f3d56"/><rect width="73.28" height="155.354" rx="13.086" transform="translate(493.889 225.703)" fill="#3f3d56"/><path d="M622.238,342.952H156.791a33.447,33.447,0,0,1-32.923-27.476l-17.8-97.9a118.585,118.585,0,0,1,41.867-113.248l35.1-75.515A49.974,49.974,0,0,1,228.2,0H490.388A49.927,49.927,0,0,1,527.13,16.179l64.493,70.465a159.678,159.678,0,0,1,69.869,143.539l-5.879,81.708A33.584,33.584,0,0,1,622.238,342.952Z" transform="translate(-95.787 0)" fill="#dfdfdf"/><path d="M515.991,89.854H164.341a17.989,17.989,0,0,1-16.452-25.266l18.535-41.906a18.046,18.046,0,0,1,16.119-10.709l299.772.365a18.234,18.234,0,0,1,14.619,7.053l33.344,41.541a17.989,17.989,0,0,1-14.286,28.921Z" transform="translate(-68.976 7.609)" fill="#fff"/><circle cx="30.778" cy="30.778" r="30.778" transform="translate(468.974 146.561)" fill="#fff"/><circle cx="30.778" cy="30.778" r="30.778" transform="translate(64.467 146.561)" fill="#fff"/><path d="M516.646,191.311H181.022v-.733a31.546,31.546,0,0,1,31.511-31.511h272.6a31.546,31.546,0,0,1,31.51,31.511Z" transform="translate(-46.939 101.078)" fill="#3f3d56"/><path d="M156.118,85.414a8.486,8.486,0,0,1-5.164-1.746l-12.288-9.395a7.075,7.075,0,0,0-4.275-1.447H107.554a8.5,8.5,0,0,1-7.376-12.738l6.551-11.413a8.556,8.556,0,0,1,6.252-4.2L146.557,40a8.462,8.462,0,0,1,9.278,6.016L164.273,74.5a8.5,8.5,0,0,1-8.156,10.918Z" transform="translate(-99.036 25.37)" fill="#dfdfdf"/><path d="M403.47,81.83a8.5,8.5,0,0,1-8.156-10.918l8.438-28.479a8.45,8.45,0,0,1,9.278-6.014l33.576,4.476a8.556,8.556,0,0,1,6.251,4.2L459.409,56.5a8.5,8.5,0,0,1-7.376,12.738H425.2a7.075,7.075,0,0,0-4.275,1.447l-12.288,9.395a8.486,8.486,0,0,1-5.164,1.746Z" transform="translate(89.011 23.092)" fill="#dfdfdf"/></g></g></svg>