<svg xmlns="http://www.w3.org/2000/svg" width="800.035" height="758.396" viewBox="0 0 800.035 758.396"><g transform="translate(-548.495 -171)"><path d="M152.495,756.795H952.53C504.688,637.349,217.986,743.716,152.495,756.795Z" transform="translate(396 172.601)" fill="#f2f2f2"/><path d="M785.073,642.99a2.355,2.355,0,0,0,2.122-3.882l-.094-.655a6.326,6.326,0,0,1,11.676,1.109c2.1,6.787,4.986,13.888,2.451,20.857,14.415-23.776,13.654-55.3-1.549-78.515a19.3,19.3,0,0,1-8.4-13.87c2.3,1.058,5.479-.572,3.948-3.272-.677-1.042-1.362-2.077-2.039-3.118,10.071-8.7,19.283,7.593,7.946,19.577a75.492,75.492,0,0,1,7.054,14.073,31.744,31.744,0,0,1,3.418-14.467c2.259-4.164,6.024-7.475,9.4-10.927a6.516,6.516,0,0,1,11.21,4.557c-3.456.749-4.395,5.53-.642,6.59A32.5,32.5,0,0,1,811.09,604.7a75.791,75.791,0,0,1,.825,31.938c3.023-12.3,16.733-13.925,26.613-17.905a3.666,3.666,0,0,1,5.175,4.275,21.166,21.166,0,0,0-3.9,1.562,3.2,3.2,0,0,0,.871,5.966c-5.94,11.185-18.959,17.752-31.484,16.4a77.915,77.915,0,0,1-6.795,14.653l-18.6-1.944c-.045-.214-.083-.433-.121-.646a21.243,21.243,0,0,0,5.178.231c-3.99-5.868-7.225-8.987-3.787-16.238Z" transform="translate(400.704 233.756)" fill="#f2f2f2"/><circle cx="49.493" cy="49.493" r="49.493" transform="translate(1125.827 171)" fill="#f2f2f2"/><path d="M913.829,173.913c-2.854-9.583-10.936-15.848-20.7-17.22a2,2,0,0,0-.334,0,2.626,2.626,0,0,0-.408-.093c-16.571-2.15-35,3.077-47.4,14.458l-.136.125a25.1,25.1,0,0,1-23.774,5.758,22.039,22.039,0,0,0-6.971-.767A24.437,24.437,0,0,0,792.232,193.8a2.83,2.83,0,0,0,1.279,3.133,12.37,12.37,0,0,0,5.171,2.632c4.1.871,8.23,1.668,12.364,2.391q12.123,2.113,24.375,3.429,8.091.862,16.219,1.372c11.2.7,22.447.871,33.661.519,5.561-.185,10.9-.371,15.978-2.818a23.722,23.722,0,0,0,9.175-7.989,26.966,26.966,0,0,0,3.374-22.558Z" transform="translate(372.259 23.144)" fill="#f2f2f2"/><path d="M822.009,239.6a25.3,25.3,0,0,0-1.038-6.117c-2.873-9.583-10.955-15.848-20.723-17.22a1.787,1.787,0,0,0-.315,0,3.509,3.509,0,0,0-.427-.093,61.528,61.528,0,0,0-27.229,2.8,56.2,56.2,0,0,0-20.291,11.772,25.091,25.091,0,0,1-23.775,5.769,22.107,22.107,0,0,0-6.981-.767,24.437,24.437,0,0,0-21.873,17.628,2.883,2.883,0,0,0,1.279,3.133,12.48,12.48,0,0,0,5.172,2.632c4.115.871,8.23,1.668,12.382,2.391q12.122,2.113,24.356,3.429a361.755,361.755,0,0,0,49.9,1.891c5.542-.185,10.9-.371,15.978-2.817a23.669,23.669,0,0,0,9.157-7.989A26.441,26.441,0,0,0,822.009,239.6Z" transform="translate(362.261 29.559)" fill="#f2f2f2"/><circle cx="49.493" cy="49.493" r="49.493" transform="translate(1125.827 171)" fill="#6c63ff"/><path d="M913.829,173.913c-2.854-9.583-10.936-15.848-20.7-17.22a2,2,0,0,0-.334,0,2.626,2.626,0,0,0-.408-.093c-16.571-2.15-35,3.077-47.4,14.458l-.136.125a25.1,25.1,0,0,1-23.774,5.758,22.039,22.039,0,0,0-6.971-.767A24.437,24.437,0,0,0,792.232,193.8a2.83,2.83,0,0,0,1.279,3.133,12.37,12.37,0,0,0,5.171,2.632c4.1.871,8.23,1.668,12.364,2.391q12.123,2.113,24.375,3.429,8.091.862,16.219,1.372c11.2.7,22.447.871,33.661.519,5.561-.185,10.9-.371,15.978-2.818a23.722,23.722,0,0,0,9.175-7.989,26.966,26.966,0,0,0,3.374-22.558Z" transform="translate(372.259 23.144)" fill="#e6e6e6"/><path d="M822.009,239.6a25.3,25.3,0,0,0-1.038-6.117c-2.873-9.583-10.955-15.848-20.723-17.22a1.787,1.787,0,0,0-.315,0,3.509,3.509,0,0,0-.427-.093,61.528,61.528,0,0,0-27.229,2.8,56.2,56.2,0,0,0-20.291,11.772,25.091,25.091,0,0,1-23.775,5.769,22.107,22.107,0,0,0-6.981-.767,24.437,24.437,0,0,0-21.873,17.628,2.883,2.883,0,0,0,1.279,3.133,12.48,12.48,0,0,0,5.172,2.632c4.115.871,8.23,1.668,12.382,2.391q12.122,2.113,24.356,3.429a361.755,361.755,0,0,0,49.9,1.891c5.542-.185,10.9-.371,15.978-2.817a23.669,23.669,0,0,0,9.157-7.989A26.441,26.441,0,0,0,822.009,239.6Z" transform="translate(362.261 29.559)" fill="#e6e6e6"/><g transform="matrix(0.996, -0.087, 0.087, 0.996, 652.763, 290.953)"><path d="M299.658,0h-43.2a8.307,8.307,0,0,0-8.307,8.307v5.736a8.307,8.307,0,0,0,8.307,8.307h16.513L267,79.162a8.289,8.289,0,0,0-3.857,6l-5.485,42.849a8.305,8.305,0,0,0,3.389,7.8l-18.33,174.448L216.5,348.137H3.323a3.323,3.323,0,0,0,0,6.646H19.93a22.011,22.011,0,1,0,26.385,0H218.245a3.323,3.323,0,0,0,2.732-1.432l21.637-31.261v28.526a22.011,22.011,0,1,0,6.646.043V311.623l18.328-174.429a8.3,8.3,0,0,0,6.554-7.074l5.485-42.849a8.3,8.3,0,0,0-5.848-9l5.875-55.919h20a8.307,8.307,0,0,0,8.308-8.307V8.307A8.307,8.307,0,0,0,299.658,0Z" transform="translate(0 212.286)" fill="#3f3d56"/><path d="M30.542,19.316s-3.593,15.269,0,26.047l-16.17,2.245L0,40.423V30.988S6.737,16.616,4.94,0Z" transform="translate(136.588 46.261) rotate(9)" fill="#ffb9b9"/><path d="M0,44.543l19.672,9.786L43.033,11.1,22.792,0Z" transform="translate(18.541 484.182)" fill="#ffb7b7"/><path d="M.006,50.032h18.91L23.346,0H0Z" transform="translate(153.822 495.332)" fill="#ffb7b7"/><path d="M10.058,1.349s-8.686-6.655-8.686,9.6L0,64.667l15.315,50.746L24.23,98.955,20.572,63.3Z" transform="translate(83.096 135.914)" fill="#6c63ff"/><path d="M158.81,18.623s10.072,49.053-2.69,89.31l-7.051,154.781L123.217,260.7l-9.059-114.824L105.429,88.8,87.3,140.836,27.532,250.962,0,229.475s30.509-83.247,53.049-100.725L64.354,0Z" transform="translate(27.26 265.567)" fill="#090814"/><ellipse cx="29.478" cy="29.478" rx="29.478" ry="29.478" transform="translate(115.421 53.931) rotate(-61.337)" fill="#ffb7b7"/><path d="M29.363,48.454c3.534.46,6.2-3.156,7.435-6.5s2.178-7.233,5.25-9.039c4.2-2.466,9.568.5,14.368-.314,5.42-.919,8.945-6.664,9.223-12.154S63.73,9.677,61.586,4.614l-.748,6.292A12.477,12.477,0,0,0,55.385,0l.961,9.232A9.8,9.8,0,0,0,45.074,1.124l.152,5.5C38.964,5.881,32.649,5.135,26.37,5.7s-12.6,2.554-17.361,6.69C1.89,18.578-.71,28.763.162,38.154s4.749,18.213,8.79,26.734c1.016,2.144,2.422,4.563,4.78,4.836,2.114.245,4.056-1.525,4.714-3.555a12.873,12.873,0,0,0-.058-6.326c-.6-3.166-1.345-6.4-.787-9.572s2.842-6.306,6.039-6.694,6.469,3.266,4.932,6.1Z" transform="translate(123.977)" fill="#090814"/><path d="M98.4,37.032,0,30.683,7.406,0,97.339,20.1Z" transform="translate(89.497 260.276)" fill="#d6d6e3"/><path d="M52.116,8.569,58.288,0s6.9,2.344,25.373,11.54l1.306,8.028,32.068,197.239-58.289-2.514-15.873-.338-5.195-11.644-6.405,11.4-15.5-.33L0,204.235l15.544-47.546,5.029-43.431L12.8,72.342S3.021,34.769,40.687,14.505Z" transform="translate(75.097 73.833)" fill="#6c63ff"/><path d="M47.115,30.651a10.074,10.074,0,0,1-12.529-9.037L0,12.352,13.911,0,44.622,10.694a10.129,10.129,0,0,1,2.493,19.961Z" transform="translate(211.477 201.064)" fill="#ffb7b7"/><path d="M122.921,122.718a5.9,5.9,0,0,1-4.791.384L61.242,101.511a60.744,60.744,0,0,1-32.7-27.558L4.823,31.634A18.989,18.989,0,1,1,33.156,6.344L74.217,71.427l51.675,30.3a5.913,5.913,0,0,1,2.515,6.289l-2.57,10.889a5.9,5.9,0,0,1-1.793,3.026,5.84,5.84,0,0,1-1.123.8Z" transform="translate(120.183 103.767)" fill="#6c63ff"/><path d="M26.973,0l21.7,11.1s33.953,8.094,11.847,14.82-32.058,1.945-32.058,1.945S-.46,29.37.006,21.3,6.035,1.888,6.035,1.888,25.389,6.945,26.973,0Z" transform="translate(146.059 540.929)" fill="#090814"/><path d="M28.643,0,48.669,10.114s33.953,8.094,11.847,14.82S28.458,26.88,28.458,26.88-.46,28.383.006,20.315,6.035.9,6.035.9,27.058,6.945,28.643,0Z" transform="matrix(0.961, 0.276, -0.276, 0.961, 15.019, 522.795)" fill="#090814"/></g><path d="M822.009,239.6a25.3,25.3,0,0,0-1.038-6.117c-2.873-9.583-10.955-15.848-20.723-17.22a1.787,1.787,0,0,0-.315,0,3.509,3.509,0,0,0-.427-.093,61.528,61.528,0,0,0-27.229,2.8,56.2,56.2,0,0,0-20.291,11.772,25.091,25.091,0,0,1-23.775,5.769,22.107,22.107,0,0,0-6.981-.767,24.437,24.437,0,0,0-21.873,17.628,2.883,2.883,0,0,0,1.279,3.133,12.48,12.48,0,0,0,5.172,2.632c4.115.871,8.23,1.668,12.382,2.391q12.122,2.113,24.356,3.429a361.755,361.755,0,0,0,49.9,1.891c5.542-.185,10.9-.371,15.978-2.817a23.669,23.669,0,0,0,9.157-7.989A26.441,26.441,0,0,0,822.009,239.6Z" transform="translate(144.051 -31.362)" fill="#e6e6e6"/></g></svg>