<svg xmlns="http://www.w3.org/2000/svg" width="939.091" height="838.379" viewBox="0 0 939.091 838.379"><g transform="translate(-463.392 -159.801)"><path d="M739.662,831.97H93.282a48.207,48.207,0,0,1-48.151-48.153V219.368a48.207,48.207,0,0,1,48.151-48.151h646.38a48.207,48.207,0,0,1,48.153,48.151V783.817A48.207,48.207,0,0,1,739.662,831.97Z" transform="translate(532.287 90)" fill="#fff"/><rect width="355" height="355" rx="16" transform="translate(783 414)" fill="#6c63ff"/><path d="M739.662,833.487H93.282a49.725,49.725,0,0,1-49.669-49.67V219.368A49.725,49.725,0,0,1,93.282,169.7h646.38a49.725,49.725,0,0,1,49.67,49.669V783.817A49.726,49.726,0,0,1,739.662,833.487ZM93.282,172.734a46.687,46.687,0,0,0-46.634,46.634V783.817a46.688,46.688,0,0,0,46.634,46.636h646.38A46.689,46.689,0,0,0,786.3,783.817V219.368a46.688,46.688,0,0,0-46.636-46.634Z" transform="translate(532.287 90)" fill="#090814"/><g transform="translate(-69.114 15.028)"><path d="M41.66,616.113a18.512,18.512,0,0,1-18.122-15.045L.552,480.253A18.423,18.423,0,0,1,14.635,458.76l102.97-23.324a18.493,18.493,0,0,1,22.2,14.3L164.857,571.1a18.554,18.554,0,0,1-14.194,21.815L45.623,615.685a18.7,18.7,0,0,1-3.963.428Z" transform="translate(532.287 90)" fill="#f2f2f2"/><path d="M33.746,507.284a5.311,5.311,0,0,1-.969-10.532L116.023,481.2a5.31,5.31,0,0,1,1.95,10.44L34.727,507.192a5.28,5.28,0,0,1-.981.092Z" transform="translate(532.287 90)" fill="#6c63ff"/><path d="M41.334,539.146a5.311,5.311,0,0,1-1.225-10.478l78.363-18.659a5.311,5.311,0,1,1,2.46,10.333L42.568,539a5.357,5.357,0,0,1-1.234.145Z" transform="translate(532.287 90)" fill="#6c63ff"/><path d="M46.642,569.974a5.311,5.311,0,0,1-1.095-10.506l53.462-11.321a5.31,5.31,0,0,1,2.2,10.389L47.749,569.857a5.353,5.353,0,0,1-1.107.117Z" transform="translate(532.287 90)" fill="#6c63ff"/></g><path d="M816.494,244.423a18.516,18.516,0,0,1-2.857-.224L707.458,227.541a18.5,18.5,0,0,1-15.326-21.6L714.283,84.967A18.437,18.437,0,0,1,735.173,70l104.45,15.4a18.5,18.5,0,0,1,15.544,21.343L834.745,228.975a18.567,18.567,0,0,1-18.251,15.448Z" transform="translate(532.287 90)" fill="#f2f2f2"/><path d="M820.668,138.042a5.264,5.264,0,0,1-.979-.092l-83.252-15.529a5.31,5.31,0,0,1,1.947-10.44l83.252,15.529a5.311,5.311,0,0,1-.968,10.532Z" transform="translate(532.287 90)" fill="#6c63ff"/><path d="M812.815,165.834a5.221,5.221,0,0,1-.725-.049l-79.818-10.87a5.31,5.31,0,0,1,1.434-10.523l79.818,10.87a5.31,5.31,0,0,1-.71,10.572Z" transform="translate(532.287 90)" fill="#6c63ff"/><path d="M780.772,194.363a5.422,5.422,0,0,1-.855-.07l-53.946-8.73a5.31,5.31,0,0,1,1.7-10.484l53.946,8.73a5.311,5.311,0,0,1-.843,10.554Z" transform="translate(532.287 90)" fill="#6c63ff"/><g transform="translate(894.44 478.636)"><path d="M129.534,64.767a78.57,78.57,0,0,1-1.259,14.006,68.808,68.808,0,0,1-6.808,16.883c-5.76,10.231-11.936,14.051-17.012,24.069-.873.675-1.771,1.282-2.684,1.877-1.823,1.177-2.023,6.939-3.96,7.931-.013.013-.027.013-.04.027a7.324,7.324,0,0,0-1,3.332v.027c-.977,5.724-1.823,17.368-2.8,24.255-.131.833-.252,1.6-.383,2.273-.331,1.823-.673,2.988-1.057,3.132-4.72,1.823-6.728-.675-11.9,0-2.776.371-16.945,2.644-19.827,2.644-8.181,0-12.609-2.788-19.231-5.776-.463-.2-.925-.41-1.415-.621-.18-.067-.329-.146-.5-.211-1.9-.806-3.7-21.135-5.485-28.829a.049.049,0,0,1-.013-.04c-.371-1.6-.74-2.644-1.111-2.855l-.277-.158c-1.177-.675-2.326-1.415-3.451-2.182C22.511,113.21,9.36,102.419,2.867,84.779A74.339,74.339,0,0,1,0,64.767a64.767,64.767,0,1,1,129.533,0Z" transform="translate(1.02 34.824)" fill="#e6e6e6"/><path d="M129.273,81.32A68.814,68.814,0,0,1,122.465,98.2c-5.76,10.231-11.936,14.051-17.012,24.069-3.375,6.674-6.255,16.1-8.221,31.991-.119.938.131,2.009,0,2.934-.3,2.048.067,1.679-1.177,3.53-.569.317-.913-.131-1.1-1a27.6,27.6,0,0,1-.079-6.635,87.375,87.375,0,0,1,2.88-17.62v-.027c.317-1.15.661-2.261,1-3.33,6.12-18.637,17.408-27.083,22.523-36.838,26.87-51.13-22.786-108.2-77.48-88.35-2.934,1.071-2.776,1.692-2.934,1.771-4.111,1.784-7.454,2.565-11.446,5.274C5.186,30.457-3.512,63.091,7.419,89.976c5.92,14.553,18.32,22.761,26.343,39.3q.72,1.44,1.388,3.013a.049.049,0,0,0,.013.04,80.807,80.807,0,0,1,5.989,29.039c.013.18.027.344.027.515.475.04.938.067,1.388.106,7.02.608,11.565,1.732,13.919.515l2.59.265c.859,1.2,15.3-.265,17.606-.292h.594a160.94,160.94,0,0,0,17.3-.49c.292-.027.594-.067.886-.106a1.546,1.546,0,0,1,1.177,1.771c.18,1.665-2.578,6.489-3.515,7.033-2.709,1.586-46.857,2.392-51.073-.581a6.624,6.624,0,0,1-2.34-7.92c-.079-.371-1.7-1.427-1.771-1.771-.792-4.5.146-15.9-5.274-28.762a34.705,34.705,0,0,0-2.353-4.559c-6.808-11.34-19.958-22.127-26.449-39.78A65.991,65.991,0,0,1,.38,57.7C2.72,32.85,24.154,8.4,48.209,2.225,98.554-10.7,141.063,34.952,129.273,81.32Z" transform="translate(0.024 32.283)" fill="#010001"/><path d="M54.194,0c4.189,3.985,1.951,5.333,0,9.979-2.462-.554-44.609,2.14-50.481,0A5.981,5.981,0,0,1,1.953,0,235.338,235.338,0,0,0,54.194,0Z" transform="translate(39.586 204.338)" fill="#010001"/><path d="M57.535,1.174C59.184,4.84,56.028,7.09,54.6,9.979l-2.932.587L5.294,9.979C2.5,9.441.728,5.531.008,2.936A1.733,1.733,0,0,1,.891,1.174L4.706,0a417.088,417.088,0,0,0,46.08,1.174,6.707,6.707,0,0,1,6.75,0Z" transform="translate(38.592 214.904)" fill="#010001"/><path d="M23.628,67.859H22.412V47.98L0,.52,1.1,0,23.628,47.7Z" transform="translate(34.453 100.461)" fill="#0f0f10"/><path d="M.574.1C3.06-1.591,3.1,18.241,2.34,18.885-.562,21.326-.258.67.574.1Z" transform="translate(64.874 0)" fill="#f2f2f2"/><path d="M.1.06C2.056-1.2,6.559,17.577,6.267,18.549,4.608,24.079-.815.65.1.06Z" transform="translate(45.387 1.803)" fill="#f2f2f2"/><path d="M3.792.015C6.12-.6,2.2,17.658,1.739,18.506-2.662,26.512,2.529.348,3.792.015Z" transform="translate(81.612 1.848)" fill="#f2f2f2"/><path d="M1,71.08,0,48.99l.022-.085L11.918,0,13.1.288,1.224,49.109l.988,21.917Z" transform="translate(76.027 97.271)" fill="#0f0f10"/></g><g transform="translate(705.434 755.759)"><path d="M37.4,152.421A13.655,13.655,0,0,1,24.05,141.413L.25,18.656A13.6,13.6,0,0,1,13.306,2.477L128.316,0a13.51,13.51,0,0,1,13.651,11.062l22.557,119.046A13.6,13.6,0,0,1,151.9,146.218L38.136,152.4c-.246.013-.492.021-.735.021Z" transform="translate(532.287 90)" fill="#f2f2f2"/><path d="M457.954,54.761a6.267,6.267,0,0,0-8.493,2.226L428.8,97.916a89.73,89.73,0,0,0-20.9-22.669c-2.655-2.051-6.954-.4-8.493,2.226-1.875,3.206-.435,6.441,2.226,8.493a74.728,74.728,0,0,1,22.018,28.424c1.9,4.188,8.738,3.924,10.719,0l25.811-51.134a6.357,6.357,0,0,0-2.226-8.493h0Z" transform="translate(185.247 74.119)" fill="#6c63ff"/></g></g></svg>