<svg xmlns="http://www.w3.org/2000/svg" width="828.916" height="800.429" viewBox="0 0 828.916 800.429"><g transform="translate(-524.792 -130.071)"><path d="M598.513,484.662l30.4,52.646L659.3,589.954H537.723l30.395-52.646Z" transform="translate(272.85 45.495)" fill="#6c63ff"/><rect width="127.472" height="127.472" transform="translate(571.169 426.755)" fill="#f2f2f2"/><circle cx="81.785" cy="81.785" r="81.785" transform="translate(708.229 181.963)" fill="#6c63ff"/><rect width="351.959" height="1.128" transform="translate(1001.748 929.372)" fill="#e6e6e6"/><path d="M613.057,396.615A112.808,112.808,0,1,1,725.865,283.807,112.808,112.808,0,0,1,613.057,396.615Zm0-223.359A110.551,110.551,0,1,0,723.609,283.807,110.551,110.551,0,0,0,613.057,173.256Z" transform="translate(197.264 -40.929)" fill="#3f3d56"/><rect width="67.286" height="2.256" transform="translate(711.735 391.297) rotate(-64.336)" fill="#3f3d56"/><rect width="2.256" height="145.954" transform="translate(733.076 473.995) rotate(-61.578)" fill="#3f3d56"/><path d="M551.949,566.7H387.25V402h164.7Zm-162.443-2.256H549.693V404.256H389.506Z" transform="translate(182.791 -11.344)" fill="#3f3d56"/><path d="M769.1,636.75H598.741l85.18-147.536Zm-166.453-2.256H765.193L683.921,493.726Z" transform="translate(209.878 -0.174)" fill="#3f3d56"/><circle cx="28.202" cy="28.202" r="28.202" transform="translate(1165.664 360.258)" fill="#ed9da0"/><path d="M956.708,391.014s3.384,33.842,9.025,39.483-39.483-3.384-39.483-3.384,6.768-28.2,2.256-32.714S956.708,391.014,956.708,391.014Z" transform="translate(251.823 12.11)" fill="#ed9da0"/><path d="M971.775,441.5s13.537,38.355,16.921,62.044,3.384,33.842,3.384,33.842,14.665,45.123,10.153,66.556c0,0,16.921,50.763,2.256,50.763s-19.177-41.739-19.177-41.739L962.75,505.8Z" transform="translate(256.498 18.593)" fill="#ed9da0"/><path d="M991.863,463.4s-3.384-41.739-18.049-45.123c-7-1.616-18.373-4-28.347-6.056-17.375-3.577-35.3,4.666-43.194,20.55a28.793,28.793,0,0,0-2.912,9.2c-2.256,18.049-13.537,18.049-3.384,41.739s7.9,48.507,7.9,48.507l6.768,59.788S882.44,670.97,884.7,723.99L858.75,853.718s5.64,13.537,21.433,6.768c0,0,39.483-66.556,36.1-115.064l40.611-90.246s28.2,85.734,36.1,93.63L1013.3,870.64s19.177,5.64,28.2,0c0,0,3.384-117.32-15.793-136.5,0,0-19.177-81.221-14.665-102.655s5.64-54.148-28.2-83.478c0,0,4.512-12.409-10.153-19.177l11.281-36.1Z" transform="translate(243.178 14.737)" fill="#2f2e41"/><path d="M920.716,414.9q-.457-.066-.933-.109c-9.988-.9-18.588,7.074-19.034,17.093L898.967,472,892.2,516l-14.665,94.758s-28.2,33.842-9.025,36.1,22.562-37.226,22.562-37.226l24.818-74.453,10.153-68.813s11.842-11.842,6.913-39.218A14.837,14.837,0,0,0,920.716,414.9Z" transform="translate(243.572 15.163)" fill="#ed9da0"/><path d="M858.889,799.5l-7.9,40.611s-19.177,9.025-6.768,20.305,29.33-2.256,29.33-2.256l4.512-13.537-1.128,20.305h3.384l3.384-20.305s6.768-12.409,2.256-22.562V808.525Z" transform="translate(240.782 64.443)" fill="#2f2e41"/><path d="M995.005,803l-4.512,37.226s-19.177,9.025-6.769,20.305,29.33-2.256,29.33-2.256l4.512-13.537-1.128,20.305h3.384l3.384-20.305s6.768-12.409,2.256-22.562V808.64Z" transform="translate(258.649 64.892)" fill="#2f2e41"/><path d="M958.175,339.541h0a24.4,24.4,0,0,0-4.711.468,20.645,20.645,0,0,0-8.993-2.073h-.816c-15.738,0-28.5,14.241-28.5,31.808h5.273l.852-6.482,1.249,6.482h4.393a62.161,62.161,0,0,0-2.04,15.936v32.375h7.973l4.616-12-1.154,12h51.246l4.2-10.9-1.049,10.9h5.77v-25.42C996.483,363.312,979.332,339.541,958.175,339.541Z" transform="translate(250.402 5.329)" fill="#2f2e41"/><path d="M590.854,759.76a22.263,22.263,0,0,0,20.462,7.606c9.693-1.644,17-9.432,23.529-16.778L654.17,728.86l-14.4,1.05c-10.359.755-20.98,1.575-30.4,5.94s-17.546,13.1-18.109,23.476" transform="translate(289.372 -568.818)" fill="#e6e6e6"/><path d="M574.27,790.06c3.4-8.175,6.821-16.464,12.033-23.683,4.628-6.412,10.589-11.83,18-14.8A36.378,36.378,0,0,1,616.631,749c1.1-.036,1.1,1.674,0,1.71a34.579,34.579,0,0,0-20.146,7.319c-6.4,5.028-10.988,11.909-14.615,19.109-2.193,4.354-4.071,8.857-5.94,13.357a.886.886,0,0,1-1.047.6.86.86,0,0,1-.6-1.047Z" transform="translate(289.372 -568.818)" fill="#f2f2f2"/><path d="M500.154,729.45a31.406,31.406,0,0,1-30.327-5.342c-10.622-8.916-13.953-23.6-16.662-37.2L445.15,646.68l16.78,11.554c12.068,8.309,24.407,16.885,32.762,28.92s12,28.465,5.289,41.488" transform="translate(111.561 -347.357)" fill="#6c63ff"/><path d="M477.662,780.954c2.112-15.387,4.285-30.973,2.8-46.525-1.316-13.812-5.53-27.3-14.109-38.364a63.819,63.819,0,0,0-16.374-14.838c-1.637-1.033-3.144,1.561-1.514,2.59a60.672,60.672,0,0,1,24,28.956c5.225,13.289,6.064,27.776,5.164,41.893-.544,8.537-1.7,17.018-2.861,25.489A1.554,1.554,0,0,0,475.816,782a1.509,1.509,0,0,0,1.845-1.048Z" transform="translate(131.462 -347.357)" fill="#f2f2f2"/><path d="M535.385,756.264a23.119,23.119,0,0,1-20.144,10.4c-10.2-.484-18.7-7.6-26.351-14.358l-22.635-19.985,14.98-.717c10.773-.516,21.824-1,32.085,2.326s19.724,11.318,21.6,21.939" transform="translate(58.537 -347.357)" fill="#6c63ff"/><path d="M507.244,789.8c-10.168-17.991-21.961-37.986-43.035-44.377a48.02,48.02,0,0,0-18.1-1.869c-1.922.166-1.442,3.128.476,2.963a44.614,44.614,0,0,1,28.886,7.642c8.145,5.544,14.487,13.252,19.854,21.425,3.288,5.007,6.233,10.226,9.178,15.438C505.444,792.687,508.2,791.484,507.244,789.8Z" transform="translate(107.849 -347.357)" fill="#f2f2f2"/></g></svg>