<?xml version="1.0" encoding="UTF-8"?><svg id="uuid-02c6bed0-7626-4ca2-aec7-85b7a5008244" xmlns="http://www.w3.org/2000/svg" width="717.82802" height="594.45888" viewBox="0 0 717.82802 594.45888"><path d="m422.38999,276.58379l25.78711,22.94506-13.39685,15.05625-25.78711-22.94506c-5.11545.3778-10.77673-1.49602-15.37066-5.58364-8.03819-7.15228-9.756-18.34299-3.83688-24.9953,5.91914-6.65229,17.23364-6.247,25.27185.90531,4.59396,4.08764,7.11303,9.49281,7.33255,14.61739Z" fill="#ffb9b9" stroke-width="0"/><polyline points="532.94207 255.73791 486.35192 318.70925 434.83544 283.16854 414.60177 309.6465 491.93613 359.35623 571.99608 284.08099" fill="#6c63ff" stroke-width="0"/><rect x="387.05788" y="274" width="66.60128" height="61.84405" fill="#e6e6e6" stroke-width="0"/><rect x="280.99374" y="538.63707" width="24.6171" height="32.44584" fill="#ffb9b9" stroke-width="0"/><path d="m301.40915,593.47551h-52.32741c-4.47249,0-8.96708-1.02415-12.99795-2.96178l-9.64677-4.63713c-1.99459-.95877-3.28341-3.0083-3.28341-5.22133,0-2.59535,1.74695-4.89137,4.2483-5.58355l19.90176-5.50697,34.04701-17.89598.02546.12894c.63675,3.22473,1.62328,8.09648,1.74877,8.39198,3.49151,3.9998,7.07827,5.84296,10.66072,5.47978,6.24863-.6335,10.40265-7.84903,10.44391-7.92188l.03159-.05571.06375.00651c1.46323.15143,2.54557.74157,3.21707,1.75404,1.42542,2.14937.55587,5.45949.41276,5.95878,1.70713,1.67028,2.47321,10.99786,2.53246,11.75072,2.46832,2.61631,3.64132,5.13154,3.48586,7.47581-.13583,2.04953-1.27245,3.9529-3.37808,5.65745-2.53332,2.05087-5.79558,3.18032-9.18581,3.18032Z" fill="#090814" stroke-width="0"/><path d="m584.20193,197.69175c0-18.7126-15.16959-33.8822-33.8822-33.8822s-33.88232,15.16959-33.88232,33.8822c0,15.17605,9.9782,28.01997,23.7312,32.33344l6.55001,43.28781,33.39114-27.8259s-7.2135-9.18825-11.08198-19.54851c9.14318-6.06769,15.17415-16.45099,15.17415-28.24683Z" fill="#ffb9b9" stroke-width="0"/><path d="m583.73592,236.86894l-47.68819,2.28958-5.69411,12.81175s-55.22128,24.52974-58.36463,48.39993c0,0-14.24911,39.74068-45.55288,38.43524-31.30377-1.30544,61.21168,89.68223,61.21168,89.68223l95.37634-120.99984,3.55883-56.00437-2.84705-14.61453Z" fill="#6c63ff" stroke-width="0"/><path d="m343.27249,410.75l-19.33008-2.18994c4.91992,10.44971,3.19971,34.8501-.33008,59.19971-4.66016,32.07031-12.47998,91.06006-12.47998,91.06006l-32.74023-8.5v-160.27002c0-21.37988,61.81006-31.09961,108.05029-35.37988,27.62012-2.5498,49.68994-3.16992,49.68994-3.16992l64,77-156.85986-17.75Z" fill="#090814" stroke-width="0"/><rect x="365.31524" y="514.15056" width="24.6171" height="32.44584" transform="translate(-232.93872 304.3001) rotate(-34.23117)" fill="#ffb9b9" stroke-width="0"/><path d="m411.46243,543.35986c-1.18994-2.02002-3.56982-3.43994-7.08984-4.20996-.46973-.58984-6.3501-7.87012-8.7002-8.2998-.15967-.49023-1.2998-3.70996-3.68994-4.68994-.77002-.31006-1.57959-.36035-2.42969-.13037-.3999.1001-.81006.27002-1.22021.49023l-.06006.02979.01025.06006c.00977.09033.62988,8.39014-4.18018,12.43018-2.76025,2.31006-6.76025,2.81006-11.8999,1.46973-.27002-.17969-3.82031-3.6499-6.16016-5.95996l-.1001-.08984-.18994.3501-17.88965,33.6001-13.3501,15.75c-1.68018,1.96973-1.84033,4.85986-.38037,7,1.25,1.83008,3.47021,2.7998,5.66016,2.46973l10.58008-1.58984c4.41992-.66992,8.71973-2.3501,12.41016-4.85986l43.27002-29.43994c2.7998-1.91016,4.85986-4.68018,5.7998-7.80029.77979-2.58984.6499-4.7998-.39014-6.58008Z" fill="#090814" stroke-width="0"/><path d="m355.01272,437.75c19.67969,32.64014,39.57959,85.87012,39.57959,85.87012l-5.36963,1.91992-23.9502,8.56006-2.52979.90967s-12.33008-18.11963-27.39014-40.25c-15.73975-23.13965-34.45996-50.65967-45.22021-66.45996v-11.25c0-21.37988,61.81006-31.09961,108.05029-35.37988l-62.34033,32.83008c5.84033,3.4502,12.49023,12.16016,19.17041,23.25Z" fill="#090814" stroke-width="0"/><path d="m602.15696,318.44877l-.00003-.00004c-10.86215-13.23184-31.22352-12.87506-41.61544.7292l-81.86758,107.17445-130.48767-15.00603c-13.23912-1.52249-25.0937,8.25681-26.11579,21.54394v.00005c-.94926,12.34036,7.83551,23.30183,20.08634,25.06334l149.63958,21.51627c20.61021,2.96349,40.95287-6.89669,51.3949-24.91132l61.41449-105.95259c5.55265-9.57945,4.57664-21.59916-2.44879-30.15727Z" fill="#e6e6e6" stroke-width="0"/><rect x="358.81856" y="447.70529" width="18.50586" height="145.79471" fill="#e6e6e6" stroke-width="0"/><rect x="485.81856" y="447.70529" width="18.50586" height="145.79471" fill="#e6e6e6" stroke-width="0"/><path d="m592.07959,258.37262s-5.29848,12.98366-21.8363,9.11713c-22.36473-5.22885-33.54709-7.8433-33.5471-7.84328,0,0,46.12976-61.15096,32.52591-56.46599-13.60384,4.68495-35.99636-35.77921-35.99636-35.77921l-13.59148,14.69934s-19.70093-13.58951,9.48383-26.56685c0,0,34.61788-14.7067,61.67153,6.66787,27.05367,21.37457,1.28992,96.17099,1.28992,96.17099h.00004Z" fill="#090814" stroke-width="0"/><path d="m568.81155,236.32715c-8.26318,0-14.98535-6.72266-14.98535-14.98535s6.72217-14.98535,14.98535-14.98535v2c-7.16016,0-12.98535,5.8252-12.98535,12.98535s5.8252,12.98535,12.98535,12.98535c7.16064,0,12.98584-5.8252,12.98584-12.98535,0-5.20508-3.09229-9.89258-7.87744-11.94238l.78711-1.83789c5.52246,2.36523,9.09033,7.77441,9.09033,13.78027,0,8.2627-6.72266,14.98535-14.98584,14.98535Z" fill="#6c63ff" stroke-width="0"/><rect x="150.05788" y="120" width="66.60128" height="61.84405" fill="#6c63ff" stroke-width="0"/><rect x="293.05788" y="50" width="66.60128" height="61.84405" fill="#ff6363" stroke-width="0"/><path d="m421.1321,339.09145l31.46932,14.18213-8.28046,18.3739-31.46932-14.18213c-4.7683,1.89048-10.73087,1.79565-16.33708-.73086-9.80941-4.42076-14.7956-14.58544-11.13706-22.70358,3.65857-8.11813,14.57637-11.11543,24.38581-6.69466,5.60624,2.52653,9.62662,6.93086,11.36879,11.7552Z" fill="#ffb9b9" stroke-width="0"/><polyline points="520.38893 286.13492 494.76544 360.15835 434.97729 341.6525 423.58907 372.9701 512.25108 397.27456 566.13235 301.5" fill="#6c63ff" stroke-width="0"/><line y1="593.45888" x2="717.82802" y2="593.45888" fill="none" stroke="#090814" stroke-miterlimit="10" stroke-width="2"/><path d="m201.08753,141.5h-35.45801c-.55225,0-1-.44727-1-1s.44775-1,1-1h35.45801c.55225,0,1,.44727,1,1s-.44775,1-1,1Z" fill="#090814" stroke-width="0"/><path d="m201.08753,150.5h-35.45801c-.55225,0-1-.44727-1-1s.44775-1,1-1h35.45801c.55225,0,1,.44727,1,1s-.44775,1-1,1Z" fill="#090814" stroke-width="0"/><path d="m344.08753,74.5h-35.45801c-.55225,0-1-.44727-1-1s.44775-1,1-1h35.45801c.55225,0,1,.44727,1,1s-.44775,1-1,1Z" fill="#090814" stroke-width="0"/><path d="m344.08753,83.5h-35.45801c-.55225,0-1-.44727-1-1s.44775-1,1-1h35.45801c.55225,0,1,.44727,1,1s-.44775,1-1,1Z" fill="#090814" stroke-width="0"/><path d="m344.08753,65.5h-35.45801c-.55225,0-1-.44727-1-1s.44775-1,1-1h35.45801c.55225,0,1,.44727,1,1s-.44775,1-1,1Z" fill="#090814" stroke-width="0"/><rect x="165.05788" width="66.60128" height="61.84405" fill="#e6e6e6" stroke-width="0"/><path d="m216.08753,28.5h-35.45801c-.55225,0-1-.44727-1-1s.44775-1,1-1h35.45801c.55225,0,1,.44727,1,1s-.44775,1-1,1Z" fill="#fff" stroke-width="0"/><path d="m216.08753,37.5h-35.45801c-.55225,0-1-.44727-1-1s.44775-1,1-1h35.45801c.55225,0,1,.44727,1,1s-.44775,1-1,1Z" fill="#fff" stroke-width="0"/><path d="m216.08753,19.5h-35.45801c-.55225,0-1-.44727-1-1s.44775-1,1-1h35.45801c.55225,0,1,.44727,1,1s-.44775,1-1,1Z" fill="#fff" stroke-width="0"/><path d="m182.24997,14.06604c10.70663,10.70663,21.41325,21.41325,32.11988,32.11988,1.47342,1.47342,3.76065-.81255,2.2866-2.2866-10.70663-10.70663-21.41325-21.41325-32.11988-32.11988-1.47342-1.47342-3.76065.81255-2.2866,2.2866h0Z" fill="#090814" stroke-width="0"/><path d="m211.96571,11.77944c-10.70663,10.70663-21.41325,21.41325-32.11988,32.11988-1.47342,1.47342.81255,3.76065,2.2866,2.2866,10.70663-10.70663,21.41325-21.41325,32.11988-32.11988,1.47342-1.47342-.81255-3.76065-2.2866-2.2866h0Z" fill="#090814" stroke-width="0"/></svg>