<?xml version="1.0" encoding="UTF-8"?><svg id="uuid-10b53993-0b38-42c2-bab4-f5f9e5ebf993" xmlns="http://www.w3.org/2000/svg" width="798.27018" height="813" xmlns:xlink="http://www.w3.org/1999/xlink" viewBox="0 0 798.27018 813"><defs><clipPath id="uuid-03e253d9-5b20-48ec-ae74-72063f0e3605"><polygon points="380.65424 385.56757 366.25462 440.48896 347.59268 559.1885 316.58354 555.38134 316.58354 355.05302 380.65424 385.56757" fill="#e09093" stroke-width="0"/></clipPath></defs><circle cx="399.13509" cy="413.86491" r="399.13509" fill="#ebebeb" stroke-width="0"/><polygon points="380.65424 385.56757 366.25462 440.48896 347.59268 559.1885 316.58354 555.38134 316.58354 355.05302 380.65424 385.56757" fill="#e09093"/><g clip-path="url(#uuid-03e253d9-5b20-48ec-ae74-72063f0e3605)"><g opacity=".17"><path d="m312.54559,336.07466c21.12857,18.41227,30.48475,47.01781,34.11575,74.80709,7.84718,60.05712-6.65988,121.74504,4.29057,181.31452-47.80939-77.69775-62.09398-175.27029-38.56344-263.41218" fill="#090814" stroke-width="0"/></g></g><polygon points="319.55316 385.56757 330.12174 401.52102 338.23375 465.39641 321.88824 582.15005 327.76985 624.18136 290.58955 626.02279 275.98586 440.87814 275.98586 401.52102 319.55316 385.56757" fill="#e09093" stroke-width="0"/><polygon points="319.55316 385.56757 330.12174 401.52102 338.23375 465.39641 321.88824 582.15005 327.76985 624.18136 290.58955 626.02279 275.98586 440.87814 275.98586 401.52102 319.55316 385.56757" fill="#090814" opacity=".06" stroke-width="0"/><polygon points="586.89627 761.75217 586.89627 809.70619 253.32512 809.70619 253.32512 687.22452 256.22006 686.93606 284.38075 684.12764 334.21974 679.16499 338.25914 678.761 535.99935 659.04469 586.89627 761.75217" fill="#090814" stroke-width="0"/><polygon points="586.89627 766.43611 586.89627 809.70619 302.39471 809.70619 334.54671 804.82031 388.83871 796.55873 413.00803 792.88482 455.97034 786.35435 469.83907 784.2385 505.95362 778.74671 586.89627 766.43611" fill="#ff6363" stroke-width="0"/><path d="m388.83871,796.55873c.34622,5.13583.54822,9.86778.67325,13.14746h-54.05156l-.91369-4.88587-10.81993-57.86008,10.49296-67.79525.32697-2.12559s1.37533.67331,3.71242,1.72161c6.89594,3.09688,22.24577,9.4638,35.56634,11.43547,17.83122,2.64487,13.19547,51.79136,13.19547,51.79136,9.23304,8.88676-4.45301,24.44827-4.45301,24.44827,3.56819.58667,5.37633,16.74435,6.27077,30.12263Z" fill="#e09093" stroke-width="0"/><polygon points="509.53139 809.70619 463.27984 809.70619 455.97034 786.35435 442.07273 741.98784 433.21486 678.98219 464.23198 678.98219 500.53885 731.78346 505.95362 778.74671 509.53139 809.70619" fill="#e09093" stroke-width="0"/><path d="m411.73811,286.42829l3.29964,55.45722-32.46524,53.22898s-40.06719,9.57797-48.9126-21.32208l-3.53817,27.72861s-68.10971,12.7114-84.03147,7.11579c-15.92175-5.59561,7.23849-131.04619,7.23849-131.04619l158.40934,8.83766Z" fill="#090814" stroke-width="0"/><polygon points="217.42726 270.47483 231.20328 415.52481 301.89264 554.67136 308.89274 568.45051 334.54445 524.85992 284.12557 391.54216 274.72417 286.42829 217.42726 270.47483" fill="#e09093" stroke-width="0"/><path d="m472.39322,270.47483v87.36412s18.67481,92.39553,10.73078,114.02569c-7.94403,21.63015-53.6539-10.70811-53.6539-10.70811l-12.13045-89.60135-2.30191-101.08035h57.35547Z" fill="#e09093" stroke-width="0"/><path d="m293.32395,117.94225s-103.29833,16.11778-86.15351,168.48604h67.55373l5.86324,21.32208s73.00948,39.8579,131.15071-21.32208v-8.83766s60.79485,16.88173,66.98665-7.11579-3.53817-125.67914-44.22709-123.93039c-40.68892,1.74874-141.17372-28.60219-141.17372-28.60219Z" fill="#6c63ff"/><path d="m568.75728,574.43758c-22.41889-36.12407-58.14871-57.74467-103.32308-62.52464-10.54103-1.11569-20.42801-1.1927-29.0455-.75021-15.34026.76935-26.67953,3.14501-30.62282,4.06827-3.75087.24044-14.79205,1.03867-29.42055,3.05848-9.48305,1.29837-20.46652,3.1065-31.9597,5.59746-46.23229,10.0217-76.9417,25.8813-91.27206,47.13642-10.04089,14.8882-12.01251,32.44053-5.69367,50.76232,14.81124,42.98162,57.69665,58.22555,99.06244,62.30346,9.01179.8945,17.94663,1.25035,26.50641,1.25035,31.23831,0,57.44658-4.77998,63.7558-6.03032,2.15436-.0769,6.87669-.28846,13.33976-.80786,10.8103-.84636,26.49679-2.51984,43.14505-5.75137,42.86615-8.3386,70.14197-22.8517,81.07737-43.12579,11.02186-20.45689,3.06799-41.29852-5.54944-55.18656Zm-19.00461,41.94295c-3.78938,7.04974-16.831,20.17794-61.49566,28.92041-7.07862,1.38501-14.03227,2.46219-20.45689,3.29893-18.6487,2.44294-32.87334,2.86606-33.05607,2.87569l-1.25992.02888-1.23104.2597c-.35585.0769-35.93182,7.37671-73.91216,5.26086-11.79133-.65406-22.40926-2.09671-31.85386-4.29909-28.10293-6.56897-45.78029-19.96638-52.69543-40.02903-3.50086-10.13699-2.72183-18.41783,2.43325-26.06398,8.72327-12.9454,30.20927-24.2751,61.13981-32.40202,4.02982-1.05792,8.22313-2.0582,12.57036-3.01035,30.53624-6.6555,58.12946-8.18468,58.63923-8.21356l1.43303-.08653,1.3657-.35585c.23082-.05776,23.6211-5.99182,51.9741-2.81804,27.11234,3.0296,49.28121,13.02242,66.19873,29.8054,5.78988,5.73212,10.97384,12.27209,15.51338,19.60079,10.36792,16.69645,6.09766,24.62144,4.69345,27.2278Z" fill="#090814" stroke-width="0"/><path d="m257.7111,631.78361s-8.01464,171.89076,11.98129,170.45853,23.63155-26.85139,23.63155-26.85139l-12.64141-128.99943-22.97143-14.60771Z" fill="#090814" stroke-width="0"/><path d="m574.17588,618.15002l-4.54453,129.97355s-25.44937,11.81578-29.08499,0,6.46777-109.42084,6.46777-109.42084l27.16174-20.55271Z" fill="#090814" stroke-width="0"/><path d="m513.27918,573.61363v108.1598s19.08596,15.45277,20.90484-3.63562c1.81887-19.0884,5.57304-104.52418,5.57304-104.52418h-26.47788Z" fill="#090814" stroke-width="0"/><path d="m369.67204,593.60956l-33.62952-39.99186s39.08295-59.07888,106.34199-39.99186c67.25904,19.08702,89.07278,59.98779,89.07278,59.98779l-24.54046,29.08499-20.90484-10.90687-9.99797,6.31865s0,53.66914-22.72265,77.3007c-22.72265,23.63155,9.08906,77.76195-19.54148,77.96393-28.63054.20198-46.73249-11.38854-46.73249-11.38854,0,0-44.76846-70.73127-60.59356-75.0544s43.24819-73.32252,43.24819-73.32252Z" fill="#6c63ff"/><path d="m387.59383,507.02835v33.0294s12.03888,52.94418,44.32496,49.05837c32.28608-3.88581,48.70273-51.75317,48.70273-51.75317l4.925-30.33459v-17.97188h-89.19713l-8.75555,17.97188Z" fill="#090814" opacity=".17" stroke-width="0"/><polygon points="474.09976 809.70619 411.98856 809.70619 413.00803 792.88482 420.11554 675.82767 451.70007 675.82767 452.22904 678.98219 469.83907 784.2385 474.09976 809.70619" fill="#090814" stroke-width="0"/><path d="m489.11314,509.82869s26.05011,56.74675,15.86243,56.74675-23.80059-41.71552-23.80059-41.71552l7.93816-15.03122Z" fill="#e09093" stroke-width="0"/><path d="m372.68732,685.30842c-11.69905,0-24.0518-.66732-36.2862-2.43026-32.60254-4.69756-74.50534-19.10957-88.98169-61.09079l26.36794-9.09221c7.94119,23.02944,30.34558,37.35411,66.59139,42.57669,31.80326,4.58344,65.10177.83779,82.11968-1.80238,7.50914-1.16464,15.15635-2.03015,22.72936-2.57255,54.80218-3.92175,95.90757-17.61525,104.72318-34.88628,1.31492-2.57584,5.31604-10.41559-4.89245-26.86244l23.69677-14.70881c8.44368,13.60286,16.34448,34.05694,6.03831,54.25085-8.96213,17.55937-30.01872,30.91428-62.5837,39.69467-24.95909,6.72911-51.43128,9.36177-64.99,10.332-6.81223.48793-13.69115,1.26655-20.44703,2.31426-12.1433,1.88363-31.93757,4.27678-54.08555,4.27725Z" fill="#090814" stroke-width="0"/><ellipse cx="474.79575" cy="517.86779" rx="8.40657" ry="13.41995" fill="#e09093" stroke-width="0"/><path d="m347.68321,553.6177l-43.45239,39.99186-10.90687,28.17608s-23.47413,35.45803-18.59978,38.85811,12.64988-9.2288,12.64988-9.2288c0,0-9.33824,16.71544-4.42821,18.07225s14.13883-16.12934,14.13883-16.12934c0,0-9.46434,22.34342-3.76072,22.34342s13.96097-19.91478,13.96097-19.91478c0,0-6.31444,21.85769-1.94291,19.91478s20.88624-27.68641,20.88624-27.68641c0,0-5.10764,7.23317-.85378,8.23099s9.11113,2.80356,9.11113,2.80356c0,0-2.91436-22.94275-3.88581-28.40322s12.62889-27.31816,12.62889-27.31816l30.60076-17.48615-26.14623-32.22419Z" fill="#e09093" stroke-width="0"/><path d="m347.68321,553.6177l-43.45239,39.99186-10.90687,28.17608s-23.47413,35.45803-18.59978,38.85811,12.64988-9.2288,12.64988-9.2288c0,0-9.33824,16.71544-4.42821,18.07225s14.13883-16.12934,14.13883-16.12934c0,0-9.46434,22.34342-3.76072,22.34342s13.96097-19.91478,13.96097-19.91478c0,0-6.31444,21.85769-1.94291,19.91478s20.88624-27.68641,20.88624-27.68641c0,0-5.10764,7.23317-.85378,8.23099s9.11113,2.80356,9.11113,2.80356c0,0-2.91436-22.94275-3.88581-28.40322s12.62889-27.31816,12.62889-27.31816l30.60076-17.48615-26.14623-32.22419Z" fill="#e09093" stroke-width="0"/><polygon points="553.90625 581.82812 552.30664 440.91504 552.30664 0 558.30664 0 558.30664 440.88086 559.90625 581.75977 553.90625 581.82812" fill="#090814" stroke-width="0"/><rect x="484.44401" y="483.08397" width="99.69792" height="6.00052" transform="translate(-131.71049 765.70227) rotate(-65.06986)" fill="#090814" stroke-width="0"/><rect x="257.60352" width="6" height="618.1499" fill="#090814" stroke-width="0"/><rect x="269.74132" y="477.38436" width="5.99979" height="78.16585" transform="translate(-146.90917 110.24101) rotate(-18.09314)" fill="#090814" stroke-width="0"/><path d="m516.76109,561.18928l2.84593,1.52679c17.17971,9.21659,30.49298,24.27813,37.53087,42.45933v.00003s23.47414,35.45803,18.59979,38.85811-12.64988-9.2288-12.64988-9.2288c0,0,9.33824,16.71544,4.42821,18.07225s-14.13883-16.12934-14.13883-16.12934c0,0,9.46434,22.34342,3.76072,22.34342s-13.96097-19.91478-13.96097-19.91478c0,0,6.31444,21.85769,1.94291,19.91478s-20.88624-27.68641-20.88624-27.68641c0,0,5.10764,7.23317.85378,8.23099s-9.11113,2.80356-9.11113,2.80356c0,0,2.91436-22.94275,3.88581-28.40322s-12.62889-27.31816-12.62889-27.31816l-18.12003.08647,27.64796-25.61502Z" fill="#e09093" stroke-width="0"/><polygon points="506.91684 602.69862 535.81368 568.45051 516.98254 555.40998 476.4579 584.92574 506.91684 602.69862" fill="#6c63ff" stroke-width="0"/><ellipse cx="395.79105" cy="517.86779" rx="8.40657" ry="13.41995" fill="#e09093" stroke-width="0"/><path d="m302.56697,529.71755l-16.00154,5.40308,66.38955,99.10539s8.50809-5.5583,4.02077-16.07599c0,0,17.44079,16.07599,18.84046,8.14454s-8.86456-24.26089-8.86456-24.26089c0,0,26.12712,11.66389,25.66056,3.73245s-18.78277-19.92422-18.78277-19.92422l-25.21055-46.7848-14.07444-14.19718-31.97748,4.85763Z" fill="#e09093" stroke-width="0"/><polygon points="316.58354 582.2406 332.32603 623.68343 338.11384 612.07136 316.58354 582.2406" fill="#090814" opacity=".06" stroke-width="0"/><path d="m436.47854,152.33721c0,34.79394-31.20606,82-66,82s-60-47.20606-60-82,28.20606-63,63-63,63,28.20606,63,63Z" fill="#090814" opacity=".17" stroke-width="0"/><circle cx="373.47854" cy="142.33721" r="63" fill="#e09093" stroke-width="0"/><circle cx="441.47854" cy="515.33721" r="51" fill="#e09093" stroke-width="0"/><path d="m377.34152,25.10288s-83.34686-12.46849-87.38539,91.95656c0,0-65.19353,16.15415-66.92434,52.50099l31.15443,24.80816s-15.57722,36.92377,10.96174,65.19353c0,0,4.03854-45.57778,14.42335-55.38566,0,0-12.69255,124.0408,53.65486,120.57919,0,0-17.88495-6.92321-3.4616-42.69311s-10.38481-107.32937-10.38481-107.32937c0,0-12.69255-105.55925,54.80872-67.48161,0,0,54.80872-20.19269,53.07792,23.07736-1.7308,43.27005-47.88552,113.07905-47.88552,113.07905,0,0-11.53868,38.07764,45.57778,60.00113l33.46217-13.84641s25.38509-31.73137,7.50014-60.00113c0,0,35.19297-49.61632-9.23094-82.50155,0,0-6.9634-129.68132-79.34851-121.95712Z" fill="#090814" stroke-width="0"/><path d="m416.57336,494.0396s40.31529,5.53588,50.51555-11.56099c0,0,5.82872,12.78575,12.14316,12.41623,0,0-.48573,29.69891,6.31444,29.96508,6.80017.26617,8.74308-32.2775,8.74308-32.2775,0,0,9.71453-44.42731-31.57222-53.78587,0,0-64.60161-39.4736-80.14486,40.18553l5.82872,30.84662s4.85726-4.61141,10.20025,0c5.34299,4.61141,20.88624-8.5032,17.97188-15.7891Z" fill="#090814" stroke-width="0"/></svg>