<svg xmlns="http://www.w3.org/2000/svg" width="800.604" height="793.049" viewBox="0 0 800.604 793.049"><g transform="translate(-560 -143.16)"><path d="M796.238,727.639H4.306c-2.566-.118-4.462-1.463-4.3-3.009-.166-1.53,1.73-2.875,4.3-2.993H796.238c2.261.167,4.045,1.244,4.323,2.605C800.923,725.908,799,727.419,796.238,727.639Z" transform="translate(560 192.57)" fill="#f2f2f2"/><path d="M590.754,645.112H297.738l-.073-.231-.073-.231c-.958-3.046-1.834-6.133-2.622-9.241s-1.489-6.235-2.1-9.361c-.826-4.244-1.488-8.533-1.983-12.835s-.821-8.619-.977-12.92a56.7,56.7,0,0,1,56.818-58.715H547.316a56.76,56.76,0,0,1,56.531,62.858h0a102.16,102.16,0,0,1-2.87,15.186,113.1,113.1,0,0,1-5.231,15.11q-1.071,2.508-2.278,5.027t-2.528,5l-.093.175Z" transform="translate(410.447 -58.735)" fill="#f2f2f2"/><path d="M565.871,555.03H355.507a17.475,17.475,0,0,1,0-34.951H565.871a17.475,17.475,0,0,1,0,34.951Z" transform="translate(394.048 -51.414)" fill="#6c63ff"/><path d="M573.99,515.54H359.863l-.145-.462a123.2,123.2,0,0,1-5.614-32.426,41.631,41.631,0,0,1,41.651-43.044H542.176a41.634,41.634,0,0,1,41.439,46.08,81.751,81.751,0,0,1-9.439,29.5Z" transform="translate(388.583 -24.009)" fill="#f2f2f2"/><path d="M554.477,455.03H399.507a17.475,17.475,0,0,1,0-34.951H554.477a17.475,17.475,0,1,1,0,34.951Z" transform="translate(379.064 -17.359)" fill="#6c63ff"/><path d="M565.5,373.923a34.664,34.664,0,0,0-25.778-11.514H418.65a34.534,34.534,0,0,0-34.549,35.7,102.025,102.025,0,0,0,4.643,26.846l.145.462h177.2l.185-.349a67.687,67.687,0,0,0,7.815-24.439A34.429,34.429,0,0,0,565.5,373.923Z" transform="translate(378.366 2.281)" fill="#f2f2f2"/><path d="M557.244,362.409H442.882a17.477,17.477,0,0,0,16.625,22.863h81.112a17.477,17.477,0,0,0,16.625-22.863Z" transform="translate(358.631 2.281)" fill="#6c63ff"/><path d="M597.021,677.512q-2.137,5.005-4.781,9.977H300.1a169.764,169.764,0,0,1-4.7-18.531,4.785,4.785,0,0,1,3.891-.91,6.5,6.5,0,0,1,3.416,2.546c2.46,3.192,3.489,7.234,4.458,11.151a20.542,20.542,0,0,1,3.917-6.456A7.493,7.493,0,0,1,316.649,673a9.091,9.091,0,0,1,3.04-3.225,5.266,5.266,0,0,1,5.81.073,6.486,6.486,0,0,1,2.051,3.732c.9,3.93.152,8.032-.6,12a20.456,20.456,0,0,1,6.252-4.24,8.362,8.362,0,0,1,3.37-.495,20.353,20.353,0,0,1,1.715-6.344,10.318,10.318,0,0,1,3.825-4.728,5.266,5.266,0,0,1,5.81.072,6.486,6.486,0,0,1,2.051,3.732c.9,3.93.152,8.032-.6,12a20.457,20.457,0,0,1,6.252-4.24,8.362,8.362,0,0,1,3.37-.495,20.352,20.352,0,0,1,1.715-6.344,10.319,10.319,0,0,1,3.825-4.728,5.266,5.266,0,0,1,5.81.073,6.486,6.486,0,0,1,2.051,3.732c.9,3.93.152,8.032-.6,12a20.456,20.456,0,0,1,6.252-4.24,8.362,8.362,0,0,1,3.37-.495,20.352,20.352,0,0,1,1.715-6.344,10.318,10.318,0,0,1,3.825-4.728,5.266,5.266,0,0,1,5.81.072,6.487,6.487,0,0,1,2.051,3.732c.9,3.93.152,8.032-.6,12a20.456,20.456,0,0,1,6.252-4.24,8.362,8.362,0,0,1,3.37-.495,20.353,20.353,0,0,1,1.715-6.344,10.318,10.318,0,0,1,3.825-4.728,5.266,5.266,0,0,1,5.81.072,6.486,6.486,0,0,1,2.051,3.732c.9,3.93.152,8.032-.6,12a20.456,20.456,0,0,1,6.252-4.24,8.362,8.362,0,0,1,3.37-.495,20.352,20.352,0,0,1,1.715-6.344,10.318,10.318,0,0,1,3.825-4.728,5.266,5.266,0,0,1,5.81.072,6.486,6.486,0,0,1,2.051,3.732c.9,3.93.152,8.032-.6,12a20.457,20.457,0,0,1,6.252-4.24,8.362,8.362,0,0,1,3.37-.495,20.352,20.352,0,0,1,1.714-6.344,10.318,10.318,0,0,1,3.825-4.728,5.266,5.266,0,0,1,5.81.072,6.486,6.486,0,0,1,2.051,3.732c.9,3.93.152,8.032-.6,12a20.457,20.457,0,0,1,6.252-4.24,8.362,8.362,0,0,1,3.37-.495,20.353,20.353,0,0,1,1.715-6.344,10.319,10.319,0,0,1,3.825-4.728,5.266,5.266,0,0,1,5.81.073,6.486,6.486,0,0,1,2.051,3.732c.9,3.93.152,8.032-.6,12a20.457,20.457,0,0,1,6.252-4.24,8.362,8.362,0,0,1,3.37-.495,20.353,20.353,0,0,1,1.715-6.344,10.319,10.319,0,0,1,3.825-4.728,5.266,5.266,0,0,1,5.81.073,6.487,6.487,0,0,1,2.051,3.732c.9,3.93.152,8.032-.6,12a20.456,20.456,0,0,1,6.252-4.24,8.362,8.362,0,0,1,3.37-.495,20.35,20.35,0,0,1,1.715-6.344,10.318,10.318,0,0,1,3.825-4.728,5.266,5.266,0,0,1,5.81.072,6.486,6.486,0,0,1,2.051,3.732c.9,3.93.152,8.032-.6,12a20.456,20.456,0,0,1,6.252-4.24,8.362,8.362,0,0,1,3.37-.495,20.352,20.352,0,0,1,1.715-6.344,10.318,10.318,0,0,1,3.825-4.728,5.266,5.266,0,0,1,5.81.072,6.486,6.486,0,0,1,2.051,3.732c.9,3.93.152,8.032-.6,12a20.456,20.456,0,0,1,6.252-4.24,8.362,8.362,0,0,1,3.37-.495,20.353,20.353,0,0,1,1.715-6.344,10.319,10.319,0,0,1,3.825-4.728,5.266,5.266,0,0,1,5.81.073,6.486,6.486,0,0,1,2.051,3.732c.9,3.93.152,8.032-.6,12a20.457,20.457,0,0,1,6.252-4.24,8.362,8.362,0,0,1,3.37-.495,20.353,20.353,0,0,1,1.715-6.344,10.319,10.319,0,0,1,3.825-4.728,5.266,5.266,0,0,1,5.81.073,6.486,6.486,0,0,1,2.051,3.732A17.486,17.486,0,0,1,597.021,677.512Z" transform="translate(408.566 -101.772)" fill="#6c63ff"/><path d="M390.113,393.343a15.109,15.109,0,0,1,14.338,1.55,14.241,14.241,0,0,1,5.845,13.348,14.441,14.441,0,0,1-3.433,8.006l.7-.29c-2.154-.026-3.333-2.547-3.006-4.45.443-2.578,3.387-3.912,5.727-4.105,3.185-.263,6.247,1.118,9.119,2.31a83.09,83.09,0,0,0,9.455,3.3A81.871,81.871,0,0,0,448.924,416a79.434,79.434,0,0,0,10.023-.392,32.783,32.783,0,0,0,9.015-1.857,11.507,11.507,0,0,0,6.609-6.021,7.94,7.94,0,0,0-.8-8.089.994.994,0,0,0-1.653.436,16.573,16.573,0,0,0,2.865,13.066,16.322,16.322,0,0,0,12.489,6.7c5.6.3,11.071-1.867,15.932-4.437,5.08-2.685,9.714-6.125,14.878-8.662,4.982-2.447,10.721-4.249,16.263-2.781,4.418,1.17,9.087,5.029,7.629,10.1a4.606,4.606,0,0,1-4.268,3.6c-1.811-.005-3.9-1.15-4.119-3.109-.262-2.348,1.986-4.191,3.986-4.883,2.865-.992,6.061-.249,8.992,0a19.637,19.637,0,0,0,13.486-3.814,20.758,20.758,0,0,0,7.734-11.047,18.93,18.93,0,0,0,.583-3.455c.1-1.269-1.877-1.263-1.978,0a18.1,18.1,0,0,1-6.653,12.251,18.425,18.425,0,0,1-6.3,3.439,19.027,19.027,0,0,1-7.714.568c-2.972-.3-6.167-.846-9.036.284a7.815,7.815,0,0,0-4.923,4.965c-1.173,4.636,4.132,7.994,8.2,6.352,4.562-1.842,5.266-8,2.836-11.767-2.92-4.53-8.749-6.293-13.9-5.955-12.232.8-21.107,10.6-32.144,14.684-5.209,1.926-11.224,2.67-16.2-.312a14.877,14.877,0,0,1-6.993-11.722,13.489,13.489,0,0,1,.267-3.543l-1.653.436a5.875,5.875,0,0,1,.524,5.587,8.764,8.764,0,0,1-4.287,4.659,21.009,21.009,0,0,1-6.856,2,71.534,71.534,0,0,1-7.969.7,79.746,79.746,0,0,1-31.463-5.229c-4.519-1.736-9.308-4.415-14.284-2.938-3.75,1.113-6.626,4.7-5.058,8.664a5.218,5.218,0,0,0,3.714,3.365,2.106,2.106,0,0,0,1.373-.055,4.124,4.124,0,0,0,1-1.136,15.054,15.054,0,0,0,1.693-2.81,17.491,17.491,0,0,0,.914-12.152c-2.756-9.355-13.783-13.938-22.557-10.067-1.162.513-.157,2.218,1,1.708Z" transform="translate(376.828 -7.203)" fill="#6c63ff"/><path d="M358.045,483.7a49.865,49.865,0,0,0,31.694,28.635,41.833,41.833,0,0,0,7.384,1.533c2.384.257,5,.107,6.973-1.4,2.842-2.178,2.781-8.4-1.72-8.358a4.789,4.789,0,0,0-4.364,4.178c-.323,2.471,1.213,4.78,3.054,6.273,4.039,3.276,9.58,3.681,14.5,2.655,5.655-1.178,10.61-4.374,15.568-7.175,5.677-3.208,12.424-6.429,19.1-4.71,5.064,1.3,9.682,6.619,8.031,12.046l1.453-.591c-2.2-1-2.733-3.752-1.87-5.859,1.081-2.638,4.24-3.624,6.861-3.622,3.455,0,6.647,1.606,9.714,3.019a53.911,53.911,0,0,0,8.764,3.23,53.136,53.136,0,0,0,35.58-3.156,44.633,44.633,0,0,0,7.768-4.508c1.923-1.419,4.145-3.9,2.595-6.392a3.432,3.432,0,0,0-2.752-1.687c-1.354-.007-1.948.933-2.37,2.081a11.776,11.776,0,0,0-.026,7.54,16.092,16.092,0,0,0,11.723,10.537c6,1.512,12.468.481,18.273-1.387a51.945,51.945,0,0,0,27.14-20.552c.81-1.219,1.558-2.476,2.257-3.762.608-1.119-1.1-2.119-1.708-1A49.912,49.912,0,0,1,557.8,513.037c-9.318,4.047-24.743,7.026-30.837-3.719a11.29,11.29,0,0,1-1.519-7.043c.11-.776.359-3.021,1.5-2.288,1.289.83.588,2.3-.232,3.172-1.847,1.974-4.641,3.361-7.021,4.589a48.81,48.81,0,0,1-7.958,3.242,50.663,50.663,0,0,1-33.888-1.318c-5.735-2.349-12.282-6.518-18.5-3.072a7.223,7.223,0,0,0-3.844,6.153,5.975,5.975,0,0,0,3.231,5.732,1.007,1.007,0,0,0,1.453-.591c1.237-4.067-.476-8.324-3.478-11.159-3.531-3.335-8.339-4.29-13.053-3.639-10.707,1.478-18.47,10.259-28.951,12.273-4.521.869-10.1.381-13.352-3.272-1.453-1.632-2.274-4.938.443-5.9,1.993-.705,2.617,1.658,2.172,3.113-1.373,4.493-8.961,2.367-12.11,1.553a46.851,46.851,0,0,1-12.313-5.174,47.505,47.505,0,0,1-19.584-22.518c-.475-1.163-2.389-.654-1.908.526Z" transform="translate(387.259 -38.621)" fill="#6c63ff"/><path d="M293.29,606.973c15.166-2.858,33.813-5.737,45.189,7.437a19.852,19.852,0,0,1,4.527,8.991c.3,1.5.678,3.165-.844,4.091a4.018,4.018,0,0,1-3.872.08c-3.323-1.843-1.472-6.747,1.029-8.354,3.406-2.188,7.787-1.254,11.282.17,3.792,1.545,7.379,3.52,11.216,4.976a83.112,83.112,0,0,0,11.129,3.349,86.366,86.366,0,0,0,23.906,2,78.435,78.435,0,0,0,22.8-4.485c2.807-1.047,5.728-2.56,7.437-5.118a6.5,6.5,0,0,0-.214-7.685,6.383,6.383,0,0,0-7.952-1.911,6.954,6.954,0,0,0-2.887,2.952c-.527,1.032-1.213,3.074-.541,4.162.341.552,1.177.772,1.723,1.04q1.374.673,2.77,1.3,2.441,1.1,4.941,2.059a94.864,94.864,0,0,0,11.172,3.516,99.825,99.825,0,0,0,45.507.563,94.726,94.726,0,0,0,11.016-3.152,59.844,59.844,0,0,0,10.14-4.315c2.471-1.438,5.367-3.908,5.134-7.07a4.453,4.453,0,0,0-4.674-4.088,6.406,6.406,0,0,0-5.717,3.555c-1.342,3.045,0,6.513,1.959,8.944,4.23,5.249,11.445,7.135,17.918,7.07,7.5-.075,14.613-2.444,21.57-5.02,7.792-2.886,15.926-6.089,24.391-5.577,7.628.461,14.816,4.974,22.562,4.037,6.724-.813,10.67-6.193,12.414-12.319a55.835,55.835,0,0,0,1.611-9.11c.141-1.263-1.838-1.253-1.978,0-.673,6.013-1.695,13.64-7.012,17.458-6.448,4.631-14.844.55-21.6-1.1-7.8-1.9-15.449-.6-22.965,1.858-7.4,2.425-14.531,5.741-22.243,7.125-6.7,1.2-14.113,1.069-19.955-2.834-2.871-1.918-6.294-5.688-4.973-9.465.755-2.158,4.685-3.923,6.281-1.659,2.351,3.334-3.559,6.493-5.829,7.538a90.261,90.261,0,0,1-10.7,4.107,96.81,96.81,0,0,1-72.109-5.82l.49.854c-.381-3.416,3.09-6.621,6.4-4.824,3.155,1.712,3.134,5.469.78,7.826-2.319,2.321-5.644,3.354-8.7,4.273a82.275,82.275,0,0,1-10.3,2.382,83.949,83.949,0,0,1-43.425-4.424c-6.195-2.374-12.61-7.2-19.555-6.3a9.121,9.121,0,0,0-6.889,4.178,7.206,7.206,0,0,0-.193,7.259c2.153,3.526,9.692,3.364,9.822-1.583.148-5.634-3.407-11.259-7.378-14.951-12.369-11.5-30.016-8.754-45.141-5.9-1.25.235-.72,2.143.526,1.908Z" transform="translate(409.707 -77.99)" fill="#6c63ff"/><path d="M576.286,302.913c4.811-.821,6.873-6.625,5.743-10.9a17.754,17.754,0,0,0-4.376-7.254c-2.224-2.426-4.69-4.641-7.06-6.922L561.9,269.47a1,1,0,0,0-1.653.436,31.876,31.876,0,0,0,5.482,23.241,33.642,33.642,0,0,0,4.1,4.684,17.71,17.71,0,0,1,3.964,4.684l2.661,1.951a9.427,9.427,0,0,0-.4-1.538A1.121,1.121,0,0,0,576.286,302.913Z" transform="translate(318.498 34.027)" fill="#fd6584"/><path d="M582.777,319.579H580.8c1.039,2.115.614,5.333.47,7.626-.161,2.563-.383,5.123-.577,7.684l-1.308,17.274c-.1,1.27,1.883,1.264,1.978,0l1.16-15.318q.3-3.911.592-7.822a54.706,54.706,0,0,0-.338-9.443Z" transform="translate(311.857 16.867)" fill="#3f3d56"/><path d="M583.413,315.8a9.124,9.124,0,0,0-.75-7.506.99.99,0,0,0-1.708,1,7.1,7.1,0,0,1,.551,5.982.989.989,0,1,0,1.908.526Z" transform="translate(311.361 20.865)" fill="#3f3d56"/><path d="M459.286,299.913c4.811-.821,6.873-6.625,5.743-10.9a17.754,17.754,0,0,0-4.376-7.254c-2.224-2.426-4.69-4.641-7.06-6.922L444.9,266.47a1,1,0,0,0-1.653.436,31.876,31.876,0,0,0,5.482,23.241,33.651,33.651,0,0,0,4.1,4.684,17.709,17.709,0,0,1,3.964,4.684l2.661,1.951a9.422,9.422,0,0,0-.4-1.538,1.127,1.127,0,0,0,.227-.016Z" transform="translate(358.342 35.049)" fill="#fd6584"/><path d="M465.777,316.579H463.8c1.039,2.115.614,5.333.47,7.626-.161,2.563-.383,5.123-.577,7.684l-1.308,17.274c-.1,1.27,1.883,1.264,1.978,0l1.16-15.318.592-7.822A54.705,54.705,0,0,0,465.777,316.579Z" transform="translate(351.701 17.888)" fill="#3f3d56"/><path d="M466.412,312.8a9.124,9.124,0,0,0-.75-7.506.99.99,0,0,0-1.708,1,7.1,7.1,0,0,1,.551,5.982.989.989,0,0,0,1.908.526Z" transform="translate(351.206 21.888)" fill="#3f3d56"/><path d="M514.286,294.913c4.811-.821,6.873-6.625,5.743-10.9a17.755,17.755,0,0,0-4.376-7.254c-2.224-2.426-4.69-4.641-7.06-6.922L499.9,261.47a1,1,0,0,0-1.653.436,31.876,31.876,0,0,0,5.482,23.241,33.642,33.642,0,0,0,4.1,4.684,17.708,17.708,0,0,1,3.964,4.684l2.661,1.951a9.435,9.435,0,0,0-.4-1.538,1.124,1.124,0,0,0,.226-.016Z" transform="translate(339.612 36.751)" fill="#fd6584"/><path d="M520.777,311.579H518.8c1.039,2.115.614,5.333.47,7.626-.161,2.563-.383,5.123-.577,7.684l-1.308,17.274c-.1,1.27,1.883,1.264,1.978,0l1.16-15.318q.3-3.911.592-7.822A54.7,54.7,0,0,0,520.777,311.579Z" transform="translate(332.971 19.591)" fill="#3f3d56"/><path d="M521.413,307.8a9.124,9.124,0,0,0-.75-7.506.99.99,0,0,0-1.708,1,7.1,7.1,0,0,1,.551,5.982.989.989,0,0,0,1.908.526Z" transform="translate(332.476 23.59)" fill="#3f3d56"/><path d="M555.725,489.193c-.488-1.863-2.352-3.436-4.246-3.092a4.259,4.259,0,0,0-3.065,3.161,12.531,12.531,0,0,0-.126,4.612c-1.7-1.787-3.466-3.622-5.74-4.575a3.954,3.954,0,0,0-2.581-.317,3.215,3.215,0,0,0-2.109,2.855,6.315,6.315,0,0,0,.98,3.585,12.727,12.727,0,0,0,9.024,6.191l-.613-.8a13.818,13.818,0,0,0,7.393-6.1A7.506,7.506,0,0,0,555.725,489.193Z" transform="translate(325.999 -39.826)" fill="#6c63ff"/><path d="M419.725,607.193c-.488-1.863-2.352-3.436-4.246-3.092a4.259,4.259,0,0,0-3.065,3.161,12.531,12.531,0,0,0-.126,4.612c-1.7-1.787-3.466-3.622-5.74-4.575a3.955,3.955,0,0,0-2.581-.317,3.215,3.215,0,0,0-2.109,2.855,6.315,6.315,0,0,0,.98,3.585,12.727,12.727,0,0,0,9.024,6.191l-.613-.8a13.817,13.817,0,0,0,7.393-6.1A7.505,7.505,0,0,0,419.725,607.193Z" transform="translate(372.313 -80.011)" fill="#6c63ff"/><path d="M443.725,431.193c-.488-1.863-2.352-3.436-4.246-3.092a4.258,4.258,0,0,0-3.065,3.161,12.531,12.531,0,0,0-.126,4.612c-1.7-1.787-3.466-3.622-5.74-4.575a3.954,3.954,0,0,0-2.581-.317,3.215,3.215,0,0,0-2.108,2.855,6.314,6.314,0,0,0,.98,3.585,12.726,12.726,0,0,0,9.024,6.191l-.613-.8a13.818,13.818,0,0,0,7.393-6.1A7.506,7.506,0,0,0,443.725,431.193Z" transform="translate(364.141 -20.075)" fill="#6c63ff"/><path d="M33.1.087C53.285-1.343,70.669,15.021,71.682,35,72.7,55.038,56.475,94.046,35.6,100.81c6.022,10.322-1.1,7.631-1.67,8.686-1.568,11.654-10.782,60.266-10.449,71.811-1.987-1.448-.488-1.384-.5-1.5-1.171-10.866,8.895-58.958,10.282-69.974-14.307.064-2.2-5.862-3.007-9.354C10.27,88.592-4.377,48.336,1.193,26.646,4.74,12.833,18.872,1.095,33.1.087Z" transform="matrix(0.97, -0.242, 0.242, 0.97, 722.53, 162.192)" fill="#e6e6e6"/><path d="M3.083,0H34.138L36,40.448,0,49.877Z" transform="translate(1254.143 820.92) rotate(-16)" fill="#ed9da0"/><path d="M48.287,9.873,22.319,47.637S-1.787,47.582.106,61.157l61.186,3.56L79.854,39.131,77.345,65.721H94.9l3.512-44.65S95.491,2.037,84.871,0Z" transform="translate(1217.891 873.034) rotate(-16)" fill="#090814"/><path d="M.3,0H31.358l1.867,40.448-36,9.43Z" transform="translate(1120.762 818.872)" fill="#ed9da0"/><path d="M180.007,211.537l-10,113.5,94.712,1.571L255.6,213.71Z" transform="translate(915.481 59.851)" fill="#090814"/><path d="M209.539,564.6l-25.968,37.764s-24.106-.055-22.213,13.52l61.186,3.56,21.946-34.094-5.892,35.1h17.559l3.512-44.65s-2.925-19.034-13.545-21.071Z" transform="translate(907.518 304.247)" fill="#090814"/><path d="M271.863,318.832s-41.168,19.774-82.276,10.034c0,0-26.3,73.063-17.9,199.874S196.32,690.273,196.32,690.273s2.247,13.764,43.435-8.222V566.162l4.013-129.936,96.088,260.246s27.752-.338,40.987-14.421L344.749,531.21s-36.95-148.02-37.769-149.166l-35.118-63.212Z" transform="translate(915.497 143.813)" fill="#090814"/><path d="M138.852,308.785l70.02,30-17.318,19.3L131.3,325.239a19,19,0,0,1-14.672-.759c-8.784-4.033-13.2-13.2-9.863-20.465s13.164-9.894,21.949-5.861A19,19,0,0,1,138.852,308.785Z" transform="translate(865.117 126.15)" fill="#ffb6b6"/><path d="M246.935,239.1a35.37,35.37,0,1,0-45.967,33.753l6.838,45.189,34.858-29.048a87.807,87.807,0,0,1-11.569-20.407A35.332,35.332,0,0,0,246.935,239.1Z" transform="translate(920.32 53.741)" fill="#ffb6b6"/><path d="M238.067,248.471S224.7,276.046,205.628,252.3l-30.563,5.1s-2.882,107.545,8.819,124.021c0,0,46.229,24.92,84.283-7.525l-6.657-118.83Z" transform="translate(919.191 88.752)" fill="#6c63ff"/><path d="M218.063,257.6l-11.328-4.118s-14.382,2.169-17.252,13.757-19.625,94.348-19.625,94.348l-27.985-7.512-7.591,24.063s43.74,27.3,53.681,13.669S213.63,315.6,213.63,315.6l4.432-58Z" transform="translate(887.522 92.671)" fill="#6c63ff"/><path d="M233.126,334.924l64.916-39.859,5.764,25.283L242.2,350.59a19,19,0,0,1-9.089,11.542c-8.364,4.845-18.395,3.162-22.4-3.76s-.48-16.461,7.883-21.306a19,19,0,0,1,14.534-2.143Z" transform="translate(946.035 125.214)" fill="#ffb6b6"/><path d="M222.253,249.582l24.881,1.462s74.885,92.454,55.2,104.519l-47.227,28.1L241.45,360.6l30.132-17.268L214.232,282l8.021-32.42Z" transform="translate(950.086 89.623)" fill="#6c63ff"/><path d="M200.631,217.324s15.383,34.533,36.189,39.479l.822,14.531-28.429,64.933,74.323-7.892s-11.1-165.965-79.256-128.6c-43.516,23.857-28.049,47.034-28.049,47.034l24.4-29.485Z" transform="translate(918.259 46.358)" fill="#090814"/><path d="M33.1.087C53.285-1.343,70.669,15.021,71.682,35,72.7,55.038,56.475,94.046,35.6,100.81c6.022,10.322-1.1,7.631-1.67,8.686-1.568,11.654-10.782,60.266-10.449,71.811-1.987-1.448-.488-1.384-.5-1.5-1.171-10.866,8.895-58.958,10.282-69.974-14.307.064-2.2-5.862-3.007-9.354C10.27,88.592-4.377,48.336,1.193,26.646,4.74,12.833,18.872,1.095,33.1.087Z" transform="translate(560 287.228) rotate(-31)" fill="#e6e6e6"/><path d="M33.1.087C53.285-1.343,70.669,15.021,71.682,35,72.7,55.038,56.475,94.046,35.6,100.81c6.022,10.322-1.1,7.631-1.67,8.686-1.568,11.654-10.782,60.266-10.449,71.811-1.987-1.448-.488-1.384-.5-1.5-1.171-10.866,8.895-58.958,10.282-69.974-14.307.064-2.2-5.862-3.007-9.354C10.27,88.592-4.377,48.336,1.193,26.646,4.74,12.833,18.872,1.095,33.1.087Z" transform="translate(944.213 143.16) rotate(11)" fill="#e6e6e6"/><g transform="translate(594.986 585.593)"><rect width="21.938" height="319.659" transform="translate(41.881 11.966)" fill="#f2f2f2"/><rect width="21.938" height="319.659" transform="translate(117.229 11.966)" fill="#f2f2f2"/><rect width="21.938" height="319.659" transform="translate(344.69 11.966)" fill="#f2f2f2"/><rect width="21.938" height="316.781" transform="translate(421.506 14.834)" fill="#f2f2f2"/><rect width="385.608" height="15.955" transform="translate(41.881 21.938)" fill="#f2f2f2"/><rect width="473.359" height="21.938" transform="translate(0 0)" fill="#f2f2f2"/></g></g></svg>