<svg xmlns="http://www.w3.org/2000/svg" width="656.131" height="799.931" viewBox="0 0 656.131 799.931"><g transform="translate(-232 -92)"><path d="M632.432,712.957H.786c-.434,0-.786-.5-.786-1.122s.352-1.122.786-1.122H632.432c.434,0,.786.5.786,1.122S632.866,712.957,632.432,712.957Z" transform="translate(232 178.973)" fill="#cbcbcb"/><path d="M484.219,189.932h-4.392V69.629A69.628,69.628,0,0,0,410.2,0H155.319A69.629,69.629,0,0,0,85.691,69.628v660a69.629,69.629,0,0,0,69.628,69.629H410.2a69.629,69.629,0,0,0,69.629-69.629h0V275.566h4.392Z" transform="translate(208.828 92)" fill="#3f3d56"/><path d="M462.914,68.142V727.167a51.953,51.953,0,0,1-51.907,52h-256.2a51.963,51.963,0,0,1-52-51.926V68.142a51.963,51.963,0,0,1,51.926-52h31.141a24.7,24.7,0,0,0,22.874,34.03H354.773a24.7,24.7,0,0,0,22.874-34.03h33.267a51.953,51.953,0,0,1,52,51.906v.093Z" transform="translate(210.922 93.975)" fill="#fff"/><g transform="translate(-364 -55.434)"><path d="M587.47,295.943c-4.381-5.219-9.629-8.765-14.341-10.13l-55.418-62.647s-4.628-58.316-8.331-78.681-28.7-14.811-28.7-14.811l2.777,58.316L499.2,250.936l64.848,55.055a37.8,37.8,0,0,0,4.184,6.106c7.889,9.4,18.592,13.4,23.905,8.937s3.225-15.695-4.665-25.091Z" transform="translate(657.058 327.918)" fill="#9f616a"/><path d="M413.325,295.943c4.381-5.219,9.629-8.765,14.34-10.13l55.418-62.647s4.628-58.316,8.331-78.681,28.7-14.811,28.7-14.811l-2.777,58.316L501.6,250.936l-64.848,55.055a37.787,37.787,0,0,1-4.183,6.106c-7.889,9.4-18.592,13.4-23.905,8.937s-3.225-15.695,4.665-25.091Z" transform="translate(565 327.918)" fill="#9f616a"/><path d="M463.859,140.048l4.517-24.714,17.6-1.2,5.265,34.067Z" transform="translate(641.223 309.677)" fill="#9f616a"/><g transform="translate(976.924 853.263)"><path d="M448.085,308.22l-23.456-1.34,3.077,71.987,15.894.909Z" transform="translate(-388.704 -306.88)" fill="#9f616a"/><path d="M447.109,328.974l9.4,3.715-.012,4.937s2.267-5.714,14.435-6.961l1.453,4.787s4.719,4.7,3.91,13.188l-3.1,22.743-9.177-.183-1.482-15.826s-2.528-3.591-14.172,13.473c0,0-12.827,2.8-32.691-2.971a5.914,5.914,0,0,1-4.591-5.5,3,3,0,0,1,2.633-3.107c5.072-1.162,10.024.311,13.3-3.2S447.109,328.974,447.109,328.974Z" transform="translate(-411.081 -279.748)" fill="#2f2e41"/></g><g transform="translate(1103.143 853.263)"><path d="M504.587,308.22l-23.456-1.34,3.077,71.987,15.894.909Z" transform="translate(-445.537 -306.88)" fill="#9f616a"/><path d="M503.594,328.974l9.392,3.715-.012,4.937s2.266-5.714,14.428-6.961l1.452,4.787s4.717,4.7,3.908,13.188l-3.1,22.743-9.172-.183-1.481-15.826s-2.527-3.591-14.165,13.473c0,0-12.821,2.8-32.675-2.971a5.913,5.913,0,0,1-4.589-5.5,3,3,0,0,1,2.632-3.107c5.069-1.162,10.019.311,13.293-3.2S503.594,328.974,503.594,328.974Z" transform="translate(-467.583 -277.283)" fill="#2f2e41"/></g><circle cx="27.77" cy="27.77" r="27.77" transform="translate(1091.741 384.026)" fill="#9f616a"/><path d="M503.665,152.37s-12.209-19.977-24.431-17.772a171.146,171.146,0,0,0-18.593,4.2s-4.977-15.928,11.732-23.57c0,0-18-6.312,7.2-19.018s40.884-.392,40.884-.392,15.217,4.2-7.91,20.575c0,0,20.016,22.8-.2,44.581,0,0,3.569-16.584-1.286-13.184a56.528,56.528,0,0,1-7.394,4.585Z" transform="translate(631.592 264.042)" fill="#2f2e41"/><path d="M522.126,129.144l-37.952-4.628-29.158,23.6s-14.5,40.405-3.7,64.8c.259.584.463,41.192.463,41.192H532.41s-.078-27.64,3-37.65a7.756,7.756,0,0,1,1.523-3.079c4.628-4.628,15.736-34.249,10.182-47.208S522.126,129.144,522.126,129.144Z" transform="translate(616.08 322.432)" fill="#6c63ff"/><path d="M483.293,181.849l-50.911,161.99L421.274,471.58h31.01L478.665,353.1,515,284.51l35.871,196.327h31.3l-.754-265.664-17.088-33.324Z" transform="translate(584.101 392.839)" fill="#2f2e41"/><g transform="translate(986.109 524.894)"><circle cx="124.491" cy="124.491" r="124.491" fill="#090814"/><circle cx="120.79" cy="120.79" r="120.79" transform="translate(3.7 3.7)" fill="#f2f2f2"/><g transform="translate(76.288 53.781)"><path d="M87.635,88.595H18.773A13.959,13.959,0,0,1,5,74.487V60.379C5,33.151,26.624,11,53.2,11s48.2,22.151,48.2,49.379V74.487A13.959,13.959,0,0,1,87.635,88.595ZM53.2,25.108c-18.986,0-34.431,15.822-34.431,35.27V74.487H87.644l-.009-14.108C87.635,40.93,72.189,25.108,53.2,25.108Z" transform="translate(-5 52.824)" fill="#6c63ff"/><path d="M18.773,2H87.635a13.959,13.959,0,0,1,13.773,14.109V30.217c0,27.228-21.624,49.38-48.2,49.38S5,57.445,5,30.217V16.109A13.959,13.959,0,0,1,18.773,2ZM53.2,65.488c18.986,0,34.431-15.823,34.431-35.271V16.109H18.764l.009,14.108C18.773,49.666,34.218,65.488,53.2,65.488Z" transform="translate(-5 -2)" fill="#6c63ff"/><path d="M0,0H74.977L69.609,21.213,37.8,26.623,4.489,20.856Z" transform="translate(9.792 39.458)" fill="#6c63ff"/><path d="M0,22.787H74.977L73.321,8.378,38.341-1.237,2.311,8.378Z" transform="translate(9.792 111.752)" fill="#6c63ff"/></g></g></g><circle cx="124.491" cy="124.491" r="124.491" transform="translate(369.293 221.46)" fill="#6c63ff"/><rect width="216" height="44" rx="16" transform="translate(386 531)" fill="#f2f2f2"/><rect width="216" height="25" rx="12.5" transform="translate(386 604)" fill="#f2f2f2"/><rect width="216" height="25" rx="12.5" transform="translate(386 641)" fill="#f2f2f2"/></g></svg>