<svg xmlns="http://www.w3.org/2000/svg" width="679" height="761.526" viewBox="0 0 679 761.526"><g transform="translate(-774 -104)"><rect width="334.678" height="2.238" transform="translate(985.66 842.271)" fill="#ccc"/><g transform="translate(-31.884)"><path d="M637.2,252.815l-81.68-10.07L560,171.135h77.2Z" transform="translate(578.022 278.637)" fill="#ed9da0"/><path d="M874.518,267l-79.75,1a5.653,5.653,0,0,1-5.646-5.646V236a42.034,42.034,0,0,1,84.068,0l6.975,25.353A5.652,5.652,0,0,1,874.519,267Z" transform="translate(350.747 78.266)" fill="#090814"/><path d="M901.735,475a12.244,12.244,0,0,1,.723-18.761L888.583,415l21.86,5.777,9.827,38.275A12.308,12.308,0,0,1,901.735,475Z" transform="translate(362.574 106.27)" fill="#ed9da0"/><path d="M820.185,712.826,801.2,710.171l2.848-64.4,28.025,3.916Z" transform="translate(349.627 133.658)" fill="#ed9da0"/><path d="M902.711,683.886l-17.061,7.751-45.19-59.049,25.18-11.44Z" transform="translate(354.613 128.969)" fill="#ed9da0"/><circle cx="29.11" cy="29.11" r="29.11" transform="translate(1152.444 287.768)" fill="#ed9da0"/><path d="M855.449,687.916,787.275,514.078c-24.4-66.648-2.6-112.582-2.375-113.038l.112-.224.233-.085c2.8,10.9,66.275,10.154,80.821-6.629,8.49,7.132,19.79,23.924,22.211,43.991a158.3,158.3,0,0,1-5.637,64.1l-26.854,91.035,33.224,74.845Z" transform="translate(349.154 103.783)" fill="#090814"/><path d="M820.211,560.322,795.6,685.143l32.784,6.182,20.627-108.044Z" transform="translate(351.517 123.549)" fill="#090814"/><path d="M879.433,399.7s-.513,21.031,1.539,21.543-28.212,8.72-28.212,8.72l-3.078-28.725Z" transform="translate(316.715 -60.33)" fill="#ed9da0"/><path d="M785.758,382.284c5.244,1.4,57.086,22.763,81.68,1.119l19.3-95.291-23.123-7.293-8.069-9.812a9.164,9.164,0,0,0-7.214-3.348l-28.685.384a9.208,9.208,0,0,0-6.714,3.051l-9.188,10.247-20.754,4.83Z" transform="translate(350.019 88.748)" fill="#e6e6e6"/><path d="M868.624,293.47l6.284-8.368s11.513,3.025,17.363,19.524S922.088,452.94,922.088,452.94l-25.81,11.983-34.951-116.5Z" transform="translate(359.333 90.822)" fill="#e6e6e6"/><path d="M683.019,437.626a12.244,12.244,0,0,1,15.9-9.981l26.233-34.713,7.555,21.311-26.071,29.7a12.308,12.308,0,0,1-23.62-6.314Z" transform="translate(338.114 103.645)" fill="#ed9da0"/><path d="M802.3,291.742l-8.692-7.64s-9.1,2.3-14.955,18.8S698.139,430.01,698.139,430.01l25.81,11.983,85.65-95.3Z" transform="translate(339.929 90.703)" fill="#e6e6e6"/><path d="M860.154,236.185H819.467a3.141,3.141,0,0,1-3.113-2.748l-.527-4.214a1.882,1.882,0,0,0-3.573-.559l-2.669,5.711a3.149,3.149,0,0,1-2.842,1.809h-6.18a3.133,3.133,0,0,1-3.138-3.128q0-.154.015-.308l2.437-25.454a3.161,3.161,0,0,1,1.79-2.554c18.633-8.7,37.529-8.687,56.163.034a3.142,3.142,0,0,1,1.775,2.408l3.651,25.42a3.133,3.133,0,0,1-3.1,3.581Z" transform="translate(351.734 78.773)" fill="#090814"/><path d="M54.056,0s9.425,23.568,2.019,27.607-17.511.67-25.587,4.038S.192,26.936.192,26.936s-2.7-7.406,12.115-9.426c0,0,16.119-12.124,16.119-14.813S37.852,0,37.852,0Z" transform="translate(1119.488 829) rotate(4.012)" fill="#090814"/><path d="M54.056,0s9.425,23.568,2.019,27.607-17.511.67-25.587,4.038S.192,26.936.192,26.936s-2.7-7.406,12.115-9.426c0,0,16.119-12.124,16.119-14.813S37.852,0,37.852,0Z" transform="translate(1207.52 818.139) rotate(-6)" fill="#090814"/></g><g transform="translate(343 -18)"><rect width="240" height="64" rx="12" transform="translate(870 186)" fill="#f2f2f2"/><path d="M12,2A10.011,10.011,0,0,0,2,12V52A10.011,10.011,0,0,0,12,62H228a10.011,10.011,0,0,0,10-10V12A10.011,10.011,0,0,0,228,2H12m0-2H228a12,12,0,0,1,12,12V52a12,12,0,0,1-12,12H12A12,12,0,0,1,0,52V12A12,12,0,0,1,12,0Z" transform="translate(870 186)" fill="#090814"/><path d="M1.352,10.6a9.231,9.231,0,0,1,9.216-9.247c3.551,0,5.12,1.486,6.784,4.12,1.664-2.634,3.233-4.12,6.784-4.12A9.232,9.232,0,0,1,33.352,10.6c0,4.776-2.723,9.369-5.848,13.18a80.405,80.405,0,0,1-8.835,8.842l-.451.4a1.3,1.3,0,0,1-1.733,0l-.451-.4A80.394,80.394,0,0,1,7.2,23.779C4.075,19.968,1.352,15.375,1.352,10.6Z" transform="translate(888.647 200.648)" fill="#6c63ff" fill-rule="evenodd"/><rect width="160" height="16" rx="8" transform="translate(930 210)" fill="#6c63ff"/></g><g transform="translate(-391 94)"><rect width="240" height="64" rx="12" transform="translate(1165 138)" fill="#f2f2f2"/><path d="M12,2A10.011,10.011,0,0,0,2,12V52A10.011,10.011,0,0,0,12,62H228a10.011,10.011,0,0,0,10-10V12A10.011,10.011,0,0,0,228,2H12m0-2H228a12,12,0,0,1,12,12V52a12,12,0,0,1-12,12H12A12,12,0,0,1,0,52V12A12,12,0,0,1,12,0Z" transform="translate(1165 138)" fill="#090814"/><g transform="translate(295 8)"><path d="M16.877.877a16,16,0,1,0,16,16A16,16,0,0,0,16.877.877Zm-13.7,16a13.7,13.7,0,1,1,13.7,13.705A13.7,13.7,0,0,1,3.172,16.877Zm7.756,4.141A1.208,1.208,0,1,0,8.947,22.4a9.665,9.665,0,0,0,15.862,0,1.208,1.208,0,0,0-1.982-1.382,7.249,7.249,0,0,1-11.9,0Zm.816-5.711A2.114,2.114,0,1,0,9.63,13.193,2.114,2.114,0,0,0,11.744,15.307Zm12.381-2.114a2.114,2.114,0,1,1-2.114-2.114A2.114,2.114,0,0,1,24.125,13.193Z" transform="translate(889.123 145.123)" fill="#6c63ff" fill-rule="evenodd"/><rect width="160" height="16" rx="8" transform="translate(930 154)" fill="#6c63ff"/></g></g><g transform="translate(86 -41)"><rect width="240" height="64" rx="12" transform="translate(827 145)" fill="#f2f2f2"/><path d="M12,2A10.011,10.011,0,0,0,2,12V52A10.011,10.011,0,0,0,12,62H228a10.011,10.011,0,0,0,10-10V12A10.011,10.011,0,0,0,228,2H12m0-2H228a12,12,0,0,1,12,12V52a12,12,0,0,1-12,12H12A12,12,0,0,1,0,52V12A12,12,0,0,1,12,0Z" transform="translate(827 145)" fill="#090814"/><g transform="translate(-43 77.182)"><path d="M21.481.117a1.455,1.455,0,0,1,.863,1.576L19.717,17.455H32.546a1.454,1.454,0,0,1,1.163,2.327L16.254,43.055a1.455,1.455,0,0,1-2.6-1.112l2.627-15.761H3.455a1.455,1.455,0,0,1-1.164-2.327L19.745.582A1.455,1.455,0,0,1,21.481.117ZM6.364,23.273H18a1.455,1.455,0,0,1,1.435,1.694L17.506,36.537l12.13-16.173H18a1.455,1.455,0,0,1-1.435-1.694L18.494,7.1Z" transform="translate(888 78)" fill="#6c63ff" fill-rule="evenodd"/><rect width="160" height="16" rx="8" transform="translate(930 92)" fill="#6c63ff"/></g></g></g></svg>