<?xml version="1.0" encoding="UTF-8"?><svg id="uuid-da351b05-a2df-4fca-89d7-b4565808b5a2" xmlns="http://www.w3.org/2000/svg" width="466.0996" height="757.33868" viewBox="0 0 466.0996 757.33868"><polygon points="445.55216 511.15872 439.99879 732.18262 438.23583 757.33868 363.82075 757.33868 361.14102 708.85849 339.38595 524.09737 445.55216 511.15872" fill="#ed9da0"/><path d="M286.86534,164.69778c1.80928-5.58216,9.84149-7.21924,14.65085-3.8571s6.45046,9.96,5.51675,15.75328-3.97363,10.99943-6.95678,16.05262c-22.29034,37.75801-51.58068,144.51602-73.87102,182.27402,13.18289,8.77823,31.00051,10.09075,45.3274,3.339,7.59851,13.12024,23.05971,21.24856,38.17555,20.06979,15.11584-1.17878,29.13005-11.60567,34.60276-25.74524-3.65481,8.42571-7.30963,16.85141-10.96444,25.27712,18.39422-6.00596,33.54677-21.16276,39.54756-39.55868-4.0025,12.31063-8.00499,24.62126-12.00749,36.93188,25.14616-15.61362,44.11558-115.3702,35.51269-146.27715-.313-1.12451.13435-2.31415,1.11942-2.94034l.0341-.02167c.29332-.18646.55194-.4276.75369-.71061,13.63679-19.12921,8.36578-46.28833-3.1434-66.84633-11.59532-20.71186-28.66072-38.13593-38.86647-59.56664-13.54943-28.45197-14.83326-63.41079-36.26678-86.51286-13.59988-14.65861-33.57705-22.10078-53.45067-24.30777-19.87362-2.20699-39.9339.32515-59.76911,2.85418l1.37343-3.18989c-17.06966-12.45151-41.89937-8.6985-59.36632,3.18927-17.46695,11.88777-29.24574,30.25591-40.53958,48.11264-10.34581,16.3578-20.69162,32.71559-31.03743,49.07339-10.13313,16.02153-49.46201,86.52241-53.11221,105.12472-3.65021,18.60231.8282,40.05373,15.87379,51.5863,1.90547-9.90245,3.81094-19.80491,5.71641-29.70736l-1.80019,1.55565c12.77649,46.4702,12.70591,115.22251-29.03978,139.30601,18.29292,5.34578,39.22164.4817,53.28215-12.38339l-26.72311,29.88867c14.43169-.25136,28.75119-5.04707,40.42336-13.53808l-20.45149,24.2512,54.6218-28.03675-11.36183,28.79717c22.76575-4.27387,45.5315-8.54774,68.29725-12.8216" fill="#090814"/><polygon points="120.125 698.86244 107.53358 757.17276 363.35052 757.17276 354.14111 726.24144 120.125 698.86244" fill="#090814"/><path d="M35.15853,654.99086L.0399,698.25421s-2.64425,58.91856,35.11863,58.91856,93.60137-110.40924,93.60137-110.40924l-39.27535-99.34202-63.30835-15.54942,8.98233,123.11878Z" fill="#ed9da0"/><path d="M338.96954,192.12813c3.15017-67.62488-49.11703-124.99953-116.74191-128.1497-67.62488-3.15017-124.99999,49.11701-128.15016,116.74189-2.55481,54.84425,31.34287,102.94028,80.31826,120.84382l16.3836,157.5391,125.35552-94.93793s-24.52183-34.41947-36.75792-72.51133c34.06371-20.38861,57.60683-56.89721,59.5926-99.52585Z" fill="#ed9da0"/><path d="M294.95903,325.28693s-44.42692,166.60093-116.62065,19.99211l-95.42092,44.261s6.66404,251.01207,26.65615,286.5536c0,0-21.10278,33.32019,4.44269,39.98422,25.54548,6.66404,12.2174-4.44269,25.54548,6.66404s39.98422-7.77471,39.98422-7.77471c0,0,134.83035,51.42599,174.59511,11.27425v-166.3352s67.53158-61.52026,111.95849-17.09334c0,0-8.88538-141.05546-58.86566-172.1543s-112.27491-45.37168-112.27491-45.37168Z" fill="#6c63ff"/><path d="M103.46491,401.20211l-20.54745-11.66207S3.50435,530.04016,12.38973,550.03227c8.88538,19.99211,113.28863,18.88144,113.28863,18.88144l-22.21346-167.7116Z" fill="#6c63ff"/><path d="M205.69927,10.9053c19.83521-2.52904,39.89549-5.06117,59.76911-2.85418,19.87362,2.20699,39.85079,9.64916,53.45067,24.30777,21.43352,23.10208,22.71735,58.0609,36.26678,86.51286,10.20575,21.43071,27.27114,38.85478,38.86647,59.56664,11.50918,20.55799,16.78019,47.71712,3.1434,66.84633-.20175.28301-.46037.52415-.75369.71061h0c-.99533.63272-1.46447,1.8537-1.11201,2.97921,8.817,28.15524-3.43898,61.66556-28.55419,77.25996,4.0025-12.31063,8.00499-24.62126,12.00749-36.93188-6.00079,18.39591-25.15333,98.55272-43.54756,104.55868,3.65481-8.42571,7.30963-16.85141,10.96444-25.27712-5.47271,14.13957-19.48693,24.56647-34.60276,25.74524s-30.57704-6.94954-38.17555-20.06979c-14.3269,6.75174-32.14451,5.43923-45.3274-3.339,22.29034-37.75801,48.58068-140.51601,70.87102-178.27402,2.98315-5.0532,6.02307-10.25934,6.95678-16.05262s-.70738-12.39114-5.51675-15.75328-12.84157-1.72506-14.65085,3.8571" fill="#090814"/><path d="M184.16941,374.46728l-56.26686,163.34701c-28.18875,7.25246-52.8676-5.35379-64.30785-12.83944-4.34236-2.832-6.77521-4.93132-6.77521-4.93132l14.43875-172.1543,14.92792,1.51036,78.03562,7.93036,19.94764,17.13734Z" fill="#d6d6e3"/><polygon points="175.23956 239.04329 171.61903 250.40545 167.36506 263.73352 160.38973 285.61345 154.78105 303.20688 148.65012 322.43269 140.53103 347.88923 125.68121 344.30178 131.53447 327.98606 137.96531 310.05965 144.59627 291.56705 151.32701 272.82987 158.33542 253.29331 163.44408 239.04329 175.23956 239.04329" fill="#d6d6e3"/><path d="M86.18615,349.39959l-22.59146,175.57526c-4.34236-2.832-6.77521-4.93132-6.77521-4.93132l14.43875-172.1543,14.92792,1.51036Z" fill="#090814"/><polyline points="135.75518 354.44209 95.69321 522.26476 76.81177 518.93274 105.44492 351.35442" fill="#090814"/><polyline points="178.33838 369.45839 125.68138 532.2386 112.3533 526.70745 159.17927 356.81893" fill="#090814"/><polygon points="175.23956 239.04329 171.61903 250.40545 158.33542 253.29331 163.44408 239.04329 175.23956 239.04329" fill="#6c63ff"/><polygon points="167.36506 263.73352 160.38973 285.61345 144.59627 291.56705 151.32701 272.82987 167.36506 263.73352" fill="#6c63ff"/><polygon points="154.78105 303.20688 148.65012 322.43269 131.53447 327.98606 137.96531 310.05965 154.78105 303.20688" fill="#6c63ff"/><path d="M83.46321,482.90264l-10.52258,210.31373L.0399,698.25421l25.55089-218.1242c-10.08388-10.75957-16.11726-26.80659-15.2713-44.4645,1.48027-30.89678,23.40841-54.95021,48.97818-53.72522,25.56976,1.22508,45.09795,27.26457,43.61767,58.16145-.84597,17.65801-8.38631,33.05458-19.45215,42.8009Z" fill="#ed9da0"/><polygon points="287.18432 164.23936 170.56367 70.94284 86.80482 212.921 86.80482 123.33754 183.89174 29.84794 261.63885 37.62265 287.18432 164.23936" fill="#090814"/><path d="M68.68722,342.55075s-10.34288,15.78522,0,23.89021l2.01412-11.94511s55.34654-14.54429,113.47211,19.96834l-2.93628,13.24489s8.86023,1.27563,9.9709-7.60975,2.22135-13.32807,2.22135-13.32807c0,0-48.86961-44.42692-124.74219-24.2205Z" fill="#d6d6e3"/></svg>