<svg xmlns="http://www.w3.org/2000/svg" width="654.016" height="451.84" viewBox="0 0 654.016 451.84"><g transform="translate(-632.992 -314.08)"><path d="M1209.326,232.384H577.582a11.246,11.246,0,0,0-11.136,11.328V672.92a11.24,11.24,0,0,0,11.136,11.3h631.744a11.241,11.241,0,0,0,11.136-11.3V243.713a11.246,11.246,0,0,0-11.135-11.328Z" transform="translate(66.546 81.695)" fill="#090814"/><path d="M1189.648,232.384H577.241a10.819,10.819,0,0,0-10.8,10.818V653.059a10.814,10.814,0,0,0,10.8,10.8h612.407a10.814,10.814,0,0,0,10.8-10.8V243.2a10.818,10.818,0,0,0-10.794-10.818Z" transform="translate(67.554 83.939)" fill="#fff"/><g transform="translate(782.387 429.998)"><path d="M533.522,480.422H236.655a10.477,10.477,0,0,1-10.465-10.465V438.013a10.477,10.477,0,0,1,10.465-10.465H533.522a10.477,10.477,0,0,1,10.465,10.465v31.945a10.477,10.477,0,0,1-10.465,10.465ZM236.655,428.647a9.373,9.373,0,0,0-9.363,9.363v31.945a9.373,9.373,0,0,0,9.363,9.363H533.522a9.373,9.373,0,0,0,9.363-9.363V438.013a9.373,9.373,0,0,0-9.363-9.366Z" transform="translate(-226.19 -427.548)" fill="#ccc"/><path d="M295.991,477.083a18.215,18.215,0,1,1,18.214-18.215,18.214,18.214,0,0,1-18.214,18.215Z" transform="translate(-245.412 -432.432)" fill="#e6e6e6"/><path d="M555.1,488.156H360.683a4.406,4.406,0,1,1,0-8.813H555.1a4.406,4.406,0,1,1,0,8.813Z" transform="translate(-274.665 -446.848)" fill="#e6e6e6"/><path d="M491.759,458.307H360.676a4.406,4.406,0,1,1,0-8.813H491.759a4.406,4.406,0,1,1,0,8.813Z" transform="translate(-274.662 -435.725)" fill="#e6e6e6"/></g><g transform="translate(783.339 576.359)"><path d="M533.522,480.422H236.655a10.477,10.477,0,0,1-10.465-10.465V438.013a10.477,10.477,0,0,1,10.465-10.465H533.522a10.477,10.477,0,0,1,10.465,10.465v31.945a10.477,10.477,0,0,1-10.465,10.465ZM236.655,428.647a9.373,9.373,0,0,0-9.363,9.363v31.945a9.373,9.373,0,0,0,9.363,9.363H533.522a9.373,9.373,0,0,0,9.363-9.363V438.013a9.373,9.373,0,0,0-9.363-9.366Z" transform="translate(-226.19 -427.548)" fill="#ccc"/><path d="M295.991,477.083a18.215,18.215,0,1,1,18.214-18.215,18.214,18.214,0,0,1-18.214,18.215Z" transform="translate(-245.412 -432.432)" fill="#e6e6e6"/><path d="M555.1,488.156H360.683a4.406,4.406,0,1,1,0-8.813H555.1a4.406,4.406,0,1,1,0,8.813Z" transform="translate(-274.665 -446.848)" fill="#e6e6e6"/><path d="M491.759,458.307H360.676a4.406,4.406,0,1,1,0-8.813H491.759a4.406,4.406,0,1,1,0,8.813Z" transform="translate(-274.662 -435.725)" fill="#e6e6e6"/></g><g transform="translate(783.339 649.541)"><path d="M533.522,480.422H236.655a10.477,10.477,0,0,1-10.465-10.465V438.013a10.477,10.477,0,0,1,10.465-10.465H533.522a10.477,10.477,0,0,1,10.465,10.465v31.945a10.477,10.477,0,0,1-10.465,10.465ZM236.655,428.647a9.373,9.373,0,0,0-9.363,9.363v31.945a9.373,9.373,0,0,0,9.363,9.363H533.522a9.373,9.373,0,0,0,9.363-9.363V438.013a9.373,9.373,0,0,0-9.363-9.366Z" transform="translate(-226.19 -427.548)" fill="#ccc"/><path d="M295.991,477.083a18.215,18.215,0,1,1,18.214-18.215,18.214,18.214,0,0,1-18.214,18.215Z" transform="translate(-245.412 -432.432)" fill="#e6e6e6"/><path d="M555.1,488.156H360.683a4.406,4.406,0,1,1,0-8.813H555.1a4.406,4.406,0,1,1,0,8.813Z" transform="translate(-274.665 -446.848)" fill="#e6e6e6"/><path d="M491.759,458.307H360.676a4.406,4.406,0,1,1,0-8.813H491.759a4.406,4.406,0,1,1,0,8.813Z" transform="translate(-274.662 -435.725)" fill="#e6e6e6"/></g><path d="M533.522,480.422H236.655a10.477,10.477,0,0,1-10.465-10.465V438.013a10.477,10.477,0,0,1,10.465-10.465H533.522a10.477,10.477,0,0,1,10.465,10.465v31.945a10.477,10.477,0,0,1-10.465,10.465ZM236.655,428.647a9.373,9.373,0,0,0-9.363,9.363v31.945a9.373,9.373,0,0,0,9.363,9.363H533.522a9.373,9.373,0,0,0,9.363-9.363V438.013a9.373,9.373,0,0,0-9.363-9.366Z" transform="translate(556.197 75.631)" fill="#6c63ff"/><path d="M295.991,477.083a18.215,18.215,0,1,1,18.214-18.215,18.214,18.214,0,0,1-18.214,18.215Z" transform="translate(537.223 70.748)" fill="#6c63ff"/><path d="M555.1,488.156H360.683a4.406,4.406,0,1,1,0-8.813H555.1a4.406,4.406,0,1,1,0,8.813Z" transform="translate(507.722 56.332)" fill="#6c63ff"/><path d="M491.759,458.307H360.676a4.406,4.406,0,1,1,0-8.813H491.759a4.406,4.406,0,1,1,0,8.813Z" transform="translate(507.725 67.455)" fill="#6c63ff"/><path d="M304.142,236.695a2.959,2.959,0,0,1-1.782-.591l-.032-.024-6.7-5.128a2.98,2.98,0,1,1,3.626-4.729l4.343,3.33,10.261-13.387a2.975,2.975,0,0,1,4.175-.551h0l-.063.093.065-.093a2.981,2.981,0,0,1,.55,4.176l-12.069,15.739a2.98,2.98,0,0,1-2.37,1.158Z" transform="translate(526.543 303.387)" fill="#fff"/><path d="M470.9,406.372h-1.375a4.652,4.652,0,0,1-4.646-4.646v-1.154a14.216,14.216,0,0,1,1.61-7.116A37.435,37.435,0,0,1,471,387.4a26.7,26.7,0,0,0,3.066-3.7,6.217,6.217,0,0,0,.968-3.438c0-2.868-1.869-4.263-5.713-4.263a23.2,23.2,0,0,0-6.3.945,5.3,5.3,0,0,1-6.757-5.1v-2.337a5.2,5.2,0,0,1,3.068-4.766,30.44,30.44,0,0,1,22.478-.2,17.82,17.82,0,0,1,7.555,5.725,13.789,13.789,0,0,1,2.71,8.357,13.592,13.592,0,0,1-2.62,8.358,47.779,47.779,0,0,1-7.326,7.464,52.2,52.2,0,0,0-4.7,4.425,8.169,8.169,0,0,0-1.953,3.635,4.634,4.634,0,0,1-4.579,3.859Z" transform="translate(476.825 -27.699)" fill="#6c63ff"/><path d="M479.183,514.631H479a8.611,8.611,0,1,1,0-17.223h.181a8.611,8.611,0,1,1,0,17.223Z" transform="translate(467.781 -114.109)" fill="#6c63ff"/></g></svg>