<svg xmlns="http://www.w3.org/2000/svg" width="813.039" height="644.6" viewBox="0 0 813.039 644.6"><g transform="translate(-604.42 -201.084)"><path d="M174.447,75.484a66.379,66.379,0,1,1,86.266,63.344l-9.9,7.974,17.767,62.185-20.7,14.646-65.417-54.514s14.132-18,21.711-38.3a66.307,66.307,0,0,1-29.728-55.338Z" transform="translate(604.42 234.316)" fill="#9f616a"/><path d="M470.989,245.556,423.431,410.821l-48.095-33.379,56.676-144.191c-4.943-9.154-6.171-21.185-2.417-33.078,6.569-20.809,25.855-33.271,43.076-27.835s25.857,26.712,19.288,47.521c-3.754,11.893-11.668,21.038-20.97,25.7Z" transform="translate(604.42 234.316)" fill="#9f616a"/><rect width="171.552" height="199.807" transform="translate(745.138 545.128)" fill="#9f616a"/><path d="M130.186,435.608,91.274,553.849l-2.318,56.536H376.665L321.177,435.608Z" transform="translate(604.42 234.316)" fill="#090814"/><path d="M431.948,611.367H32.511a2.539,2.539,0,0,1,0-5.023H431.948a2.533,2.533,0,0,1,0,5.023Z" transform="translate(604.42 234.316)" fill="#ccc"/><path d="M198.3,151.484l-40.781,93.13,4.035,160.059H299.389l4.327-169.834-51.172-78.874Z" transform="translate(604.42 234.316)" fill="#6c63ff"/><path d="M116.371,188.543s-11.939,342.471-44,398.987c0,0,44.3,7.72,55.57-8.247s54.727-122.271,55.2-145.813,14.086-282.1,14.086-282.1l-80.858,37.173Z" transform="translate(604.42 234.316)" fill="#e6e6e6"/><path d="M248.944,165.377l3.6-9.411,91.407,36.3S339.686,534.514,376.69,569.1c0,0-61.82-2.949-63.873-4.365s-46.934-178.392-46.934-178.392,21.395-81.986,23.046-116.993-39.986-103.97-39.986-103.97Z" transform="translate(604.42 234.316)" fill="#e6e6e6"/><path d="M320.758,198.956l23.193-6.691,53.329,108,22.855-59.155L476.6,257.247s-25.666,166.562-64.469,157.6-91.375-100.428-91.375-100.428V198.956Z" transform="translate(604.42 234.316)" fill="#e6e6e6"/><path d="M92.13,528.775,14.3,415.627l35.781-31.48,73.139,123.146c9.486,1.582,18.967,7.508,25.522,16.993,11.468,16.6,9.631,37.744-4.1,47.235S110.468,575.253,99,558.657c-6.554-9.485-8.744-20.449-6.87-29.882Z" transform="translate(604.42 234.316)" fill="#9f616a"/><path d="M130.186,198.091l-13.815-9.549L3.361,402s-9.173,12.872,2.792,33.611S79.545,519.86,79.545,519.86l48.4-27.337-49.3-91.87,46.466-80.374,5.071-122.187Z" transform="translate(604.42 234.316)" fill="#e6e6e6"/><path d="M361.431,19.483c14.844,5.216,23.337,8.2,31.118,15.7,13.141,12.661,15.311,29.58,17.325,45.3,1.577,12.3,3.616,28.2-3.6,46.368-2.458,6.2-14.382,33.822-37.2,37.312-4.481.686-15,.865-11.97-1.374,28.067-20.72,40.045-33.229,39.064-65.164-.611-19.844-30.931-41.267-48.933-45.117a30.661,30.661,0,0,0-24.911,5.8c-15.131,12.422-14.487,63.79-30.443,74.527-6.562,4.417-2.191-26.67-6.813-21.629-9.122,9.946-3.272,25.168-1.631,30.979,7.776,27.518,15.922,7.168,23.509,30.666,4.084,12.633-31.941,25.759-50.952,29.34-18.743,3.531-26.822,13.752-16.974,5.566-26.494-11.119,28.6-46.627,31.075-56.691,3.539-14.382-11.156-20.514-14.1-43.2-2.013-15.514-3.428-37.7,2.054-51.925,5.172-13.431,9.664-25.088,21.416-35.659C282.294,17.747,305.079.489,329.24,0c11.123-.223,19.3,14.941,32.192,19.474h0Z" transform="translate(513.779 201.088)" fill="#090814"/><path d="M562.316,542.2c-.126,0-.252,0-.38-.009a9.051,9.051,0,0,1-7.429-5.025,118.732,118.732,0,0,0-21.971-28.3c-5.156-4.9-10.544-9.459-15.755-13.867-13.442-11.367-26.1-22.073-33.129-36.866-15.321-32.257,2.722-77.185,28.5-97.334,28.912-22.6,66.94-26.143,103.729-26.607q5.735-.072,11.477-.072h0a925.624,925.624,0,0,1,197.621,21.49c21.677,4.756,44.368,10.583,62.6,24.724,18.126,14.057,29.143,36.193,28.068,56.4-1.569,29.493-27.858,51.531-51.8,57.292-22.817,5.487-46.52,1.779-71.614-2.148-5.54-.866-11.268-1.763-16.932-2.542-61.56-8.462-177.2,17.621-182.1,18.735l-4.854,1.105L569.519,538a8.621,8.621,0,0,1-7.2,4.208Z" transform="translate(501.741 -123.815)" fill="#6c63ff"/><path d="M77.354-14.776a18.691,18.691,0,0,1-9.278-2.283,16.508,16.508,0,0,1-6.442-6.49,20.1,20.1,0,0,1-2.356-9.975v-1.442A20.2,20.2,0,0,1,61.635-44.99,16.675,16.675,0,0,1,68.077-51.5a18.537,18.537,0,0,1,9.278-2.307A18.634,18.634,0,0,1,86.68-51.5a16.841,16.841,0,0,1,6.466,6.514,20.035,20.035,0,0,1,2.38,10.023v1.442a19.933,19.933,0,0,1-2.38,9.975,16.671,16.671,0,0,1-6.466,6.49A18.79,18.79,0,0,1,77.354-14.776Zm-52.014-34.9a18.691,18.691,0,0,1-9.278-2.283,16.508,16.508,0,0,1-6.442-6.49,20.1,20.1,0,0,1-2.356-9.975v-1.442A20.2,20.2,0,0,1,9.621-79.89,16.675,16.675,0,0,1,16.063-86.4a18.537,18.537,0,0,1,9.278-2.307A18.634,18.634,0,0,1,34.667-86.4a16.841,16.841,0,0,1,6.466,6.514,20.035,20.035,0,0,1,2.38,10.023v1.442a19.933,19.933,0,0,1-2.38,9.975,16.671,16.671,0,0,1-6.466,6.49A18.79,18.79,0,0,1,25.341-49.677ZM20.63-15.93,69.855-87.557H82.162L32.936-15.93Zm4.711-44.707a4.878,4.878,0,0,0,3.966-1.851q1.514-1.851,1.514-5.937v-1.442q0-4.134-1.514-6.057a4.808,4.808,0,0,0-3.966-1.923,4.7,4.7,0,0,0-3.894,1.923q-1.49,1.923-1.49,6.057v1.442q0,4.086,1.49,5.937A4.761,4.761,0,0,0,25.341-60.637Zm52.014,34.9a4.878,4.878,0,0,0,3.966-1.851q1.514-1.851,1.514-5.937v-1.442q0-4.134-1.514-6.057a4.808,4.808,0,0,0-3.966-1.923,4.7,4.7,0,0,0-3.894,1.923q-1.49,1.923-1.49,6.057v1.442q0,4.086,1.49,5.937A4.761,4.761,0,0,0,77.354-25.737Z" transform="translate(1147.212 343)" fill="#fff"/></g></svg>