<svg xmlns="http://www.w3.org/2000/svg" width="440.918" height="800.019" viewBox="0 0 440.918 800.019"><g transform="translate(-740 -140)"><path d="M986.137,474.778l15.581,42.678s-16.258,48.775,0,50.13,18.291-46.743,18.291-46.743l-8.807-51.485Z" transform="translate(160.909 84.143)" fill="#ed9da0"/><path d="M994.675,359.128l11.516,11.516v54.872s2.71,34.549,5.419,42,7.452,9.484,6.1,12.194-1.355,9.484-1.355,9.484l-29.129,4.065-6.1-76.549Z" transform="translate(159.823 60.242)" fill="#d6d6e3"/><path d="M915.225,352.464l-33.872,1.354,1.355,14.226,29.807-5.42Z" transform="translate(262.306 196.297)" fill="#3f3d56"/><path d="M833.365,187.953,829.3,228.6l41.323,6.1,3.048-23.372,3.049-23.372Z" transform="translate(251.02 160.627)" fill="#ed9da0"/><path d="M860.875,459.894l23.033,49.452s4.065,23.033,10.161,23.71,12.194-23.71,12.194-23.71l-8.129-12.871-9.484-36.581Z" transform="translate(133.749 82.092)" fill="#ed9da0"/><path d="M904.81,499.655l-18.968,29.807s-7.91,275.714-5.2,273.681,1.135,5.419,4.522,0,24.387,0,24.387,0l12.194-12.871V780.111c0-2.032,24.387-157.163,24.387-157.163v39.291s-7.452,144.292,4.742,142.937,33.986-2.032,33.986-2.032,39.176-277.068,28.337-287.23-15.581-33.194-15.581-33.194Z" transform="translate(137.912 87.041)" fill="#2f2e41"/><circle cx="32.517" cy="32.517" r="32.517" transform="translate(1074.562 296.756)" fill="#ed9da0"/><path d="M902.108,340.126l-4.742-2.71s-21,14.226-27.775,46.065-8.807,50.13-12.871,52.839.438,41.422,1.355,44.033H893.3s-6.774-12.871-4.742-15.581,2.71-5.419,1.355-6.774,6.1-23.71,7.452-25.065,15.581-47.42,15.581-48.775S902.108,340.126,902.108,340.126Z" transform="translate(132.485 55.535)" fill="#d6d6e3"/><path d="M793.76,339.659l-42.679,2.71,10.839,10.162,29.807.678Z" transform="translate(234.06 193.52)" fill="#3f3d56"/><path d="M899.745,494.411l-8.807,16.258s26.42,3.387,35.9,6.774,33.871,8.129,33.871,8.129l6.1-23.71Z" transform="translate(140.268 89.576)" fill="#3f3d56"/><path d="M859.641,388.382l7.452,22.356,29.807-6.1-3.388-21Z" transform="translate(257.598 203.057)" fill="#3f3d56"/><path d="M989.407,323.643s-2.032-1.355-6.774,1.355-20.323,4.065-27.775-4.065-12.871-14.9-14.9-13.549-3.387,16.936-3.387,16.936l-6.774,5.419-39.968,14.226,3.387,91.453,6.1,21s-4.742,16.258,1.355,25.742-3.387,12.871-3.387,12.871-2.032,2.71-.677,9.484-1.355,31.839-1.355,31.839,57.581,25.742,117.873,3.387L1006.343,514l-3.387-57.581s3.387-9.484,2.71-13.549,20.323-60.969,20.323-60.969-3.387-28.452-21-34.549-20.323-12.194-20.323-12.194S992.794,326.352,989.407,323.643Z" transform="translate(140.026 48.986)" fill="#d6d6e3"/><path d="M926.806,297.157s-3.377-5.065-2.078-10.52a31.884,31.884,0,0,0,.909-9.481,93.825,93.825,0,0,1,5.455-13.766c2.727-4.935,1.428-7.013,10-8.572s5.065-12.727,27.663-.649a6.627,6.627,0,0,0,6.883,2.6c4.675-.909,6.364,5.585,6.364,5.585s3.117-1.818,4.286.779,9.5-1.559,9.5,15.974-9.484,33.194-9.484,33.194.7-29.492-14.76-32.479-32.078-11.688-36.1-.519A85.152,85.152,0,0,1,926.806,297.157Z" transform="translate(147.529 36.281)" fill="#2f2e41"/><path d="M966.528,737.951l4.764,14.293s0,14.293,4.764,21.439,9.529,22.63-9.528,23.821-27.394-5.955-27.394-5.955,3.573-9.529,0-13.1,0-10.72,0-10.72l3.573-28.585Z" transform="translate(150.373 142.381)" fill="#2f2e41"/><path d="M887.55,737.951l-4.764,14.293s0,14.293-4.764,21.439-9.529,22.63,9.528,23.821,27.394-5.955,27.394-5.955-3.573-9.529,0-13.1,0-10.72,0-10.72l-3.573-28.585Z" transform="translate(136.543 142.381)" fill="#2f2e41"/><g transform="translate(740 140)"><ellipse cx="5.328" cy="5.328" rx="5.328" ry="5.328" transform="translate(3.594 136.744)" fill="#090814"/><path d="M629.983,373.234a374.623,374.623,0,0,1-59.5-31.213C525.2,312.893,494.33,279.2,493.658,258.187c-.2-6.142,2.085-11.014,6.782-14.477,7.6-5.6,21.141-6.948,39.169-3.891l-.445,2.627c-17.3-2.934-30.142-1.756-37.142,3.408a13.816,13.816,0,0,0-5.7,12.249c.645,20.179,31.03,53,75.608,81.678a371.855,371.855,0,0,0,59.064,30.988Z" transform="translate(-493.646 -189.631)" fill="#6c63ff"/><path d="M704.375,390.492c-7.9,0-17.256-1.272-27.894-3.822l.621-2.59c22.337,5.354,39.24,4.908,47.6-1.255a13.816,13.816,0,0,0,5.7-12.249c-.645-20.18-31.03-53-75.608-81.677a360.226,360.226,0,0,0-69.4-35l.917-2.5a362.92,362.92,0,0,1,69.919,35.262c45.282,29.127,76.158,62.817,76.829,83.833.2,6.142-2.085,11.014-6.782,14.477C721.292,388.647,713.889,390.492,704.375,390.492Z" transform="translate(-503.926 -191.108)" fill="#6c63ff"/><path d="M522.421,388.989c-9.54,0-17.012-1.83-21.982-5.5-4.7-3.464-6.978-8.335-6.782-14.477.672-21.016,31.547-54.706,76.829-83.833,50.609-32.553,107.415-51.846,135.074-45.87l-.562,2.6c-27.034-5.843-83,13.3-133.07,45.507-44.578,28.674-74.963,61.5-75.608,81.677a13.815,13.815,0,0,0,5.7,12.249c20,14.751,83.922-3.9,142.49-41.568,40.233-25.879,68.82-54.833,74.607-75.564l2.566.716c-5.955,21.333-34.973,50.872-75.731,77.089-28.684,18.45-59.526,32.949-86.845,40.826C544.917,386.94,532.512,388.988,522.421,388.989Z" transform="translate(-493.646 -189.632)" fill="#6c63ff"/><ellipse cx="7.992" cy="7.992" rx="7.992" ry="7.992" transform="translate(56.171 47.505)" fill="#090814"/><ellipse cx="7.992" cy="7.992" rx="7.992" ry="7.992" transform="translate(145.41 181.142)" fill="#090814"/><ellipse cx="5.328" cy="5.328" rx="5.328" ry="5.328" transform="translate(172.937 256.618)" fill="#e5e5e5"/><ellipse cx="5.328" cy="5.328" rx="5.328" ry="5.328" transform="translate(41.52 0)" fill="#e5e5e5"/><ellipse cx="7.992" cy="7.992" rx="7.992" ry="7.992" transform="translate(215.559 51.501)" fill="#090814"/></g></g></svg>