<svg xmlns="http://www.w3.org/2000/svg" width="669.875" height="800.428" viewBox="0 0 669.875 800.428"><g transform="translate(-779.438 -65.919)"><g transform="translate(779.438 278.034)"><path d="M903.381,798.893s16.808,14.154,25.655,13.27,25.654-.886,18.578,8.846-36.272,15.039-48.656,15.921-39.8,1.769-38.041-3.538,3.538-30.078,10.615-31.842S903.381,798.893,903.381,798.893Z" transform="translate(-756.486 -249.284)" fill="#090814"/><path d="M997.918,788.134s12.386,18.152,21.145,19.676,24.95,6.042,15.523,13.515-38.978,4.738-51.146,2.261-38.821-9-35.691-13.632,11.493-28.021,18.785-27.824S997.918,788.134,997.918,788.134Z" transform="translate(-947.496 -252.419)" fill="#090814"/><path d="M1027.424,571.14s11.386,77.974,8.733,92.13-4.424,36.272-4.424,36.272,1.769,18.578,0,27.424-10.615,122.969-11.5,122.969-35.386,3.538-37.155,0,1.769-53.08,1.769-53.08,1.769-43.348,2.655-69.888S979.54,673,979.54,673a101.215,101.215,0,0,1-23,59.273c-23,27.424-34.5,78.735-34.5,78.735s-3.491,11.871-.838,18.948-34.548,1.393-37.2-1.254,7.077-24.771,7.077-28.309,15.921-80.5,40.694-102.62l1.769-80.5s-22.116-56.619.886-61.926S1027.424,571.14,1027.424,571.14Z" transform="translate(-870.684 -295.016)" fill="#090814"/><path d="M959.589,394.752s-15.039,37.155-11.5,42.463-43.349-17.694-43.349-17.694,15.039-37.155,15.039-41.579S959.589,394.752,959.589,394.752Z" transform="translate(-818.887 -328.167)" fill="#ed9da0"/><ellipse cx="32.733" cy="32.733" rx="32.733" ry="32.733" transform="translate(96.909 10.408)" fill="#ed9da0"/><path d="M923.5,400.545a31.046,31.046,0,0,1,28.061,11.162c11.5,14.154,13.27,17.694,13.27,17.694s27.424,44.234,22.116,66.35a63.983,63.983,0,0,0-3.538,6.193c-1.769,3.538-1.769,53.08,0,61.043s3.538,10.615,1.769,22.116,14.148,30.076-4.438,33.623-39.8-20.347-59.274-20.347a46.816,46.816,0,0,1-31.842-13.27s6.193-32.733,7.96-37.155-12.8-75.256,0-103.5,17.694-33.621,17.694-33.621S918.193,397.893,923.5,400.545Z" transform="translate(-831.2 -323.891)" fill="#6c63ff"/><path d="M921.148,471v38.924L949.457,603.7s18.578,48.656,0,48.656-17.583-46.441-17.583-46.441l-39.92-70.334s-15.921-55.733-14.154-60.157S921.148,471,921.148,471Z" transform="translate(-784.87 -310.64)" fill="#ed9da0"/><path d="M935.9,422.562s26.54,10.615,19.463,38.924,0,27.424,0,27.424-36.272-3.538-47.763,4.424l-2.655-10.615S894.327,421.676,935.9,422.562Z" transform="translate(-814.658 -319.705)" fill="#6c63ff"/><path d="M953.57,354.7a13.059,13.059,0,0,0,12.267-1.909,9.883,9.883,0,0,0,2.786-11.666c-1.693-3.323-5.317.8-8.792-.573a81.708,81.708,0,0,0-23.945-5.407,21.785,21.785,0,0,0-11.517,1.554c-1.727.884-3.228,2.161-4.94,3.077-3.146,1.686-6.808,2.06-10.209,3.144-7.039,2.3-12.737,1.592-15.616,8.42a30.787,30.787,0,0,0-1.924,7.127,39.69,39.69,0,0,0,2.064,19.869c3.771,10.04,11.68,18.818,12.128,29.535,4.84-3.513,14.62-1.026,18.5-5.577,2.886-3.365-1.154-14.476,3.2-15.311,1.206-.074,4.432-3.009,7.863-19.7.675-3.184,1.526-6.653,4.141-8.587a12.538,12.538,0,0,1,5.4-1.9,84.691,84.691,0,0,1,13.829-1.262" transform="translate(-810.873 -334.942)" fill="#090814"/></g><g transform="translate(1010.677 65.919)"><g transform="translate(59.433 174.875)"><path d="M125.274,660.508H269.691v-1.039H126.313V609.079H257.551l6.375-13.282-.937-.45L256.9,608.039H125.274Z" transform="translate(-9.428 -436.608)" fill="#2f2e41"/><ellipse cx="10.909" cy="10.909" rx="10.909" ry="10.909" transform="translate(230.133 227.536)" fill="#3f3d56"/><ellipse cx="10.909" cy="10.909" rx="10.909" ry="10.909" transform="translate(122.599 227.536)" fill="#3f3d56"/><ellipse cx="6.753" cy="6.753" rx="6.753" ry="6.753" transform="translate(0 0)" fill="#3f3d56"/><path d="M251.82,592.338H414.146L449.27,477.531H215.648l.213.675ZM413.378,591.3h-160.8L217.065,478.57h230.8Z" transform="translate(-151.42 -437.01)" fill="#2f2e41"/><path d="M114.031,514.835H256.607l30.85-101.82H82.26l.187.6Z" transform="translate(-0.959 -365.482)" fill="#f2f2f2"/><path d="M495.551,368l1-.267L489.7,341.894H449.818v1.039H488.9Z" transform="translate(-434.233 -337.738)" fill="#2f2e41"/><rect width="210.597" height="1.039" transform="translate(75.903 75.326)" fill="#2f2e41"/><rect width="186.826" height="1.039" transform="translate(87.963 113.604)" fill="#2f2e41"/><rect width="1.039" height="113.768" transform="translate(180.522 41.04)" fill="#2f2e41"/><rect width="114.01" height="1.039" transform="translate(140.425 154.841) rotate(-93.751)" fill="#2f2e41"/><rect width="1.039" height="114.009" transform="matrix(-0.998, -0.065, 0.065, -0.998, 221.678, 154.84)" fill="#2f2e41"/></g><g transform="translate(219.036 0)"><path d="M395.19,222.66h-10.2a1.352,1.352,0,0,0-1.352,1.352v4.476a1.352,1.352,0,0,0,1.352,1.352h1.69v6.706H393.5v-6.706h1.69a1.352,1.352,0,0,0,1.352-1.352v-4.476a1.352,1.352,0,0,0-1.352-1.352Z" transform="translate(-374.251 -222.66)" fill="#6c63ff"/><path d="M396.9,269.826a52.426,52.426,0,0,1-9.121-31.083,1.106,1.106,0,0,0-.863-1.1v-1.934h-10.77v1.907h-.148a1.105,1.105,0,0,0-1.1,1.107q0,.04,0,.08a47.844,47.844,0,0,1-8.6,31.82,3.046,3.046,0,0,0-.551,1.846l1.178,36.427a3.153,3.153,0,0,0,3.127,3.044h24.36a3.155,3.155,0,0,0,3.128-3.1l.454-35.368A6.383,6.383,0,0,0,396.9,269.826Z" transform="translate(-365.745 -228.863)" fill="#3f3d56"/><path d="M396.318,225.44a2.917,2.917,0,0,1-5.834,0" transform="translate(-377.507 -223.983)" opacity="0.2" style="isolation:isolate"/><path d="M396.587,317.871h-2.95a7.742,7.742,0,0,0-15.3,0h-2.95a2.177,2.177,0,0,0-2.152,2.508l3.2,20.827h18.4l3.892-20.757a2.177,2.177,0,0,0-2.14-2.578Z" transform="translate(-369.29 -264.806)" fill="#6c63ff"/><g transform="translate(48.005 18.674)"><circle cx="2.506" cy="2.506" r="2.506" transform="translate(105.219 0)" fill="#6c63ff"/><g transform="translate(0 2.506)"><path d="M142.247,42.513l.3.3L127.566,57.784l-4.7-4.7-8.25,8.251L104.488,51.206l-17.23,17.23L79.425,60.6,62.3,77.731l-9.607-9.608-17.6,17.605-.3-.3,17.9-17.9L62.3,77.14,79.425,60.014l7.832,7.832,17.23-17.23,10.129,10.129,8.25-8.25,4.7,4.7Z" transform="translate(-34.791 -42.513)" fill="#6c63ff"/><circle cx="2.506" cy="2.506" r="2.506" transform="translate(66.459 6.204)" fill="#6c63ff"/><circle cx="2.506" cy="2.506" r="2.506" transform="translate(15.498 22.704)" fill="#6c63ff"/></g></g><path d="M11.183-77.652v-2.111a6.424,6.424,0,0,1-4.035-1.514,5.036,5.036,0,0,1-1.585-3.731H8.428a2.532,2.532,0,0,0,.859,1.839,3.536,3.536,0,0,0,1.9.79v-5.049l-.872-.241a7.082,7.082,0,0,1-3.169-1.655,3.887,3.887,0,0,1-1.136-2.912,4.571,4.571,0,0,1,.667-2.472,4.961,4.961,0,0,1,1.839-1.724,6.664,6.664,0,0,1,2.666-.79V-99.38h1.3v2.148a6.43,6.43,0,0,1,2.745.754,4.95,4.95,0,0,1,1.832,1.713,4.656,4.656,0,0,1,.7,2.4H14.947a2.3,2.3,0,0,0-.752-1.544,3.086,3.086,0,0,0-1.707-.719v4.763l.729.193a10.5,10.5,0,0,1,2.288.885,5.035,5.035,0,0,1,1.785,1.552,4.138,4.138,0,0,1,.689,2.456A4.6,4.6,0,0,1,16.538-81.3a6.225,6.225,0,0,1-4.05,1.531v2.113Zm1.3-4.739a3.319,3.319,0,0,0,1.876-.8,2.1,2.1,0,0,0,.712-1.611,1.645,1.645,0,0,0-.707-1.434,6.2,6.2,0,0,0-1.879-.828Zm-1.3-7.826v-4.4a2.854,2.854,0,0,0-1.647.754,1.962,1.962,0,0,0-.592,1.439,1.659,1.659,0,0,0,.689,1.434,5.487,5.487,0,0,0,1.552.772Z" transform="translate(42.442 99.382)" fill="#6c63ff"/></g><g transform="translate(262.761 118.626)"><g transform="translate(0 15.781)"><path d="M604.327,438.277a21.326,21.326,0,0,1,6.376-5.627,21.39,21.39,0,0,1-3.508,7.794c-2.712,3.694-5.565,6.235-6.36,5.628S601.583,441.972,604.327,438.277Z" transform="translate(-577.826 -432.65)" fill="#090814"/><path d="M541.8,346.77h1.559a.748.748,0,0,1,.748.748V365.18H541.15V347.518a.748.748,0,0,1,.655-.748Z" transform="translate(-519.092 -344.245)" fill="#090814"/><path d="M635.884,461.53a24.942,24.942,0,0,1-49.884,0c0-11.426,7.685-18.192,18.177-20.172a36.648,36.648,0,0,1,6.766-.608,38.254,38.254,0,0,1,4.677.281C627.155,442.465,635.884,449.355,635.884,461.53Z" transform="translate(-586 -428.123)" fill="#fc4a4a"/><path d="M615.1,485.829a24.942,24.942,0,0,1-24.942-24.942c0-11.224,7.4-17.943,17.6-20.047a33.6,33.6,0,0,0-3.586.468C593.685,443.287,586,450.053,586,461.479a24.942,24.942,0,0,0,24.942,24.942,24.444,24.444,0,0,0,5.6-.639C616.055,485.813,615.619,485.829,615.1,485.829Z" transform="translate(-586 -428.073)" opacity="0.1"/></g><g transform="translate(65.642 6.943)"><circle cx="2.506" cy="2.506" r="2.506" transform="translate(105.219 0)" fill="#6c63ff"/><g transform="translate(0 2.506)"><path d="M142.247,42.513l.3.3L127.566,57.784l-4.7-4.7-8.25,8.251L104.488,51.206l-17.23,17.23L79.425,60.6,62.3,77.731l-9.607-9.608-17.6,17.605-.3-.3,17.9-17.9L62.3,77.14,79.425,60.014l7.832,7.832,17.23-17.23,10.129,10.129,8.25-8.25,4.7,4.7Z" transform="translate(-34.791 -42.513)" fill="#6c63ff"/><circle cx="2.506" cy="2.506" r="2.506" transform="translate(66.459 6.204)" fill="#6c63ff"/><circle cx="2.506" cy="2.506" r="2.506" transform="translate(15.498 22.704)" fill="#6c63ff"/></g></g><path d="M11.183-77.652v-2.111a6.424,6.424,0,0,1-4.035-1.514,5.036,5.036,0,0,1-1.585-3.731H8.428a2.532,2.532,0,0,0,.859,1.839,3.536,3.536,0,0,0,1.9.79v-5.049l-.872-.241a7.082,7.082,0,0,1-3.169-1.655,3.887,3.887,0,0,1-1.136-2.912,4.571,4.571,0,0,1,.667-2.472,4.961,4.961,0,0,1,1.839-1.724,6.664,6.664,0,0,1,2.666-.79V-99.38h1.3v2.148a6.43,6.43,0,0,1,2.745.754,4.95,4.95,0,0,1,1.832,1.713,4.656,4.656,0,0,1,.7,2.4H14.947a2.3,2.3,0,0,0-.752-1.544,3.086,3.086,0,0,0-1.707-.719v4.763l.729.193a10.5,10.5,0,0,1,2.288.885,5.035,5.035,0,0,1,1.785,1.552,4.138,4.138,0,0,1,.689,2.456A4.6,4.6,0,0,1,16.538-81.3a6.225,6.225,0,0,1-4.05,1.531v2.113Zm1.3-4.739a3.319,3.319,0,0,0,1.876-.8,2.1,2.1,0,0,0,.712-1.611,1.645,1.645,0,0,0-.707-1.434,6.2,6.2,0,0,0-1.879-.828Zm-1.3-7.826v-4.4a2.854,2.854,0,0,0-1.647.754,1.962,1.962,0,0,0-.592,1.439,1.659,1.659,0,0,0,.689,1.434,5.487,5.487,0,0,0,1.552.772Z" transform="translate(60.08 99.38)" fill="#6c63ff"/></g><g transform="translate(0 69.415)"><path d="M17.813-6.34c9.838,0,17.813,18.072,17.813,27.91A17.813,17.813,0,1,1,0,21.57C0,11.732,7.975-6.34,17.813-6.34Z" transform="translate(0 29.979)" fill="#f9a825"/><g transform="translate(51.384 23.639)"><circle cx="2.506" cy="2.506" r="2.506" transform="translate(105.219 0)" fill="#6c63ff"/><g transform="translate(0 2.506)"><path d="M142.247,42.513l.3.3L127.566,57.784l-4.7-4.7-8.25,8.251L104.488,51.206l-17.23,17.23L79.425,60.6,62.3,77.731l-9.607-9.608-17.6,17.605-.3-.3,17.9-17.9L62.3,77.14,79.425,60.014l7.832,7.832,17.23-17.23,10.129,10.129,8.25-8.25,4.7,4.7Z" transform="translate(-34.791 -42.513)" fill="#6c63ff"/><circle cx="2.506" cy="2.506" r="2.506" transform="translate(66.459 6.204)" fill="#6c63ff"/><circle cx="2.506" cy="2.506" r="2.506" transform="translate(15.498 22.704)" fill="#6c63ff"/></g></g><path d="M11.183-77.652v-2.111a6.424,6.424,0,0,1-4.035-1.514,5.036,5.036,0,0,1-1.585-3.731H8.428a2.532,2.532,0,0,0,.859,1.839,3.536,3.536,0,0,0,1.9.79v-5.049l-.872-.241a7.082,7.082,0,0,1-3.169-1.655,3.887,3.887,0,0,1-1.136-2.912,4.571,4.571,0,0,1,.667-2.472,4.961,4.961,0,0,1,1.839-1.724,6.664,6.664,0,0,1,2.666-.79V-99.38h1.3v2.148a6.43,6.43,0,0,1,2.745.754,4.95,4.95,0,0,1,1.832,1.713,4.656,4.656,0,0,1,.7,2.4H14.947a2.3,2.3,0,0,0-.752-1.544,3.086,3.086,0,0,0-1.707-.719v4.763l.729.193a10.5,10.5,0,0,1,2.288.885,5.035,5.035,0,0,1,1.785,1.552,4.138,4.138,0,0,1,.689,2.456A4.6,4.6,0,0,1,16.538-81.3a6.225,6.225,0,0,1-4.05,1.531v2.113Zm1.3-4.739a3.319,3.319,0,0,0,1.876-.8,2.1,2.1,0,0,0,.712-1.611,1.645,1.645,0,0,0-.707-1.434,6.2,6.2,0,0,0-1.879-.828Zm-1.3-7.826v-4.4a2.854,2.854,0,0,0-1.647.754,1.962,1.962,0,0,0-.592,1.439,1.659,1.659,0,0,0,.689,1.434,5.487,5.487,0,0,0,1.552.772Z" transform="translate(45.822 99.38)" fill="#6c63ff"/></g></g></g></svg>