<svg xmlns="http://www.w3.org/2000/svg" width="685" height="385" viewBox="0 0 685 385" xmlns:xlink="http://www.w3.org/1999/xlink"><path d="m678.31738,384H6.68262c-3.13379,0-5.68262-2.54883-5.68262-5.68262V6.68262C1,3.54883,3.54883,1,6.68262,1h671.63477c3.13379,0,5.68262,2.54883,5.68262,5.68262v371.63477c0,3.13379-2.54883,5.68262-5.68262,5.68262Z" fill="#fff" stroke-width="0"/><path d="m678.31738,384H6.68262c-3.13379,0-5.68262-2.54883-5.68262-5.68262V6.68262C1,3.54883,3.54883,1,6.68262,1h671.63477c3.13379,0,5.68262,2.54883,5.68262,5.68262v371.63477c0,3.13379-2.54883,5.68262-5.68262,5.68262Z" fill="none" stroke="#d4d4d4" stroke-miterlimit="10" stroke-width="2"/><path d="m55.56836,40h-26.13672c-3.54688,0-6.43164-2.88477-6.43164-6.43164v-3.13672c0-3.54688,2.88477-6.43164,6.43164-6.43164h26.13672c3.54688,0,6.43164,2.88477,6.43164,6.43164v3.13672c0,3.54688-2.88477,6.43164-6.43164,6.43164Z" fill="#d4d4d4" stroke-width="0"/><path d="m591.5,38h-14c-3.58398,0-6.5-2.91602-6.5-6.5s2.91602-6.5,6.5-6.5h14c3.58398,0,6.5,2.91602,6.5,6.5s-2.91602,6.5-6.5,6.5Z" fill="#d4d4d4" stroke-width="0"/><path d="m623.5,38h-14c-3.58398,0-6.5-2.91602-6.5-6.5s2.91602-6.5,6.5-6.5h14c3.58398,0,6.5,2.91602,6.5,6.5s-2.91602,6.5-6.5,6.5Z" fill="#d4d4d4" stroke-width="0"/><path d="m655.5,38h-14c-3.58398,0-6.5-2.91602-6.5-6.5s2.91602-6.5,6.5-6.5h14c3.58398,0,6.5,2.91602,6.5,6.5s-2.91602,6.5-6.5,6.5Z" fill="#d4d4d4" stroke-width="0"/><path d="m653.98828,292H252.01172c-4.41797,0-8.01172-3.59375-8.01172-8.01172V66.01172c0-4.41797,3.59375-8.01172,8.01172-8.01172h401.97656c4.41797,0,8.01172,3.59375,8.01172,8.01172v217.97656c0,4.41797-3.59375,8.01172-8.01172,8.01172Z" fill="#6c63ff" stroke-width="0"/><path d="m120,148H31c-3.85938,0-7-3.14062-7-7s3.14062-7,7-7h89c3.85938,0,7,3.14062,7,7s-3.14062,7-7,7Z" fill="#d4d4d4" stroke-width="0"/><path d="m172,170H28c-2.75684,0-5-2.24316-5-5s2.24316-5,5-5h144c2.75684,0,5,2.24316,5,5s-2.24316,5-5,5Z" fill="#d4d4d4" stroke-width="0"/><path d="m172,192H28c-2.75684,0-5-2.24316-5-5s2.24316-5,5-5h144c2.75684,0,5,2.24316,5,5s-2.24316,5-5,5Z" fill="#d4d4d4" stroke-width="0"/><path d="m121.5,338c-7.44434,0-13.5-6.05566-13.5-13.5s6.05566-13.5,13.5-13.5,13.5,6.05566,13.5,13.5-6.05566,13.5-13.5,13.5Z" fill="#d4d4d4" stroke-width="0"/><path d="m217,357.5H26.5c-1.92969,0-3.5-1.57031-3.5-3.5s1.57031-3.5,3.5-3.5h190.5c1.92969,0,3.5,1.57031,3.5,3.5s-1.57031,3.5-3.5,3.5Z" fill="#d4d4d4" stroke-width="0"/><path d="m217,370.5H26.5c-1.92969,0-3.5-1.57031-3.5-3.5s1.57031-3.5,3.5-3.5h190.5c1.92969,0,3.5,1.57031,3.5,3.5s-1.57031,3.5-3.5,3.5Z" fill="#d4d4d4" stroke-width="0"/><path d="m342.5,338c-7.44434,0-13.5-6.05566-13.5-13.5s6.05566-13.5,13.5-13.5,13.5,6.05566,13.5,13.5-6.05566,13.5-13.5,13.5Z" fill="#d4d4d4" stroke-width="0"/><path d="m438,357.5h-190.5c-1.92969,0-3.5-1.57031-3.5-3.5s1.57031-3.5,3.5-3.5h190.5c1.92969,0,3.5,1.57031,3.5,3.5s-1.57031,3.5-3.5,3.5Z" fill="#d4d4d4" stroke-width="0"/><path d="m438,370.5h-190.5c-1.92969,0-3.5-1.57031-3.5-3.5s1.57031-3.5,3.5-3.5h190.5c1.92969,0,3.5,1.57031,3.5,3.5s-1.57031,3.5-3.5,3.5Z" fill="#d4d4d4" stroke-width="0"/><path d="m562.5,338c-7.44434,0-13.5-6.05566-13.5-13.5s6.05566-13.5,13.5-13.5,13.5,6.05566,13.5,13.5-6.05566,13.5-13.5,13.5Z" fill="#d4d4d4" stroke-width="0"/><path d="m658,357.5h-190.5c-1.92969,0-3.5-1.57031-3.5-3.5s1.57031-3.5,3.5-3.5h190.5c1.92969,0,3.5,1.57031,3.5,3.5s-1.57031,3.5-3.5,3.5Z" fill="#d4d4d4" stroke-width="0"/><path d="m658,370.5h-190.5c-1.92969,0-3.5-1.57031-3.5-3.5s1.57031-3.5,3.5-3.5h190.5c1.92969,0,3.5,1.57031,3.5,3.5s-1.57031,3.5-3.5,3.5Z" fill="#d4d4d4" stroke-width="0"/><path d="m58.5,219h-26c-3.58398,0-6.5-2.91602-6.5-6.5s2.91602-6.5,6.5-6.5h26c3.58398,0,6.5,2.91602,6.5,6.5s-2.91602,6.5-6.5,6.5Z" fill="#d4d4d4" stroke-width="0"/></svg>