<svg xmlns="http://www.w3.org/2000/svg" width="929.859" height="461.09" viewBox="0 0 929.859 461.09">
  <g id="Group_96" data-name="Group 96" transform="translate(-475 -311.411)">
    <g id="Group_95" data-name="Group 95" transform="translate(559.617 691.958) rotate(169)">
      <path id="Path_1525" data-name="Path 1525" d="M43.9,22.3C43.9,5.772,34.071,0,21.949,0S0,5.772,0,22.3,21.949,59.862,21.949,59.862,43.9,38.832,43.9,22.3Z" transform="translate(0 22.962) rotate(-16)" fill="#f1f1f1"/>
      <path id="Path_1526" data-name="Path 1526" d="M8.822,17.6l.225,13.834L18.4,48.554,9.082,33.609l.1,6.221,6.447,12.382L9.21,41.476h0l.181,11.188,6.9,9.858-6.875-8.1.113,20.514L8.82,47.78l.059,1.12L1.859,59.645l6.907-12.9L8.112,34.255l-.02.332L0,45.894,8.068,33.415l-.082-1.563-.015-.023.007-.128L6.319,0H8.536L8.8,16.374,16.85,28.822Z" transform="translate(7.694 5.073) rotate(-16)" fill="#e5e5e5"/>
    </g>
    <rect id="Rectangle_375" data-name="Rectangle 375" width="929.859" height="2.477" transform="translate(475 692.086)" fill="#cbcbcb"/>
    <g id="Group_94" data-name="Group 94" transform="translate(0 30.229)">
      <path id="Path_1525-2" data-name="Path 1525" d="M61.257,52.412c0,23.067-13.713,31.121-30.628,31.121S0,75.479,0,52.412,30.628,0,30.628,0,61.257,29.345,61.257,52.412Z" transform="translate(1323.934 557.496) rotate(16)" fill="#f1f1f1"/>
      <path id="Path_1526-2" data-name="Path 1526" d="M12.31,80l.314-19.3L25.679,36.816,12.673,57.671l.141-8.68,9-17.279-8.96,14.982h0l.253-15.612,9.634-13.756-9.595,11.3L13.3,0l-1,37.9.082-1.563L2.594,21.34l9.638,17.995L11.32,56.77l-.027-.463L0,40.529,11.258,57.942l-.114,2.181-.02.033.009.179L8.817,104.57h3.094l.371-22.849,11.23-17.37Z" transform="translate(1340.47 562.238) rotate(16)" fill="#e5e5e5"/>
    </g>
    <path id="Path_1527" data-name="Path 1527" d="M346.7,221.411v4.283H229.372a67.9,67.9,0,0,0-67.9,67.9V542.161a67.9,67.9,0,0,0,67.9,67.9H873.014a67.9,67.9,0,0,0,67.9-67.9V293.6a67.9,67.9,0,0,0-67.9-67.9H430.207v-4.283Z" transform="translate(377.658 90)" fill="#090814"/>
    <path id="Path_1528" data-name="Path 1528" d="M229.846,240.146H872.541a50.712,50.712,0,0,1,50.712,50.711V540.615a50.712,50.712,0,0,1-50.711,50.712h-642.7a50.712,50.712,0,0,1-50.712-50.711v-30.3a24.1,24.1,0,0,0,33.19-22.309v-142.4a24.1,24.1,0,0,0-33.19-22.309V290.858a50.712,50.712,0,0,1,50.711-50.712Z" transform="translate(377.658 90)" fill="#fff"/>
    <circle id="Ellipse_296" data-name="Ellipse 296" cx="51.588" cy="51.588" r="51.588" transform="translate(744.482 394.57)" fill="#ff6583"/>
    <path id="Path_1529" data-name="Path 1529" d="M642.234,591.927H293.025a7.121,7.121,0,0,1-1.3-.1L456.88,305.742a11.564,11.564,0,0,1,20.13,0L587.853,497.725l5.31,9.186Z" transform="translate(377.658 90)" fill="#6c63ff"/>
    <path id="Path_1530" data-name="Path 1530" d="M544.893,374.426H425.665l58.529-85.015,4.212-6.124,2.106-3.062,5.31,9.186Z" transform="translate(475 307.5)" opacity="0.2" style="isolation: isolate"/>
    <path id="Path_1531" data-name="Path 1531" d="M836.672,591.927H534.634l58.529-85.016,4.212-6.124L673.644,390c5-7.261,17.029-7.713,22.908-1.37a13.789,13.789,0,0,1,1.1,1.37Z" transform="translate(377.658 90)" fill="#6c63ff"/>
    <path id="Path_1532" data-name="Path 1532" d="M251.157,461a10.743,10.743,0,0,1,3.069-16.184l23.222-95.049,16.941,5.408-25.076,94.4A10.8,10.8,0,0,1,251.157,461Z" transform="translate(377.658 90)" fill="#9f616a"/>
    <path id="Path_1533" data-name="Path 1533" d="M165.818,182.7l12.38,10.68,17.321,14.93,7.649-39.14.8-4.07.631-3.23L187.048,131.3l-14.63.84-1,.06-.02.22-.23,2.05-3,26.98-.07.65Z" transform="translate(475 307.5)" fill="#cacad9"/>
    <path id="Path_1534" data-name="Path 1534" d="M246.737,452.373h13.147l6.254-47.288h-19.4Z" transform="translate(475 307.5)" fill="#9f616a"/>
    <path id="Path_1536" data-name="Path 1536" d="M118.737,451.373h13.558l7.768-47.287H118.735Z" transform="translate(475 307.5)" fill="#9f616a"/>
    <path id="Path_1538" data-name="Path 1538" d="M206.279,648.049l33,5,48.01-162.48,50.99,163.48,37-5-48-190v-15l-6.5-22.5.68-6.09,4.73-42.59,2.05-18.47.133-1.193a4.055,4.055,0,0,0-3.193-4.417h0l-15.4-3.24h-25.17l-14.85,4.09-1.02.28-.46.13.23,1.92,3.48,29.18.19,1.6,3.36,28.13.74,6.17c-29,21-30,42-30,42Z" transform="translate(377.658 90)" fill="#d6d6e3"/>
    <circle id="Ellipse_297" data-name="Ellipse 297" cx="24.561" cy="24.561" r="24.561" transform="translate(653.334 373.775)" fill="#9f616a"/>
    <rect id="Rectangle_376" data-name="Rectangle 376" width="49" height="7" transform="translate(699.775 514.696) rotate(-172.549)" fill="#090814"/>
    <path id="Path_1539" data-name="Path 1539" d="M388.2,419.851a10.525,10.525,0,0,0-1.316,1.007l-48.056-12.251-3.278-11.593L317.4,399.675l3.809,21.088a8,8,0,0,0,7.035,6.534l56.111,5.909a10.5,10.5,0,1,0,3.839-13.355Z" transform="translate(377.658 90)" fill="#9f616a"/>
    <path id="Path_1540" data-name="Path 1540" d="M314.279,355.049l8.5-6.5c2.3-.872,5.447,1.605,6,4l12,49-25,18-3.5-5.5Z" transform="translate(377.658 90)" fill="#d6d6e3"/>
    <path id="Path_1542" data-name="Path 1542" d="M319.056,288c4.593-.563,5.492,1.426,9.072,4.358.684.56-2.973,12.872-6.225,13.514a15.854,15.854,0,0,0-12.384,15.157c.06,10.174,9.824,17.879,11.578,27.9,1.2,6.84-1.688,14.038-6.675,18.87s-11.843,7.443-18.751,8.15-13.893-.373-20.606-2.148c-6.741-1.782-13.378-4.311-19.034-8.388s-10.293-9.826-12.109-16.558-.512-14.451,4.168-19.62c5.359-5.919,14.274-7.954,18.91-14.456,5.2-7.288,3.274-17.666,7.479-25.567,2.808-5.275,8.125-8.873,13.792-10.769s11.719-2.27,17.692-2.453c3.14-.1,6.375-.129,9.3,1.016s5.5,3.753,5.648,6.891S319.056,288,319.056,288Z" transform="translate(377.658 90)" fill="#090814"/>
    <path id="Path_1543" data-name="Path 1543" d="M150.787,682.5h277a1,1,0,0,0,0-2h-277a1,1,0,1,0,0,2Z" transform="translate(377.658 90)" fill="#cbcbcb"/>
    <path id="Path_1562" data-name="Path 1562" d="M242.866,502.362c1.632,0,3.086-.037,4.184-.141,4.124-.378,8.063-3.427,10.044-5.208a2.812,2.812,0,0,0,.712-3.175h0a2.79,2.79,0,0,0-1.817-1.61l-10.9-3.116L227.429,477.2l-.2.356a31.46,31.46,0,0,0-2.389,5.363,2.387,2.387,0,0,0,.171,1.988,1.9,1.9,0,0,0,.816.682c-.319.334-1.32,1.016-4.406,1.506-4.5.712-5.452-3.954-5.489-4.147l-.03-.156-.134-.089c-2.144-1.38-3.464-2.01-3.917-1.877-.282.082-.757.23-2.04,12.937a13.063,13.063,0,0,0-.415,6.12c.66,3.041,13.954,2,16.617,1.758.074.007,10.029.72,16.847.72h.007Z" transform="translate(381.752 270.138)" fill="#090814"/>
    <path id="Path_1571" data-name="Path 1571" d="M242.866,502.362c1.632,0,3.086-.037,4.184-.141,4.124-.378,8.063-3.427,10.044-5.208a2.812,2.812,0,0,0,.712-3.175h0a2.79,2.79,0,0,0-1.817-1.61l-10.9-3.116L227.429,477.2l-.2.356a31.46,31.46,0,0,0-2.389,5.363,2.387,2.387,0,0,0,.171,1.988,1.9,1.9,0,0,0,.816.682c-.319.334-1.32,1.016-4.406,1.506-4.5.712-5.452-3.954-5.489-4.147l-.03-.156-.134-.089c-2.144-1.38-3.464-2.01-3.917-1.877-.282.082-.757.23-2.04,12.937a13.063,13.063,0,0,0-.415,6.12c.66,3.041,13.954,2,16.617,1.758.074.007,10.029.72,16.847.72h.007Z" transform="translate(509.223 269.138)" fill="#090814"/>
  </g>
</svg>
