<svg xmlns="http://www.w3.org/2000/svg" width="578.277" height="800.175" viewBox="0 0 578.277 800.175"><g transform="translate(-724.694 -161.92)"><path d="M2.659,0h25.91l3.063,36.91H0Z" transform="translate(1187.633 445.974)" fill="#ed9da0"/><path d="M119.292,695.818h-16.85l-8.017-65H119.3Z" transform="translate(1026.956 233.102)" fill="#ed9da0"/><path d="M43.023,62.073l-16.093,5L0,7.374,23.752,0Z" transform="matrix(0.921, 0.391, -0.391, 0.921, 1215.728, 857.147)" fill="#ed9da0"/><path d="M934.651,838.123H670.4v-2.159H935.043Z" transform="translate(367.928 110.955)" fill="#f2f2f2"/><g transform="translate(724.694 161.92)"><path d="M557.7,313.9c0,35.246-12.314,65.338-35.748,87.732-16.629,15.9-42.242,38.183-42.242,61.744v19.493H401.72V463.376c0-23.807-25.714-46.137-42.242-61.744-22.9-21.609-35.748-53.745-35.748-87.732v-.721a116.985,116.985,0,0,1,233.97.721Z" transform="translate(-276.037 -73.755)" fill="#6c63ff"/><path d="M479.446,485.378a2.737,2.737,0,0,1-2.737-2.736v-19.5c0-22.918,22.6-44.313,39.107-59.935,1.368-1.3,2.7-2.554,3.98-3.781,22.831-21.826,34.9-51.48,34.9-85.756,0-64.06-50.181-114.242-114.241-114.242h-.323a114.048,114.048,0,0,0-113.919,113.6v.639c0,33.568,12.715,64.821,34.886,85.75,1.123,1.061,2.29,2.153,3.487,3.274C381.3,418.344,404.2,439.779,404.2,463.146v19.5a2.736,2.736,0,1,1-5.473,0v-19.5c0-20.993-21.892-41.491-37.88-56.463q-1.8-1.688-3.5-3.288c-23.26-21.958-36.6-54.66-36.6-89.724v-.657A119.531,119.531,0,0,1,440.123,193.954h.338A119.089,119.089,0,0,1,560.168,312.423q0,.625,0,1.25c0,35.807-12.653,66.829-36.589,89.712-1.285,1.229-2.623,2.5-4,3.8-15.78,14.939-37.4,35.4-37.4,55.96v19.5a2.736,2.736,0,0,1-2.736,2.736Z" transform="translate(-275.774 -73.527)" fill="#3f3d56"/><path d="M475.035,551.057H423.042a4.561,4.561,0,1,1,0-9.122h51.993a4.561,4.561,0,1,1,0,9.122Z" transform="translate(-284.359 -104.093)" fill="#6c63ff"/><path d="M455.848,584.671h-11.19a21.389,21.389,0,0,1-11.032-3.056,2.548,2.548,0,0,1-1.157-2.932,2.633,2.633,0,0,1,2.556-1.954h30.456a2.633,2.633,0,0,1,2.556,1.954,2.548,2.548,0,0,1-1.157,2.932,21.386,21.386,0,0,1-11.032,3.056Z" transform="translate(-285.579 -107.149)" fill="#3f3d56"/><path d="M475.427,567.176l-52.3-.006-.162-.347a4.311,4.311,0,0,1,.821-3.7,4.429,4.429,0,0,1,3.487-1.686h44.293a4.429,4.429,0,0,1,3.487,1.687,4.285,4.285,0,0,1,.831,3.655l-.082.352Z" transform="translate(-284.742 -105.806)" fill="#3f3d56"/><path d="M315.17,203.171a4.543,4.543,0,0,1-3-1.125l-39.167-34.189a4.561,4.561,0,1,1,6-6.872l39.167,34.189a4.561,4.561,0,0,1-3,8Z" transform="translate(-271.444 -70.532)" fill="#e4e4e4"/><path d="M577.02,203.171a4.561,4.561,0,0,1-3-8l39.166-34.191a4.561,4.561,0,1,1,6,6.872l-39.167,34.189a4.542,4.542,0,0,1-3,1.128Z" transform="translate(-297.884 -70.532)" fill="#e4e4e4"/><path d="M486.78,533.312H408.79a4.561,4.561,0,1,1,0-9.122h77.99a4.561,4.561,0,0,1,0,9.122Z" transform="translate(-283.107 -102.534)" fill="#6c63ff"/><path d="M447.427,403.059l-16.218,97.483H421.95l16.474-98.979a4.563,4.563,0,1,1,9,1.5Z" transform="translate(-284.664 -91.428)" fill="#e6e6e6"/><path d="M481.591,500.541h-9.258l-16.218-97.483a4.563,4.563,0,1,1,9-1.5Z" transform="translate(-287.659 -91.428)" fill="#e6e6e6"/><path d="M419.485,399.561A4.561,4.561,0,0,1,424.045,395h50.163a4.561,4.561,0,1,1,0,9.122H424.045A4.561,4.561,0,0,1,419.485,399.561Z" transform="translate(-284.447 -91.186)" fill="#e6e6e6"/><path d="M451.542,149.042a4.561,4.561,0,0,1-4.561-4.561V66.491a4.561,4.561,0,0,1,9.122,0v77.99a4.561,4.561,0,0,1-4.561,4.561Z" transform="translate(-286.863 -61.931)" fill="#e4e4e4"/></g><path d="M870.775,559.068,881.3,571.3,867.688,819.871H838.6L823.941,628.6,778.471,825l-30.238-7.416,27.494-249.45Z" transform="translate(369.715 80.374)" fill="#090814"/><path d="M782.2,402.9l28.96-14.53,44.535.783,38.325,19.611-21.806,108.9,9.419,56.78h0a232.26,232.26,0,0,1-111.073.915l-.291-.07s21.648-76.81,12.432-100.251Z" transform="translate(370.272 76.059)" fill="#e6e6e6"/><path d="M865.238,346.74a32.8,32.8,0,1,0,0,.243Z" transform="translate(371.015 74.181)" fill="#ed9da0"/><path d="M778.028,480.382a11.752,11.752,0,0,0,17.071,5.769l58.8,31.084,1.9-14.324-57.139-33.694a11.815,11.815,0,0,0-20.64,11.164Z" transform="translate(370.447 77.976)" fill="#ed9da0"/><path d="M856.46,482.854a11.752,11.752,0,0,1-17.92,1.895l-64.182,17.466.559-18.186,63.845-16.582a11.815,11.815,0,0,1,17.7,15.41Z" transform="translate(370.376 77.981)" fill="#ed9da0"/><path d="M880.111,409.05l12.514-.784s14.651,19.332,6.525,40.31c0,0,1.408,75.358-31.041,72.262s-42.7-3.1-42.7-3.1l9.74-27.17,21.79-6.728s-6.716-29.624,6-41.95Z" transform="translate(371.666 76.562)" fill="#e6e6e6"/><path d="M791.7,408.609l-1.769-9.067s-26.083-.615-31.24,38.91c0,0-23.455,59.15-.465,66.767s48.279,0,48.279,0l-1.9-26.087-25.294-5.16s13.067-16.906,5.952-31.57Z" transform="translate(369.713 76.341)" fill="#e6e6e6"/><path d="M843.831,363.077c-2.412-.947-5.084-.9-7.634-1.365-9.118-1.68-16.151-10.977-15.285-20.208a11.122,11.122,0,0,0,.059-3.622c-.632-2.634-3.559-4.048-6.249-4.363s-5.468.088-8.084-.612c-4.039-1.082-7.057-4.766-8.08-8.82a19.979,19.979,0,0,1,1.3-12.266l1.255,2.617a10.169,10.169,0,0,0,2.57-4.975,6.413,6.413,0,0,1,5.3,3.355c1.621.724,1.423-2.98,3.039-3.713a3.034,3.034,0,0,1,2.153.28c3.561,1.195,7.337-.6,10.865-1.882a41.438,41.438,0,0,1,19.113-2.184c4.288.523,8.617,1.791,11.955,4.531a27.278,27.278,0,0,1,6.312,8.483c4.118,7.7,7.221,16.191,7.137,24.924a36.189,36.189,0,0,1-6.32,20.013c-2.1,3.061-8.9,13.68-13.416,12.511C844.143,374.316,850.624,365.741,843.831,363.077Z" transform="translate(370.976 73.952)" fill="#2f2e41"/><path d="M34.1,6.662S23-1.48,23,2.961,10.414,25.167,10.414,25.167s-20.725,14.8-3.7,14.8S31.14,37.01,31.14,37.01L48.9,25.167s4.441-5.181,2.961-11.1S45.2,0,45.2,0,39.282,8.142,34.1,6.662Z" transform="translate(1189.492 909.293) rotate(16)" fill="#090814"/><path d="M410.489,787.98s-1.532-7.659-6.893-3.83-19.914,15.319-19.914,15.319-26.808,6.127-9.957,13.787,55.147-3.064,55.147-3.064,1.532-24.51,0-23.744S411.255,789.511,410.489,787.98Z" transform="translate(719.091 133.064)" fill="#090814"/></g></svg>