<svg xmlns="http://www.w3.org/2000/svg" width="685.273" height="800.054" viewBox="0 0 685.273 800.054"><g transform="translate(-617 -140)"><path d="M665.294,269.316h-4.4V148.89a69.7,69.7,0,0,0-69.7-69.7H336.062a69.7,69.7,0,0,0-69.7,69.7V809.551a69.7,69.7,0,0,0,69.7,69.7H591.2a69.7,69.7,0,0,0,69.7-69.7V355.035h4.4Z" transform="translate(602 60.807)" fill="#090814"/><path d="M592.274,95.686h-33.3a24.729,24.729,0,0,1-22.9,34.069H389.9a24.729,24.729,0,0,1-22.9-34.069H335.9a52.051,52.051,0,0,0-52.051,52.051V807.429A52.051,52.051,0,0,0,335.9,859.479H592.264a52.051,52.051,0,0,0,52.051-52.051V147.737a52.051,52.051,0,0,0-52.039-52.051Z" transform="translate(603.747 62.447)" fill="#fff"/><g transform="translate(756.941 298.768)"><path d="M748.5,335.912s14.808,31.393,12.439,40.87a25.944,25.944,0,0,0,1.777,17.177l27.247-1.185,25.47-24.285s-38.5-26.655-36.132-39.686S748.5,335.912,748.5,335.912Z" transform="translate(-666.32 -259.744)" fill="#9f616a"/><path d="M808.162,376.12l11.846,73.448s0,66.34-3.554,67.525-18.954,0-18.954,0V442.461l4.739-65.156Z" transform="translate(-657.272 -250.197)" fill="#6c63ff"/><path d="M808.162,376.12l11.846,73.448s0,66.34-3.554,67.525-18.954,0-18.954,0V442.461l4.739-65.156Z" transform="translate(-657.272 -250.197)" opacity="0.1"/><path d="M706,644.693l9.477,36.724,14.216-10.662,13.031-29.616L726.139,621Z" transform="translate(-484.031 -87.557)" fill="#9f616a"/><path d="M905.094,733.12s-15.4,11.846-15.4,23.693c0,0-8.292,13.031-17.77,11.846v24.878s-29.616,15.4-7.108,18.954,39.093-24.878,39.093-24.878,21.324-34.355,17.77-39.093S905.094,733.12,905.094,733.12Z" transform="translate(-646.401 -184.277)" fill="#090814"/><path d="M811.4,490.444s22.6,24.554,11.934,62.463c0,0-11.847,85.295,26.062,117.28s62.786,101.88,62.786,101.88l-28.432,26.062s-30.8-69.894-62.786-97.141-35.539-58.048-35.539-58.048v-107.8L779.5,490.12Z" transform="translate(-660.595 -229.147)" fill="#090814"/><path d="M811.4,490.444s22.6,24.554,11.934,62.463c0,0-11.847,85.295,26.062,117.28s62.786,101.88,62.786,101.88l-28.432,26.062s-30.8-69.894-62.786-97.141-35.539-58.048-35.539-58.048v-107.8L779.5,490.12Z" transform="translate(-660.595 -229.147)" fill="#6f6f6f" opacity="0.1"/><path d="M622.846,664,611,677.031l4.739,10.662,14.216,4.739,24.878-9.477-3.554-14.216Z" transform="translate(-501.573 -79.617)" fill="#9f616a"/><path d="M823.384,774.936s-27.411,14.216-34.264,8.293a19.22,19.22,0,0,1-6.833-13.527s-13.725,1.681-22.862,7.6-20.382,7.977-27.411,13.031-6.853,14.216,14.848,15.4,76.523-1.185,76.523-7.108Z" transform="translate(-670.125 -177.523)" fill="#090814"/><path d="M744.176,504.228s-15.4,68.71,11.846,146.9c0,0,13.031,43.832,18.954,56.863s11.846,105.434,9.477,108.988c0,0,18.954,15.4,35.539,4.739,0,0-1.185-54.494,1.185-59.232s4.739-46.2-9.477-80.556-2.369-117.28-2.369-117.28S837.763,522,816.439,497.12Z" transform="translate(-667.919 -227.855)" fill="#090814"/><circle cx="33.17" cy="33.17" r="33.17" transform="translate(60.857 18.121)" fill="#9f616a"/><path d="M825.99,523.633s-9.477,14.216-16.585,7.108c-5.011-5.011-37.091,5.876-55.6,12.735-7.748,2.867-13.114,5.035-13.114,5.035s-.509-16.419-2.014-37.21c-1.73-23.859-4.762-53.5-9.833-70.593-9.477-31.986,14.216-45.017,14.216-45.017S763.2,372,762.019,368.444s53.309-21.324,53.309-21.324c5.923,1.185,10.662,54.494,10.662,54.494s-10.662,42.647-16.585,68.71S825.99,523.633,825.99,523.633Z" transform="translate(-670.361 -255.552)" fill="#6c63ff"/><path d="M732.878,497.12s-26.062,26.062-39.093,33.17-20.139,30.8-9.477,35.539,34.355-26.062,34.355-26.062l34.355-28.432Z" transform="translate(-679.129 -227.855)" fill="#9f616a"/><path d="M729.29,301.3c-3.03.27-4.762,4.086-3.784,6.967s3.789,4.765,6.66,5.772,5.94,1.352,8.814,2.35a25.94,25.94,0,0,1,7.835,4.55c8.188,6.706,13.037,16.924,14.58,27.395s.005,21.2-2.905,31.377c-1.542,5.391-4.06,11.3-9.329,13.214a104.816,104.816,0,0,0,16.825-5.706c3.984-1.877,7.724-4.252,11.751-6.035a73.678,73.678,0,0,1,18.6-4.878c4.484-.7,9.225-1.231,13.437.461a27.01,27.01,0,0,1,7.042,4.749L832.366,392.9q.354-7.423.467-14.855c.066-4.306.049-8.737-1.538-12.74-1.567-3.953-4.542-7.175-6.532-10.932-4.926-9.3-3.321-20.494-3.229-31.014.095-10.892-1.658-21.993-6.7-31.648s-13.653-17.74-24.155-20.631c-14.155-3.9-29.078,1.9-42.089,8.7a38.172,38.172,0,0,0-8.487,5.525,41.248,41.248,0,0,0-6.9,9.408l-6.442,10.795" transform="translate(-670.616 -269.824)" fill="#090814"/><path d="M811.077,409.952S788.569,495.247,786.2,501.17c-1.706,4.253-21.774,26.88-34.272,38.8C744.18,542.834,738.814,545,738.814,545s-.509-16.419-2.014-37.21c9.643-10.7,19.784-20.838,19.784-20.838s10.662-65.156,9.477-90.033,23.693-30.8,23.693-30.8C818.185,369.674,811.077,409.952,811.077,409.952Z" transform="translate(-668.48 -252.044)" opacity="0.1"/><path d="M789.429,362.12s-24.878,5.923-23.693,30.8-9.477,90.033-9.477,90.033-40.278,40.278-36.724,45.017,18.781,14.054,22.422,15.32,41.55-40.2,43.919-46.121,24.878-91.218,24.878-91.218S817.86,365.674,789.429,362.12Z" transform="translate(-671.709 -252.782)" fill="#6c63ff"/></g><g transform="translate(644.484 824.838)"><g transform="translate(0 0)"><path d="M481.73,621.157c.42-1.284,3.6-.719,3.905-1.867s-2.747-2.1-5.088-5.329c-.422-.582-3.082-4.246-2.062-5.788,1.933-2.922,15.386,4.355,18.615.272.709-.9,1-2.435,3.111-5.3.84-1.139,1.379-1.689,2.023-1.673.914.023,1.24,1.166,2.676,3.236,2.153,3.1,2.93,2.715,4.349,5.259,1.053,1.888,1.178,3.095,1.937,3.166,1.075.1,1.519-2.25,2.831-2.342,1.34-.093,2.681,2.23,3.345,4.045,1.247,3.406.475,6.009.3,8.6-.186,2.82.251,6.947,3.314,12.244l28.9,46.038c-6.206-9.385-23.821-34.978-30.918-44.365-2.049-2.71-4.251-5.431-7.639-5.943-3.263-.493-7.232,1.121-12.773,1.027-.647-.011-2.448-.064-2.886-1.019-.362-.789.537-1.475.21-2.217-.439-.995-2.413-.568-5.1-1.229a14.691,14.691,0,0,1-4.294-1.9c-.334-.2-5.312-3.215-4.753-4.924Z" transform="translate(-478.254 -570.494)" fill="#d6d6e3"/><path d="M468.755,627.995c.751-.165,1.391,1.559,2.043,1.378s.24-1.955,1.147-4.035c.164-.375,1.195-2.738,2.246-2.682,1.992.106,2.3,8.808,5.238,9.215a30.739,30.739,0,0,1,3.5,0c.8.084,1.227.189,1.4.51.252.455-.214.945-.816,2.247-.9,1.953-.487,2.221-1.326,3.652-.623,1.062-1.179,1.471-.995,1.864.261.556,1.543.1,1.966.714s-.321,1.959-1.02,2.809c-1.312,1.595-2.812,1.967-4.135,2.632a12.1,12.1,0,0,0-5.053,5.16l-14.258,27.466c2.816-5.754,10.294-21.784,12.854-27.976.739-1.787,1.439-3.653.713-5.464-.7-1.744-2.637-3.226-4.19-5.973-.181-.321-.675-1.22-.333-1.711.283-.405.879-.162,1.149-.537.362-.5-.417-1.348-.869-2.859a8.363,8.363,0,0,1-.307-2.655c0-.222.045-3.535,1.045-3.754h0Z" transform="translate(-389.598 -566.583)" fill="#d6d6e3"/><path d="M505.766,635.255l-.448-4.138-.275-.26a7.652,7.652,0,0,1-2.366-3.786c-.048-.208-.084-.419-.122-.634a6.47,6.47,0,0,0-1.151-3.007c-.458-.612-1.669-2-2.918-1.512a1.5,1.5,0,0,0-.723.577l-.124-.124a4.546,4.546,0,0,0-1.28-.9,5.321,5.321,0,0,1-1.056-.679c-.214-.171-.386-.325-.53-.455a1.942,1.942,0,0,0-1.767-.668,2.073,2.073,0,0,0-1.278,1.513,9.974,9.974,0,0,0-.5,1.966,3.12,3.12,0,0,1-.074.381c-.178.449-2.414.565-3.256.614-1.891.1-3.528.191-3.922,1.487-.282.927.306,1.937,1.8,3.083a6.751,6.751,0,0,0,1.336.787,1.384,1.384,0,0,0-.46.993h0c-.027,1.033,1.032,1.826,3.15,2.361a6.884,6.884,0,0,0,2.16.267,8.055,8.055,0,0,0,1.144-.151,1.36,1.36,0,0,0,.3.562,2.046,2.046,0,0,0,2.265.373,16.7,16.7,0,0,0,2.837-1.13,7.311,7.311,0,0,1,1.8-.691c.935-.131,1.806.446,2.849,1.214l2.614,1.961h0Z" transform="translate(-440.833 -567.141)" fill="#d6d6e3"/><path d="M474.747,615.866l4.116.616.321-.2a7.653,7.653,0,0,1,4.262-1.328c.214.007.427.025.644.043a6.47,6.47,0,0,0,3.2-.351c.708-.288,2.353-1.108,2.2-2.439a1.5,1.5,0,0,0-.374-.845l.151-.088a4.55,4.55,0,0,0,1.2-1.01,5.319,5.319,0,0,1,.925-.849c.22-.164.412-.291.574-.4a1.942,1.942,0,0,0,1.094-1.539,2.073,2.073,0,0,0-1.139-1.62,9.967,9.967,0,0,0-1.774-.982,3.125,3.125,0,0,1-.35-.168c-.389-.286.066-2.479.232-3.305.38-1.856.71-3.461-.443-4.17-.825-.508-1.951-.2-3.439.959a6.756,6.756,0,0,0-1.1,1.092,1.384,1.384,0,0,0-.844-.7h0c-.993-.289-2.028.536-3.082,2.448a6.885,6.885,0,0,0-.806,2.022,8.046,8.046,0,0,0-.144,1.145,1.362,1.362,0,0,0-.619.146,2.046,2.046,0,0,0-.935,2.1,16.7,16.7,0,0,0,.373,3.031,7.31,7.31,0,0,1,.213,1.912c-.111.937-.89,1.634-1.9,2.448l-2.559,2.031h0Z" transform="translate(-417.273 -571.32)" fill="#d6d6e3"/><path d="M512.531,604.926l-.448-4.138-.275-.26a7.653,7.653,0,0,1-2.366-3.786c-.047-.208-.084-.419-.122-.634a6.471,6.471,0,0,0-1.152-3.007c-.458-.612-1.669-2-2.918-1.512a1.5,1.5,0,0,0-.723.577l-.124-.124a4.548,4.548,0,0,0-1.28-.9,5.312,5.312,0,0,1-1.056-.679c-.214-.171-.386-.325-.53-.455a1.942,1.942,0,0,0-1.767-.668,2.073,2.073,0,0,0-1.278,1.513,9.969,9.969,0,0,0-.5,1.965,3.12,3.12,0,0,1-.074.381c-.178.449-2.414.565-3.256.614-1.891.1-3.528.191-3.922,1.487-.282.927.306,1.937,1.8,3.083a6.751,6.751,0,0,0,1.336.787,1.384,1.384,0,0,0-.46.993h0c-.027,1.033,1.032,1.826,3.15,2.361a6.884,6.884,0,0,0,2.16.267,8.045,8.045,0,0,0,1.144-.151,1.361,1.361,0,0,0,.3.562,2.046,2.046,0,0,0,2.265.372,16.693,16.693,0,0,0,2.837-1.13,7.315,7.315,0,0,1,1.8-.691c.935-.131,1.806.446,2.849,1.214l2.613,1.961h0Z" transform="translate(-455.611 -572.742)" fill="#d6d6e3"/><path d="M493.62,684.647l.728-.719-.013-1.022.013,1.022,1.012-.107c0-.1,0-.318.009-.665a144.654,144.654,0,0,0-.647-16.6,166.6,166.6,0,0,0-2.8-18.75c-1.3-6.239-2.64-10.881-3.719-14.612-.815-2.814-1.637-5.483-2.44-8.083a157.469,157.469,0,0,1-5.419-20.991,20.076,20.076,0,0,1,.329-9.253,19.024,19.024,0,0,1,3.521-6.658l-1.592-1.286a21.1,21.1,0,0,0-3.893,7.375,21.985,21.985,0,0,0-.383,10.161,158.982,158.982,0,0,0,5.482,21.253c.8,2.591,1.619,5.248,2.43,8.05,1.07,3.7,2.4,8.3,3.681,14.456a164.557,164.557,0,0,1,2.765,18.52,142.364,142.364,0,0,1,.637,16.371c-.02,1-.025,1.211.3,1.534h0Z" transform="translate(-423.353 -573.18)" fill="#d6d6e3"/><path d="M490.207,592.709c.082-.018.164-.039.247-.063,1.679-.471,3.026-1.839,4-4.067a14.3,14.3,0,0,0,.782-4.349,25.535,25.535,0,0,0,0-4.328c-.12-1.486-.279-2.082-.683-2.551a3.121,3.121,0,0,0-1.693-.971,1.156,1.156,0,0,0-.209-.571c-.526-.756-1.406-.446-1.883-.284a5.023,5.023,0,0,1-.878.253,2.57,2.57,0,0,1-1.326-.14,5.687,5.687,0,0,0-1.816-.284,6.1,6.1,0,0,0-3.085.95c-2,1.2-2.688,3.117-3.487,5.335a15.617,15.617,0,0,0-.808,4.121,4.574,4.574,0,0,0,.331,2.541c.458.9,1.16,1.315,2.9,2.191a27.44,27.44,0,0,0,3.48,1.614c1.742.547,2.835.89,4.122.6h0Z" transform="translate(-424.996 -575.323)" fill="#d6d6e3"/></g></g><path d="M0,669.135c0,.782,1.2,1.41,2.7,1.41h679.88c1.5,0,2.7-.628,2.7-1.41s-1.2-1.41-2.7-1.41H2.7C1.2,667.725,0,668.353,0,669.135Z" transform="translate(617 269.455)" fill="#f2f2f2"/><g transform="translate(959.637 455.742)"><path d="M89,147H33A24.027,24.027,0,0,1,9,123V107a8,8,0,1,1,16,0v16a8.009,8.009,0,0,0,8,8H89a8.009,8.009,0,0,0,8-8V27a8.009,8.009,0,0,0-8-8H33a8.009,8.009,0,0,0-8,8V43A8,8,0,1,1,9,43V27A24.027,24.027,0,0,1,33,3H89a24.027,24.027,0,0,1,24,24v96A24.027,24.027,0,0,1,89,147Z" transform="translate(47 -3)" fill="#f2f2f2"/><path d="M95.56,43.985H9.2A7.2,7.2,0,0,1,4.108,31.7L25.7,10.108A7.2,7.2,0,1,1,35.877,20.286l-9.3,9.3H95.56a7.2,7.2,0,0,1,0,14.394Z" transform="translate(9.243 35.212)" fill="#f2f2f2"/><path d="M30.788,46.985A7.175,7.175,0,0,1,25.7,44.877L4.108,23.286A7.2,7.2,0,0,1,14.286,13.108L35.877,34.7a7.2,7.2,0,0,1-5.089,12.286Z" transform="translate(9.243 53.803)" fill="#f2f2f2"/></g></g></svg>