<svg xmlns="http://www.w3.org/2000/svg" width="799.99" height="698.367" viewBox="0 0 799.99 698.367"><g transform="translate(-290 -151.205)"><g transform="translate(664.527 314.043)"><path d="M288.749,66.256a57.151,57.151,0,1,0-74.273,54.538L223,127.66,207.7,181.2l17.825,12.61,56.323-46.935s-12.168-15.5-18.693-32.973a57.089,57.089,0,0,0,25.595-47.645Z" transform="translate(-13.481 7.888)" fill="#ed9da0"/><path d="M395.285,235.2l40.947,142.291,41.409-28.739-48.8-124.146c4.255-7.881,5.313-18.24,2.081-28.48-5.656-17.916-22.26-28.646-37.088-23.965s-22.262,23-16.607,40.915c3.232,10.239,10.046,18.114,18.055,22.123Z" transform="translate(-375.336 -14.627)" fill="#ed9da0"/><rect width="147.703" height="172.031" transform="translate(156.603 276.757)" fill="#ed9da0"/><path d="M32.236,610.669H376.144a2.186,2.186,0,0,0,0-4.325H32.236a2.181,2.181,0,0,0,0,4.325Z" transform="translate(21.327 -75.139)" fill="#ccc"/><path d="M301.171,435.608l33.5,101.8,2,48.677H88.956l47.775-150.48Z" transform="translate(12.204 -51.404)" fill="#090814"/><path d="M248.28,151.484l35.112,80.184-3.474,137.808H161.248l-3.725-146.224,44.058-67.909Z" transform="translate(6.446 -11.905)" fill="#6c63ff"/><path d="M141.992,183.375s10.279,294.862,37.88,343.521c0,0-38.144,6.647-47.845-7.1S84.908,414.522,84.5,394.253,72.375,151.369,72.375,151.369l69.618,32.006Z" transform="translate(183.277 -11.889)" fill="#d6d6e3"/><path d="M358.932,164.069l-3.1-8.1-78.7,31.253s3.672,294.67-28.188,324.445c0,0,53.226-2.539,54.994-3.758s40.409-153.593,40.409-153.593-18.42-70.588-19.842-100.729,34.427-89.516,34.427-89.516Z" transform="translate(-147.805 -12.528)" fill="#d6d6e3"/><path d="M454.937,198.026l-19.969-5.761-45.916,92.989-19.678-50.932-48.617,13.89s22.1,143.407,55.506,135.694,78.673-86.467,78.673-86.467V198.026Z" transform="translate(-305.641 -17.575)" fill="#d6d6e3"/><path d="M69.518,508.669l67.013-97.418-30.807-27.1L42.753,490.174c-8.167,1.362-16.331,6.464-21.974,14.631-9.874,14.289-8.292,32.5,3.533,40.669S53.729,548.686,63.6,534.4c5.643-8.167,7.529-17.607,5.915-25.728Z" transform="translate(276.623 -44.25)" fill="#ed9da0"/><path d="M0,196.764l11.894-8.221,97.3,183.781s7.9,11.082-2.4,28.938S43.6,473.8,43.6,473.8L1.929,450.264l42.443-79.1-40.007-69.2L0,196.764Z" transform="translate(313.375 -17.057)" fill="#d6d6e3"/><path d="M397.054,69.188c3.817-18.674,5.648-28.24,19.523-41.45,3.293.466-.869,17.542,17.282,41.328,26.387,34.577,23.757,2.874,31.559,13.525,1.694,2.312,2.059,10.655,1.5,13.525-2.2,11.341-15.217.267-1.5,39.073,2.04,3.018,4.446,2.284,7.514,2.254.238,0-1.319-.3,4.509-1.5,2.781-.574,6.674-1.253,11.341-2.039C543,124.769,562.14,56.361,520.235,20.771c-9.534-8.1-18.891-14.234-27.015-17.078C468.752-4.872,413,.7,402.3,28.489a85.128,85.128,0,0,0-5.246,40.7Z" transform="translate(-235.107 0)" fill="#090814" stroke="#000" stroke-width="2"/><ellipse cx="38.667" cy="38.667" rx="38.667" ry="38.667" transform="translate(234.944 101.662)" fill="#090814" stroke="#000" stroke-width="2"/></g><path d="M-22471.115,11140.82a6.888,6.888,0,0,1-6.887-6.887v-1.725a6.888,6.888,0,0,1,6.887-6.887h51.66a6.888,6.888,0,0,1,6.891,6.887v1.725a6.888,6.888,0,0,1-6.891,6.887Zm24.971-22.386a6.888,6.888,0,0,1-6.887-6.888v-18.082h-18.084a6.888,6.888,0,0,1-6.887-6.888v-1.719a6.885,6.885,0,0,1,6.887-6.888h18.084v-18.083a6.888,6.888,0,0,1,6.887-6.887h1.725a6.888,6.888,0,0,1,6.887,6.887v18.083h18.078a6.886,6.886,0,0,1,6.891,6.888v1.719a6.889,6.889,0,0,1-6.891,6.888h-18.078v18.082a6.888,6.888,0,0,1-6.887,6.888Z" transform="translate(22842.986 -10873.341)" fill="#090814"/><g transform="translate(626.644 284.34)"><path d="M26.021,76.13A5.166,5.166,0,0,1,21.4,73.274L8.516,47.5H2.166a5.166,5.166,0,0,1,0-10.332h9.543a5.166,5.166,0,0,1,4.621,2.856L24.7,56.775,40.14,2.747A5.166,5.166,0,0,1,45.107-1h33.4a5.166,5.166,0,1,1,0,10.332H49L30.989,72.383A5.166,5.166,0,0,1,26.5,76.107C26.34,76.122,26.18,76.13,26.021,76.13Z" transform="translate(3 1)"/><g transform="translate(57.148 40.718)"><path d="M27,30.439a3.433,3.433,0,0,1-2.435-1.009L-2.991,1.879a3.444,3.444,0,0,1,0-4.87,3.444,3.444,0,0,1,4.87,0L29.431,24.56A3.444,3.444,0,0,1,27,30.439Z" transform="translate(4 4)" fill="#090814"/><path d="M-.556,30.439a3.433,3.433,0,0,1-2.435-1.009,3.444,3.444,0,0,1,0-4.87L24.56-2.991a3.444,3.444,0,0,1,4.87,0,3.444,3.444,0,0,1,0,4.87L1.879,29.431A3.433,3.433,0,0,1-.556,30.439Z" transform="translate(4 4)" fill="#090814"/></g></g><path d="M-22431.506,11112.407a6.887,6.887,0,0,1-6.889-6.888V11068.5h-13.777v37.021a6.888,6.888,0,0,1-6.887,6.888h-1.721a6.889,6.889,0,0,1-6.891-6.888V11068.5h-3.445a6.888,6.888,0,0,1-6.887-6.887v-1.725a6.888,6.888,0,0,1,6.887-6.887h51.66a6.888,6.888,0,0,1,6.891,6.887v1.725a6.888,6.888,0,0,1-6.891,6.887h-3.443v37.021a6.888,6.888,0,0,1-6.889,6.888Z" transform="translate(22969.283 -10702.999)" fill="#090814"/><g transform="translate(290 326.64)"><circle cx="46.5" cy="46.5" r="46.5" transform="translate(0 -0.435)" fill="#6c63ff"/><g transform="translate(24.335 28.488)"><g transform="translate(0 0)"><path d="M11.209,12.9a1.685,1.685,0,0,1-1.195-.495L-3.505-1.115a1.69,1.69,0,0,1,0-2.39,1.69,1.69,0,0,1,2.39,0L12.4,10.014A1.69,1.69,0,0,1,11.209,12.9Z" transform="translate(4 4)" fill="#fff"/><path d="M-2.31,12.9A1.685,1.685,0,0,1-3.505,12.4a1.69,1.69,0,0,1,0-2.39L10.014-3.505a1.69,1.69,0,0,1,2.39,0,1.69,1.69,0,0,1,0,2.39L-1.115,12.4A1.685,1.685,0,0,1-2.31,12.9Z" transform="translate(4 4)" fill="#fff"/></g><g transform="translate(31.262 18.588)"><path d="M0,0,4.527,7.423" transform="translate(1.69 1.69)" fill="#fff"/><path d="M2.218,6.8a1.689,1.689,0,0,1-1.444-.81L-3.753-1.431A1.69,1.69,0,0,1-3.19-3.753,1.69,1.69,0,0,1-.868-3.19L3.659,4.232A1.69,1.69,0,0,1,2.218,6.8Z" transform="translate(4.001 4.001)" fill="#fff"/><path d="M10.349,0l-6.9,14.041" transform="translate(1.015 1.69)" fill="#fff"/><path d="M1.133,13.421A1.691,1.691,0,0,1-.382,10.985l6.9-14.041a1.69,1.69,0,0,1,2.262-.771,1.69,1.69,0,0,1,.771,2.262l-6.9,14.041A1.69,1.69,0,0,1,1.133,13.421Z" transform="translate(3.326 4.001)" fill="#fff"/></g><path d="M-2.31,30.22a1.685,1.685,0,0,1-1.195-.495,1.69,1.69,0,0,1,0-2.39l30.84-30.84a1.69,1.69,0,0,1,2.39,0,1.69,1.69,0,0,1,0,2.39l-30.84,30.84A1.685,1.685,0,0,1-2.31,30.22Z" transform="translate(10.971 4.211)" fill="#fff"/></g></g><g transform="translate(533.658 151)"><circle cx="46.5" cy="46.5" r="46.5" transform="translate(0.342 0.205)" fill="#6c63ff"/><g transform="translate(21.308 25.866)"><path d="M1.787,36.251A6.794,6.794,0,0,1-5,29.465a2.833,2.833,0,0,1,2.833-2.833A2.833,2.833,0,0,1,.665,29.465a1.123,1.123,0,0,0,1.121,1.121c.687-.664,1.424-5.291,1.963-8.669.336-2.108.7-4.419,1.19-6.847.47-2.35.826-4.587,1.151-6.628C7.241,1.23,8.233-5,13.649-5a6.794,6.794,0,0,1,6.787,6.787,2.833,2.833,0,1,1-5.665,0A1.123,1.123,0,0,0,13.649.665c-.687.664-1.424,5.291-1.963,8.669-.336,2.108-.7,4.419-1.19,6.847-.47,2.35-.826,4.587-1.151,6.628C8.195,30.022,7.2,36.251,1.787,36.251Z" transform="translate(5 5)" fill="#fff"/><path d="M11.695,9.665H-.167A2.833,2.833,0,0,1-3,6.833,2.833,2.833,0,0,1-.167,4H11.695a2.833,2.833,0,1,1,0,5.665Z" transform="translate(6.954 13.793)" fill="#fff"/><path d="M9.9-79.869a24.982,24.982,0,0,1,.433-4.516,29.184,29.184,0,0,1,1.2-4.509,19.512,19.512,0,0,1,1.75-3.743h3.657A31.789,31.789,0,0,0,15.31-88.4a33.68,33.68,0,0,0-1.036,4.385,25.494,25.494,0,0,0-.36,4.149,19.746,19.746,0,0,0,.308,3.454,25.931,25.931,0,0,0,.977,3.723q.669,1.986,1.743,4.437H13.284a23.869,23.869,0,0,1-2.523-5.709A21.083,21.083,0,0,1,9.9-79.869Zm15.14,11.614q1.088-2.491,1.75-4.477a25.862,25.862,0,0,0,.963-3.716,19.9,19.9,0,0,0,.3-3.421,25.494,25.494,0,0,0-.36-4.149A33.68,33.68,0,0,0,26.662-88.4a32.983,32.983,0,0,0-1.619-4.234h3.644a18.756,18.756,0,0,1,1.757,3.743,29.676,29.676,0,0,1,1.193,4.509,24.983,24.983,0,0,1,.433,4.516A20.978,20.978,0,0,1,31.2-73.95a24.128,24.128,0,0,1-2.517,5.7Z" transform="translate(18.3 101.071)" fill="#fff"/></g></g></g></svg>