<svg xmlns="http://www.w3.org/2000/svg" width="609.475" height="764.945" viewBox="0 0 609.475 764.945"><g transform="translate(-447.992 -634.539)"><rect width="52" height="65" transform="translate(854 776.862)" fill="#ed9da0"/><rect width="16.139" height="47.931" transform="translate(882.448 1351.552)" fill="#f2f2f2"/><path d="M644.389,382.77H464.605a24.2,24.2,0,0,1-24.2-24.2h0a24.2,24.2,0,0,1,24.2-24.2H644.389a24.2,24.2,0,0,1,24.2,24.2h0A24.2,24.2,0,0,1,644.389,382.77Z" transform="translate(336.025 1005.654)" fill="#f2f2f2"/><path d="M559.494,518.933h0a19.592,19.592,0,0,0,19.592-19.592v-232.8a19.592,19.592,0,0,0-19.592-19.592h0A19.592,19.592,0,0,0,539.9,266.545c-59.5,45.538-35.319,136.168,0,232.8a19.592,19.592,0,0,0,19.592,19.592Z" transform="translate(434.75 869.49)" fill="#f2f2f2"/><path d="M738.239,404.177a65.828,65.828,0,0,1-13.965,28.748c-12.814,15.167-30.974,22.047-45.3,25.168a105.736,105.736,0,0,1-22.636,2.583l-60.489,4.987-47.8,3.939-48.034,3.964c2.737,11.51,5.346,24.733,7.827,38.877.281,1.688.588,3.4.9,5.115h-97.55l-1.637-5.115-10.026-31.076L379.19,436.941a50.49,50.49,0,0,1-3.069-38.775c.026-.077.026-.154.051-.23a38.439,38.439,0,0,1,25.551-24.477l14.451-4.374c40.974-9.566,98.394-24.477,142.182-36.038,36.575-9.668,63.61-17.034,63.61-17.034l.077-.512,7.571-51.768,75.478-6.624,24.528-2.174s-.537,2.558-.333,11.74c0,.563,0,1.151.026,1.739.051,1.79.128,3.837.23,6.113.026.767.077,1.56.128,2.379.077,1.586.179,3.274.307,5.09a1.931,1.931,0,0,0,.026.384c.128,2.276.307,4.757.537,7.417.051,1.1.153,2.225.256,3.376.486,5.806,1.1,12.456,1.893,20.027q.077,1.151.23,2.3c.1,1.2.23,2.4.358,3.632.256,2.149.486,4.348.742,6.65.026.23.051.435.077.665.23,2.021.486,4.092.716,6.241.281,2.328.563,4.706.87,7.136q.268,2.455.614,5.064c.1.819.2,1.663.307,2.506.128.9.23,1.816.358,2.737.2,1.637.409,3.325.639,5.039.486,3.811,1.023,7.75,1.56,11.842C741.129,381.516,740.566,393.818,738.239,404.177Z" transform="translate(231.988 881.925)" fill="#2f2e41"/><path d="M687.405,404.177l-19.771,8.543-105.1,45.373-17.52,7.571L502,484.232q1.842,9.707,3.939,19.157c.665,3.044,1.33,6.062,2.046,9.054.409,1.714.793,3.4,1.228,5.115H422.147l-.665-5.115-2.532-20.027c-5.039-4.5-8.006-13.121-9.8-22.278a203.836,203.836,0,0,1-2.865-25.628.873.873,0,0,0-.026-.256c-.716-12.482,23.659-20.768,33.4-28.544l11.97-3.964c24.733-17.162,61.487-43.148,97.064-68.393,13.479-9.566,26.8-19.029,39.21-27.853,38.57-27.47,68.6-48.929,68.6-48.929l-2.251-9.464,24.528-2.174s-.537,2.558-.333,11.74c0,.563,0,1.151.026,1.739.051,1.816.128,3.837.23,6.113.026.767.077,1.56.128,2.379.077,1.586.179,3.274.307,5.09a1.931,1.931,0,0,0,.026.384c.128,2.276.307,4.757.537,7.417.051,1.1.153,2.225.256,3.376.46,5.806,1.074,12.431,1.893,20.027q.077,1.151.23,2.3c.1,1.2.23,2.4.358,3.632.256,2.149.486,4.374.742,6.65.026.23.051.435.077.665.23,2.021.486,4.092.716,6.241.281,2.328.563,4.706.87,7.136q.307,2.494.614,5.064c.1.819.2,1.663.307,2.506.128.9.23,1.816.358,2.737.2,1.637.409,3.325.639,5.039.486,3.811,1.023,7.75,1.56,11.842C690.3,381.516,689.733,393.818,687.405,404.177Z" transform="translate(282.822 881.925)" fill="#2f2e41"/><path d="M662.005,484.5c4.431,17.162,2.653,28.928.9,45.706-.649,6.19,1.58,15.09-5.052,19.26-5.673,3.5-209.739,1.841-211.63-12.482-2.145-16.19,2.032-33.173,10.752-47.778,15.776-26.447,24.807-58.827,29.435-81.821,9.793-48.315-12.276-74.557-4.036-122.744a108.062,108.062,0,0,0,1.355-23.429c-1.129-25.858-9.934-47.8-7.14-70.081a63.323,63.323,0,0,1,10.668-27.93,84.485,84.485,0,0,1,6.575-8.594c14.562-16.83,18.372-29.516,43.658-29.49,3.866,0,7.986-.23,12.163-.409,6.688-.333,13.518-.563,19.557.409,14.506,2.327,11.288,10.589,20.658,19.643l3.612,3.274c9.031,6.445,16.848,11.484,24.75,19.26,15.86,15.6,39.82,134.611,34.543,152.285-4.6,15.346-5.813,31.46-8.946,47.138-4.036,20.283-7.7,40.284-9.567,60.72-1.439,16.037,23.508-10.486,23.565,5.576C657.885,449.668,657.828,468.39,662.005,484.5Z" transform="translate(334.746 678.919)" fill="#6c63ff"/><g transform="translate(632.588 803.344)"><path d="M417.175,147.865l56.955,10.2-1.285,33.348-59.832-12.923a19.369,19.369,0,1,1,4.163-30.622Z" transform="translate(-384.165 -96.984)" fill="#ed9da0"/><path d="M607.073,253.7a31.871,31.871,0,0,1-35.4,17.085c-.972-.2-4.271-1.125-9.336-2.609-.87-.256-1.79-.512-2.762-.793-5.755-1.662-13.249-3.862-21.817-6.343-8.492-2.481-18.108-5.269-28.058-8.133l-.051.026c-3.018-.921-6.138-1.816-9.233-2.711h-.051C477.219,243.65,453,236.949,435.35,232.652c-.818-.23-5.064,3.837-5.857,3.632-1.228-.307-1.458-4.988-2.609-5.269-2.481-.614-5.729,3.248-7.775,2.737-7.443-1.816-10.41-17.648-10.41-17.648l.333-2.66,3.734-31.971.051-.563,21.05-6.624,7.008,6.778,9.719-4.041,9.054,6.778,18.492,1.842,7.98.818.537.026,44.632,4.476,13.147,1.33q-1.573-7.98-2.456-15.781c-.153-1.458-.307-2.89-.409-4.323l-.026-.026c-.281-3.069-.46-6.087-.588-9.131a84.161,84.161,0,0,1,5.959-8.594c13.2-16.83,16.651-29.516,39.568-29.49,3.5,0,7.238-.23,11.024-.409l5.908,52.33,6.5,57.548.2,1.867A31.508,31.508,0,0,1,607.073,253.7Z" transform="translate(-345.95 -124.538)" fill="#6c63ff"/></g><path d="M561.118,182.735a10,10,0,0,0-9.949-1.023l-99.392,43.813a42.775,42.775,0,0,1-28.8,2.021l-1.458-.409c4.139-36.772-6.423-76.346-27.163-117.859a10.1,10.1,0,0,0-11.433,10.333l3.12,115.25,1.049,38.263c-22.667,27.154-30.865,52.277,1.944,71.641a10.162,10.162,0,0,0,15.3,8.44l2.021-1.2,27.291,38.238a15.339,15.339,0,0,1,13.249.946l49.645,28.57,33.813,19.464a10.129,10.129,0,0,0,15.167-7.954l.947-11.51,3.146-37.854,5.167-62.459,2.455-29.8.384-4.45,7.724-93.381a9.975,9.975,0,0,0-4.22-9.08Z" transform="translate(221.989 654.896)" fill="#d6d6e3"/><path d="M564.118,187.735a10,10,0,0,0-9.95-1.023c-35.954,27.681-70.723,49.87-99.392,43.813a42.776,42.776,0,0,1-28.8,2.021l-1.458-.409c4.139-36.772-6.423-76.346-27.163-117.859a10.1,10.1,0,0,0-11.433,10.333l3.12,115.25,1.049,38.263c-22.668,27.154-30.865,52.277,1.944,71.641a10.162,10.162,0,0,0,15.3,8.44l2.021-1.2,27.291,38.238a15.34,15.34,0,0,1,13.249.946l49.645,28.57,33.813,19.464a10.129,10.129,0,0,0,15.167-7.954l.947-11.51,3.146-37.854,5.167-62.459,2.455-29.8.384-4.45,7.724-93.381a9.975,9.975,0,0,0-4.22-9.08h0Z" transform="translate(226.663 662.684)" fill="#d6d6e3"/><rect width="78.503" height="4.609" transform="matrix(0.972, -0.236, 0.236, 0.972, 696.078, 920.844)" fill="#fff"/><rect width="78.503" height="4.609" transform="matrix(0.972, -0.236, 0.236, 0.972, 696.078, 955.418)" fill="#fff"/><rect width="4.609" height="78.503" transform="translate(695.471 986.735) rotate(-88.792)" fill="#fff"/><rect width="4.609" height="78.503" transform="translate(695.435 1019.86) rotate(-86.673)" fill="#fff"/><rect width="4.609" height="78.503" transform="translate(691.03 1052.771) rotate(-80.881)" fill="#fff"/><path d="M321.2,235.615H912.264c5.083,0,9.2,11.672,9.2,26.07v57.84c0,14.4-4.12,26.07-9.2,26.07H408.157c-5.083,0-9.2-11.672-9.2-26.07l-86.962-57.84c0-14.4,4.121-26.07,9.2-26.07Z" transform="translate(136 851.83)" fill="#f2f2f2"/><path d="M494.649,99.3q-.614-1.074-1.3-2.072c-.435-.691-.921-1.356-1.407-2a8.813,8.813,0,0,0-.716-.921,25.662,25.662,0,0,0-7.468-6.752,5.453,5.453,0,0,0-.537-.281,7.84,7.84,0,0,0-1.253-.563,10.13,10.13,0,0,0-2.4-.639A8.69,8.69,0,0,0,478.408,86c-.281,0-.563.026-.844.051-.153.026-.332.051-.511.077a5.678,5.678,0,0,0-.639.128,5.066,5.066,0,0,0-.665.2,6.656,6.656,0,0,0-.639.256,5.355,5.355,0,0,0-.665.333c-.23.128-.435.256-.639.384-.23.153-.435.307-.639.46q11.74,6.637,22.968,14.067c-.46-.921-.946-1.79-1.483-2.66h0Z" transform="translate(387.057 618.779)" fill="#3f3d56"/><path d="M494.649,99.3q-.614-1.074-1.3-2.072c-.435-.691-.921-1.356-1.407-2a8.813,8.813,0,0,0-.716-.921,25.662,25.662,0,0,0-7.468-6.752,5.453,5.453,0,0,0-.537-.281,7.84,7.84,0,0,0-1.253-.563,10.13,10.13,0,0,0-2.4-.639A8.69,8.69,0,0,0,478.408,86c-.281,0-.563.026-.844.051-.153.026-.332.051-.511.077a5.678,5.678,0,0,0-.639.128,5.066,5.066,0,0,0-.665.2,6.656,6.656,0,0,0-.639.256,5.355,5.355,0,0,0-.665.333c-.23.128-.435.256-.639.384-.23.153-.435.307-.639.46q11.74,6.637,22.968,14.067c-.46-.921-.946-1.79-1.483-2.66h0Z" transform="translate(387.057 618.779)" fill="#3f3d56"/><path d="M494.649,99.3q-.614-1.074-1.3-2.072c-.435-.691-.921-1.356-1.407-2a8.813,8.813,0,0,0-.716-.921,25.662,25.662,0,0,0-7.468-6.752,5.453,5.453,0,0,0-.537-.281,7.84,7.84,0,0,0-1.253-.563,10.13,10.13,0,0,0-2.4-.639A8.69,8.69,0,0,0,478.408,86c-.281,0-.563.026-.844.051-.153.026-.332.051-.511.077a5.678,5.678,0,0,0-.639.128,5.066,5.066,0,0,0-.665.2,6.656,6.656,0,0,0-.639.256,5.355,5.355,0,0,0-.665.333c-.23.128-.435.256-.639.384-.23.153-.435.307-.639.46q11.74,6.637,22.968,14.067c-.46-.921-.946-1.79-1.483-2.66h0Z" transform="translate(387.057 618.779)" fill="#3f3d56"/><path d="M494.649,99.3q-.614-1.074-1.3-2.072c-.435-.691-.921-1.356-1.407-2a8.813,8.813,0,0,0-.716-.921,25.662,25.662,0,0,0-7.468-6.752,5.453,5.453,0,0,0-.537-.281,7.84,7.84,0,0,0-1.253-.563,10.13,10.13,0,0,0-2.4-.639A8.69,8.69,0,0,0,478.408,86c-.281,0-.563.026-.844.051-.153.026-.332.051-.511.077a5.678,5.678,0,0,0-.639.128,5.066,5.066,0,0,0-.665.2,6.656,6.656,0,0,0-.639.256,5.355,5.355,0,0,0-.665.333c-.23.128-.435.256-.639.384-.23.153-.435.307-.639.46q11.74,6.637,22.968,14.067c-.46-.921-.946-1.79-1.483-2.66h0Z" transform="translate(387.057 618.779)" fill="#3f3d56"/><path d="M494.649,99.3q-.614-1.074-1.3-2.072c-.435-.691-.921-1.356-1.407-2a8.813,8.813,0,0,0-.716-.921,25.662,25.662,0,0,0-7.468-6.752,5.453,5.453,0,0,0-.537-.281,7.84,7.84,0,0,0-1.253-.563,10.13,10.13,0,0,0-2.4-.639A8.69,8.69,0,0,0,478.408,86c-.281,0-.563.026-.844.051-.153.026-.332.051-.511.077a5.678,5.678,0,0,0-.639.128,5.066,5.066,0,0,0-.665.2,6.656,6.656,0,0,0-.639.256,5.355,5.355,0,0,0-.665.333c-.23.128-.435.256-.639.384-.23.153-.435.307-.639.46q11.74,6.637,22.968,14.067c-.46-.921-.946-1.79-1.483-2.66h0Z" transform="translate(387.057 618.779)" fill="#3f3d56"/><path d="M508.523,197.556c1.495.18,2.984.314,4.467.382a61.159,61.159,0,0,0,13.559-.755,64.01,64.01,0,1,0-73.572-72.523c-.079.53-.161,1.039-.217,1.567a64.035,64.035,0,0,0,55.764,71.329h0Z" transform="translate(354.527 593.82)" fill="#ed9da0"/><path d="M449.321,140.133c9.085,4.493,23.93-9.632,29.615-1.505.923-1.756,1.944-3.455,2.951-5.061.912-1.437,2.216-4.505,3.726-5.031-1.91,4.608-1.489,10.85.493,16.2,8.962,3.349,20.693-4.064,28.988-12.831,13.025-13.747,34.292,21.5,29.263,39.749,6.4-7.815,20.287-3.407,24.993,5.528,4.7,8.913-3.244,16.055-4.944,26l12.83-1.629c8.094-7.884,7.528-21.168,14.194-30.305,11.134-15.292,15.448-30.894,7.078-46.675-7.424-13.954-8.118-32.014-21.739-40.059,5.951-2.91-15.212,1.636-9.559-7.846,5.678-9.462-24.586-10.611-26.56-5.541C532,60.77,523.279,53.946,512.641,62.239,502.193,70.4,503.274,78.975,491,78.206c-5.758-.357-5.125,10.379-8.548,15.059-3.4,4.655-16.631,7.644-17.275,7.146-3.494-2.734-15.381,20.537-15.381,20.537s-9.638,14.631-.479,19.184h0Z" transform="translate(343.762 576)" fill="#2f2e41"/><g transform="translate(648.581 895.04)"><path d="M458.811,185.169l52.076,25.217-10.255,31.759-54.109-28.62a19.369,19.369,0,1,1,12.288-28.356Z" transform="translate(-422.6 -137.274)" fill="#ed9da0"/><path d="M648.17,177.079v-.026a34.108,34.108,0,0,0-22.508-15.218l-7.264-1.381c-17.9,33.4-34.452,67.523-37.547,108.907l-75.912-29.8-3.427-1.33-6.88-8.978-10.461,1.253-1.842-3.172v-.026l-3.069-5.192-22.047.691-.2.486-.026.026-10.742,26.14-.026.026-1.458,3.581-1.023,2.481a43.663,43.663,0,0,0,.921,12.942v.051c.767,2.941,2.1,5.576,4.323,6.829,1.841,1.023,6.01-1.816,8.236-.563,1.023.588-.026,5.192,1.074,5.806.716.409,5.883-2.353,6.624-1.944,5.883,3.3,12.533,7.187,19.617,11.382,3.606,2.149,7.315,4.348,11.1,6.65,39.44,23.71,86.322,53.533,90.21,55.579.281.153.563.281.844.409a31.781,31.781,0,0,0,23.454,1.918,29.447,29.447,0,0,0,4.808-1.918,30.312,30.312,0,0,0,7.52-5.192,31.573,31.573,0,0,0,9.719-18.032l20.922-128.447A34.188,34.188,0,0,0,648.17,177.079Z" transform="translate(-389.881 -160.454)" fill="#6c63ff"/></g><path d="M445.507,225.629c-2.4-9.77-9.591-17.009-17.981-19.208a20.583,20.583,0,0,0-10.435-.153,20.991,20.991,0,0,0-9.924,5.576c-6.982-3.274-16.7-3.76-27.5-3.76h-17.9c-21.178,0-38.365,17.9-38.365,38.365-5.525,18.006,1.3,30.36,13.863,35.808,6.829,2.967,15.346,3.888,24.5,2.558h17.9a26.771,26.771,0,0,0,17.443-2.558c9.336-4.757,16.676-14.732,19.924-26.984a21.235,21.235,0,0,0,26.293-10.589A26.956,26.956,0,0,0,445.507,225.629Zm-19.49,14.093a17.126,17.126,0,0,1-7.468,7.469c-.1,1.023-.256,2.046-.409,3.044,1.151.46.614.435-.358.2-1.688-.409-4.681-1.509-2.558-2.021a15.264,15.264,0,0,0,3.325-1.228,56.963,56.963,0,0,0-.512-16.088c0-7.827-2.353-12.993-6.369-16.42a15.808,15.808,0,0,1,10.359-3.913,24.428,24.428,0,0,1,4.425.358c5.959,1.049,10.154,4.553,12.047,12.3C439.8,228.8,428.447,235.143,426.018,239.721Z" transform="translate(150.761 805.183)" fill="#f2f2f2"/></g></svg>