<svg xmlns="http://www.w3.org/2000/svg" width="568.678" height="800.086" viewBox="0 0 568.678 800.086"><g transform="translate(-684.68 -68)"><g transform="translate(799.647 68)"><rect width="338" height="434" transform="translate(0.354)" fill="#f2f2f2"/><rect width="293.071" height="185.548" transform="translate(22.486 26.156)" fill="#fff"/><rect width="293.076" height="198.868" transform="translate(22.483 204.093)" fill="#fff"/><rect width="15.224" height="186.499" transform="translate(161.409 25.204)" fill="#f2f2f2"/><rect width="15.224" height="186.499" transform="translate(300.332 25.204)" fill="#f2f2f2"/><rect width="293.071" height="15.224" transform="translate(22.486 196.478)" fill="#f2f2f2"/><path d="M75.707,122.067,49.514,139.673v14.566l39.68-32.172Z" transform="translate(-11.804 3.999)" fill="#fff"/><path d="M118.863,122.067,49.514,176.356v12.409l90.387-66.7Z" transform="translate(-11.804 3.999)" fill="#f2f2f2"/><rect width="15.224" height="186.499" transform="translate(22.486 25.204)" fill="#f2f2f2"/><path d="M279.4,39.237l-58.515,74.219,18.079,1.9,50.431-78.976Z" transform="translate(-6.19 1.192)" fill="#f2f2f2"/><rect width="293.071" height="15.224" transform="translate(22.486 25.204)" fill="#f2f2f2"/><rect width="293.071" height="15.224" transform="translate(22.486 110.842)" fill="#f2f2f2"/></g><g transform="translate(684.68 242.839)"><g transform="translate(267.123 0)"><g transform="translate(0 0)"><path d="M6.944,35.475h0a23.693,23.693,0,0,1,9.876-5.8L44.045,0,58.4,13.761,29.222,42.395a23.262,23.262,0,0,1-6.2,9.566c-6.984,6.677-16.24,8.392-20.678,3.834s-2.4-13.645,4.57-20.307h.026Z" transform="translate(11.133 226.156) rotate(11)" fill="#9f616a"/><path d="M443.385,346.928l14.458,18.177,74.733-56.57.065-.129,43.673-81.5a27.952,27.952,0,1,0-50.747-23.186l-28.336,74.161L443.383,346.9v.026Z" transform="translate(-417.91 -91.47)" fill="#6c63ff"/><path d="M545.576,164.58H515.11v48.333l33.59-11.038Z" transform="translate(-397.035 -97.626)" fill="#9f616a"/><path d="M492.411,156.561a33.465,33.465,0,1,1,0,.008Z" transform="translate(-403.641 -109.695)" fill="#9f616a"/><path d="M51.866,67.719l3.266,6.2L69.54,46.535C78.215,19.968,47.917,4.708,47.917,4.708,38.028-6.936,18.16,6.684,18.16,6.684-10.5.319,3.34,24.473,3.34,24.473s9.772.215,9.772,8.12,10.65,7.359,10.65,7.359l8.344,14.6,4.608-5.6c17.131-7.255,15.156,18.77,15.156,18.77Z" transform="matrix(0.998, -0.07, 0.07, 0.998, 88.77, 4.96)" fill="#090814"/><rect width="27.033" height="38.354" transform="translate(133.85 562.202)" fill="#9f616a"/><path d="M512.92,605.769c11.864,0,29.186-1.24,29.318-1.253,4.631.414,27.768,2.234,28.917-3.06a22.732,22.732,0,0,0-.723-10.65c-2.234-22.114-3.06-22.372-3.554-22.514-.787-.233-3.086.862-6.816,3.266l-.233.155-.052.271c-.065.336-1.717,8.456-9.553,7.216-5.371-.852-7.108-2.04-7.668-2.62a3.3,3.3,0,0,0,1.42-1.185,4.154,4.154,0,0,0,.3-3.46,54.751,54.751,0,0,0-4.157-9.334l-.349-.619-30.718,20.729-18.977,5.422a4.855,4.855,0,0,0-3.163,2.8h0a4.894,4.894,0,0,0,1.24,5.525c3.446,3.1,10.3,8.4,17.479,9.062,1.91.181,4.441.246,7.281.246h0Z" transform="translate(-405.393 18)" fill="#090814"/><rect width="27.036" height="38.358" transform="translate(197.3 521.923) rotate(-39.564)" fill="#9f616a"/><path d="M597.87,581c9.14-7.565,21.7-19.558,21.791-19.648,3.834-2.62,22.824-15.969,20.333-20.785a22.528,22.528,0,0,0-7.346-7.746c-15.814-15.633-16.6-15.293-17.08-15.091-.761.323-1.831,2.62-3.176,6.855l-.078.258.129.246c.181.31,4.08,7.629-2.75,11.657-4.686,2.762-6.777,2.956-7.577,2.866a3.294,3.294,0,0,0,.336-1.831,4.162,4.162,0,0,0-1.975-2.853,54.937,54.937,0,0,0-9.154-4.544l-.658-.258L580.21,565.679l-11.167,16.279a4.9,4.9,0,0,0-.646,4.183h0a4.91,4.91,0,0,0,4.479,3.472c4.621.194,13.284-.091,19.236-4.157,1.574-1.084,3.563-2.646,5.757-4.454h0Z" transform="translate(-381.594 5.111)" fill="#090814"/><path d="M492.71,319.1l41.208,306.511h30.909l20.6-306.511H492.7Z" transform="translate(-403.553 -52.668)" fill="#090814"/><path d="M572.546,486.524l61.54,79.846L607.75,588.125,502.137,487.676,492.7,319.1l18.887,16.886Z" transform="translate(-403.555 -52.668)" fill="#090814"/><path d="M511.587,181.106,492.7,361.416h92.726l7.191-58.519A168.867,168.867,0,0,0,571.6,198.54l-14.227-24.864-45.79,7.431h0Z" transform="translate(-403.557 -94.98)" fill="#6c63ff"/><path d="M501.291,369.538h0a23.622,23.622,0,0,1,6.583-9.37l12.458-38.318,18.783,6.569-14.652,38.148a23.129,23.129,0,0,1-1.665,11.283c-3.576,8.959-11.3,14.369-17.222,12.071s-7.836-11.425-4.26-20.385h-.026Z" transform="translate(-401.574 -51.867)" fill="#9f616a"/><path d="M504.627,389.4l20.694,10.534,44.525-82.479v-.141l5.923-92.264a27.954,27.954,0,1,0-55.8,0l5,79.226-20.346,85.138h0Z" transform="translate(-400.095 -88.684)" fill="#6c63ff"/></g></g><path d="M15.179,488.67a1.342,1.342,0,0,0,1.137,1.48H582.706a1.528,1.528,0,0,0,0-2.959H16.315a1.342,1.342,0,0,0-1.137,1.48Z" transform="translate(-15.174 135.097)" fill="#f2f2f2"/><g transform="translate(91.812 82.872)"><rect width="26.436" height="51.317" transform="translate(44.654 62.718)" fill="#9f616a"/><path d="M292.381,238.5l-63.757-4.665s-26.438,60.647-6.22,99.524l14,80.863-5.537,133.094h28.959l45-213.957Z" transform="translate(-177.647 -32.782)" fill="#090814"/><path d="M267.211,287.792l24.879,21.656-12.437,212.1H251.662Z" transform="translate(-164.919 -14.154)" fill="#090814"/><circle cx="33.05" cy="33.05" r="33.05" transform="translate(24.465 6.707)" fill="#9f616a"/><path d="M230.15,443.381l34.141,5.4,6.417,24.489s27.721,10.432,14.364,21.768-62.7,5.475-66.6-2.656,11.681-49,11.681-49Z" transform="translate(-176.594 39.56)" fill="#090814"/><path d="M250.959,443.38l34.141,5.394,6.417,24.489s27.721,10.432,14.364,21.768-62.7,5.475-66.6-2.656,11.682-49,11.682-49Z" transform="translate(-169.411 39.561)" fill="#090814"/><path d="M340.733,239.752a22.983,22.983,0,0,1-10.575-2.446l-14.616-.221-43.095.834-20.635-6.74,5.621-16.222,56.62,4.964,16.149,1.062a22.968,22.968,0,0,1,10.591-2.393c9.183.022,16.612,4.779,16.6,10.622s-7.471,10.562-16.658,10.539Z" transform="translate(-164.867 -39.299)" fill="#9f616a"/><path d="M253.011,145.4h-32.72l-10.823,32.656,20.993,86.305,63.757,4.665-3.888-34.988h0a35.434,35.434,0,0,0-1.521-39.413Z" transform="translate(-179.485 -63.312)" fill="#dedede"/><path d="M218.715,157.309l34.211-5.873L277.8,230.4l52.872,9.331v22.548c0,.78-72.362,7-74.28,4.665s-37.684-109.631-37.684-109.631Z" transform="translate(-176.291 -61.227)" fill="#dedede"/><path d="M261.2,104.971c4.06,6.587.317,15.263-4.685,21.166s-11.451,11.086-13.684,18.494c-2,6.642-.181,13.8,2.174,20.331s5.282,13.032,5.525,19.965-3.042,14.589-9.569,16.93c-6.7,2.4-14.625-1.373-21.079,1.63-8.407,3.91-10.313,17.45-19.479,18.854-5.641.864-10.869-4.027-12.445-9.515s-.445-11.338.7-16.93l9.367-45.961,7.794-38.242c1.551-7.611,3.392-15.754,9.111-21.007,6.989-6.421,17.525-6.574,27.008-6.189,8.713.353,17.782.95,25.363,5.252s13.157,13.446,10.529,21.759a13.114,13.114,0,0,0-15.776-7.072" transform="translate(-187.179 -84.376)" fill="#090814"/></g></g></g></svg>