<svg xmlns="http://www.w3.org/2000/svg" width="800" height="350.599" viewBox="0 0 800 350.599"><g transform="translate(-546 -359.521)"><path d="M632.444,555.588h23.3a14.848,14.848,0,0,1,14.848,14.848v.482H632.444Z" transform="translate(344.865 80.392)" fill="#090814"/><path d="M-.017,3.729,21.5,7.117,17.3,24.838-2.119,19.5Z" transform="translate(927.256 410.999)" fill="#ed9da0"/><path d="M423.769,561.333c-2.75,21.549-12.864,41.264-23.653,60.256-.357.647-.724,1.284-1.1,1.93H286.881c-2.268-.589-4.507-1.235-6.736-1.93a122.584,122.584,0,0,1-35.406-17.419c-41.255-29.723-57.129-85.887-49.959-136.212,4.458-31.267,18.181-63.189,44.9-80.029,14.109-8.907,32.232-11.8,48.473-8.492.425.077.85.174,1.284.26,13.973,3.146,26.422,10.963,33.506,23.556,12.738,22.63,5.153,50.663-1.11,75.85-6.244,25.187-9.631,55.334,8.492,73.911-5.983-17.612-.077-38.62,14.215-50.528,10.8-8.984,25.833-12.352,39.546-9.563,1.312.28,2.606.6,3.879.984a43.04,43.04,0,0,1,8.849,3.706C418.191,509.55,426.847,537.043,423.769,561.333Z" transform="translate(360.234 86.601)" fill="#f2f2f2"/><path d="M359.542,621.635c3.107.724,6.224,1.361,9.36,1.93H351.947c-2.22-.6-4.43-1.235-6.62-1.93q-7.223-2.258-14.225-5.182c-18.721-7.855-35.966-19.648-49.013-35.339a99.756,99.756,0,0,1-15.46-25.255,114.7,114.7,0,0,1-7.913-32.318c-2.365-22.774.048-46.176,4.555-68.545a286.081,286.081,0,0,1,22.35-67.04q1.838-3.836,3.8-7.624a1.488,1.488,0,0,1,.994-.849,1.715,1.715,0,0,1,1.284.26,2.033,2.033,0,0,1,.8,2.683,282.789,282.789,0,0,0-23.72,64.617c-5.134,21.877-8.048,44.767-7.054,67.262.946,21.018,6.437,41.689,18.9,58.876C292,588.873,307.71,601.244,325.09,609.669a163.212,163.212,0,0,0,34.451,11.966Z" transform="translate(357.971 86.554)" fill="#fff"/><path d="M400.674,627.68h-5c-.56-.637-1.1-1.284-1.631-1.93a106.548,106.548,0,0,1-22.427-47.923,103.965,103.965,0,0,1,8.965-64.7,106.381,106.381,0,0,1,9.689-16.039c1.312.28,2.606.6,3.879.984a100.568,100.568,0,0,0,4.8,127.681C399.506,626.4,400.086,627.043,400.674,627.68Z" transform="translate(354.049 82.439)" fill="#fff"/><path d="M868.424,613.655c.726,5.687,3.4,10.89,6.242,15.9.094.171.191.339.29.509h29.595c.6-.155,1.189-.326,1.778-.509a32.348,32.348,0,0,0,9.345-4.6c10.888-7.844,15.077-22.667,13.185-35.949-1.177-8.252-4.8-16.677-11.85-21.121a17.792,17.792,0,0,0-12.793-2.241c-.112.02-.224.046-.339.069a13.2,13.2,0,0,0-8.843,6.217c-3.362,5.972-1.36,13.371.293,20.018s2.542,14.6-2.241,19.506A12.2,12.2,0,0,0,878.9,595.6c-.346.074-.688.158-1.024.26a11.355,11.355,0,0,0-2.336.978C869.9,599.988,867.611,607.244,868.424,613.655Z" transform="translate(336.616 80.053)" fill="#f2f2f2"/><path d="M886.524,629.57q-1.23.286-2.47.509h4.475c.586-.158,1.169-.326,1.747-.509q1.906-.6,3.754-1.368a33.677,33.677,0,0,0,12.936-9.327,26.326,26.326,0,0,0,4.08-6.665,30.27,30.27,0,0,0,2.088-8.529,60.663,60.663,0,0,0-1.2-18.09,75.5,75.5,0,0,0-5.9-17.693q-.485-1.012-1-2.012a.392.392,0,0,0-.262-.224.452.452,0,0,0-.339.069.536.536,0,0,0-.211.708,74.633,74.633,0,0,1,6.26,17.054,65.643,65.643,0,0,1,1.862,17.752,28.324,28.324,0,0,1-4.987,15.538,31.348,31.348,0,0,1-11.736,9.63,43.069,43.069,0,0,1-9.092,3.158Z" transform="translate(336.063 80.04)" fill="#fff"/><path d="M876.437,631.165h1.319c.148-.168.29-.339.43-.509a28.121,28.121,0,0,0,5.919-12.648,27.439,27.439,0,0,0-2.366-17.077,28.076,28.076,0,0,0-2.557-4.233c-.346.074-.688.158-1.024.26a26.542,26.542,0,0,1-1.266,33.7C876.745,630.826,876.592,631,876.437,631.165Z" transform="translate(336.33 78.954)" fill="#fff"/><path d="M588.616,478.741H495.993l-.982-28.478a8.55,8.55,0,0,1,9.583-8.78l53.9,6.6h.007a30.2,30.2,0,0,1,30.115,30.176Z" transform="translate(349.673 84.386)" fill="#6c63ff"/><path d="M546.652,375.414h-64.6a6.54,6.54,0,0,0-6.542,6.542v64.6a6.54,6.54,0,0,0,6.542,6.542h64.6a6.54,6.54,0,0,0,6.542-6.542v-64.6a6.54,6.54,0,0,0-6.542-6.542Z" transform="translate(350.355 86.695)" fill="#ccc"/><path d="M532.664,424.535l-30.5,5.94a6.958,6.958,0,0,1-8.151-5.494l-2.345-12.04a6.958,6.958,0,0,1,5.494-8.151l30.5-5.94a6.958,6.958,0,0,1,8.151,5.494l2.345,12.04A6.958,6.958,0,0,1,532.664,424.535Z" transform="translate(349.794 85.88)" fill="#6c63ff"/><path d="M526.917,410.614l-23.277,4.533a1.635,1.635,0,0,1-.625-3.211l23.277-4.533a1.635,1.635,0,1,1,.625,3.211Z" transform="translate(349.439 85.577)" fill="#fff"/><path d="M522.635,417.57l-12.04,2.345a1.635,1.635,0,1,1-.625-3.211l12.04-2.345a1.635,1.635,0,1,1,.625,3.211Z" transform="translate(349.196 85.334)" fill="#fff"/><path d="M553.194,381.956v8.586H475.51v-8.586a6.54,6.54,0,0,1,6.542-6.542h64.6a6.54,6.54,0,0,1,6.542,6.542Z" transform="translate(350.355 86.695)" fill="#b3b3b3"/><path d="M712.865,392.5a10.367,10.367,0,0,0-14.662-6.142L609.329,354.47l-3.914,22.2,88.592,24.362a10.423,10.423,0,0,0,18.859-8.536Z" transform="translate(345.811 87.428)" fill="#ed9da0"/><path d="M712.865,392.5a10.367,10.367,0,0,0-14.662-6.142L609.329,354.47l-3.914,22.2,88.592,24.362a10.423,10.423,0,0,0,18.859-8.536Z" transform="translate(345.811 87.428)" opacity="0.101"/><path d="M624.234,358.222l-8.392,21.925a4.648,4.648,0,0,1-6.621,2.389l-20.4-11.48a12.909,12.909,0,1,1,9.3-24.085l22.776,5.052a4.648,4.648,0,0,1,3.333,6.2Z" transform="translate(346.68 87.721)" fill="#6c63ff"/><path d="M722.855,414.914,691.01,429.39l4.181,15.74A244.859,244.859,0,0,1,701.5,538.4h0l23.284,4.863,19.3-49.216-6.755-55.971Z" transform="translate(342.816 85.313)" fill="#6c63ff"/><path d="M787.353,490.414c-20.924,0-37.975,15.211-38.8,34.258h77.6C825.328,505.625,808.277,490.414,787.353,490.414Z" transform="translate(340.803 82.672)" fill="#3f3d56"/><path d="M760.333,490.979c-1.089-85.982-50.057-78.071-50.057-78.071s.916,26.763,1.356,27.6c31.2,59.039-20.295,128.255-85.848,115.521q-1.854-.36-3.562-.731a33.372,33.372,0,0,1-26.213-37.407c6.457-51.856-25.661-50.938-25.661-50.938H523.385L499,445a7.09,7.09,0,0,0-11.4,2.819l-3.138,8.516S438.141,461.159,442,506.514h14.321a28.932,28.932,0,0,0,.155,3.86l106.877-.869c6.265-.051,11.795,5.025,11.82,11.29a11.342,11.342,0,0,1-11.72,11.383l-17.231-.575c-5.308,23.643,7.72,39.566,22.075,49.578A80.24,80.24,0,0,0,614.25,595.3h46.81c60.8,0,71.411-51.146,71.411-51.146C764.318,530.64,760.333,490.979,760.333,490.979Z" transform="translate(351.535 85.39)" fill="#3f3d56"/><circle cx="54.282" cy="54.282" r="54.282" transform="translate(1070.979 600.107)" fill="#3f3d56"/><circle cx="13.304" cy="13.304" r="13.304" transform="translate(1111.957 641.086)" fill="#fff"/><circle cx="62.485" cy="62.485" r="62.485" transform="translate(788.711 583.702)" fill="#3f3d56"/><circle cx="15.315" cy="15.315" r="15.315" transform="translate(835.881 630.872)" fill="#fff"/><path d="M690.659,432.116,679.2,400.994a13.161,13.161,0,0,1,7.8-16.9L719.854,372a23.158,23.158,0,1,1,16,43.463Z" transform="translate(343.258 86.865)" fill="#3f3d56"/><path d="M752.06,393.752a22.726,22.726,0,0,1-8.492,17.7,28.939,28.939,0,0,1-19.01-39.855,22.683,22.683,0,0,1,27.5,22.157Z" transform="translate(341.732 86.847)" fill="#6c63ff"/><ellipse cx="13.51" cy="16.405" rx="13.51" ry="16.405" transform="translate(788.229 565.366)" fill="#6c63ff"/><path d="M450.071,290.893H461.9l5.629-30.685H450.069Z" transform="translate(530.256 348.951)" fill="#ed9da0"/><path d="M646.9,542.49q-.207,0-.415-.02l-16.373-1.192a4.343,4.343,0,0,1-3.676-5.818l21.912-49.23a3.376,3.376,0,0,0-.189-2.7,3.33,3.33,0,0,0-2.134-1.7c-10.3-2.693-36.74-9.865-59.625-18.256-9.8-3.6-15.98-8.791-18.354-15.442-3.13-8.769,1.5-16.766,1.7-17.1l.155-.263,21.534,1.957,23.345,1.986,51.159,27.433a19.383,19.383,0,0,1,8.51,24.882l-23.586,52.89A4.34,4.34,0,0,1,646.9,542.49Z" transform="translate(347.156 84.759)" fill="#090814"/><circle cx="23.702" cy="23.702" r="23.702" transform="translate(918.636 374.151)" fill="#ed9da0"/><path d="M443.071,293.893H454.9l5.629-30.685H443.069Z" transform="translate(530.501 348.846)" fill="#ed9da0"/><path d="M625.444,558.588h23.3a14.848,14.848,0,0,1,14.848,14.849v.482H625.444Z" transform="translate(345.11 80.288)" fill="#090814"/><path d="M639.9,545.49q-.207,0-.415-.02l-16.373-1.192a4.342,4.342,0,0,1-3.676-5.818l21.912-49.23a3.376,3.376,0,0,0-.19-2.7,3.33,3.33,0,0,0-2.134-1.7c-10.3-2.693-36.74-9.865-59.625-18.256-9.8-3.6-15.98-8.791-18.354-15.442-3.13-8.769,1.5-16.766,1.7-17.1l.155-.263,21.534,1.957,23.345,1.986,51.159,27.433a19.383,19.383,0,0,1,8.51,24.882l-23.586,52.89A4.34,4.34,0,0,1,639.9,545.49Z" transform="translate(347.401 84.654)" fill="#090814"/><path d="M602.363,345.479l-25.09-8.685s-15.751,12.1-8.184,42.122a74.318,74.318,0,0,1-3.281,46.63,48.053,48.053,0,0,1-2.527,5.338s27.985,33.776,54.041,8.685l-10.133-48.733S623.111,358.507,602.363,345.479Z" transform="translate(347.285 88.046)" fill="#6c63ff"/><path d="M597.881,330.424c-3.373-5.049-6.036-12.051-2.321-16.855,3.666-4.742,10.9-4.044,16.512-6.142,7.821-2.923,12.356-12.11,10.942-20.338s-8.02-15.049-15.888-17.84-16.741-1.883-24.447,1.331c-9.485,3.956-17.622,11.609-21.034,21.3s-1.588,21.335,5.49,28.786c7.589,7.989,19.5,10.118,30.517,9.989" transform="translate(347.4 91.936)" fill="#090814"/><path d="M572.434,287.6c-4.251,3.46-10.736,1.923-15.3-1.114s-8.265-7.361-13.2-9.742c-8.7-4.2-19.227-1.407-27.7,3.243s-15.98,11.074-24.928,14.722-20.366,3.829-27.141-3.061a24.832,24.832,0,0,0,36.391,29.309c9.8-5.972,15.219-18.493,26.216-21.789,6.085-1.824,12.619-.355,18.769,1.236s12.563,3.31,18.769,1.956,12.012-6.932,11.222-13.235Z" transform="translate(350.799 91.687)" fill="#090814"/><path d="M711.6,391.972a10.367,10.367,0,0,0-15.308-4.286l-92.13-20.678-1.145,22.516,90.921,13.245a10.423,10.423,0,0,0,17.662-10.8Z" transform="translate(345.894 86.989)" fill="#ed9da0"/><path d="M619.374,368.849l-5.623,22.793a4.648,4.648,0,0,1-6.275,3.188l-21.657-8.876a12.909,12.909,0,1,1,6.258-25.049l23.226,2.2a4.649,4.649,0,0,1,4.073,5.741Z" transform="translate(346.838 87.216)" fill="#6c63ff"/><circle cx="6.755" cy="6.755" r="6.755" transform="translate(1040.099 483.34)" fill="#6c63ff"/><path d="M985.5,631.38a.968.968,0,0,1-.965.965H186.465a.965.965,0,0,1,0-1.93h798.07A.968.968,0,0,1,985.5,631.38Z" transform="translate(360.5 77.775)" fill="#3f3d56"/></g></svg>