<svg xmlns="http://www.w3.org/2000/svg" width="800.64" height="533.072" viewBox="0 0 800.64 533.072"><g transform="translate(-454.467 -212.002)"><path d="M482.342,713.12a13.987,13.987,0,0,1-17.617-4.2c-.395-.543.43-1.182.826-.638a12.952,12.952,0,0,0,16.4,3.877c.6-.307.99.66.4.965Z" transform="translate(753.091 20.702)" fill="#fff"/><path d="M473.349,676.436a7.917,7.917,0,0,0,5.451-5.169c.208-.639,1.169-.233.963.4a8.872,8.872,0,0,1-6.018,5.732.539.539,0,0,1-.681-.285A.524.524,0,0,1,473.349,676.436Z" transform="translate(751.211 29.008)" fill="#fff"/><path d="M977.768,398.345c0,110.6-70.1,204.826-168.279,240.682a253.338,253.338,0,0,1-46.048,12.087A257.9,257.9,0,0,1,634.8,639.431c-98.8-35.561-169.413-130.11-169.367-241.14,0-141.421,114.694-256.114,256.169-256.114A256.149,256.149,0,0,1,977.768,398.345Z" transform="translate(277.338 90.56)" fill="#f2f2f2"/><path d="M858.3,767.84a253.333,253.333,0,0,1-46.048,12.087,257.9,257.9,0,0,1-128.643-11.683l11.83-47.469.714-2.849,24.142.093,121.284.435,1.553,4.588Z" transform="translate(228.525 -38.253)" fill="#2f2e41"/><rect width="222.518" height="251.787" rx="8" transform="translate(454.467 212.002)" fill="#e6e6e6"/><rect width="214.194" height="241.134" rx="5" transform="translate(458.435 217.329)" fill="#fff"/><circle cx="12.007" cy="12.007" r="12.007" transform="translate(553.72 425.875)" fill="#e6e6e6"/><rect width="68.961" height="7.055" transform="translate(494.737 302.685)" fill="#e6e6e6"/><rect width="104.081" height="7.055" transform="translate(494.737 323.825)" fill="#6c63ff"/><rect width="93.865" height="7.055" transform="translate(494.737 345.098)" fill="#e6e6e6"/><rect width="144.947" height="7.055" transform="translate(494.737 365.809)" fill="#6c63ff"/><rect width="118.129" height="7.055" transform="translate(496.244 385.533)" fill="#e6e6e6"/><path d="M470.813,618.97a23.1,23.1,0,0,1,2.322,2.795L581.9,619.1l12.688-23.186,37.494,14.575L613.6,653.722a17.551,17.551,0,0,1-18.242,10.527L472.478,649.4a23.028,23.028,0,1,1-1.669-30.438Z" transform="translate(284.957 -10.956)" fill="#ed9da0"/><path d="M669.854,605.049l-51.772-20.714.22-.921c.222-.932,22.257-93.01,25.183-107.807,3.048-15.416,14.183-19.678,14.656-19.852l.345-.127,20.489,6.237,9,70.7Z" transform="translate(243.186 20.431)" fill="#6c63ff"/><path d="M718.072,337.454v-53.26a71.369,71.369,0,1,1,142.736-.473q0,.236,0,.473v53.26a9.6,9.6,0,0,1-9.587,9.587H727.659A9.6,9.6,0,0,1,718.072,337.454Z" transform="translate(220.815 74.807)" fill="#2f2e41"/><path d="M2.833,0,47.947.787l8.7,51.234H0Z" transform="matrix(1, -0.017, 0.017, 1, 977.099, 410.416)" fill="#ed9da0"/><circle cx="52.324" cy="52.324" r="52.324" transform="translate(943.265 315.958)" fill="#ed9da0"/><path d="M670.758,444.348l50.9-16.681,14.949-20.5,72.749,4.305,10.681,23.925,38.792,18.33-5.962,110.715-10.2,103.614c-52.443-27.156-150.316-6.453-151.173-6.116Z" transform="translate(231.4 31.274)" fill="#6c63ff"/><path d="M696.322,294.05a56.519,56.519,0,0,1,56.456-56.456H763.43a56.519,56.519,0,0,1,56.455,56.456v1.065H797.374l-7.678-21.5-1.536,21.5H776.527l-3.874-10.848-.776,10.848H696.322Z" transform="translate(230.49 68.619)" fill="#2f2e41"/><path d="M783.952,365.438a9.445,9.445,0,0,1-.751-10.028c11.288-21.47,27.092-61.143,6.115-85.609l-1.5-1.756h60.9v91.437l-55.325,9.762a9.786,9.786,0,0,1-1.7.15,9.548,9.548,0,0,1-7.737-3.953Z" transform="translate(206.489 62.399)" fill="#2f2e41"/><path d="M822.345,701.636a23.065,23.065,0,0,1,3.631.2l72-81.564L889.6,595.209l36.18-17.584,19.139,42.938a17.55,17.55,0,0,1-4.684,20.535L845.8,721.11a23.028,23.028,0,1,1-23.455-19.474Z" transform="translate(202.481 -6.863)" fill="#ed9da0"/><path d="M910.145,603.483l-30.033-70.645,11.714-49.208,12.621-15.945a7.271,7.271,0,0,1,5.841.054c4.658,1.873,8.617,7.615,11.781,17.065l28.147,80.172Z" transform="translate(184.561 17.865)" fill="#6c63ff"/><g transform="translate(540 231.612)"><path d="M210.287,123.086a25.532,25.532,0,1,0,25.531,25.532h0a25.532,25.532,0,0,0-25.532-25.532Zm0,7.659a7.659,7.659,0,1,1-7.659,7.659h0A7.659,7.659,0,0,1,210.287,130.745Zm0,36.874a18.6,18.6,0,0,1-15.319-8.175c.123-5.106,10.213-7.917,15.319-7.917s15.2,2.811,15.319,7.917A18.63,18.63,0,0,1,210.287,167.618Z" transform="translate(-184.753 -123.086)" fill="#6c63ff"/></g><path d="M216.534,384.632c9.925-18.188,33.7-29.707,53.151-19.324,8.755,4.673,15.714,12.938,17.923,22.707,2.564,11.348-2.838,22.169-8.415,31.7-3.027,5.175-6.343,10.245-8.848,15.7-2.594,5.653-4.448,12.186-2.495,18.335,1.758,5.54,6.166,9.569,10.993,12.531a81.912,81.912,0,0,0,16.892,7.545,99.428,99.428,0,0,0,37.712,4.879,103.137,103.137,0,0,0,18.8-3.038c6.551-1.67,12.979-3.787,19.54-5.42,10.955-2.721,23.446-4.074,33.834,1.392,10.092,5.312,14.609,16.422,16.005,27.229,2.58,19.957-5.333,40.668-19.62,54.643-6.855,6.705-15.48,12.245-24.875,14.511-8.2,1.978,8.219,2.778,16.78-2.572,17.809-11.129,29.65-30.7,32.128-51.451,1.291-10.812-.023-22.459-4.926-32.273A31.594,31.594,0,0,0,409.5,468.795a38.179,38.179,0,0,0-16.537-5.1c-13.147-1.211-25.778,3.3-38.249,6.756a106.064,106.064,0,0,1-19.5,3.723,97.406,97.406,0,0,1-19.244-.313,94.761,94.761,0,0,1-18.647-4.138,74.637,74.637,0,0,1-16.926-7.652c-4.677-2.991-8.722-7.274-8.952-13.111-.25-6.329,2.942-12.25,5.977-17.586,6-10.541,13.4-20.852,14.968-33.192,1.37-10.795-2.974-21.434-10.475-29.133a39.387,39.387,0,0,0-29.107-12.075c-11.129.319-21.784,5.158-29.97,12.591a49.339,49.339,0,0,0-10.108,12.84c-1.356,2.484,2.438,4.7,3.795,2.218Z" transform="translate(350.18 55.21)" fill="#3f3d56"/></g></svg>