<svg xmlns="http://www.w3.org/2000/svg" width="988.5" height="774.981" viewBox="0 0 988.5 774.981">
  <g id="Group_12" data-name="Group 12" transform="translate(-331.843 -152.51)">
    <path id="Path_305" data-name="Path 305" d="M1140.171,623.562c-1.048,2.015-2.141,3.995-3.269,5.963-43.26,75.366-143.894,122.172-313.609,97.4-96.363-14.735-137.4,39.312-177.139,94.671-.68.955-1.359,1.911-2.049,2.866-41.614,58.053-82.814,116.266-185.83,96.916-109.21-17.267-176.61-105.941-187.039-200.612-.127-1.151-.242-2.314-.346-3.465-5.859-61.379,12.248-124.935,58.444-172.915,27.9-28.974,67.55-44.365,108.473-43.882a199.385,199.385,0,0,0,36.791-2.728c2.682-.472,5.284-.99,7.816-1.577,52.136-11.914,76.16-47.335,90.895-90.561.346-1.025.691-2.049,1.025-3.085,33.833-103.086,18.188-247.774,202.12-226.489,164.592,12.133,285.383,103.4,344.632,208.693.587,1.059,1.174,2.118,1.75,3.177a321.16,321.16,0,0,1,34.442,93.6c.369,1.842.7,3.684,1.013,5.525C1166.67,535.959,1161.179,583.49,1140.171,623.562Z" transform="translate(137.976 2.326)" fill="#f2f2f2"/>
    <path id="Path_306" data-name="Path 306" d="M1049.679,337.12A252.041,252.041,0,0,1,1010,375c-56.74,43.514-128.607,67.112-199.506,72.062a396.383,396.383,0,0,1-108.807-7.391c-36.377-7.621-71.072-21.043-104.674-36.722-32.681-15.253-64.4-32.451-96.858-48.13.346-1.025.691-2.049,1.025-3.085,35.4,17.037,70.071,35.812,105.883,52.044,33.74,15.3,68.666,27.777,105.192,34.454a394.994,394.994,0,0,0,110.488,4.328c70.7-7.114,142.628-33.2,196.985-79.867a235.212,235.212,0,0,0,28.2-28.756C1048.516,335,1049.1,336.061,1049.679,337.12Z" transform="translate(211.131 53.139)" fill="#fff"/>
    <path id="Path_307" data-name="Path 307" d="M768.339,156.736q-.124,0-.247.008C680.844,162.21,612.5,235.035,612.5,322.539s68.344,160.33,155.591,165.794a3.79,3.79,0,0,0,2.857-1.026,3.75,3.75,0,0,0,1.194-2.76V160.53A3.8,3.8,0,0,0,768.339,156.736Z" transform="translate(246.814 -3.144)" fill="#6c63ff"/>
    <path id="Path_308" data-name="Path 308" d="M860.383,433.517a4.892,4.892,0,0,1-3.45-1.428l-112.81-112.81a4.839,4.839,0,0,1-1.427-3.444V160.791a4.822,4.822,0,0,1,1.536-3.548,4.9,4.9,0,0,1,3.665-1.319c87.816,5.5,156.606,78.8,156.606,166.875a167.2,167.2,0,0,1-40.43,109.029,4.9,4.9,0,0,1-3.509,1.685Q860.474,433.517,860.383,433.517Z" transform="translate(288.166 -3.405)" fill="#ccc"/>
    <path id="Path_309" data-name="Path 309" d="M747.587,445.3a4.911,4.911,0,0,1-3.353-1.327,4.826,4.826,0,0,1-1.538-3.551V300.532a4.871,4.871,0,0,1,8.314-3.444l98.441,98.441a4.881,4.881,0,0,1-.183,7.072A167.567,167.567,0,0,1,747.889,445.29C747.789,445.3,747.687,445.3,747.587,445.3Z" transform="translate(288.166 40.98)" fill="#6c63ff"/>
    <path id="Path_310" data-name="Path 310" d="M1108.929,412.917c-15.794,28.008-38.092,52.711-63.624,72.292C988.564,528.723,916.7,552.322,845.8,557.272a396.386,396.386,0,0,1-108.807-7.391c-36.376-7.621-71.072-21.043-104.674-36.722-34.212-15.966-67.377-34.074-101.44-50.34-34.028-16.254-69-30.114-105.641-39.185,2.682-.472,5.284-.99,7.816-1.577q3.592.932,7.16,1.934c71.648,20.03,134.881,59.5,202.154,90,33.74,15.3,68.666,27.777,105.192,34.454a394.992,394.992,0,0,0,110.488,4.328c70.7-7.114,142.628-33.2,196.985-79.867a229.605,229.605,0,0,0,52.884-65.512C1108.285,409.233,1108.618,411.075,1108.929,412.917Z" transform="translate(187.337 76.467)" fill="#fff"/>
    <path id="Path_311" data-name="Path 311" d="M446.724,602.513c70.589,19.731,133,58.34,199.173,88.627-.68.955-1.359,1.911-2.049,2.866-1.681-.771-3.349-1.542-5.019-2.325-34.212-15.966-67.377-34.074-101.44-50.34-34.753-16.6-70.485-30.7-107.978-39.761a482.479,482.479,0,0,0-158.433-11.27c-.127-1.151-.242-2.314-.346-3.465A486.114,486.114,0,0,1,446.724,602.513Z" transform="translate(138.233 132.78)" fill="#fff"/>
    <path id="Path_312" data-name="Path 312" d="M740.929,683.151H238.919a1.318,1.318,0,1,1,0-2.635h502.01a1.318,1.318,0,0,1,0,2.635Z" transform="translate(127.742 163.214)" fill="#ccc"/>
    <path id="Path_318" data-name="Path 318" d="M388.751,622.3l-31.819-3.878a6.347,6.347,0,0,1-5.352-7.983l8.473-30.814a17.626,17.626,0,1,1,34.981,4.367l.83,31.843a6.347,6.347,0,0,1-7.112,6.463Z" transform="translate(163.871 126.266)" fill="#6c63ff"/>
    <path id="Path_323" data-name="Path 323" d="M745.633,544.9H638.814a5.805,5.805,0,0,1,0-11.611H745.633a5.805,5.805,0,0,1,0,11.611Z" transform="translate(253.328 116.453)" fill="#ccc"/>
    <path id="Path_324" data-name="Path 324" d="M616.12,552.385a12.191,12.191,0,1,1,12.191-12.191A12.191,12.191,0,0,1,616.12,552.385Z" transform="translate(244.092 114.774)" fill="#6c63ff"/>
    <path id="Path_325" data-name="Path 325" d="M745.633,571.336H638.814a5.805,5.805,0,0,1,0-11.611H745.633a5.805,5.805,0,0,1,0,11.611Z" transform="translate(253.328 124.849)" fill="#ccc"/>
    <path id="Path_326" data-name="Path 326" d="M616.12,578.821a12.191,12.191,0,1,1,12.191-12.191A12.191,12.191,0,0,1,616.12,578.821Z" transform="translate(244.092 123.17)" fill="#6c63ff"/>
    <path id="Path_327" data-name="Path 327" d="M745.633,597.772H638.814a5.805,5.805,0,1,1,0-11.611H745.633a5.805,5.805,0,1,1,0,11.611Z" transform="translate(253.328 133.246)" fill="#ccc"/>
    <path id="Path_328" data-name="Path 328" d="M616.12,605.257a12.191,12.191,0,1,1,12.191-12.191A12.191,12.191,0,0,1,616.12,605.257Z" transform="translate(244.092 131.567)" fill="#6c63ff"/>
    <path id="Path_329" data-name="Path 329" d="M742.057,630.321h44.121a1.161,1.161,0,0,0,1.161-1.161V356.4a1.161,1.161,0,0,0-2.322,0V628h-42.96a1.161,1.161,0,0,0,0,2.322Z" transform="translate(287.594 59.902)" fill="#3f3d56"/>
    <path id="Path_330" data-name="Path 330" d="M889.16,228.023h0A14.965,14.965,0,1,1,902.875,211.9,14.965,14.965,0,0,1,889.16,228.023Zm-.185-2.295h0a12.663,12.663,0,1,0-13.638-11.605,12.663,12.663,0,0,0,13.638,11.605Z" transform="translate(329.549 10.006)" fill="#ccc"/>
    <circle id="Ellipse_66" data-name="Ellipse 66" cx="9.209" cy="9.209" r="9.209" transform="translate(1261.03 181.212)" fill="#ccc"/>
    <circle id="Ellipse_67" data-name="Ellipse 67" cx="4.838" cy="4.838" r="4.838" transform="translate(1310.668 156.651)" fill="#ccc"/>
    <path id="Path_331" data-name="Path 331" d="M838.513,449.971a14.965,14.965,0,1,1-4.236-20.736h0a14.982,14.982,0,0,1,4.236,20.735Zm-23.05-15.231a12.663,12.663,0,1,0,17.546-3.584h0a12.677,12.677,0,0,0-17.545,3.584Z" transform="translate(309.879 82.616)" fill="#ccc"/>
    <circle id="Ellipse_68" data-name="Ellipse 68" cx="9.209" cy="9.209" r="9.209" transform="translate(1157.111 569.206)" fill="#ccc"/>
    <circle id="Ellipse_69" data-name="Ellipse 69" cx="4.838" cy="4.838" r="4.838" transform="translate(1187.171 620.761)" fill="#ccc"/>
    <path id="Path_332" data-name="Path 332" d="M550.257,258.834a14.965,14.965,0,1,1,20.061,6.742h0a14.982,14.982,0,0,1-20.061-6.742ZM575,246.539a12.663,12.663,0,1,0-5.7,16.975h0a12.677,12.677,0,0,0,5.7-16.975Z" transform="translate(226.547 22.414)" fill="#ccc"/>
    <circle id="Ellipse_70" data-name="Ellipse 70" cx="9.209" cy="9.209" r="9.209" transform="translate(718.958 264.548)" fill="#ccc"/>
    <circle id="Ellipse_71" data-name="Ellipse 71" cx="4.838" cy="4.838" r="4.838" transform="translate(669.627 267.462)" fill="#ccc"/>
    <g id="Group_11" data-name="Group 11" transform="translate(302 174)">
      <path id="Path_289" data-name="Path 289" d="M510.8,643.322,519.94,671.6s-8.267,26.541-4.351,56.128,1.74,30.457,1.74,30.457-39.126-2.252-35.21,9.5,42.172,4.863,42.172,4.863,7.347-1.978,10.828-22.863,12.232-61.112,12.232-61.112L539.122,650.6Z" transform="translate(-452 -152.441)" fill="#ffb9b9"/>
      <path id="Path_291" data-name="Path 291" d="M553.211,742.808l34.808-1.3,26.541-3.916-7.832,26.106-64.4,1.74Z" transform="translate(-353 -114)" fill="#ffb9b9"/>
      <path id="Path_292" data-name="Path 292" d="M702.247,784.73s-.435-9.572-4.351-9.137-1.305-3.481,2.175-4.351,13.488-5.221,13.488-5.221l39.594,2.611s25.671,22.625,15.229,34.808-37.419,1.305-37.419,1.305l-29.152.435S692.24,789.516,702.247,784.73Z" transform="translate(-452 -152.441)" fill="#090814"/>
      <path id="Path_293" data-name="Path 293" d="M618.911,712.786l12.618,59.174,26.106-5.221-14.793-73.967-15.664-8.267Z" transform="translate(-353 -114)" fill="#ffb9b9"/>
      <path id="Path_294" data-name="Path 294" d="M567.8,743.83S494.7,776.9,525.6,810.4c0,0,0,15.664,32.633,12.618s95.722-8.7,98.768-6.962,12.618-34.373,4.351-36.113-18.274-3.916-18.274-3.916,8.7-1.305,8.7-8.7c0,0,24.8-1.74,32.2-17.4s14.358-27.411,14.358-27.411L715.3,766.02s19.58-36.113,34.373-20.015c0,0-16.534-103.989-29.152-113.561s-21.32-12.618-33.068-3.916-22.625,30.892-22.625,30.892Z" transform="translate(-452 -152.441)" fill="#090814"/>
      <path id="Path_295" data-name="Path 295" d="M742.277,792.562a98.038,98.038,0,0,0-8.7,7.4c-3.481,3.481-8.267,1.74-8.7,0s-8.267,1.305-9.137,13.923-6.091,23.931,7.832,27.846,13.488,15.229,13.488,15.229a46.934,46.934,0,0,0,35.243,2.176c19.58-6.526,12.618-13.488,12.618-13.488l-26.106-43.075S751.849,789.516,742.277,792.562Z" transform="translate(-452 -152.441)" fill="#090814"/>
      <path id="Path_296" data-name="Path 296" d="M670.05,576.751s41.77,14.358,46.121,17.4,23.931,17.4,14.358,24.8-17.4,12.183-36.113,6.527-39.594-23.06-39.594-23.06Z" transform="translate(-452 -152.441)" fill="#ffb9b9"/>
      <path id="Path_298" data-name="Path 298" d="M552.137,544.989s.435,16.969-1.305,18.709,20.885,53.082,45.686,30.457,5.656-31.762,5.656-31.762-9.137-16.969-8.7-18.709-40.464,0-40.464,0Z" transform="translate(-452 -152.441)" fill="#ffb9b9"/>
      <g id="Group_10" data-name="Group 10">
        <path id="Path_290" data-name="Path 290" d="M513.849,585.453s-16.534,6.091-16.534,22.625,6.091,39.159,10.007,40.464,30.022,19.144,34.808,6.526S513.849,585.453,513.849,585.453Z" transform="translate(-452 -152.441)" fill="#6c63ff"/>
        <path id="Path_297" data-name="Path 297" d="M628.28,557.607s16.534-3.046,28.282,3.481,21.755,19.58,21.755,19.58-10.878,23.06-18.709,26.541-22.19-13.923-22.19-13.923Z" transform="translate(-452 -152.441)" fill="#6c63ff"/>
        <path id="Path_300" data-name="Path 300" d="M559.1,577.622s16.534,11.313,23.5,8.7,15.664-13.923,16.534-14.793,45.251,88.326,45.251,88.326-6.527,32.633-23.931,42.2-17.187,17.187-19.362,23.713-30.24-20.667-30.24-20.667L553.008,629.4V583.278Z" transform="translate(-452 -152.441)" fill="#6c63ff"/>
        <path id="Path_301" data-name="Path 301" d="M551.92,557.389s-5.439-1.088-11.1,3.7-32.2,22.625-30.892,24.366S522.986,611.995,525.6,622s6.526,11.313,6.526,11.313,9.137,6.526,7.832,11.313-6.962,70.051.87,84.41,6.526,26.976,4.351,30.457,20.885-10.007,20.885-10.007,34.373-27.846,36.984-36.113a97.269,97.269,0,0,0,3.481-17.4s-22.19-87.891-29.152-92.677S551.92,557.389,551.92,557.389Z" transform="translate(-452 -149.441)" fill="#6c63ff"/>
        <path id="Path_302" data-name="Path 302" d="M599.72,557.733s10.721-6.653,12.9-4.913,22.625,1.74,23.06,3.481,1.305,43.51,16.1,54.388S657,643.322,657,643.322l10.878,17.4s-59.173,56.994-55.258,37.419c.218-1.088,0-1.305,0-1.305S589.556,598.071,592.6,592.85,601.182,563.951,599.72,557.733Z" transform="translate(-452 -150.441)" fill="#6c63ff"/>
      </g>
      <circle id="Ellipse_72" data-name="Ellipse 72" cx="32.197" cy="32.197" r="32.197" transform="translate(91.435 344.769)" opacity="0.1"/>
      <path id="Path_303" data-name="Path 303" d="M690.935,597.636l-59.174,20.45s-58.739,13.923-49.6,30.022S630.021,636.8,630.021,636.8l78.8-8.829S740.1,601.552,690.935,597.636Z" transform="translate(-452 -152.441)" fill="#ffb9b9"/>
      <circle id="Ellipse_64" data-name="Ellipse 64" cx="32.197" cy="32.197" r="32.197" transform="translate(91.435 344.252)" fill="#ffb9b9"/>
      <path id="Path_304" data-name="Path 304" d="M549.992,496.891l-5.956-2.166s12.453-12.453,29.779-11.37l-4.873-4.873s11.912-4.331,22.741,7.039c5.693,5.977,12.279,13,16.385,20.917h6.378l-2.662,5.324,9.317,5.324-9.563-.956a26.866,26.866,0,0,1-.9,13.789l-2.166,5.956s-8.663-17.326-8.663-19.492V521.8s-5.956-4.873-5.956-8.122l-3.249,3.79-1.624-5.956-20.033,5.956,3.249-4.873-12.453,1.624,4.873-5.956s-14.077,7.039-14.619,12.995-7.58,13.536-7.58,13.536l-3.249-5.414S534.29,505.013,549.992,496.891Z" transform="translate(-452 -152.441)" fill="#090814"/>
    </g>
  </g>
</svg>
