<svg xmlns="http://www.w3.org/2000/svg" width="763.288" height="800.542" viewBox="0 0 763.288 800.542"><g transform="translate(-695.37 -101.236)"><path d="M304.057,125.825l-24.33,21.989-12.839-14.206,24.33-21.989a20.1,20.1,0,0,1,6.859-13.941c7.584-6.854,18.33-7.323,24-1.046s4.123,16.921-3.461,23.775a20.1,20.1,0,0,1-14.562,5.418h0Z" transform="translate(643.37 252.27)" fill="#e8989b"/><path d="M201.414,180.7l83.761-72.052,21.751,25.143-95.68,93.7" transform="translate(641.045 252.853)" fill="#6c63ff"/><path d="M179.909,218.849l-12.147,48,83.877-1.036-9.6-43.86Z" transform="translate(639.85 256.767)" fill="#e8989b"/><path d="M166.284,377.223l-18.211,79.672L114.556,616.408l15.533,3.107,106.762-237.74Z" transform="translate(637.96 262.392)" fill="#e8989b"/><path d="M198.368,396.087l33.637,74.484,49.4,149.66,20.71-5.178L257.344,357.07Z" transform="translate(640.937 261.677)" fill="#e8989b"/><path d="M173.39,246.779s-37.448,75.142-30.619,158.147c0,0,55.209,47.636,143.9,3.54l-36.509-166.01-76.771,4.323h0Z" transform="translate(638.933 257.606)" fill="#090814"/><path d="M112.15,627.707a6.92,6.92,0,0,1-2.861-4.851c-.132-2.01.862-4.167,2.952-6.41.05-.646.7-8.643,2.144-10.075-.121-.428-.857-3.266.35-5.109a3.5,3.5,0,0,1,2.724-1.5l.054-.006.027.048c.035.062,3.552,6.249,8.844,6.792,3.034.311,6.071-1.269,9.027-4.7.106-.253.942-4.43,1.481-7.2l.022-.111,28.831,15.344,16.853,4.722a4.989,4.989,0,0,1,.817,9.264l-8.169,3.976a25.294,25.294,0,0,1-11.007,2.539h-44.31a12.278,12.278,0,0,1-7.778-2.727h0Z" transform="translate(637.773 270.113)" fill="#090814"/><path d="M271.15,627.707a6.92,6.92,0,0,1-2.861-4.851c-.132-2.01.862-4.167,2.952-6.41.05-.646.7-8.643,2.144-10.075-.121-.428-.857-3.266.35-5.109a3.5,3.5,0,0,1,2.724-1.5l.054-.006.027.048c.035.062,3.552,6.249,8.844,6.792,3.034.311,6.071-1.269,9.027-4.7.106-.253.942-4.43,1.481-7.2l.022-.111,28.831,15.344,16.853,4.722a4.989,4.989,0,0,1,.817,9.264l-8.169,3.976a25.294,25.294,0,0,1-11.006,2.539h-44.31a12.278,12.278,0,0,1-7.778-2.727Z" transform="translate(643.42 270.113)" fill="#090814"/><path d="M191.132,76.16A33.832,33.832,0,1,1,235.1,108.445l-6.54,43.223-33.341-27.784a83.993,83.993,0,0,0,11.065-19.519,33.8,33.8,0,0,1-15.152-28.2Z" transform="translate(640.68 250.498)" fill="#e8989b"/><path d="M193.152,107.251,233,132.723,251.392,165.2a45.437,45.437,0,0,1,5.073,31.012l-8.451,43.718H159.907l13.922-91.209a76.686,76.686,0,0,1,12.959-32.369l6.365-9.1Z" transform="translate(639.571 252.804)" fill="#6c63ff"/><path d="M180.655,120.8s1.58,11.986,16.217,12.378l29.691.794s-25.1-61.082-14.779-54.2S249.626,57.8,249.626,57.8l8.121,15.23s19.4-7.025-2.1-24.229c0,0-25.654-19.834-52.888-7.923s-22.1,79.919-22.1,79.919h0Z" transform="translate(640.294 250.311)" fill="#090814"/><path d="M198.782,328.666l-.711-32.787,19.143-.415.711,32.787a20.1,20.1,0,0,1,6.056,14.308c.222,10.22-6.455,18.654-14.913,18.837s-15.494-7.953-15.716-18.173A20.1,20.1,0,0,1,198.782,328.666Z" transform="translate(640.758 259.489)" fill="#e8989b"/><path d="M225.594,169.057V327.977H192.349L182.523,170.4" transform="translate(640.374 254.999)" fill="#6c63ff"/><path d="M335.9,629.583a1.12,1.12,0,0,1-.966,1.232H.966a1.269,1.269,0,0,1,0-2.465H334.93A1.121,1.121,0,0,1,335.9,629.583Z" transform="translate(695.37 270.963)" fill="#ccc"/><path d="M140.313,0a175.231,175.231,0,0,1,28.216,2.275A165.914,165.914,0,0,1,194.822,8.8,154.079,154.079,0,0,1,218.633,19.14a139.424,139.424,0,0,1,20.768,13.7,123.225,123.225,0,0,1,17.16,16.635,107.972,107.972,0,0,1,12.98,19.127,96.594,96.594,0,0,1,8.217,21.173,91.683,91.683,0,0,1,0,45.5,96.594,96.594,0,0,1-8.217,21.173,107.973,107.973,0,0,1-12.98,19.127,123.227,123.227,0,0,1-17.16,16.635,139.424,139.424,0,0,1-20.768,13.7,154.08,154.08,0,0,1-23.811,10.337,165.915,165.915,0,0,1-26.293,6.528,176.109,176.109,0,0,1-56.431,0A165.915,165.915,0,0,1,85.8,216.256a154.079,154.079,0,0,1-23.811-10.337,139.424,139.424,0,0,1-20.768-13.7,123.225,123.225,0,0,1-17.16-16.635,107.971,107.971,0,0,1-12.98-19.127A96.594,96.594,0,0,1,2.868,135.28a91.682,91.682,0,0,1,0-45.5,96.594,96.594,0,0,1,8.217-21.173,107.97,107.97,0,0,1,12.98-19.127,123.224,123.224,0,0,1,17.16-16.635,139.424,139.424,0,0,1,20.768-13.7A154.078,154.078,0,0,1,85.8,8.8,165.914,165.914,0,0,1,112.1,2.275,175.23,175.23,0,0,1,140.313,0Zm0,221.953a172.113,172.113,0,0,0,27.714-2.234,162.8,162.8,0,0,0,25.8-6.4,150.963,150.963,0,0,0,23.33-10.127,136.312,136.312,0,0,0,20.3-13.4,120.116,120.116,0,0,0,16.727-16.214A104.862,104.862,0,0,0,266.794,155a93.486,93.486,0,0,0,7.954-20.49,88.576,88.576,0,0,0,0-43.961,93.486,93.486,0,0,0-7.954-20.49,104.861,104.861,0,0,0-12.607-18.575A120.118,120.118,0,0,0,237.46,35.271a136.311,136.311,0,0,0-20.3-13.4,150.965,150.965,0,0,0-23.33-10.127,162.8,162.8,0,0,0-25.8-6.4,173,173,0,0,0-55.428,0,162.8,162.8,0,0,0-25.8,6.4,150.965,150.965,0,0,0-23.33,10.127,136.311,136.311,0,0,0-20.3,13.4A120.118,120.118,0,0,0,26.438,51.484,104.862,104.862,0,0,0,13.831,70.059a93.486,93.486,0,0,0-7.954,20.49,88.576,88.576,0,0,0,0,43.961A93.487,93.487,0,0,0,13.831,155a104.863,104.863,0,0,0,12.607,18.575,120.117,120.117,0,0,0,16.727,16.214,136.312,136.312,0,0,0,20.3,13.4A150.963,150.963,0,0,0,86.8,213.313a162.8,162.8,0,0,0,25.8,6.4A172.113,172.113,0,0,0,140.313,221.953Z" transform="translate(911.163 432.802) rotate(-43.502)" fill="#e6e6e6"/><path d="M318.8,306.852a126.18,126.18,0,0,1-18.656-25.381A132.724,132.724,0,0,1,288.307,252.6a148.422,148.422,0,0,1-5.157-31.354,169.481,169.481,0,0,1,1.37-32.841,191.833,191.833,0,0,1,7.746-33.347,212.05,212.05,0,0,1,13.977-32.878,228.394,228.394,0,0,1,20.068-31.433,242.462,242.462,0,0,1,56.354-53.481,228.394,228.394,0,0,1,32.439-18.4,212.057,212.057,0,0,1,33.563-12.24A191.836,191.836,0,0,1,482.374.634a169.479,169.479,0,0,1,32.868.348,148.424,148.424,0,0,1,31.042,6.789A132.726,132.726,0,0,1,574.5,21.1,126.178,126.178,0,0,1,598.87,41.057L596.617,43.2a123.069,123.069,0,0,0-23.77-19.466,129.614,129.614,0,0,0-27.555-13.016A145.313,145.313,0,0,0,514.9,4.07a166.363,166.363,0,0,0-32.264-.341,188.718,188.718,0,0,0-33.159,5.9,208.934,208.934,0,0,0-33.07,12.06,225.271,225.271,0,0,0-32,18.147,239.353,239.353,0,0,0-55.626,52.791,225.278,225.278,0,0,0-19.794,31,208.939,208.939,0,0,0-13.772,32.394,188.721,188.721,0,0,0-7.621,32.805,166.367,166.367,0,0,0-1.346,32.237,145.31,145.31,0,0,0,5.047,30.7,129.613,129.613,0,0,0,11.558,28.2,123.067,123.067,0,0,0,18.2,24.755Z" transform="translate(643.938 248.995)" fill="#e6e6e6"/><circle cx="13.979" cy="13.979" r="13.979" transform="translate(1111.265 282.207)" fill="#6c63ff"/><circle cx="13.979" cy="13.979" r="13.979" transform="translate(1188.928 430.286)" fill="#6c63ff"/><circle cx="13.979" cy="13.979" r="13.979" transform="translate(959.044 393.007)" fill="#6c63ff"/><circle cx="13.979" cy="13.979" r="13.979" transform="translate(1038.778 526.589)" fill="#6c63ff"/><path d="M93.666,0A116.975,116.975,0,0,1,112.5,1.519a110.756,110.756,0,0,1,17.552,4.358,102.856,102.856,0,0,1,15.9,6.9,93.074,93.074,0,0,1,13.864,9.149,82.259,82.259,0,0,1,11.455,11.1A72.077,72.077,0,0,1,179.932,45.8a64.482,64.482,0,0,1,5.485,14.134,61.2,61.2,0,0,1,0,30.374,64.482,64.482,0,0,1-5.485,14.134,72.077,72.077,0,0,1-8.665,12.768,82.26,82.26,0,0,1-11.455,11.1,93.073,93.073,0,0,1-13.864,9.149,102.855,102.855,0,0,1-15.9,6.9A110.756,110.756,0,0,1,112.5,148.72a117.562,117.562,0,0,1-37.671,0,110.756,110.756,0,0,1-17.552-4.358,102.854,102.854,0,0,1-15.9-6.9,93.072,93.072,0,0,1-13.864-9.149,82.259,82.259,0,0,1-11.455-11.1A72.076,72.076,0,0,1,7.4,104.44,64.481,64.481,0,0,1,1.914,90.307a61.2,61.2,0,0,1,0-30.374A64.481,64.481,0,0,1,7.4,45.8,72.076,72.076,0,0,1,16.064,33.03a82.259,82.259,0,0,1,11.455-11.1,93.073,93.073,0,0,1,13.864-9.149,102.855,102.855,0,0,1,15.9-6.9A110.756,110.756,0,0,1,74.83,1.519,116.975,116.975,0,0,1,93.666,0Zm0,148.165a114.9,114.9,0,0,0,18.5-1.491,108.679,108.679,0,0,0,17.223-4.276,100.777,100.777,0,0,0,15.574-6.76,91,91,0,0,0,13.554-8.944,80.184,80.184,0,0,0,11.166-10.823,70,70,0,0,0,8.416-12.4,62.406,62.406,0,0,0,5.309-13.678,59.129,59.129,0,0,0,0-29.346A62.406,62.406,0,0,0,178.1,46.768a70,70,0,0,0-8.416-12.4,80.184,80.184,0,0,0-11.166-10.823A90.994,90.994,0,0,0,144.963,14.6a100.778,100.778,0,0,0-15.574-6.76,108.677,108.677,0,0,0-17.223-4.276,115.488,115.488,0,0,0-37,0A108.677,108.677,0,0,0,57.943,7.841,100.777,100.777,0,0,0,42.369,14.6a91,91,0,0,0-13.554,8.944A80.184,80.184,0,0,0,17.649,34.368a70,70,0,0,0-8.416,12.4A62.407,62.407,0,0,0,3.923,60.446a59.129,59.129,0,0,0,0,29.346,62.407,62.407,0,0,0,5.309,13.678,70,70,0,0,0,8.416,12.4,80.184,80.184,0,0,0,11.166,10.823,91,91,0,0,0,13.554,8.944,100.776,100.776,0,0,0,15.574,6.76,108.679,108.679,0,0,0,17.223,4.276A114.9,114.9,0,0,0,93.666,148.165Z" transform="translate(968.867 431.593) rotate(-43.502)" fill="#e6e6e6"/><circle cx="10.873" cy="10.873" r="10.873" transform="translate(1159.934 373.333)" fill="#d6d6e3"/><circle cx="10.873" cy="10.873" r="10.873" transform="translate(1006.677 464.458)" fill="#d6d6e3"/><circle cx="10.873" cy="10.873" r="10.873" transform="translate(1178.573 249.071)" fill="#d6d6e3"/><circle cx="13.979" cy="13.979" r="13.979" transform="translate(1017.033 267.71)" fill="#6c63ff"/><rect width="68.344" height="26.923" rx="4" transform="translate(919.694 167.265)" fill="#6c63ff"/><g transform="translate(995.928 173.08)"><path d="M3.267,11.832a140.872,140.872,0,0,1,48.71-1.911c4.732.656,9.384,1.551,13.939,2.648a2.988,2.988,0,0,0,3.273-1.275c.4-1.007-.5-1.918-1.859-2.246A148.96,148.96,0,0,0,16.092,5.956,144.017,144.017,0,0,0,1.853,8.311c-3.255.7-1.864,4.232,1.415,3.521Z" transform="translate(0 -1.351)" fill="#d6d6e3"/><path d="M54.453,2.747,56.342,6.3l.971,1.827.486.914a1.962,1.962,0,0,0,.216.406c-.376-.394,1.041-1.573.375-1.333a14.138,14.138,0,0,0-1.712.908l-1.813.962-3.626,1.923a1.841,1.841,0,0,0-.655,2.5,1.866,1.866,0,0,0,2.5.655l4.23-2.244,2.015-1.069c.838-.445,1.712-.812,2.1-1.742A3.077,3.077,0,0,0,61.006,7.3L59.873,5.167,57.606.9a1.841,1.841,0,0,0-2.5-.655,1.866,1.866,0,0,0-.655,2.5h0Z" transform="translate(8.173 0)" fill="#d6d6e3"/></g><g transform="translate(863.776 173.079)"><path d="M45.3,11.832A67.056,67.056,0,0,0,11.876,9.921a71.864,71.864,0,0,0-9.564,2.648A1.844,1.844,0,0,1,.067,11.294,1.862,1.862,0,0,1,1.342,9.048,70.538,70.538,0,0,1,46.27,8.31c2.233.7,1.279,4.231-.971,3.521Z" transform="translate(0.487 -1.351)" fill="#d6d6e3"/><path d="M57.481,2.747,55.593,6.3l-.971,1.827-.486.913a1.962,1.962,0,0,1-.216.406c.376-.394-1.041-1.573-.375-1.333a14.138,14.138,0,0,1,1.712.908l1.813.962L60.7,11.906a1.841,1.841,0,0,1,.655,2.5,1.866,1.866,0,0,1-2.5.655l-4.23-2.244-2.015-1.068C51.771,11.3,50.9,10.935,50.5,10A3.077,3.077,0,0,1,50.929,7.3l1.133-2.131L54.328.9a1.841,1.841,0,0,1,2.5-.655,1.866,1.866,0,0,1,.655,2.5h0Z" transform="translate(-50.334 0)" fill="#d6d6e3"/></g><path d="M35.571,13.833v7.9A17.786,17.786,0,0,1,0,21.738v-7.9H13.833v7.9a3.952,3.952,0,1,0,7.9,0v-7.9ZM29.643,0a5.929,5.929,0,0,1,5.929,5.929V9.881H21.738V5.929A5.929,5.929,0,0,1,27.667,0ZM7.9,0a5.929,5.929,0,0,1,5.929,5.929V9.881H0V5.929A5.929,5.929,0,0,1,5.929,0Z" transform="matrix(0.839, -0.545, 0.545, 0.839, 1143.491, 132.685)" fill="#6c63ff"/><path d="M20.526,27.073a1.509,1.509,0,0,1-1.254-2.346l1.454-2.181H17.509A1.509,1.509,0,0,1,16.253,20.2l3.018-4.527a1.509,1.509,0,1,1,2.511,1.674l-1.454,2.181h3.217A1.509,1.509,0,0,1,24.8,21.874L21.783,26.4A1.508,1.508,0,0,1,20.526,27.073Z" transform="translate(1123.224 96.879)" fill="#d6d6e3"/><path d="M20.526,27.073a1.509,1.509,0,0,1-1.254-2.346l1.454-2.181H17.509A1.509,1.509,0,0,1,16.253,20.2l3.018-4.527a1.509,1.509,0,1,1,2.511,1.674l-1.454,2.181h3.217A1.509,1.509,0,0,1,24.8,21.874L21.783,26.4A1.508,1.508,0,0,1,20.526,27.073Z" transform="translate(1138.756 86.236)" fill="#d6d6e3"/><g transform="translate(1069.879 378.799) rotate(9)"><g transform="translate(0 0)"><path d="M41.579,20.79a25.217,25.217,0,0,1-.4,4.495A22.087,22.087,0,0,1,38.99,30.7c-1.849,3.284-3.831,4.51-5.461,7.726-.28.217-.568.412-.862.6-.585.378-.649,2.227-1.271,2.546,0,0-.009,0-.013.009a2.351,2.351,0,0,0-.321,1.07v.009c-.314,1.837-.585,5.575-.9,7.786-.042.267-.081.514-.123.73-.106.585-.216.959-.339,1.005-1.515.585-2.16-.217-3.82,0-.891.119-5.439.849-6.364.849-2.626,0-4.047-.895-6.173-1.854-.149-.064-.3-.132-.454-.2-.058-.022-.106-.047-.16-.068-.61-.259-1.188-6.784-1.761-9.254a.016.016,0,0,1,0-.013c-.119-.514-.238-.849-.357-.916l-.089-.051c-.378-.217-.747-.454-1.108-.7C7.226,36.339,3,32.876.92,27.213A23.862,23.862,0,0,1,0,20.79a20.79,20.79,0,1,1,41.579,0Z" transform="translate(0.328 11.179)" fill="#fff"/><path d="M41.5,26.1a22.088,22.088,0,0,1-2.185,5.418c-1.849,3.284-3.831,4.51-5.461,7.726-1.083,2.142-2.008,5.168-2.639,10.269-.038.3.042.645,0,.942-.1.657.022.539-.378,1.133-.183.1-.293-.042-.353-.321a8.859,8.859,0,0,1-.025-2.13,28.046,28.046,0,0,1,.924-5.656v-.009c.1-.369.212-.726.321-1.069,1.964-5.982,5.588-8.693,7.23-11.825,8.625-16.412-7.314-34.731-24.87-28.36-.942.344-.891.543-.942.568A19.145,19.145,0,0,0,9.451,4.484C1.672,9.776-1.119,20.251,2.389,28.881c1.9,4.671,5.881,7.306,8.456,12.615q.231.462.446.967a.016.016,0,0,0,0,.013A25.938,25.938,0,0,1,13.217,51.8c0,.058.009.11.009.165.152.013.3.022.446.034,2.253.2,3.712.556,4.468.165l.831.085c.276.385,4.911-.085,5.651-.094h.191A51.659,51.659,0,0,0,30.366,52c.094-.009.191-.021.284-.034a.5.5,0,0,1,.378.568A4.489,4.489,0,0,1,29.9,54.788c-.87.509-15.041.768-16.394-.186a2.126,2.126,0,0,1-.751-2.542c-.025-.119-.546-.458-.568-.568-.254-1.444.047-5.1-1.693-9.232a11.14,11.14,0,0,0-.755-1.463c-2.185-3.64-6.406-7.1-8.49-12.769A21.183,21.183,0,0,1,.13,18.521C.881,10.544,7.761,2.7,15.482.714,31.643-3.435,45.288,11.219,41.5,26.1Z" transform="translate(0 10.364)" fill="#010001"/><path d="M17.4,0c1.345,1.279.626,1.712,0,3.2-.79-.178-14.319.687-16.2,0A1.92,1.92,0,0,1,.633,0,75.541,75.541,0,0,0,17.4,0Z" transform="translate(12.701 65.591)" fill="#010001"/><path d="M18.471.377c.529,1.177-.484,1.9-.942,2.826l-.941.188L1.7,3.2C.805,3.03.237,1.775.005.942A.556.556,0,0,1,.289.377L1.513,0A133.884,133.884,0,0,0,16.3.377a2.153,2.153,0,0,1,2.167,0Z" transform="translate(12.385 68.983)" fill="#010001"/><path d="M7.584,21.782h-.39V15.4L0,.167.353,0,7.584,15.311Z" transform="translate(11.059 32.248)" fill="#6c63ff"/><path d="M.184.033c.8-.543.811,5.823.567,6.03C-.18,6.846-.083.216.184.033Z" transform="translate(20.824 0)" fill="#6c63ff"/><path d="M.033.019c.628-.4,2.073,5.623,1.98,5.935C1.48,7.729-.261.209.033.019Z" transform="translate(14.568 0.579)" fill="#6c63ff"/><path d="M1.217,0C1.964-.193.706,5.668.558,5.94-.855,8.51.812.112,1.217,0Z" transform="translate(26.197 0.594)" fill="#6c63ff"/><path d="M.321,22.816,0,15.725.007,15.7,3.826,0,4.2.092.393,15.764.71,22.8Z" transform="translate(24.404 31.224)" fill="#6c63ff"/></g></g><g transform="translate(1264.736 181.124)"><path d="M0,0V40.663" transform="translate(7.176 0)" fill="none" stroke="#e6e6e6" stroke-width="1"/><path d="M0,0V40.663" transform="translate(22.126 0)" fill="none" stroke="#e6e6e6" stroke-width="1"/><path d="M0,0V40.663" transform="translate(37.076 0)" fill="none" stroke="#e6e6e6" stroke-width="1"/><path d="M0,0V40.663" transform="translate(52.025 0)" fill="none" stroke="#e6e6e6" stroke-width="1"/><path d="M0,0,7.176,38.272" transform="translate(62.191 0)" fill="none" stroke="#e6e6e6" stroke-width="1"/><path d="M0,0H72.955" transform="translate(0 0)" fill="none" stroke="#090814" stroke-linecap="round" stroke-width="3"/><path d="M4.784,0A4.784,4.784,0,1,1,0,4.784,4.784,4.784,0,0,1,4.784,0Z" transform="translate(2.392 37.674)" fill="#6c63ff"/><path d="M4.784,0A4.784,4.784,0,1,1,0,4.784,4.784,4.784,0,0,1,4.784,0Z" transform="translate(17.342 37.674)" fill="#6c63ff"/><path d="M4.784,0A4.784,4.784,0,1,1,0,4.784,4.784,4.784,0,0,1,4.784,0Z" transform="translate(32.292 37.674)" fill="#6c63ff"/><path d="M4.784,0A4.784,4.784,0,1,1,0,4.784,4.784,4.784,0,0,1,4.784,0Z" transform="translate(47.241 37.674)" fill="#6c63ff"/><path d="M4.784,0A4.784,4.784,0,1,1,0,4.784,4.784,4.784,0,0,1,4.784,0Z" transform="translate(65.181 35.282)" fill="#6c63ff"/></g><g transform="translate(1351.505 273.923)"><circle cx="2.466" cy="2.466" r="2.466" transform="translate(1.664 63.282)" fill="#090814"/><path d="M556.74,300.7A173.371,173.371,0,0,1,529.2,286.258c-20.956-13.48-35.242-29.072-35.553-38.8a7.559,7.559,0,0,1,3.139-6.7c3.517-2.592,9.784-3.215,18.127-1.8l-.206,1.216c-8.006-1.358-13.949-.813-17.188,1.577a6.394,6.394,0,0,0-2.638,5.669c.3,9.338,14.36,24.527,34.99,37.8a172.09,172.09,0,0,0,27.334,14.341Z" transform="translate(-493.646 -215.735)" fill="#6c63ff"/><path d="M640.456,315.768A56.562,56.562,0,0,1,627.547,314l.287-1.2c10.337,2.478,18.159,2.271,22.028-.581a6.394,6.394,0,0,0,2.638-5.669c-.3-9.339-14.36-24.527-34.99-37.8a166.7,166.7,0,0,0-32.117-16.2l.424-1.157a167.959,167.959,0,0,1,32.357,16.319c20.955,13.479,35.244,29.07,35.555,38.8a7.559,7.559,0,0,1-3.139,6.7C648.285,314.914,644.859,315.768,640.456,315.768Z" transform="translate(-547.692 -223.498)" fill="#6c63ff"/><path d="M506.962,308c-4.415,0-7.873-.847-10.173-2.545a7.56,7.56,0,0,1-3.139-6.7c.311-9.726,14.6-25.317,35.555-38.8,23.421-15.065,49.709-23.993,62.509-21.228l-.26,1.2c-12.511-2.7-38.411,6.155-61.582,21.06-20.63,13.27-34.691,28.461-34.99,37.8a6.393,6.393,0,0,0,2.638,5.669c9.256,6.826,38.837-1.8,65.941-19.237,18.619-11.976,31.848-25.375,34.526-34.969l1.187.331c-2.756,9.872-16.185,23.542-35.047,35.675-13.274,8.538-27.547,15.248-40.19,18.893A63.169,63.169,0,0,1,506.962,308Z" transform="translate(-493.645 -215.739)" fill="#6c63ff"/><circle cx="3.699" cy="3.699" r="3.699" transform="translate(25.995 21.984)" fill="#090814"/><circle cx="3.699" cy="3.699" r="3.699" transform="translate(67.293 83.829)" fill="#090814"/><circle cx="2.466" cy="2.466" r="2.466" transform="translate(80.032 118.757)" fill="#e5e5e5"/><circle cx="2.466" cy="2.466" r="2.466" transform="translate(19.215 0)" fill="#e5e5e5"/><circle cx="3.699" cy="3.699" r="3.699" transform="translate(99.756 23.834)" fill="#090814"/></g></g></svg>