<svg xmlns="http://www.w3.org/2000/svg" width="871.279" height="473.11" viewBox="0 0 871.279 473.11"><g transform="translate(-381.391 -227.002)"><path d="M0,624.089c0,.5.631.9,1.417.9H869.862c.786,0,1.417-.4,1.417-.9s-.631-.9-1.417-.9H1.417C.631,623.193,0,623.592,0,624.089Z" transform="translate(381.391 75.127)" fill="#e6e6e6"/><g transform="translate(502.026 227.002)"><path d="M367.916,297.887c1.973,7.906-.666,15.324-5.894,16.569s-11.064-4.155-13.036-12.064a19.667,19.667,0,0,1-.109-9.625l-7.92-33.6,16.462-3.357,6.06,33.483a19.947,19.947,0,0,1,4.438,8.6Z" transform="translate(-212.563 -63.208)" fill="#ffb9b9"/><g transform="translate(85.013 426.822)"><path d="M285.094,566.9l1.014,22.024-1.016,6.094,3.555,7.11,27.932,3.047,1.524-13.2-14.728-7.618-.428-12.444Z" transform="translate(-283.773 -566.897)" fill="#ffb9b9"/><path d="M314.115,607.312l-1.524,2.031-29.252-8.43s1.32,13,1.32,15.54,48.246,2.539,55.506,1.524,4.929-7.618,4.929-7.618l-30.107-14.252-.872,11.2Z" transform="translate(-283.34 -574.115)" fill="#090814"/></g><g transform="translate(0 410.61)"><path d="M185.486,545.365l-6.087,21.19L176.486,572l1.093,7.874L203.066,591.7l5.669-12.022L197.22,567.751l7.223-18.731Z" transform="translate(-171.924 -545.365)" fill="#ffb9b9"/><path d="M201.27,594.436l-2.094,1.437-25.016-17.348s-2.91,12.739-3.723,15.145,44.9,17.846,52.1,19.207,7.107-5.64,7.107-5.64L205.682,584.1l-4.412,10.336Z" transform="translate(-170.427 -553.559)" fill="#090814"/></g><path d="M277.445,82.7l1.067,17.321-32.343,1.641,10.016-22.821Z" transform="translate(-189.142 -19.481)" fill="#ffb9b9"/><path d="M276.864,103.531c-8.669,3.867-22.535,2.809-38.249,0L236.158,212.4s49.156,9.883,66.057-8.352l-8.9-88.952-16.456-11.564h0Z" transform="translate(-186.669 -25.582)" fill="#6c63ff"/><path d="M282.792,240.579l-69.4,6.859L179.15,479.971H205.39l44.934-159.335,3.558,180.573H277.9l20.459-221.046Z" transform="translate(-172.582 -59.445)" fill="#090814"/><path d="M240.341,94.671l-23.316,13.8A22.45,22.45,0,0,0,206.913,134.1l18.02,61.548s-29.344,50.413-19.809,54.86c21.427,9.994,53.4,7.561,53.4,7.561l-7.146-120.7-11.038-42.7h0Z" transform="translate(-178.529 -23.392)" fill="#3f3d58"/><path d="M288.877,102.924l26.364,10.242,6.227,76.054,17.438,61.269c-29.535,10.781-26.777,5.757-26.777,5.757l-4.892-105.72-18.359-47.6h0Z" transform="translate(-199.695 -25.431)" fill="#3f3d58"/><path d="M331.074,251.891l-.09-.416L304.035,126.83a10.717,10.717,0,0,1,20.888-4.8l29.6,121.675-23.45,8.185Z" transform="translate(-203.378 -28.13)" fill="#3f3d58"/><circle cx="26.24" cy="26.24" r="26.24" transform="translate(48.029 15.341)" fill="#ffb9b9"/><path d="M265.593,7.584c5.78,2.031,9.087,3.194,12.117,6.112,5.117,4.93,5.962,11.518,6.746,17.64.614,4.789,1.408,10.981-1.4,18.055-.957,2.414-5.6,13.17-14.485,14.529-1.745.267-5.842.337-4.661-.535,10.929-8.068,15.593-12.939,15.211-25.374-.238-7.727-12.044-16.069-19.054-17.568a11.939,11.939,0,0,0-9.7,2.26c-5.892,4.837-5.641,24.839-11.854,29.02-2.555,1.72-.853-10.385-2.653-8.422-3.552,3.873-1.274,9.8-.635,12.063,3.028,10.715,6.2,2.791,9.154,11.941,3.193,9.878-24.811,16.529-25.764,18.735-1.658,3.837,22.023,22.042,15.523,25.2-8.25,4.009-14.754-1.212-18.589,3.264-2.144,2.5-.984,5.152-4.857,12.935-1.264,2.541-1.9,3.811-2.456,3.766-2.648-.213-6.936-21.411,0-41.152,2.91-8.285,5.761-16.4,13.4-22.749,4.041-3.356,7.429-4.563,8.394-8.482,1.378-5.6-4.344-7.988-5.491-16.821-.784-6.041-1.335-14.681.8-20.219,2.014-5.23,3.763-9.769,8.339-13.885,1.1-.989,9.972-7.709,19.38-7.9,4.331-.087,7.514,5.818,12.535,7.583h0Z" transform="translate(-178.84 0)" fill="#090814"/><path d="M273.188,211.855c8.1-.853,15.082,2.794,15.587,8.145s-5.655,10.377-13.762,11.229A19.667,19.667,0,0,1,265.467,230l-34.378,3.163-1.032-16.769,34-1.338a19.946,19.946,0,0,1,9.131-3.2Z" transform="translate(-185.161 -52.317)" fill="#ffb9b9"/><path d="M222.9,114h0a15.969,15.969,0,0,0-17.859,12.523c-6.034,28.691-16.863,89.808.145,90.828,22.238,1.334,43.586-4,43.586-4l-5.337-30.688-17.346-1.779,10.2-47.724A15.974,15.974,0,0,0,222.9,114Z" transform="translate(-176.758 -28.13)" fill="#3f3d58"/></g><path d="M358.106,306.427l-.828,1.032-5.368,6.659-56.31,69.8L200.048,525.256l-13.658.064,95.6-141.4,65.149-80.768,4.766,1.423,5.368,1.6Z" transform="translate(595.05 173)" fill="#f2f2f2"/><path d="M581.557,525.32l-11.241-.064L474.757,383.918,419.93,315.949l-6.844-8.49-.836-1.032.836-.25,6.844-2.045,3.29-.982,64.17,80.768Z" transform="translate(539.242 173)" fill="#f2f2f2"/><path d="M462.958,426.621H450.324L395.5,314.031v112.59H383.285V311l-56.31,115.624H313.37l65.149-133.792,4.766,2.357V261.38H395.5v33.075l3.29-1.626Z" transform="translate(562.956 88.138)" opacity="0.1"/><rect width="385.276" height="212.17" transform="translate(760.518 300.606)" fill="#090814"/><rect width="370.511" height="198.859" transform="translate(767.716 307.268)" fill="#fff"/><circle cx="5.881" cy="5.881" r="5.881" transform="translate(836.448 345.272)" fill="#ccc"/><circle cx="5.881" cy="5.881" r="5.881" transform="translate(836.448 367.489)" fill="#ccc"/><circle cx="5.881" cy="5.881" r="5.881" transform="translate(836.448 389.702)" fill="#ccc"/><circle cx="5.881" cy="5.881" r="5.881" transform="translate(836.448 411.919)" fill="#ccc"/><circle cx="5.881" cy="5.881" r="5.881" transform="translate(935.438 456.349)" fill="#ccc"/><circle cx="5.881" cy="5.881" r="5.881" transform="translate(892.967 456.349)" fill="#ccc"/><circle cx="5.881" cy="5.881" r="5.881" transform="translate(1022.994 456.349)" fill="#ccc"/><circle cx="5.881" cy="5.881" r="5.881" transform="translate(978.562 456.349)" fill="#ccc"/><path d="M517.271,257.807H323.864a.653.653,0,0,1,0-1.307H517.271a.653.653,0,0,1,0,1.307Z" transform="translate(547.867 93.998)" fill="#ccc"/><path d="M517.271,291.807H323.864a.653.653,0,0,1,0-1.307H517.271a.653.653,0,0,1,0,1.307Z" transform="translate(547.867 82.215)" fill="#ccc"/><path d="M517.271,325.807H323.864a.653.653,0,0,1,0-1.307H517.271a.653.653,0,0,1,0,1.307Z" transform="translate(547.867 70.432)" fill="#ccc"/><path d="M517.271,359.807H323.864a.653.653,0,0,1,0-1.307H517.271a.653.653,0,0,1,0,1.307Z" transform="translate(547.867 58.645)" fill="#ccc"/><path d="M368.427,381.676H349.478a3.271,3.271,0,0,1-3.267-3.267V360.767a3.271,3.271,0,0,1,3.267-3.267h18.949a3.271,3.271,0,0,1,3.267,3.267v17.642a3.271,3.271,0,0,1-3.267,3.267Z" transform="translate(539.896 58.992)" fill="#6c63ff"/><path d="M433.427,369.891H414.478a3.271,3.271,0,0,1-3.267-3.267V326.767a3.271,3.271,0,0,1,3.267-3.267h18.949a3.271,3.271,0,0,1,3.267,3.267v39.857A3.271,3.271,0,0,1,433.427,369.891Z" transform="translate(517.367 70.776)" fill="#6c63ff"/><path d="M499.426,358.107H480.478a3.271,3.271,0,0,1-3.267-3.267V292.767a3.271,3.271,0,0,1,3.267-3.267h18.949a3.271,3.271,0,0,1,3.267,3.267V354.84a3.271,3.271,0,0,1-3.267,3.267Z" transform="translate(494.491 82.562)" fill="#6c63ff"/><path d="M567.426,346.669H548.478a3.271,3.271,0,0,1-3.267-3.267V259.767a3.271,3.271,0,0,1,3.267-3.267h18.949a3.271,3.271,0,0,1,3.267,3.267V343.4a3.271,3.271,0,0,1-3.267,3.267Z" transform="translate(470.922 93.998)" fill="#6c63ff"/><path d="M517.271,393.807H323.864a.653.653,0,0,1,0-1.307H517.271a.653.653,0,0,1,0,1.307Z" transform="translate(547.867 46.862)" fill="#3f3d56"/></g></svg>