<svg xmlns="http://www.w3.org/2000/svg" width="858.823" height="768.554" viewBox="0 0 858.823 768.554">
  <g id="Group_86" data-name="Group 86" transform="translate(-520 -155.723)">
    <path id="Path_1356" data-name="Path 1356" d="M899.8,331.9H427.318a18.062,18.062,0,0,1-18.041-18.041V178.167a18.062,18.062,0,0,1,18.041-18.041H939.787a18.062,18.062,0,0,1,18.041,18.041v95.7A58.1,58.1,0,0,1,899.8,331.9Z" transform="translate(297.884 -4.402)" fill="#f2f2f2"/>
    <path id="Path_1357" data-name="Path 1357" d="M710.5,198.815H494.744a4.653,4.653,0,1,1,0-9.306H710.5a4.653,4.653,0,0,1,0,9.306Z" transform="translate(324.202 5.167)" fill="#fff"/>
    <path id="Path_1358" data-name="Path 1358" d="M819.721,213.17H494.744a4.653,4.653,0,1,1,0-9.306H819.721a4.653,4.653,0,0,1,0,9.306Z" transform="translate(324.202 9.842)" fill="#fff"/>
    <path id="Path_1359" data-name="Path 1359" d="M819.721,229.648H494.744a4.653,4.653,0,1,1,0-9.306H819.721a4.653,4.653,0,0,1,0,9.306Z" transform="translate(324.202 15.208)" fill="#fff"/>
    <path id="Path_1360" data-name="Path 1360" d="M819.721,246.125H494.744a4.653,4.653,0,1,1,0-9.306H819.721a4.653,4.653,0,0,1,0,9.306Z" transform="translate(324.202 20.574)" fill="#fff"/>
    <path id="Path_1361" data-name="Path 1361" d="M819.721,262.6H494.744a4.653,4.653,0,0,1,0-9.306H819.721a4.653,4.653,0,1,1,0,9.306Z" transform="translate(324.202 25.94)" fill="#fff"/>
    <path id="Path_1362" data-name="Path 1362" d="M822.946,432.059H286.136a18.062,18.062,0,0,1-18.041-18.041V253.98a18.062,18.062,0,0,1,18.041-18.041h536.81a18.062,18.062,0,0,1,18.041,18.041V414.018a18.062,18.062,0,0,1-18.041,18.041Z" transform="translate(251.905 20.288)" fill="#e6e6e6"/>
    <path id="Path_1363" data-name="Path 1363" d="M767.8,416.9H295.318a18.062,18.062,0,0,1-18.041-18.041V263.167a18.062,18.062,0,0,1,18.041-18.041H807.787a18.062,18.062,0,0,1,18.041,18.041v95.7A58.1,58.1,0,0,1,767.8,416.9Z" transform="translate(254.896 23.279)" fill="#fff"/>
    <path id="Path_1364" data-name="Path 1364" d="M578.5,283.815H362.744a4.653,4.653,0,0,1,0-9.306H578.5a4.653,4.653,0,1,1,0,9.306Z" transform="translate(281.214 32.849)" fill="#6c63ff"/>
    <path id="Path_1365" data-name="Path 1365" d="M687.721,298.17H362.744a4.653,4.653,0,0,1,0-9.306H687.721a4.653,4.653,0,1,1,0,9.306Z" transform="translate(281.214 37.523)" fill="#e6e6e6"/>
    <path id="Path_1366" data-name="Path 1366" d="M687.721,314.648H362.744a4.653,4.653,0,0,1,0-9.306H687.721a4.653,4.653,0,1,1,0,9.306Z" transform="translate(281.214 42.89)" fill="#e6e6e6"/>
    <path id="Path_1367" data-name="Path 1367" d="M687.721,331.125H362.744a4.653,4.653,0,0,1,0-9.306H687.721a4.653,4.653,0,1,1,0,9.306Z" transform="translate(281.214 48.256)" fill="#e6e6e6"/>
    <path id="Path_1368" data-name="Path 1368" d="M687.721,347.6H362.744a4.653,4.653,0,0,1,0-9.306H687.721a4.653,4.653,0,1,1,0,9.306Z" transform="translate(281.214 53.622)" fill="#e6e6e6"/>
    <g id="Group_85" data-name="Group 85" transform="translate(1029.812 654.097)">
      <path id="Path_1373" data-name="Path 1373" d="M569.24,425.055a34.685,34.685,0,1,0,34.685,34.685,34.685,34.685,0,0,0-34.685-34.685Z" transform="translate(-534.555 -425.055)" fill="#6c63ff"/>
      <path id="Path_1374" data-name="Path 1374" d="M36.62,19.373,26.787,33.725a2.916,2.916,0,0,1-4.811-3.3l6.359-9.282H3.421a3.421,3.421,0,1,1,0-6.843H28.648L21.976,4.565a2.916,2.916,0,0,1,4.811-3.3L36.62,15.62A3.848,3.848,0,0,1,36.62,19.373Z" transform="translate(51.993 16.261) rotate(90)" fill="#fff"/>
    </g>
    <path id="Path_1369" data-name="Path 1369" d="M416.145,494.424A34.685,34.685,0,1,1,450.83,459.74a34.684,34.684,0,0,1-34.685,34.685Z" transform="translate(288.824 81.876)" fill="#e6e6e6"/>
    <path id="Path_1370" data-name="Path 1370" d="M425.512,452H415.248V441.736a3.421,3.421,0,1,0-6.843,0V452H398.141a3.421,3.421,0,1,0,0,6.843h10.264v10.264a3.421,3.421,0,1,0,6.843,0V458.843h10.264a3.421,3.421,0,0,0,0-6.843Z" transform="translate(293.143 86.194)" fill="#fff"/>
    <path id="Path_1371" data-name="Path 1371" d="M492.692,494.424a34.685,34.685,0,1,1,34.685-34.685,34.685,34.685,0,0,1-34.685,34.685Z" transform="translate(313.754 81.876)" fill="#e6e6e6"/>
    <path id="Path_1372" data-name="Path 1372" d="M502.06,448.638H474.689a3.421,3.421,0,1,0,0,6.843H502.06a3.421,3.421,0,0,0,0-6.843Z" transform="translate(318.071 89.557)" fill="#fff"/>
    <g id="Group_84" data-name="Group 84">
      <path id="Path_1373-2" data-name="Path 1373" d="M569.24,494.424a34.685,34.685,0,1,1,34.685-34.685,34.685,34.685,0,0,1-34.685,34.685Z" transform="translate(338.444 81.945)" fill="#6c63ff"/>
      <path id="Path_1374-2" data-name="Path 1374" d="M584.435,453.813,574.6,439.461a2.916,2.916,0,0,0-4.811,3.3l6.359,9.282H551.236a3.421,3.421,0,1,0,0,6.843h25.226l-6.672,9.739a2.916,2.916,0,0,0,4.811,3.3l9.833-14.352A3.848,3.848,0,0,0,584.435,453.813Z" transform="translate(451.807 1107.923) rotate(-90)" fill="#fff"/>
    </g>
    <path id="Path_1386" data-name="Path 1386" d="M910.99,750.359H867l-.189-.343c-.562-1.02-1.106-2.1-1.613-3.212-4.532-9.7-6.447-20.8-8.137-30.587l-1.273-7.379a4.556,4.556,0,0,1,7.172-4.457q10.029,7.3,20.066,14.581c2.534,1.844,5.427,3.977,8.2,6.283.267-1.3.547-2.6.827-3.885a4.559,4.559,0,0,1,8.326-1.44l5.147,8.27c3.754,6.039,7.068,11.991,6.393,18.409a1,1,0,0,1-.018.233,14.5,14.5,0,0,1-.747,3.09Z" transform="translate(415.274 172.559)" fill="#f0f0f0"/>
    <path id="Path_1387" data-name="Path 1387" d="M1012.713,740.343l-397.041.407a1.581,1.581,0,0,1,0-3.157l397.041-.407a1.581,1.581,0,0,1,0,3.157Z" transform="translate(364.611 183.527)" fill="#e6e6e6"/>
    <path id="Path_1398" data-name="Path 1398" d="M404.349,445.911s-17.371,36.19-5.79,37.638,14.476-32.571,14.476-32.571Z" transform="translate(686.146 186.88)" fill="#ffb9b9"/>
    <path id="Path_1410" data-name="Path 1410" d="M362.072,206.838h0a21.38,21.38,0,0,0-15.731,17.7l-10.326,73.5-14.476,58.628S314.3,363.179,317.2,366.8s-3.619,18.819-3.619,18.819l18.1,5.79s2.171-15.2,5.79-15.924c3.18-.636,38.784-95.746,47.366-118.787,1.183-3.177,1.853-4.984,1.853-4.984S385.234,203.219,362.072,206.838Z" transform="translate(771.127 252.965)" fill="#d6d6e3"/>
    <path id="Path_1399" data-name="Path 1399" d="M188.811,724.945,174.691,751.74,198.22,758.6l5.012-24.233Z" transform="translate(967.551 139.464)" fill="#ffb9b9"/>
    <path id="Path_1400" data-name="Path 1400" d="M327.666,792.282l-24.872,12.725S263.87,814.287,289.213,822s36.752,2.23,36.752,2.23,33.153,1.724,32.619-7.526-6.912-22.256-6.912-22.256S329.483,800.244,327.666,792.282Z" transform="translate(815.588 95.838)" fill="#090814"/>
    <path id="Path_1402" data-name="Path 1402" d="M307.421,438.921l-10.857,131.37s-.362,78.533-11.943,93.733-11.943,22.8-11.943,22.8l-23.886-12.3s12.3-20.5,9.771-23.642a17.5,17.5,0,0,1-3.257-6.758l6.514-81.066-12.3-141.142Z" transform="translate(900.331 193.509)" fill="#090814"/>
    <path id="Path_1404" data-name="Path 1404" d="M267.578,787.911" transform="translate(923.527 92.421)" fill="none" stroke="#3f3d56" stroke-miterlimit="10" stroke-width="1"/>
    <path id="Path_1405" data-name="Path 1405" d="M113.155,723.84l10.133,26.781,28.952-10.857-18.1-18.819Z" transform="translate(1064.921 140.568)" fill="#ffb9b9"/>
    <path id="Path_1407" data-name="Path 1407" d="M250.368,444.53l-5.79,120.875s28.228,80.342,52.838,93.371c0,0,0,15.924,5.79,18.819a14.537,14.537,0,0,1,7.238,8.686l31.847-7.962-14.476-23.162L295.968,577.71s-5.067-2.171-6.514-9.409-4.343-7.238,2.9-8.686,7.238-8.686,7.238-8.686l23.886-110.018Z" transform="translate(865.461 188.261)" fill="#090814"/>
    <ellipse id="Ellipse_271" data-name="Ellipse 271" cx="28.952" cy="28.952" rx="28.952" ry="28.952" transform="translate(1112.934 385.251)" fill="#ffb9b9"/>
    <path id="Path_1408" data-name="Path 1408" d="M318.286,146.411s2.171,36.914,5.067,40.533-30.4,2.9-30.4,2.9,2.171-31.124,0-34.019S318.286,146.411,318.286,146.411Z" transform="translate(849.295 269.601)" fill="#ffb9b9"/>
    <path id="Path_1409" data-name="Path 1409" d="M296,186.735s-27.5-2.9-37.638,5.79a74.474,74.474,0,0,1-10.366,7.416,21.261,21.261,0,0,0-10.316,17.6L232.3,382.162s81.79-7.238,96.99,0c0,0,.724-16.647,2.171-18.819,1.055-1.583,2.88-64.712,3.791-98.812a75.084,75.084,0,0,0-19-52.4c-4.387-4.856-9.288-8.926-14.464-10.917C301.786,201.211,303.234,187.458,296,186.735Z" transform="translate(881.356 258.592)" fill="#d6d6e3"/>
    <path id="Path_1411" data-name="Path 1411" d="M357.868,268.411l-43.79,118.464S356.42,306.773,357.868,268.411Z" transform="translate(799.58 235.905)" opacity="0.1"/>
    <path id="Path_1412" data-name="Path 1412" d="M343.193,135.6c-2.449-.146-4.839.681-7.271,1-8.7,1.155-17.749-5.158-19.67-13.72a10.528,10.528,0,0,0-1.006-3.278c-1.339-2.186-4.388-2.6-6.9-2.1s-4.9,1.679-7.456,1.813c-3.952.207-7.747-2.226-9.853-5.577a18.911,18.911,0,0,1-2.418-11.422l1.895,1.989a9.624,9.624,0,0,0,.858-5.231,6.07,6.07,0,0,1,5.749,1.471c1.671.178.41-3.1,1.651-4.231a2.871,2.871,0,0,1,2.02-.378c3.554.034,6.43-2.684,9.23-4.873a39.223,39.223,0,0,1,16.566-7.556c4.014-.783,8.281-.909,12.088.586a25.82,25.82,0,0,1,8.163,5.79c5.959,5.73,11.236,12.463,13.715,20.349a34.256,34.256,0,0,1,.164,19.864c-1,3.372-4.009,14.918-8.417,15.187C346.761,145.63,350.086,136.015,343.193,135.6Z" transform="matrix(0.934, 0.358, -0.358, 0.934, 886.754, 179.446)" fill="#090814"/>
    <path id="Path_1406" data-name="Path 1406" d="M248.11,782.393s-9.57-5.93-10.766-3.558-5.981,12.453-5.981,12.453l-5.383,14.825s-32.9,20.756-4.785,21.942,35.288-14.825,35.288-14.825,31.7-13.639,26.915-21.942-21.532-16.913-21.532-16.913S253.493,788.916,248.11,782.393Z" transform="translate(942.531 94.8)" fill="#090814"/>
  </g>
</svg>
