<svg xmlns="http://www.w3.org/2000/svg" width="799.546" height="398.675" viewBox="0 0 799.546 398.675"><g transform="translate(-102.227 -456.663)"><g transform="translate(102.227 855.338) rotate(-90)"><path d="M398.672,190h-4.394V69.654A69.653,69.653,0,0,0,324.625,0H69.653A69.654,69.654,0,0,0,0,69.651V729.892a69.654,69.654,0,0,0,69.653,69.654H324.627a69.654,69.654,0,0,0,69.654-69.654h0V275.666h4.394Z" fill="#090814"/><path d="M360.237,52.019V711.283A51.972,51.972,0,0,1,308.312,763.3H52.019A51.982,51.982,0,0,1,0,711.357V52.019A51.982,51.982,0,0,1,51.945,0H83.1a24.709,24.709,0,0,0,22.882,34.042H252.057A24.709,24.709,0,0,0,274.94,0h33.279a51.972,51.972,0,0,1,52.019,51.925v.093Z" transform="translate(19.217 18.124)" fill="#fff"/></g><path d="M250.312,385.039a1,1,0,0,1-1-1v-35a1,1,0,0,1,2,0v35A1,1,0,0,1,250.312,385.039Z" transform="translate(116.688 248.866)" fill="#ccc"/><path d="M257.312,390.539a1,1,0,0,1-1-1v-46a1,1,0,0,1,2,0v46A1,1,0,0,1,257.312,390.539Z" transform="translate(116.688 248.866)" fill="#ccc"/><path d="M264.312,394.039a1,1,0,0,1-1-1v-53a1,1,0,0,1,2,0v53A1,1,0,0,1,264.312,394.039Z" transform="translate(116.688 248.866)" fill="#ccc"/><path d="M271.312,403.039a1,1,0,0,1-1-1v-71a1,1,0,0,1,2,0v71A1,1,0,0,1,271.312,403.039Z" transform="translate(116.688 248.866)" fill="#ccc"/><path d="M278.312,416.539a1,1,0,0,1-1-1v-98a1,1,0,0,1,2,0v98A1,1,0,0,1,278.312,416.539Z" transform="translate(116.688 248.866)" fill="#ccc"/><path d="M285.312,403.039a1,1,0,0,1-1-1v-71a1,1,0,0,1,2,0v71A1,1,0,0,1,285.312,403.039Z" transform="translate(116.688 248.866)" fill="#ccc"/><path d="M292.312,409.539a1,1,0,0,1-1-1v-84a1,1,0,0,1,2,0v84A1,1,0,0,1,292.312,409.539Z" transform="translate(116.688 248.866)" fill="#ccc"/><path d="M299.312,392.539a1,1,0,0,1-1-1v-50a1,1,0,0,1,2,0v50A1,1,0,0,1,299.312,392.539Z" transform="translate(116.688 248.866)" fill="#ccc"/><path d="M306.312,396.539a1,1,0,0,1-1-1v-58a1,1,0,0,1,2,0v58A1,1,0,0,1,306.312,396.539Z" transform="translate(116.688 248.866)" fill="#ccc"/><path d="M313.312,385.039a1,1,0,0,1-1-1v-35a1,1,0,0,1,2,0v35A1,1,0,0,1,313.312,385.039Z" transform="translate(116.688 248.866)" fill="#ccc"/><path d="M319.312,385.039a1,1,0,0,1-1-1v-35a1,1,0,0,1,2,0v35A1,1,0,0,1,319.312,385.039Z" transform="translate(116.688 248.866)" fill="#ccc"/><path d="M326.312,390.539a1,1,0,0,1-1-1v-46a1,1,0,0,1,2,0v46A1,1,0,0,1,326.312,390.539Z" transform="translate(116.688 248.866)" fill="#ccc"/><path d="M333.312,394.039a1,1,0,0,1-1-1v-53a1,1,0,0,1,2,0v53A1,1,0,0,1,333.312,394.039Z" transform="translate(116.688 248.866)" fill="#ccc"/><path d="M340.312,403.039a1,1,0,0,1-1-1v-71a1,1,0,0,1,2,0v71A1,1,0,0,1,340.312,403.039Z" transform="translate(116.688 248.866)" fill="#ccc"/><path d="M347.312,432.539a1,1,0,0,1-1-1v-130a1,1,0,0,1,2,0v130A1,1,0,0,1,347.312,432.539Z" transform="translate(116.688 248.866)" fill="#ccc"/><path d="M354.312,403.039a1,1,0,0,1-1-1v-71a1,1,0,0,1,2,0v71A1,1,0,0,1,354.312,403.039Z" transform="translate(116.688 248.866)" fill="#ccc"/><path d="M361.312,409.539a1,1,0,0,1-1-1v-84a1,1,0,0,1,2,0v84A1,1,0,0,1,361.312,409.539Z" transform="translate(116.688 248.866)" fill="#ccc"/><path d="M368.312,392.539a1,1,0,0,1-1-1v-50a1,1,0,0,1,2,0v50A1,1,0,0,1,368.312,392.539Z" transform="translate(116.688 248.866)" fill="#ccc"/><path d="M375.312,396.539a1,1,0,0,1-1-1v-58a1,1,0,0,1,2,0v58A1,1,0,0,1,375.312,396.539Z" transform="translate(116.688 248.866)" fill="#ccc"/><path d="M382.312,385.039a1,1,0,0,1-1-1v-35a1,1,0,0,1,2,0v35A1,1,0,0,1,382.312,385.039Z" transform="translate(116.688 248.866)" fill="#ccc"/><path d="M388.312,385.039a1,1,0,0,1-1-1v-35a1,1,0,0,1,2,0v35A1,1,0,0,1,388.312,385.039Z" transform="translate(116.688 248.866)" fill="#ccc"/><path d="M395.312,390.539a1,1,0,0,1-1-1v-46a1,1,0,0,1,2,0v46A1,1,0,0,1,395.312,390.539Z" transform="translate(116.688 248.866)" fill="#ccc"/><path d="M402.312,394.039a1,1,0,0,1-1-1v-53a1,1,0,0,1,2,0v53A1,1,0,0,1,402.312,394.039Z" transform="translate(116.688 248.866)" fill="#ccc"/><path d="M409.312,403.039a1,1,0,0,1-1-1v-71a1,1,0,0,1,2,0v71A1,1,0,0,1,409.312,403.039Z" transform="translate(116.688 248.866)" fill="#ccc"/><path d="M416.312,416.539a1,1,0,0,1-1-1v-98a1,1,0,0,1,2,0v98A1,1,0,0,1,416.312,416.539Z" transform="translate(116.688 248.866)" fill="#ccc"/><path d="M421.312,460.789a1,1,0,0,1-1-1v-186.5a1,1,0,0,1,2,0v186.5A1,1,0,0,1,421.312,460.789Z" transform="translate(78.691 248.866)" fill="#6c63ff"/><path d="M423.312,403.039a1,1,0,0,1-1-1v-71a1,1,0,0,1,2,0v71A1,1,0,0,1,423.312,403.039Z" transform="translate(116.688 248.866)" fill="#ccc"/><path d="M430.312,409.539a1,1,0,0,1-1-1v-84a1,1,0,0,1,2,0v84A1,1,0,0,1,430.312,409.539Z" transform="translate(116.688 248.866)" fill="#ccc"/><path d="M437.312,392.539a1,1,0,0,1-1-1v-50a1,1,0,0,1,2,0v50A1,1,0,0,1,437.312,392.539Z" transform="translate(116.688 248.866)" fill="#ccc"/><path d="M444.312,396.539a1,1,0,0,1-1-1v-58a1,1,0,0,1,2,0v58A1,1,0,0,1,444.312,396.539Z" transform="translate(116.688 248.866)" fill="#ccc"/><path d="M451.312,385.039a1,1,0,0,1-1-1v-35a1,1,0,0,1,2,0v35A1,1,0,0,1,451.312,385.039Z" transform="translate(116.688 248.866)" fill="#ccc"/><path d="M457.312,385.039a1,1,0,0,1-1-1v-35a1,1,0,0,1,2,0v35A1,1,0,0,1,457.312,385.039Z" transform="translate(116.688 248.866)" fill="#ccc"/><path d="M464.312,390.539a1,1,0,0,1-1-1v-46a1,1,0,0,1,2,0v46A1,1,0,0,1,464.312,390.539Z" transform="translate(116.688 248.866)" fill="#ccc"/><path d="M471.312,394.039a1,1,0,0,1-1-1v-53a1,1,0,0,1,2,0v53A1,1,0,0,1,471.312,394.039Z" transform="translate(116.688 248.866)" fill="#ccc"/><path d="M478.312,403.039a1,1,0,0,1-1-1v-71a1,1,0,0,1,2,0v71A1,1,0,0,1,478.312,403.039Z" transform="translate(116.688 248.866)" fill="#ccc"/><path d="M485.312,432.539a1,1,0,0,1-1-1v-130a1,1,0,0,1,2,0v130A1,1,0,0,1,485.312,432.539Z" transform="translate(116.688 248.866)" fill="#ccc"/><path d="M492.312,403.039a1,1,0,0,1-1-1v-71a1,1,0,0,1,2,0v71A1,1,0,0,1,492.312,403.039Z" transform="translate(116.688 248.866)" fill="#ccc"/><path d="M499.312,409.539a1,1,0,0,1-1-1v-84a1,1,0,0,1,2,0v84A1,1,0,0,1,499.312,409.539Z" transform="translate(116.688 248.866)" fill="#ccc"/><path d="M506.312,392.539a1,1,0,0,1-1-1v-50a1,1,0,0,1,2,0v50A1,1,0,0,1,506.312,392.539Z" transform="translate(116.688 248.866)" fill="#ccc"/><path d="M513.312,396.539a1,1,0,0,1-1-1v-58a1,1,0,0,1,2,0v58A1,1,0,0,1,513.312,396.539Z" transform="translate(116.688 248.866)" fill="#ccc"/><path d="M520.312,385.039a1,1,0,0,1-1-1v-35a1,1,0,0,1,2,0v35A1,1,0,0,1,520.312,385.039Z" transform="translate(116.688 248.866)" fill="#ccc"/><path d="M278.312,626.562v35.7l28-17.85Z" transform="translate(116.688 119.79)" fill="#3f3d56"/><ellipse cx="19.96" cy="20.032" rx="19.96" ry="20.032" transform="translate(480.043 744.162)" fill="#6c63ff"/><path d="M470.6,660.4h-6.85a3.43,3.43,0,0,1-3.43-3.42v-25.14a3.44,3.44,0,0,1,3.43-3.43h6.85a3.43,3.43,0,0,1,3.43,3.43v25.15a3.42,3.42,0,0,1-3.43,3.41Zm21.71-3.41v-25.15a3.43,3.43,0,0,0-3.42-3.43h-6.86a3.44,3.44,0,0,0-3.43,3.43v25.15a3.43,3.43,0,0,0,3.43,3.42h6.86a3.42,3.42,0,0,0,3.42-3.42Z" transform="translate(116.688 119.79)" fill="#3f3d56"/><path d="M17.5,0h89a17.5,17.5,0,0,1,0,35h-89a17.5,17.5,0,0,1,0-35Z" transform="translate(704 505)" fill="#6c63ff"/></g></svg>