<svg xmlns="http://www.w3.org/2000/svg" xmlns:xlink="http://www.w3.org/1999/xlink" width="799.314" height="616.772" viewBox="0 0 799.314 616.772"><defs><clipPath id="a"><circle cx="42.355" cy="42.355" r="42.355" fill="none" stroke="#707070" stroke-width="1"/></clipPath></defs><g transform="translate(-560.001 -226)"><path d="M10.066,7.242,73.452,0,88.764,58.668H0Z" transform="translate(713.372 560.349)" fill="#9f616a"/><path d="M515.705,488.011a33.137,33.137,0,0,1-10-41.728c.724-1.416,2.958-.358,2.234,1.06a30.685,30.685,0,0,0,9.381,38.8C518.609,487.073,516.986,488.939,515.705,488.011Z" transform="translate(379.054 125.402)" fill="#fff"/><path d="M499.03,568.878a63.87,63.87,0,0,0,40.439-23.05c1-1.239,2.87.378,1.871,1.615a66.434,66.434,0,0,1-42.129,23.9c-1.578.226-1.75-2.241-.181-2.465Z" transform="translate(379.681 110.461)" fill="#fff"/><path d="M551.138,642.524a63.869,63.869,0,0,0,46.166,5.943c1.544-.387,2.064,2.029.522,2.416A66.435,66.435,0,0,1,549.8,644.6C548.4,643.832,549.75,641.759,551.138,642.524Z" transform="translate(372.003 95.941)" fill="#fff"/><path d="M501.521,622.751c-11.829-57.194-26.615-76.263-26.615-76.263l-5.649-4.38-6.793-5.276.033-.678-1.611-.548-.378-.294-.62-.476-.1.107-.211.218-30.739-10.448-39-13.246-18.058-23.472A31.233,31.233,0,0,0,346.8,475.806l-57.672.427a31.234,31.234,0,0,0-21.01,8.334l-37.907,35.162-59.066,28.21-.1-.1-.62.443-9.126,4.364.377,1.96-5.649,4.076s-14.786,17.743-26.615,70.961c-3.009,13.541-4.49,42.589-5.025,78.384a13.663,13.663,0,0,0,13.657,13.866H492.9A13.665,13.665,0,0,0,506.56,708.04C506.038,669.09,504.557,637.436,501.521,622.751Z" transform="translate(435.619 120.88)" fill="#3f3d56"/><circle cx="75.556" cy="75.556" r="75.556" transform="translate(687.079 438.569)" fill="#9f616a"/><path d="M339.8,445.6q-.484-1.066-.966-2.139c.124,0,.246.022.37.025Z" transform="translate(403.505 125.725)" fill="#2f2e41"/><path d="M266.157,270.332c3.821-3.048,8.288-5.853,13.174-5.7s9.84,4.57,8.828,9.353A77.643,77.643,0,0,1,381.6,238.952c12.143,4.284,24.051,12.855,26.841,25.426.716,3.227.87,6.765,2.885,9.386,2.54,3.3,7.4,4.051,11.4,2.889l.12-.035a3.57,3.57,0,0,1,4.314,5.039l-3.436,6.408a27.534,27.534,0,0,0,13.118-.279,3.567,3.567,0,0,1,3.788,5.551c-11.329,15.555-30.257,25.6-49.573,25.481-13.728-.084-27.6-4.815-40.958-1.658A35.578,35.578,0,0,0,326.169,367.1c-4.1-4.489-12.039-3.427-16.237.975s-5.285,10.972-4.862,17.04c.647,9.281,4.283,18.027,8.117,26.538-32.141-1.012-62.54-23.558-72.773-54.052C230.137,326.983,240.906,290.475,266.157,270.332Z" transform="translate(418.823 171.673)" fill="#090814"/><path d="M87.464,495.253l21.192,115.3,12.716,1.107Z" transform="translate(546.904 231.11)" opacity="0.2"/><path d="M356.035,485.026,334.844,608.939l-12.716,1.19Z" transform="translate(511.764 232.641)" opacity="0.2"/><g transform="translate(1081.882 226)"><path d="M650.022,288.808a33.153,33.153,0,0,0,4.285,14.128c5.21,9.15,14.144,15.774,23.766,19.711,12.022,4.919,25.423,5.071,38.181,3.974,11.85-1.019,23.579-3.38,35.472-3.867a247.15,247.15,0,0,1,27.578.658c17.8,1.263,35.52,3.607,53.13,6.448q7.154,1.14,14.277,2.45a7.057,7.057,0,0,1,1.326.246c.086.035.225.008.3.057.143.09-.58-.229-.141.133a13.155,13.155,0,0,1,1.626,2.092l6.5,8.369c1.865,2.4,3.6,5.316,6.006,7.208a10.875,10.875,0,0,0,12.039.839,12.031,12.031,0,0,0,4.477-5.085,43.886,43.886,0,0,1,5.324-7.684c7.737-9.026,18.491-14.578,27.485-22.172a48.953,48.953,0,0,0,10.992-12.565,35.532,35.532,0,0,0,4.542-14.11c1.077-10.094-2.02-20.387-7.23-28.974a57.878,57.878,0,0,0-23.5-21.506c-10.885-5.545-22.93-8.247-35-9.593-12.819-1.429-25.787-1.425-38.668-1.28q-21.684.241-43.291,1.907-21.636,1.675-43.1,4.761c-13.731,1.974-27.63,4.032-41.071,7.525-11.874,3.086-23.714,7.909-32.581,16.649C654.87,266.9,649.386,277.532,650.022,288.808Z" transform="translate(-649.972 -228.225)" fill="#e6e6e6"/><path d="M714.39,249.877c-12.818,2.365-26.233,5.26-36.988,12.274-10.637,6.936-17.1,17.841-16.475,27.782.919,14.52,16.356,25.378,30.416,28.223,13.467,2.724,27.495.879,42.346-1.075,3.287-.432,6.685-.88,10.047-1.268,36.558-4.226,105.2,8.791,108.107,9.347l3.019.578L870.841,346.3c3.638-8.1,9.962-15.3,16.677-20.666,3.074-2.457,6.282-4.738,9.384-6.944,7.913-5.627,15.388-10.943,19.513-18.246,8.984-15.9-1.632-38.079-16.779-48.035-17.065-11.216-39.553-12.975-61.313-13.206q-3.4-.036-6.8-.036a646.644,646.644,0,0,0-117.034,10.692Z" transform="translate(-651.606 -229.863)" fill="#fff"/><path d="M711.786,271.843a3.357,3.357,0,0,1,3.354-3.361H869.447a3.357,3.357,0,0,1,0,6.715H715.14A3.357,3.357,0,0,1,711.786,271.843Z" transform="translate(-659.229 -234.253)" fill="#e6e6e6"/><path d="M711.786,296.08a3.357,3.357,0,0,1,3.354-3.361H869.454a3.357,3.357,0,0,1-.007,6.715H715.14A3.357,3.357,0,0,1,711.786,296.08Z" transform="translate(-659.229 -237.882)" fill="#e6e6e6"/><path d="M872.12,320.317a3.357,3.357,0,0,1,3.354-3.361h17.982a3.357,3.357,0,0,1,0,6.715H875.474A3.357,3.357,0,0,1,872.12,320.317Z" transform="translate(-683.238 -241.512)" fill="#e6e6e6"/></g><path d="M553.078,328.628a7.461,7.461,0,0,1-6-3.412c-4.878-7.291,12.878-23.422,6-28.867-4.164-3.328-8.515-6.423-12.723-9.416C529.5,279.215,519.276,271.945,513.6,261.9c-12.373-21.9,2.2-52.411,23.014-66.093,23.348-15.345,54.058-17.752,83.767-18.067q4.631-.049,9.268-.049h0a883.69,883.69,0,0,1,159.591,14.593c17.506,3.23,35.83,7.186,50.555,16.788,14.638,9.545,23.535,24.576,22.667,38.295-1.267,20.027-22.5,34.991-41.829,38.9-18.426,3.726-37.568,1.208-57.833-1.459-4.474-.588-9.1-1.2-13.674-1.726-49.714-5.746-143.1,11.965-147.055,12.722l-3.92.75L559.2,325.777C557.816,327.585,553.181,328.632,553.078,328.628Z" transform="translate(379.964 203.991)" fill="#6c63ff"/><path d="M796.422,220.329H586.3a4.572,4.572,0,1,1,0-9.144H796.422a4.572,4.572,0,0,1,0,9.144Z" transform="translate(382.049 204.952)" fill="#fff"/><path d="M796.422,247.609H586.3a4.572,4.572,0,0,1-.01-9.144H796.422a4.572,4.572,0,0,1,0,9.144Z" transform="translate(382.048 205.735)" fill="#fff"/><path d="M610.786,274.888H586.3a4.572,4.572,0,1,1,0-9.144h24.487a4.572,4.572,0,1,1,0,9.144Z" transform="translate(382.048 206.517)" fill="#fff"/><g transform="translate(1261.986 359.49)"><circle cx="42.355" cy="42.355" r="42.355" fill="#e6e6e6"/><g clip-path="url(#a)"><g transform="translate(10.243 19.679)"><path d="M205.181,186.825l-2.382,6.194.477,6.194,46.627,16.15-2.314-27.109-5.242-6.195Z" transform="translate(-190.31 -91.296)" fill="#ffb6b6"/><path d="M409.13,248.7a23.537,23.537,0,0,1,15.848-13.474c7.765-2.02,19.136,1.057,24.973,5.475,10.678,8.081,13.284,35.842,5.948,44.615-1.459-.059-6.495-.1-7.971-.144l-2.089-5.288v5.236c-11.528-.271-23.529-.1-35.537.074C409.225,278.985,406.661,254.678,409.13,248.7Z" transform="translate(-400.542 -234.595)" fill="#2f2e41"/><path d="M0,.063,14.169-1.049,18.02,15.963H0Z" transform="translate(21.997 36.159)" fill="#ed9da0"/><ellipse cx="16.653" cy="16.653" rx="16.653" ry="16.653" transform="translate(7.988 10.72)" fill="#ed9da0"/><path d="M437.228,241.119a20.917,20.917,0,0,1,31.8,18.255c-9.078,2.32-18.751,3.291-29,.559l-2.343-5.735-1.382,5.739q-4.7,3.309-9.081-.012A21.357,21.357,0,0,1,437.228,241.119Z" transform="translate(-424.029 -235.43)" fill="#2f2e41"/><path d="M408.184,396.471h0a3.026,3.026,0,0,1,2.737-2.273c.632-7.232,4.812-53.614,4.971-54.974l.006-.058,1.21-25.853a3.823,3.823,0,0,1,3.57-3.636l6.392-.418a.338.338,0,0,0,.327-.338,5.375,5.375,0,0,1,5.375-5.375H451.7a5.033,5.033,0,0,1,4.991,4.406.334.334,0,0,0,.34.3h0a8.991,8.991,0,0,1,9.045,7.458c2.587,15.054,7.772,49.219,5.209,68.214-.892,6.612-.487,16.557-.149,22.089a4.073,4.073,0,0,1-1.014,2.953,3.031,3.031,0,0,1,2.1,3.649h0a3.036,3.036,0,0,1-3.686,2.2l-58.149-14.659A3.036,3.036,0,0,1,408.184,396.471Z" transform="translate(-408.091 -255.445)" fill="#6c63ff"/></g></g></g></g></svg>