<svg xmlns="http://www.w3.org/2000/svg" width="794.442" height="798.057" viewBox="0 0 794.442 798.057">
  <g id="Group_291" data-name="Group 291" transform="translate(-568.797 -185.216)">
    <rect id="Rectangle_989" data-name="Rectangle 989" width="148.142" height="74.654" transform="translate(988.306 561.736)" fill="#fff"/>
    <rect id="Rectangle_990" data-name="Rectangle 990" width="113.137" height="3.835" transform="translate(1005.808 580.846)" fill="#6c63ff"/>
    <rect id="Rectangle_991" data-name="Rectangle 991" width="113.137" height="3.835" transform="translate(1005.808 597.144)" fill="#6c63ff"/>
    <rect id="Rectangle_992" data-name="Rectangle 992" width="113.137" height="3.835" transform="translate(1005.808 613.445)" fill="#6c63ff"/>
    <path id="Path_5013" data-name="Path 5013" d="M471.273,590.791H320.8V513.8H471.273ZM323.13,588.458H468.94V516.136H323.13Z" transform="translate(666.343 46.766)" fill="#3f3d56"/>
    <path id="Path_5014" data-name="Path 5014" d="M370.3,459.529a168.485,168.485,0,0,1-88.782-25.2l-.677-.42.419-.677,88.6-143.386H539.191v.8C539.191,383.766,463.428,459.529,370.3,459.529Z" transform="translate(371.994 122.4)" fill="#6c63ff"/>
    <path id="Path_5015" data-name="Path 5015" d="M273.654,409.3l-.544-.337a135.613,135.613,0,0,1-46.451-182.582l.318-.555,118.281,67.589Z" transform="translate(360 111.744)" fill="#f2f2f2"/>
    <path id="Path_5016" data-name="Path 5016" d="M526.565,294.126H356.684l36.622-165.91.778.171A168.942,168.942,0,0,1,526.565,293.329Z" transform="translate(384.619 95.494)" fill="#d6d6e3"/>
    <path id="Path_5017" data-name="Path 5017" d="M349.914,266.982,234.809,201.208l.309-.54a131.862,131.862,0,0,1,142.763-63.273l.608.134Z" transform="translate(364.33 96.508)" fill="#f2f2f2"/>
    <rect id="Rectangle_993" data-name="Rectangle 993" width="148.142" height="74.654" transform="translate(1006.975 186.383)" fill="#fff"/>
    <rect id="Rectangle_994" data-name="Rectangle 994" width="113.137" height="3.835" transform="translate(1024.479 205.493)" fill="#d6d6e3"/>
    <rect id="Rectangle_995" data-name="Rectangle 995" width="113.137" height="3.835" transform="translate(1024.479 221.792)" fill="#d6d6e3"/>
    <rect id="Rectangle_996" data-name="Rectangle 996" width="113.137" height="3.835" transform="translate(1024.479 238.091)" fill="#d6d6e3"/>
    <path id="Path_5018" data-name="Path 5018" d="M725.276,194.184H574.8V117.2H725.276Zm-148.142-2.333H722.944V119.53H577.134Z" transform="translate(431.007 68.02)" fill="#d6d6e3"/>
    <path id="Path_5039" data-name="Path 5039" d="M883.584,461.022H803.575l-.226-.328-62.172-90.225,1.248-.861,61.946,89.9h79.213Z" transform="translate(103.556 137.534)" fill="#3f3d56"/>
    <path id="Path_5042" data-name="Path 5042" d="M883.582,369.608H803.574l-.226.328-62.172,90.225,1.248.861,61.945-89.9h79.212Z" transform="translate(122.225 -148.499)" fill="#d6d6e3"/>
    <g id="Group_290" data-name="Group 290" transform="translate(1133.607 389.621)">
      <rect id="Rectangle_80" data-name="Rectangle 80" width="21.705" height="27.906" transform="translate(105.71 78.748) rotate(-2.221)" fill="#6c63ff"/>
      <path id="Path_129" data-name="Path 129" d="M590.978,375.485s-30.035-14.351-29.555-1.957S591.7,394.076,591.7,394.076Z" transform="translate(-561.418 -199.916)" fill="#ffb9b9"/>
      <path id="Path_130" data-name="Path 130" d="M607.92,482.709s-14.17,34.683-19.406,59.71-13.209,59.47-2.953,83.9,39.416,96.218,39.716,103.963-2.5,15.612,3.7,15.372,39.919-10.857,41.287-15.565-11.505-16.621-11.505-16.621l-31.79-99.616,33.168-64.9,23.924,96.818,4.686,120.837s23-7.1,26.336-1.021c0,0,10.3-14.363,11.613-20.62s-4.866-125.485-4.866-125.485,21.11-135.8,4.069-135.14S642.11,444.146,607.92,482.709Z" transform="translate(-561.881 -202.275)" fill="#090814"/>
      <path id="Path_131" data-name="Path 131" d="M629.333,745.956s-15.72,34.743-17.209,36.352-11.733,17.522-3.987,17.221,26.036-8.767,39.5-21.7,31.211-35.344,29.6-36.833-12.634-5.716-12.634-5.716Z" transform="translate(-562.478 -208.777)" fill="#090814"/>
      <path id="Path_132" data-name="Path 132" d="M694.158,765.914s-.948,15.552-3.807,21.869-2.5,15.612,5.248,15.312,27.765-4.18,27.765-4.18,1.189-9.355-.42-10.844-8.467-18.29-5.549-23.058S694.158,765.914,694.158,765.914Z" transform="translate(-564.493 -209.449)" fill="#090814"/>
      <path id="Path_133" data-name="Path 133" d="M705.479,248.8s16.513,25.736,22.95,31.692-11.673,19.071-11.673,19.071l-32.413,4.36s.408-29.495-1.262-32.533S705.479,248.8,705.479,248.8Z" transform="translate(-564.355 -197.025)" fill="#ffb9b9"/>
      <path id="Path_134" data-name="Path 134" d="M676.312,283.133s6.677,12.153,12.874,11.913,38.249-13.9,39.618-18.6,10.617,33.722,10.617,33.722l-78.43,138.024L641.86,434.967l9.27-81.039,7.613-43.738Z" transform="translate(-563.361 -197.683)" fill="#6c63ff"/>
      <path id="Path_135" data-name="Path 135" d="M730.722,406.428c-3.128,6.545-5.083,13.37-4.812,20.356.012.31.024.62.052.929.742,14.338,6.024,30.921,7.919,42.98,1.375,8.651.984,14.965-4.079,16.449-12.273,3.579,1.789,6.137-45.695,21.942s-55.771,2.163-55.891-.936,6.725-26.637,5.115-28.126-22.517,19.491-28.834,16.633-.721-18.59-.721-18.59,14.23-33.134,13.93-40.88,21.556-44.279,21.556-44.279l14.866-96.771s5.716-12.634,13.4-14.483,14.063,2.558,14.063,2.558l-12.862,28.426-13.57,50.175,2.27,18.53s15.78-33.194,26.143-46.008,32.46-43.15,32.46-43.15,5.159-17.406,1.264-22.608c-3.895-5.217,16.245-6,24.832,15.39,4.551,11.336,11.94,28.24,16.569,43.979,4.125,13.943,6.073,26.978,1.987,34.429C754.443,374.757,738.732,389.718,730.722,406.428Z" transform="translate(-562.386 -197.453)" fill="#d6d6e3"/>
      <path id="Path_136" data-name="Path 136" d="M763.733,364.826c-6.246,11.382-21.957,26.343-29.966,43.053-2.092-7.537-4.644-15.335-4.644-15.335s-9.789-52.372,19.166-65.907a19.378,19.378,0,0,1,13.458,3.76C765.871,344.34,767.819,357.375,763.733,364.826Z" transform="translate(-565.431 -198.903)" opacity="0.1"/>
      <path id="Path_137" data-name="Path 137" d="M645.305,362.391l-24.547,7.158-34.082,1.322-3.506,29.615,56.011,4.034S653.171,365.189,645.305,362.391Z" transform="translate(-561.943 -199.769)" fill="#d6d6e3"/>
      <path id="Path_138" data-name="Path 138" d="M687.206,464.431s-32.839,5.448-25.344,15.33,36.586-.507,36.586-.507Z" transform="translate(-563.817 -202.234)" fill="#ffb9b9"/>
      <path id="Path_139" data-name="Path 139" d="M727.848,431.7c.742,14.338,6.024,30.921,7.919,42.98-10.461,9.9-20.409,18.634-24.158,18.779-7.746.3-20.2-.768-24.787.961s-7.278-27.645-7.278-27.645,2.738-9.415,14.951-14.544C702.739,448.767,718.541,439.358,727.848,431.7Z" transform="translate(-565.602 -208.442)" opacity="0.1"/>
      <path id="Path_140" data-name="Path 140" d="M746.76,317.111s26.216-4.12,24.8,39.378,2.763,71.263-7.781,79.429-44.794,45.18-52.54,45.48-20.2-.768-24.787.961-7.278-27.645-7.278-27.645,2.738-9.415,14.951-14.543,40.987-23.311,40.747-29.508-7.278-27.645-7.278-27.645S717.806,330.646,746.76,317.111Z" transform="translate(-564.263 -198.673)" fill="#d6d6e3"/>
      <circle id="Ellipse_29" data-name="Ellipse 29" cx="34.108" cy="34.108" r="34.108" transform="translate(83.899 21.667)" fill="#ffb9b9"/>
      <path id="Path_141" data-name="Path 141" d="M658.362,202.632a6.586,6.586,0,0,1-2.868,1.439,2.047,2.047,0,0,1-2.372-1.643c-.78,1.618-1.661,3.343-3.254,4.174s-4.057.134-4.286-1.648a7.52,7.52,0,0,1-1.731,3.653c-.989.943-2.781,1.18-3.644.122.7,3.813.267,7.734.486,11.6s1.251,7.973,4.175,10.518c4.264,3.711,10.677,2.8,16.286,2.092a4.943,4.943,0,0,1,2.552.14c2.1.895,2.005,3.819,2.033,6.1a16.953,16.953,0,0,0,14.845,16.1,8.5,8.5,0,0,0,6.316-1.541c1.593-1.35,2.406-3.55,4.231-4.564,2.969-1.65,6.569.756,8.739,3.368s4.31,5.825,7.672,6.3c4.447.632,7.834-3.9,9.5-8.072a47.058,47.058,0,0,0-.935-36.565C706.818,193.973,675.1,190.772,658.362,202.632Z" transform="translate(-563.321 -195.744)" fill="#090814"/>
    </g>
    <path id="Path_4955" data-name="Path 4955" d="M252.846,561.53H0V559.1H252.961Z" transform="translate(1110.278 421.743)" fill="#cbcbcb"/>
  </g>
</svg>
