<svg xmlns="http://www.w3.org/2000/svg" width="799.468" height="552.327" viewBox="0 0 799.468 552.327"><g transform="translate(-560.266 -263.836)"><path d="M1352.3,232.384H580.059a13.747,13.747,0,0,0-13.613,13.848v524.66a13.74,13.74,0,0,0,13.613,13.819H1352.3a13.741,13.741,0,0,0,13.613-13.819V246.232a13.747,13.747,0,0,0-13.611-13.848Z" transform="translate(-6.18 31.452)" fill="#090814"/><path d="M1328.244,232.384h-748.6a13.225,13.225,0,0,0-13.2,13.223V746.614a13.219,13.219,0,0,0,13.2,13.2h748.6a13.219,13.219,0,0,0,13.2-13.2V245.608a13.224,13.224,0,0,0-13.192-13.223Z" transform="translate(-4.445 34.616)" fill="#fff"/><path d="M12,0H763a12,12,0,0,1,12,12V237H0V12A12,12,0,0,1,12,0Z" transform="translate(562 267)" fill="#6c63ff"/><g transform="translate(-10)"><path d="M72,0A72,72,0,1,1,0,72,72,72,0,0,1,72,0Z" transform="translate(888 314)" fill="#fff"/><path d="M306.268,206.815a54,54,0,1,0,54,54,54,54,0,0,0-54-54Zm0,16.2a16.2,16.2,0,1,1-16.2,16.2,16.2,16.2,0,0,1,16.2-16.2Zm0,77.989a39.339,39.339,0,0,1-32.4-17.291c.259-10.8,21.6-16.745,32.4-16.745s32.141,5.944,32.4,16.744A39.4,39.4,0,0,1,306.268,301Z" transform="translate(653.732 125.185)" fill="#6c63ff"/></g><path d="M8,0H232a8,8,0,0,1,8,8V24a8,8,0,0,1-8,8H8a8,8,0,0,1-8-8V8A8,8,0,0,1,8,0Z" transform="translate(830 540)" fill="#6c63ff"/><path d="M8,0H72a8,8,0,0,1,8,8V72a8,8,0,0,1-8,8H8a8,8,0,0,1-8-8V8A8,8,0,0,1,8,0Z" transform="translate(634 608)" fill="#e6e6e6"/><path d="M6,0H354a6,6,0,0,1,6,6V18a6,6,0,0,1-6,6H6a6,6,0,0,1-6-6V6A6,6,0,0,1,6,0Z" transform="translate(906 608)" fill="#e6e6e6"/><path d="M6,0H354a6,6,0,0,1,6,6V18a6,6,0,0,1-6,6H6a6,6,0,0,1-6-6V6A6,6,0,0,1,6,0Z" transform="translate(906 688)" fill="#e6e6e6"/><path d="M6,0H354a6,6,0,0,1,6,6V18a6,6,0,0,1-6,6H6a6,6,0,0,1-6-6V6A6,6,0,0,1,6,0Z" transform="translate(906 648)" fill="#e6e6e6"/><path d="M4,0H116a4,4,0,0,1,4,4V20a4,4,0,0,1-4,4H4a4,4,0,0,1-4-4V4A4,4,0,0,1,4,0Z" transform="translate(754 608)" fill="#e6e6e6"/><path d="M4,0H116a4,4,0,0,1,4,4V20a4,4,0,0,1-4,4H4a4,4,0,0,1-4-4V4A4,4,0,0,1,4,0Z" transform="translate(754 648)" fill="#e6e6e6"/><path d="M4,0H116a4,4,0,0,1,4,4V20a4,4,0,0,1-4,4H4a4,4,0,0,1-4-4V4A4,4,0,0,1,4,0Z" transform="translate(754 688)" fill="#e6e6e6"/><path d="M8,0H71a8,8,0,0,1,8,8V24a8,8,0,0,1-8,8H8a8,8,0,0,1-8-8V8A8,8,0,0,1,8,0Z" transform="translate(1187 733)" fill="#6c63ff"/></g></svg>