<?xml version="1.0" encoding="UTF-8"?><svg id="uuid-e64a8429-a68d-426c-ad1e-862ddfebbec2" xmlns="http://www.w3.org/2000/svg" width="953.00006" height="670.02546" viewBox="0 0 953.00006 670.02546"><circle cx="648.71967" cy="264.1752" r="83.14972" fill="#ff6363" stroke-width="0"/><path d="m197.57706,626.25043c-5.16075,7.90253,1.65057,18.10175,10.89259,16.1864,19.2164-3.98248,57.21175-9.76697,72.64156,2.66711,21.06161,16.97247,95.74042,40.73389,194.1806,10.18347,98.44025-30.55042,142.5686-27.15594,142.5686-27.15594,0,0,54.14923-38.80298-10.26477-70.31885s-297.67648,12.82117-297.67648,12.82117l-48.48019,9.97485s-49.60486,23.8103-63.86191,45.64178Z" fill="#e6e6e6" stroke-width="0"/><path d="m293.00009,616.4549c0,.91028,1.33911,1.6413,3.00665,1.6413h653.98666c1.66754,0,3.00665-.73102,3.00665-1.6413s-1.33911-1.6413-3.00665-1.6413H296.00674c-1.66757,0-3.00665.73102-3.00665,1.6413Z" fill="#484565" stroke-width="0"/><path d="m457.90201,616.45435c0,.91028-.92905,1.6413-2.086,1.6413H2.086c-1.15694,0-2.086-.73102-2.086-1.6413s.92905-1.6413,2.086-1.6413h453.73001c1.15695,0,2.086.73102,2.086,1.6413Z" fill="#484565" stroke-width="0"/><path d="m343.15982,615.83606v-38.55176s28.22345-49.71979,67.68594-34.43719c0,0,25.88452-8.47882,32.67352,25.46606,0,0,19.79593-4.6228,23.47592,9.56934,0,0,47.14871-65.10944,69.54269,0,0,0,20.34546-11.58142,21.36975,4.69983s0,33.25372,0,33.25372h-214.74783Z" fill="#fff" stroke-width="0"/><path d="m361.57639,616.25079l-13.57797-336.05453-57.70633-105.2292h19.98953s4.3082,14.01054,10.86246,30.89635c5.07089,13.06415,24.82263,6.00914,20.38333-7.28291-5.56442-16.6609-13.75452-32.66541-25.77667-42.28313l10.18347-38.36617s.15231.4196.43839,1.20963c13.31641,36.77613,58.45996,49.05582,89.34985,25.06367,4.78012-3.71272,9.9249-6.57681,15.44095-8.27406l10.18347,54.31184s-31.26874,0-50.47958,28.43307c-11.28339,16.70003,13.24832,34.10016,25.57202,18.15234,5.7619-7.45633,11.86923-17.11426,18.11859-29.61298l16.97244-44.12837v64.23396l-16.97244,3.65584-54.31183,67.88982-4.89197,317.38483h-13.77774.00003Z" fill="#2f2e43" stroke-width="0"/><path d="m315.89133,616.25079s-13.43741-84.0741,0-100.59198c0,0,4.93903-33.3667,41.43588-4.57535l4.24918,105.16739h-45.68506v-.00006Z" fill="#fff" stroke-width="0"/><path d="m335.74777,598.68231s5.67953-70.26123-13.94769-95.08481" fill="none" stroke="#2f2e43" stroke-miterlimit="10" stroke-width="2"/><path d="m509.55493,615.94794s5.67957-47.71295-13.94769-64.57013" fill="none" stroke="#2f2e43" stroke-miterlimit="10" stroke-width="2"/><path d="m424.3779,606.73962s5.67953-47.71295-13.94769-64.57013" fill="none" stroke="#2f2e43" stroke-miterlimit="10" stroke-width="2"/><path d="m329.15555,28.73703s-179.73479,18.93667-84.68906,171.68874c0,0-10.18347,57.70631,20.36694,40.73387,0,0,10.18347,30.55042,20.36694,10.18347,0,0,50.97641,20.64377,68.31882,9.97244,0,0-2.39699-3.33297-6.00347-8.89742-19.11144-29.48706,6.18599-66.25587,40.94844-61.12696,1.86357.27495,3.66265-.03055,5.3599-1.04889.16972-.10183.33903-.2055.50791-.31095,15.73435-9.82447,36.41761-.89368,39.89568,17.32699l7.11926,37.29581s50.91736,13.57796,33.94489-47.52286c0,0,57.70636-10.18347,30.55042-67.8898,0,0,10.18347-44.12837-23.76144-67.8898,0,0-47.86926-112.55213-152.92526-32.51464h.00003Z" fill="#6c63ff" stroke-width="0"/><polygon points="398.96365 441.7551 394.01221 461.32187 428.20261 460.89978 424.28989 443.02142 398.96365 441.7551" fill="#e29295" stroke-width="0"/><polygon points="392.6391 508.60504 385.21591 541.08154 371.55344 606.10352 377.88501 607.36987 421.40402 510.46085 392.6391 508.60504" fill="#e29295" stroke-width="0"/><polygon points="406.93103 516.00293 420.6424 546.3645 440.7785 607.36987 449.22058 605.25934 430.97095 500.09863 406.93103 516.00293" fill="#e29295" stroke-width="0"/><path d="m395.93225,453.26578s-15.26486,26.87991-12.48117,56.57272c0,0,22.50443,17.04065,58.65701,1.2663l-14.88196-59.38562-31.29388,1.5466Z" fill="#090814" stroke-width="0"/><path d="m370.49625,613.8562c-.72681-.59576-1.11914-1.26099-1.16602-1.97729-.05365-.81934.35123-1.69843,1.20322-2.61279.02045-.26312.28488-3.52313.87415-4.10687-.04941-.1745-.34955-1.33136.14246-2.08258.23178-.35388.60538-.56012,1.11044-.61304l.022-.00226.01089.01947c.01425.02545,1.44809,2.5473,3.60495,2.76868,1.23657.12695,2.47461-.51727,3.67978-1.91516.04333-.10327.38385-1.80597.60364-2.93298l.00879-.04504,11.75211,6.25464,6.86954,1.92468c.8634.24194,1.4664,1.04437,1.4664,1.95148,0,.77344-.44489,1.48975-1.13333,1.82489l-3.3298,1.62067c-1.39133.67719-2.94275,1.03516-4.48654,1.03516h-18.06198c-1.17023,0-2.29626-.39471-3.17068-1.11151v-.00012Z" fill="#090814" stroke-width="0"/><path d="m437.61078,613.8562c-.72681-.59576-1.11914-1.26099-1.16602-1.97729-.05365-.81934.35123-1.69843,1.20322-2.61279.02045-.26312.28488-3.52313.87415-4.10687-.04941-.1745-.34955-1.33136.14246-2.08258.23178-.35388.60538-.56012,1.11044-.61304l.022-.00226.01089.01947c.01425.02545,1.44809,2.5473,3.60495,2.76868,1.23657.12695,2.47461-.51727,3.67978-1.91516.04333-.10327.38385-1.80597.60364-2.93298l.00879-.04504,11.75208,6.25464,6.86954,1.92468c.8634.24194,1.4664,1.04437,1.4664,1.95148,0,.77344-.44489,1.48975-1.13333,1.82489l-3.3298,1.62067c-1.39133.67719-2.94275,1.03516-4.48654,1.03516h-18.06198c-1.17023,0-2.29626-.39471-3.17068-1.11151l.00003-.00012Z" fill="#090814" stroke-width="0"/><path d="m403.87646,381.03534c0-7.61636,6.17429-13.79068,13.79068-13.79068s13.79071,6.17429,13.79071,13.79068c0,6.17694-4.06131,11.40463-9.65903,13.16031l-2.66599,17.61893-13.59079-11.32565s2.93604-3.73978,4.51056-7.9566c-3.72144-2.46967-6.17615-6.69586-6.17615-11.49698Z" fill="#e29295" stroke-width="0"/><path d="m404.24799,394.64899l16.24295,10.38306,7.49728,13.24023c2.17081,3.83368,2.90399,8.31564,2.06787,12.64117l-3.44464,17.82059h-35.91522l5.6748-37.17938c.7243-4.74536,2.53177-9.26013,5.28223-13.19431l2.5947-3.71136h.00003Z" fill="#6c63ff" stroke-width="0"/><path d="m399.44858,399.15482s.64398,4.88586,6.61041,5.04541c8.0686.21579,12.10297.32367,12.10294.32367,0,0-10.23117-24.8988-6.02426-22.09378s15.42532-8.95453,15.42532-8.95453l3.31018,6.20819s7.90823-2.86374-.85614-9.87631c0,0-10.45718-8.08466-21.55875-3.2298s-9.00974,32.57715-9.00974,32.57715h.00003Z" fill="#090814" stroke-width="0"/><path d="m407.02698,487.62842l-.28995-13.36469,7.80319-.16928.28995,13.36465c1.45587,1.35153,2.41693,3.45151,2.4686,5.8324.09039,4.16595-2.63123,7.6037-6.07889,7.6785-3.44769.0748-6.3158-3.2417-6.40619-7.40765-.05164-2.38089.8175-4.5206,2.21332-5.93396l-.00003.00003Z" fill="#e29295" stroke-width="0"/><polyline points="417.79974 420.73764 417.79974 485.5174 404.24799 485.5174 400.24289 421.28449" fill="#6c63ff" stroke-width="0"/><path d="m242.13914,616.4549c0,.91028.73099,1.6413,1.6413,1.6413h357.00172c.91028,0,1.6413-.73102,1.6413-1.6413s-.73102-1.6413-1.6413-1.6413H243.78043c-.91029,0-1.6413.73102-1.6413,1.6413h.00002Z" fill="#484565" stroke-width="0"/></svg>