<svg xmlns="http://www.w3.org/2000/svg" width="728.338" height="667.723" viewBox="0 0 728.338 667.723">
  <g id="Group_272" data-name="Group 272" transform="translate(-527.8 -143.921)">
    <g id="Group_271" data-name="Group 271">
      <path id="Path_1438" data-name="Path 1438" d="M1096.875,709.414H609.762a1.376,1.376,0,0,1,0-2.745h487.112a1.376,1.376,0,0,1,0,2.745Z" transform="translate(-10.516 90.783)" fill="#cbcbcb"/>
      <path id="Path_4783" data-name="Path 4783" d="M430.423,494.719s-8.135,34.862-1.162,34.862,20.918-16.269,20.918-16.269v-9.3Z" transform="translate(403.271 -2.066)" fill="#a0616a"/>
      <path id="Path_4784" data-name="Path 4784" d="M267.544,382.858,246.627,415.4h15.107Z" transform="translate(583 79)" fill="#6c63ff"/>
      <rect id="Rectangle_948" data-name="Rectangle 948" width="27.89" height="23.242" transform="translate(837.761 745.406)" fill="#a0616a"/>
      <path id="Path_4785" data-name="Path 4785" d="M344.242,662.92l5.81,26.728,29.052-6.973-6.972-23.241Z" transform="translate(583 79)" fill="#a0616a"/>
      <path id="Path_4786" data-name="Path 4786" d="M436.815,503.434s-9.3,4.648-10.459,25.566,3.486,75.535,3.486,75.535-4.648,24.4,0,46.483S425.194,753.282,431,753.282s36.025,3.486,37.187,0,2.324-55.78,2.324-55.78,9.3-26.728,0-43c0,0,20.918,17.431,20.918,22.08s22.08,76.7,32.538,77.86,39.511-1.162,33.7-11.621-19.755-58.1-19.755-58.1-10.459-34.862-29.052-49.97l9.3-74.373s19.755-49.97,8.135-56.942S436.815,503.434,436.815,503.434Z" transform="translate(403.271 -2.066)" fill="#090814"/>
      <circle id="Ellipse_810" data-name="Ellipse 810" cx="30.214" cy="30.214" r="30.214" transform="translate(844.733 251.521)" fill="#a0616a"/>
      <path id="Path_4787" data-name="Path 4787" d="M456.57,302.394s11.621,38.349,8.135,43,37.187-25.566,37.187-25.566-15.107-10.459-9.3-25.566Z" transform="translate(403.271 -2.066)" fill="#a0616a"/>
      <path id="Path_4788" data-name="Path 4788" d="M505.378,316.339s-13.945,4.648-20.918,12.783-23.242,9.3-23.242,9.3-14.382,8.1-19.755,22.08c-5.727,14.9-2.4,35.877,0,40.673,4.648,9.3,4.648,32.538,4.648,32.538l-5.81,53.456s-20.918,19.755-4.648,22.08,45.321-1.162,62.753,0,37.187,3.486,31.376-8.135-12.783-19.755-5.81-43c5.456-18.187,5.22-86.187,4.859-114.9A23.118,23.118,0,0,0,517.6,323.673Z" transform="translate(403.271 -2.066)" fill="#6c63ff"/>
      <path id="Path_4789" data-name="Path 4789" d="M460.057,494.137s-5.287,11.641-5.81,18.593c-4.067,54.037,25.566,0,25.566,0v-9.3Z" transform="translate(403.271 -2.066)" fill="#a0616a"/>
      <path id="Path_4790" data-name="Path 4790" d="M541.4,761.417s-17.431-12.783-17.431-5.81-19.755,34.862-19.755,34.862-32.538,23.242-5.81,23.242,38.349-4.648,38.349-4.648l27.89-18.593s6.972-8.135,4.648-17.431-10.459-22.08-10.459-22.08S549.537,763.741,541.4,761.417Z" transform="translate(403.271 -2.066)" fill="#090814"/>
      <path id="Path_4791" data-name="Path 4791" d="M439.139,764.9s-2.324-11.621-10.459-5.81-30.214,23.242-30.214,23.242-40.673,9.3-15.107,20.917,83.67-4.648,83.67-4.648,2.324-37.187,0-36.025S440.3,767.227,439.139,764.9Z" transform="translate(403.271 -2.066)" fill="#090814"/>
      <path id="Path_4792" data-name="Path 4792" d="M308.8,271.879l3.486,70.887L278.5,411.185l-5.73-2.18,34.863-63.915Z" transform="translate(583 79)" opacity="0.1"/>
      <path id="Path_4793" data-name="Path 4793" d="M515.837,331.446l8.716-1.743s26.147,19.174,18.012,57.523-44.159,96.453-44.159,96.453-8.135,10.459-10.459,12.783-6.973,0-4.648,3.486-3.486,5.81-3.486,5.81-25.566,0-23.242-9.3,41.835-75.535,41.835-75.535l-5.81-61.59S487.947,329.122,515.837,331.446Z" transform="translate(403.271 -2.066)" fill="#6c63ff"/>
      <path id="Path_4794" data-name="Path 4794" d="M347.147,357.873v-8.135l-39.511,65.077Z" transform="translate(583 79)" opacity="0.1"/>
      <path id="Path_4795" data-name="Path 4795" d="M450.238,255.811l-4.995-2s10.444-11.5,24.975-10.5l-4.087-4.5s9.99-4,19.072,6.5c4.774,5.519,10.3,12.006,13.741,19.313h5.349l-2.233,4.916,7.814,4.916-8.02-.883a27.2,27.2,0,0,1-.759,12.732l.215,3.886s-9.3-14.384-9.3-16.384v5s-4.995-4.5-4.995-7.5l-2.724,3.5-1.362-5.5-16.8,5.5,2.724-4.5-10.444,1.5,4.087-5.5s-11.806,6.5-12.26,12-6.357,12.5-6.357,12.5l-2.724-5S437.07,263.31,450.238,255.811Z" transform="translate(403.271 -2.066)" fill="#090814"/>
      <g id="Group_268" data-name="Group 268" transform="translate(-260.967 -329.408)">
        <path id="Path_513" data-name="Path 513" d="M468.335,469.207h-233.9a8.255,8.255,0,0,1-8.245-8.245V435.793a8.255,8.255,0,0,1,8.245-8.245h233.9a8.255,8.255,0,0,1,8.245,8.245v25.169a8.255,8.255,0,0,1-8.245,8.245Zm-233.9-40.793a7.385,7.385,0,0,0-7.377,7.377V460.96a7.385,7.385,0,0,0,7.377,7.377h233.9a7.385,7.385,0,0,0,7.377-7.377V435.793a7.385,7.385,0,0,0-7.377-7.379Z" transform="translate(1001.351 45.781)" fill="#ccc"/>
        <path id="Path_520" data-name="Path 520" d="M292.128,469.356a14.351,14.351,0,1,1,14.351-14.351A14.351,14.351,0,0,1,292.128,469.356Z" transform="translate(975.264 39.153)" fill="#e6e6e6"/>
        <path id="Path_521" data-name="Path 521" d="M512.932,486.287H359.748a3.472,3.472,0,0,1,0-6.943H512.932a3.472,3.472,0,0,1,0,6.943Z" transform="translate(935.566 19.588)" fill="#e6e6e6"/>
        <path id="Path_522" data-name="Path 522" d="M463.021,456.438H359.741a3.472,3.472,0,1,1,0-6.943h103.28a3.472,3.472,0,0,1,0,6.943Z" transform="translate(935.57 34.683)" fill="#e6e6e6"/>
      </g>
      <g id="Group_269" data-name="Group 269" transform="translate(-586.795 -300.75)">
        <path id="Path_513-2" data-name="Path 513" d="M468.335,469.207h-233.9a8.255,8.255,0,0,1-8.245-8.245V435.793a8.255,8.255,0,0,1,8.245-8.245h233.9a8.255,8.255,0,0,1,8.245,8.245v25.169a8.255,8.255,0,0,1-8.245,8.245Zm-233.9-40.793a7.385,7.385,0,0,0-7.377,7.377V460.96a7.385,7.385,0,0,0,7.377,7.377h233.9a7.385,7.385,0,0,0,7.377-7.377V435.793a7.385,7.385,0,0,0-7.377-7.379Z" transform="translate(1001.351 45.781)" fill="#ccc"/>
        <path id="Path_520-2" data-name="Path 520" d="M292.128,469.356a14.351,14.351,0,1,1,14.351-14.351A14.351,14.351,0,0,1,292.128,469.356Z" transform="translate(975.264 39.153)" fill="#e6e6e6"/>
        <path id="Path_521-2" data-name="Path 521" d="M512.932,486.287H359.748a3.472,3.472,0,0,1,0-6.943H512.932a3.472,3.472,0,0,1,0,6.943Z" transform="translate(935.566 19.588)" fill="#e6e6e6"/>
        <path id="Path_522-2" data-name="Path 522" d="M463.021,456.438H359.741a3.472,3.472,0,1,1,0-6.943h103.28a3.472,3.472,0,0,1,0,6.943Z" transform="translate(935.57 34.683)" fill="#e6e6e6"/>
      </g>
      <path id="Path_513-3" data-name="Path 513" d="M468.335,469.207h-233.9a8.255,8.255,0,0,1-8.245-8.245V435.793a8.255,8.255,0,0,1,8.245-8.245h233.9a8.255,8.255,0,0,1,8.245,8.245v25.169a8.255,8.255,0,0,1-8.245,8.245Zm-233.9-40.793a7.385,7.385,0,0,0-7.377,7.377V460.96a7.385,7.385,0,0,0,7.377,7.377h233.9a7.385,7.385,0,0,0,7.377-7.377V435.793a7.385,7.385,0,0,0-7.377-7.379Z" transform="translate(779.559 -148.205)" fill="#6c63ff"/>
      <path id="Path_521-3" data-name="Path 521" d="M512.932,486.287H359.748a3.472,3.472,0,0,1,0-6.943H512.932a3.472,3.472,0,0,1,0,6.943Z" transform="translate(713.774 -174.398)" fill="#6c63ff"/>
      <path id="Path_522-3" data-name="Path 522" d="M463.021,456.438H359.741a3.472,3.472,0,1,1,0-6.943h103.28a3.472,3.472,0,0,1,0,6.943Z" transform="translate(713.777 -159.305)" fill="#6c63ff"/>
      <path id="Path_514" data-name="Path 514" d="M305.6,255.751a27.821,27.821,0,1,1,27.821-27.821A27.821,27.821,0,0,1,305.6,255.751Z" transform="translate(727.972 51.414)" fill="#6c63ff"/>
      <path id="Path_395" data-name="Path 395" d="M304.874,238.336a3.183,3.183,0,0,1-1.917-.636l-.034-.026-7.211-5.516a3.2,3.2,0,0,1,3.9-5.087l4.671,3.582,11.037-14.4a3.2,3.2,0,0,1,4.491-.593h0l-.068.1.07-.1a3.207,3.207,0,0,1,.592,4.492l-12.982,16.929a3.205,3.205,0,0,1-2.549,1.246Z" transform="translate(727.276 50.793)" fill="#fff"/>
      <g id="Group_270" data-name="Group 270" transform="translate(-699.741 -190.207)">
        <path id="Path_513-4" data-name="Path 513" d="M468.335,469.207h-233.9a8.255,8.255,0,0,1-8.245-8.245V435.793a8.255,8.255,0,0,1,8.245-8.245h233.9a8.255,8.255,0,0,1,8.245,8.245v25.169a8.255,8.255,0,0,1-8.245,8.245Zm-233.9-40.793a7.385,7.385,0,0,0-7.377,7.377V460.96a7.385,7.385,0,0,0,7.377,7.377h233.9a7.385,7.385,0,0,0,7.377-7.377V435.793a7.385,7.385,0,0,0-7.377-7.379Z" transform="translate(1001.351 45.781)" fill="#ccc"/>
        <path id="Path_520-3" data-name="Path 520" d="M292.128,469.356a14.351,14.351,0,1,1,14.351-14.351A14.351,14.351,0,0,1,292.128,469.356Z" transform="translate(975.264 39.153)" fill="#e6e6e6"/>
        <path id="Path_521-4" data-name="Path 521" d="M512.932,486.287H359.748a3.472,3.472,0,0,1,0-6.943H512.932a3.472,3.472,0,0,1,0,6.943Z" transform="translate(935.566 19.588)" fill="#e6e6e6"/>
        <path id="Path_522-4" data-name="Path 522" d="M463.021,456.438H359.741a3.472,3.472,0,1,1,0-6.943h103.28a3.472,3.472,0,0,1,0,6.943Z" transform="translate(935.57 34.683)" fill="#e6e6e6"/>
      </g>
      <path id="Path_461" data-name="Path 461" d="M896.842,650.6a14.321,14.321,0,0,1-13.829-2.436c-4.844-4.065-6.364-10.763-7.6-16.965l-3.655-18.343,7.651,5.269c5.5,3.789,11.129,7.7,14.939,13.187s5.473,12.98,2.412,18.918" transform="translate(163.038 125.58)" fill="#e6e6e6"/>
      <path id="Path_462" data-name="Path 462" d="M884.242,686.487c.774-5.641,1.571-11.354,1.028-17.056a26.825,26.825,0,0,0-5.172-14.064,23.4,23.4,0,0,0-6-5.44c-.6-.378-1.152.573-.555.95a22.244,22.244,0,0,1,8.8,10.615c1.916,4.872,2.223,10.183,1.89,15.358-.2,3.13-.622,6.238-1.049,9.344a.567.567,0,0,0,.384.677.553.553,0,0,0,.677-.384Z" transform="translate(174.984 111.899)" fill="#f2f2f2"/>
      <path id="Path_482" data-name="Path 482" d="M1006.26,728.119s17.506-43.091-35.011-75.409Z" transform="translate(-360.495 70.67)" fill="#e6e6e6"/>
      <path id="Path_483" data-name="Path 483" d="M923.6,715.341s5.34-30.713,46.673-30.45Z" transform="translate(-275.039 82.666)" fill="#e6e6e6"/>
    </g>
  </g>
</svg>
